<svg id="Layer_1" data-name="Layer 1" xmlns="http://www.w3.org/2000/svg" viewBox="0 0 864 864"><defs><style>.cls-1,.cls-9{fill:#7d1113;}.cls-1{stroke:#7d1113;stroke-miterlimit:10;stroke-width:0.5px;}.cls-2{fill:#603913;}.cls-3{fill:#a97c50;}.cls-4{fill:#9b8579;}.cls-5{fill:#761113;}.cls-6{fill:#c6ac16;}.cls-7{fill:#fff;}.cls-8{fill:#607848;}</style></defs><path class="cls-1" d="M391.348,722.411c.466.039.971-.038,1.437-.038a20.1,20.1,0,0,1,3.421-.039,24.416,24.416,0,0,1,2.448.428,4.973,4.973,0,0,1,2.1,1.127,4.021,4.021,0,0,1,1.088,3.575c-.35,1.826-.35,1.826-2.176,3.808.855.623,1.71,1.206,2.525,1.828a2.9,2.9,0,0,1,1.05,1.826,6.574,6.574,0,0,1-.583,4.313c-.738,1.478-1.71,2.8-3.692,2.876-1.049.039-2.138.389-3.187.506a16.78,16.78,0,0,1-3.692.116c-.389-.039-.777.078-1.205.039a7.952,7.952,0,0,1-1.9-.194c-.389-.116-.5-.5-.466-.933a1.032,1.032,0,0,1,.816-.894,8.974,8.974,0,0,1,1.01-.038c.389-.039.583-.195.583-.583v-13.8c0-.312-.077-.661-.077-1.011a1.7,1.7,0,0,0-1.011-1.594c-.777-.426-.777-.544-.544-1.592C389.987,722.256,390.648,722.334,391.348,722.411Zm6.256,7.851a2.225,2.225,0,0,0,1.245-1.2,4.083,4.083,0,0,0-.118-3.5,2.5,2.5,0,0,0-2.1-1.439l-3.031-.232c-.078,0-.117.077-.078.038v7A10.491,10.491,0,0,0,397.6,730.262Zm-.777,10.221a3.8,3.8,0,0,0,3.188-2.72,3.65,3.65,0,0,0-1.9-4.508,17.464,17.464,0,0,0-4.353-.817v8.084A7.4,7.4,0,0,0,396.827,740.483Zm17.332-5.441c-1.05.078-2.1.117-3.187.194a13.162,13.162,0,0,0-1.283,4.237l-.194,1.36a12.032,12.032,0,0,1,2.1.7.579.579,0,0,1-.039,1.05,3.428,3.428,0,0,1-1.322.389c-1.321,0-2.681-.078-4-.2a.878.878,0,0,1-.893-.777.988.988,0,0,1,.544-.933l1.321-.466.817-1.749a23.817,23.817,0,0,0,.854-2.331l.467-1.127c.816-2.216,1.982-4.315,2.915-6.492.777-1.9,1.593-3.769,2.332-5.673.194-.428.31-.778.854-.778a1.2,1.2,0,0,1,1.05.817c.195.622.35,1.282.544,1.943.66,2.176,1.282,4.313,1.982,6.49q.875,2.565,1.866,5.13a33.413,33.413,0,0,0,2.059,3.925,13.349,13.349,0,0,1,1.71.428.709.709,0,0,1,.272,1.244,2.131,2.131,0,0,1-1.9.544c-.272-.078-.544-.078-.816-.156a4.913,4.913,0,0,0-2.255-.117.672.672,0,0,1-.387-.038c-.778-.156.038-1.322.038-1.322l-.661-1.787-1.67-4.741Zm.972-5.907a5.842,5.842,0,0,0-.972-2.138l-2.876,6.335c3.42.583,3.692.622,5.674.194C416.491,732.283,415.247,729.407,415.131,729.135Zm14.027-5.868a5.026,5.026,0,0,1,2.022-.117,19.289,19.289,0,0,0,2.137.038,2.794,2.794,0,0,1,1.01.273c.661.389.622,1.049-.077,1.4a1.86,1.86,0,0,1-.661.195c-.194.038-.389.038-.7.077a43.535,43.535,0,0,0-.234,6.451c.273-.311.467-.5.622-.7l3.731-5.091a1.609,1.609,0,0,0,.467-1.439.7.7,0,0,1,.7-.893,26.7,26.7,0,0,1,2.76.039l.233.66c.077.35-.233.467-.506.544l-.077.039a2.333,2.333,0,0,0-2.177,1.361c-.777,1.166-1.749,2.214-2.6,3.342-.545.739-1.05,1.516-1.594,2.331,1.982.583,3.07,2.177,4.158,3.693,1.2,1.633,2.293,3.731,3.459,5.363a6.1,6.1,0,0,0,2.1,1.166,3.69,3.69,0,0,1,.622.467c-.467.7-3.381.7-3.381.7a8.488,8.488,0,0,0-1.128-2.177c-1.088-1.4-2.176-3.225-3.226-4.7a8.184,8.184,0,0,0-2.564-2.216c-.428-.271-.855-.5-1.438-.854-.078.5-.156.893-.195,1.282-.039.622,0,1.2,0,1.827a11.819,11.819,0,0,0,.428,3.5c.272,1.089.583,1.322,1.749,1.478a6.448,6.448,0,0,1,.816.232c.35.078.661.195.544.583a.961.961,0,0,1-.622.545,21.968,21.968,0,0,1-2.293.233,21.409,21.409,0,0,1-2.177.194,11.428,11.428,0,0,1-2.292-.233c-.156-.039-.35-.35-.427-.583-.039-.272-.117-.661.271-.855.273-.116.583-.194.856-.311l.66-.233a1.237,1.237,0,0,0,.622-1.438,28.873,28.873,0,0,1-.311-3.692c-.156-3.031-.272-6.063-.388-9.055a2.277,2.277,0,0,0-.078-.544c-.272-1.322-.272-1.322-1.632-1.555C428.265,723.655,428.42,723.422,429.158,723.267Zm21.762,8.51a17.687,17.687,0,0,0,5.169.078c.155-.349.31-.738.5-1.126.155-.311.388-.623.855-.5.427.116.466.5.466.815-.039.856-.116,1.672-.194,2.526-.039.156-.195.389-.311.389-.155.039-.506-.039-.544-.155-.194-.467-.545-.428-.933-.389l-3.615.155a8.321,8.321,0,0,1-.893-.078l-.155,1.166-.35,2.177c0,.233-.078.467-.078.738.039.817.078,1.671.155,2.488.117.893.583,1.282,1.478,1.593a9,9,0,0,0,4.313.039,2.754,2.754,0,0,0,1.826-1.205c.273-.427.583-.816.856-1.2a.57.57,0,0,1,.777-.271.787.787,0,0,1,.428.5,16.4,16.4,0,0,1,.077,1.943,1.662,1.662,0,0,1-.972,1.477,1.041,1.041,0,0,1-.583.194c-1.515.039-3.031.116-4.547.155-1.01,0-2.02-.077-3.031-.077a15.029,15.029,0,0,0-3.731.038,3.012,3.012,0,0,1-1.165-.077.756.756,0,0,1-.622-.855c.039-.466.349-.5.7-.583l.544-.117c1.05-.194,1.36-.5,1.515-1.554.079-.5.039-.972.079-1.477,0-.816.116-1.671.078-2.487q-.059-2.506-.234-5.014l-.039-.738-.349-3.887c0-.116-.312-1.437-.778-1.749-.078-.077-.194-.077-.272-.155-.583-.311-.778-.66-.66-1.049a1.439,1.439,0,0,1,1.243-.661,28.649,28.649,0,0,0,5.752.272c1.36-.078,2.72-.117,4.081-.155h.583c1.088.077,1.4.388,1.4,1.477a5.581,5.581,0,0,1,0,1.127,2.356,2.356,0,0,1-.117.5.648.648,0,0,1-.933-.194,3.947,3.947,0,0,0-3.653-1.437,13.906,13.906,0,0,0-4.313.854A51.538,51.538,0,0,0,450.92,731.777Zm14.028-7.617c-.388-.039-.66-.155-.7-.583a.684.684,0,0,1,.622-.7,1.143,1.143,0,0,1,.389-.078c1.826.039,3.691.078,5.518.078a15.989,15.989,0,0,0,1.944-.116,9.846,9.846,0,0,1,4.391.505,4.843,4.843,0,0,1,2.137,1.593,21.666,21.666,0,0,1,2.993,4.663,8.094,8.094,0,0,1,.272,5.325,14.847,14.847,0,0,1-.621,2.332,13.745,13.745,0,0,1-1.128,2.41,6.508,6.508,0,0,1-3.226,2.448,13.93,13.93,0,0,1-3.809.622c-2.293,0-4.585.194-6.878.311a10.125,10.125,0,0,1-1.088,0c-.778-.039-1.088-.622-.739-1.322a1.546,1.546,0,0,1,1.127-.7c2.138-.388,1.71-.388,1.9-2.215a49.936,49.936,0,0,0-.079-5.4c0-.972,0-1.9-.077-2.876,0-.621-.117-1.282-.155-1.9-.078-.66-.039-1.322-.078-1.944-.078-.66-.233-1.282-.35-1.981C466.464,724.472,465.687,724.277,464.948,724.16Zm4.741,2.371c0,.544.118,1.088.118,1.671,0,1.749-.118,3.537-.118,5.285.04,1.906.157,3.771.195,5.675a.8.8,0,0,0,.739.894,10.148,10.148,0,0,0,4.041.155,8.333,8.333,0,0,0,3.653-1.943,4.228,4.228,0,0,0,1.2-1.127,7.333,7.333,0,0,0,1.011-5.752,11.852,11.852,0,0,0-3.926-5.868,3.118,3.118,0,0,0-2.487-.778,16.145,16.145,0,0,1-1.943,0c-.739.039-1.477.078-2.331.155C469.807,725.481,469.729,726.025,469.689,726.531Zm45.7-3.575c1.476-.078,2.953-.156,4.43-.272a1.248,1.248,0,0,1,1.049.427.738.738,0,0,1-.077,1.127.582.582,0,0,1-.272.116c-1.671.195-1.9,1.633-2.449,2.8-.194.389-.544,1.01-.7,1.4-1.088,2.487-2.02,4.974-2.953,7.5a49.905,49.905,0,0,1-2.526,6.14,3.561,3.561,0,0,1-.544.5,52.391,52.391,0,0,1-2.488-5.169l-1.088,2.45c-.388.776-.777,1.553-1.127,2.292a1.145,1.145,0,0,1-1.283-.661c-.388-.777-.777-1.554-1.127-2.371l-4.547-12.125c-.155-.388-.272-.777-.388-1.166a.885.885,0,0,0-1.011-.738,1.557,1.557,0,0,1-1.477-.856c.156-.622.7-.738,1.206-.738.777-.078,1.592-.039,2.37-.078.583,0,1.127-.116,1.71-.116a9.856,9.856,0,0,1,1.515.078l.157.389c.271.971.155,1.2-.817,1.36l-.894.194c.272.739.545,1.438.777,2.137.739,2.022,1.4,4.042,2.138,6.064.544,1.476,1.2,2.914,1.788,4.391H507c.389-.816.777-1.594,1.127-2.41a.579.579,0,0,0,.039-.35l-1.594-5.208c-.971-.271-.971-.271-.816-1.166,1.166-.116,2.332-.271,3.5-.349a.64.64,0,0,1,.466.427.686.686,0,0,1-.194.894,5.055,5.055,0,0,1-.739.273c.9,2.487,1.439,5.052,2.837,7.422L517.1,724.51c-.583-.038-1.011-.116-1.439-.156l-.932-.077C514.729,723.188,514.534,722.994,515.39,722.956ZM530,724.51s-.039.739-.117,1.36c-.116,1.244-.311,2.487-.389,3.771q-.174,1.691-.233,3.38v5.519c0,.272.039.544.039.816a2.23,2.23,0,0,0,1.515,2.215,10.149,10.149,0,0,1,.972.389c.428.233.467.583.039.816a1.073,1.073,0,0,1-.622.2,32.145,32.145,0,0,1-6.412-.2c-.272-.039-.544-.155-.583-.466a.578.578,0,0,1,.389-.661,8.654,8.654,0,0,1,1.36-.349.8.8,0,0,0,.854-.778,11.453,11.453,0,0,0,.118-2.6,14.126,14.126,0,0,1-.039-3.147c0-1.011.116-2.022.155-3.071l.116-5.092a5.536,5.536,0,0,0-.116-1.127c-.116-.738-.194-.815-.972-.971l-.971-.233a1.381,1.381,0,0,1-.466-.311c-.351-.35-.2-.66.31-.778a8.222,8.222,0,0,1,3.226,0,10.419,10.419,0,0,0,3.3.2.862.862,0,0,1,.543.117C531.905,724.277,530,724.51,530,724.51Zm14.728,4.548-.117,2.487a29.121,29.121,0,0,0-.039,5.207c.156,1.283.156,2.6.311,3.887a1.744,1.744,0,0,0,.117.427c.738.156,1.593-.039,2.176.7-.2.7-.777.894-1.4.971a9.432,9.432,0,0,1-1.049.039c-1.283-.039-2.565-.116-3.809-.155a1.733,1.733,0,0,1-.466-.039c-.35-.078-.816.078-.933-.428a.971.971,0,0,1,.661-1.01c.466-.233.971-.389,1.437-.661a.826.826,0,0,0,.506-.816c0-2.021.077-4.081.116-6.1v-7.889c0-.2-.077-.389-.077-.5-.078-.078-.117-.078-.117-.078-1.4.078-2.8.117-4.158.233a1.321,1.321,0,0,0-1.205.933c-.039.194-.427.388-.622.388a1.394,1.394,0,0,1-.661-.427c-.116-.077-.116-.272-.155-.427a7.264,7.264,0,0,1,.35-2.605l4.352.118c.817.038,1.671.038,2.488.038,2.1-.077,4.158-.156,6.257-.272a11.087,11.087,0,0,0,1.593-.116c.777-.078,1.05.077,1.127.894a2.742,2.742,0,0,1-.232,1.9.8.8,0,0,1-1.439-.117,1.3,1.3,0,0,0-1.36-.7c-1.166.039-2.293.117-3.575.194Zm12.395-5.714c1.282.078,3.3-.116,3.575,0a1.116,1.116,0,0,1,.583,1.05c-.039.427-1.36.31-1.36.31l.078,1.749c0,1.749.038,3.226-.078,4.936,0,.194.039.35.039.622,2.409.272,5.052-.466,7.539-.156.156-2.253.039-4.236.194-6.606-.971-.272-1.009-.934-.815-1.827l1.437-.155c.506-.039,1.05-.079,1.555-.079.544-.038.777.118.933.7.194.7.117,1.009-.466,1.166-.545.194-.583.582-.583,1.009-.039,1.867-.078,3.732-.194,5.6-.157,2.8.426,5.6.271,8.434-.039.466,0,.932,0,1.437.467.117,1.05.156,1.089.856,0,.544-.117.816-.661.854-1.05.078-2.1.078-3.149.078-.465,0-.66-.388-.66-.854a1.737,1.737,0,0,1,.155-.7s1.166-.195,1.166-.739c0-1.166-.039-2.8,0-3.964s-.272-2.332-.233-3.5c0-.155-.039-.116-.039-.155-2.409.116-5.13,0-7.539.116a28.77,28.77,0,0,0,.194,6.413,1.337,1.337,0,0,0,1.283,1.477,7.21,7.21,0,0,1,.971.155s.2,1.4-.622,1.594a3.469,3.469,0,0,1-1.088-.039c-1.476-.077-2.954.039-4.47-.039-.155,0-.31-.038-.426-.038-.428-.117-.817-.234-.817-.739a1.909,1.909,0,0,1,.234-.894l1.165-.155,1.089-.117c0-2.254-.039-4.469,0-6.646,0-1.943.077-3.925.116-5.868,0-.933-.077-1.9-.116-2.837-.039-.855-.078-.933-.856-1.244-.233-.077-.466-.116-.738-.195-.35-.116-.583-.31-.35-.854C556.035,723.461,556.579,723.344,557.124,723.344Zm44.029,17.1L600.92,742c-.077.661-.232.777-.894.777-1.4,0-2.8-.039-4.2-.039-.777,0-1.555.117-2.332.156-.893.039-1.788,0-2.682.039-.854,0-1.749.078-2.6.117-.506.038-.816-.117-.933-.467a.789.789,0,0,1,.427-1.011,1.535,1.535,0,0,1,.816-.233,1.021,1.021,0,0,0,.856-.66,9.412,9.412,0,0,0,.621-4c-.038-.738-.116-1.477-.116-2.177-.039-2.409-.078-4.819-.155-7.228a7.135,7.135,0,0,0-.195-1.206l-1.05-.233c-.583-.155-.7-.31-.66-1.127.039-.583.156-.66.739-.7.893-.116,1.788-.234,2.681-.273,1.2,0,2.37.039,3.575.079.389.039.7.233.7.661a.668.668,0,0,1-.545.815c-.621.194-1.166.506-1.787.738a6.956,6.956,0,0,0-.506,2.527c.039,1.36-.077,2.681-.077,4.042q0,1.69.116,3.381l.233,4.508c0,.156.039.311.039.505a9.963,9.963,0,0,0,3.692.156,2.379,2.379,0,0,1,1.049,0c1.088.194,1.594-.466,1.944-1.322l.816-1.826a.53.53,0,0,1,.777-.233A7.784,7.784,0,0,1,601.153,740.444Zm8.7,1.866a4.485,4.485,0,0,0-1.9-.35c-.232.039-.544-.194-.854-.311a9.481,9.481,0,0,1-3.5-1.982,3.251,3.251,0,0,1-.972-1.321,8.621,8.621,0,0,1-.855-4.042,36.427,36.427,0,0,1,.661-4.663,9.814,9.814,0,0,1,3.3-4.975l1.555-1.322a2.5,2.5,0,0,1,2.293-.621,3.181,3.181,0,0,0,.854-.039h2.566c.116,0,.233.039.389.039a6.372,6.372,0,0,1,4.625,2.37,18.435,18.435,0,0,1,1.476,1.515,8.9,8.9,0,0,1,1.983,7.113,3.391,3.391,0,0,0-.118.622,3.927,3.927,0,0,1-.738,1.865c-.622.816-1.127,1.749-1.749,2.565-.7.894-1.516,1.788-2.293,2.643a.491.491,0,0,1-.271.194c-1.516.35-2.915,1.166-4.586,1.088A15.885,15.885,0,0,1,609.857,742.31Zm-4.08-5.985a26.174,26.174,0,0,0,1.9,2.72c.893,1.322,2.37,1.9,3.692,2.643.116.078.35,0,.544,0a7.783,7.783,0,0,0,3.031-1.283,4.313,4.313,0,0,0,1.826-1.515,15.938,15.938,0,0,0,2.138-8.705,3.913,3.913,0,0,0-.854-2.06,23.3,23.3,0,0,1-1.944-2.876,2.709,2.709,0,0,0-2.565-1.555,3.29,3.29,0,0,1-1.2-.194,4.565,4.565,0,0,0-2.953.466,8.3,8.3,0,0,0-1.633,1.05,5.472,5.472,0,0,0-2.293,2.8,13.29,13.29,0,0,0-.466,4.392A6.564,6.564,0,0,0,605.777,736.325Zm18.613-12.359c-.388-.855.506-.816,1.128-.894,1.321-.078,2.681-.039,4,0a.838.838,0,0,1,.583.35.7.7,0,0,1-.273.583,8.66,8.66,0,0,1-1.321.5c1.788,4.625,3.225,9.4,5.557,14.069.311-.622.544-1.127.778-1.671.854-1.827,1.71-3.615,2.526-5.48.544-1.361,1.01-2.8,1.516-4.158a4.156,4.156,0,0,0,.155-.544,2.27,2.27,0,0,0-.194-2.411c-.5-.116-1.05-.155-1.594-.31-.155-.039-.389-.273-.389-.389a.62.62,0,0,1,.428-.388.857.857,0,0,1,.544-.04,3.943,3.943,0,0,0,1.516-.194,16.418,16.418,0,0,1,2.41-.194c.426,0,.893,0,1.321.039a.5.5,0,0,1,.544.5.535.535,0,0,1-.583.506,3.314,3.314,0,0,0-.622,0,2.027,2.027,0,0,0-.7.388c-1.361,1.2-1.71,2.953-2.332,4.547-.817,2.138-1.594,4.315-2.449,6.451-.583,1.478-1.282,2.915-1.9,4.431-.311.738-.506,1.516-.777,2.254-.078.311-.117.661-.5.7-.428.039-.661-.272-.817-.661-.117-.389-.233-.816-.388-1.205-.273-.776-.544-1.516-.856-2.254-.349-.972-.815-1.865-1.166-2.837a89.634,89.634,0,0,0-3.964-9.833c-.271-.5-.583-1.01-.854-1.554C625.051,724.16,624.7,724.666,624.39,723.966Zm27.165,7.811a17.687,17.687,0,0,0,5.169.078c.155-.349.31-.738.5-1.126.155-.311.388-.623.855-.5.427.116.466.5.466.815-.039.856-.116,1.672-.195,2.526-.039.156-.194.389-.31.389-.155.039-.506-.039-.544-.155-.194-.467-.545-.428-.934-.389l-3.614.155a8.321,8.321,0,0,1-.893-.078l-.156,1.166-.349,2.177c0,.233-.078.467-.078.738.039.817.078,1.671.155,2.488.117.893.583,1.282,1.477,1.593a9.007,9.007,0,0,0,4.314.039,2.754,2.754,0,0,0,1.826-1.205c.272-.427.583-.816.855-1.2a.571.571,0,0,1,.778-.271.787.787,0,0,1,.428.5,16.4,16.4,0,0,1,.077,1.943,1.662,1.662,0,0,1-.972,1.477,1.043,1.043,0,0,1-.583.194c-1.516.039-3.031.116-4.547.155-1.011,0-2.02-.077-3.031-.077a15.037,15.037,0,0,0-3.732.038,3.014,3.014,0,0,1-1.165-.077.756.756,0,0,1-.622-.855c.039-.466.35-.5.7-.583l.544-.117c1.049-.194,1.36-.5,1.515-1.554.078-.5.039-.972.078-1.477,0-.816.116-1.671.078-2.487q-.058-2.506-.233-5.014l-.039-.738-.35-3.887c0-.116-.311-1.437-.777-1.749-.078-.077-.194-.077-.272-.155-.583-.311-.778-.66-.661-1.049a1.442,1.442,0,0,1,1.244-.661,28.643,28.643,0,0,0,5.751.272c1.361-.078,2.721-.117,4.082-.155h.583c1.087.077,1.4.388,1.4,1.477a5.581,5.581,0,0,1,0,1.127,2.356,2.356,0,0,1-.117.5.648.648,0,0,1-.933-.194,3.948,3.948,0,0,0-3.653-1.437,13.912,13.912,0,0,0-4.314.854A51.538,51.538,0,0,0,651.555,731.777Z"/><polygon class="cls-2" points="596.027 308.131 562.711 229.643 301.289 229.643 267.973 308.131 251.134 347.802 251.134 404.326 251.134 593.835 616.082 593.835 616.082 404.326 616.082 355.379 596.027 308.131"/><polygon class="cls-3" points="382.479 322.205 430.067 239.779 477.656 322.205 525.069 404.326 636.859 404.326 562.711 219.638 301.289 219.638 227.141 404.326 335.066 404.326 382.479 322.205"/><path class="cls-3" d="M508.344,434.019l-38.006-65.828-38.009-65.833-38.008,65.833-38.006,65.828h0V593.86h25.336s-.064-122.665-.064-123.708c0-35.156,23.239-63.656,51.907-63.656S485.4,435,485.4,470.152c0,1.293-.128,123.708-.128,123.708H508.35V434.019Z"/><path class="cls-4" d="M399.109,578.987c-.018-33.686-.055-104.178-.055-104.971,0-24.931,15.786-45.994,34.471-45.994S468,449.085,468,474.016c0,.982-.059,71.331-.088,104.971Z"/><path class="cls-5" d="M433.525,422.339c-21.594,0-39.837,23.52-39.837,51.361,0,.792.037,71.286.055,104.973l0,5.363h79.523l0-5.361c.028-33.641.087-103.994.087-104.975C473.361,445.859,455.119,422.339,433.525,422.339ZM462.63,473.7c0,.359-.008,10.023-.019,23.776H436.939V433.39C450.971,435.915,462.63,453.663,462.63,473.7Zm-32.52-40.31v64.086H404.432c-.008-13.8-.013-23.486-.013-23.776C404.419,453.663,416.078,435.916,430.11,433.39ZM404.435,504.3H430.11v69H404.472C404.461,553.829,404.446,525.706,404.435,504.3Zm32.5,69v-69h25.666c-.018,21.4-.041,49.526-.058,69Z"/><circle class="cls-6" cx="468.414" cy="501.072" r="4.486"/><path class="cls-4" d="M595.795,487.379a33.146,33.146,0,0,0-66.291,0c0,.542.015,1.081.041,1.617v62.182h66.184v-61.8C595.769,488.717,595.795,488.051,595.795,487.379Z"/><path class="cls-7" d="M562.65,451.176a36.271,36.271,0,0,0-36.256,36.2c0,.566.015,1.129.04,1.689v65.221H598.84V489.47c.04-.692.066-1.389.066-2.091A36.271,36.271,0,0,0,562.65,451.176Zm29.316,29.7H565.69V457.55A30.082,30.082,0,0,1,591.966,480.881Zm.719,6.5c0,.61-.025,1.214-.061,1.815l0,19.93H565.69V487.1h26.988C592.679,487.194,592.685,487.286,592.685,487.379Zm-60.033,1.47c-.023-.487-.038-.977-.038-1.47,0-.093.007-.185.008-.278h26.847v22.023H532.655V489Zm26.817-31.283v23.315H533.333A30.082,30.082,0,0,1,559.469,457.566Zm-26.814,57.779h26.814V537.74H532.655ZM565.69,537.74V515.345h26.932l0,22.395Z"/><path class="cls-4" d="M335.607,487.379a33.146,33.146,0,0,0-66.291,0c0,.542.016,1.081.041,1.617v62.182h66.184v-61.8C335.581,488.717,335.607,488.051,335.607,487.379Z"/><path class="cls-7" d="M302.462,451.176a36.271,36.271,0,0,0-36.256,36.2c0,.566.015,1.129.04,1.689v65.221h72.406V489.47c.04-.692.066-1.389.066-2.091A36.271,36.271,0,0,0,302.462,451.176Zm29.316,29.7H305.5V457.55A30.082,30.082,0,0,1,331.778,480.881Zm.719,6.5c0,.61-.024,1.214-.061,1.815v19.93H305.5V487.1H332.49C332.491,487.194,332.5,487.286,332.5,487.379Zm-60.033,1.47c-.023-.487-.037-.977-.037-1.47,0-.093.006-.185.007-.278h26.847v22.023H272.467V489Zm26.817-31.283v23.315H273.145A30.083,30.083,0,0,1,299.281,457.566Zm-26.814,57.779h26.814V537.74H272.467ZM305.5,537.74V515.345h26.932l0,22.395Z"/><path class="cls-8" d="M301.823,466.485h-.067a8.837,8.837,0,0,0-6.611,3,8.836,8.836,0,0,0-7.287-.217l-.068.029a8.834,8.834,0,0,0-4.957,5.337q-.255-.015-.51-.015a8.83,8.83,0,0,0-6.28,2.612l-.056.057a8.832,8.832,0,0,0-2.525,6.824,8.832,8.832,0,0,0-5.287,5.036l0,.007,0,0-.009.024a8.832,8.832,0,0,0,.3,7.3,8.834,8.834,0,0,0-2.927,6.673v.069a8.829,8.829,0,0,0,3.069,6.578,8.835,8.835,0,0,0-.134,7.3l.01.024.014.033a8.836,8.836,0,0,0,5.387,4.9,8.834,8.834,0,0,0,2.685,6.78l.01.009.041.04a8.827,8.827,0,0,0,6.136,2.471q.351,0,.7-.027a8.831,8.831,0,0,0,5.065,5.223l.046.018.015.006a8.83,8.83,0,0,0,7.3-.372,8.836,8.836,0,0,0,6.514,2.86l.188,0h.038a8.837,8.837,0,0,0,6.578-3.137,8.83,8.83,0,0,0,7.282.066l.07-.031a8.837,8.837,0,0,0,4.848-5.441q.163.006.327.006a8.827,8.827,0,0,0,6.418-2.754l.009-.009.024-.025a8.837,8.837,0,0,0,2.4-6.887,8.834,8.834,0,0,0,5.175-5.134l.017-.042v0a8.833,8.833,0,0,0-.449-7.295,8.836,8.836,0,0,0,2.789-6.731v-.037h0V501.6a8.832,8.832,0,0,0-3.2-6.532,8.834,8.834,0,0,0-.011-7.281l-.015-.034-.009-.021a8.833,8.833,0,0,0-5.5-4.805,8.839,8.839,0,0,0-2.825-6.724l-.006,0-.015-.014-.007-.007a8.82,8.82,0,0,0-6.025-2.368,8.712,8.712,0,0,0-.885.044,8.835,8.835,0,0,0-5.186-5.121l-.037-.013-.013,0a8.813,8.813,0,0,0-6.5.148,8.825,8.825,0,0,0-6.026-2.373Zm-10.584,19.836a8.847,8.847,0,0,0,3.417-.688l.017-.008a8.815,8.815,0,0,0,3.234-2.319,8.831,8.831,0,0,0,3.892.9h.024a8.823,8.823,0,0,0,3.442-.695,8.841,8.841,0,0,0,2.976,1.829l.018.006a8.817,8.817,0,0,0,3.955.5,8.826,8.826,0,0,0,2.241,3.311l.014.013a8.83,8.83,0,0,0,3.474,2,8.832,8.832,0,0,0,.8,3.917l.008.017a8.817,8.817,0,0,0,2.416,3.156,8.833,8.833,0,0,0-.775,3.913v.02a8.827,8.827,0,0,0,1.026,3.875,8.844,8.844,0,0,0-2.218,3.312l-.006.018a8.814,8.814,0,0,0-.546,3.95,8.824,8.824,0,0,0-3.335,2.208l-.014.014a8.831,8.831,0,0,0-2.03,3.452c-.112,0-.225-.006-.338-.006a8.841,8.841,0,0,0-3.586.762l-.017.008a8.831,8.831,0,0,0-3.182,2.383,8.823,8.823,0,0,0-3.719-.817l-.189,0h-.019a8.827,8.827,0,0,0-3.884.985,8.826,8.826,0,0,0-3.286-2.251l-.018-.006a8.839,8.839,0,0,0-3.238-.616q-.356,0-.708.028a8.838,8.838,0,0,0-2.173-3.359l-.014-.013a8.833,8.833,0,0,0-3.431-2.066,8.821,8.821,0,0,0-.714-3.929l-.008-.018a8.828,8.828,0,0,0-2.351-3.208,8.823,8.823,0,0,0,.856-3.9v-.02a8.818,8.818,0,0,0-.944-3.89,8.823,8.823,0,0,0,2.284-3.262l.007-.017a8.818,8.818,0,0,0,.628-3.942,8.829,8.829,0,0,0,3.383-2.138l.014-.014a8.841,8.841,0,0,0,2.1-3.408c.172.01.346.015.519.015Z"/><path class="cls-5" d="M302.91,531.363a2.842,2.842,0,0,1,2.381-3.244h0a2.85,2.85,0,0,1,3.245,2.381h0a2.85,2.85,0,0,1-2.391,3.244h.009a3.377,3.377,0,0,1-.436.038h0A2.844,2.844,0,0,1,302.91,531.363Zm-17.8-1.926h0a2.836,2.836,0,0,1-.911-3.918h0a2.835,2.835,0,0,1,3.918-.91h0a2.839,2.839,0,0,1,.91,3.918h0a2.861,2.861,0,0,1-2.419,1.347h0A2.793,2.793,0,0,1,285.114,529.437Zm35.8-5.824a2.843,2.843,0,0,1-.313-4.013h0a2.842,2.842,0,0,1,4.012-.3h0a2.832,2.832,0,0,1,.3,4.012h.009a2.863,2.863,0,0,1-2.162,1h0A2.809,2.809,0,0,1,320.915,523.613Zm-48.978-11.137a2.861,2.861,0,0,1,1.86-3.577h0a2.853,2.853,0,0,1,3.576,1.86h0a2.852,2.852,0,0,1-1.869,3.567h0a2.67,2.67,0,0,1-.854.133h0A2.84,2.84,0,0,1,271.937,512.476Zm54.746-9.306h.009a2.84,2.84,0,0,1,2.837-2.846h0a2.842,2.842,0,0,1,2.846,2.846h.009a2.85,2.85,0,0,1-2.855,2.846h0A2.848,2.848,0,0,1,326.683,503.17Zm-52.194-8.415a2.853,2.853,0,0,1-1.5-3.737h0a2.853,2.853,0,0,1,3.738-1.5h0a2.851,2.851,0,0,1,1.5,3.737h0a2.852,2.852,0,0,1-2.618,1.727h0A2.947,2.947,0,0,1,274.489,494.755Zm47.631-6.071h.009a2.825,2.825,0,0,1,.693-3.956h0a2.847,2.847,0,0,1,3.965.692h0a2.847,2.847,0,0,1-.7,3.966h0a2.791,2.791,0,0,1-1.632.512h0A2.84,2.84,0,0,1,322.12,488.684Zm-35.65-9.448a2.837,2.837,0,0,1,1.29-3.814h0a2.858,2.858,0,0,1,3.813,1.29h0a2.856,2.856,0,0,1-1.289,3.814h0a2.865,2.865,0,0,1-1.262.294h0A2.843,2.843,0,0,1,286.47,479.236Zm21.24-.522a2.851,2.851,0,0,1-2.049-3.463h0a2.844,2.844,0,0,1,3.462-2.058h0a2.85,2.85,0,0,1,2.049,3.462h0a2.85,2.85,0,0,1-2.76,2.144h0A3.019,3.019,0,0,1,307.71,478.714Z"/><path class="cls-8" d="M563.62,466.485h-.067a8.837,8.837,0,0,0-6.611,3,8.836,8.836,0,0,0-7.287-.217l-.068.029a8.834,8.834,0,0,0-4.957,5.337q-.255-.015-.51-.015a8.83,8.83,0,0,0-6.28,2.612l-.056.057a8.832,8.832,0,0,0-2.525,6.824,8.832,8.832,0,0,0-5.287,5.036l0,.007,0,0-.009.024a8.836,8.836,0,0,0,.3,7.3,8.837,8.837,0,0,0-2.926,6.673v.069a8.829,8.829,0,0,0,3.069,6.578,8.835,8.835,0,0,0-.134,7.3l.01.024.014.033a8.836,8.836,0,0,0,5.387,4.9,8.834,8.834,0,0,0,2.685,6.78l.01.009.041.04a8.827,8.827,0,0,0,6.136,2.471q.351,0,.7-.027a8.831,8.831,0,0,0,5.065,5.223l.046.018.015.006a8.83,8.83,0,0,0,7.3-.372,8.834,8.834,0,0,0,6.513,2.86l.189,0h.038a8.837,8.837,0,0,0,6.578-3.137,8.83,8.83,0,0,0,7.282.066l.07-.031a8.832,8.832,0,0,0,4.847-5.441q.163.006.327.006a8.827,8.827,0,0,0,6.419-2.754l.009-.009.024-.025a8.837,8.837,0,0,0,2.4-6.887,8.834,8.834,0,0,0,5.175-5.134l.016-.042,0,0a8.836,8.836,0,0,0-.449-7.295,8.836,8.836,0,0,0,2.789-6.731v-.037h0V501.6a8.832,8.832,0,0,0-3.2-6.532,8.834,8.834,0,0,0-.011-7.281l-.015-.034-.01-.021a8.829,8.829,0,0,0-5.5-4.805,8.839,8.839,0,0,0-2.825-6.724l-.006,0-.015-.014-.007-.007a8.82,8.82,0,0,0-6.025-2.368,8.712,8.712,0,0,0-.885.044,8.835,8.835,0,0,0-5.186-5.121l-.037-.013-.013,0a8.816,8.816,0,0,0-6.5.148,8.821,8.821,0,0,0-6.025-2.373Zm-10.584,19.836a8.839,8.839,0,0,0,3.416-.688l.018-.008a8.823,8.823,0,0,0,3.234-2.319,8.831,8.831,0,0,0,3.892.9h.024a8.823,8.823,0,0,0,3.442-.695,8.841,8.841,0,0,0,2.976,1.829l.018.006a8.813,8.813,0,0,0,3.954.5,8.84,8.84,0,0,0,2.242,3.311l.014.013a8.83,8.83,0,0,0,3.474,2,8.818,8.818,0,0,0,.8,3.917l.008.017a8.817,8.817,0,0,0,2.416,3.156,8.833,8.833,0,0,0-.775,3.913v.02a8.827,8.827,0,0,0,1.026,3.875A8.844,8.844,0,0,0,581,509.378l-.006.018a8.814,8.814,0,0,0-.546,3.95,8.824,8.824,0,0,0-3.335,2.208l-.014.014a8.831,8.831,0,0,0-2.03,3.452c-.112,0-.225-.006-.338-.006a8.838,8.838,0,0,0-3.586.762l-.017.008a8.831,8.831,0,0,0-3.182,2.383,8.823,8.823,0,0,0-3.719-.817l-.189,0h-.019a8.827,8.827,0,0,0-3.884.985,8.829,8.829,0,0,0-3.287-2.251l-.017-.006a8.839,8.839,0,0,0-3.238-.616q-.355,0-.708.028a8.829,8.829,0,0,0-2.174-3.359l-.013-.013a8.833,8.833,0,0,0-3.431-2.066,8.821,8.821,0,0,0-.714-3.929l-.008-.018a8.828,8.828,0,0,0-2.351-3.208,8.837,8.837,0,0,0,.856-3.9v-.02a8.818,8.818,0,0,0-.944-3.89,8.823,8.823,0,0,0,2.284-3.262l.007-.017a8.818,8.818,0,0,0,.628-3.942,8.829,8.829,0,0,0,3.383-2.138l.013-.014a8.832,8.832,0,0,0,2.1-3.408q.258.015.519.015Z"/><path class="cls-5" d="M564.707,531.363a2.842,2.842,0,0,1,2.38-3.244h0a2.851,2.851,0,0,1,3.246,2.381h0a2.85,2.85,0,0,1-2.391,3.244h.009a3.377,3.377,0,0,1-.437.038h0A2.843,2.843,0,0,1,564.707,531.363Zm-17.8-1.926h0a2.837,2.837,0,0,1-.91-3.918h0a2.834,2.834,0,0,1,3.917-.91h0a2.838,2.838,0,0,1,.911,3.918h0a2.861,2.861,0,0,1-2.419,1.347h0A2.8,2.8,0,0,1,546.91,529.437Zm35.8-5.824a2.843,2.843,0,0,1-.313-4.013h0a2.842,2.842,0,0,1,4.012-.3h0a2.832,2.832,0,0,1,.3,4.012h.009a2.863,2.863,0,0,1-2.162,1h0A2.809,2.809,0,0,1,582.712,523.613Zm-48.978-11.137a2.861,2.861,0,0,1,1.859-3.577h0a2.853,2.853,0,0,1,3.576,1.86h0a2.851,2.851,0,0,1-1.868,3.567h0a2.674,2.674,0,0,1-.854.133h0A2.84,2.84,0,0,1,533.734,512.476Zm54.746-9.306h.009a2.84,2.84,0,0,1,2.837-2.846h0a2.842,2.842,0,0,1,2.846,2.846h.009a2.85,2.85,0,0,1-2.855,2.846h0A2.848,2.848,0,0,1,588.48,503.17Zm-52.194-8.415a2.853,2.853,0,0,1-1.5-3.737h0a2.853,2.853,0,0,1,3.738-1.5h0a2.851,2.851,0,0,1,1.5,3.737h0a2.854,2.854,0,0,1-2.618,1.727h0A2.947,2.947,0,0,1,536.286,494.755Zm47.63-6.071h.01a2.825,2.825,0,0,1,.693-3.956h0a2.847,2.847,0,0,1,3.965.692h0a2.847,2.847,0,0,1-.7,3.966h0a2.791,2.791,0,0,1-1.632.512h0A2.843,2.843,0,0,1,583.916,488.684Zm-35.649-9.448a2.836,2.836,0,0,1,1.29-3.814h0a2.858,2.858,0,0,1,3.813,1.29h0a2.856,2.856,0,0,1-1.289,3.814h0a2.865,2.865,0,0,1-1.262.294h0A2.842,2.842,0,0,1,548.267,479.236Zm21.24-.522a2.851,2.851,0,0,1-2.049-3.463h0a2.844,2.844,0,0,1,3.462-2.058h0a2.85,2.85,0,0,1,2.049,3.462h0a2.852,2.852,0,0,1-2.761,2.144h0A3.011,3.011,0,0,1,569.507,478.714Z"/><path class="cls-8" d="M433.407,431.479h-.053a7.042,7.042,0,0,0-5.27,2.392,7.038,7.038,0,0,0-5.808-.173l-.054.023a7.04,7.04,0,0,0-3.952,4.254c-.135-.008-.271-.012-.406-.012a7.038,7.038,0,0,0-5.006,2.082l-.045.045a7.046,7.046,0,0,0-2.013,5.44,7.037,7.037,0,0,0-4.214,4.014l0,.006v0l-.008.019a7.041,7.041,0,0,0,.236,5.82,7.038,7.038,0,0,0-2.333,5.319v.055a7.039,7.039,0,0,0,2.446,5.244,7.04,7.04,0,0,0-.107,5.82l.008.02.012.026a7.038,7.038,0,0,0,4.293,3.9,7.046,7.046,0,0,0,2.141,5.405l.007.007.033.032a7.039,7.039,0,0,0,4.891,1.97c.187,0,.373-.008.56-.022a7.038,7.038,0,0,0,4.037,4.163l.037.015.012,0a7.047,7.047,0,0,0,5.818-.3,7.042,7.042,0,0,0,5.192,2.279h.18a7.042,7.042,0,0,0,5.244-2.5,7.043,7.043,0,0,0,5.8.052l.056-.025a7.037,7.037,0,0,0,3.864-4.336c.087,0,.174,0,.261,0a7.038,7.038,0,0,0,5.116-2.195l.007-.007.019-.02a7.041,7.041,0,0,0,1.91-5.49,7.043,7.043,0,0,0,4.126-4.092l.012-.034,0,0a7.042,7.042,0,0,0-.359-5.814,7.044,7.044,0,0,0,2.224-5.366v-.029h0v-.011a7.038,7.038,0,0,0-2.554-5.207,7.043,7.043,0,0,0-.008-5.8l-.013-.027-.007-.016a7.038,7.038,0,0,0-4.382-3.831,7.043,7.043,0,0,0-2.252-5.359l-.005,0-.012-.011,0,0a7.033,7.033,0,0,0-4.8-1.888q-.354,0-.706.035a7.039,7.039,0,0,0-4.133-4.081l-.03-.011-.01,0a7.031,7.031,0,0,0-5.183.118,7.034,7.034,0,0,0-4.8-1.891Zm-8.436,15.811a7.034,7.034,0,0,0,2.723-.549l.014-.006a7.029,7.029,0,0,0,2.578-1.848,7.04,7.04,0,0,0,3.1.716h.019a7.055,7.055,0,0,0,2.744-.554,7.042,7.042,0,0,0,2.372,1.457l.015.005a7.013,7.013,0,0,0,3.152.4,7.038,7.038,0,0,0,1.786,2.639l.011.01a7.034,7.034,0,0,0,2.77,1.59,7.035,7.035,0,0,0,.635,3.122l.006.014a7.027,7.027,0,0,0,1.926,2.516,7.033,7.033,0,0,0-.617,3.119v.016a7.037,7.037,0,0,0,.818,3.089,7.048,7.048,0,0,0-1.768,2.64l0,.014a7.031,7.031,0,0,0-.435,3.149,7.043,7.043,0,0,0-2.659,1.759l-.01.012a7.041,7.041,0,0,0-1.619,2.752c-.089,0-.179,0-.269,0a7.042,7.042,0,0,0-2.858.607l-.014.006a7.051,7.051,0,0,0-2.537,1.9,7.034,7.034,0,0,0-2.964-.651h-.166a7.027,7.027,0,0,0-3.1.785,7.029,7.029,0,0,0-2.62-1.794l-.014-.006a7.05,7.05,0,0,0-2.581-.491c-.189,0-.377.008-.565.023a7.018,7.018,0,0,0-1.732-2.677l-.011-.011a7.042,7.042,0,0,0-2.734-1.647,7.047,7.047,0,0,0-.57-3.132l-.006-.014a7.024,7.024,0,0,0-1.874-2.557,7.043,7.043,0,0,0,.682-3.11v-.016a7.045,7.045,0,0,0-.752-3.1,7.034,7.034,0,0,0,1.82-2.6l.006-.014a7.042,7.042,0,0,0,.5-3.142,7.036,7.036,0,0,0,2.7-1.7l.011-.01a7.044,7.044,0,0,0,1.674-2.717c.137.008.276.012.414.012Z"/><path class="cls-5" d="M434.274,483.193a2.265,2.265,0,0,1,1.9-2.586h0a2.272,2.272,0,0,1,2.587,1.9h0a2.272,2.272,0,0,1-1.906,2.586h.008a2.556,2.556,0,0,1-.348.031h0A2.267,2.267,0,0,1,434.274,483.193Zm-14.186-1.535h0a2.262,2.262,0,0,1-.726-3.123h0a2.26,2.26,0,0,1,3.123-.726h0a2.265,2.265,0,0,1,.726,3.124h0a2.282,2.282,0,0,1-1.928,1.073h0A2.232,2.232,0,0,1,420.088,481.658Zm28.538-4.643a2.266,2.266,0,0,1-.25-3.2h0a2.265,2.265,0,0,1,3.2-.242h0a2.258,2.258,0,0,1,.243,3.2h.007a2.285,2.285,0,0,1-1.723.793h0A2.233,2.233,0,0,1,448.626,477.015Zm-39.041-8.877a2.281,2.281,0,0,1,1.482-2.851h0a2.274,2.274,0,0,1,2.851,1.483h0a2.274,2.274,0,0,1-1.49,2.843h0a2.146,2.146,0,0,1-.681.106h0A2.263,2.263,0,0,1,409.585,468.138Zm43.638-7.418h.008a2.263,2.263,0,0,1,2.261-2.268h0a2.265,2.265,0,0,1,2.268,2.268h.008a2.273,2.273,0,0,1-2.276,2.269h0A2.271,2.271,0,0,1,453.223,460.72Zm-41.6-6.707a2.275,2.275,0,0,1-1.2-2.979h0a2.275,2.275,0,0,1,2.98-1.195h0a2.272,2.272,0,0,1,1.195,2.979h0a2.275,2.275,0,0,1-2.087,1.376h0A2.351,2.351,0,0,1,411.619,454.013Zm37.967-4.839h.007a2.253,2.253,0,0,1,.553-3.154h0a2.269,2.269,0,0,1,3.16.552h0a2.268,2.268,0,0,1-.559,3.161h0a2.224,2.224,0,0,1-1.3.408h0A2.266,2.266,0,0,1,449.586,449.174Zm-28.417-7.532A2.26,2.26,0,0,1,422.2,438.6h0a2.277,2.277,0,0,1,3.039,1.028h0a2.276,2.276,0,0,1-1.028,3.04h0a2.286,2.286,0,0,1-1,.234h0A2.265,2.265,0,0,1,421.169,441.642Zm16.931-.416a2.272,2.272,0,0,1-1.633-2.76h0a2.267,2.267,0,0,1,2.759-1.641h0a2.272,2.272,0,0,1,1.634,2.76h0a2.273,2.273,0,0,1-2.2,1.709h0A2.372,2.372,0,0,1,438.1,441.226Z"/><path class="cls-9" d="M534.642,537.869a18.742,18.742,0,0,0-36.907-6.552l-9.523,53.667a7.9,7.9,0,0,0,3.221,7.792,7.73,7.73,0,0,0,3.122,1.291,7.812,7.812,0,0,0,9.09-6.345l9.521-53.662a3.074,3.074,0,1,1,6.055,1.071,7.831,7.831,0,1,0,15.421,2.738ZM501.79,587.4l-.017.066-10.418-9.413,1.732-9.735,10.413,9.4Zm4.217-23.795-10.415-9.4,1.731-9.735,10.413,9.4Zm4.237-23.866-10.36-9.337a16.773,16.773,0,0,1,4.2-7.514l8.843,7.978a4.906,4.906,0,0,0-1.617,2.867Zm6.279-21.994a17.065,17.065,0,0,1,2.619.249,16.749,16.749,0,0,1,6.116,2.382,16.971,16.971,0,0,1,4.749,4.57,16.786,16.786,0,0,1,2.907,7.594Z"/><path class="cls-7" d="M525.6,542.29a5.894,5.894,0,0,1-3.54-2.382,5.612,5.612,0,0,1-.753-1.484ZM501.79,587.4l1.71-9.684-10.413-9.4-1.732,9.735,10.418,9.413Zm5.946-33.538-10.413-9.4-1.731,9.735,10.415,9.4Zm3.578-20.129a4.906,4.906,0,0,1,1.617-2.867l-8.843-7.978a16.773,16.773,0,0,0-4.2,7.514l10.36,9.337Zm18.693-8.787a16.971,16.971,0,0,0-4.749-4.57,16.749,16.749,0,0,0-6.116-2.382,17.065,17.065,0,0,0-2.619-.249l16.391,14.795A16.786,16.786,0,0,0,530.007,524.942Z"/><path class="cls-9" d="M334.161,542.915a7.833,7.833,0,0,0,12.2-7.784,3.074,3.074,0,1,1,6.055-1.071l9.521,53.662a7.812,7.812,0,0,0,9.09,6.345,7.73,7.73,0,0,0,3.122-1.291,7.9,7.9,0,0,0,3.221-7.792l-9.523-53.667a18.742,18.742,0,0,0-36.907,6.552A7.766,7.766,0,0,0,334.161,542.915Zm27.925,34.8,10.413-9.4,1.732,9.735-10.418,9.413-.017-.066Zm-4.236-23.854,10.413-9.4,1.731,9.735-10.415,9.4Zm-3.578-20.129a4.906,4.906,0,0,0-1.617-2.867l8.843-7.978a16.764,16.764,0,0,1,4.2,7.514l-10.36,9.337Zm-21.6-1.193a16.776,16.776,0,0,1,2.908-7.594,16.954,16.954,0,0,1,4.748-4.57,16.749,16.749,0,0,1,6.116-2.382,17.078,17.078,0,0,1,2.62-.249Z"/><path class="cls-7" d="M344.281,538.424a5.612,5.612,0,0,1-.753,1.484,5.894,5.894,0,0,1-3.539,2.382Zm19.532,49.038,10.418-9.413-1.732-9.735-10.413,9.4,1.71,9.684ZM359.579,563.6l10.415-9.4-1.731-9.735-10.413,9.4Zm-4.237-23.866L365.7,530.4a16.764,16.764,0,0,0-4.2-7.514l-8.843,7.978a4.906,4.906,0,0,1,1.617,2.867Zm-22.67-7.2,16.392-14.795a17.078,17.078,0,0,0-2.62.249,16.749,16.749,0,0,0-6.116,2.382,16.954,16.954,0,0,0-4.748,4.57A16.776,16.776,0,0,0,332.672,532.536Z"/><path class="cls-8" d="M368.8,726.023c7.975,9.425,5.982,23.564-.906,33.17-6.888,9.788-18.489,15.226-30.27,15.226-29.546,0-45.859-26.1-61.266-49.483-15.226,9.788-34.983,15.407-51.84,15.407-25.2.362-41.327-16.676-33.9-37.884,6.889-19.395,27.19-28.457,46.584-23.382.362-18.67.362-38.608.182-54.559-3.445,0-6.888-.181-10.332-.181a51.02,51.02,0,0,1,.181-5.257l25.557-.906v.906a12.2,12.2,0,0,1,2.538-.362c5.982-.726,12.145-1.632,18.126-.726,6.163.906,12.145,3.445,15.77,8.157a22.728,22.728,0,0,1,3.625,7.25c2.174,6.345,2.174,13.957-1.631,19.395-2.538,3.807-6.345,6.163-10.695,7.613a20.394,20.394,0,0,1,5.62,1.813c6.525,2.9,14.5,10.512,14.5,25.013,0,13.233-7.432,24.652-18.307,33.352l3.443,5.075c11.783,17.764,26.283,40.6,50.029,41.509,11.963.544,23.381-5.257,28.638-16.132,1.994-4.532,3.081-9.97,1.631-14.683-4.349,2.176-11.056,0-11.056-6.525C355.021,721.854,365.533,720.585,368.8,726.023ZM269.467,714.6c-2.538-3.263-4.895-6.526-7.432-9.426A69.8,69.8,0,0,0,250.978,694.3c.363,6.887,1.087,13.594,1.812,19.576-9.244.181-14.863-.544-24.107-.362a5.645,5.645,0,0,1,7.613-7.251c.362-6.163.544-12.689.725-19.757A33.91,33.91,0,0,0,218.9,685.6c-12.326,2.537-22.838,14.319-23.02,27.006,0,7.614,4.713,14.139,11.238,17.583A31.45,31.45,0,0,0,214,732.729c9.244,2,18.488,1.632,23.02.726C251.341,730.735,262.035,723.667,269.467,714.6Zm-18.852-29.727c9.244,5.8,16.676,14.319,23.2,23.2a50.509,50.509,0,0,0,6.526-25.014c0-10.694-5.438-18.488-11.419-20.3-1.994.181-3.988.181-5.982.181a91.888,91.888,0,0,0-12.326.725C250.435,670.739,250.435,677.989,250.615,684.877Zm1.813-62.353c-.725,11.238-1.45,23.926-1.813,36.795a41.977,41.977,0,0,0,10.695-.724c4.531-1.088,8.881-3.807,11.056-7.976,1.45-2.9,1.632-6.163,1.813-9.244.181-3.444,0-6.888-1.45-9.97-1.813-3.987-5.8-6.524-9.969-7.794A38.481,38.481,0,0,0,252.428,622.524Zm115.64,74.5c.544,2.357.907,4.713,1.269,7.25a103.643,103.643,0,0,0-34.258,1.632c-.362-1.994-.725-4.169-1.088-6.163,2.538-.544,5.075-.906,7.432-1.268-.725-8.52-1.631-17.22-2.719-25.92-5.257.724-10.513,1.45-15.769,1.993-1.813,7.432-3.625,15.045-5.62,22.476,1.632-.543,5.8.363,5.8.363s.543,4.532-.181,6.163H304.809v-6.526h5.8c1.631-5.619,3.081-11.238,4.712-16.857,1.813-6.525,3.626-13.05,5.257-19.575a240.845,240.845,0,0,0,5.619-36.071c-2.538.181-4.713.363-7.613.544.363-2.357.544-4.713.906-7.07,10.514-.18,22.477-.362,32.989-.543q.546,3.263,1.088,6.525c-1.994,0-3.806-.181-5.8-.363,3.806,23.927,7.431,49.665,11.6,73.41Zm-30.632-32.083c-1.632-11.056-3.807-21.932-6.345-32.445-1.813,11.6-4.169,23.2-6.526,34.8C328.734,666.57,333.085,665.664,337.436,664.938Zm105.307,33.9c1.269.906.725,3.082-.544,3.988-1.268,1.087-3.081,1.087-4.531,1.269a46.506,46.506,0,0,1-11.238-.362c-3.807-.907-7.251-2.72-9.244-5.983-2.176-3.262-2.176-7.431-2.176-11.419V672.37c0-2.719-1.269-8.338-7.975-7.794a7.769,7.769,0,0,0-2.538.725c-1.812,2.9-3.625,5.8-5.619,8.519-.181,8.52-.544,17.038-.906,24.652h7.975v5.981c-10.694.906-17.038-1.088-27.732-.362-1.45,0-2.9.18-3.988-.726-1.269-.724-1.631-6.162-.363-6.706,1.813,1.45,4.9.544,6.344-1.45,1.27-1.813,1.45-44.046,2.9-60.9.182-2.537.363-5.076-.906-7.25-1.45-2.175-4.713-3.263-6.344-1.632-.362-2.537-.544-5.075-.906-7.612,11.6.362,21.751.906,33.352,1.268,0,1.269,1.268,6.525.362,7.432-1.45,1.812-5.981-1.088-7.976-1.45-.724,10.512-1.086,22.113-1.268,33.895a238.9,238.9,0,0,0,11.419-21.207,65.352,65.352,0,0,1,5.257-9.97,17.52,17.52,0,0,1,8.7-6.706c3.626-1.088,7.975-.362,10.514,2.537,2.718,3.082,2.718,7.794,2.537,11.963a8.527,8.527,0,0,1-1.087,4.9c-1.088,1.812-3.263,2.537-5.439,3.081a7.733,7.733,0,0,1-4.531.181,4.04,4.04,0,0,1-1.994-5.256c.725-1.994,1.812-1.813,3.806-2.537,3.445-1.451,3.083-8.338-.18-9.426s-7.07,4.35-9.608,10.15c-1.45,3.263-3.443,5.982-4.712,9.064q-2.991,7.34-6.526,14.137c3.444-.362,7.613,0,11.058,0a14.178,14.178,0,0,1,10.331,4.713c2.9,3.263,3.262,7.794,3.806,12.145q.544,5.98,1.088,11.963a16.605,16.605,0,0,0,1.994,7.794C437.305,698.653,440.387,700.1,442.743,698.834Zm4.348-75.4v-4.713c10.15-.363,15.951-.906,26.1-1.269,10.332-.181,20.845-.544,31.177-.725-.181,6.887-.363,13.594-.544,20.482-3.263,0-8.157.362-7.251-1.088,2.176-4.169-.906-10.694-3.625-12.507-2.175-1.45-5.075-1.268-7.612-1.087-3.082.181-6.345.725-8.157,3.081a6.519,6.519,0,0,0-1.087,3.625c-.364,7.432-.726,14.683-1.088,21.933-.182,1.813-.182,3.625-.362,5.438,6.887-1.631,13.957-3.263,20.844-4.894.907,1.269-.362,6.888-1.45,7.794a11.767,11.767,0,0,1-4.169,1.631,146.971,146.971,0,0,1-15.589,2.538c-.543,11.057-1.268,21.933-1.812,32.808,8.882,2.538,14.5.543,21.932-4.713,3.625-2.719-2.174-11.6,6.163-12.507,8.157-.725,3.807,16.5,4.35,23.2-11.057.182-18.125.906-29,1.088-10.15,0-17.582,1.45-27.552,1.45a5.741,5.741,0,0,1,.364-7.251,6.077,6.077,0,0,1,7.068-1.449c1.088-23.927.363-48.759,1.45-72.686C453.979,623.611,450.535,623.431,447.091,623.431Zm134.49,75.4c1.269.906.726,3.082-.544,3.988-1.268,1.087-2.9,1.087-4.531,1.269a46.507,46.507,0,0,1-11.238-.362c-3.625-.907-7.25-2.72-9.245-5.983-2.174-3.262-2.174-7.431-2.174-11.419V672.37c0-2.537-1.088-8.518-6.163-9.425H546.6c-3.807,0-7.614.181-11.239.543a369.354,369.354,0,0,0,3.263,40.059l-27.732.544a5.7,5.7,0,0,1,7.612-7.432c1.088-23.927,1.45-48.034,1.088-72.141-3.445,0-6.888-.181-10.332-.181a51.02,51.02,0,0,1,.181-5.257c9.063-.362,18.126-.544,27.007-.906v.906a12.2,12.2,0,0,1,2.538-.362c5.982-.726,12.145-1.632,18.126-.726,6.163.906,12.145,3.445,15.77,8.157a22.707,22.707,0,0,1,3.625,7.25c2.175,6.345,2.356,13.957-1.631,19.395-2.9,4.169-7.613,6.889-12.507,8.157a10.38,10.38,0,0,1,5.438,3.625c2.9,3.263,3.444,7.794,3.806,12.145q.545,5.98,1.087,11.963a16.617,16.617,0,0,0,1.994,7.794C576.144,698.653,579.225,700.1,581.581,698.834ZM544.967,658.6c4.531-1.088,9.063-3.807,11.056-7.976,1.451-2.9,1.632-6.163,1.813-9.244a20.618,20.618,0,0,0-1.449-9.97c-1.814-3.987-5.8-6.524-9.788-7.794a40.1,40.1,0,0,0-10.332-1.087c-.907,12.144-1.269,24.47-1.088,36.795A35.709,35.709,0,0,0,544.967,658.6Zm105.126-33.352a5.218,5.218,0,0,0-5.075.906,18.4,18.4,0,0,0-3.263,4.169c-4.531,7.25-9.244,14.5-13.776,21.57a31.183,31.183,0,0,0-3.625,6.887c-.907,2.9-.725,6.163-.725,9.246.362,10.331.725,20.481,1.088,30.813h4.349c.182,1.812.182,3.444.363,5.257-8.157.18-19.213.544-27.189.724a4.171,4.171,0,0,1,.906-4.712,4.514,4.514,0,0,1,4.894-1.087q.273-13.323.544-26.646a30.993,30.993,0,0,1,.544-7.069c-2.9-8.7-8.52-20.119-11.238-28.82-.725-2.356-5.619-9.969-5.619-9.969s-4.532-1.631-6.888-.725c0-2.176-.181-4.35-.362-6.525,6.343,0,26.645-1.088,32.989-.182,1.994.182.724,5.8-.725,7.25-2.176-.362-4.17-.725-6.345-1.087,2.9,6.344,7.251,16.314,10.695,24.108,5.8-8.52,10.694-17.22,17.219-25.558-1.268-.182-2.718-.362-3.987-.544.181-1.45.362-2.9.543-4.169,4.169-.182,11.058.544,15.407.362C650.455,621.437,650.273,623.249,650.093,625.243Z"/><path class="cls-5" d="M115.237,306.3q4.035-5.165,8.412-10.142a11.447,11.447,0,1,1,12.461,7.94c0,.048,0,.1.006.143A216.414,216.414,0,0,0,118.4,326.9,198.715,198.715,0,0,1,115.237,306.3Zm-5.888,35.146a200.39,200.39,0,0,1-4.9-20.137A228.87,228.87,0,0,0,89.6,347.424a204.418,204.418,0,0,0,7.568,19.137A214.139,214.139,0,0,1,109.349,341.443ZM91.462,382.314q-4.908-8.814-9.071-18.4a229.643,229.643,0,0,0-8.948,28.072q5.355,8.914,11.367,17A215.644,215.644,0,0,1,91.462,382.314ZM81.335,452.7a216.855,216.855,0,0,1,1.121-27.3q-6.6-7.578-12.642-16.039a231.308,231.308,0,0,0-3.038,29.056Q73.82,446.018,81.335,452.7Zm1,16.53q-7.987-6.089-15.607-13.134a231.632,231.632,0,0,0,2.87,29.075q8.435,6.039,17.148,11.092A216.146,216.146,0,0,1,82.331,469.226Zm8.756,43.12q-9.074-4.394-17.967-9.791a229.551,229.551,0,0,0,8.78,28.118q9.517,4.272,19.129,7.528A214.586,214.586,0,0,1,91.087,512.346ZM108.724,553.3q-9.856-2.547-19.722-6.11a228.861,228.861,0,0,0,14.689,26.191q10.3,2.352,20.506,3.687A214.547,214.547,0,0,1,108.724,553.3Zm30.1,41.042c-.071,0-.14.009-.211.011q-1.71-1.848-3.369-3.725-10.335-.594-20.868-2.187,6.175,8,13.156,15.57a11.437,11.437,0,1,0,11.292-9.669Z"/><path class="cls-5" d="M757.775,326.9a216.414,216.414,0,0,0-17.715-22.663c0-.047,0-.1.006-.143a11.424,11.424,0,1,1,12.461-7.94q4.37,4.98,8.412,10.142A198.715,198.715,0,0,1,757.775,326.9Zm21.236,39.66a204.418,204.418,0,0,0,7.568-19.137,228.87,228.87,0,0,0-14.856-26.118,200.39,200.39,0,0,1-4.9,20.137A214.139,214.139,0,0,1,779.011,366.561Zm12.355,42.417q6-8.074,11.367-17a229.816,229.816,0,0,0-8.948-28.072q-4.147,9.582-9.071,18.4A215.644,215.644,0,0,1,791.366,408.978ZM809.4,438.414a231.308,231.308,0,0,0-3.038-29.056q-6.027,8.455-12.642,16.039a216.855,216.855,0,0,1,1.121,27.3Q802.341,446.021,809.4,438.414Zm-19.966,57.845q8.7-5.052,17.148-11.092a231.632,231.632,0,0,0,2.87-29.075q-7.605,7.044-15.607,13.134A216.146,216.146,0,0,1,789.434,496.259ZM775.147,538.2q9.6-3.257,19.129-7.528a229.725,229.725,0,0,0,8.78-28.118q-8.879,5.4-17.967,9.791A214.586,214.586,0,0,1,775.147,538.2Zm-23.168,38.866q10.191-1.338,20.506-3.687a228.861,228.861,0,0,0,14.689-26.191q-9.851,3.566-19.722,6.11A214.547,214.547,0,0,1,751.979,577.067Zm-26.068,28.718a11.444,11.444,0,1,0,22.736-1.775q6.972-7.563,13.156-15.57-10.518,1.6-20.868,2.187-1.659,1.878-3.369,3.725c-.071,0-.14-.011-.211-.011A11.443,11.443,0,0,0,725.911,605.785Z"/><path class="cls-5" d="M696.316,437.327a17.455,17.455,0,0,1,7.921,6.309,18.444,18.444,0,0,1,3.131,10.073q.2,5.821-3.326,12.764a45.048,45.048,0,0,1-2.738,4.6,41.194,41.194,0,0,1-4.108,4.938q-2.642,2.789-4.157,4.352t-5.868,5.331q-4.353,3.765-6.113,5.232t-7.726,6.553q-6.456-4.6-8.264-5.966t-6.456-4.792q-4.645-3.423-6.259-4.891t-4.45-4.058a40.159,40.159,0,0,1-4.45-4.645,38.313,38.313,0,0,1-2.983-4.4,29,29,0,0,1-3.863-9.487,19.13,19.13,0,0,1,.049-8.509,17.743,17.743,0,0,1,3.374-6.8,18.337,18.337,0,0,1,6.015-4.842,10.241,10.241,0,0,1,7.091-.587,19.99,19.99,0,0,1,7.237,3.815,42.055,42.055,0,0,1,6.406,6.307,37.962,37.962,0,0,1,4.6,6.993,40.537,40.537,0,0,1,10.464-14.084,22.167,22.167,0,0,1,7.239-4.3A10.236,10.236,0,0,1,696.316,437.327Z"/><path class="cls-5" d="M213.116,434.571a17.466,17.466,0,0,1,7.921,6.309,18.443,18.443,0,0,1,3.13,10.073q.195,5.822-3.325,12.764a44.928,44.928,0,0,1-2.739,4.6A41.1,41.1,0,0,1,214,473.252q-2.641,2.788-4.157,4.352t-5.869,5.331q-4.353,3.765-6.113,5.232t-7.726,6.552q-6.456-4.594-8.264-5.965t-6.456-4.792q-4.646-3.423-6.259-4.891t-4.45-4.058a40.159,40.159,0,0,1-4.45-4.645,38.4,38.4,0,0,1-2.983-4.4,29.016,29.016,0,0,1-3.864-9.488,19.153,19.153,0,0,1,.051-8.508,17.741,17.741,0,0,1,3.373-6.8,18.337,18.337,0,0,1,6.015-4.842,10.238,10.238,0,0,1,7.092-.587,19.978,19.978,0,0,1,7.236,3.815,41.964,41.964,0,0,1,6.406,6.307,37.962,37.962,0,0,1,4.6,6.993,40.57,40.57,0,0,1,10.464-14.084,22.184,22.184,0,0,1,7.238-4.3A10.242,10.242,0,0,1,213.116,434.571Z"/><path class="cls-8" d="M226.733,91.617c-4.761,5.029-7.951,11.194-8.373,17.6-.5,6.11,1.471,12.537,6.644,18.264,11.977,13.263,30.289,33.942,45.343,50.813,7.068,8.029,13.41,15.253,17.947,20.277,1.089,1.206-1.219,5.115-3.306,2.8-19.555-18.826-66.2-13.915-99.509-29.99,13.974,15.474,29.936,33.35,40.433,45.579,5.96,7.206,8.166,14.7,7.606,21.956-.611,8.212-4.834,15.858-10.973,21.585-12.479,11.634-26.506,12.262-37.736,6.9a37.646,37.646,0,0,1-13.9-11.347,39.244,39.244,0,0,1-7.7-16.4c-2.184-11.71,1.437-24.466,14.272-33.687,2.986-2.149,5.286,1.611,2.694,3.588-11.338,8.051-14.49,19.106-12.61,29.266a35.5,35.5,0,0,0,6.738,14.531,34.833,34.833,0,0,0,12.425,10.122c9.83,4.623,21.845,3.989,32.908-6.185,5.335-5,9.026-11.618,9.477-18.593.412-6.21-1.461-12.728-6.523-18.737-12.746-15.124-33.527-38.134-49.043-55.316l-13.34-14.77c-1.543-1.708,1.864-4.6,3.364-3.951,37.21,14.74,74.111,12.976,95.569,26.434-13.139-14.952-27.466-31.019-37.358-41.971-6.08-6.732-8.477-14.235-7.816-21.583.571-7.448,4.192-14.549,9.657-20.214C225.858,86.2,228.662,89.51,226.733,91.617Zm103.7,50.58c1.3,8.173,1.042,16.16-8.13,21.181a32.93,32.93,0,0,1-3.389,1.378c.73,8.876-1.718,16.957-9.371,20.4-18.1,8.6-25.669-6.556-30.845-19.369-6.177-15.036-8.149-27.659,8.663-35.824,8.722-4.372,15.951,1.132,21.182,8.131a47.93,47.93,0,0,1,6.126,10.307,63.844,63.844,0,0,1,3.7,11.845,5.146,5.146,0,0,0,1.852-.834c6.69-3.606,6.892-10.082,5.884-16.606C325.794,140.13,330.121,139.518,330.437,142.2Zm-26.592,1.285a5.908,5.908,0,0,1,2.981-.3l-1.717-2.494c-2.711-3.382-9.41-10.016-14.237-7.546-6.184,3.082.833,21.3,2.6,25.555s3.712,8.574,5.627,12.166c4.44,8.542,8.286,10.819,11.07,9.417,3.153-1.569,4.924-7.86,4.422-14.909a13.5,13.5,0,0,1-5.42-.826C300.151,161.329,297.179,146.483,303.845,143.482ZM378.467,130.2c-.037,8.834-.457,29.956-9.879,32.455-18.975,5.034-21.13-.978-23.49-9.876-2.916-10.992-4.607-18.948-6.86-29.556-2.259.46-4.388.884-6.29,1.109.323,6.5.323,13.36.219,19.831.016,1.116-4.468,2.166-4.4-.232.012-3.645,0-15.829-.211-19.274-7.918-.281-10.965-4.375-11.325-8.9-.8-11.975,11.638-31.1,15.17,2.278,8,1.1,21.432-3.164,22.473.762,2.454,10.835,3.849,18.729,6.8,29.852,1.7,6.412,3.458,9.868,6.6,9.035,6.281-1.666,6.645-19.832,6.829-27.584C374.093,127.439,378.462,127.541,378.467,130.2Zm96.1-4.535c-1.845,6.822-4.394,22.6-11.42,28.213-2.252,1.822-6.95,3.44-11.562,3.16-5.023-.405-9.706-3.257-9.85-8.536-.658-14.2.176-28.313-.073-42.392-.048-1.76.058-2.846-.351-2.97-.271.007-.929.7-2.107,2.224-7.6,9.282-12.124,37.172-13.633,46.424l.019.676c.162,5.956-15.944,6.4-16.11.305l-.335-12.317c-2.892,8.206-7.148,16.043-13.375,16.212-19.489.532-20.2-5.814-20.455-15.018-.229-8.392-.854-36.276-1.133-56.45-14.26-1.372-26.453-1.446-30.325,5.568-.9,1.785-5.53.828-3.72-2.337,5.039-8.941,18.441-9.172,34.061-7.566-.015-5.553-.167-11.1-.048-16.658.006-4.741,16.369-5.729,16.253-.037-.1,6.233-.07,12.327.1,18.553,5.977.65,11.954,1.3,17.646,1.415V74.247c.125-10.3,1.231-24.414,13.993-28.284A19,19,0,0,1,427.67,45c6.764-.32,13.436.988,15.959,9.046a27.56,27.56,0,0,1,1.177,8.365,28.721,28.721,0,0,1-1.641,9.391c-2.653,6.98-8.578,13.237-19.482,15.7.182,11.644.511,23.689.862,36.547.062,2.3.261,4.6.323,6.9,3.04-12.679,7.939-26.764,14.584-31.415a15.948,15.948,0,0,1,9.283-2.285c4.207.292,8.056,2.354,8.182,6.956.248,14.079-.593,27.918-.073,41.99.234,3.651.824,5.4,1.907,5.366,1.086.106,2.534-1.424,4.216-4.314,4.018-6.611,6.4-18.731,7.373-22.685C471.081,121.968,475.175,123.075,474.568,125.666ZM408.137,88.605c-5.7-.251-11.669-.766-17.647-1.415.129,19.636.579,46.036.8,54.021.181,6.632,1.118,11.212,4.366,11.123,7.715-.21,10.933-21.292,13.093-26.5ZM423.7,83.033c8.608-2.266,13.211-7.268,15.361-12.88a25.376,25.376,0,0,0,1.414-7.759,29.919,29.919,0,0,0-1.008-7.151c-1.641-5.509-6.162-7.417-10.35-2.02-4.048,5.528-5.39,15.859-5.393,20.735C423.666,76.939,423.611,79.92,423.7,83.033Zm.92,48.6a2.284,2.284,0,0,1,.252-.684l-.27.008Zm135.249,4.112c-5.808,14.154-16.273,40.009-18.894,46.4-3.188,7.766-19.831,1.96-15.645-7.884,3.29-8.017,19.153-47.024,22.214-54.841,4.421-10.772,8.666-21.471,13.087-32.244,2.57-6.262,7.938-13.28,26.55-5.5a2.337,2.337,0,0,1-1.246,4.465c-4.847-.672-8.249,5.835-9.638,9.216-4.421,10.773-8.79,21.42-13.086,32.244l-1.645,4.008c30.246,11.535,63.99-39.306,16.488-58.362-16.335-6.558-34.165-6.265-47.6,6.514a37.418,37.418,0,0,0-8.352,11.793,32.913,32.913,0,0,0-3.285,13c-.431,8.9,3.291,17.3,12.177,21.682,2.9,1.485,1.008,5.391-1.571,4.185-11.017-5.252-15.4-15.249-15.055-26.083a38.263,38.263,0,0,1,3.651-14.6,43.1,43.1,0,0,1,9.47-13.09c11.388-10.987,29.668-16.657,52.215-7.4C654.2,99.526,614.338,157.076,559.865,135.745Zm75.811,64.211c-6.332,5.329-13.314,9.22-22.343,3.947a33.075,33.075,0,0,1-2.927-2.195c-7.23,5.2-15.418,7.267-22.315,2.483-16.7-11.084-7.61-25.376.705-36.415,9.7-13.042,19.5-21.237,35.165-11.035,8.242,5.22,7.25,14.253,3.947,22.342a47.96,47.96,0,0,1-5.676,10.562,63.713,63.713,0,0,1-8.245,9.275,5.134,5.134,0,0,0,1.669,1.157c6.539,3.876,12.193.712,17.265-3.514C635.055,194.912,637.809,198.305,635.676,199.956Zm-14.805-22.128a5.915,5.915,0,0,1,1.8,2.4l1.253-2.756c1.5-4.066,3.734-13.226-.87-16.089-5.828-3.713-17.827,11.691-20.562,15.4s-5.434,7.6-7.526,11.091c-5.032,8.208-5,12.677-2.366,14.34,2.969,1.9,9.273.17,15.056-3.893a13.542,13.542,0,0,1-2.086-5.07C603.673,183.859,614.863,173.662,620.871,177.828Zm44.65,51.58c-6.968,4.036-14.413,8.182-22.412,9.759-6.09,1.328-11.471.72-15.8-3.175-14.946-13.161-10.781-21.329-6.043-26.353,7.987-8.472,15.98-16.753,23.968-25.224,5.758-6.108,13.015-13.409,18.959-19.714,11.7-12.412,27.579-16.423,40.693-3.687a11.436,11.436,0,0,1,3.481,10.912,22.157,22.157,0,0,1-6.115,10.237c-4.836,4.931-12.559,9.372-20.978,12.972a242.413,242.413,0,0,1-34.818,11.273c-4.087,4.334-8.272,8.576-12.452,13.009-2.693,2.856-7.954,9.62-3.822,13.33,3.147,2.78,7.276,3.138,12.038,2.232,7.042-1.549,14.87-5.706,20.985-9.43C665.562,224.235,667.779,228,665.521,229.408Zm-13.4-29.01a214.446,214.446,0,0,0,27.406-9.33c8.041-3.4,15.2-7.439,19.573-11.878,2.884-2.862,4.429-5.685,4.93-8.19.594-2.6-.042-4.692-1.421-5.992a7.12,7.12,0,0,0-5.8-1.937c-7.459.411-17.28,8.458-21.087,12.5-5.945,6.3-11.8,12.511-17.746,18.624Zm39.828,62.3c-8.262,3.57-19.861,7.756-28.391,6.486-4.552-.664-9.121-3.93-12.45-8.029-11.692-14.4-1.03-25.323,11.274-34.442,13.268-10.077,26.418-16.219,38.5-.914,4.674,5.971,2.84,12.518-3.157,16.515a15.676,15.676,0,0,1-6.135,2.54c-5.385.885-11.676-.634-17.3-6.7-4.795,3.545-22.721,15.834-16.983,22.685a10.4,10.4,0,0,0,6.9,3.989c7.578,1.171,18.607-3.075,26.048-6.153C692.674,257.576,694.373,261.6,691.949,262.7Zm-13.94-27.049c4.261,4.389,8.963,5.454,12.785,4.792a12.23,12.23,0,0,0,4.513-1.746c3.619-2.415,4.921-6.612,3.214-8.714C694.766,225.357,681.523,233.319,678.009,235.649Z"/><path class="cls-7" d="M642.05,426.551q-.361-5.661-.846-11.314c-.26-3.061-.541-6.122-.924-9.169-.364-2.887-1.908-4.407-4.769-5.094L634.5,398.45h-7.143c-3.335-4.232-4.819-10.467-5.407-13.806a15.338,15.338,0,0,0,6.257-1.87l-1.843-4.591a10.6,10.6,0,0,1-5.6,1.639h-.107c-9.8,0-12.965-13.564-13.807-18.636a17.364,17.364,0,0,0,9.82-7.147l-2.261-5.632c-2.31,4.422-5.9,8.333-11.4,8.388H602.9c-9.758,0-12.942-13.461-13.8-18.579,5.524-1.3,10.018-5.586,13.119-12.6a40.952,40.952,0,0,0,1.476-3.885l-4.756-11.846c-7.174-2.453-9.793-13.087-10.608-17.772a15.405,15.405,0,0,0,3.173-.748l-1.819-4.53a10.712,10.712,0,0,1-3.293.54c-10.306.116-13.322-14.661-14.006-19.2a16.838,16.838,0,0,0,7.708-5.225l-2.122-5.285c-2.3,3.518-5.576,6.3-10.2,6.349-9.677.1-12.94-13.049-13.861-18.346,6-.928,10.876-5.233,14.194-12.59l-2.707-6.743c-1.815,6.125-5.782,14.572-13.879,14.653h-.107c-11.039,0-13.662-17.217-14.023-20.1.014-.109.025-.191.027-.213a2.427,2.427,0,0,0-.109-1.037H532.7c-.024.076-.055.149-.073.229a2.4,2.4,0,0,0-.14.841c-.534,3.4-3.746,20.168-15.166,20.282h-.107c-11.039,0-13.662-17.217-14.023-20.1.014-.109.025-.191.027-.213a2.427,2.427,0,0,0-.109-1.037H498.5c-.025.076-.056.149-.074.228a2.409,2.409,0,0,0-.14.842c-.534,3.4-3.745,20.168-15.167,20.282h-.107c-11.038,0-13.661-17.217-14.022-20.1.014-.109.025-.191.027-.213a2.427,2.427,0,0,0-.109-1.037H464.3a2.24,2.24,0,0,0-.073.228,2.387,2.387,0,0,0-.141.842c-.534,3.4-3.745,20.168-15.167,20.282h-.107c-11.042,0-13.663-17.232-14.022-20.107.014-.106.024-.187.027-.209a2.443,2.443,0,0,0-.11-1.037H430.1a2.333,2.333,0,0,0-.075.237,2.418,2.418,0,0,0-.137.823c-.528,3.38-3.734,20.178-15.167,20.292h-.106c-11.043,0-13.664-17.232-14.023-20.107.014-.106.024-.187.027-.209a2.443,2.443,0,0,0-.11-1.037H395.9a2.319,2.319,0,0,0-.076.236,2.428,2.428,0,0,0-.137.824c-.528,3.38-3.734,20.178-15.166,20.292h-.107c-11.039,0-13.662-17.217-14.024-20.1.015-.109.025-.191.028-.213a2.427,2.427,0,0,0-.11-1.037H361.7a2.3,2.3,0,0,0-.074.231,2.416,2.416,0,0,0-.14.835c-.531,3.393-3.74,20.172-15.165,20.286h-.107c-11.039,0-13.662-17.217-14.024-20.1.015-.109.025-.191.028-.213a2.427,2.427,0,0,0-.11-1.037H327.5a2.181,2.181,0,0,0-.073.229,2.427,2.427,0,0,0-.141.841c-.533,3.4-3.745,20.168-15.165,20.282h-.107c-8.1,0-11.666-9.269-13.136-15.349l-2.856,7.116c.038.095.073.191.112.286,2.937,7.142,7.35,11.4,12.871,12.518-1.123,5.48-4.826,18.354-14.831,18.454h-.107c-3.8,0-6.6-2.042-8.654-4.836l-2.051,5.11a14.674,14.674,0,0,0,8.746,4.469c-1.081,5.378-4.754,18.515-14.86,18.62h-.019a9.683,9.683,0,0,1-2.965-.427l-1.83,4.557a14.2,14.2,0,0,0,2.136.536c-.89,4.292-3.329,12.907-9.018,16.606l-2.514,6.263c5.66-1.216,10.261-5.523,13.417-12.658.316-.712.6-1.422.864-2.123.26.766.547,1.545.869,2.326,3.06,7.442,7.721,11.76,13.57,12.646-1.07,5.352-4.738,18.563-14.874,18.665h-.107c-9.828,0-12.982-13.645-13.812-18.676l-3.132,7.8c.309.958.659,1.941,1.065,2.929,3.146,7.648,7.983,11.993,14.062,12.707-1.17,5.584-4.9,18.165-14.793,18.264h-.106c-5.164,0-8.483-3.771-10.594-8.079l-2.292,5.708c2.8,4.015,6.352,6.413,10.509,7.062-1.153,5.547-4.875,18.235-14.806,18.334a9.522,9.522,0,0,1-5.294-1.506l-1.845,4.6a14.12,14.12,0,0,0,4.815,1.623c-.724,3.471-2.459,9.7-6.069,13.916H229.5l-1.676,4.175-.683,1.7h0l0,0v1.09h.36a1.366,1.366,0,0,0-.826,2.172,4.1,4.1,0,0,1,.576,2.689c-.2,8.211.308,16.407.511,24.609a69.738,69.738,0,0,0,.541,7.308,25.394,25.394,0,0,0,.769,4.9c.438,1.3.853,2.618,2.443,2.886,1.122.19,2.238-.822,2.954-2.645a43.192,43.192,0,0,0,1.7-6.147c1.258-5.466,1.321-11.1,2.333-16.6a90.959,90.959,0,0,1,2.319-11.333c.173-.542.244-1.146.959-1.52.068.482.1.792.156,1.1.246,1.278.6,2.506,2.078,2.864,1.254.3,2.5-.447,3.381-2.044.647-1.174,1.186-2.407,1.824-3.587.268-.5.372-1.233,1.187-1.2.564.524.46,1.189.491,1.8.259,5.042.6,10.081.49,15.135-.139,6.159.192,12.309.576,18.447a53.636,53.636,0,0,0,1.266,10.546,7.235,7.235,0,0,0,.847,2.192c1.215,1.843,2.856,1.927,4.249.234a8.49,8.49,0,0,0,1.482-3.453,84.224,84.224,0,0,0,1.88-13.085c.585-6.435.945-12.891,1.594-19.319.239-2.373.194-4.821,1.022-7.173,1.5,2.319,1.735,2.395,4.447,1.413a24.44,24.44,0,0,0,1.284,5.024c1.087,2.61,2.609,3.032,4.945,1.428,1-.69,1.29-.591,1.468.628.215,1.481.393,2.969.52,4.46.428,5.027,1.146,10.016,2.04,14.976a14.739,14.739,0,0,0,1.279,3.8c1.068,2.185,3.051,2.254,4.413.272a10.5,10.5,0,0,0,1.277-3.039,82.887,82.887,0,0,0,2.274-12.542c.785-5.693,1.254-11.43,2.4-17.074.12-.6.07-1.269.738-1.638.4.494.219,1.057.284,1.573a31.776,31.776,0,0,0,1.408,6.7c.714,2.024,2.632,2.423,4.042.871a18.73,18.73,0,0,0,1.3-1.97c.384-.55.39-1.372,1.163-1.66a3.535,3.535,0,0,1,.615,2.01,26.26,26.26,0,0,0,.71,3.223c.339,1.084.926,2.033,2.254,2.12a2.537,2.537,0,0,0,2.434-1.589,32.641,32.641,0,0,0,1.51-3.464c1.2-3,1.747-6.237,3.366-9.078.41-.72.643-1.608,1.577-1.964a2.619,2.619,0,0,1,.837,1.938c.157,1.885.549,3.738.594,5.643.115,4.81.316,9.618.532,14.424.1,2.2.27,4.407.493,6.6a24.248,24.248,0,0,0,.656,3.476,1.758,1.758,0,0,0,1.735,1.371,1.671,1.671,0,0,0,1.588-1.227,20.761,20.761,0,0,0,1.074-3.865c.916-5.437,1.775-10.879,2.47-16.351a22.748,22.748,0,0,1,2.074-7.491c.227-.447.309-1.112,1.066-1.019.634.412.55,1.11.726,1.7a21.2,21.2,0,0,0,1.361,4.271c1.053,1.926,2.671,2.122,4.225.564a12.793,12.793,0,0,0,1.9-3.255c.523-.973.787-2.139,1.739-2.862a1.927,1.927,0,0,1,.566,1.678c.128,4.651.469,9.286.947,13.914a113.968,113.968,0,0,0,2.967,17.212,8.124,8.124,0,0,0,1.525,3.433c1.272,1.459,2.874,1.357,3.916-.277a8,8,0,0,0,1.028-2.884,66.424,66.424,0,0,0,.935-9.873c.222-6.619.4-13.237.867-19.849a151.243,151.243,0,0,1,3.029-20.314,11.442,11.442,0,0,1,1.69-4.929,41.716,41.716,0,0,1,2.264,5.406c.36.89.765,1.89,1.862,1.923,1.195.036,1.766-.93,2.109-1.935a28.584,28.584,0,0,0,.978-3.4,54.312,54.312,0,0,0,.948-8.684,39.544,39.544,0,0,1,1.8-10.211,3.494,3.494,0,0,1,.991-1.961c.623.2.561.644.613,1.007a115.278,115.278,0,0,1,.956,13.436c.118,4.892.638,9.752,1.019,14.623a9.254,9.254,0,0,0,.436,1.835,1.519,1.519,0,0,0,1.35,1.154,1.635,1.635,0,0,0,1.8-.859,9.684,9.684,0,0,0,.86-1.943A61.942,61.942,0,0,0,373,385.7c.194-10.412.477-20.815,1.532-31.179.228-2.237.216-4.549,1.146-6.952.323,1.242.526,2.234.845,3.186.333.992.809,1.891,2.054,2.02a2.746,2.746,0,0,0,2.714-1.539,11.289,11.289,0,0,0,1.24-3.308,49.3,49.3,0,0,0,1.488-12.645,20.416,20.416,0,0,1,2.008-8.911,2.7,2.7,0,0,1,.87,1.847,86.089,86.089,0,0,1,1.438,16.935,59.164,59.164,0,0,0,.423,9.919,15.494,15.494,0,0,0,1.714,5.617c1.322,2.147,3.346,2.092,4.654-.068a5.592,5.592,0,0,0,.573-1.295c.378-1.285.756-2.573,1.055-3.878,2.084-9.1,2.61-18.4,3.214-27.67.358-5.507.407-11.035.528-16.556a69.066,69.066,0,0,1,1.034-9.389c.062-.389.122-.785.6-.971.412.164.4.6.533.935a11.073,11.073,0,0,0,.5,1.325,1.957,1.957,0,0,0,3.475.328,11.185,11.185,0,0,0,1.507-3.2,14.856,14.856,0,0,1,1.349-3.411c2.9,1.6,4.064,1.24,5.3-1.575a17.5,17.5,0,0,0,.9-2.685,106.046,106.046,0,0,0,1.894-11.175c.6-4.152,1.429-8.24,3.522-11.948.394-.7.635-1.606,1.75-1.8a17.738,17.738,0,0,1,.943,5.858c.052,6.394.095,12.789.052,19.183-.016,2.381.375,4.714.563,7.069a5.118,5.118,0,0,0,.838,2.442c1.217,1.814,3.077,1.766,4.136-.135a10.656,10.656,0,0,0,1-3.628,78.45,78.45,0,0,0,.917-12.723A85.03,85.03,0,0,1,432,275.106c.657-5.557,1.063-11.136,1.719-16.689.245-2.069.317-4.182,1.266-6.131.481,3.907.475,7.821.567,11.713.213,9.075.134,18.156.173,27.235a23.723,23.723,0,0,0,1.309,8.366c.6,1.582,1.568,2.486,2.608,2.364a3.052,3.052,0,0,0,2.594-2.438c.327-1.054.673-2.108.9-3.185.388-1.849.7-3.714,1.023-5.576a33.782,33.782,0,0,1,2.733-9.265c.306-.618.579-1.556,1.355-1.459.881.11.649,1.1.746,1.767a53.2,53.2,0,0,1,.106,10.617c-.365,6.628.212,13.248.421,19.87.06,1.888.235,3.778.47,5.653a16.025,16.025,0,0,0,.777,3.2,2.287,2.287,0,0,0,4.33.267,20.258,20.258,0,0,0,1.792-5.122c.678-2.754,1.3-5.521,1.97-8.277a3.505,3.505,0,0,1,1.043-2.158,3.533,3.533,0,0,1,.419,2.13c.076,1.5.049,3,.193,4.493a85.559,85.559,0,0,1,.042,13.47,54.193,54.193,0,0,0,.714,12,2.45,2.45,0,0,0,2.083,2.282,2.672,2.672,0,0,0,2.493-1.531,12.416,12.416,0,0,0,1.507-3.963c.655-2.921,1.28-5.848,1.929-8.77a2.049,2.049,0,0,1,.831-1.487,1.586,1.586,0,0,1,.618,1.573,11.785,11.785,0,0,0,.561,3.257c.554,1.941,1.825,2.389,3.6,1.392.395-.222.666-.711,1.39-.554a7.626,7.626,0,0,1,.621,2.363c.616,7.539,1.353,15.071,1.827,22.619a208.142,208.142,0,0,0,3.006,21.993,10.827,10.827,0,0,0,1.692,4.632,2.779,2.779,0,0,0,2.83,1.32,2.377,2.377,0,0,0,1.889-1.9,25.787,25.787,0,0,0,1.04-5.56c.43-4.328.405-8.666.469-13,0-.284-.2-.728.452-.875,1.041,5.918,1.483,11.874,1.953,17.824a12.65,12.65,0,0,0,1.071,5.048c1.157,2.188,3.291,2.2,4.658.141.386-.58.38-1.5,1.312-1.79.173,3.521.437,6.9.485,10.291.111,7.736.127,15.473.155,23.21a14.375,14.375,0,0,0,.629,4.428,1.9,1.9,0,0,0,1.644,1.5,2.1,2.1,0,0,0,2.141-1.179,5.676,5.676,0,0,0,.7-1.994,56.856,56.856,0,0,0,.88-9.167c.02-2.409.432-4.77.644-7.3a2.143,2.143,0,0,1,.422,1.517c.443,3.594.672,7.214,1.379,10.776a8.583,8.583,0,0,0,.862,2.443c1.516,2.8,4.007,2.881,5.7.218.354-.556.371-1.372,1.309-1.715.375,3.334.847,6.575,1.086,9.833.559,7.624,1.01,15.257,1.5,22.887a12.971,12.971,0,0,0,.7,3.462,2.033,2.033,0,0,0,2.148,1.508,1.985,1.985,0,0,0,1.927-1.472,15.6,15.6,0,0,0,.811-3.922c.167-1.961.34-3.929.661-5.87.847-5.126,1.719-10.25,2.694-15.354a41.416,41.416,0,0,1,2.006-8.4,21.28,21.28,0,0,0,1.406,2.6c1.292,1.748,2.89,1.776,4.362.178a9.381,9.381,0,0,0,1.36-2.21c.632-1.248,1.259-2.5,1.878-3.727a.917.917,0,0,1,.64.8,13.505,13.505,0,0,1,.184,1.641c.313,7.166.627,14.333,1.494,21.46a12.529,12.529,0,0,0,1.189,4.787c1.1,1.948,2.881,2.187,4.472.606a5.044,5.044,0,0,0,1.3-2.225c.368-1.287.745-2.578.982-3.892,1.122-6.206,1.483-12.51,2.363-18.749.392-2.782.52-3.561,1.3-4.736a14.966,14.966,0,0,0,.689,1.5c1.132,1.9,2.878,1.923,4.091.029.509-.794.865-1.684,1.332-2.507.255-.45.37-1.073,1.071-1.1.563.332.561.916.66,1.451,1.105,5.939.96,11.927.657,17.917a24.913,24.913,0,0,0,.06,6.126c.175.9.514,1.674,1.6,1.766a1.994,1.994,0,0,0,2.031-1.322,13.8,13.8,0,0,0,1.224-3.813c1.083-5.725,1.928-11.5,3.314-17.163a9.776,9.776,0,0,1,1.312-3.63c.729.312.607.859.607,1.288.006,4.1.547,8.184.5,12.293-.051,4.262.038,8.526.061,12.789a30.981,30.981,0,0,0,.979,7.009,6.1,6.1,0,0,0,.857,2.192,2.328,2.328,0,0,0,3.976.274A6.558,6.558,0,0,0,579,447.089c1.041-4.691,2.036-9.392,3.018-14.095,1.24-5.935,2.2-11.931,3.734-17.8.1-.362-.125-1.019.736-.985a26.527,26.527,0,0,0,.889,2.882c.922,2.144,2.819,2.725,4.857,1.587a5.535,5.535,0,0,0,1.572-1.415,23.9,23.9,0,0,0,2.895-4.871c.25-.522.388-1.191,1.221-1.371a10.918,10.918,0,0,1,.764,3.955c.051,1.973.007,3.955.188,5.916a83.731,83.731,0,0,1,.115,12.3,83.517,83.517,0,0,0,.176,15.347,12.71,12.71,0,0,0,2.021,5.751,2.832,2.832,0,0,0,5.027-.27,8.307,8.307,0,0,0,.87-2.189c1.609-6.985,3.011-14.015,4.306-21.065.9-4.879,1.485-9.819,2.844-14.605a14.692,14.692,0,0,1,2.256-5.455,7.233,7.233,0,0,1,.67,3.606,15.731,15.731,0,0,0,.443,3.748,2.543,2.543,0,0,0,2.194,2.187,2.48,2.48,0,0,0,2.437-1.575,21.49,21.49,0,0,0,1.554-4.2c.269-.914.242-2.037,1.441-2.858a32.9,32.9,0,0,0,.393,4.454c.332,6.061.7,12.121.944,18.186a86.544,86.544,0,0,0,1.64,12.881,21.287,21.287,0,0,0,2.259,6.941c1.584,2.685,4.047,2.915,6.212.683,1.564-1.612,2.059-3.7,2.644-5.737a87.156,87.156,0,0,0,2.727-22.46ZM431.418,232.841c.272-.613.518-1.224.75-1.83.233.672.486,1.352.767,2.033.314.765.649,1.489,1,2.188a5.61,5.61,0,0,0-2.884,1.13,11.466,11.466,0,0,0-.994.753l-.658-.4A32.066,32.066,0,0,0,431.418,232.841Zm-99.02,128.3c5.321-1.423,9.656-5.67,12.674-12.49.271-.614.517-1.225.75-1.831.233.672.486,1.352.766,2.033a23.41,23.41,0,0,0,6.638,9.543l-12.184,19.935C335.208,374.651,333.06,365.153,332.4,361.138Zm16.312-22.687c6.071-.938,10.987-5.323,14.308-12.829.272-.613.518-1.224.75-1.829.233.671.486,1.35.766,2.032a26.683,26.683,0,0,0,4.219,7.161L355.806,354.17C351.228,350.08,349.366,342.25,348.71,338.451Zm38.027-34.891a37.6,37.6,0,0,1-3.827-11.5c6.07-.937,10.987-5.322,14.308-12.828.272-.614.518-1.224.75-1.83.233.672.486,1.351.766,2.033.371.9.77,1.746,1.189,2.549ZM383.9,308.2l-12.427,20.333c-3.175-4.572-4.481-10.906-4.928-13.772,5.345-1.408,9.7-5.662,12.727-12.507.272-.613.518-1.223.75-1.829.233.672.486,1.351.766,2.032A28.6,28.6,0,0,0,383.9,308.2Zm-21.327,2.2h-.106c-9.617,0-12.845-13.07-13.757-18.347,6.071-.937,10.987-5.322,14.308-12.828.272-.614.518-1.224.75-1.829.233.671.486,1.35.766,2.032,2.937,7.142,7.351,11.4,12.872,12.518C376.282,297.433,372.579,310.306,362.573,310.406Zm-1.4,4.826c-1.1,5.429-4.79,18.438-14.848,18.539h-.107c-10.047,0-13.123-14.267-13.868-19.007,5.345-1.409,9.7-5.663,12.726-12.507.271-.613.517-1.224.75-1.83.233.672.486,1.352.766,2.033C349.823,310.327,354.844,314.712,361.169,315.232Zm-32.795-4.826h-.107c-9.617,0-12.845-13.07-13.757-18.347,6.071-.937,10.987-5.322,14.308-12.828.272-.614.518-1.224.75-1.829.233.671.486,1.35.766,2.032,2.937,7.141,7.35,11.4,12.871,12.517C342.082,297.432,338.379,310.306,328.374,310.406Zm-1.405,4.826c-1.1,5.43-4.791,18.438-14.848,18.539h-.107c-10.047,0-13.123-14.267-13.868-19.007,5.345-1.409,9.7-5.663,12.726-12.507.271-.613.517-1.224.749-1.829.233.671.486,1.351.766,2.032C315.623,310.327,320.644,314.712,326.969,315.232Zm1.849,10.39c.272-.613.518-1.224.75-1.829.233.671.486,1.35.766,2.032,2.937,7.141,7.35,11.4,12.871,12.518-1.123,5.479-4.826,18.353-14.831,18.453h-.107c-9.617,0-12.845-13.069-13.757-18.346C320.581,337.513,325.5,333.128,328.818,325.622Zm94.99-82.72-5.266,8.617a45.118,45.118,0,0,1-1.429-5.849A15.415,15.415,0,0,0,423.808,242.9Zm-9.586,11.136c.233.672.486,1.351.766,2.033.1.252.214.493.322.736l-12.305,20.134a43.554,43.554,0,0,1-2.258-8.567c5.345-1.409,9.7-5.663,12.725-12.507C413.744,255.254,413.99,254.644,414.222,254.038Zm-17-21.2c.272-.613.518-1.224.75-1.829.233.671.486,1.351.766,2.032,2.938,7.142,7.351,11.4,12.872,12.518-1.124,5.481-4.827,18.354-14.832,18.454h-.106c-9.618,0-12.846-13.07-13.758-18.347C388.98,244.733,393.9,240.348,397.218,232.841Zm-17.2,21.2c.233.672.486,1.351.766,2.033,3.235,7.865,8.256,12.25,14.581,12.771-1.1,5.429-4.791,18.438-14.848,18.539h-.107c-10.047,0-13.123-14.267-13.867-19.007,5.344-1.41,9.7-5.663,12.725-12.507C379.544,255.254,379.79,254.644,380.022,254.038Zm-17-21.2c.272-.613.518-1.223.75-1.829.233.672.486,1.351.766,2.032,2.937,7.142,7.351,11.4,12.872,12.518-1.124,5.481-4.827,18.354-14.833,18.454h-.106c-9.617,0-12.845-13.07-13.757-18.347C354.781,244.733,359.7,240.348,363.018,232.841Zm-17.2,21.2c.233.672.486,1.352.766,2.034,3.235,7.866,8.256,12.251,14.581,12.771-1.1,5.429-4.79,18.438-14.848,18.539h-.107c-10.047,0-13.123-14.267-13.868-19.007,5.345-1.409,9.7-5.663,12.726-12.507C345.343,255.254,345.589,254.643,345.822,254.037Zm-17-21.2c.272-.613.518-1.223.75-1.829.233.672.486,1.351.766,2.032,2.937,7.142,7.35,11.4,12.871,12.518-1.123,5.48-4.826,18.354-14.831,18.454h-.107c-9.617,0-12.845-13.07-13.757-18.347C320.581,244.733,325.5,240.348,328.818,232.841Zm-17.946,23.026c.271-.613.517-1.224.75-1.83.233.672.486,1.352.766,2.034,3.235,7.866,8.256,12.251,14.581,12.771-1.1,5.43-4.791,18.438-14.848,18.539h-.107c-10.047,0-13.123-14.267-13.868-19.007C303.491,266.965,307.844,262.711,310.872,255.867Zm-30.583,36.076c5.768-1.146,10.452-5.477,13.652-12.711.417-.942.78-1.878,1.106-2.793.314.979.672,1.985,1.087,3,2.937,7.141,7.35,11.4,12.871,12.517-1.123,5.48-4.826,18.354-14.831,18.454h-.107C284.38,310.407,281.173,297.142,280.289,291.943Zm13.293,33.679c.5-1.125.927-2.246,1.3-3.327.352,1.145.765,2.335,1.256,3.53,2.937,7.141,7.35,11.4,12.871,12.518-1.123,5.479-4.826,18.353-14.831,18.453h-.107c-9.731,0-12.924-13.391-13.791-18.539C285.885,337.01,290.446,332.71,293.582,325.622ZM240.489,398.45a32.15,32.15,0,0,0,1.96-3.751c.233-.526.445-1.049.649-1.57.208.587.429,1.179.673,1.773a31.378,31.378,0,0,0,1.725,3.548Zm28.027,0H251.327c-3.42-4.34-4.9-10.784-5.453-14.055,5.791-1.131,10.492-5.467,13.7-12.722.315-.713.6-1.423.864-2.124.26.766.547,1.546.868,2.327,3.007,7.312,7.558,11.614,13.264,12.6C273.856,387.932,272.136,394.206,268.516,398.45Zm5.98,0a32.148,32.148,0,0,0,1.959-3.751c.316-.712.6-1.423.864-2.123.26.766.547,1.545.869,2.326a31.377,31.377,0,0,0,1.724,3.548Zm2.8-18.628h-.107c-9.711,0-12.91-13.334-13.784-18.5,5.68-1.2,10.3-5.516,13.462-12.67.233-.526.446-1.05.649-1.57.209.587.429,1.178.674,1.772,3.117,7.582,7.9,11.918,13.9,12.688C290.926,367.112,287.194,379.723,277.294,379.822Zm25.637,18.628H285.743c-3.42-4.34-4.895-10.784-5.452-14.055,5.791-1.131,10.491-5.467,13.7-12.722.405-.915.76-1.826,1.079-2.717.308.956.657,1.936,1.062,2.92,2.937,7.142,7.35,11.4,12.871,12.518C308.3,387.83,306.582,394.172,302.931,398.45Zm5.981,0a32.3,32.3,0,0,0,1.96-3.751c.271-.613.517-1.224.749-1.829.233.671.486,1.35.766,2.032a31.549,31.549,0,0,0,1.725,3.548Zm3.209-18.628h-.107c-9.83,0-12.986-13.654-13.815-18.685,5.32-1.423,9.655-5.67,12.673-12.49.271-.614.517-1.225.749-1.83.233.672.486,1.351.766,2.032,3.224,7.839,8.221,12.218,14.515,12.764C325.718,367.226,321.975,379.723,312.121,379.822Zm7.82,18.628c-3.382-4.293-4.86-10.646-5.431-13.948,6.071-.938,10.987-5.322,14.308-12.829.272-.613.518-1.224.75-1.829.233.672.486,1.351.766,2.032,2.044,4.97,4.8,8.541,8.154,10.631l-9.744,15.943ZM445.187,248.182l-2.127-3.48a13.989,13.989,0,0,0,2.746.86C445.652,246.313,445.447,247.206,445.187,248.182ZM601.539,361.614c-1.185,5.612-4.927,18.109-14.783,18.208-10.091.1-13.209-14.209-13.967-18.986,4.869-1.666,8.855-5.8,11.684-12.188.5-1.125.926-2.245,1.3-3.326.351,1.144.764,2.334,1.255,3.528C590.247,356.689,595.245,361.068,601.539,361.614Zm-85.467-59.357c.272-.613.518-1.224.75-1.83.233.672.486,1.352.767,2.033,3.235,7.867,8.255,12.252,14.581,12.772-1.1,5.43-4.792,18.438-14.849,18.539h-.107c-10.047,0-13.123-14.267-13.867-19.007C508.692,313.355,513.044,309.1,516.072,302.257Zm-16.7,8.149h-.107c-9.616,0-12.845-13.07-13.757-18.347,6.07-.937,10.987-5.322,14.309-12.828.271-.614.518-1.224.75-1.829.233.671.485,1.35.766,2.032,2.936,7.141,7.35,11.4,12.87,12.517C513.082,297.432,509.38,310.306,499.374,310.406Zm20.337-18.346c6.07-.937,10.987-5.322,14.308-12.828.271-.614.517-1.224.75-1.829.233.671.485,1.35.766,2.032,2.936,7.141,7.35,11.4,12.87,12.517-1.123,5.48-4.825,18.354-14.831,18.454h-.107C523.851,310.407,520.622,297.337,519.711,292.06Zm14.308,33.562c.271-.613.517-1.224.75-1.829.233.671.485,1.35.766,2.032,2.936,7.141,7.35,11.4,12.87,12.518-1.123,5.479-4.825,18.353-14.831,18.453h-.107c-9.616,0-12.845-13.069-13.756-18.346C525.781,337.513,530.7,333.128,534.019,325.622Zm3.53-10.859c5.344-1.41,9.7-5.663,12.723-12.506.271-.613.518-1.224.75-1.83.233.672.486,1.352.767,2.033,3.235,7.867,8.255,12.252,14.58,12.772-1.1,5.429-4.79,18.438-14.848,18.539C541.421,333.856,538.3,319.517,537.549,314.763Zm30.67,10.859c.233-.526.445-1.05.649-1.57.208.587.429,1.179.673,1.773,2.971,7.222,7.449,11.5,13.057,12.557-1.133,5.5-4.843,18.314-14.824,18.414h-.107c-9.616,0-12.845-13.069-13.756-18.346C559.981,337.513,564.9,333.128,568.219,325.622Zm17.117-25.488c.26.766.548,1.545.869,2.326,3.165,7.7,8.046,12.052,14.181,12.722-1.089,5.4-4.77,18.488-14.859,18.589-10.106.116-13.209-14.16-13.966-18.963,5.429-1.359,9.848-5.628,12.912-12.551C584.788,301.545,585.074,300.835,585.336,300.134Zm-17.117-20.9c.416-.942.78-1.878,1.106-2.793.314.979.671,1.985,1.087,3,2.821,6.861,7,11.07,12.222,12.38-1.089,5.4-4.769,18.49-14.86,18.591-9.674.072-12.938-13.055-13.86-18.346C559.983,291.121,564.9,286.737,568.219,279.232Zm-17.2-25.2c.233.672.486,1.352.767,2.034,3.235,7.866,8.255,12.251,14.58,12.771-1.1,5.429-4.79,18.438-14.848,18.539-10.1.114-13.218-14.249-13.972-19.008,5.344-1.41,9.7-5.663,12.723-12.506C550.543,255.254,550.79,254.643,551.022,254.037Zm-17-21.2c.271-.613.517-1.223.75-1.829.233.672.485,1.351.766,2.032,2.936,7.142,7.35,11.4,12.87,12.518-1.123,5.48-4.825,18.354-14.831,18.454h-.107c-9.617,0-12.845-13.07-13.757-18.347C525.781,244.733,530.7,240.348,534.019,232.841Zm-17.2,21.2c.233.672.486,1.352.767,2.034,3.235,7.866,8.255,12.251,14.581,12.771-1.1,5.43-4.792,18.438-14.849,18.539h-.107c-10.047,0-13.123-14.267-13.867-19.007,5.345-1.409,9.7-5.663,12.725-12.507C516.344,255.254,516.59,254.643,516.822,254.037Zm-17-21.2c.271-.613.518-1.223.75-1.829.233.672.485,1.351.766,2.032,2.936,7.142,7.35,11.4,12.87,12.518-1.123,5.48-4.825,18.354-14.831,18.454h-.107c-9.617,0-12.845-13.07-13.757-18.347C491.58,244.733,496.5,240.348,499.819,232.841Zm-17.2,21.2c.233.672.486,1.351.766,2.033,3.235,7.866,8.256,12.251,14.582,12.771-1.1,5.43-4.792,18.438-14.85,18.539h-.107c-10.046,0-13.122-14.267-13.866-19.007,5.345-1.409,9.7-5.663,12.725-12.507C482.143,255.254,482.389,254.644,482.622,254.038ZM451.31,245.67c6.07-.937,10.987-5.322,14.309-12.829.271-.613.518-1.223.75-1.829.233.672.485,1.351.766,2.032,2.937,7.142,7.349,11.4,12.87,12.518-1.123,5.48-4.826,18.354-14.831,18.454h-.106C455.45,264.017,452.222,250.947,451.31,245.67Zm10.566,29.82-6.012-9.837a14.3,14.3,0,0,0,7.906,3.189A44.1,44.1,0,0,1,461.876,275.49Zm15.368,25.145-12.259-20.058c.216-.439.43-.883.634-1.345.271-.614.518-1.224.75-1.829.233.671.485,1.35.766,2.032,2.937,7.141,7.349,11.4,12.87,12.518A41.668,41.668,0,0,1,477.244,300.635Zm16.229,26.555L480.214,305.5a32.781,32.781,0,0,0,1.658-3.239c.271-.613.518-1.223.75-1.829.233.672.486,1.351.766,2.032,3.235,7.867,8.256,12.252,14.582,12.772A37.072,37.072,0,0,1,493.473,327.19Zm15.085,24.684-12.313-20.147a29.216,29.216,0,0,0,3.574-6.1c.271-.613.518-1.224.75-1.829.233.671.485,1.35.766,2.032,2.936,7.141,7.35,11.4,12.87,12.518C513.529,341.641,511.916,347.616,508.558,351.874Zm15.562,25.463-12.885-21.083a27.373,27.373,0,0,0,4.837-7.606c.272-.614.518-1.225.75-1.831.233.672.486,1.352.767,2.033,3.223,7.839,8.22,12.218,14.513,12.764C531.243,365.687,529.033,373.383,524.12,377.337Zm18.212,21.113h-5.308l-10.339-16.917a24.277,24.277,0,0,0,7.334-9.86c.271-.613.517-1.224.75-1.829.233.672.485,1.351.766,2.032,2.936,7.142,7.35,11.4,12.87,12.518C547.7,387.83,545.982,394.172,542.332,398.45Zm5.98,0a32.15,32.15,0,0,0,1.96-3.751c.271-.614.518-1.225.75-1.83.233.671.486,1.351.767,2.033a31.377,31.377,0,0,0,1.724,3.548Zm3.209-18.628h-.107c-9.829,0-12.986-13.654-13.815-18.685,5.321-1.423,9.655-5.67,12.673-12.49.271-.614.518-1.225.75-1.831.233.672.486,1.352.767,2.033,3.223,7.838,8.22,12.218,14.513,12.764C565.118,367.225,561.377,379.723,551.521,379.822Zm25.007,18.628H559.341c-3.382-4.293-4.86-10.646-5.43-13.948,6.07-.938,10.987-5.322,14.308-12.829.5-1.124.927-2.246,1.3-3.327.352,1.145.765,2.335,1.256,3.53,2.76,6.711,6.822,10.88,11.882,12.286C581.98,387.537,580.264,394.073,576.528,398.45Zm5.985,0a32.15,32.15,0,0,0,1.96-3.751c.233-.526.445-1.049.649-1.57.208.587.429,1.179.673,1.773a31.378,31.378,0,0,0,1.725,3.548Zm28.022,0H593.349c-3.335-4.232-4.819-10.467-5.407-13.806,6.626-.516,11.975-4.974,15.513-12.971.233-.526.446-1.049.649-1.57.209.588.429,1.179.674,1.773,2.759,6.711,6.822,10.88,11.882,12.285C615.986,387.537,614.271,394.073,610.535,398.45Zm5.985,0a32.3,32.3,0,0,0,1.959-3.751c.233-.526.446-1.049.649-1.57.209.587.429,1.179.674,1.773a31.377,31.377,0,0,0,1.724,3.548Z"/></svg>