<svg id="Layer_1" data-name="Layer 1" xmlns="http://www.w3.org/2000/svg" viewBox="0 0 864 864"><defs><style>.cls-1{fill:#761113;}.cls-2{fill:#607848;}.cls-3{fill:#3e3238;}</style></defs><path class="cls-1" d="M350.708,128.55a53.331,53.331,0,0,0,7.255.112,6.228,6.228,0,0,1,.734.721q26.919,39.4,53.78,78.852a8.248,8.248,0,0,1,1.3,4.23c.141,6.109.067,12.224.049,18.336,0,.626-.153,1.251-.32,2.54-1.257-1.377-2.1-2.212-2.845-3.132q-12.293-15.258-24.561-30.535a22.779,22.779,0,0,0-2.473-2.807,7.353,7.353,0,0,0-9.557-.473,7.238,7.238,0,0,0-1.779,9.377,23.777,23.777,0,0,0,2.435,3.368q18.384,22.93,36.831,45.811a10.314,10.314,0,0,1,2.555,7.162c-.143,6.525-.014,13.057-.02,19.586,0,1.037-.127,2.074-.254,4.007-1.293-1.468-2.009-2.258-2.7-3.07q-13.389-15.7-26.783-31.4a24.653,24.653,0,0,0-3.8-3.828,7.193,7.193,0,0,0-9.211.4,7.393,7.393,0,0,0-1.28,9.159,26.047,26.047,0,0,0,2.771,3.637c11.98,14.076,23.758,28.331,36.09,42.092,4.055,4.524,5.866,9.059,5.364,14.914-.278,3.232-.1,6.5-.127,9.755a10.863,10.863,0,0,1-3.733-3.055q-8.684-10.129-17.355-20.268a28.123,28.123,0,0,0-2.538-2.756c-3.226-2.877-7.253-2.974-10.183-.32-2.777,2.516-3.156,6.417-.861,9.825a36.02,36.02,0,0,0,2.636,3.223c9.942,11.611,19.847,23.256,29.877,34.792a9.3,9.3,0,0,1,2.417,6.766c-.117,6.08-.025,12.165-.026,18.248h14.866q-.181-54.621-.375-109.241c-.01-2.312.112-4.252,2.4-5.723,1.309-.841,2.147-2.51,3.022-3.915q15.981-25.641,31.9-51.323a21.965,21.965,0,0,0,1.951-3.665,7.112,7.112,0,0,0-2.674-8.8,7.266,7.266,0,0,0-9.457,1.341,27.454,27.454,0,0,0-2.87,4.077q-11.026,17.681-22.023,35.379a23.442,23.442,0,0,1-1.826,2.263,117.808,117.808,0,0,1-.509-17.384,7.845,7.845,0,0,1,1.431-3.758q28.449-43.143,56.954-86.25a10.05,10.05,0,0,1,6.3-4.724,16.382,16.382,0,0,0,11.276-21.633A16.686,16.686,0,1,0,474.12,113.57c.53,1.1,1.163,2.159,1.849,3.421q-23.25,35.151-46.375,70.117l-1.057-.285c-.066-24.466-.133-48.931-.2-72.506,4.9-3.46,9.514-5.949,13.165-9.445,10.888-10.422,16.234-23.148,13.557-38.366-2.841-16.144-17.564-25.548-33.509-21.775-19.911,4.711-34.868,26.73-31.469,46.949,2.013,11.973,8.694,20.232,20.981,23.191a18.717,18.717,0,0,1,2.45.99q.053,33.1.1,66.049l-.919.236Q391.527,151.1,370.454,120.2c.65-1.383,1.169-2.365,1.583-3.389a17.008,17.008,0,0,0-8.164-21.985C356.3,91.045,348.9,91.937,342.312,97c-6.156,4.731-8.614,11.328-6.571,18.9C337.749,123.334,343.144,127.456,350.708,128.55ZM404.62,83.834a28.272,28.272,0,0,1,15.441-22.816c11.408-6.088,21.518.379,20.744,13.268-.645,10.75-5.96,18.965-15.493,24.084C414.045,104.42,404.4,98.366,404.62,83.834Zm83.031,143.724c-5.481,2.269-6.871,4.421-6.564,10.169.111,2.079.323,4.154.509,6.229.921,10.235,1.911,20.466,2.712,30.711a10.125,10.125,0,0,1-.919,5.151q-23.994,47.04-48.153,94h16.722q21.145-41.193,42.259-82.4a13.972,13.972,0,0,1,5.835-6.17c12.59-7.1,25.089-14.357,37.6-21.595,5.6-3.239,6.568-5.394,5.435-11.591q-.937-5.123-1.9-10.24c-1.446-7.64-2.768-15.308-4.4-22.908-1.3-6.058-5.769-8.445-11.169-6.328q-14.342,5.627-28.68,11.262C493.836,225.062,490.732,226.283,487.651,227.558ZM528,252.1l-29.185,16.769c-.92-10.012-1.764-19.2-2.639-28.715l27.446-10.874C525.131,237.129,526.512,244.331,528,252.1Zm-4.462,91.318c.6-2.079.916-3.391,1.35-4.664,4.337-12.751,8.711-25.489,13.022-38.248a24.852,24.852,0,0,0,1.379-5.632,6.871,6.871,0,0,0-4.8-7.425,7.3,7.3,0,0,0-8.648,3.278,22.908,22.908,0,0,0-1.742,4.219q-8.207,24.047-16.385,48.1c-1.435,4.193-2.136,9.052-4.782,12.3s-7.3,4.885-11.095,7.2c-1.334.815-2.714,1.556-4.9,2.8.711-2.365,1.065-3.675,1.5-4.96,2.874-8.555,5.784-17.1,8.635-25.661a21.949,21.949,0,0,0,1.185-4.833,7.08,7.08,0,0,0-4.766-7.5,7.237,7.237,0,0,0-8.664,3.208,24.278,24.278,0,0,0-1.879,4.61q-7.376,21.787-14.672,43.6h33.61q23.447-14.1,46.871-28.23c2.4-1.448,4.5-2.4,7.254-.94,1.017.541,2.446.388,3.69.412q30.655.577,61.313,1.095a18.615,18.615,0,0,0,4.543-.4,7.072,7.072,0,0,0,5.674-7.232,7.379,7.379,0,0,0-6.185-6.885,30.389,30.389,0,0,0-4.574-.264q-20.851-.452-41.706-.887c-1.016-.023-2.029-.207-3.044-.317a137.239,137.239,0,0,1,14.845-9.561,7.125,7.125,0,0,1,3.606-.488c10.7.428,21.393.913,32.088,1.4,23.89,1.084,47.779,2.209,71.672,3.23a9.488,9.488,0,0,1,6.884,3.027,16.624,16.624,0,1,0,21.7-25.118,16.792,16.792,0,0,0-23.955,3.756c-.783,1.119-1.455,2.317-2.315,3.7l-84.217-3.864q-.084-.47-.166-.938l63.034-37.88a43.32,43.32,0,0,0,21.044,8.439c13.252,1.414,25.231-1.556,34.835-11.236,10.637-10.721,10.562-26.966.111-37.891-14.287-14.935-40.851-16.515-56.8-3.325-8.166,6.752-13.474,17.956-9.161,30.282.216.619.317,1.277.538,2.19q-28.48,16.94-56.69,33.706c-.081.048-.265-.019-.368-.084a2.35,2.35,0,0,1-.362-.409c.53-1.208,1.057-2.481,1.638-3.73,9.427-20.274,18.9-40.527,28.239-60.842,1.117-2.43,2.414-3.483,5.184-3.771A16.6,16.6,0,0,0,661.9,205.2a20.153,20.153,0,0,0-12.361-19.891c-7.544-3.041-16.011-1.124-20.941,4.742-4.841,5.762-5.352,14.158-1.246,21.05.773,1.3,1.672,2.523,2.6,3.906-2.339,5.066-4.652,10.1-6.987,15.125q-16.587,35.706-33.225,71.389a9.176,9.176,0,0,1-2.951,3.848c-5.749,3.634-11.658,7.014-17.526,10.46-.129.076-.447-.167-.893-.349.336-1.006.647-2.038,1.023-3.046q6.91-18.541,13.824-37.08a18.577,18.577,0,0,0,1.209-4.388,7.23,7.23,0,0,0-13.319-4.683,21.6,21.6,0,0,0-1.881,4.156q-8.712,23.2-17.392,46.418c-1.561,4.15-2.408,8.955-5.11,12.18s-7.312,4.892-11.113,7.195C531.84,338.521,528.034,340.749,523.541,343.42ZM686.913,235.506c5.127-4.595,11.337-6.206,19.347-6.116a27.194,27.194,0,0,1,11.6,2.96,18.765,18.765,0,0,1,7.728,6.765c3.236,5.082,3,10.581-1.316,14.814a25.25,25.25,0,0,1-8.2,5.457,28.116,28.116,0,0,1-24.512-1.572,22.506,22.506,0,0,1-5.292-3.972C680.752,248.2,681.032,240.777,686.913,235.506ZM301.472,268.032c.618.316,1.256.593,1.882.894,10.275,4.92,20.535,9.871,30.834,14.739a10.934,10.934,0,0,1,5.165,4.533c2.853,4.925,6.009,9.674,9.033,14.5q22.277,35.554,44.543,71.116h17.558q-28.3-45.159-56.625-90.3a11.423,11.423,0,0,1-1.8-6.65c.284-14.862.475-29.726.649-44.589.068-5.823-1.372-7.918-6.877-9.982-7.672-2.875-15.375-5.667-23.073-8.473-3.392-1.236-6.752-2.6-10.217-3.581-4.863-1.381-8.939,1.348-9.79,6.3q-2.041,11.889-4.036,23.785c-.957,5.753-1.928,11.506-2.759,17.278C295.182,263.019,296.578,265.522,301.472,268.032Zm14.513-40.893,21.555,7.83c-.092,11.03-.183,21.922-.282,33.758L311.275,256.32ZM132.621,276.661c11.582,5.4,23.528,3.215,32.487-5.921.372-.379.806-.7,1.4-1.206l57.068,33.92c-.094.331-.186.662-.28.993l-74.9,4.3c-1.016-1.419-1.7-2.466-2.472-3.438a17.1,17.1,0,0,0-22.823-3.944,19.278,19.278,0,0,0-9.4,16.3c-.456,11.111,8.436,20.924,20.539,18.933,6.348-1.045,10.816-4.835,13.613-10.536.8-1.625,1.536-2.652,3.614-2.741,7.635-.327,15.259-.924,22.892-1.353,23.314-1.31,46.633-2.551,69.943-3.936a10.685,10.685,0,0,1,6.676,1.628c4.6,2.867,9.3,5.556,13.947,8.347.859.517,1.636,1.17,2.975,2.14-2.057.357-3.408.635-4.772.822-13.482,1.851-26.971,3.658-40.449,5.543-4.915.688-7.676,4.158-7.028,8.575.594,4.044,4.389,6.648,8.985,6.039,7.847-1.038,15.683-2.162,23.527-3.229,12.661-1.722,25.327-3.4,37.981-5.169a7.82,7.82,0,0,1,5.521,1.1c6.158,3.775,12.41,7.4,18.61,11.107a15.97,15.97,0,0,1,1.8,1.467c-.478.365-.664.621-.885.658q-21.981,3.674-43.963,7.331a20.5,20.5,0,0,0-4.809,1.252,7.1,7.1,0,0,0-4.174,7.846c.02.111.063.215.089.325H301.18c8.349-1.394,16.693-2.814,25.022-4.321,4.667-.844,8.568-.693,12.466,2.182,1.024.755,2.1,1.453,3.209,2.139h29.171q-34.128-20.268-68.286-40.488c-2.428-1.436-4.226-2.861-4.272-5.958-.017-1.154-.824-2.332-1.392-3.437q-14.079-27.425-28.208-54.823a16.748,16.748,0,0,0-2.265-3.471,7.2,7.2,0,0,0-12.337,6.788,26.793,26.793,0,0,0,2.03,4.555q9.7,18.9,19.421,37.794a28.646,28.646,0,0,1,1.079,3.069c-5.691-3.379-10.739-6.3-15.681-9.38a6.891,6.891,0,0,1-2.251-2.839q-22.641-47.115-45.221-94.26a8.051,8.051,0,0,1-.543-6.632,16.613,16.613,0,1,0-32.355-7.086c-1.439,9.256,5.633,17.98,15.231,18.781,1.225.1,2.454.167,3.838.259l36.455,76.061-.737.6-62.5-37.121c-.534-6.274-.279-11.958-1.609-17.244-3.753-14.921-12.415-26-27.52-30.88-14.522-4.688-29.128,3-33.935,17.463C103.608,244.749,113.877,267.929,132.621,276.661Zm-6.708-49.811a11.224,11.224,0,0,1,12.243-5,23.094,23.094,0,0,1,5.779,2.238c9.9,5.556,15.794,18.809,13.422,29.913-1.273,5.956-5.265,10.3-10.722,10.555a19.126,19.126,0,0,1-8.735-1.918c-8.9-4.236-15.087-15.167-14.94-26.626A17,17,0,0,1,125.913,226.85Z"/><circle class="cls-2" cx="587.528" cy="707.96" r="8.912"/><path class="cls-2" d="M254.806,155.592a8.912,8.912,0,1,1-8.912-8.912A8.913,8.913,0,0,1,254.806,155.592Zm85.47,17.729a8.913,8.913,0,1,0,8.913,8.913A8.912,8.912,0,0,0,340.276,173.321Zm207.642-71.2a8.913,8.913,0,1,0,8.912,8.912A8.912,8.912,0,0,0,547.918,102.119Zm24.756,98.034a8.913,8.913,0,1,0,8.912,8.912A8.912,8.912,0,0,0,572.674,200.153Zm100.683,140.1a8.913,8.913,0,1,0,8.912,8.912A8.912,8.912,0,0,0,673.357,340.248ZM575.162,612.963a8.912,8.912,0,1,0,8.912,8.912A8.913,8.913,0,0,0,575.162,612.963Zm-72.608,61.5a8.913,8.913,0,1,0,8.912,8.913A8.913,8.913,0,0,0,502.554,674.465ZM349.833,658.387a8.913,8.913,0,1,0,8.912,8.912A8.912,8.912,0,0,0,349.833,658.387ZM246.884,622.8a8.912,8.912,0,1,0,8.912,8.912A8.912,8.912,0,0,0,246.884,622.8Zm28.548,84.535a8.913,8.913,0,1,0,8.912,8.913A8.913,8.913,0,0,0,275.432,707.334ZM165.684,332.846a8.912,8.912,0,1,0,8.912,8.912A8.912,8.912,0,0,0,165.684,332.846Z"/><path class="cls-1" d="M112.891,533.405a66.354,66.354,0,0,0,10.481.684,118.635,118.635,0,0,0,39.017-7.059q11.146.854,22.293,1.7a194.773,194.773,0,0,0,12.078,15.781q-23.662-1.755-47.32-3.567c-2.712-.211-4.408.12-6.125,2.745a16.634,16.634,0,0,1-30.424-10.281Zm239.618,1.062a7.33,7.33,0,0,0,8.986-3.308,26.48,26.48,0,0,0,1.8-4.2q4.187-11.258,8.37-22.517H355.748q-3.209,8.629-6.411,17.262a28.551,28.551,0,0,0-1.364,4.367A7.222,7.222,0,0,0,352.509,534.467ZM225.5,506.918a18.152,18.152,0,0,0-4.152.155,7.192,7.192,0,0,0-.736,14.06,22.063,22.063,0,0,0,4.932.669c12.877.643,25.755,1.244,38.632,1.871a17.256,17.256,0,0,1-3.364-10.453,17.9,17.9,0,0,1,.6-4.594Q243.459,507.768,225.5,506.918Zm-50.2,91.653c3.158,12.193-.87,22-10.48,29.477-16.053,12.491-41.756,10.346-55.782-4.331-11.231-11.751-10.732-28.95,1.554-39.632,11.553-10.044,25.1-11.7,39.57-8.077,5.6,1.4,10.539,4.237,15.387,7.853L211,558.343a68.19,68.19,0,0,0,15.045,9.072c-17.163,9.191-34.062,18.731-51.121,28.3A23.868,23.868,0,0,0,175.3,598.571Zm-16.752-.26a22.932,22.932,0,0,0-5.245-4.679,26.324,26.324,0,0,0-15-4.377c-6.581-.035-12.708,1.374-17.736,5.933-5.237,4.75-5.9,10.6-2.006,16.43a18.681,18.681,0,0,0,7.515,6.419,30.083,30.083,0,0,0,20.286,2.427,22.164,22.164,0,0,0,10.971-5.653C162.257,610.03,162.805,603.685,158.549,598.311Zm113.686-65.073a23.639,23.639,0,0,0,1.167-3.357,17.845,17.845,0,0,1-4.623-2.016,17.237,17.237,0,0,1-1.595-1.122c-3.377,1.893-6.434,3.6-9.428,5.4a11.334,11.334,0,0,1-7.116,1.609q-15.089-1.217-30.185-2.326c7.973,8.276,17.11,14.248,28.19,14.67C259.109,546.594,268.1,541.649,272.235,533.238Zm27.98-7.707a10.122,10.122,0,0,1,1.846-1.264c6-3.216,11.89-6.643,17.843-9.952a26.005,26.005,0,0,1,3-1.145c-.676,1.953-1.095,3.251-1.572,4.528q-7.062,18.935-14.128,37.868a24.376,24.376,0,0,0-1.42,4.776,7.232,7.232,0,0,0,4.375,7.759,7.354,7.354,0,0,0,8.872-2.655,19.489,19.489,0,0,0,1.957-4.122c6.731-17.947,13.581-35.852,20.037-53.9a24.5,24.5,0,0,1,1.288-2.988H307.086q-4.3,2.416-8.592,4.83c-.555.312-1.1.622-1.643.9A35.3,35.3,0,0,1,300.215,525.531ZM516.182,742.978c-.246,8.73-6.906,16.2-15.9,17.832-11.31,2.051-21.279-4.947-22.373-15.714-.409-4.033.874-7.673,2.974-11.6L439.2,671.2l-.7.272q-.274,32.971-.551,66.022a19.135,19.135,0,0,0,2.471.931c10.55,2.325,19.091,11,20.8,24.268,2.6,20.15-12.682,41.687-32.48,45.936-16.723,3.589-31.617-7.409-33.353-24.628-1.72-17.075,7.885-34.475,23.807-42.45,2.955-1.481,3.928-3.08,3.92-6.292-.055-21.533.1-43.066.169-64.6,0-1.329-.121-2.658-.187-3.986l-.975-.218q-23.277,34.535-46.64,69.195c.6,1.205,1.149,2.291,1.67,3.393a16.7,16.7,0,1,1-30.785,12.8,16.486,16.486,0,0,1,11.678-21.46,8.6,8.6,0,0,0,5.6-3.714q29.139-43.444,58.428-86.79a6.253,6.253,0,0,0,1.293-2.974,128.589,128.589,0,0,0-.5-17.7c-.7.907-1.467,1.768-2.078,2.73q-10.849,17.058-21.667,34.135a30.614,30.614,0,0,1-3.139,4.4,7.18,7.18,0,0,1-9.461,1.26,7.086,7.086,0,0,1-2.656-8.8,21.459,21.459,0,0,1,1.968-3.656q16.144-25.545,32.331-51.063c.743-1.17,1.364-2.69,2.461-3.311,3.3-1.869,3.133-4.814,3.145-7.9q.157-41.276.364-82.551H441.36c.028.034.05.067.079.1,9.929,11.624,19.739,23.348,29.574,35.052a28.119,28.119,0,0,1,3.015,3.973,7.166,7.166,0,0,1-1.428,9.108,7.015,7.015,0,0,1-9.2.348,19.9,19.9,0,0,1-3.234-3.22c-5.84-6.892-11.635-13.821-17.458-20.728-.875-1.039-1.809-2.028-3.164-3.539a23.847,23.847,0,0,0-.54,3.163c-.066,4.167.046,8.339-.126,12.5a7.752,7.752,0,0,0,2.138,5.619q19.341,22.959,38.583,46a37.2,37.2,0,0,1,2.349,2.922c2.446,3.6,2.1,7.611-.823,10.182-3.029,2.668-7.252,2.4-10.511-.748a39.406,39.406,0,0,1-2.747-3.131q-12.723-15.178-25.434-30.363c-.88-1.05-1.8-2.068-3.124-3.59a23.323,23.323,0,0,0-.525,3.129c-.07,6.945-.01,13.893-.172,20.836a8.8,8.8,0,0,0,2.212,6.021q18.417,23.173,36.676,46.471a21.46,21.46,0,0,1,2.548,3.786,7.257,7.257,0,0,1-11,8.912,19.14,19.14,0,0,1-3.1-3.338q-12.041-15.195-24.036-30.423c-.809-1.023-1.722-1.964-3.163-3.6-.14,1.853-.261,2.764-.269,3.675-.051,5.557-.014,11.115-.143,16.67a8.966,8.966,0,0,0,1.665,5.432q25.788,38.418,51.466,76.908c1.343,2.017,2.741,2.764,5.122,2.484a16.823,16.823,0,0,1,5.378.363C510.69,727.276,516.423,734.43,516.182,742.978Zm-89.871,11.594c-9.839,4.73-16.805,16.192-16.148,26.572.663,10.473,8.382,15.587,18.268,12.1a13.545,13.545,0,0,0,1.922-.786c9.956-5.362,15.136-13.815,16.119-23.187C446.641,755.171,437.388,749.246,426.311,754.572ZM213.017,637.847c.287-.7.506-1.354.812-1.965q15.957-31.849,31.912-63.7a60.031,60.031,0,0,1-15.162-3.023c-9.748,19.438-19.536,38.855-29.206,58.332a6.238,6.238,0,0,1-5.548,4c-11.075,1.3-17.613,11.411-14.674,22.183a20.4,20.4,0,0,0,6.722,10.31c6.729,5.733,16.817,6.084,23.508.795,6.776-5.358,8.482-14.962,4.056-23C214.707,640.444,213.849,639.189,213.017,637.847Zm535.1-9.413c-4.788,15.09-19.791,22.936-34.811,17.778-14.658-5.034-22.916-16.029-26.9-30.567a42.16,42.16,0,0,1-.72-16.994l-63-37.661c-.187.184-.375.369-.561.554.434,1.1.806,2.235,1.314,3.3q16.47,34.618,32.929,69.241c1.174,2.483,2.471,3.681,5.51,3.862a16.345,16.345,0,0,1,15.172,18.732,16.533,16.533,0,0,1-19.213,14.163c-9.818-1.838-16.012-10.91-13.354-20.4a11.84,11.84,0,0,0-.991-9.027q-22.1-46.242-44.129-92.522a7.792,7.792,0,0,0-2.44-3.209c-4.793-3.055-9.722-5.9-15.474-9.34.633,1.738.874,2.694,1.31,3.552q9.359,18.382,18.758,36.744a36.989,36.989,0,0,1,1.944,4.145c1.413,3.894.13,7.525-3.186,9.34-3.433,1.878-7.349.8-9.824-2.75a21.752,21.752,0,0,1-1.432-2.537q-13.869-27.077-27.706-54.168c-.751-1.473-1.735-3.067-1.76-4.618-.044-2.736-1.645-3.815-3.641-5.006q-13.913-8.3-27.816-16.613h28.938c.277.166.555.328.831.493.055.081.106.165.161.245,8.173,11.7,19.148,22.641,42.784,25.394,2.676,1.618,5.364,3.216,8.086,4.753a9.336,9.336,0,0,0,4.813.721q23.329-1.143,46.65-2.455,22.9-1.265,45.806-2.605c.828-.047,1.655-.129,2.733-.215.549-1,1.129-2.078,1.719-3.145,4.644-8.4,13.97-12.152,22.313-8.976,8.429,3.208,13.136,12.594,11.01,21.811a19.751,19.751,0,0,1-7.747,11.969,17.168,17.168,0,0,1-24.154-3.443c-.76-.979-1.456-2.006-2.368-3.269L635,549.828l-.29,1.011L691.488,584.8c.715-.633,1.34-1.138,1.909-1.7,8.466-8.324,19.726-10.489,30.8-5.913C743.22,585.051,754.331,608.853,748.12,628.434Zm-12.933-10.017c-.935-12.367-5.259-21.427-15.416-26.759-9.037-4.744-17.5-.334-19.275,9.677-1.883,10.643,3.646,23.037,12.911,28.671a21.814,21.814,0,0,0,5.319,2.292c5.983,1.7,11.234-.444,13.941-6.012A48.884,48.884,0,0,0,735.187,618.417ZM556.613,596.59c-1.635,10-3.353,20-5.067,29.987-.633,3.687-1.34,7.361-2.032,11.037-.98,5.2-5.048,7.852-10.155,6.293-4.247-1.3-8.38-2.973-12.545-4.53-6.9-2.579-13.8-5.15-20.668-7.816-5.1-1.979-6.681-4.32-6.564-9.832q.474-22.5,1.116-44.995a10.787,10.787,0,0,0-1.7-6.262q-20.336-33-40.615-66.033h17.54q19.112,31.108,38.273,62.185a10.108,10.108,0,0,0,4,3.371c10.313,5.168,20.7,10.194,31.058,15.265.749.367,1.512.707,2.246,1.1C556.035,588.806,557.447,591.484,556.613,596.59Zm-15.35,1.322-25.2-12.319a6.725,6.725,0,0,0-.576,1.383c-.309,9.845-.569,19.693-.924,29.537-.069,1.9.861,2.708,2.465,3.294,5.476,2,10.919,4.086,16.391,6.1a25.385,25.385,0,0,0,2.949.678C538.028,616.876,539.628,607.494,541.263,597.912Zm-194.7,34.819q-14.7,5.284-29.409,10.541c-5.6,2.011-10.017-.637-11.151-6.97-1.25-6.971-2.26-13.984-3.363-20.981q-.974-6.174-1.91-12.353c-.853-5.709.293-8.134,5.381-10.881q19.629-10.6,39.328-21.073a11.436,11.436,0,0,0,4.926-4.829q16.968-30.889,33.993-61.746h17.08Q389,526.975,376.565,549.51c-4.963,9-9.838,18.055-14.9,27a10.751,10.751,0,0,0-1.452,6.323c.725,10.95,1.361,21.905,2.025,32.859.093,1.525.2,3.05.248,4.577.136,4.248-1.772,7.192-5.749,8.715C353.362,630.278,349.964,631.509,346.564,632.731Zm.591-18.705c-.488-7.607-.927-15.219-1.425-22.826a23.173,23.173,0,0,0-.68-3.091l-29.137,15.614c1.411,7.839,2.169,15.205,3.87,22.8,8.918-3.224,17.237-6.26,25.581-9.226C347.05,616.7,347.252,615.535,347.155,614.026Zm-82.347-43.7q-1.724,4.237-3.447,8.473a20.186,20.186,0,0,0-1.286,3.945,7.291,7.291,0,0,0,13.4,5.206,25.2,25.2,0,0,0,1.942-4.137q5.2-12.744,10.408-25.489A50.08,50.08,0,0,1,264.808,570.326Z"/><path class="cls-3" d="M285.35,508.945c8.957,10.585,6.717,26.464-1.019,37.253-7.735,10.993-20.763,17.1-34,17.1-33.182,0-51.5-29.314-68.807-55.574-17.1,10.992-39.289,17.3-58.222,17.3-28.295.407-46.413-18.729-38.067-42.547,7.736-21.782,30.535-31.96,52.318-26.26.407-20.968.407-43.361.2-61.275-3.868,0-7.736-.2-11.6-.2a57.4,57.4,0,0,1,.2-5.9l28.7-1.017v1.017a13.784,13.784,0,0,1,2.85-.407c6.718-.814,13.64-1.832,20.357-.814,6.921,1.018,13.639,3.868,17.711,9.161a25.49,25.49,0,0,1,4.071,8.143c2.443,7.125,2.443,15.675-1.832,21.782-2.85,4.275-7.125,6.921-12.01,8.55a22.882,22.882,0,0,1,6.31,2.036c7.328,3.257,16.286,11.807,16.286,28.092,0,14.861-8.347,27.686-20.561,37.458l3.868,5.7c13.232,19.949,29.518,45.6,56.185,46.617,13.436.611,26.262-5.9,32.165-18.117,2.239-5.09,3.46-11.2,1.832-16.49-4.886,2.443-12.418,0-12.418-7.328C269.878,504.262,281.686,502.838,285.35,508.945ZM173.792,496.12c-2.85-3.665-5.5-7.329-8.346-10.586a78.423,78.423,0,0,0-12.417-12.215c.407,7.737,1.221,15.269,2.035,21.986-10.382.2-16.692-.61-27.075-.407a6.339,6.339,0,0,1,8.55-8.143c.407-6.921.611-14.25.814-22.189A38.107,38.107,0,0,0,117,463.548c-13.844,2.85-25.65,16.082-25.854,30.333,0,8.549,5.292,15.878,12.621,19.746a35.328,35.328,0,0,0,7.736,2.85c10.382,2.239,20.764,1.832,25.853.814C153.436,514.238,165.446,506.3,173.792,496.12Zm-21.171-33.386c10.382,6.514,18.729,16.082,26.058,26.057a56.745,56.745,0,0,0,7.328-28.093c0-12.01-6.107-20.764-12.825-22.8-2.24.2-4.479.2-6.718.2a103.181,103.181,0,0,0-13.843.814C152.417,446.855,152.417,455,152.621,462.734Zm2.036-70.028c-.814,12.621-1.628,26.871-2.036,41.324a47.116,47.116,0,0,0,12.011-.814c5.089-1.221,9.974-4.275,12.418-8.957,1.629-3.257,1.832-6.921,2.036-10.382.2-3.868,0-7.736-1.629-11.2-2.036-4.479-6.515-7.329-11.2-8.754A43.19,43.19,0,0,0,154.657,392.706Zm59.849,1.017V388.43c11.4-.407,17.915-1.017,29.314-1.425,11.6-.2,23.412-.61,35.015-.814-.2,7.736-.407,15.268-.61,23-3.665,0-9.162.407-8.144-1.222,2.443-4.682-1.018-12.01-4.071-14.046-2.443-1.629-5.7-1.425-8.55-1.221-3.461.2-7.125.814-9.161,3.461a7.329,7.329,0,0,0-1.221,4.071c-.407,8.346-.814,16.489-1.221,24.632-.2,2.035-.2,4.071-.407,6.107,7.735-1.832,15.674-3.665,23.41-5.5,1.017,1.425-.407,7.736-1.628,8.754a13.23,13.23,0,0,1-4.683,1.832,165.093,165.093,0,0,1-17.507,2.85c-.611,12.418-1.425,24.632-2.036,36.847,9.976,2.849,16.286.61,24.633-5.293,4.071-3.054-2.443-13.029,6.921-14.047,9.16-.814,4.275,18.525,4.886,26.057-12.418.2-20.358,1.018-32.572,1.222-11.4,0-19.746,1.628-30.942,1.628a6.444,6.444,0,0,1,.407-8.142,6.826,6.826,0,0,1,7.939-1.629c1.221-26.871.407-54.761,1.628-81.632C222.242,393.927,218.374,393.723,214.506,393.723Zm216.188,82.243c.407,1.832,1.221,5.293,1.831,7.125-7.328.2-22.189,1.018-29.314,1.018-.61-1.425,1.426-5.9,7.125-5.5,1.629,0,.2-26.057,0-35.217-.2-13.029.2-21.171.612-30.74-6.922,16.286-13.436,35.626-19.951,54.15a1.554,1.554,0,0,1,.407,1.018c-2.442,0-6.514,1.018-8.956,1.018-6.718-23.411-13.64-45.8-20.154-69.214-1.425,24.429-1.425,54.557-2.851,78.375H368.4v6.718c-12.01,1.017-19.135-1.222-31.147-.408-1.628,0-3.256.2-4.478-.814-1.425-.814-1.832-6.921-.407-7.532,2.036,1.629,5.5.611,7.125-1.628,1.424-2.036,1.629-49.468,3.257-68.4.2-2.85.407-5.7-1.018-8.143-1.629-2.443-5.293-3.665-7.125-1.832-.407-2.85-.61-5.7-1.018-8.55,13.029.407,24.429,1.017,37.458,1.424a6.3,6.3,0,0,1-2.443,4.683c3.867,16.489,8.549,33.182,14.046,49.264,5.293-16.489,11.2-30.129,16.082-47.839-1.628-.2-3.054-.611-4.682-.815-1.018-.61-.814-2.646.2-3.46s2.647-.814,3.868-.814c9.365,0,14.047.2,23.411.2a8.349,8.349,0,0,1,4.886,1.222c1.425,1.017,1.628,3.664,0,4.478-1.019-1.018-2.85-.611-3.868.2-2.443,5.089-2.85,10.992-3.257,16.692a458.589,458.589,0,0,0,0,52.929c.2,3.461.2,5.7,2.239,8.347C423.569,476.78,428.047,478.205,430.694,475.966Zm5.9-82.243V388.43c11.4-.407,17.915-1.017,29.314-1.425,11.6-.2,23.412-.61,35.015-.814-.2,7.736-.407,15.268-.61,23-3.665,0-9.162.407-8.143-1.222,2.442-4.682-1.019-12.01-4.072-14.046-2.443-1.629-5.7-1.425-8.55-1.221-3.461.2-7.125.814-9.16,3.461a7.322,7.322,0,0,0-1.222,4.071c-.407,8.346-.814,16.489-1.221,24.632-.2,2.035-.2,4.071-.407,6.107,7.735-1.832,15.674-3.665,23.41-5.5,1.018,1.425-.407,7.736-1.628,8.754a13.232,13.232,0,0,1-4.682,1.832,165.154,165.154,0,0,1-17.508,2.85c-.61,12.418-1.425,24.632-2.036,36.847,9.976,2.849,16.287.61,24.633-5.293,4.071-3.054-2.443-13.029,6.921-14.047,9.16-.814,4.275,18.525,4.886,26.057-12.418.2-20.357,1.018-32.572,1.222-11.4,0-19.746,1.628-30.942,1.628a6.444,6.444,0,0,1,.407-8.142,6.826,6.826,0,0,1,7.939-1.629c1.221-26.871.407-54.761,1.629-81.632C444.333,393.927,440.465,393.723,436.6,393.723Zm215.172,102.6,4.886,4.479c-7.329,9.365-19.95,21.375-43.768,21.375-27.278,0-38.475-9.365-47.432-22.189-9.161-13.233-9.161-29.111-8.957-35.422.2-5.293,0-10.586,0-15.878,0-2.85-1.221-9.772-7.125-10.586a8.868,8.868,0,0,0-1.018.2c-4.274,0-8.55,0-12.622.408A414.647,414.647,0,0,0,539.4,483.7l-31.146.61a6.585,6.585,0,0,1,1.424-7.124,7.008,7.008,0,0,1,7.125-1.222c1.223-26.871,1.63-53.946,1.223-81.021-3.869,0-7.737-.2-11.605-.2a57.116,57.116,0,0,1,.2-5.9l30.333-1.017v1.017a13.765,13.765,0,0,1,2.849-.407c6.921-.814,13.639-1.628,20.357-.814,6.922,1.018,13.64,3.868,17.711,9.365a22.619,22.619,0,0,1,4.071,7.939c2.444,7.125,2.647,15.675-1.832,21.985-3.256,4.683-8.55,7.532-14.046,8.958a12.5,12.5,0,0,1,6.107,4.071c3.257,3.664,3.867,8.754,4.275,13.639.408,4.479.2,10.382.408,14.861.814,19.339,11.6,42.954,35.013,44.378C635.279,514.035,647.086,504.466,651.768,496.323ZM546.522,433.216c5.09-1.221,10.179-4.275,12.418-8.957,1.628-3.257,1.832-6.921,2.035-10.382.2-3.868,0-7.736-1.628-11.2-2.036-4.275-6.514-7.329-10.993-8.551a37.808,37.808,0,0,0-11.6-1.424c-1.019,13.842-1.426,27.482-1.222,41.324A40.088,40.088,0,0,0,546.522,433.216Zm127.23,45.193c1.424,1.018.814,3.461-.611,4.479-1.425,1.221-3.257,1.221-5.09,1.424-4.274.2-8.549.408-12.621-.407-4.071-1.017-8.142-3.053-10.382-6.717-2.443-3.665-2.443-8.347-2.443-12.825V448.688c0-2.85-1.221-9.568-6.922-10.586h-1.221c-4.274,0-8.549.2-12.621.611a414.4,414.4,0,0,0,3.665,44.989l-31.147.61a6.4,6.4,0,0,1,8.549-8.346c1.223-26.871,1.63-53.946,1.223-81.021-3.868,0-7.736-.2-11.6-.2a57.116,57.116,0,0,1,.2-5.9c10.177-.407,20.356-.61,30.331-1.017v1.017a13.784,13.784,0,0,1,2.851-.407c6.718-.814,13.638-1.832,20.356-.814,6.922,1.018,13.64,3.868,17.711,9.161a25.47,25.47,0,0,1,4.071,8.143c2.444,7.125,2.647,15.675-1.831,21.782-3.257,4.682-8.551,7.735-14.047,9.161a11.654,11.654,0,0,1,6.108,4.071c3.256,3.664,3.868,8.754,4.275,13.639l1.221,13.436c.2,3.054.61,6.107,2.239,8.754C667.644,478.205,671.105,479.834,673.752,478.409Zm-41.121-45.193c5.089-1.221,10.178-4.275,12.417-8.957,1.628-3.257,1.832-6.921,2.036-10.382.2-3.868,0-7.736-1.629-11.2-2.035-4.479-6.514-7.329-10.993-8.754a45,45,0,0,0-11.6-1.221c-1.018,13.639-1.425,27.482-1.221,41.324A40.088,40.088,0,0,0,632.631,433.216Zm197.055-83.209c-.822,9.257-6.171,18.514-14.81,22.01-8.022,3.292-18.925.412-21.8-7.611a15.975,15.975,0,0,1-1.028-3.7c-.412-6.788,5.142-9.463,9.873-8.434a8.164,8.164,0,0,1,6.994,8.434c0,3.908-2.056,6.582-4.936,7.611,9.256,3.5,17.278-5.76,17.485-19.953.411-18.719-23.656-10.9-32.5-4.937C773.53,353.5,760.57,367.9,748.64,381.891S725.6,411.1,716.962,427.352c-3.292,6.582-2.674,12.753-2.469,16.25l1.235,34.969h4.73l.412,5.965-30.856.823a5.026,5.026,0,0,1,1.029-5.348,5.631,5.631,0,0,1,5.554-1.44l.617-30.033a35.139,35.139,0,0,1,.618-8.022c-3.086-9.873-9.669-22.833-12.754-32.706-.823-2.675-6.377-11.314-6.377-11.314s-5.143-1.851-7.611-.823l-.617-7.405c7.405,0,30.238-1.234,37.437-.411,2.263.411.823,6.788-.617,8.433l-7.4-1.234,11.52,25.507c9.462-17.279,21.8-33.529,34.763-48.34,12.959-14.605,27.975-31.678,46.078-40.112C807.882,324.911,831.332,328,829.686,350.007Z"/><path class="cls-2" d="M264.763,502.183a16.835,16.835,0,0,0-3.933,10.661H205.89c-1.762-2.583-3.482-5.177-5.17-7.725l-.518-.781c.72-.708,1.394-1.432,2.07-2.155Zm293.261,2.994c-.673-.973-1.3-1.977-1.913-2.994H291.6a15.843,15.843,0,0,1,1.072,1.4,32.95,32.95,0,0,1,5.311,9.261H564.053A78.277,78.277,0,0,1,558.024,505.177Zm-450.114.391a26.4,26.4,0,0,0,5.569,2.065c9.186,1.968,18.242,1.541,22.1.772l.085-.017a57.108,57.108,0,0,0,12.891-4.013c-2.6-.043-5-.13-7.358-.217-4.161-.152-8.095-.3-13.028-.2l-.179,0a9.042,9.042,0,0,1-5.354-1.778H103.58A16.324,16.324,0,0,0,107.91,505.568Zm703.7-3.385H665.6a9.01,9.01,0,0,1-1.811,4.2,76.134,76.134,0,0,1-5.673,6.457h153.5a5.331,5.331,0,1,0,0-10.661Zm-736.568,0H39.216a5.331,5.331,0,1,0,0,10.661h40.1A36.188,36.188,0,0,1,75.046,502.183ZM791.17,373.86a18.849,18.849,0,0,1-4.577-6.99,23.816,23.816,0,0,1-1.13-3.672H775.4c-3.633,3.44-7.119,7.037-10.457,10.662Zm-50.214-6.2.5-.569q1.708-1.926,3.462-3.892H39.216a5.331,5.331,0,1,0,0,10.662H735.653C737.376,371.808,739.131,369.745,740.956,367.659Z"/></svg>