<svg id="Layer_1" data-name="Layer 1" xmlns="http://www.w3.org/2000/svg" viewBox="0 0 864 864"><defs><style>.cls-1{fill:#7d1113;}.cls-2{fill:#fff;}.cls-3{fill:#303030;}.cls-4{fill:#8fa878;}</style></defs><circle class="cls-1" cx="440.796" cy="431.533" r="401.157"/><path class="cls-2" d="M264.507,168.264c-2.424-1.5-4.761-1.113-7.043.3a24.2,24.2,0,0,0-3.909,2.128,6.73,6.73,0,0,0-2.22,2.919,20.469,20.469,0,0,0-1.309,8.724,12.941,12.941,0,0,0,3.255,6.958,20.963,20.963,0,0,0,4.642,4.127c.788.434,1.4,1.316,2.2,1.656a11.89,11.89,0,0,0,3.773.981,12.718,12.718,0,0,0,8.21-1.677,18.89,18.89,0,0,0,2.8-2.668,5.714,5.714,0,0,0,1.714-4.361,15.171,15.171,0,0,0-.551-3.04c-.1-.5-.3-1.018-.4-1.519a1.129,1.129,0,0,1,.7-1.22.829.829,0,0,1,1.251.277c.724,1.048,1.448,2.1,2.154,3.238a13.553,13.553,0,0,1,.964,2.105c.8,1.976,0,3.663-1.236,5.17a24.991,24.991,0,0,1-5.3,4.717,20.937,20.937,0,0,1-4.946,2.275,42.55,42.55,0,0,1-4.2,1.11,11.5,11.5,0,0,1-5.677-.317,18.452,18.452,0,0,1-5.281-2.221,16.867,16.867,0,0,1-5.1-5.031c-.4-.458-.631-1.03-1.067-1.544-2.371-2.844-2.816-6.2-2.37-9.688a27.432,27.432,0,0,1,1.551-6.366,17.581,17.581,0,0,1,5.075-6.926,25.724,25.724,0,0,1,3.506-2.827,21.784,21.784,0,0,1,4.013-1.386c1.129-.372,2.239-.651,3.407-.967,1.332-.43,1.649-.324,2.521.7.779,1.01,1.575,1.927,2.3,2.975a11.486,11.486,0,0,1,.85,1.939c.406.942.038,2.417-1.029,1.932A15.569,15.569,0,0,1,264.507,168.264Zm33.8,12.557a7.737,7.737,0,0,0-3.186,1c-.324.248-.986.143-1.555.216a16.4,16.4,0,0,1-6.932-.2,5.615,5.615,0,0,1-2.548-1.231c-1.777-1.638-3.7-3.123-4.565-5.473a63.064,63.064,0,0,1-2.756-7.644,16.959,16.959,0,0,1,1.023-10.251l1.305-3.269a4.311,4.311,0,0,1,3-2.8c.478-.1.857-.53,1.272-.75l3.911-2.069c.178-.094.387-.129.624-.255,2.963-1.568,5.943-1.1,8.965-.116a30.93,30.93,0,0,1,3.475,1.119,15.334,15.334,0,0,1,8.76,9.245,6.053,6.053,0,0,0,.325,1.043,6.8,6.8,0,0,1,.379,3.441c-.289,1.746-.307,3.575-.6,5.321-.345,1.928-.869,3.949-1.364,5.88a.864.864,0,0,1-.258.517c-2.029,1.755-3.5,4.129-6.115,5.359A27.874,27.874,0,0,1,298.305,180.821Zm-11.052-5.834a45.675,45.675,0,0,0,5.1,2.612c2.429,1.293,5.152.99,7.763,1.05.24.025.533-.282.829-.439a13.434,13.434,0,0,0,3.587-4.4,7.475,7.475,0,0,0,1.563-3.785,27.5,27.5,0,0,0-3.765-15,6.74,6.74,0,0,0-2.965-2.451,40.412,40.412,0,0,1-5.285-2.818c-1.64-.952-3.331-1.422-5.165-.3a5.628,5.628,0,0,1-1.993.676,7.877,7.877,0,0,0-4.128,3.095,14.354,14.354,0,0,0-1.643,2.916,9.442,9.442,0,0,0-1.238,6.118,22.907,22.907,0,0,0,2.832,7.072A11.318,11.318,0,0,0,287.253,174.987ZM306.746,142.3c-.963.3-1.469-.079-1.61-.815a1.286,1.286,0,0,1,.7-1.349c1.015-.536,1.982-1.2,3.083-1.695a42.565,42.565,0,0,1,4.705-1.964,2.287,2.287,0,0,1,1.357-.021,1.454,1.454,0,0,1,1.229,1.32c.117.674-.4,1.017-.935,1.3l-.577.366.2,1.074a103.456,103.456,0,0,0,4.541,11.183,25.06,25.06,0,0,0,1.739,2.635,14.586,14.586,0,0,1,2.025,4.681,5.836,5.836,0,0,0,5.1,4.068,10.036,10.036,0,0,0,4.441-.784l2.015-.923c.877-.339,1.862-.577,2.347-1.554.59-1.451,1.352-2.824,1.085-4.446a14.9,14.9,0,0,0-.9-2.887c-1.654-4.463-3.31-8.928-5.027-13.368-.86-2.039-1.759-3.992-2.732-6.132l-1.4.469c-1.15.372-1.5.219-1.874-.569-.314-.813-.2-1.074.791-1.673.765-.439,1.617-.84,2.405-1.217a30.717,30.717,0,0,1,3.93-1.736c1.438-.555,1.92-.239,2.385,1.522-1.2.608-1.154.734-2.48,1.391l1.983,5.128a32.2,32.2,0,0,1,2.062,5.889,27.011,27.011,0,0,0,1.255,4.547c.895,2.313,1.852,4.6,2.708,7a6.883,6.883,0,0,1-.395,5.113,18.016,18.016,0,0,1-3.36,5.254,5.823,5.823,0,0,1-2.047,1.582c-3.127,1.21-6.336,2.02-9.809.847-2.867-.9-4.911-2.845-7.042-4.825a2.376,2.376,0,0,1-.391-.639c-.876-1.89-1.688-3.8-2.5-5.719l-4.768-11.959a22.117,22.117,0,0,0-1.169-2.28C308.684,141.546,307.707,142,306.746,142.3Zm66.663-.12a45.522,45.522,0,0,1-2.629-10.124c-.154-.86-.585-1.719-.8-2.563l-1.593-5.336c-1.348.143-2.632.268-3.9.459a.976.976,0,0,1-1.21-.656c-.447-.923-.209-1.609.8-1.732,2.356-.265,4.411-1.421,6.716-1.881a11,11,0,0,0,1.979-.653l1.588-.551c1.378,1.305,1.3,2.086-.2,2.962l-.242.132c-2.121,1.174-2.281,1.355-1.788,3.789.561,2.694,1.2,5.438,1.895,8.1,1.026,3.682,2.068,7.43,3.223,11.078.588,1.995,1.305,3.956,1.957,5.934-.836,1.049-1.225,1.15-2.288.525a150.939,150.939,0,0,1-12.763-8.6c-1.621-1.173-3.29-2.263-4.958-3.354l-6.072-4.173a3.011,3.011,0,0,1-.6-.19,177.146,177.146,0,0,0,4.371,17.362c.975.024,1.756.1,2.585.09,1.984-.1,2.821.723,2.92,2.706.022.618-.367.719-.822.837-1.427.371-2.774.79-4.185,1.225-1.475.453-3,.987-4.539,1.456-1.948.506-2.292.248-2.929-1.941.4-.313.954-.594,1.422-.923a10.55,10.55,0,0,0,2.211-1.891,3.166,3.166,0,0,0,.158-2.327c-.39-1.77-.91-3.5-1.413-5.175-.571-1.93-1.077-3.877-1.712-5.791q-1.356-4.427-2.909-8.8a2.734,2.734,0,0,0-2.85-2.17c-.553,0-1.3.061-1.536-.848-.287-1.1-.016-1.658,1.187-1.831,2.045-.394,4.06-.64,6.04-1.015a1.691,1.691,0,0,1,1.745.586c1,1.194,2.054,2.307,3.106,3.419a29.482,29.482,0,0,0,6.341,5.212,4.719,4.719,0,0,1,1.293.98,44.507,44.507,0,0,0,6.305,4.8,30.489,30.489,0,0,0,3.155,1.744,7.5,7.5,0,0,0,1.19.315A3.933,3.933,0,0,0,373.409,142.176Zm26.324-17.835.4,4.277a50.288,50.288,0,0,0,1.185,8.907c.573,2.154.891,4.411,1.465,6.565a3.044,3.044,0,0,0,.3.7c1.3.089,2.713-.449,3.886.673-.163,1.242-1.113,1.714-2.157,2a16.691,16.691,0,0,1-1.783.319c-2.2.241-4.411.417-6.545.649a3.035,3.035,0,0,1-.806.046c-.615-.049-1.376.329-1.7-.506a1.675,1.675,0,0,1,.886-1.885c.741-.511,1.566-.9,2.3-1.475a1.429,1.429,0,0,0,.667-1.516c-.485-3.452-.848-6.99-1.267-10.452l-1.168-8.3-.728-5.179c-.047-.332-.226-.646-.254-.845-.151-.114-.218-.1-.218-.1-2.371.468-4.753.871-7.048,1.4a2.279,2.279,0,0,0-1.835,1.883c-.019.341-.636.767-.969.814a2.4,2.4,0,0,1-1.231-.572c-.218-.105-.265-.437-.368-.694a12.514,12.514,0,0,1-.028-4.532l7.464-.847c1.4-.129,2.864-.335,4.259-.531,3.567-.637,7.067-1.265,10.625-1.968a19.088,19.088,0,0,0,2.694-.582c1.309-.32,1.812-.12,2.14,1.256.216,1.053.641,2.144.06,3.31a1.381,1.381,0,0,1-2.485.146,2.248,2.248,0,0,0-2.492-.868c-1.983.346-3.889.75-6.062,1.191Zm20.3-10.715c-.672-.05-1.146-.24-1.232-.975a1.179,1.179,0,0,1,1.042-1.234,1.979,1.979,0,0,1,.668-.15c3.152-.013,6.371-.026,9.522-.1a27.349,27.349,0,0,0,3.346-.285,17,17,0,0,1,7.6.682,8.381,8.381,0,0,1,3.756,2.655,37.483,37.483,0,0,1,5.363,7.915c1.483,2.983,1.292,6.072.7,9.172a25.417,25.417,0,0,1-.973,4.049,23.324,23.324,0,0,1-1.84,4.205,11.205,11.205,0,0,1-5.458,4.363,24.047,24.047,0,0,1-6.542,1.237c-3.956.1-7.9.533-11.852.834a18.063,18.063,0,0,1-1.876.047c-1.343-.034-1.9-1.027-1.331-2.248a2.663,2.663,0,0,1,1.914-1.255c3.669-.762,2.932-.745,3.188-3.9a86.51,86.51,0,0,0-.367-9.315c-.042-1.676-.082-3.285-.258-4.957-.028-1.073-.257-2.207-.351-3.278-.163-1.136-.124-2.277-.218-3.348-.163-1.136-.458-2.2-.688-3.4C422.661,114.1,421.313,113.8,420.034,113.626Zm8.281,3.885c.023.937.247,1.871.273,2.876.075,3.017-.049,6.106.027,9.122.15,3.284.431,6.5.58,9.779a1.389,1.389,0,0,0,1.313,1.51,17.471,17.471,0,0,0,6.978.093c2.472-.4,4.309-2.052,6.218-3.509a7.282,7.282,0,0,0,2.028-2c1.733-3.129,2.523-6.436,1.495-9.965a20.456,20.456,0,0,0-7.024-9.953,5.383,5.383,0,0,0-4.324-1.233,28.026,28.026,0,0,1-3.351.085c-1.273.1-2.544.2-4.016.368C428.47,115.7,428.36,116.638,428.315,117.511ZM468.022,145.6a7.715,7.715,0,0,0-3.213-.914c-.406.028-.9-.424-1.416-.675a16.414,16.414,0,0,1-5.68-3.98,5.628,5.628,0,0,1-1.451-2.43c-.583-2.346-1.372-4.645-.8-7.082a62.863,62.863,0,0,1,1.9-7.9,16.93,16.93,0,0,1,6.493-8l2.887-2.013a4.311,4.311,0,0,1,4.04-.691,5.394,5.394,0,0,0,1.475.074l4.405.424c.2.019.394.105.661.13,3.337.321,5.567,2.354,7.551,4.834a30.682,30.682,0,0,1,2.287,2.847,15.34,15.34,0,0,1,2.232,12.54,6,6,0,0,0-.3,1.048,6.791,6.791,0,0,1-1.576,3.082c-1.2,1.3-2.224,2.817-3.425,4.116-1.349,1.421-2.9,2.821-4.374,4.161a.857.857,0,0,1-.5.289c-2.659.35-5.2,1.522-8.054,1.113A27.358,27.358,0,0,1,468.022,145.6ZM462,134.645a45.255,45.255,0,0,0,2.822,4.986c1.317,2.417,3.757,3.661,5.905,5.147.188.153.6.057.934.09a13.438,13.438,0,0,0,5.417-1.7,7.461,7.461,0,0,0,3.387-2.3,27.5,27.5,0,0,0,5.106-14.6,6.725,6.725,0,0,0-1.13-3.678,40.331,40.331,0,0,1-2.862-5.259c-.848-1.7-2-3.021-4.149-3.093a5.616,5.616,0,0,1-2.036-.532,7.89,7.89,0,0,0-5.15.314,14.311,14.311,0,0,0-2.976,1.534,9.43,9.43,0,0,0-4.4,4.426,22.936,22.936,0,0,0-1.525,7.466A11.31,11.31,0,0,0,462,134.645Zm68.716-11.86c2.51.455,5.021.911,7.547,1.3a2.159,2.159,0,0,1,1.592,1.134,1.275,1.275,0,0,1-.577,1.862,1.008,1.008,0,0,1-.5.088c-2.884-.337-3.845,1.986-5.221,3.728-.481.574-1.314,1.48-1.731,2.071-2.813,3.745-5.366,7.551-7.934,11.423-2.188,3.134-4.08,6.477-6.678,9.308a6.211,6.211,0,0,1-1.114.633c-1.1-3.223-1.384-6.39-2.126-9.666l-2.8,3.679c-.96,1.152-1.922,2.3-2.8,3.4a1.975,1.975,0,0,1-1.891-1.619c-.345-1.459-.689-2.919-.953-4.428L502.7,123.539c-.107-.714-.149-1.413-.19-2.112a1.525,1.525,0,0,0-1.4-1.64,2.687,2.687,0,0,1-2.141-2.022,1.841,1.841,0,0,1,2.317-.762c1.335.178,2.69.567,4.011.81.979.231,1.939.251,2.918.482a17.146,17.146,0,0,1,2.514.732l.106.715c.072,1.739-.217,2.084-1.909,1.96l-1.579-.028c.164,1.347.344,2.63.458,3.9.438,3.688.746,7.343,1.184,11.029.328,2.7.867,5.373,1.259,8.084l.392.092c.977-1.217,1.937-2.367,2.848-3.6a.982.982,0,0,0,.2-.572l-.609-9.377c-1.524-.842-1.524-.842-.908-2.281,2,.267,4.023.468,6.012.8a1.107,1.107,0,0,1,.613.9,1.185,1.185,0,0,1-.681,1.424,8.644,8.644,0,0,1-1.347.164c.514,4.531.41,9.054,1.819,13.59l14.382-19.753c-.964-.3-1.651-.6-2.353-.831l-1.536-.5C529.515,122.915,529.266,122.511,530.717,122.785ZM562.991,159a45.433,45.433,0,0,1,3.744-9.766c.375-.79.524-1.738.836-2.553l1.8-5.267c-1.18-.668-2.3-1.312-3.44-1.893a.973.973,0,0,1-.6-1.236c.172-1.012.764-1.431,1.655-.945,2.07,1.152,4.415,1.406,6.558,2.371a10.874,10.874,0,0,0,1.989.619l1.613.475c.363,1.863-.152,2.455-1.884,2.292l-.276-.033c-2.406-.276-2.642-.223-3.656,2.046-1.109,2.518-2.18,5.123-3.164,7.689-1.306,3.593-2.636,7.248-3.817,10.888-.681,1.965-1.237,3.977-1.857,5.966-1.289.368-1.664.224-2.166-.9a150.925,150.925,0,0,1-5.387-14.416c-.637-1.9-1.361-3.753-2.085-5.611l-2.515-6.924a2.992,2.992,0,0,1-.38-.5,177.073,177.073,0,0,0-6.535,16.666c.78.587,1.372,1.1,2.051,1.576,1.673,1.073,1.876,2.227.8,3.9-.341.515-.717.371-1.155.2-1.378-.529-2.716-.97-4.117-1.435-1.465-.491-3.015-.941-4.542-1.454-1.877-.721-2.008-1.13-1.254-3.283.511-.02,1.122.072,1.694.076a10.565,10.565,0,0,0,2.9-.253,3.168,3.168,0,0,0,1.481-1.8c.711-1.667,1.3-3.38,1.858-5.033.657-1.9,1.378-3.78,1.973-5.705q1.468-4.392,2.749-8.855a2.732,2.732,0,0,0-1.058-3.422c-.452-.318-1.093-.707-.757-1.583.409-1.064.952-1.358,2.031-.8,1.893.869,3.675,1.84,5.5,2.685a1.7,1.7,0,0,1,1.081,1.492c.121,1.554.33,3.07.538,4.586a29.54,29.54,0,0,0,2.131,7.926,4.681,4.681,0,0,1,.483,1.551,44.482,44.482,0,0,0,2.337,7.573,30.664,30.664,0,0,0,1.553,3.253c.154.347.506.554.785.948A3.916,3.916,0,0,0,562.991,159Zm50.036,11.327-2.4,3.563a50.316,50.316,0,0,0-4.72,7.644c-.918,2.03-2.1,3.978-3.02,6.009a2.993,2.993,0,0,0-.212.735c.95.89,2.384,1.369,2.583,2.98a2.455,2.455,0,0,1-2.932.179,16.057,16.057,0,0,1-1.583-.881c-1.857-1.206-3.678-2.469-5.476-3.64a3,3,0,0,1-.653-.475c-.446-.428-1.274-.616-.993-1.465a1.675,1.675,0,0,1,1.879-.9c.9.074,1.78.3,2.712.314a1.431,1.431,0,0,0,1.476-.751c1.809-2.98,3.768-5.948,5.634-8.892l4.35-7.164,2.714-4.47c.174-.287.234-.642.338-.814-.045-.184-.1-.219-.1-.219-2.133-1.138-4.231-2.334-6.341-3.38a2.28,2.28,0,0,0-2.611.3c-.232.252-.978.19-1.265.016a2.394,2.394,0,0,1-.592-1.222c-.1-.219.072-.5.154-.769a12.563,12.563,0,0,1,2.847-3.526l6.314,4.069c1.168.788,2.429,1.553,3.632,2.284,3.165,1.764,6.271,3.494,9.47,5.2a18.951,18.951,0,0,0,2.454,1.255c1.216.581,1.478,1.055.861,2.327-.5.951-.861,2.066-2.048,2.6a1.381,1.381,0,0,1-2.017-1.46,2.249,2.249,0,0,0-1.379-2.25c-1.753-.986-3.485-1.88-5.446-2.914Zm11.809,35.9a7.74,7.74,0,0,0-2.218-2.5c-.359-.2-.534-.842-.834-1.33a16.38,16.38,0,0,1-2.655-6.408,5.62,5.62,0,0,1,.08-2.829c.768-2.292,1.335-4.655,3.125-6.405a62.916,62.916,0,0,1,5.846-5.644,16.942,16.942,0,0,1,9.773-3.263l3.516-.148a4.311,4.311,0,0,1,3.779,1.587c.288.395.835.566,1.2.855l3.489,2.721c.159.123.277.3.489.465,2.643,2.061,3.433,4.974,3.775,8.132a31.142,31.142,0,0,1,.4,3.629,15.339,15.339,0,0,1-4.85,11.779,5.975,5.975,0,0,0-.818.721,6.792,6.792,0,0,1-2.984,1.755c-1.712.45-3.389,1.184-5.1,1.634-1.9.474-3.959.823-5.923,1.162a.85.85,0,0,1-.576-.024c-2.434-1.132-5.2-1.506-7.394-3.386A27.521,27.521,0,0,1,624.836,206.224Zm.8-12.472a45.144,45.144,0,0,0-.295,5.721c-.187,2.746,1.2,5.107,2.219,7.513.076.23.475.371.739.577a13.432,13.432,0,0,0,5.485,1.472,7.457,7.457,0,0,0,4.094-.124,27.49,27.49,0,0,0,12.144-9.576,6.734,6.734,0,0,0,1.022-3.709,40.251,40.251,0,0,1,.408-5.974c.2-1.888-.066-3.622-1.84-4.836a5.623,5.623,0,0,1-1.433-1.543,7.883,7.883,0,0,0-4.513-2.5,14.3,14.3,0,0,0-3.334-.305,9.445,9.445,0,0,0-6.088,1.374,22.918,22.918,0,0,0-5.294,5.48A11.318,11.318,0,0,0,625.635,193.752Z"/><path class="cls-3" d="M683.83,368.989a81.851,81.851,0,0,1-3.551,54.686c-2.9,6.692-6.739,13.068-8.342,20.184-1.735,7.709-.734,15.787-1.962,23.593-2.585,16.428-15.937,30.623-32.176,34.206,0,19.366-13.111,38.058-31.317,44.658-18,6.525-37.9,1.715-57.021,2.55a96.54,96.54,0,0,0-59.787,24.443c-12.173,10.951-22.494,25.605-38.333,29.758-17.424,4.568-35.318-5.372-49.07-17.006s-26.276-25.7-43.18-31.924c-26.807-9.866-58.1,2.425-84.7-7.979-18.341-7.173-31.813-25.439-33.248-45.081A40.273,40.273,0,0,1,210.165,470.4c-1.506-7.346-.886-14.969-1.948-22.392-1.74-12.159-7.878-23.2-11.45-34.948a85.556,85.556,0,0,1,3.006-57.6c2.847-6.744,6.592-13.193,8.152-20.345,1.654-7.587.747-15.518,1.994-23.181,2.644-16.252,15.832-30.272,31.891-33.905-.126-35.413,34.2-49.657,64.433-48.816,17.757.494,36.2,2.985,52.781-3.383,29.911-11.486,48.051-49.569,80.091-49.823,32.261-.255,50.89,37.983,81.055,49.424,26.513,10.056,57.525-2.282,84.116,7.567,18.861,6.986,32.876,25.535,34.443,45.588a40.111,40.111,0,0,1,30.852,30.393c1.532,7.305.949,14.892,1.979,22.284,1.58,11.336,6.857,21.737,10.623,32.568C682.776,365.541,683.332,367.257,683.83,368.989Zm5.664,55.052c-2.741,7.074-6.353,13.867-8,21.272-1.934,8.677-1.078,17.775-2.825,26.492a45.411,45.411,0,0,1-15.094,25.54c-4.9,4.141-10.744,7.282-14.768,12.283-4.623,5.747-6.306,13.258-9.646,19.835-12.259,24.142-43.581,31.034-70.646,30.273-12.915-.363-26.1-1.8-38.568,1.58-17.6,4.766-31.166,18.309-44.943,30.248s-30.3,23.273-48.487,22c-24.675-1.722-41.216-25.038-61.438-39.282A92.076,92.076,0,0,0,323,557.612c-13.356-.082-26.766,2.758-39.993.9a57.854,57.854,0,0,1-43.688-32.517c-2.472-5.377-4.161-11.239-7.884-15.839-3.543-4.377-8.6-7.2-13-10.722a49.941,49.941,0,0,1-18.063-31.91c-.909-6.713-.434-13.576-1.632-20.244-1.538-8.558-5.743-16.361-8.8-24.5a95.47,95.47,0,0,1,1.322-69.695c2.737-6.526,6.236-12.833,7.564-19.785,1.216-6.366.542-12.937,1.167-19.388a48.846,48.846,0,0,1,17.559-32.768c4.379-3.567,9.427-6.405,13.081-10.712,2.89-3.406,4.745-7.52,6.412-11.623,2.4-5.895,4.362-12.339,8.713-17.154,2.034-2.251,4.648-3.48,6.758-5.633a42.205,42.205,0,0,1,7.9-6.355c11.8-7.327,26.379-9.144,40.01-9.221,18.494-.1,37.645,2.234,54.979-4.213,16.169-6.013,28.606-18.887,41.755-30.053s29.017-21.371,46.224-20.141c24.44,1.747,40.785,24.864,60.737,39.088a92.2,92.2,0,0,0,52.706,17c13.125.059,26.291-2.7,39.3-.971A58.52,58.52,0,0,1,640.5,253.533c2.744,5.8,4.591,12.185,8.776,17.05,3.389,3.94,8.03,6.544,12.113,9.759A49.339,49.339,0,0,1,679.6,312.483c.9,7.024.26,14.211,1.6,21.165,1.473,7.669,5.261,14.659,8.121,21.925a95.151,95.151,0,0,1,.181,68.468Zm-.689-55.431c-3.534-13.314-10.337-25.743-12.347-39.37-.994-6.743-.788-13.647-2.188-20.319a43.421,43.421,0,0,0-17.718-26.581c-3.546-2.435-7.528-4.4-10.309-7.679-2.969-3.5-4.22-8.1-5.9-12.37a60.343,60.343,0,0,0-40.677-35.822c-24.216-6.122-50.724,3.3-74.4-4.672-31.988-10.773-51.7-50.867-85.457-50.792-32.94.072-52.389,38.352-83.246,49.881-17.294,6.461-36.428,3.862-54.889,3.82-12.389-.029-25.432,1.48-36.55,7.311a48.358,48.358,0,0,0-14.467,11.318c-1.819,2.238-2.538,5.064-3.606,7.688a56.463,56.463,0,0,1-5.017,9.465c-8.038,12.374-19.521,21.967-28.83,33.311-4.33,5.275-8.274,11.211-9.3,17.958-.938,6.169.647,12.463.186,18.686-.687,9.27-5.786,17.525-9.383,26.1a84.556,84.556,0,0,0-4,52.9c3.463,13.776,10.409,26.625,12.508,40.673,1.027,6.873.869,13.911,2.35,20.7a44.141,44.141,0,0,0,17.868,26.635c3.531,2.435,7.492,4.411,10.252,7.695,2.923,3.478,4.16,8.016,5.819,12.246a60.2,60.2,0,0,0,40.518,35.749c24.219,6.157,50.741-3.28,74.428,4.681,31.971,10.745,51.668,50.743,85.4,50.789,33.646.046,53.383-39.675,85.19-50.648,25.035-8.636,53.477,1.983,78.761-5.895a56.673,56.673,0,0,0,35.391-33c1.685-4.318,2.886-8.947,5.74-12.6,3.265-4.178,8.261-6.537,12.577-9.616A42.827,42.827,0,0,0,674.7,469.167c1.172-7.239.451-14.685,1.636-21.922,1.653-10.088,6.89-19.176,10.342-28.8a84.46,84.46,0,0,0,2.123-49.838Z"/><path class="cls-2" d="M481.7,522.865c8.931,10.555,6.7,26.388-1.015,37.146-7.714,10.962-20.705,17.052-33.9,17.052-36.538,0-54.807-35.321-73.888-63.333-14.209,15.427-33.494,26.186-52.777,25.171-28.216.406-46.282-18.676-37.96-42.425,7.714-21.72,30.246-31.667,51.763-26.389.2-20.908,0-43.237-.2-60.9-3.857,0-7.713-.2-11.571-.2a56.769,56.769,0,0,1,.2-5.887l23.546-.812c19.487-4.262,44.658,3.858,48.921,21.72,3.654,15.021,1.624,30.855-.2,46.079-1.421,12.586-7.308,25.78-16.24,37.147,3.655,5.075,6.9,10.353,10.353,15.224,13.2,19.894,29.434,45.47,56.025,46.485,13.4.609,26.186-5.886,32.072-18.066,2.233-5.074,3.451-11.165,1.828-16.442-4.872,2.436-12.383,0-12.383-7.308C466.269,518.2,478.043,516.774,481.7,522.865ZM365.789,503.986a25.13,25.13,0,0,0-3.654-4.466,86.26,86.26,0,0,0-12.178-12.178c.405,7.51,1.014,14.818,2.029,21.313h-.2v.609c-6.089.2-10.961,0-15.833-.2-3.451,0-7.1.2-11.164.2a6.229,6.229,0,0,1-.2-4.263,5.587,5.587,0,0,1,1.625-3.045,6.508,6.508,0,0,1,7.1-1.218l.609-22.125a37.235,37.235,0,0,0-20.1-1.015c-13.8,2.842-25.576,16.036-25.779,30.246,0,8.525,6.089,14.614,12.585,19.689,5.277,4.06,17.254,7.308,27.607,4.872C347.317,527.939,358.887,516.774,365.789,503.986Zm-14.412-95.607a679.628,679.628,0,0,0-2.03,68.406c7.917,4.873,14.413,11.572,20.5,18.879a96.451,96.451,0,0,0,5.684-22.532c1.827-13.194,2.639-26.389,1.218-39.583-.812-7.916-2.639-16.239-8.729-20.908C363.353,408.987,357.264,408.379,351.377,408.379Zm120.369,82.007c.609,2.639,1.015,5.278,1.421,8.119a116.048,116.048,0,0,0-38.365,1.828c-.406-2.233-.813-4.669-1.218-6.9,2.842-.609,5.684-1.015,8.322-1.421-.811-9.541-1.826-19.284-3.044-29.028-5.887.812-11.774,1.625-17.661,2.233-2.03,8.323-4.059,16.848-6.292,25.171,1.826-.609,6.5.406,6.5.406s.61,5.075-.2,6.9H400.9v-7.308h6.5c1.827-6.292,3.451-12.586,5.278-18.878,2.03-7.308,4.059-14.615,5.887-21.923a269.618,269.618,0,0,0,6.292-40.395c-2.841.2-5.277.406-8.525.609.405-2.638.609-5.278,1.015-7.916,11.773-.2,25.171-.406,36.944-.609q.608,3.654,1.218,7.307c-2.233,0-4.263-.2-6.5-.405,4.263,26.794,8.323,55.618,12.992,82.21ZM437.44,454.457c-1.826-12.383-4.262-24.562-7.1-36.336-2.03,12.992-4.669,25.983-7.307,38.974C427.7,456.284,432.569,455.269,437.44,454.457ZM535.484,410a5.843,5.843,0,0,0-5.684,1.015,20.663,20.663,0,0,0-3.654,4.669c-5.074,8.119-10.352,16.239-15.427,24.155a34.928,34.928,0,0,0-4.06,7.714c-1.015,3.248-.812,6.9-.812,10.353.407,11.57.812,22.938,1.218,34.508h4.872c.2,2.03.2,3.856.406,5.886-9.134.2-21.517.61-30.449.813a4.671,4.671,0,0,1,1.015-5.278,5.058,5.058,0,0,1,5.481-1.218l.609-29.84a34.721,34.721,0,0,1,.609-7.916c-3.248-9.743-9.54-22.532-12.585-32.276-.813-2.638-6.292-11.164-6.292-11.164s-5.076-1.827-7.714-.812c0-2.435-.2-4.872-.407-7.308,7.1,0,29.84-1.218,36.945-.2,2.233.2.811,6.5-.812,8.12-2.436-.406-4.669-.812-7.105-1.218,3.248,7.1,8.12,18.269,11.976,27,6.5-9.541,11.977-19.284,19.284-28.621-1.42-.2-3.045-.407-4.465-.61.2-1.623.406-3.248.609-4.669,4.669-.2,12.383.61,17.254.406C535.889,405.739,535.687,407.769,535.484,410Zm58.863,66.378c1.015,14.006-11.367,23.343-17.051,24.765-5.684,1.623-11.57,1.623-17.457,1.42-4.669,0-9.337,0-13.2-2.435-4.059-2.639-6.292-7.308-6.9-11.977s-.2-10.758,2.638-13.4c3.046-3.045,8.729.609,9.744,6.292-.812,4.872-6.293,4.669-5.074,7.917,1.826,4.669,7.713,8.932,12.585,7.917,5.683-1.015,12.382-5.278,12.382-17.051s-27.607-33.9-31.26-53.183a21.671,21.671,0,0,1,3.451-17.254c4.668-5.888,12.991-7.309,20.5-8.12,5.683-.812,11.773-1.827,17.254.2,11.57,4.262,11.164,20.908,5.683,24.561-4.465,2.843-6.9.2-8.525-1.218-1.624-1.218-.2-6.292,3.045-6.7,4.871-.4.2-7.51-2.031-9.134a9.763,9.763,0,0,0-11.57.609c-3.248,2.639-4.262,4.669-4.669,8.728-1.015,7.714,1.828,13.6,6.091,20.3C574.048,445.12,593.535,463.591,594.347,476.38Z"/><path class="cls-4" d="M369.8,639.932a6.122,6.122,0,0,1,.359-5.037,3.747,3.747,0,0,1,4.139-1.98q3.959.36,3.239,7.2-.36,2.52-4.318,2.52A3.423,3.423,0,0,1,369.8,639.932Zm104.179,71.075q.36,3.6-9,3.238h-1.44q-10.8-.72-12.6-28.969-.213-3.361-.347-6.719c-.679.428-1.391.865-2.171,1.32q-6.477,3.779-12.235,6.838t-6.118,3.418q12.594,14.037,7.917,29.33t-22.672,16.014q-11.876.36-17.273-4.858t-4.678-11.875a22.906,22.906,0,0,1,5.038-12.057,62.484,62.484,0,0,1,5.937-6.477q3.06-2.879,5.039-4.5t4.138-3.059a25.464,25.464,0,0,0,2.519-1.8,88.413,88.413,0,0,0-8.277-5.577,69.46,69.46,0,0,1-8.225-5.716,137.935,137.935,0,0,1-15.885,24.249q-5.758,7.2-13.315,3.6t-7.917-14.755c0-2.028.155-4.942.457-8.7-.339.246-.726.5-1.174.781q-8.277,4.679-12.595-.36a9.086,9.086,0,0,1-1.08-2.16,23.607,23.607,0,0,1-1.8-9.176q0-4.858.54-10.8t.541-9.177q0-5.037-1.44-5.757-3.239-1.44-10.8,8.636a53.755,53.755,0,0,0-9.536,26.63q-1.258,14.755.9,23.752-1.439,2.518-5.4.9a8.332,8.332,0,0,1-5.038-6.3q-.7-4.281-1.161-8.422c-.152.348-.3.686-.458,1.044q-7.375,16.735-12.415,23.212-6.837,8.275-13.855,6.658t-7.737-9.9q-1.079-8.277,3.239-41.024,2.16-14.755-.72-14.755a1.466,1.466,0,0,0-1.079.36q-11.876,5.4-17.094,15.654t-6.477,17.993q-1.26,7.737-3.419,8.1-6.477,1.438-8.276-7.558a48.918,48.918,0,0,1-2.293-9.378,120.828,120.828,0,0,1-10.3,12.977q-12.237,13.674-26.99,12.955t-21.592-13.315q-13.674-23.393-5.038-61.177,3.957-17.634,12.775-27.17t23.211-5.578q14.4,3.958,17.454,17.993a30.88,30.88,0,0,1-5.4,25.73q-8.457,11.7-22.132,10.256-7.557-.719-9-5.037-1.078-2.88,2.16-3.239a6.7,6.7,0,0,1,4.318,1.439q6.477,6.477,13.854-1.619a28.247,28.247,0,0,0,7.737-18.533,23.3,23.3,0,0,0-3.778-14.215q-4.137-6.3-10.256-8.1-4.678-1.08-9.537,5.938t-8.276,20.512a116.091,116.091,0,0,0-3.419,28.61,76.935,76.935,0,0,0,5.578,31.308q5.939,14.394,17.453,11.516,8.637-1.8,16.914-12.236a149.137,149.137,0,0,0,9.177-11.875,47.249,47.249,0,0,0,4.138-6.838l.024-.057q-.258-5.662-.027-12.359.719-20.691,7.2-33.647a30.492,30.492,0,0,1,12.955-14.214,24.648,24.648,0,0,1,18.713-2.34q12.6,2.88,12.955,15.114,0,14.035-15.474,22.672-9.715,5.758-23.751,6.478-.72,2.879-.72,13.494t.72,12.416q5.757-12.594,14.394-20.153t15.475-6.836q7.2.359,8.456,10.075a55.837,55.837,0,0,1-.9,19.433q-3.24,32.388-2.52,34.547a5.624,5.624,0,0,0,1.08,1.44q5.039-2.16,10.8-13.675,3.239-6.837,5.758-13.135t3.419-9.537a45.765,45.765,0,0,1,1.979-5.757c.026-.062.052-.117.078-.177-.011-3.062.074-6.067.281-9q1.078-15.294,3.6-22.852,1.8-4.677,3.959-5.038,6.477-.718,6.478,3.6,0,.72-.18,2.7t-.541,5.218a55.5,55.5,0,0,0-.359,6.118q3.6-8.277,12.955-12.956,6.477-3.6,11.516.36t4.678,15.474a51.491,51.491,0,0,1-1.44,10.8q-1.44,6.479-1.079,9.357.358,3.238,1.079,3.239a5.93,5.93,0,0,0,1.44-.36l2.879-1.44q2.5-1.427,3.933-1.083.963-10.749,3.262-29.145.72-4.678,3.6-5.038,7.2-.72,7.2,3.6,0,6.837-1.8,24.83-2.878,29.149.36,29.15,1.08,0,2.879-2.16a109.351,109.351,0,0,0,11.336-16.734q4.022-7.135,5.888-9.866a31.433,31.433,0,0,1-2.11-2.909q-4.319-8.277-2.52-15.654a16.741,16.741,0,0,1,7.917-10.976,25.055,25.055,0,0,1,20.693-2.519q10.976,3.24,10.615,12.955-.358,12.955-9.715,15.114-6.118,1.44-7.2-2.159v-1.08q.36-1.439,3.239-1.259t3.6-2.339q2.159-7.2-1.08-11.876-3.959-6.117-9.177-3.6t-6.3,9.716a14.865,14.865,0,0,0,1.98,10.8,23.851,23.851,0,0,0,6.117,7.2q3.06,2.159,10.616,6.837,1.8,1.08,2.88,1.8a57.379,57.379,0,0,0,10.8-4.858q6.117-3.418,10.8-6.478c1.463-.956,2.6-1.68,3.427-2.188a294.488,294.488,0,0,1,2.33-43.335l3.6-27.709q-.72,0-6.3.9t-11.516,1.44a79.707,79.707,0,0,1-14.035-.179,49.61,49.61,0,0,1-14.934-3.6q-18.712-7.2-19.073-21.952,0-9.357,6.118-11.876a7.768,7.768,0,0,1,4.678,0q2.88,1.08.72,3.239-3.6,5.038-1.44,11.695a21.244,21.244,0,0,0,8.277,10.976q9.357,6.478,23.571,6.658t23.931-2.7q1.8-4.679,3.959-5.4,7.2-2.159,8.277,2.519,1.08,0,9.176-1.259a149.194,149.194,0,0,1,16.734-1.62,124.267,124.267,0,0,1,21.592,1.44q18.712,3.6,21.952,16.913,2.158,7.917-2.879,10.076a4.627,4.627,0,0,1-3.6,0q-.72-.36-1.8-6.117-1.44-15.115-19.432-16.914-19.434-1.08-32.389,1.44-9.357,1.8-9.716,2.158-1.08,1.8-3.958,38.686t-2.879,40.485q-1.44,10.437-.54,16.554a71.127,71.127,0,0,1,.9,9.9q0,3.779,1.979,5.037a12.146,12.146,0,0,0,2.7,1.44,7.433,7.433,0,0,0,3.059-.54,13.863,13.863,0,0,1,3.059-.72Q473.977,709.566,473.977,711.007ZM255.9,650.908a36.543,36.543,0,0,0,21.232-7.917q9-7.2,9.356-14.574T280.014,616q-6.117-3.6-12.235,5.217a62.854,62.854,0,0,0-9,19.253Zm164.454,43.9q-6.839,2.519-14.035,11.516-5.4,6.477-5.038,12.6t5.038,9A11.791,11.791,0,0,0,416.579,729a12.929,12.929,0,0,0,8.1-7.557Q431.153,707.048,420.358,694.812ZM710.4,686.175a2.425,2.425,0,0,1-1.079,2.16,5.123,5.123,0,0,1-2.879.719,7.153,7.153,0,0,1-3.239-.719q-1.08-.36-1.08-2.88,0-5.037-4.5-6.3a17.562,17.562,0,0,0-9.9.36,35.532,35.532,0,0,0-10.076,4.859q0,.72,1.439,2.159a36.357,36.357,0,0,1,3.779,4.858,23.567,23.567,0,0,1,3.419,8.1q3.6,15.473-6.478,23.751a27.847,27.847,0,0,1-23.751,4.318q-7.557-1.8-10.076-8.457t2.339-15.834q4.858-9.177,17.454-16.734l-7.558-5.038q-2.982-1.864-5.381-3.631l-.013.032q-8.637,19.073-18.353,27.71a12.943,12.943,0,0,1-9.9,3.059,8.755,8.755,0,0,1-7.737-5.938q-1.8-4.317-1.8-16.554-.36.36-2.879,4.138t-5.577,7.558a27.668,27.668,0,0,1-8.278,6.658,16.9,16.9,0,0,1-10.615,2.158q-8.279-1.439-10.257-12.235a31.722,31.722,0,0,1-.485-4.448c-1.238,1.824-2.565,3.775-4.01,5.888q-7.2,10.075-16.193,8.277-6.119-1.44-7.2-8.277a35.9,35.9,0,0,1,.9-14.575q1.98-7.738,3.958-14.934t1.26-8.277q-1.08-1.44-3.239.719a36.985,36.985,0,0,0-3.958,4.678,61.321,61.321,0,0,0-7.377,14.575q-3.06,8.457-4.858,12.955t-4.679,4.5q-6.119,0-6.837-4.319a126.151,126.151,0,0,1-1.8-22.131q0-12.056.54-16.914a19.284,19.284,0,0,0-.9-8.817q-2.519-3.959-9.356,6.478a55.913,55.913,0,0,0-6.118,12.6q-2.879,7.917-5.038,16.014a123.238,123.238,0,0,0-2.879,12.955,75.5,75.5,0,0,1-1.8,8.817,11.5,11.5,0,0,1-2.878,5.578,5.617,5.617,0,0,1-4.679,1.26q-9.356-1.08-12.775-22.492t.18-33.288a4.82,4.82,0,0,1,3.419-4.318,5.327,5.327,0,0,1,5.578,1.079,4.519,4.519,0,0,1,1.08,1.8,15.51,15.51,0,0,1,.539,3.419q.18,2.338.18,5.038v8.276q0,5.578.36,11.7a77.561,77.561,0,0,0,2.879,19.073q.72,0,2.879-10.976a169.409,169.409,0,0,1,7.378-25.19q5.217-14.216,13.134-19.973,5.4-5.039,12.236-1.8t6.837,14.754v20.512l.36,7.917q.36,0,1.8-3.6a37,37,0,0,1,2.16-5.758q9-21.232,19.792-21.952,5.758-.36,7.2,4.678,1.8,6.477-1.978,22.852T560.7,700.57q4.319-1.439,12.955-14.4l4.251-6.121a55.389,55.389,0,0,1,3.123-9.533,41.208,41.208,0,0,1,17.093-19.972,34.01,34.01,0,0,1,21.952-4.678q11.515,1.439,11.875,9.356,0,2.159-1.619,2.519a2.739,2.739,0,0,1-2.7-.72l-1.439-1.8a10.594,10.594,0,0,0-2.16-2.7,14.935,14.935,0,0,0-3.778-1.978,6.552,6.552,0,0,0-5.578.359q-16.554,4.679-24.111,26.63-6.119,17.634-1.08,23.752,6.119,7.557,20.872-16.914,3.96-6.838,8.638-15.835a17.737,17.737,0,0,0,.9-2.518,6.108,6.108,0,0,1,1.259-2.52,3.518,3.518,0,0,1,2.52-.719q5.039-.36,5.577,2.519t-1.259,11.876a26.792,26.792,0,0,0-.54,2.7,27.015,27.015,0,0,1-.539,2.7q-3.96,19.794-.36,22.672,1.8.36,6.117-3.958a107.524,107.524,0,0,0,7.737-10.977,67.18,67.18,0,0,0,4.679-8.636q1.26-3.06,2.519-5.579a13.811,13.811,0,0,1,.984-1.69,21.285,21.285,0,0,1-4.766-5.867q-3.6-7.557-1.619-14.034a16.479,16.479,0,0,1,7.376-9.717q14.035-7.2,24.831.36a11.926,11.926,0,0,1,4.5,9.9,19.947,19.947,0,0,1-4.138,11.336,8.323,8.323,0,0,1-6.838,3.059q-3.957-.18-4.678-2.7-.36-1.438.36-1.8a6.19,6.19,0,0,1,2.519-.36q5.758-1.44,4.139-8.277t-6.3-8.637q-5.038-2.158-8.637,5.038-5.4,10.8,3.959,19.433a2.348,2.348,0,0,0,1.079,1.08,138.047,138.047,0,0,0,11.876,7.557q12.956-7.2,25.19-6.118Q708.959,675.379,710.4,686.175Zm-41.024,4.318q-7.557,2.88-14.035,11.516-8.275,11.157-.719,17.994,6.477,6.117,14.034,1.439a13.1,13.1,0,0,0,5.4-6.838Q678.729,700.57,669.373,690.493Z"/><path class="cls-2" d="M730.586,577.049c6.723-12.388,11.321-26.4,15.728-39.94,3.661-11.238,6.88-22.676,9.548-34.284,3.351-1.482,5.692-5.368,8.729-7.547,4.208-3.016,9.054-4.463,13.265-7.355,1.133-.779.845-3.166-.633-3.254-5.436-.319-11.138,2.878-15.494,6.156-1.17.881-2.573,1.884-3.916,3.01q1.5-7.4,2.709-14.889c3.47-3.914,7.051-7.552,11.609-10.268,5.2-3.1,10.658-4.656,16.149-6.962,2.169-.912,1.2-4.171-.933-4.11-8.722.249-18.219,5.092-25.4,11.708.711-5.271,1.33-10.56,1.8-15.869,5.663-2.3,10.769-8.084,15.518-11.988,3.221-2.64,6.287-4.886,10.438-5.25a2.115,2.115,0,0,0,1.558-1.1l-.028,0a2.765,2.765,0,0,0,.357-.959,2.379,2.379,0,0,0-1.9-2.715c-5.332-.064-9.236,2.475-13.387,5.9-3.659,3.023-8.483,6.127-12.071,9.823.4-5.621.676-11.255.793-16.894,3.238-4.009,5.262-8.842,9.323-12.477,4.263-3.807,9.411-8.441,14.8-10.174,1.966-.627,2.34-4.439-.148-4.372-6.364.181-13.278,5.951-17.929,10.252a63.473,63.473,0,0,0-6,6.193c-.039-3.244-.115-6.489-.254-9.731-.075-1.757-.2-3.519-.307-5.277,1.681-2.371,2.6-5.282,4.219-7.761a43.709,43.709,0,0,1,5.688-7.318c3.512-3.473,8.048-5.835,11.149-9.739a1.133,1.133,0,0,0-.776-1.716c-6.05-.153-12.029,5.352-15.85,9.873a67.177,67.177,0,0,0-5.191,6.789q-1.163-12.351-3.372-24.629a1.445,1.445,0,0,0,.951-.551c1.424-1.95,1.66-4.414,2.58-6.661a34.624,34.624,0,0,1,3.552-6.677c2.3-3.284,6.518-10.219,10.636-10.962,2.4-.422,1.979-4.776-.475-4.651-5.673.3-10.4,7.164-13.493,11.682-1.792,2.635-4.19,6.381-5.241,10.14-.631-3.024-1.3-6.039-2.025-9.04,1.657-5.967,1.656-12.318,4.057-18.265a70.072,70.072,0,0,1,12.223-19.567c1.518-1.771-.831-4.135-2.49-2.64a51.011,51.011,0,0,0-13.129,19,83.279,83.279,0,0,0-3.556,10.517q-2.535-8.88-5.65-17.546c.885-2.211,1-4.693,2.367-6.754a80.431,80.431,0,0,0,4.237-7.961c2.775-5.428,5.843-10.584,9.1-15.728,1.572-2.489-2.346-5.516-4.056-3.156a82.463,82.463,0,0,0-9.825,18.116c-1.235,3.1-1.314,6.333-2.355,9.4-.285.839-.568,1.62-.832,2.392q-3.332-8.847-7.255-17.392a1.847,1.847,0,0,0,1.219-1.506c1.072-5.678,1.386-11.269,3.5-16.726a69.137,69.137,0,0,1,8.2-14.884c1.543-2.2-1.242-4.865-3.075-2.907-6.821,7.3-12.4,18.9-12.933,29.629q-2.721-5.49-5.69-10.814A1.617,1.617,0,0,0,732.511,285c.19-5.6-.576-11.336.217-16.916.789-5.548,2.544-10.592,4.271-15.887.741-2.283-2.14-3.813-3.27-1.673-5.691,10.718-5.35,21.2-4.523,33.028-3.115-5.389-6.455-10.612-9.954-15.69.7-4.328-1.143-9.313-1.354-13.719-.263-5.533.5-11.049.023-16.59a1.289,1.289,0,0,0-2.454-.452c-2.318,5.3-2.472,11.6-2.093,17.351.12,1.8.19,3.809.4,5.812-.967-1.286-1.92-2.582-2.912-3.844-2.145-5.279-5.584-10.155-8.338-15.009-2.515-4.444-4.829-10.78-8.29-14.43a2.028,2.028,0,0,0-2.312-.665l-.419.173a2.728,2.728,0,0,0-1.471,3.5c2.292,5.838,6.172,11.446,9.313,16.88,2.906,5.023,5.5,10.454,9.593,14.62-.574-.352-1.162-.7-1.761-1.092-2.2-1.43-4.375-2.9-6.468-4.484-2.436-1.847-6.17-6.451-9.429-5.238-3.709,1.362,4.667,7.426,5.351,7.971,3.773,2.839,9.564,8.484,14.474,8.392a1.342,1.342,0,0,0,1.3-1.052q5.847,9.5,11.074,19.382c-.552-.349-1.088-.674-1.577-.967a58.17,58.17,0,0,0-8.7-4.564,31.975,31.975,0,0,0-7.34-1.589,1.244,1.244,0,0,0-.8,2.319c3.918,2.689,7.777,4.993,11.892,7.449a30.573,30.573,0,0,1,5.854,3.94,25.145,25.145,0,0,0,3.56,3.443,1.633,1.633,0,0,0,2.06-.248q2.752,5.67,5.29,11.453c-6.349-4.729-13.462-9.832-21.045-11.675-1.588-.385-3.022,1.913-1.563,3.014,5.426,4.1,11.766,6.929,17.349,10.95,3.157,2.276,6.778,4.607,9.4,7.625,1.63,4.1,3.156,8.249,4.611,12.427-.672-.613-1.336-1.2-1.977-1.744-5.838-5-13.481-10.833-20.726-13.032-1.936-.588-3.06,1.925-1.8,3.3,5.169,5.651,12.894,8.644,18.705,13.709,3,2.615,6.14,5.453,8.212,8.986.992,1.693,1.833,3.422,2.774,5.1q2.382,8.339,4.266,16.857a51.255,51.255,0,0,0-4.777-4.88c-4.781-4.326-11-10.737-17.754-9.721a1.778,1.778,0,0,0-.486,3.195,60.767,60.767,0,0,1,15.737,11.754,39.771,39.771,0,0,1,6.666,8.953c1.09,2.134,1.712,3.776,3.4,5.421.042.04.095.07.142.107q1.577,9.323,2.523,18.815a43.8,43.8,0,0,0-3.705-4.828c-3.624-4.144-11.541-13.262-17.406-11.278a1.811,1.811,0,0,0-.608,3.213c5.5,3.882,11.105,7.681,15.254,13.287,3.5,4.742,4.649,10.446,7.647,15.292q.269,5.865.3,11.731a78.209,78.209,0,0,0-3.727-7.159,43.786,43.786,0,0,0-6.6-8.947c-2.593-2.593-6.512-4.792-8.468-7.85-1.041-1.624-3.345-.148-3.1,1.5.836,5.736,8.358,9.832,11.576,14.582a53.162,53.162,0,0,1,6.445,12.413c1.148,3.336,1.645,6.865,3.187,10.021a2.091,2.091,0,0,0,.416.576c-.231,5.573-.583,11.138-1.1,16.683-2.765-10.589-10.747-21.069-18.725-23.9-.864-.309-2.044.592-1.5,1.582,3.283,6.031,9.185,10.011,12.082,16.546,2.866,6.484,2.811,13.321,4.921,19.9a1.636,1.636,0,0,0,1.42,1.116c-.188,1.332-.371,2.664-.573,3.993-3.735-7.326-10.519-13.507-16.259-17.439a1.472,1.472,0,0,0-2.248,1.717c1.351,5.352,7.132,8.22,10.091,12.751,3.093,4.74,4.322,9.984,6.356,15.069q-1.03,5.434-2.231,10.827c-.252,1.133-.526,2.261-.788,3.391a51.1,51.1,0,0,0-12.448-19.954c-1.557-1.447-4.486.444-3.49,2.513,2.415,5.033,6.2,9.263,8.38,14.5,2.172,5.219,2.037,11.174,4.235,16.218q-3.265,12.154-7.285,24.018c-4.244,12.452-9.784,24.465-14.075,36.755C724.211,577.822,728.963,580.031,730.586,577.049Z"/><path class="cls-2" d="M148.373,577.049c-6.723-12.388-11.321-26.4-15.728-39.94-3.661-11.238-6.88-22.676-9.548-34.284-3.35-1.482-5.692-5.368-8.729-7.547-4.208-3.016-9.053-4.463-13.265-7.355-1.133-.779-.845-3.166.633-3.254,5.436-.319,11.138,2.878,15.494,6.156,1.171.881,2.573,1.884,3.916,3.01q-1.5-7.4-2.709-14.889c-3.47-3.914-7.051-7.552-11.609-10.268-5.2-3.1-10.658-4.656-16.149-6.962-2.169-.912-1.2-4.171.933-4.11,8.723.249,18.219,5.092,25.4,11.708-.712-5.271-1.33-10.56-1.806-15.869-5.663-2.3-10.769-8.084-15.517-11.988-3.222-2.64-6.288-4.886-10.439-5.25a2.115,2.115,0,0,1-1.558-1.1l.028,0a2.765,2.765,0,0,1-.357-.959,2.38,2.38,0,0,1,1.9-2.715c5.331-.064,9.236,2.475,13.387,5.9,3.658,3.023,8.482,6.127,12.071,9.823-.4-5.621-.676-11.255-.794-16.894-3.238-4.009-5.262-8.842-9.323-12.477-4.263-3.807-9.41-8.441-14.8-10.174-1.965-.627-2.34-4.439.148-4.372,6.364.181,13.279,5.951,17.929,10.252a63.473,63.473,0,0,1,6,6.193c.039-3.244.116-6.489.254-9.731.075-1.757.2-3.519.307-5.277-1.681-2.371-2.6-5.282-4.219-7.761a43.7,43.7,0,0,0-5.687-7.318c-3.513-3.473-8.048-5.835-11.15-9.739a1.134,1.134,0,0,1,.777-1.716c6.049-.153,12.028,5.352,15.85,9.873a67.029,67.029,0,0,1,5.19,6.789q1.163-12.351,3.372-24.629a1.445,1.445,0,0,1-.951-.551c-1.423-1.95-1.66-4.414-2.579-6.661a34.628,34.628,0,0,0-3.553-6.677c-2.3-3.284-6.518-10.219-10.635-10.962-2.4-.422-1.98-4.776.474-4.651,5.674.3,10.4,7.164,13.493,11.682,1.792,2.635,4.19,6.381,5.242,10.14.63-3.024,1.3-6.039,2.025-9.04-1.658-5.967-1.657-12.318-4.058-18.265a70.072,70.072,0,0,0-12.223-19.567c-1.518-1.771.832-4.135,2.49-2.64a51.011,51.011,0,0,1,13.129,19,83.12,83.12,0,0,1,3.556,10.517q2.537-8.88,5.65-17.546c-.885-2.211-1-4.693-2.367-6.754a80.431,80.431,0,0,1-4.237-7.961c-2.775-5.428-5.843-10.584-9.1-15.728-1.572-2.489,2.347-5.516,4.056-3.156a82.463,82.463,0,0,1,9.825,18.116c1.235,3.1,1.314,6.333,2.355,9.4.285.839.569,1.62.832,2.392q3.331-8.847,7.255-17.392a1.849,1.849,0,0,1-1.219-1.506c-1.072-5.678-1.386-11.269-3.5-16.726a69.051,69.051,0,0,0-8.2-14.884c-1.542-2.2,1.243-4.865,3.076-2.907,6.821,7.3,12.4,18.9,12.932,29.629q2.721-5.49,5.691-10.814A1.618,1.618,0,0,1,146.448,285c-.19-5.6.577-11.336-.217-16.916-.789-5.548-2.544-10.592-4.27-15.887-.742-2.283,2.139-3.813,3.27-1.673,5.691,10.718,5.35,21.2,4.522,33.028,3.116-5.389,6.455-10.612,9.954-15.69-.7-4.328,1.143-9.313,1.354-13.719.263-5.533-.5-11.049-.023-16.59a1.289,1.289,0,0,1,2.454-.452c2.319,5.3,2.472,11.6,2.093,17.351-.12,1.8-.19,3.809-.4,5.812.967-1.286,1.92-2.582,2.912-3.844,2.145-5.279,5.584-10.155,8.339-15.009,2.515-4.444,4.829-10.78,8.289-14.43a2.029,2.029,0,0,1,2.313-.665l.418.173a2.728,2.728,0,0,1,1.472,3.5c-2.293,5.838-6.173,11.446-9.313,16.88-2.907,5.023-5.5,10.454-9.594,14.62.574-.352,1.163-.7,1.761-1.092,2.2-1.43,4.375-2.9,6.468-4.484,2.437-1.847,6.17-6.451,9.429-5.238,3.709,1.362-4.667,7.426-5.351,7.971-3.772,2.839-9.563,8.484-14.474,8.392a1.343,1.343,0,0,1-1.3-1.052q-5.847,9.5-11.074,19.382c.552-.349,1.088-.674,1.577-.967a58.219,58.219,0,0,1,8.695-4.564,31.986,31.986,0,0,1,7.34-1.589,1.244,1.244,0,0,1,.8,2.319c-3.918,2.689-7.777,4.993-11.892,7.449a30.6,30.6,0,0,0-5.854,3.94,25.092,25.092,0,0,1-3.56,3.443,1.633,1.633,0,0,1-2.06-.248q-2.751,5.67-5.289,11.453c6.349-4.729,13.462-9.832,21.044-11.675,1.588-.385,3.022,1.913,1.564,3.014-5.427,4.1-11.766,6.929-17.349,10.95-3.158,2.276-6.779,4.607-9.4,7.625-1.629,4.1-3.155,8.249-4.611,12.427.672-.613,1.337-1.2,1.977-1.744,5.838-5,13.482-10.833,20.726-13.032,1.937-.588,3.06,1.925,1.8,3.3-5.168,5.651-12.893,8.644-18.705,13.709-3,2.615-6.14,5.453-8.211,8.986-.993,1.693-1.834,3.422-2.774,5.1q-2.383,8.339-4.267,16.857a51.255,51.255,0,0,1,4.777-4.88c4.781-4.326,11-10.737,17.755-9.721a1.778,1.778,0,0,1,.485,3.195,60.8,60.8,0,0,0-15.737,11.754,39.737,39.737,0,0,0-6.665,8.953c-1.091,2.134-1.713,3.776-3.4,5.421-.042.04-.095.07-.141.107q-1.577,9.323-2.524,18.815a43.919,43.919,0,0,1,3.7-4.828c3.625-4.144,11.542-13.262,17.406-11.278a1.811,1.811,0,0,1,.608,3.213c-5.5,3.882-11.1,7.681-15.253,13.287-3.506,4.742-4.65,10.446-7.648,15.292q-.269,5.865-.3,11.731a77.959,77.959,0,0,1,3.728-7.159,43.744,43.744,0,0,1,6.6-8.947c2.593-2.593,6.513-4.792,8.468-7.85,1.042-1.624,3.345-.148,3.1,1.5-.836,5.736-8.357,9.832-11.576,14.582a53.162,53.162,0,0,0-6.445,12.413c-1.148,3.336-1.644,6.865-3.186,10.021a2.112,2.112,0,0,1-.416.576c.23,5.573.582,11.138,1.1,16.683,2.765-10.589,10.748-21.069,18.725-23.9.864-.309,2.045.592,1.5,1.582-3.282,6.031-9.185,10.011-12.082,16.546-2.866,6.484-2.811,13.321-4.92,19.9a1.637,1.637,0,0,1-1.42,1.116c.187,1.332.37,2.664.573,3.993,3.735-7.326,10.518-13.507,16.258-17.439a1.472,1.472,0,0,1,2.248,1.717c-1.351,5.352-7.132,8.22-10.091,12.751-3.093,4.74-4.322,9.984-6.356,15.069q1.03,5.434,2.231,10.827c.253,1.133.526,2.261.788,3.391a51.111,51.111,0,0,1,12.448-19.954c1.557-1.447,4.486.444,3.49,2.513-2.415,5.033-6.2,9.263-8.38,14.5-2.172,5.219-2.037,11.174-4.235,16.218q3.266,12.154,7.285,24.018c4.245,12.452,9.784,24.465,14.076,36.755C154.748,577.822,150,580.031,148.373,577.049Z"/></svg>