<svg id="Layer_1" data-name="Layer 1" xmlns="http://www.w3.org/2000/svg" viewBox="0 0 864 864"><defs><style>.cls-1{fill:#7d1113;}.cls-2{fill:#607848;}</style></defs><path class="cls-1" d="M379.761,425.725c4.265,0,7.109,2.844,7.109,7.677,0,12.228-5.687,17.63-10.805,17.63-3.7,0-7.394-2.559-9.1-6.54C363.553,436.815,369.809,425.725,379.761,425.725ZM624.854,608.847c-29,5.687-69.1.853-95.257-13.08-20.758,12.227-39.809,24.454-61.42,34.975,26.16,36.112,14.786,108.053-36.681,107.2-45.78-.853-47.771-52.889-11.658-58.576,19.62-2.844,24.454,17.629,1.421,14.786-4.265-.569-9.1-.569-11.374,1.137-15.07,9.953-9.1,35.544,21.611,36.4,46.349.853,54.6-63.979,29.857-97.532-36.966,17.63-80.756,31.278-136.2,30.994-132.223-.853-113.74-98.385,4.265-97.248,44.359.285,108.622,16.777,135.351,57.439,20.758-10.237,38.1-22.179,55.733-34.691-31-16.193-43.927-52.9-46.294-95.883a198.663,198.663,0,0,1-22.226,13.99c16.208,23.886,14.5,65.4-23.6,65.4-23.886,0-42.937-21.326,2.274-60.282-1.53-2.551-8.034-7.665-13.327-15.361-.1.381-.213.772-.313,1.143-3.128,11.374-18.2,45.5-35.828,46.349-10.361.525-17.805-16.315-20.015-34.609-14.168,25-39.018,54.959-55.045,53.945-12.8-1.422-12.227-21.895-8.815-34.406,3.7-13.365,9.384-28.151,10.521-38.388,1.422-9.383-1.706-8.246-9.952-6.824a39.2,39.2,0,0,1-5.46.774,19.78,19.78,0,0,1-.5,3.776c-3.128,13.648-27.013,66.538-42.368,66.538-36.113,0-1.138-94.973-10.521-94.12-20.758,1.99-27.3,61.419-39.241,65.685-9.667,3.127-13.08-6.541-15.923-20.758-.291-1.453-.553-3.195-.8-5.077-8.848,26.638-30.157,71.615-54.068,71.615-46.634,0-63.126-65.969-63.126-101.513,0-52.036,18.767-110.044,65.969-110.044,27.3,0,40.094,17.346,42.653,36.4,2.275.284,4.834.284,7.393.569,2.885.213,5.721.469,8.549.729,7.43-27.172,20.313-48.5,41.484-48.5,15.632,0,12.108,25.192,2.619,53.977,35.072,5.041,66.986,9.9,100.329,4.315,26.16-4.265,44.643-13.365,74.784-52.605,9.383-14.786,22.179.853,12.511,12.511-52.141,67.894-121.6,54.072-189.988,42.695-11.618,32.776-29.44,67.927-34.946,75.026-.568,3.7-1.137,31.563,4.55,27.582,2.843-1.99,14.217-63.694,40.093-64.831,44.643-2.275-3.412,92.982,11.943,92.982,3.981,0,11.09-7.393,18.2-22.179,4.265-9.384,8.53-23.6,12.227-33.838.178-.512.362-.95.545-1.4-23.192-5.36-12.252-46.54,4.276-45.8,9.383.284,14.5,10.237,14.217,18.767-.284,7.109-4.265,15.071-9.1,20.758,10.521-1.138,39.525-17.346,36.681,2.843-1.99,15.071-27.866,67.107-16.208,67.96,14.329.882,35.658-27.628,45.849-49.234-.21-18.026,5.07-34.649,18.122-34.649,18.482,0-5.4,67.675,8.815,67.675,9.952,0,19.9-29.857,22.748-39.525.619-2.168,1.277-4.365,1.957-6.281a34.779,34.779,0,0,1-1.966-9.074c-1.422-18.767,9.1-36.112,30.426-36.112,9.952,0,17.629,6.54,14.5,16.492-2.275,7.393-7.394,9.668-11.659,9.668s-7.962-2.275-7.677-5.118c.568-4.266,7.393-3.128,7.961-8.246.569-3.981-2.274-5.4-5.687-5.4-5.4,0-9.667,3.412-11.089,9.1-3.7,15.639,11.943,34.406,20.473,42.937.284.569,7.678-2.843,14.786-7.393a91.8,91.8,0,0,0,11.09-8.531c.2-.235.389-.459.585-.69-.165-7.14-.08-14.411.259-21.773.854-19.336,3.128-36.966,6.825-48.056-7.393.854-40.094,4.266-40.094-6.255,0-1.706,1.991-4.834,3.981-4.834.853,0,1.138.569,1.991.569,12.8,4.265,22.464,4.549,35.828,2.559,2.559-10.806,12.511-45.212,26.445-45.212,2.559,0,7.677-.284,7.677,2.559,0,5.4-13.08,29.857-15.355,39.24,21.326-3.98,42.368-4.834,63.979-3.7,6.256.284,14.786,3.7,14.5,9.383-.284,6.256-8.815,7.962-12.227,3.413a8.716,8.716,0,0,0-5.972-3.7c-19.9-3.981-44.358-.853-63.978,3.412-3.413,9.384-6.256,28.435-7.678,50.046-2.843,36.681,2.844,101.229,37.819,121.418,25.023-19.336,57.439-32.416,85.874-32.416C660.967,552.83,681.724,597.473,624.854,608.847ZM223.891,411.326q-6.821-1.1-13.609-2.092c-8.129,28.886-13.7,63.775-13.053,67.674C200.413,471.655,214.287,439.138,223.891,411.326ZM212.2,402.7q7.082.9,13.959,1.882c6.2-18.882,9.675-34.142,5.192-34.591C224.678,369.336,217.924,384.018,212.2,402.7ZM158,405.252c-34.975,2.843-27.582,36.965-15.64,40.093,7.394,1.706,18.2-9.383,15.924-36.681A13.859,13.859,0,0,1,158,405.252Zm23.882,82.933c-1-21.868.422-53.995,6.95-81.6-4.614-.448-9.21-.821-13.771-1.05.284,15.639-9.384,46.349-28.151,47.487-30.141,1.99-59.714-45.5,9.952-53.458-2.559-14.218-8.815-26.729-18.2-26.729-34.975,0-46.634,80.755-46.634,104.925,0,33.838,11.659,82.462,39.809,82.462C155.577,560.223,171.726,510.586,181.884,488.185Zm111.727-31.466c-3.98-21.61-20.757,20.189-7.108,23.317C291.052,475.2,294.749,463.259,293.611,456.719Zm142.443,63.41c-30.994,21.895-23.6,46.35-11.374,46.35C442.878,566.479,448.565,534.916,436.054,520.129Zm21.033,108.907c-29.288-33.269-85.3-42.084-127.1-42.653-106.063-1.137-126.82,71.372-4.834,72.509C378.891,659.177,421.259,646.1,457.087,629.036ZM614.618,564.2c-25.592,0-51.468,11.374-76.491,26.729,24.739,12.227,58.292,16.776,85.305,11.658C669.5,593.492,658.408,564.2,614.618,564.2Zm178.258-55.449c16.208,23.886,14.5,65.4-23.6,65.4-23.886,0-42.937-21.326,2.274-60.282-1.523-2.54-7.975-7.619-13.255-15.257-5.591,17.479-19.079,48.241-34.223,48.241-24.169,0-17.061-55.448-16.776-69.95-7.109,19.052-15.64,48.908-40.662,48.908-13.268,0-19.414-8.021-21.78-17.981-6.511,12.013-14.044,23.974-14.885,25.375-17.629,26.16-28.719,29-28.719-7.962,0-5.687,4.834-54.88.853-54.88-4.55,0-17.63,30.994-19.052,34.975-.853,2.275-4.549,13.649-5.4,14.786-1.422,1.991-2.559,3.128-4.834,3.128-6.54,0-8.531-9.668-8.815-14.5-.569-8.53-1.99-70.234-9.668-70.234-17.914,0-19.9,75.353-23.032,87.58-2.844,10.521-5.687,14.786-9.953,14.786-18.482,0-12.227-46.634-12.511-56.3,0-5.119,2.844-5.687,6.54-5.687,3.412,0,5.118,1.137,5.118,4.265.285,4.265-1.421,33.838,1.991,33.838,3.981,0,5.4-95.258,38.956-94.689,32.131.569,13.364,80.471,15.923,80.471,2.844,0,17.061-48.624,31.848-48.624,30.425,0-4.55,82.746,9.668,82.746,3.935,0,17.583-24.432,24.763-38.727-.02-.645-.042-1.291-.042-1.935,0-25.023,14.786-63.41,44.359-63.41,13.364,0,16.208,7.962,19.9,16.492,1.422-5.687,1.138-11.943,9.384-11.943,13.08,0,14.786,9.384,12.227,22.464-1.99,8.531-14.786,76.775-.853,76.775,6.54,0,14.5-17.63,24.454-47.487.029-.085.057-.153.085-.236a34.921,34.921,0,0,1-2.084-9.432c-1.422-18.767,9.1-36.112,30.426-36.112,9.952,0,17.629,6.54,14.5,16.492-2.275,7.393-7.394,9.668-11.659,9.668s-7.962-2.275-7.677-5.118c.568-4.266,7.393-3.128,7.961-8.246.569-3.981-2.274-5.4-5.687-5.4-5.4,0-9.667,3.412-11.089,9.1-3.7,15.639,11.943,34.406,20.473,42.937.284.569,7.678-2.843,14.786-7.393a91.8,91.8,0,0,0,11.09-8.531c3.412-3.981,5.687-7.393,10.237-4.834C830.41,486.292,804.534,502.5,792.876,508.755Zm-100.368-65.4c-20.757,0-35.543,74.784-20.757,74.784,7.677,0,22.748-24.454,28.719-45.212C705.02,457.288,699.617,443.355,692.508,443.355Zm84.444,76.774c-30.994,21.895-23.6,46.35-11.374,46.35C783.776,566.479,789.463,534.916,776.952,520.129Z"/><path class="cls-2" d="M307.276,351.059q-17.4-20.631-36.485-40.348,4.518,15.444,9.034,30.888a23.767,23.767,0,0,0,2.379,5.929,6.393,6.393,0,0,0,3.736,2.528,10.213,10.213,0,0,0,5.665-.12q.679,2.455,1.361,4.911-11.062,3.067-22.04,6.545-.768-2.428-1.539-4.858a9.2,9.2,0,0,0,4.589-3.043,6.291,6.291,0,0,0,1.594-4.184,29.03,29.03,0,0,0-1.371-6.275q-4.737-15.666-9.47-31.333-1.353-4.481-3.555-5.467c-1.466-.655-3.978-.443-7.511.676q-.771-2.429-1.54-4.858,13.413-4.251,26.949-7.943,15.8,16.887,30.429,34.421,5.188-22.275,11.676-44.511,13.731-2.841,27.536-5.121.414,2.514.831,5.029c-.454.074-.906.15-1.358.225-3.42.572-5.544,1.533-6.357,2.842s-.975,3.339-.484,6.08q3.255,18.119,6.508,36.237.762,4.2,2.514,5.589c1.182.927,3.3,1.116,6.4.6l1.44-.239q.416,2.514.829,5.029-17.02,2.8-33.914,6.547-.552-2.488-1.1-4.976l1.247-.275c3.109-.682,5.016-1.664,5.723-2.987s.778-3.343.22-6.07q-3.708-17.916-7.414-35.83-7.418,26.709-12.969,53.48Q309.053,350.611,307.276,351.059ZM400,305.016q.72,7.656,1.437,15.31a19.846,19.846,0,0,0,1.058,5.689A4.525,4.525,0,0,0,405.47,328a20.411,20.411,0,0,0,6.918.323c4.157-.323,7.179-1.027,9.069-2.159a14.168,14.168,0,0,0,4.972-5.63,28.629,28.629,0,0,0,2.987-8.292q2.691-.134,5.379-.245.207,10.214.43,20.428-28.845,1.217-57.56,5.07-.339-2.526-.679-5.051l1.167-.156c3.137-.415,5.111-1.232,5.925-2.491s1.057-3.265.723-6.029q-2.2-18.324-4.409-36.646-.507-4.237-2.3-5.708c-1.2-.979-3.461-1.264-6.794-.823l-1.263.169q-.333-2.481-.667-4.961,29.349-3.945,58.886-5.372.9,8.023,1.779,16.048-2.8.132-5.589.286a25.178,25.178,0,0,0-3.751-6.522,8.8,8.8,0,0,0-3.959-2.969,19.714,19.714,0,0,0-6.458-.258q-6.4.48-12.8,1.081,1,10.695,2.007,21.39,3.087-.29,6.176-.551c2.944-.248,4.855-.915,5.747-2.025s1.28-3.2,1.195-6.258q2.805-.206,5.612-.387.684,10.536,1.365,21.071-2.718.176-5.437.375c0-.4,0-.689-.013-.873a9.745,9.745,0,0,0-1.538-4.72c-.9-1.373-2.99-1.941-6.266-1.666Q403.163,304.72,400,305.016Zm81.179-.316q-.213,7.365-.431,14.73-.126,4.267,1.331,5.987c.966,1.149,2.994,1.772,6.089,1.9l1.124.047-.219,5.092q-17-.732-34.014-.55-.029-2.548-.055-5.1l1.262-.013c3.192-.026,5.262-.6,6.219-1.745s1.444-3.11,1.454-5.895q.06-18.408.12-36.816c.006-2.846-.516-4.831-1.6-5.95s-3.307-1.678-6.652-1.649l-1.365.013q-.029-2.548-.055-5.1,13.908-.171,27.81.213,3.118.069,6.237.166a100.579,100.579,0,0,1,13.473,1.2,24.987,24.987,0,0,1,8.206,3.17,15.985,15.985,0,0,1,6.022,6.179,14,14,0,0,1,1.7,7.97c-.624,7.39-5.533,12.02-14.594,14.171,2.275,1.555,5.689,6.193,10,13.964,3.365,6.01,5.71,9.689,7.2,11.009a8.787,8.787,0,0,0,5.072,2.263q-.255,2.535-.509,5.07-9.825-.985-19.674-1.665c-1.658-2.23-4.608-7.8-9.141-16.655a73.163,73.163,0,0,0-4.912-8.653,7.023,7.023,0,0,0-3.071-2.54A28.3,28.3,0,0,0,481.182,304.7Zm.165-5.6c5.507.225,9.241.082,11.2-.519A8.8,8.8,0,0,0,497.3,295.1a13.782,13.782,0,0,0,2.078-7.175c.24-4.368-.706-7.459-2.9-9.256-2.18-1.8-6.076-2.828-11.654-3.017-.7-.023-1.647-.038-2.786-.041Q481.69,287.353,481.347,299.1Zm88.934,14.29q-1.212,7.267-2.423,14.535-.7,4.212.513,6.113c.8,1.27,2.739,2.163,5.791,2.709l1.11.2q-.453,2.508-.907,5.015-16.788-3.038-33.693-5.161l.636-5.056,1.254.158c3.163.406,5.3.122,6.4-.886s1.849-2.886,2.242-5.644q2.55-18.23,5.1-36.461.6-4.227-.779-6.111c-.923-1.253-3.045-2.111-6.376-2.536l-1.356-.172q.317-2.527.635-5.056,13.817,1.713,27.575,3.983,3.088.492,6.173,1.011a101.333,101.333,0,0,1,13.228,3.021,25.165,25.165,0,0,1,7.73,4.259,16.037,16.037,0,0,1,5.152,6.944,13.97,13.97,0,0,1,.613,8.129c-1.617,7.236-7.139,11.152-16.433,12.051,2.054,1.85,4.819,6.912,8.06,15.2,2.525,6.413,4.375,10.379,5.677,11.891a8.843,8.843,0,0,0,4.742,2.936q-.6,2.478-1.192,4.955-9.648-2.322-19.349-4.338c-1.348-2.435-3.531-8.356-6.834-17.746a72.4,72.4,0,0,0-3.711-9.241,7.034,7.034,0,0,0-2.707-2.935A28.353,28.353,0,0,0,570.281,313.391Zm.921-5.526c5.441.971,9.165,1.338,11.2,1.009a8.851,8.851,0,0,0,5.2-2.808,13.7,13.7,0,0,0,3.037-6.826q1.257-6.441-1.633-9.566c-1.928-2.076-5.652-3.629-11.171-4.573-.7-.12-1.624-.261-2.762-.42Q573.137,296.273,571.2,307.865Zm77.032,25.445q-3.824-13.337-8.193-26.652c-1.381-4.18-2.637-6.877-3.724-8.1a9.5,9.5,0,0,0-4.9-2.664l1.254-4.94q16.954,4.3,33.731,9.475-.751,2.434-1.5,4.87c-3.591-1.106-5.657-.772-6.168.958-.293.965-.063,2.646.658,5.038q2.937,9.714,5.586,19.438,7.188-5.891,14.584-11.633a8.228,8.228,0,0,0,3-3.78c.88-2.574-.8-4.6-5.063-6q.8-2.42,1.6-4.841,11.412,3.761,22.722,7.925l-1.761,4.782a8.964,8.964,0,0,0-6.372.031c-2.148.788-5.571,2.87-10.174,6.3q-9.258,6.9-18.2,14.035-2.133,6.571-4.269,13.144-1.314,4.059-.41,6.118c.6,1.372,2.388,2.544,5.354,3.547l.941.32q-.819,2.412-1.64,4.825-16.2-5.508-32.624-10.116.69-2.454,1.378-4.907l1,.282c3.091.874,5.254.913,6.506.082s2.268-2.577,3.06-5.248Q646.42,339.452,648.234,333.31Z"/></svg>