<svg id="Layer_1" data-name="Layer 1" xmlns="http://www.w3.org/2000/svg" viewBox="0 0 864 864"><defs><style>.cls-1{fill:#7d1113;}.cls-2{fill:#fff;}</style></defs><circle class="cls-1" cx="431.361" cy="432.571" r="426.152"/><path class="cls-2" d="M768.913,664a67.4,67.4,0,0,1-9.73-6.094c-2.057-1.594-4.15-3.158-6.07-4.908a61.048,61.048,0,0,1-4.243-4.623,2.314,2.314,0,0,1-.284-.7,2.645,2.645,0,0,1,1.289.645c3.147,2.914,6.276,5.849,9.424,8.763a18.114,18.114,0,0,0,5.142,3.29c3.145,1.37,6.884-.354,7.164-3.624a4.755,4.755,0,0,1,.344-.981c.531.2.988.393,1.457.546a14.564,14.564,0,0,0,2.194.651,4.6,4.6,0,0,0,5.36-4.506c-.017-.664-.087-1.326-.09-1.989a5.681,5.681,0,0,1,.141-.939,1.469,1.469,0,0,1,.421-.056c.392.112.778.242,1.165.369a32,32,0,0,0,9.716,2.011,6.129,6.129,0,0,0,3.774-1.051,5.318,5.318,0,0,0,1.579-6.972,11.16,11.16,0,0,0-4.456-5.141c-3.373-1.911-6.847-3.644-10.287-5.435-.86-.448-1.751-.838-2.632-1.244-4.128-1.9-8.233-3.856-12.4-5.674-2.2-.958-4.514-1.632-6.746-2.512-3.23-1.272-6.484-2.5-9.632-3.959s-6.181-3.165-9.257-4.778a16.167,16.167,0,0,1-1.369-.947l2.491-.769a27.945,27.945,0,0,0,3.06-.96,4.621,4.621,0,0,0,3.131-4.478,4.762,4.762,0,0,0-3.309-4.521,38.929,38.929,0,0,0-4.453-1.134A28.793,28.793,0,0,1,727,594.124a11.764,11.764,0,0,1-.946-1.216c1.658-1.305,3.265-2.389,4.65-3.708,1.555-1.481,1.62-3.535,1.406-5.644a9.7,9.7,0,0,1,1.067.133c2.078.535,4.141,1.127,6.228,1.618a16.267,16.267,0,0,0,7.6.061c3.387-.819,5.375-3.434,4.8-6.586a8.382,8.382,0,0,1-.011-1.416c.5-.086.886-.171,1.282-.22,1.268-.155,2.543-.261,3.806-.451a9.561,9.561,0,0,0,5.751-2.955,5.723,5.723,0,0,0-2.991-9.667c-2.135-.493-4.325-.765-6.5-1.074-5.261-.748-10.528-1.453-15.789-2.194a12.343,12.343,0,0,1-1.536-.418,1.432,1.432,0,0,1,.948-.62,16.518,16.518,0,0,0,5.007-1.838,5.932,5.932,0,0,0,.9-10.159,35.285,35.285,0,0,0-6.948-4.17c-3.557-1.554-7.051-3.251-10.555-4.924-.8-.384-1.535-.919-2.5-1.5.547-.288.833-.472,1.142-.6,3.162-1.277,4.255-3.722,3.086-6.906-.187-.511-.34-1.034-.5-1.536,1.043-.522,1.959-.95,2.847-1.429a6.376,6.376,0,0,0,3.491-6.192c-.105-3.778-2.188-6.449-5.3-8.261a74.642,74.642,0,0,0-7.049-3.36c-2.748-1.234-5.538-2.373-8.289-3.6a15.328,15.328,0,0,1-5.957-4.935c-.336-.443-.891-.889-.486-1.661.38.108.727.175,1.05.3a119.061,119.061,0,0,0,13.157,4.109,15.714,15.714,0,0,0,8.772.083,6.184,6.184,0,0,0,4.116-8.713,11.884,11.884,0,0,0-3.134-4.109,25.743,25.743,0,0,0-8.223-4.656c-.494-.186-.986-.382-1.583-.613.439-.6.723-1.018,1.04-1.413a5.2,5.2,0,0,0,.907-5.328A9.721,9.721,0,0,0,718.5,474a27.583,27.583,0,0,0-7.764-3.93,25.534,25.534,0,0,1-7.146-3.45c-.686-.528-1.46-.942-2.169-1.442a11.628,11.628,0,0,1-3.063-2.655c.76-.038,1.295-.073,1.831-.09,2.043-.064,4.1-.015,6.124-.224a9.765,9.765,0,0,0,3.32-1.04,4.739,4.739,0,0,0,2.645-5.223,5.841,5.841,0,0,0-1.791-3.471,14.543,14.543,0,0,0-5.606-3.36c-2.6-.921-5.217-1.816-7.756-2.89a12.613,12.613,0,0,1-3.448-2.2c-1.061-.953-.683-1.972.713-2.307,1.24-.3,2.524-.434,3.744-.793a20.361,20.361,0,0,0,3.979-1.5,4.071,4.071,0,0,0,2.085-3.988,6.39,6.39,0,0,0-2.043-4.161c-.62-.678-1.312-1.3-1.876-2.018a65.514,65.514,0,0,1-7.28-11.51,80.607,80.607,0,0,1-5.052-11.817,73.557,73.557,0,0,1-2.614-10.848c-.488-3.33-.707-6.7-.968-10.062a5.267,5.267,0,0,0-.975-3.007,17.5,17.5,0,0,0-2.191-2.352,3.772,3.772,0,0,0-6.069,1.439,6.207,6.207,0,0,0-.4,1.927c-.142,2.039-.191,4.085-.338,6.123a59.864,59.864,0,0,1-2.073,12.063,79,79,0,0,1-4.437,11.892,72.2,72.2,0,0,1-8.557,14.471c-.95,1.2-2.028,2.3-2.91,3.549a4.5,4.5,0,0,0,.907,6.3,8.677,8.677,0,0,0,4.461,1.868c1.265.164,2.528.373,3.777.634s1.575,1.1.826,2.117a3.582,3.582,0,0,1-1.1,1.051,38.382,38.382,0,0,1-4.78,2.367,48.51,48.51,0,0,0-8.478,3.521,9.392,9.392,0,0,0-3.759,3.721,4.905,4.905,0,0,0,1.887,6.653,9.075,9.075,0,0,0,3.458,1.1c2.336.19,4.7.1,7.045.13.424.006.848.048,1.381.081-.175.3-.218.471-.327.554-3.163,2.422-6.263,4.945-10.02,6.448q-2.916,1.166-5.822,2.355a16.217,16.217,0,0,0-5.458,3.886c-2.23,2.308-3.051,6.291-.229,9.1a5.091,5.091,0,0,1,.49.742c-.848.331-1.62.585-2.351.927a36.6,36.6,0,0,0-4.651,2.309,15.14,15.14,0,0,0-5.773,6,6.206,6.206,0,0,0,2.167,7.968,9.667,9.667,0,0,0,4.918,1.507,20.684,20.684,0,0,0,7.965-1.328c1.642-.564,3.289-1.113,4.936-1.661,1.888-.629,3.78-1.248,5.669-1.876.459-.153.912-.327,1.506-.541a3.552,3.552,0,0,1-1.25,2.71,18.383,18.383,0,0,1-5.574,4.258c-3.535,1.607-7.1,3.14-10.673,4.669a21.916,21.916,0,0,0-5.892,3.53,9.633,9.633,0,0,0-3.4,5.675c-.733,4.334,1.931,7.168,5.178,8.329.417.149.841.278,1.225.4a37.856,37.856,0,0,0-.838,3.815,3.6,3.6,0,0,0,1.4,3.4,26.793,26.793,0,0,0,3.3,1.82c-.051.072-.108.235-.22.3-2.563,1.38-5.111,2.791-7.706,4.109-2.823,1.433-5.74,2.687-8.518,4.2a19.19,19.19,0,0,0-4.041,3.009c-2.7,2.592-2.444,6.314.435,8.694a12.323,12.323,0,0,0,5.722,2.417c.617.119,1.227.272,1.84.41,0,.125,0,.251-.007.376a22.448,22.448,0,0,1-2.3.588c-4.447.668-8.906,1.26-13.349,1.958-2.926.46-5.856.945-8.737,1.619a5.33,5.33,0,0,0-4.352,5.694,6.026,6.026,0,0,0,2.789,4.715,10.991,10.991,0,0,0,5.364,2.085c1.464.148,2.922.365,4.524.569-.035.663-.034,1.21-.1,1.749a4.543,4.543,0,0,0,1.015,3.588,6.7,6.7,0,0,0,4.621,2.737c1.118.088,2.241.2,3.359.185a24.937,24.937,0,0,0,8.336-1.873,4.68,4.68,0,0,1,2.4-.569c.091.133.144.175.144.216a3.964,3.964,0,0,1-.032.607,5.679,5.679,0,0,0,1.673,5.044,13.9,13.9,0,0,0,2.141,1.7c.742.513,1.545.937,2.5,1.51a15.771,15.771,0,0,1-1.352,1.8,28.988,28.988,0,0,1-13.66,7.812,45.743,45.743,0,0,0-5.717,1.726,4.573,4.573,0,0,0-.982,7.8,11.816,11.816,0,0,0,4.475,1.885,3.983,3.983,0,0,1,2.336.864,9.648,9.648,0,0,1-1.035.784,125.947,125.947,0,0,1-12.417,6.338c-1.837.764-3.668,1.545-5.509,2.3-4.676,1.921-9.388,3.76-14.024,5.772-2.808,1.219-5.532,2.644-8.241,4.075-3.61,1.906-7.395,3.482-10.736,5.905a12.075,12.075,0,0,0-4.283,5.459,5.311,5.311,0,0,0,3.567,7.376,8.57,8.57,0,0,0,4.7-.006c2.423-.617,4.807-1.389,7.208-2.093.422-.123.848-.233,1.4-.384,0,1.186-.047,2.192.009,3.192a4.427,4.427,0,0,0,4.122,4.381,7.609,7.609,0,0,0,3.724-.685c.406-.152.82-.28,1.322-.45.179.6.3,1.032.437,1.462a4.721,4.721,0,0,0,2.082,2.736,5.289,5.289,0,0,0,4.866.236,10.011,10.011,0,0,0,3.022-1.763c3.009-2.606,5.937-5.307,8.877-7.993a31.8,31.8,0,0,1,3.884-3.357c-1.147,2.593-3.564,4.821-6.1,7.077a75.782,75.782,0,0,1-14.11,9.71,99.336,99.336,0,0,1-19.353,8.428q-5.508,1.637-11.014,3.282a12.281,12.281,0,0,0-4.245,2.072,5.128,5.128,0,0,0-1.974,4.435c.066,2.214,1.413,3.506,3.128,4.589,2.279,1.439,4.888,1.784,7.452,2.114a62.176,62.176,0,0,0,15.452.067,79.976,79.976,0,0,0,14.014-3.24,93.617,93.617,0,0,0,14.661-5.8c2.14-1.084,4.187-2.349,6.287-3.513a5.792,5.792,0,0,1,.988-.343l.189.341c-1.3,1.205-2.582,2.432-3.905,3.612a81.717,81.717,0,0,1-13.5,10.3c-3.141,1.8-6.393,3.431-9.69,4.928a40.173,40.173,0,0,1-9.006,2.969c-2.759.531-5.471,1.3-8.229,1.831a13.776,13.776,0,0,0-7.856,4.452,10.068,10.068,0,0,1-4.75,2.957c-2.007.6-4.053,1.063-6.069,1.633-2.308.652-4.628,1.279-6.893,2.059a11.088,11.088,0,0,0-5.233,3.876,20.193,20.193,0,0,0-3.832,9.887,4.671,4.671,0,0,0,1.649,4.249,5.239,5.239,0,0,0,5.133,1.208c3.249-.9,6.462-1.924,9.693-2.887,2.887-.86,5.751-1.818,8.675-2.531a27.382,27.382,0,0,1,9.3-.361,66.951,66.951,0,0,0,19.7-.821c.868-.171,1.758-.234,2.638-.347l.169.34a8.731,8.731,0,0,1-.9,1.126c-1.822,1.64-3.64,3.286-5.514,4.866a175.128,175.128,0,0,1-21.707,15.189c-1.118.684-2.245,1.355-3.373,2.024-.376-.194-.753-.388-1.128-.583-.731-.381-1.487-.712-2.236-1.056-3.506-1.615-6.993-3.276-10.53-4.82-1.865-.814-3.834-1.387-5.73-2.134-2.744-1.081-5.508-2.126-8.182-3.363s-5.25-2.689-7.863-4.058a13.874,13.874,0,0,1-1.163-.8l2.116-.653a23.781,23.781,0,0,0,2.6-.816,3.925,3.925,0,0,0,2.659-3.8,4.047,4.047,0,0,0-2.811-3.841,33.251,33.251,0,0,0-3.782-.963,24.455,24.455,0,0,1-12.581-6.932,9.812,9.812,0,0,1-.8-1.033c1.407-1.108,2.773-2.029,3.949-3.15,1.321-1.258,1.376-3,1.194-4.794a8.164,8.164,0,0,1,.907.114c1.764.454,3.517.956,5.29,1.374a13.809,13.809,0,0,0,6.458.051c2.876-.695,4.565-2.916,4.078-5.594a7.124,7.124,0,0,1-.009-1.2c.421-.074.753-.146,1.088-.187,1.078-.132,2.161-.222,3.234-.384a8.126,8.126,0,0,0,4.885-2.509,4.862,4.862,0,0,0-2.541-8.212c-1.814-.419-3.674-.65-5.52-.912-4.469-.635-8.943-1.234-13.412-1.864a10.339,10.339,0,0,1-1.3-.355,1.223,1.223,0,0,1,.806-.527,13.986,13.986,0,0,0,4.253-1.561,5.038,5.038,0,0,0,.761-8.629,29.932,29.932,0,0,0-5.9-3.542c-3.021-1.32-5.99-2.761-8.966-4.183-.682-.325-1.3-.78-2.12-1.277.464-.245.707-.4.969-.507,2.686-1.084,3.615-3.162,2.622-5.866-.16-.434-.289-.878-.429-1.3.886-.443,1.664-.807,2.419-1.214a5.414,5.414,0,0,0,2.965-5.259,8.164,8.164,0,0,0-4.5-7.017,63.282,63.282,0,0,0-5.987-2.854c-2.335-1.048-4.7-2.016-7.042-3.059a13.039,13.039,0,0,1-5.06-4.192c-.285-.376-.756-.755-.412-1.411.322.092.617.149.892.258a100.9,100.9,0,0,0,11.176,3.49,13.341,13.341,0,0,0,7.451.071,5.254,5.254,0,0,0,3.5-7.4,10.1,10.1,0,0,0-2.662-3.49,21.876,21.876,0,0,0-6.985-3.955c-.42-.158-.837-.324-1.345-.521.373-.508.615-.865.883-1.2a4.413,4.413,0,0,0,.771-4.526,8.264,8.264,0,0,0-2.764-3.7,23.472,23.472,0,0,0-6.6-3.339,21.693,21.693,0,0,1-6.07-2.929c-.583-.449-1.24-.8-1.843-1.226a9.842,9.842,0,0,1-2.6-2.255c.646-.032,1.1-.062,1.556-.076,1.735-.054,3.479-.013,5.2-.191a8.283,8.283,0,0,0,2.821-.883,4.027,4.027,0,0,0,2.247-4.437,4.967,4.967,0,0,0-1.523-2.948,12.35,12.35,0,0,0-4.761-2.854c-2.209-.782-4.431-1.542-6.588-2.455a10.7,10.7,0,0,1-2.929-1.872c-.9-.809-.58-1.675.606-1.96,1.053-.253,2.144-.368,3.18-.673a17.3,17.3,0,0,0,3.38-1.277,3.458,3.458,0,0,0,1.771-3.387,5.432,5.432,0,0,0-1.735-3.535c-.527-.575-1.115-1.1-1.594-1.713a55.7,55.7,0,0,1-6.184-9.777,68.557,68.557,0,0,1-4.291-10.038,62.419,62.419,0,0,1-2.22-9.214c-.415-2.829-.6-5.694-.823-8.547a4.475,4.475,0,0,0-.828-2.555,14.8,14.8,0,0,0-1.861-2,3.2,3.2,0,0,0-5.155,1.221,5.271,5.271,0,0,0-.336,1.638c-.121,1.732-.162,3.469-.288,5.2a50.855,50.855,0,0,1-1.76,10.246,67.09,67.09,0,0,1-3.769,10.1,61.363,61.363,0,0,1-7.268,12.293c-.808,1.018-1.723,1.956-2.472,3.014a3.823,3.823,0,0,0,.77,5.352,7.372,7.372,0,0,0,3.789,1.586c1.075.14,2.148.317,3.208.538s1.338.933.7,1.8a3.048,3.048,0,0,1-.933.892,32.652,32.652,0,0,1-4.06,2.011,41.173,41.173,0,0,0-7.2,2.991,7.974,7.974,0,0,0-3.193,3.161,4.166,4.166,0,0,0,1.6,5.651,7.7,7.7,0,0,0,2.937.934c1.985.161,3.989.083,5.984.111.361,0,.721.041,1.173.068-.148.258-.185.4-.277.471-2.688,2.057-5.32,4.2-8.512,5.477q-2.476.99-4.944,2a13.772,13.772,0,0,0-4.637,3.3,5.442,5.442,0,0,0-.194,7.734,4.239,4.239,0,0,1,.416.63c-.721.281-1.376.5-2,.787a31.167,31.167,0,0,0-3.951,1.961,12.865,12.865,0,0,0-4.9,5.1,5.273,5.273,0,0,0,1.841,6.768,8.2,8.2,0,0,0,4.177,1.28,17.559,17.559,0,0,0,6.766-1.128c1.395-.479,2.794-.945,4.193-1.411,1.6-.534,3.211-1.059,4.815-1.593.391-.13.775-.277,1.279-.459a3.014,3.014,0,0,1-1.061,2.3,15.617,15.617,0,0,1-4.735,3.617c-3,1.365-6.034,2.667-9.066,3.966a18.608,18.608,0,0,0-5,3,8.175,8.175,0,0,0-2.889,4.82c-.622,3.681,1.64,6.088,4.4,7.075.354.126.714.236,1.04.343a32.584,32.584,0,0,0-.712,3.24,3.057,3.057,0,0,0,1.19,2.893,22.839,22.839,0,0,0,2.8,1.546c-.044.061-.092.2-.187.251-2.178,1.172-4.341,2.371-6.546,3.49-2.4,1.218-4.876,2.283-7.235,3.568a16.3,16.3,0,0,0-3.433,2.556,4.731,4.731,0,0,0,.37,7.385,10.47,10.47,0,0,0,4.86,2.053c.524.1,1.042.231,1.563.348l-.006.319a19.255,19.255,0,0,1-1.955.5c-3.778.567-7.565,1.07-11.339,1.663-2.485.39-4.974.8-7.422,1.375a4.529,4.529,0,0,0-3.7,4.837,5.124,5.124,0,0,0,2.369,4,9.346,9.346,0,0,0,4.557,1.771c1.244.125,2.482.31,3.843.483-.03.563-.029,1.028-.085,1.486a3.86,3.86,0,0,0,.863,3.048,5.7,5.7,0,0,0,3.925,2.325c.95.074,1.9.173,2.853.157a21.186,21.186,0,0,0,7.081-1.592,3.978,3.978,0,0,1,2.041-.483c.077.113.122.149.122.184a3.533,3.533,0,0,1-.027.515,4.82,4.82,0,0,0,1.421,4.284,11.724,11.724,0,0,0,1.818,1.448c.63.436,1.312.8,2.127,1.283a13.449,13.449,0,0,1-1.148,1.53,24.633,24.633,0,0,1-11.6,6.636,38.784,38.784,0,0,0-4.855,1.465,3.884,3.884,0,0,0-.834,6.627,10.011,10.011,0,0,0,3.8,1.6,3.385,3.385,0,0,1,1.984.733,8.259,8.259,0,0,1-.879.666,106.839,106.839,0,0,1-10.547,5.384c-1.561.65-3.116,1.312-4.68,1.954-3.972,1.631-7.974,3.194-11.912,4.9-2.386,1.035-4.7,2.246-7,3.461-.575.3-1.156.6-1.738.887q-1.192-.586-2.369-1.211a45.645,45.645,0,0,1-6.578-4.12c-1.39-1.078-2.806-2.135-4.1-3.318a41.316,41.316,0,0,1-2.869-3.125,1.57,1.57,0,0,1-.192-.472,1.8,1.8,0,0,1,.871.436c2.128,1.971,4.243,3.955,6.371,5.925a12.281,12.281,0,0,0,3.477,2.224c2.126.926,4.654-.24,4.843-2.45a3.192,3.192,0,0,1,.233-.663c.359.135.667.265.985.369a9.752,9.752,0,0,0,1.483.44,3.109,3.109,0,0,0,3.624-3.047c-.012-.448-.06-.9-.062-1.344a3.758,3.758,0,0,1,.1-.634.939.939,0,0,1,.284-.038c.265.075.527.163.788.249a21.651,21.651,0,0,0,6.569,1.359,4.138,4.138,0,0,0,2.551-.71,3.6,3.6,0,0,0,1.067-4.713,7.546,7.546,0,0,0-3.012-3.476c-2.281-1.292-4.629-2.464-6.955-3.674-.581-.3-1.183-.567-1.779-.841-2.791-1.285-5.566-2.607-8.381-3.836-1.484-.648-3.051-1.1-4.56-1.7-2.184-.861-4.384-1.692-6.512-2.677s-4.179-2.14-6.258-3.23a10.78,10.78,0,0,1-.926-.64l1.685-.52a18.736,18.736,0,0,0,2.068-.649,3.125,3.125,0,0,0,2.117-3.027,3.221,3.221,0,0,0-2.237-3.057,26.7,26.7,0,0,0-3.01-.767,19.458,19.458,0,0,1-10.013-5.517,7.744,7.744,0,0,1-.639-.822c1.12-.882,2.207-1.615,3.143-2.507,1.051-1,1.1-2.389.95-3.815a6.383,6.383,0,0,1,.722.09c1.4.362,2.8.762,4.211,1.094a11,11,0,0,0,5.139.041c2.289-.554,3.633-2.321,3.246-4.453a5.708,5.708,0,0,1-.007-.957c.334-.058.6-.115.866-.148.858-.105,1.72-.177,2.573-.306a6.458,6.458,0,0,0,3.888-2,3.868,3.868,0,0,0-2.022-6.535c-1.443-.334-2.924-.518-4.393-.727-3.557-.5-7.118-.982-10.675-1.483a8.066,8.066,0,0,1-1.038-.283.977.977,0,0,1,.641-.419,11.132,11.132,0,0,0,3.385-1.242,4.01,4.01,0,0,0,.606-6.868,23.875,23.875,0,0,0-4.7-2.819c-2.4-1.051-4.767-2.2-7.136-3.329-.542-.259-1.037-.621-1.687-1.016.37-.195.562-.319.771-.4a3.325,3.325,0,0,0,2.087-4.669c-.127-.345-.23-.7-.341-1.039.7-.352,1.324-.642,1.925-.966a4.31,4.31,0,0,0,2.36-4.185,6.5,6.5,0,0,0-3.583-5.585,49.889,49.889,0,0,0-4.765-2.271c-1.858-.835-3.744-1.605-5.6-2.435a10.374,10.374,0,0,1-4.027-3.336c-.227-.3-.6-.6-.328-1.123.256.073.491.118.709.2a80.287,80.287,0,0,0,8.9,2.778,10.619,10.619,0,0,0,5.93.056,4.181,4.181,0,0,0,2.782-5.89,8.024,8.024,0,0,0-2.119-2.778,17.423,17.423,0,0,0-5.558-3.148c-.335-.126-.667-.258-1.071-.414.3-.4.489-.688.7-.955a3.513,3.513,0,0,0,.613-3.6,6.581,6.581,0,0,0-2.2-2.947,18.675,18.675,0,0,0-5.249-2.657,17.261,17.261,0,0,1-4.831-2.332c-.464-.357-.987-.637-1.466-.975a7.822,7.822,0,0,1-2.071-1.795c.514-.025.876-.049,1.238-.06,1.381-.044,2.769-.011,4.14-.152a6.59,6.59,0,0,0,2.244-.7,3.205,3.205,0,0,0,1.789-3.531,3.943,3.943,0,0,0-1.212-2.346,9.823,9.823,0,0,0-3.789-2.272c-1.759-.623-3.527-1.228-5.244-1.954a8.54,8.54,0,0,1-2.331-1.49c-.717-.644-.462-1.333.482-1.56.839-.2,1.707-.293,2.532-.536a13.709,13.709,0,0,0,2.689-1.016,2.75,2.75,0,0,0,1.41-2.7,4.323,4.323,0,0,0-1.381-2.813c-.42-.458-.887-.877-1.269-1.364A44.335,44.335,0,0,1,337,578.192a54.564,54.564,0,0,1-3.416-7.989,49.776,49.776,0,0,1-1.766-7.334c-.33-2.251-.478-4.531-.655-6.8a3.567,3.567,0,0,0-.659-2.033,11.814,11.814,0,0,0-1.482-1.59,2.549,2.549,0,0,0-4.1.972,4.2,4.2,0,0,0-.268,1.3c-.1,1.378-.129,2.761-.229,4.139a40.458,40.458,0,0,1-1.4,8.155,53.2,53.2,0,0,1-3,8.039,48.8,48.8,0,0,1-5.784,9.784c-.642.81-1.371,1.557-1.968,2.4a3.043,3.043,0,0,0,.614,4.259,5.857,5.857,0,0,0,3.015,1.262c.856.112,1.709.253,2.554.429s1.065.742.558,1.431a2.418,2.418,0,0,1-.743.711,25.861,25.861,0,0,1-3.231,1.6,32.782,32.782,0,0,0-5.732,2.381,6.352,6.352,0,0,0-2.541,2.515,3.316,3.316,0,0,0,1.276,4.5,6.13,6.13,0,0,0,2.338.744c1.579.128,3.174.066,4.762.087.287,0,.574.033.933.055-.118.205-.147.318-.22.374a29.332,29.332,0,0,1-6.774,4.359q-1.971.789-3.936,1.593a10.971,10.971,0,0,0-3.69,2.627,4.332,4.332,0,0,0-.155,6.155,3.407,3.407,0,0,1,.332.5c-.574.223-1.1.395-1.59.626a24.738,24.738,0,0,0-3.145,1.561,10.24,10.24,0,0,0-3.9,4.055,4.2,4.2,0,0,0,1.465,5.386,6.526,6.526,0,0,0,3.325,1.019,13.976,13.976,0,0,0,5.384-.9c1.11-.382,2.224-.753,3.337-1.124,1.277-.425,2.556-.843,3.833-1.267.31-.1.617-.221,1.018-.366a2.4,2.4,0,0,1-.845,1.831,12.418,12.418,0,0,1-3.768,2.879c-2.39,1.087-4.8,2.123-7.215,3.157a14.814,14.814,0,0,0-3.984,2.386,6.506,6.506,0,0,0-2.3,3.837,4.921,4.921,0,0,0,3.5,5.63c.282.1.568.188.828.273a25.688,25.688,0,0,0-.566,2.58,2.432,2.432,0,0,0,.946,2.3,18.222,18.222,0,0,0,2.231,1.23c-.034.048-.073.159-.149.2-1.733.933-3.455,1.887-5.209,2.778-1.908.969-3.881,1.817-5.759,2.839a13,13,0,0,0-2.732,2.035,3.765,3.765,0,0,0,.3,5.877,8.329,8.329,0,0,0,3.868,1.634c.416.08.829.184,1.243.277,0,.085,0,.17,0,.254a14.977,14.977,0,0,1-1.556.4c-3.007.452-6.021.852-9.025,1.324q-1.4.219-2.793.464a4.933,4.933,0,0,0-1.035-4.812,6.006,6.006,0,0,0-2.748-1.816c-1.32-.472-2.661-.888-4-1.312-4.7-1.489-9.541-2.467-14.153-4.285a124.714,124.714,0,0,1-12.907-5.929,63.785,63.785,0,0,1-9.208-5.768c-1.947-1.509-3.928-2.988-5.745-4.645a57.923,57.923,0,0,1-4.016-4.375,2.178,2.178,0,0,1-.268-.66,2.505,2.505,0,0,1,1.219.611c2.979,2.758,5.94,5.535,8.919,8.293a17.18,17.18,0,0,0,4.867,3.114c2.977,1.3,6.515-.336,6.78-3.43a4.534,4.534,0,0,1,.325-.929c.5.19.935.372,1.38.517a13.734,13.734,0,0,0,2.076.617,4.352,4.352,0,0,0,5.073-4.266c-.017-.627-.083-1.254-.086-1.881a5.41,5.41,0,0,1,.134-.889,1.386,1.386,0,0,1,.4-.053c.371.106.737.229,1.1.349a30.288,30.288,0,0,0,9.2,1.9,5.8,5.8,0,0,0,3.571-.994,5.033,5.033,0,0,0,1.494-6.6,10.562,10.562,0,0,0-4.217-4.866c-3.192-1.809-6.48-3.449-9.736-5.144-.814-.424-1.657-.793-2.491-1.177-3.906-1.8-7.791-3.65-11.732-5.37-2.078-.907-4.272-1.545-6.384-2.377-3.057-1.2-6.137-2.369-9.116-3.748s-5.85-3-8.761-4.521a15.355,15.355,0,0,1-1.3-.9l2.358-.728a26.458,26.458,0,0,0,2.9-.909,4.375,4.375,0,0,0,2.963-4.238,4.509,4.509,0,0,0-3.132-4.279,36.941,36.941,0,0,0-4.214-1.073,27.249,27.249,0,0,1-14.017-7.724,11.06,11.06,0,0,1-.894-1.15c1.568-1.235,3.089-2.262,4.4-3.51,1.472-1.4,1.533-3.346,1.33-5.341a8.991,8.991,0,0,1,1.011.126c1.966.506,3.919,1.066,5.894,1.531a15.379,15.379,0,0,0,7.195.057c3.205-.774,5.086-3.249,4.544-6.232a7.911,7.911,0,0,1-.01-1.34c.468-.082.838-.163,1.213-.208,1.2-.147,2.407-.248,3.6-.428a9.051,9.051,0,0,0,5.443-2.8,5.417,5.417,0,0,0-2.831-9.149c-2.021-.467-4.093-.724-6.151-1.017-4.979-.707-9.963-1.375-14.943-2.076a11.629,11.629,0,0,1-1.453-.4,1.362,1.362,0,0,1,.9-.587,15.582,15.582,0,0,0,4.739-1.739,5.614,5.614,0,0,0,.848-9.615,33.382,33.382,0,0,0-6.575-3.946c-3.366-1.471-6.674-3.077-9.99-4.66-.76-.363-1.452-.869-2.362-1.423.517-.273.787-.447,1.08-.565,2.993-1.209,4.028-3.523,2.921-6.536-.177-.483-.322-.979-.477-1.454.987-.494,1.853-.9,2.694-1.353a6.031,6.031,0,0,0,3.3-5.859c-.1-3.576-2.07-6.1-5.015-7.819a70.541,70.541,0,0,0-6.671-3.179c-2.6-1.168-5.242-2.246-7.845-3.409a14.515,14.515,0,0,1-5.638-4.67c-.317-.42-.843-.842-.46-1.572.36.1.688.166.994.287a112.666,112.666,0,0,0,12.452,3.889,14.87,14.87,0,0,0,8.3.078,5.851,5.851,0,0,0,3.9-8.245,11.235,11.235,0,0,0-2.966-3.889,24.377,24.377,0,0,0-7.782-4.407c-.468-.176-.933-.361-1.5-.58.415-.566.684-.963.984-1.337a4.918,4.918,0,0,0,.859-5.043,9.214,9.214,0,0,0-3.081-4.126,26.14,26.14,0,0,0-7.348-3.719,24.191,24.191,0,0,1-6.763-3.265c-.65-.5-1.382-.892-2.053-1.365a10.986,10.986,0,0,1-2.9-2.513c.72-.036,1.226-.068,1.733-.084,1.933-.061,3.877-.015,5.8-.213a9.23,9.23,0,0,0,3.142-.984,4.487,4.487,0,0,0,2.5-4.944,5.532,5.532,0,0,0-1.7-3.284,13.759,13.759,0,0,0-5.3-3.18c-2.462-.871-4.938-1.718-7.34-2.735a11.941,11.941,0,0,1-3.264-2.086c-1-.9-.647-1.866.675-2.184,1.174-.282,2.389-.41,3.543-.75a19.223,19.223,0,0,0,3.766-1.422,3.852,3.852,0,0,0,1.973-3.775,6.051,6.051,0,0,0-1.933-3.938c-.587-.641-1.242-1.227-1.776-1.909a62,62,0,0,1-6.889-10.893,76.411,76.411,0,0,1-4.782-11.185,69.515,69.515,0,0,1-2.473-10.266c-.462-3.152-.67-6.343-.917-9.523a4.985,4.985,0,0,0-.922-2.846,16.5,16.5,0,0,0-2.074-2.225,3.569,3.569,0,0,0-5.744,1.361,5.887,5.887,0,0,0-.374,1.824c-.135,1.93-.181,3.866-.321,5.8a56.665,56.665,0,0,1-1.962,11.417,74.6,74.6,0,0,1-4.2,11.254,68.272,68.272,0,0,1-8.1,13.7c-.9,1.135-1.92,2.18-2.754,3.359a4.259,4.259,0,0,0,.859,5.962,8.205,8.205,0,0,0,4.221,1.767c1.2.156,2.393.353,3.575.6s1.49,1.039.781,2a3.386,3.386,0,0,1-1.04,1,36.27,36.27,0,0,1-4.523,2.24,45.936,45.936,0,0,0-8.024,3.332,8.892,8.892,0,0,0-3.558,3.522,4.641,4.641,0,0,0,1.787,6.3,8.577,8.577,0,0,0,3.272,1.042c2.211.179,4.444.092,6.667.122.4.006.8.046,1.307.077-.165.287-.206.446-.309.524-2.994,2.293-5.927,4.681-9.483,6.1q-2.76,1.1-5.51,2.23a15.347,15.347,0,0,0-5.166,3.678c-2.109,2.184-2.887,5.953-.216,8.616a4.756,4.756,0,0,1,.464.7c-.8.313-1.534.553-2.225.877a34.619,34.619,0,0,0-4.4,2.185,14.342,14.342,0,0,0-5.463,5.677,5.872,5.872,0,0,0,2.051,7.54,9.131,9.131,0,0,0,4.654,1.427,19.575,19.575,0,0,0,7.538-1.257c1.554-.533,3.113-1.053,4.672-1.572,1.787-.595,3.578-1.18,5.365-1.775.435-.145.863-.309,1.425-.512A3.359,3.359,0,0,1,134.6,502.4a17.377,17.377,0,0,1-5.276,4.03c-3.345,1.521-6.722,2.972-10.1,4.419a20.727,20.727,0,0,0-5.577,3.341,9.113,9.113,0,0,0-3.218,5.371c-.694,4.1,1.827,6.783,4.9,7.882.394.141.8.263,1.159.383a35.9,35.9,0,0,0-.793,3.61,3.4,3.4,0,0,0,1.325,3.223,25.362,25.362,0,0,0,3.123,1.723c-.048.067-.1.222-.208.279-2.426,1.306-4.837,2.642-7.293,3.889-2.671,1.357-5.433,2.543-8.062,3.975a18.221,18.221,0,0,0-3.825,2.848,5.272,5.272,0,0,0,.413,8.228,11.648,11.648,0,0,0,5.415,2.287c.583.113,1.161.258,1.741.388l-.006.356a21.464,21.464,0,0,1-2.178.557c-4.21.632-8.43,1.192-12.635,1.853-2.769.435-5.541.9-8.269,1.532a5.046,5.046,0,0,0-4.119,5.389,5.706,5.706,0,0,0,2.64,4.462,10.408,10.408,0,0,0,5.077,1.974c1.386.139,2.765.345,4.282.538-.034.627-.033,1.145-.095,1.655a4.3,4.3,0,0,0,.961,3.4,6.345,6.345,0,0,0,4.374,2.591c1.058.083,2.12.193,3.179.174a23.582,23.582,0,0,0,7.889-1.773,4.429,4.429,0,0,1,2.273-.538c.087.126.137.166.136.2a3.8,3.8,0,0,1-.029.575A5.371,5.371,0,0,0,113.384,586a13.124,13.124,0,0,0,2.026,1.614c.7.485,1.462.887,2.37,1.429a15.016,15.016,0,0,1-1.28,1.7,27.435,27.435,0,0,1-12.928,7.394,43.1,43.1,0,0,0-5.41,1.633,4.327,4.327,0,0,0-.93,7.383,11.165,11.165,0,0,0,4.235,1.785,3.771,3.771,0,0,1,2.211.817,9.107,9.107,0,0,1-.979.742,119.137,119.137,0,0,1-11.752,6c-1.739.723-3.471,1.462-5.214,2.177-4.425,1.817-8.884,3.558-13.272,5.462-2.658,1.154-5.235,2.5-7.8,3.857-3.324,1.755-6.8,3.22-9.9,5.409q3.086,5.815,6.347,11.523c1.327-.391,2.651-.794,3.978-1.183.4-.117.8-.22,1.328-.364,0,1.123-.044,2.075.009,3.021a4.189,4.189,0,0,0,3.9,4.147,7.21,7.21,0,0,0,3.525-.649c.383-.143.775-.264,1.251-.425.169.568.288.976.413,1.383a4.467,4.467,0,0,0,1.971,2.59,5,5,0,0,0,4.6.223A9.487,9.487,0,0,0,84.95,652c2.849-2.467,5.62-5.024,8.4-7.565a30.013,30.013,0,0,1,3.676-3.177c-1.085,2.454-3.374,4.562-5.773,6.7a71.7,71.7,0,0,1-13.355,9.19c-2.38,1.3-4.788,2.543-7.236,3.689q5.35,8.489,11.086,16.7a87.5,87.5,0,0,0,13.3-5.3c2.025-1.025,3.963-2.223,5.95-3.325a5.49,5.49,0,0,1,.935-.324c.06.107.12.215.179.323-1.231,1.14-2.444,2.3-3.7,3.418a77.306,77.306,0,0,1-12.777,9.751c-.159.092-.322.178-.482.268A428.332,428.332,0,0,0,215.313,801.256a26.243,26.243,0,0,0,2.282-1.894,10.935,10.935,0,0,1,9.19-3.027,49.2,49.2,0,0,1,5.145.885c4.006.92,7.987,1.946,11.993,2.872a14.087,14.087,0,0,0,3.3.4,4.35,4.35,0,0,0,4.219-5.354,8.325,8.325,0,0,0-1.808-3.426q-2.017-2.386-4.056-4.756c1.778-.54,3.548-1.115,5.351-1.555a18.515,18.515,0,0,1,6.286-.245,45.2,45.2,0,0,0,13.315-.555c.587-.115,1.188-.157,1.783-.234l.114.23a5.9,5.9,0,0,1-.611.761c-1.231,1.109-2.46,2.222-3.727,3.29a118.515,118.515,0,0,1-14.674,10.268,136.754,136.754,0,0,1-12.147,6.716,87.6,87.6,0,0,1-9.2,3.768c-.468.162-.94.315-1.41.472a424.22,424.22,0,0,0,41.792,19.519c1.2-.662,2.425-1.285,3.648-1.909a6.212,6.212,0,0,1,1.02-.283,8.632,8.632,0,0,1-.545.931q-.893,1.1-1.788,2.2A422.909,422.909,0,0,0,315.941,844.2a.518.518,0,0,1,.6.166q12.147,3.393,24.577,6.08c-.041-.651-.079-1.3-.119-1.955a1.531,1.531,0,0,1,.483-1.209c.5-.521,1.008-1.044,1.486-1.589a.992.992,0,0,1,1.3-.248c.219.1.435.213.649.325a20.6,20.6,0,0,0,6.254,2.113c1.768.294,3.5.778,5.262,1.15,1.283.272,2.569.546,3.866.736a7.852,7.852,0,0,0,4.843-.745,20.562,20.562,0,0,0,4.656-3.258,7.81,7.81,0,0,1,6.565-2.163c.234.028.467.069.7.1-2.906,1.648-5.853,3.226-8.872,4.675a109.929,109.929,0,0,1-11.558,4.734c-.248.086-.5.166-.747.25a429.091,429.091,0,0,0,213.772-16.257c-3.26-2.052-6.468-4.182-9.573-6.47a69.351,69.351,0,0,1-8.5-7.062c-.312-.318-.594-.665-.922-1.035.256-.113.337-.185.408-.175.773.105,1.549.2,2.316.342a50.426,50.426,0,0,0,16.336.464,24.8,24.8,0,0,1,10.064.631c3.058.823,6.064,1.832,9.112,2.691a30.577,30.577,0,0,0,5.313,1.222c.084.008.164.008.246.013q1.956-.812,3.9-1.638a5,5,0,0,0,.714-3.522,17.887,17.887,0,0,0-2.26-6.334,10.212,10.212,0,0,0-1.972-2.572c.351-.057.7-.122,1.043-.208,4.311-1.083,8.58-2.335,12.907-3.342a37.91,37.91,0,0,1,6.818-.921,9.449,9.449,0,0,1,6.447,2.017c1,.793,1.983,1.612,2.985,2.4A427.989,427.989,0,0,0,768.71,694.365c-.182-.084-.369-.154-.55-.24a70.88,70.88,0,0,1-14.157-8.5c-2.553-2.043-5.105-4.089-7.6-6.2a23.446,23.446,0,0,1-3.408-3.563c2.581,1.377,4.878,2.567,7.14,3.819a78.632,78.632,0,0,0,16.4,6.364c2.36.684,4.77,1.193,7.167,1.747q6.029-8.114,11.677-16.516c-.947-.313-1.89-.64-2.822-1.007A131.909,131.909,0,0,1,768.913,664ZM237.673,777.477q-.8-1.01-1.606-2.019a6.67,6.67,0,0,1-.552-1.249c1.007.412,1.674.667,2.327.954.692.3,1.363.647,2.036.986A7.247,7.247,0,0,0,237.673,777.477ZM275.606,716.7c-3.161,1.3-6.346,2.541-9.48,3.9-1.9.824-3.74,1.788-5.572,2.755-1.761.93-3.58,1.749-5.307,2.745-1.272-.879-2.537-1.771-3.783-2.69a77.323,77.323,0,0,1-9.474-7.869c-.347-.353-.661-.74-1.027-1.153.285-.126.377-.206.455-.195.862.118,1.726.225,2.581.382a56.206,56.206,0,0,0,18.2.516,27.614,27.614,0,0,1,11.213.7c.869.233,1.733.481,2.6.735Zm3.945,20.916q-1.095.974-2.253,1.864c-.229-.122-.46-.24-.689-.363q2.235-1.99,4.44-4.016a21.467,21.467,0,0,1,2.626-2.269C282.9,734.583,281.265,736.089,279.551,737.614Zm18.033-40.867a19.6,19.6,0,0,1-9.235,5.281c-.448.11-.894.235-1.341.357a37.145,37.145,0,0,0-9.787-2.822c-3.164-.544-6.081-1.576-8.3-4.06a14.752,14.752,0,0,0-1.4-1.262,10.262,10.262,0,0,0-4.666-2.221c-3.027-.647-6.061-1.263-9.076-1.96a53.629,53.629,0,0,1-10.968-3.71,67.078,67.078,0,0,1-13.4-8.047c-2.417-1.933-4.832-3.87-7.2-5.866a22.151,22.151,0,0,1-3.225-3.372c2.442,1.3,4.616,2.429,6.757,3.614a74.42,74.42,0,0,0,15.517,6.023c2.412.7,4.881,1.2,7.328,1.778a51.342,51.342,0,0,0,23.157.035c.188-.042.373-.1.56-.148,0,.037,0,.071,0,.109a4.074,4.074,0,0,0,1.886,3.187,7.436,7.436,0,0,0,3.626,1.41c.99.1,1.975.246,3.059.384-.024.448-.023.818-.068,1.183a3.077,3.077,0,0,0,.687,2.426,4.531,4.531,0,0,0,3.124,1.85c.756.059,1.515.138,2.271.125a16.849,16.849,0,0,0,5.635-1.267,3.159,3.159,0,0,1,1.624-.384c.062.09.1.118.1.146a2.67,2.67,0,0,1-.021.41,3.836,3.836,0,0,0,1.131,3.41,9.409,9.409,0,0,0,1.447,1.152c.5.347,1.045.634,1.693,1.021A10.79,10.79,0,0,1,297.584,696.747Zm91.672,139.537q-1.348-1.575-2.686-3.159c-1.221-1.454-2.4-2.946-3.576-4.433a4.777,4.777,0,0,1-.4-.892c.72.294,1.2.476,1.662.682a80.82,80.82,0,0,1,7.971,4.419,8.092,8.092,0,0,0,1.159.606Q391.347,834.928,389.256,836.284Zm22-42.739c-2.616,1.5-5.323,2.856-8.067,4.108-2.708-1.664-5.365-3.406-7.952-5.254.036,0,.071,0,.106-.009a68,68,0,0,0,11.9-2.753c2.249-.7,4.463-1.467,6.64-2.329,1.01.309,2.019.62,3.035.906.456.129.914.26,1.373.387A52.326,52.326,0,0,1,411.257,793.545Zm5.038-30.628a62.857,62.857,0,0,1-10.967,7.661,7.393,7.393,0,0,0-3.2-1.488c-2.163-.462-4.33-.9-6.484-1.4a38.28,38.28,0,0,1-7.834-2.65,47.975,47.975,0,0,1-9.571-5.748c-1.726-1.381-3.451-2.764-5.14-4.19a15.77,15.77,0,0,1-2.3-2.409c1.744.931,3.3,1.735,4.826,2.582a37.976,37.976,0,0,0,3.7,1.777,4.507,4.507,0,0,0,3.373,3.867,7.293,7.293,0,0,0,3.988-.006c.838-.213,1.667-.457,2.5-.7.918.216,1.839.42,2.757.635q1.031.243,2.06.422c0,.083,0,.168.008.251a3.761,3.761,0,0,0,3.5,3.722,6.476,6.476,0,0,0,3.164-.582c.344-.129.7-.238,1.123-.382.152.509.259.876.371,1.242a4.01,4.01,0,0,0,1.769,2.324,4.5,4.5,0,0,0,4.133.2,8.508,8.508,0,0,0,2.566-1.5c2.556-2.215,5.044-4.509,7.541-6.79a27.022,27.022,0,0,1,3.3-2.852C420.5,759.108,418.448,761,416.3,762.917Zm8.264,20.193c-.1-.312-.2-.621-.326-.925.269-.153.538-.308.809-.458a4.89,4.89,0,0,1,.839-.291l.161.289C425.546,782.185,425.054,782.648,424.559,783.11Zm112.227-24.637q.633.587,1.264,1.176c-.089.031-.177.065-.265.1-.2.07-.4.134-.605.2-.415-.478-.827-.958-1.247-1.429a1.919,1.919,0,0,1-.241-.593A2.259,2.259,0,0,1,536.786,758.473Zm.857,27.97c-.242.33-.489.658-.735.986q-1.547-1.257-3.073-2.539a19.818,19.818,0,0,1-2.895-3.027c2.192,1.17,4.143,2.18,6.065,3.244.386.214.778.413,1.169.614C538,785.962,537.819,786.2,537.643,786.443Zm65.975,1.008c-3.381,4.162-6.8,8.3-10.157,12.475-1.791,2.227-3.6,4.452-5.2,6.815a4.476,4.476,0,0,0-.746,3.414c-1.416-.378-2.858-.669-4.313-.919a12.213,12.213,0,0,1-7.451-3.644,13.026,13.026,0,0,0-1.256-1.133,9.221,9.221,0,0,0-4.188-1.993c-2.716-.581-5.439-1.134-8.146-1.76a48.064,48.064,0,0,1-9.843-3.329q-1.1-.519-2.175-1.066c2.456-.9,4.859-1.939,7.281-2.931.7-.285,1.387-.576,2.081-.863a44.843,44.843,0,0,0,4.791.635,6.281,6.281,0,0,0,.809.916c1.9,1.715,4.156,1.792,6.5,1.212a16.634,16.634,0,0,0,2.768-.9,6.4,6.4,0,0,1,5.969.173,8.619,8.619,0,0,0,7.851.1c1.108-.522,2.205-1.076,3.26-1.695,1.805-1.06,3.542-2.236,5.363-3.264,2-1.13,4.057-2.16,6.1-3.205a9.152,9.152,0,0,1,1.509-.418A13,13,0,0,1,603.618,787.451Z"/><path class="cls-2" d="M245.408,209.239c2.294,6.675,2.711,19.4,1.042,27.741-2.92,13.557-12.3,25.863-23.776,30.66-3.963,1.877-10.429,2.711-11.055,1.46-.417-.626.417-1.043,2.294-1.043,3.755,0,12.306-5.214,16.895-10.637,12.722-14.6,12.514-42.757-.417-57.357a23.226,23.226,0,0,0-7.509-5.424c-4.38-2.085-5.631-2.5-11.68-2.085-5.632.417-7.718,1.043-12.305,3.337-11.264,6.049-21.275,18.563-30.87,39-13.348,27.949-20.231,58.4-19.188,84.68.626,19.189,5.006,31.287,14.392,40.881,6.465,6.466,12.722,9.177,22.317,9.594,17.936,1.043,39.837-17.311,48.18-31.286,1.669-2.712,2.712-3.754,4.172-3.754,9.176,0-15.644,29.409-30.661,36.5-24.4,11.68-58.609,3.128-70.915-22.317a108.964,108.964,0,0,1-5.006-13.141c-7.3-30.868,5.841-81.76,31.078-119.928,4.8-7.509,15.226-17.938,21.483-21.692,10.012-6.048,23.568-8.968,33.372-7.508C232.894,189.426,240.819,195.682,245.408,209.239Zm143.909,57.567c2.92,1.251,7.718,1.042,9.8-.418,2.294-1.46,3.963-5.631,3.754-8.551-.417-2.92-6.049-5.423-10.22-4.589-6.048,1.043-10.011,7.509-6.674,11.055A7.452,7.452,0,0,0,389.317,266.806ZM745.554,303.1c-5.006,0-13.349,2.294-20.858,5.423l-3.963,1.669,2.3,5.214c2.711,5.84,3.754,16.477,2.086,21.691-1.461,4.38-7.508,10.846-12.723,13.349-7.3,3.963-19.189,4.589-24.4-3.545-2.086-3.546-2.3-10.221-.209-15.018,1.877-5,7.509-11.889,12.1-15.225l3.963-3.129-1.46-2.5a119.754,119.754,0,0,0-8.135-11.055c-.164-.215-.319-.426-.48-.64-2.211,7.444-7.19,21.455-9.74,26.712-3.127,6.675-7.09,11.472-11.053,13.14-3.546,1.46-9.6,1.46-12.932-.208a16.014,16.014,0,0,1-7.926-8.552c-.626-1.877-1.46-3.337-1.877-3.337a11.626,11.626,0,0,0-2.92,1.877c-3.337,2.5-11.888,3.338-16.06,1.669-6.544-2.578-10.255-8.937-11.5-19.237-1.176,1.832-2.431,3.681-3.724,5.471-8.967,12.514-13.139,15.852-20.231,15.852-11.68,0-16.06-10.221-12.723-29.826.834-4.8,1.669-9.8,1.877-11.055l.417-2.294-1.251,2.294c-.834,1.252-3.754,9.386-6.883,18.146-2.92,8.76-6.048,17.312-7.091,18.772-2.711,4.588-8.551,5.84-13.557,2.711-6.258-3.754-8.343-11.68-6.675-25.654.626-5.006.834-9.177.834-9.177-.208-.209-2.711,7.717-5.423,17.52-2.92,9.8-5.631,18.563-6.257,19.606-1.251,1.877-3.962,2.711-7.3,2.293a4.661,4.661,0,0,1-1.91-.9c-1.246,15.119-3.6,24.155-7.892,30.517-3.963,5.632-13.14,7.926-21.9,5.423-6.048-1.877-12.723-8.134-16.06-15.226-2.711-5.84-5.423-16.269-6.674-26.071a196.416,196.416,0,0,1-1.359-26.451,76.489,76.489,0,0,0-17.622,5.176l-3.963,1.669,2.3,5.214c2.711,5.84,3.754,16.477,2.086,21.691-1.461,4.38-7.509,10.846-12.724,13.349-7.3,3.963-19.189,4.589-24.4-3.545-2.086-3.546-2.295-10.221-.209-15.018,1.877-5,7.508-11.889,12.1-15.225l3.963-3.129-1.46-2.5a119.289,119.289,0,0,0-8.073-10.979c-1.2,5.207-4.741,13.237-10.07,22.242-5.423,9.386-8.969,12.932-14.392,14.6-5.006,1.46-5.632,1.46-11.055.208-5.005-1.043-10.636-6.674-12.305-12.1-2.192-7.5-2.6-18.25-1.566-27.211-5.587,1.9-12.717.622-17-3.657-3.337-3.337-5.631-10.221-5.631-17.729v-5.214l-2.086,3.754c-2.919,4.589-8.551,19.815-11.054,28.991a111.968,111.968,0,0,0-2.711,18.355c-1.043,12.723-1.46,13.557-7.092,13.557a8.733,8.733,0,0,1-5.632-1.877,23.22,23.22,0,0,1-4.171-7.3,27.889,27.889,0,0,1-1.3-4.825,82.259,82.259,0,0,1-5.161,12.125c-7.507,13.766-15.642,18.146-26.279,14.809-4.172-1.252-7.509-6.466-8.761-13.349-1.251-6.466-.834-13.766,1.878-25.446.834-4.38,1.46-7.926,1.251-8.134-.417-.626-8.343,16.685-8.968,19.606-.626,3.128-2.086,3.754-7.717,3.754-7.3.208-10.846-4.172-15.644-18.146-3.963-11.888-5.423-21.9-4.8-33.371,1.46-28.367,21.067-103.661,65.283-84.055,7.717,3.337,11.263,12.514,9.386,23.986-2.294,12.723-10.845,30.243-21.274,43.174-7.3,8.969-19.815,20.858-27.323,25.863l-6.466,4.38.418,10.846c.625,10.637,2.085,21.274,3.337,21.274.208,0,1.043-2.085,1.669-4.588,2.085-8.969,12.722-28.575,17.728-32.746,3.128-2.711,7.3-2.92,11.889-1.043,6.674,2.711,7.508,11.263,3.754,34-1.251,7.509-2.5,15.643-2.92,17.938-.417,4.379-.417,4.379,1.46,2.711,4.142-3.782,11.86-18.139,16.71-30.718.34-21.77,2.8-36.5,6.438-38.32,2.086-1.251,6.675-1.251,8.761,0,2.086,1.043,3.337,6.049,4.171,17.312l.626,8.134,2.712-6.883c7.091-17.1,11.47-21.9,17.519-19.606,2.92,1.043,3.963,2.921,6.466,12.724,1.877,7.091,5.632,15.434,7.092,15.434.588,0,2.835-2.031,5.052-4.332.907-3.2,2.084-5.674,3.5-6.931,2.086-1.877,10.219-2.711,12.931-1.46,1.877,1.043,1.877,1.668,1.877,19.814,0,16.686.834,28.158,2.294,29.409.834,1.043,10.22-9.177,15.435-16.686,4.088-6.317,7.835-13.782,8.607-17.551-11.9-16.964-13.858-29.145-6.524-39.18,9.385-13.14,36.292-9.386,40.464,5.631,1.251,4.38,0,10.012-3.129,14.809-3.546,5.214-4.589,4.38-4.589-3.129,0-8.76-2.5-13.974-8.343-17.1-5.214-2.92-8.135-2.085-10.846,2.92-2.92,5.84-2.5,12.723,1.669,21.066,4.588,9.177,17.1,25.237,19.4,24.82,1.043-.209,5.006-1.251,8.761-2.294A83.936,83.936,0,0,1,476,300.84c.186-15.422,1.45-32.164,3.632-44.046l.417-2.92-8.76-.417c-10.428-.626-19.4-3.337-23.568-6.883-2.5-2.294-3.129-3.337-3.129-6.257,0-3.337.626-4.171,5.214-8.552,5.84-5.839,13.557-9.8,28.992-15.017l10.846-3.754,3.963-7.926c9.593-18.145,21.065-27.114,34.414-27.114q8.135,0,8.134,3.128c0,1.252-.626,1.252-3.337.835-7.091-1.252-12.514,3.754-18.98,17.311-3.963,8.135-3.963,8.969-.209,8.343,20.024-4.171,45.678-4.8,59.234-1.668,14.6,3.545,29.618,8.968,21.484,7.925-1.669-.208-7.717-1.668-13.558-3.128-8.968-2.5-11.888-2.712-21.691-2.712-17.312,0-48.389,4.589-50.683,7.509-3.129,3.963-8.135,48.388-8.969,77.8-.625,30.66,1.46,52.561,6.049,63.615,2.92,6.466,3.754,6.674,6.883,1.668q5.319-8.446,9.386-23.776c.613-2.506,1.227-5.513,1.8-8.711-.2-.5-.383-1-.547-1.51-1.252-4.171-1.46-7.508-1.46-20.023.208-22.109,3.337-34.623,9.594-36.291,3.337-1.043,7.091-.418,8.551,1.251,1.043,1.46.626,12.306-1.46,37.752-.834,8.551-1.252,15.851-1.043,16.06,0,0,3.337-8.76,7.092-19.815,9.177-27.322,13.557-37.334,16.686-38.377,2.92-1.043,6.674.834,8.552,4.171,1.668,3.338,1.46,18.981-.418,34.832-.625,6.049-1.251,11.055-1.043,11.263,0,0,3.129-6.466,6.674-14.6s8.76-19.606,11.68-25.446c4.589-9.594,5.423-10.637,7.718-11.263,3.754-.834,6.674,1.251,7.509,5.423.625,3.546,0,11.472-2.3,29.618-1.877,14.182-2.294,26.7-.834,27.531,1.945,1.134,14.212-12.462,20.86-22.2.162-6.049,1.759-11.777,5-18.26,4.38-8.969,10.012-14.809,17.938-18.563,8.342-4.172,13.973-4.589,21.482-2.295,3.338.835,7.3,1.878,9.178,2.295,1.668.208,3.754,1.043,4.171,1.877,1.877,2.086.626,13.766-3.754,35.666-3.963,19.4-5.006,28.992-3.337,28.992,3.128,0,15.642-21.9,20.439-35.458.334-.933.672-1.758,1-2.49-12.188-17.206-14.245-29.515-6.846-39.641,9.386-13.14,36.292-9.386,40.464,5.631,1.251,4.38,0,10.012-3.129,14.809-3.545,5.214-4.588,4.38-4.588-3.129,0-8.76-2.5-13.974-8.343-17.1-5.214-2.92-8.135-2.085-10.846,2.92-2.92,5.84-2.5,12.723,1.669,21.066,4.588,9.177,17.1,25.237,19.4,24.82,1.043-.209,5-1.251,8.76-2.294,7.926-2.086,17.1-3.129,20.232-2.295C752.229,302.054,750.769,303.1,745.554,303.1ZM268.141,280.78l3.754-2.92a82,82,0,0,0,8.551-8.552c18.981-21.483,28.784-41.506,28.784-59.443,0-6.048-.209-8.134-1.878-11.054-3.337-6.674-7.925-6.257-15.851,1.043-12.1,11.263-20.649,37.543-22.734,71.332ZM442.5,326.04c-.834-2.92-1.668-5.631-1.877-6.049-.834-.625-6.466,6.258-8.76,11.055a20.086,20.086,0,0,0-2.294,7.717c0,9.386,5.631,12.1,11.054,2.92C443.753,336.469,444.17,332.506,442.5,326.04Zm36.918-102.826c-14.183,5.423-24.194,12.723-24.194,17.729,0,4.379,4.172,6.882,14.6,8.76,10.846,2.085,10.012,2.92,13.14-11.889,1.46-7.091,3.129-13.557,3.337-14.808C487.137,220.5,486.511,220.5,479.419,223.214ZM660.457,272.02c-4.589-2.92-16.268,13.348-19.814,27.74-1.669,5.84-2.294,21.274-1.043,23.986.835,2.086,2.92,1.043,7.092-3.755,2.085-2.5,3.336-4.8,3.545-7.3,2.5-21.066,4.171-27.532,8.551-35.458C660.457,274.314,661.083,272.437,660.457,272.02Zm48.388,54.02c-.834-2.92-1.668-5.631-1.877-6.049-.834-.625-6.466,6.258-8.76,11.055a20.086,20.086,0,0,0-2.294,7.717c0,9.386,5.631,12.1,11.054,2.92C710.1,336.469,710.514,332.506,708.845,326.04Z"/><path class="cls-2" d="M313.482,121.566a44.127,44.127,0,0,0,.027,7.9c.138,2.66-.112,5.31-.224,7.962-.114,2.712-.568,5.422-.1,8.136.287,1.651.889,2.123,2.586,2.137,1.888.017,2.3.366,2.66,2.234.023.121.052.242.074.363.5,2.813-.269,3.7-3.1,3.955a61.754,61.754,0,0,1-11.921-.381c-1.141-.117-2.4-.36-2.77-1.659a5.278,5.278,0,0,1,.51-4.466,2.055,2.055,0,0,1,1.724-.764c.555-.034,1.114-.007,1.669-.021,1.564-.038,1.94-.409,2.035-1.987.055-.9.136-1.787.16-2.682.161-6.146.605-12.288.387-18.443a22.786,22.786,0,0,0-.594-4.588.973.973,0,0,0-1.116-.856c-.77.031-1.546.028-2.318,0a2.614,2.614,0,0,1-2.688-3.348c.419-2.36,1.269-3.189,3.642-2.958a60.15,60.15,0,0,0,8.587.539,23.645,23.645,0,0,0,2.683-.153,4.157,4.157,0,0,1,2.349.373,1.8,1.8,0,0,1,1.19,1.617,5.759,5.759,0,0,0,.316,1.347c3.108,9.294,6.141,18.61,8.55,28.116a9.028,9.028,0,0,0,.711,2.093c.35-.166.328-.473.4-.726q3.743-13.925,7.475-27.852c.231-.864.376-1.752.589-2.623a2.7,2.7,0,0,1,3.026-2.4,7.538,7.538,0,0,1,1.571.082,36.689,36.689,0,0,0,10.341.319,4.585,4.585,0,0,1,1.561.159,2.025,2.025,0,0,1,1.839,2.28c.017.34.034.681.028,1.02-.026,1.676-.7,2.336-2.389,2.341-.247,0-.495,0-.742,0-2.314,0-2.3.032-2.467,2.384-.283,3.864.252,7.714.149,11.57-.095,3.52-.351,7.033-.516,10.551a11.053,11.053,0,0,0,.237,3.134,2.041,2.041,0,0,0,2.218,1.807c.372.008.744,0,1.112.033a1.763,1.763,0,0,1,1.73,1.528c.135.73.3,1.457.377,2.192a2.228,2.228,0,0,1-1.95,2.595,28.106,28.106,0,0,1-7.016.276c-2.088-.184-4.2-.083-6.278-.45-1.136-.2-2.4-.4-2.735-1.715a5.212,5.212,0,0,1,.569-4.454,2.166,2.166,0,0,1,1.833-.733c.68-.023,1.362-.01,2.04-.042a1.359,1.359,0,0,0,1.453-1.368c.082-1.077.189-2.155.219-3.234.172-6.209.621-12.413.382-18.628a17.369,17.369,0,0,0-.755-4.94c-.433.175-.392.524-.476.8-2.36,7.619-4.135,15.4-6.472,23.027a68.415,68.415,0,0,1-2.627,7.818,13.162,13.162,0,0,1-2.308,3.567c-1.681,1.84-3.529,1.82-5.143-.07a17.077,17.077,0,0,1-2.469-4.338c-2.009-4.566-3.37-9.362-4.985-14.068C316.7,131.1,315.1,126.333,313.482,121.566Zm63.863,3.416c0,1.454.025,2.907-.012,4.36-.016.686.251.931.919.941a26.491,26.491,0,0,0,3.695,0,4.607,4.607,0,0,0,4.368-3.869c.065-.3.115-.607.17-.911a2.362,2.362,0,0,1,2.75-2.117c1.366.073,2.052.84,2.164,2.394.184,2.593-.046,5.186,0,7.78a45,45,0,0,1,.015,5.181c-.06.615-.08,1.237-.195,1.842a2.413,2.413,0,0,1-2.352,2.112,2.515,2.515,0,0,1-2.664-1.855,14.3,14.3,0,0,1-.415-4.229c0-1.486-.371-1.9-1.866-1.819a16.443,16.443,0,0,0-5.536,1,1.293,1.293,0,0,0-.913,1.335c.012,2.937-.008,5.875.016,8.812a4,4,0,0,0,2.791,3.249,12.374,12.374,0,0,0,3.382.507,55.9,55.9,0,0,0,7.411-.137c2.394-.277,3.555-1.511,3.828-3.926.222-1.97.019-3.956.329-5.917.236-1.5.715-2.041,1.886-2.085,1.946-.074,2.51.32,2.89,1.976a6.31,6.31,0,0,1,.123,1.659c-.122,3.3-.292,6.6-.706,9.881a8.371,8.371,0,0,1-.179.908,2.763,2.763,0,0,1-2.847,2.534,59.6,59.6,0,0,1-8.884.082,43.948,43.948,0,0,0-8.05.247,8.327,8.327,0,0,1-1.478.085,43.406,43.406,0,0,0-8.114.643,13.466,13.466,0,0,1-2.684.084,2.107,2.107,0,0,1-2.169-2.188,7.659,7.659,0,0,1,.229-2.3,2.269,2.269,0,0,1,1.764-1.833,17.311,17.311,0,0,1,2.371-.4c.744-.067.994-.433,1.038-1.135.141-2.219.381-4.432.478-6.652.25-5.711.69-11.414.614-17.136a28.3,28.3,0,0,0-.206-2.864c-.147-1.263-.646-1.723-1.907-1.861-.674-.073-1.352-.136-2.027-.2a2.292,2.292,0,0,1-2.246-1.968,5.24,5.24,0,0,1-.113-1.658A2.5,2.5,0,0,1,367.824,113c2.03.2,4.063.286,6.094.435a126.278,126.278,0,0,0,15.281.157c2.437-.116,4.87-.336,7.317-.255,2.526.084,3.487.869,3.769,3.382a32.183,32.183,0,0,1-.023,7.209c-.171,1.5-.217,3.018-.5,4.509a2.45,2.45,0,0,1-2.037,2.12,1.784,1.784,0,0,1-2.342-1.352,44.713,44.713,0,0,1-.684-5.322c-.139-.852-.274-1.71-.492-2.545-.462-1.774-1.149-2.4-2.985-2.494a54.972,54.972,0,0,0-8.795.226c-1.381.15-2.757.361-4.142.446-.793.05-.983.4-.966,1.111.038,1.452.011,2.906.011,4.359Zm72.242,22.263c-.041-1.944-.256-3.888-.314-5.832a2.466,2.466,0,0,1,1.421-2.39,2.127,2.127,0,0,1,2.224.484,4.014,4.014,0,0,1,.85,2.593,44.215,44.215,0,0,1-.222,8.691,6.389,6.389,0,0,1-1.146,3.38c-1.072,1.287-2.9,1.61-4.575,1.693-2.721.133-5.809-.33-7.413-2.531-1.442-1.98-1.2-4.662-1.288-7.111a22.453,22.453,0,0,0-1.305-6.745,4.337,4.337,0,0,0-2.032-2.717,4.716,4.716,0,0,0-1.945-.251l-8.414.089a.91.91,0,0,0-.682.2.9.9,0,0,0-.173.522,42.3,42.3,0,0,0-.077,8.176c.086.972.311,2.1,1.188,2.525.8.388,1.771,0,2.625.243a2.465,2.465,0,0,1,1.558,1.673,6.973,6.973,0,0,1,.211,2.36,1.957,1.957,0,0,1-2.122,2.319,49.042,49.042,0,0,1-13.577-.1,3.3,3.3,0,0,1-1.328-.4,3.169,3.169,0,0,1-1.042-2.858c.031-1.34.414-2.915,1.665-3.4a5.625,5.625,0,0,1,2.184-.1,2.016,2.016,0,0,0,1.92-.822,2.339,2.339,0,0,0,.191-.962,220.506,220.506,0,0,0,0-23.926c-.059-1.059-.258-2.323-1.227-2.754-.734-.326-1.577-.006-2.379.018a3.173,3.173,0,0,1-1.873-5.8c1.354-.917,3.144-.665,4.769-.5,6.179.641,12.428-.454,18.62.044,3.265.263,6.673,1.062,9.044,3.324a10.785,10.785,0,0,1,3.032,5.942c.783,4.421-1.14,9.472-5.185,11.418-.258.124-.554.271-.616.55a.947.947,0,0,0,.29.736,14.044,14.044,0,0,1,2.769,6.7c.344,2.613.278,5.264,1.029,7.823a2.949,2.949,0,0,0,1.418,2.028c1.408.6,1.99-1.181,1.991-2.217Zm-25.439-23.2c.16,2.463.325,4.8.459,7.144.036.651.4.786.928.7,2.6-.433,5.239-.03,7.848-.323a16.452,16.452,0,0,0,6.52-1.948,4.992,4.992,0,0,0,2.017-1.869c1.85-3.428,1.208-5.024-1.633-6.62a15.275,15.275,0,0,0-5.628-1.762,41.941,41.941,0,0,0-9.5.2c-.649.067-.834.473-.864,1C424.225,121.76,424.191,122.963,424.148,124.042Zm78.779,23.2c-.041-1.944-.256-3.888-.315-5.832a2.468,2.468,0,0,1,1.422-2.39,2.128,2.128,0,0,1,2.224.484,4.014,4.014,0,0,1,.85,2.593,44.292,44.292,0,0,1-.222,8.691,6.39,6.39,0,0,1-1.147,3.38c-1.071,1.287-2.9,1.61-4.574,1.693-2.722.133-5.809-.33-7.413-2.531-1.442-1.98-1.2-4.662-1.288-7.111a22.453,22.453,0,0,0-1.305-6.745,4.341,4.341,0,0,0-2.032-2.717,4.716,4.716,0,0,0-1.945-.251l-8.414.089a.91.91,0,0,0-.682.2.9.9,0,0,0-.173.522,42.3,42.3,0,0,0-.077,8.176c.086.972.311,2.1,1.188,2.525.8.388,1.771,0,2.625.243a2.465,2.465,0,0,1,1.558,1.673,6.973,6.973,0,0,1,.211,2.36,2.6,2.6,0,0,1-.426,1.635,2.565,2.565,0,0,1-1.7.684,49.042,49.042,0,0,1-13.577-.1,3.3,3.3,0,0,1-1.328-.4,3.167,3.167,0,0,1-1.042-2.858c.031-1.34.414-2.915,1.665-3.4a5.625,5.625,0,0,1,2.184-.1,2.017,2.017,0,0,0,1.92-.822,2.339,2.339,0,0,0,.191-.962,221.016,221.016,0,0,0-.005-23.926c-.059-1.059-.258-2.323-1.227-2.754-.734-.326-1.577-.006-2.38.018a3.173,3.173,0,0,1-1.872-5.8c1.354-.917,3.144-.665,4.769-.5,6.179.641,12.428-.454,18.62.044,3.265.263,6.673,1.062,9.044,3.324a10.785,10.785,0,0,1,3.032,5.942c.782,4.421-1.14,9.472-5.185,11.418-.258.124-.554.271-.617.55a.951.951,0,0,0,.29.736,14.036,14.036,0,0,1,2.77,6.7c.344,2.613.278,5.264,1.029,7.823A2.946,2.946,0,0,0,501,151.59c1.407.6,1.989-1.181,1.99-2.217Zm-25.44-23.2c.161,2.463.326,4.8.459,7.144.037.651.4.786.929.7,2.6-.433,5.238-.03,7.848-.323a16.452,16.452,0,0,0,6.52-1.948,4.992,4.992,0,0,0,2.017-1.869c1.849-3.428,1.208-5.024-1.633-6.62A15.275,15.275,0,0,0,488,119.363a41.941,41.941,0,0,0-9.5.2c-.649.067-.834.473-.864,1C477.565,121.76,477.53,122.963,477.487,124.042Zm42.77-10.7c2.45.109,5.042-.054,7.636-.172a22.841,22.841,0,0,1,3.235.189c1.339.127,1.8.617,2.09,1.939a4.885,4.885,0,0,1-.106,2.292,2.178,2.178,0,0,1-2.067,1.8,13.843,13.843,0,0,1-2.681.119c-.739-.022-.859.168-.472.816,2.138,3.585,4.252,7.185,6.373,10.779.047.08.1.158.144.238.919,1.556.925,1.561,1.876.076q3.551-5.545,7.087-11.1c.127-.2.394-.395.251-.651s-.452-.151-.682-.128a11.741,11.741,0,0,1-3.506-.022c-1.637-.318-2.173-.882-2.267-2.524a16.614,16.614,0,0,1-.107-1.846,1.58,1.58,0,0,1,1.666-1.622c4.785-.243,9.576-.314,14.366-.333a21.531,21.531,0,0,1,2.678.218,1.936,1.936,0,0,1,1.9,1.917c.35,2.278-.744,3.585-3.036,3.623-3.1.052-3.093.057-4.852,2.605q-5.56,8.054-11.142,16.092a2.567,2.567,0,0,0-.492,1.549c.014,2.784.029,5.567-.007,8.35-.011.8.233,1.115,1.059,1.076,1.266-.059,2.536-.048,3.8-.027,1.288.021,1.678.391,1.882,1.678.028.184.073.364.1.548.344,2.565-.56,3.6-3.131,3.807-4.314.355-8.626.6-12.955.533a12.407,12.407,0,0,1-2.208-.244c-1.408-.277-1.889-.963-2.034-2.783a2.482,2.482,0,0,1,1.588-2.656,9.978,9.978,0,0,1,3.377-.481c2.366-.082,2.35-.057,2.377-2.4.029-2.532.086-5.065.151-7.6a2.626,2.626,0,0,0-.458-1.561q-5.5-8.487-10.96-17a1.408,1.408,0,0,0-1.361-.739c-1.359.035-2.722.031-4.082,0-2.263-.049-2.96-.706-3.186-2.957a15.889,15.889,0,0,1-.142-1.752c.012-1.032.361-1.339,1.385-1.472C515.6,113.233,517.856,113.43,520.257,113.347Z"/><path class="cls-2" d="M477.461,480l-.011.011-.017-.007Z"/><path class="cls-2" d="M628.687,422.559c-1.463-.689-8.533.265-8.533.265,2.241-5.8-3.423-12.365-6.386-15.175a15.65,15.65,0,0,1-1.305-1.4l.167-.037a.929.929,0,0,0-.388-1.818c-.31.066-.619.138-.929.206a6.214,6.214,0,0,1-.951-2.772s3.088-2.612,4.323-3.894a3.244,3.244,0,0,0,.767-2.892.731.731,0,0,0,.535-.781.734.734,0,0,0-1.463.032l-.019,0c-1.276.18-6.329,2.355-7.851,1.278-2.47-1.752-7.559-.628-7.559-.628a13.967,13.967,0,0,1-4.011-3.133c-1.376-1.874,1.215-2.983,2.525-4.026s1.876-1.975,1.708-2.56-1.213,1.006-2.486,1.575-1.687-.025-1.066-.683a18.688,18.688,0,0,0,2.736-4.708c.438-1.383-.1-2.71-.553-1.389-.568,1.655-1.783,3.947-2.644,4.365-.484.237-.65.106-.688-.221.091-1.548.2-3.17.332-4.605.32-3.611-1.319-4.98-1.191-3.492.111,1.321-.176,8.944-1.13,8.929-.857.1-1.143-6.383-1.185-6.879a5.636,5.636,0,0,0-.3-1.45c-.334-.962-.665-.152-.575.377a32.045,32.045,0,0,1,.1,3.339,58.12,58.12,0,0,0,.021,6.021c.043.55.13,1.095.217,1.629s.22,1.055.361,1.552a11.267,11.267,0,0,0,.51,1.4,10.662,10.662,0,0,0,3.37,4.161c1.429,1.028,3.395,2.617,3.395,2.617l-1.041.333c1.2,1.757,4.633,4.032,4.633,4.032a31.258,31.258,0,0,0,1.476,4.33A187.623,187.623,0,0,0,566.834,420.5c-9.306,4.717-20.455,7.954-33.522,9.711a7.31,7.31,0,0,1-1.757-3.99s3.089-2.615,4.321-3.9a3.236,3.236,0,0,0,.767-2.891.735.735,0,0,0,.539-.782.747.747,0,0,0-.821-.656.729.729,0,0,0-.641.687H535.7c-1.275.179-6.332,2.354-7.851,1.276-2.472-1.75-7.559-.627-7.559-.627a14.011,14.011,0,0,1-4.013-3.132c-1.374-1.875,1.216-2.983,2.524-4.027,1.328-1.056,1.878-1.976,1.71-2.559s-1.215,1.006-2.488,1.575-1.686-.026-1.065-.684a18.709,18.709,0,0,0,2.737-4.706c.438-1.384-.1-2.712-.551-1.39-.57,1.655-1.785,3.947-2.648,4.364-.482.237-.647.105-.687-.22.1-1.55.206-3.171.335-4.606.318-3.612-1.323-4.98-1.2-3.493.113,1.322-.171,8.944-1.128,8.931-.857.1-1.141-6.383-1.186-6.88a5.606,5.606,0,0,0-.3-1.45c-.332-.962-.669-.151-.574.378a32.189,32.189,0,0,1,.1,3.338,58.113,58.113,0,0,0,.02,6.022c.042.549.126,1.094.218,1.629a15.747,15.747,0,0,0,.362,1.551,10.429,10.429,0,0,0,.51,1.4,10.655,10.655,0,0,0,3.37,4.162c1.428,1.027,3.39,2.616,3.39,2.616l-1.037.333c1.2,1.758,4.632,4.033,4.632,4.033a30.2,30.2,0,0,0,1.6,4.6c-18.861,1.553-41.3.365-67.522-3.565a31.872,31.872,0,0,0-2.211-2.325c-3.432-3.259-3.408-5.82-3.408-5.82s3.091-2.615,4.323-3.9a3.239,3.239,0,0,0,.767-2.891.731.731,0,0,0,.535-.783.735.735,0,0,0-1.465.033.05.05,0,0,0-.018,0c-1.277.179-6.33,2.354-7.849,1.277-2.471-1.752-7.561-.628-7.561-.628a13.958,13.958,0,0,1-4.009-3.132c-1.376-1.874,1.212-2.983,2.522-4.028,1.326-1.054,1.875-1.974,1.71-2.558s-1.213,1-2.488,1.574-1.684-.025-1.066-.682a18.7,18.7,0,0,0,2.738-4.707c.438-1.386-.1-2.712-.552-1.39-.568,1.655-1.785,3.947-2.647,4.365-.485.236-.649.1-.686-.221.093-1.55.206-3.171.333-4.605.318-3.612-1.319-4.98-1.193-3.492.111,1.32-.174,8.942-1.129,8.929-.857.094-1.144-6.382-1.186-6.879a5.733,5.733,0,0,0-.3-1.451c-.336-.962-.668-.151-.575.378a31.537,31.537,0,0,1,.1,3.338,58.732,58.732,0,0,0,.022,6.022c.044.548.129,1.094.219,1.629a15.466,15.466,0,0,0,.361,1.551,10.444,10.444,0,0,0,.51,1.4,10.654,10.654,0,0,0,3.37,4.16c1.427,1.028,3.393,2.618,3.393,2.618l-1.041.332c1.2,1.758,4.634,4.032,4.634,4.032a23.566,23.566,0,0,0,2.306,5.862c.032.045.06.094.091.14q-18.583-3.209-39.531-8.108c-24.974-5.842-44.738.037-56.919,6a82.4,82.4,0,0,0-16.014,10.235,3.1,3.1,0,0,0-2.1.09,3.629,3.629,0,0,0-2.02,1.368,1.46,1.46,0,0,0-1.373-.039c-.88.47-.522.708-.827,1.041-.011.011-7.186,2.7-10.389,2.232a8.226,8.226,0,0,0,.723-3.152c.1-.563-.2-.857-.074-.976.15.038.276.442.28.433.186-.62-.234-.691-.264-1.22.165.018.441.107.5.236a.5.5,0,0,0,.046.119c.259-.8-1.112-.793-1.163-1.128a1.39,1.39,0,0,1,1.016.248c.029-.016-.052-.164-.061-.184-.183-.388-.726-.583-1.024-.88a2.284,2.284,0,0,1,.7.195.959.959,0,0,0-.784-.582c-.05,0-.085-.054-.117-.08.227-.036.746.071.692.014-.205-.132-.707-.475-1.051-.288-.079-.054-.161-.106-.245-.153.031-.008.635-.044.538-.108a1.65,1.65,0,0,0-.363-.088l.067-.04c1.345-.78.714-4.5-3.289-2.7-1.045-.04-1.029-.522-1.49-1.031l-.015-.017c.048-.167.05-.351.091-.521a2.723,2.723,0,0,1,.388.42c0-.36-.381-.64-.344-.756.069-.123.532.188.2-.121-.1-.1-.308-.2-.346-.357a1.094,1.094,0,0,1,.641.357c-.026-.125-.448-.72-.693-.594-.009-.017.013-.017.027-.032.1-.038.195-.4.086-.5-.033.132-.3.387-.23.254.082-.167-.051-.395-.161-.562-.033.167-.06.413-.061.416-.139-.136-.525-.785-.686-.658a.715.715,0,0,1,.262.335c-.942-.368-.4-.3-.337-.209a.246.246,0,0,0-.033-.2.25.25,0,0,0-.339-.04c.127-.2.4-.464.6-.218a.329.329,0,0,0-.554-.031c0-.035,0-.073,0-.11a5.91,5.91,0,0,1-4.434.186,8.037,8.037,0,0,0-2.338-1.154c-5.543-1.673-10.49-2.141-17.034,6.279a15.092,15.092,0,0,0-2.845,4.913,3.16,3.16,0,0,0-2.023-.742,3.231,3.231,0,1,0,2.823,1.733,3.558,3.558,0,0,0,.834-.283c2.6-1.2,4.835,2.534,7.5,1.007s4.808.749,3.425,2.7a2.274,2.274,0,0,0,.933,3.255c.94.423-.333,2.774.278,6.2.439,2.459.478,4.8-1.252,5.845-.022.183-.052.367-.093.551a9.957,9.957,0,0,1-.437,1.392,151.794,151.794,0,0,1-14.021-10.375c-5.552-4.618-10.847-6.563-15.574-6.923-.915-.536-1.741-1.06-2.529-1.559q-.447-.285-.876-.554h0c-.521-.326-1.025-.661-1.513-.984a25.594,25.594,0,0,0-5.061-2.794,5.4,5.4,0,0,1,3.193-2.95c2.117-.733,3.183-.093,3.475.751.171.494-.186.807-.516.983a1.888,1.888,0,0,0-1.056,2.309,1.839,1.839,0,0,0,2.429,1.07,2.783,2.783,0,0,0,1.6-1.585,3.531,3.531,0,0,0,.071-2.539c-.855-2.469-3.6-3.525-6.531-2.51a7.208,7.208,0,0,0-4.24,4.039,19.119,19.119,0,0,0-9.991.887A15.31,15.31,0,0,0,236,439.44a10.2,10.2,0,0,0-1.186,8.776A10.852,10.852,0,0,0,240.8,454.6a12.515,12.515,0,0,0,7.822.727,13.23,13.23,0,0,0,1.455-.414,12.285,12.285,0,0,0,3.045-1.541,9.5,9.5,0,0,1,.585,1.046l0,.009c4.419,8.1,3,25.983,7.419,36.842.106.01.207.025.311.037a13.4,13.4,0,0,0-4.532.288A15.329,15.329,0,0,0,245.48,509.7c1.816,8.1,9.8,13.287,18.856,11.254q.579-.13,1.138-.287c.724-.123,1.444-.262,2.155-.422l2.595-.582,7.061-1.584,10.445-2.344,12.745-2.86,13.961-3.132,14.1-3.162,13.144-2.95,11.11-2.492,7.992-1.793c1.264-.284,2.529-.562,3.791-.851l.165-.037a8.863,8.863,0,0,0,1.091-.3c8.527-2.332,13.16-10.181,11.4-18.023a15.33,15.33,0,0,0-18.065-11.491,14.178,14.178,0,0,0-3.347,1.185c.052-.239.1-.479.142-.722a21.537,21.537,0,0,0,.227-6.2c-.27-2.111-1.371-3.815-2.413-5.619-1.241-2.149-3.074-3.693-3.877-6.135a6.984,6.984,0,0,1,0-4.717,7.08,7.08,0,0,1,4.11-3.789,6.45,6.45,0,0,1,3.49-.433c3.735.7,5.288,5.122,4.118,8.395-.805,2.255-2.207,3.262-3.348,2.978a1.269,1.269,0,0,1-.95-1.042,1.268,1.268,0,0,0-.975-.866,1.646,1.646,0,0,0-1.966,1.014c-.325.908.163,2.239,2.077,2.715,2.247.559,4.908-1.051,6.158-4.551,1.779-4.98-1.3-10.4-6.859-11.784a11.513,11.513,0,0,0-13.613,7.241c-1.37,3.836-.7,7.338.244,10.541.2.684.418,1.353.63,2.009-.3.539-.626,1.035-.954,1.522-2.336-.737-3.654-3.2-4.2-6.173-.061.145-.122.294-.185.421-1.475,3.017-4.385-3.793-13.466-6.293-2.344-.645-5.4-.894-4-2.763a7.908,7.908,0,0,1,4.127-2.729c1.751-.548,3.17-.923,4.638-1.538.3-.172.8.475,1.819.016a1.346,1.346,0,0,0,.961-1.345,5.761,5.761,0,0,0,1.034-.114c1.678-.329,2.671-1.411,2.511-3.563a3.1,3.1,0,0,0-.366-1.244,80.836,80.836,0,0,1,15.389-9.8c11.912-5.83,31.238-11.577,55.681-5.858q21.777,5.094,41,8.361a21.141,21.141,0,0,1,1.044,3.586s-3.435,4.6-5.636,6.1-6.713,2.277-9.868,2.483c-6.943.443-9.194,2.331-9.194,2.331s-3.91-3.989-3.69-1.612a5.7,5.7,0,0,0,2.167,3.77c-.829,2.2.374,9.7.587,10.665s-3.339,4.548-5.28,5.741c-2.344,1.438-2.414,4.172-3.425,6.923s-5.7,9.161-5.7,9.161,2.23.8,3.163-.007,3.714-5.4,4.791-7.63c2.037-4.211,2.293-4.676,8.609-7.759,4.528-2.211,5.619-3.244,7.869-7.654,2.04-3.977,4.254-3.825,8.889-4.341a48.243,48.243,0,0,0,10.311-2.783s2.507,2.19,4.278,1.5,10.463-4.342,10.463-4.342l-6.231,7.039-6.5,1.572,1.937,2.064a42.038,42.038,0,0,0,4.98-.728c1.5-.323,3.41-4.068,6.627-6.77,4.294-3.606,4.373-6.245,2.908-6.932s-8.538.266-8.538.266c1.411-3.648-.31-7.6-2.516-10.73,25.925,3.774,48.157,4.841,66.893,3.207a18.653,18.653,0,0,1,1.872,5.294s-3.436,4.6-5.636,6.1-6.711,2.276-9.864,2.482c-6.946.444-9.2,2.329-9.2,2.329s-3.913-3.988-3.69-1.61a5.685,5.685,0,0,0,2.161,3.771c-.825,2.2.378,9.7.59,10.665s-3.337,4.547-5.281,5.74c-2.343,1.438-2.415,4.172-3.424,6.925s-5.694,9.158-5.694,9.158,2.227.8,3.163,0,3.71-5.406,4.788-7.632c2.035-4.208,2.291-4.675,8.609-7.757,4.526-2.212,5.621-3.245,7.87-7.654,2.04-3.978,4.257-3.825,8.891-4.341a48.429,48.429,0,0,0,10.309-2.782s2.508,2.188,4.275,1.493,10.464-4.342,10.464-4.342l-6.232,7.04-6.494,1.571,1.935,2.065a42.5,42.5,0,0,0,4.983-.729c1.5-.323,3.408-4.067,6.628-6.771,4.292-3.6,4.372-6.244,2.9-6.93s-8.539.265-8.539.265c2.244-5.8-3.421-12.367-6.382-15.175-.062-.058-.114-.115-.173-.173q19.135-2.729,32.885-9.709a185.672,185.672,0,0,1,36.867-14.024,17.87,17.87,0,0,1,2.089,5.64s-3.436,4.6-5.636,6.1-6.714,2.277-9.867,2.483c-6.944.444-9.195,2.331-9.195,2.331s-3.911-3.991-3.691-1.613a5.687,5.687,0,0,0,2.168,3.771c-.829,2.2.373,9.7.586,10.665s-3.338,4.548-5.28,5.741c-2.342,1.438-2.414,4.171-3.426,6.925s-5.694,9.159-5.694,9.159,2.229.8,3.161-.006,3.715-5.406,4.789-7.631c2.042-4.209,2.3-4.674,8.609-7.759,4.531-2.212,5.623-3.244,7.874-7.654,2.038-3.977,4.253-3.824,8.886-4.341a48.3,48.3,0,0,0,10.313-2.783s2.507,2.189,4.276,1.495,10.464-4.343,10.464-4.343l-6.232,7.041-6.5,1.57,1.935,2.064a41.833,41.833,0,0,0,4.983-.729c1.5-.321,3.407-4.066,6.626-6.77C630.079,425.885,630.155,423.246,628.687,422.559ZM246.224,436.707c-4.036,1.4-6.125,5.21-4.858,8.868a6.643,6.643,0,0,0,2.2,3.107,10.139,10.139,0,0,0,4.546,1.672,7.624,7.624,0,0,1,3.971,1.763,10.606,10.606,0,0,1-2.537,1.27,9.9,9.9,0,0,1-7.717-.361,9.693,9.693,0,0,1-4.8-5.578,8.906,8.906,0,0,1,.765-7.426,12.083,12.083,0,0,1,6.64-5.263,14.349,14.349,0,0,1,9.087-.35,8.7,8.7,0,0,0,.006,2.02A12.782,12.782,0,0,0,246.224,436.707Zm64.119,58.266a11.439,11.439,0,0,0-6.512-4.674c.067.018.135.032.2.052l10.041-2.253c.052-.046.107-.089.16-.134a11.437,11.437,0,0,0-3.89,7.008Zm-33.775,1.54c-.087.433-.166.842-.247,1.236a68.714,68.714,0,0,1-1.9,8.634,6.292,6.292,0,0,1-1.988-1.878,28.643,28.643,0,0,0,1.515-7.4Zm-3.592.806a23.723,23.723,0,0,1-1.2,6.025,13.38,13.38,0,0,1-1.327-5.459Zm-8.115,3.13a3.058,3.058,0,0,0,1.918-1.457q.1.138.183.282a4.6,4.6,0,0,1-.169,4.974c-.355.5.441,1,.8.5a5.507,5.507,0,0,0,.184-5.966c-.054-.09-.111-.177-.169-.263l1.9-.427a13.949,13.949,0,0,0,1.809,6.384,11.321,11.321,0,0,1-4.653,5.209c-2.467,1.481-6.321,1.542-8.2-1.587a4.657,4.657,0,0,1-.061-4.876c.318-.561-.585-1.043-.856-.471a6.509,6.509,0,0,0,.026,6.658c1.861,3.1,5.913,3.985,9.464,1.853a12.52,12.52,0,0,0,4.989-5.737,7.955,7.955,0,0,0,2.041,1.762,14.609,14.609,0,0,1-6.343,7.166c-5.659,3.4-12.1,2.146-14.938-2.58a9.861,9.861,0,0,1,3.592-13.864,9.535,9.535,0,0,1,6.557-1.383c-.072.083-.148.164-.226.246a2.017,2.017,0,0,0-.527,1.921A2.182,2.182,0,0,0,264.861,500.449Zm-5.388-61.43a24.263,24.263,0,0,0-4.212-2.051,6.2,6.2,0,0,1-.173-2.009,47.16,47.16,0,0,1,5.539,2.852c.5.287.975.562,1.436.817A21.744,21.744,0,0,0,259.473,439.019Zm4.217,80.558c-7.828,1.756-13.988-3.112-15.637-10.457s1.991-14.468,9.176-16.08c3.592-.806,5.889.142,6.262,1.8a1.747,1.747,0,0,1-.02.912,10.307,10.307,0,0,0-7.582,1.444c-5.689,3.415-7.637,10.4-4.548,15.545,3.054,5.087,10.609,6.283,17.05,2.417a18.561,18.561,0,0,0,7.1-7.208,7.47,7.47,0,0,0,3.058.357c-.705.711-1.4,1.433-2.091,2.152C272.583,514.541,268.891,518.41,263.69,519.577Zm32.61-7.24-13.144,2.949-11.11,2.493-.383.086a39.509,39.509,0,0,0,6.8-5.714c1.462-1.481,2.824-2.981,4.173-4.371,2.559.481,5.222,1.727,8.133,2.79a29.365,29.365,0,0,0,6.115,1.635Zm7-1.571-.819.183c-3.666.667-7.2-.693-10.906-2.13a36.792,36.792,0,0,0-7.674-2.305h0c2.382-2.31,4.81-4.152,7.762-4.814,5.254-1.179,9.1.888,13.464,3.285.829.435,1.554-.854.725-1.287-4.684-2.554-8.884-4.709-14.728-3.4A19.823,19.823,0,0,0,284,503.544a3.8,3.8,0,0,0-.542-2.3,2.892,2.892,0,0,0-3.781-1.252,1.5,1.5,0,0,0-.625,2.1,1.56,1.56,0,0,0,2.041.535,1.114,1.114,0,0,1,1.492.372,1.817,1.817,0,0,1,.178,1.469c-.773.61-1.517,1.257-2.243,1.929h0l0,0q-.366.339-.726.686a5.877,5.877,0,0,1-3.879,0c1.046-2.962,1.064-5.184,1.419-7.73.135-.967.259-1.992.429-3.111l16.368-3.673h0a3.942,3.942,0,0,0-1.027,3.508c.459,2.046,1.97,2.7,3.032,2.46a1.6,1.6,0,0,0,1.261-1.936,1.478,1.478,0,0,0-.953-1.109c-.543-.21-1.006-.435-1.156-1.105-.274-1.219.953-2.569,3.589-3.16,5.273-1.183,9.921,2.4,11.131,7.794C311.185,504.288,308.767,509.332,303.3,510.766Zm7.091-1.591-2.632.59a10.972,10.972,0,0,0,4.29-7.175v0A10.968,10.968,0,0,0,319,507.245Zm13.879-3.115-.819.184c-5.554,1.039-9.894-2.489-11.075-7.753-1.209-5.391,1.46-10.619,6.734-11.8,2.637-.592,4.322.1,4.6,1.324a1.525,1.525,0,0,1-.575,1.492,1.478,1.478,0,0,0-.386,1.41,1.6,1.6,0,0,0,1.967,1.212c1.061-.239,2.148-1.474,1.689-3.52a3.946,3.946,0,0,0-2.427-2.733h0l17.829-4c.633.939,1.183,1.813,1.717,2.629,1.409,2.15,2.375,4.152,4.586,6.383a5.99,5.99,0,0,1-2.944,1.574,38.138,38.138,0,0,0-4.565-1.273,1.791,1.791,0,0,1-.274-1.147,1.115,1.115,0,0,1,1.191-.975,1.559,1.559,0,0,0,1.616-1.355,1.5,1.5,0,0,0-1.46-1.628,2.893,2.893,0,0,0-2.884,2.748,3.8,3.8,0,0,0,.381,2.1,19.563,19.563,0,0,0-7.234.208c-5.843,1.311-8.72,5.054-11.864,9.364-.565.746.641,1.6,1.2.855,2.924-4.034,5.516-7.545,10.77-8.724a15.737,15.737,0,0,1,8.283.776c-.107.059-.214.118-.32.179a32.476,32.476,0,0,0-6.789,5.882C330.487,502.358,327.872,505.1,324.273,506.06Zm30.334-6.806-7.062,1.585L337.1,503.182l-7.232,1.623a29.424,29.424,0,0,0,4.832-4.091c2.454-2.486,4.525-5.046,6.979-6.545.105-.064.212-.127.319-.188,2.065.746,4.2,1.647,6.45,2.468a39.4,39.4,0,0,0,8.593,2.259Zm.066-26.035c.07-.149.14-.3.2-.45.636-1.113,2.182-2.128,4.607-2.672,7.185-1.612,13.518,3.273,15.166,10.619s-1.842,14.378-9.67,16.134c-5.2,1.167-10.193-.754-15.436-2.786-.969-.368-1.94-.737-2.917-1.091a7.58,7.58,0,0,0,2.235-1.482,18.551,18.551,0,0,0,9.5,3.485c7.476.744,13.8-3.566,14.383-9.47.595-5.973-4.15-11.455-10.753-12.112a10.473,10.473,0,0,0-7.114,1.665,1.82,1.82,0,0,1-.281-.656A2.153,2.153,0,0,1,354.673,473.219Zm-2.849,4.184a5.086,5.086,0,0,0,.451.964,6.264,6.264,0,0,0-.354,1.54,5.5,5.5,0,0,0,2.716,5.315c.535.3,1.039-.5.5-.8A4.6,4.6,0,0,1,352.864,480a5.392,5.392,0,0,1,.133-.755,3.133,3.133,0,0,0,2.753.81,2.182,2.182,0,0,0,1.718-2.638,2.019,2.019,0,0,0-1.3-1.511c-.176-.068-.345-.137-.5-.215a9.665,9.665,0,0,1,6.229-1.353,9.86,9.86,0,0,1,9.171,11c-.545,5.485-5.836,9.368-12.4,8.715a14.609,14.609,0,0,1-8.8-3.769,7.941,7.941,0,0,0,1.092-2.465,12.53,12.53,0,0,0,6.962,3.056c4.122.41,7.407-2.12,7.766-5.719a6.51,6.51,0,0,0-2.822-6.031c-.489-.4-1.1.42-.572.791a4.657,4.657,0,0,1,2.028,4.434c-.362,3.633-3.871,5.223-6.736,4.938a11.321,11.321,0,0,1-6.432-2.721,14.045,14.045,0,0,0-1.43-7.288c-.058.044-.119.082-.177.125A16.337,16.337,0,0,0,351.824,477.4Zm-4.074,3.139c.463-.251.91-.528,1.344-.821-.054.036-.105.076-.16.112a13.437,13.437,0,0,1,1.313,5.9,23.674,23.674,0,0,1-3.656-4.936Zm-2.132.478a28.588,28.588,0,0,0,4.532,6.048,6.3,6.3,0,0,1-.994,2.547,68.614,68.614,0,0,1-5.406-7c-.241-.322-.488-.658-.751-1.012Z"/></svg>