<svg id="Layer_1" data-name="Layer 1" xmlns="http://www.w3.org/2000/svg" viewBox="0 0 864 864"><defs><style>.cls-1{fill:#3e3238;}.cls-2{fill:#607848;}.cls-3{fill:#761113;}.cls-4{fill:#7d1113;}</style></defs><path class="cls-1" d="M290.665,506.752A44.189,44.189,0,1,0,335,551.178,44.149,44.149,0,0,0,290.665,506.752Zm.124,69.162a24.9,24.9,0,0,1-25.043-24.879c.112-15.457,12.977-25.407,24.9-24.96a24.92,24.92,0,1,1,.14,49.839Z"/><path class="cls-1" d="M640.567,506.744A44.194,44.194,0,1,0,684.612,551.2,44.121,44.121,0,0,0,640.567,506.744Zm-.4,69.17a24.92,24.92,0,1,1,24.88-24.984A24.843,24.843,0,0,1,640.171,575.914Z"/><path class="cls-2" d="M406.858,432.882q.5-.017,1.009-.024A3.453,3.453,0,0,1,406.858,432.882Zm-50.521.524H271.112q1.968,1.537,3.947,3.061c.328.252.654.508,1.069.83-.344.187-.537.316-.747.4a143.824,143.824,0,0,0-16.236,8.029l20.746.012.591-.391c.028.163.051.285.07.392l38.17.023c.707-2.614,1.466-5.215,2.309-7.794.125-.385.272-.763.409-1.144l.259.035c.058.451.122.9.174,1.353.287,2.517.567,5.035.858,7.552l29.511.018Q354.079,439.536,356.337,433.406Zm26.382,0h-22.56c.027.617.055,1.234.1,1.849q.35,5.28.909,10.536l17.674.01c.238-.809.468-1.621.71-2.429Q381.051,438.361,382.719,433.406Zm-121.013-7.593,60.272-.253,37.5-.157c.084-.165.17-.329.251-.494a2.231,2.231,0,0,1,.157.492l25.722-.108q1.656-4.4,3.509-8.739H251.306C254.67,419.76,258.149,422.832,261.706,425.813Zm-47.463-53.685a38.181,38.181,0,0,0,2.266,3.138q7.331,9.386,14.689,18.748,1.815,2.3,3.663,4.564a3.455,3.455,0,0,1,3.171-1.553,3.375,3.375,0,0,1,3.32,2.71,27.61,27.61,0,0,1,.352,4.584c.031.795.029,1.581.022,2.306.663.743,1.327,1.485,2,2.218.217.021.434.047.651.047q74.166-.171,148.332-.374,1.23-2.621,2.524-5.207a9.127,9.127,0,0,1,.139-1.641,3.79,3.79,0,0,1,2.15-2.824q2.3-4.362,4.812-8.618c.225-.381.48-.744.72-1.115l.221.1c-.031.375-.053.751-.093,1.126-.267,2.528-.594,5.051-.8,7.585-.065.8-.121,1.6-.177,2.4a4.511,4.511,0,0,1,.511,1.491,23.316,23.316,0,0,1,.155,3.166c.024,1.041.006,2.082.006,3.436,1.5.051,2.715.075,3.925.139a13.72,13.72,0,0,1,2.858.259,3.676,3.676,0,0,1,2.714,3.939A3.562,3.562,0,0,1,409.213,416a26.5,26.5,0,0,1-2.88.149c-1.031.048-2.062.1-3.274.156v8.983c1.935,0,3.654-.039,5.37.016a8.331,8.331,0,0,1,2.54.379,3.551,3.551,0,0,1,1.732,1.357c.7-1.726,1.389-3.46,2.023-5.212.828-2.293,1.688-4.572,2.563-6.845q0-11.789-.034-23.576c-.032-8.222,3.644-13.659,9.793-18.093a13.855,13.855,0,0,1,8.4-2.482c.973,0,1.945-.009,2.918-.011.961-1.526,1.952-3.035,2.986-4.519.255-.366.537-.715.853-1.134.091.224.147.294.141.359-.022.233-.059.465-.1.7-.269,1.526-.5,3.055-.713,4.586q9.825-.034,19.651-.1a109.48,109.48,0,0,1,10.966-19.562c.235-.33.491-.645.737-.967a27.256,27.256,0,0,1-.111,3.949,117.366,117.366,0,0,0-.552,15c.028.5.064,1,.111,1.5l8.515-.069c.131-.463.259-.926.38-1.391.825-3.181,1.6-6.375,2.443-9.55a163.967,163.967,0,0,1,5.946-18.047c.144-.364.329-.713.5-1.069a32.757,32.757,0,0,1,.341,3.343,18.9,18.9,0,0,0,.65,3.558,3.588,3.588,0,0,0,3.234,2.678,3.706,3.706,0,0,0,3.613-1.957,9.243,9.243,0,0,0,.764-1.58c.295-.766.517-1.56.8-2.332q2.356-6.509,4.73-13.012c.14-.383.342-.744.583-1.26.289.475.456.774.646,1.057a3.428,3.428,0,0,0,3.8,1.427,3.881,3.881,0,0,0,2.372-1.8A22.264,22.264,0,0,0,512.966,328c.985-2.216,1.849-4.489,2.912-6.666a28.435,28.435,0,0,1,6.887-9.536,3.11,3.11,0,0,0,1.114-2.944,3.171,3.171,0,0,0-4.22-2.547,19.893,19.893,0,0,1-6.254.827c-2.38-.062-4.763-.232-7.127-.507-2.056-.239-4.081-.734-6.133-1.029a10.159,10.159,0,0,0-3.026-.092,3.487,3.487,0,0,0-2.667,5.289,5.544,5.544,0,0,1,.309.719c-.546-.08-.928-.112-1.3-.195q-6.411-1.444-12.817-2.9c-1.029-.236-2.038-.559-3.071-.773a9.221,9.221,0,0,0-2.091-.217,3.676,3.676,0,0,0-2.979,5.905,9.96,9.96,0,0,0,1.842,1.951c1,.815,2.091,1.51,3.137,2.265.189.136.348.314.708.646-.659-.1-1.044-.143-1.421-.225-1.873-.4-3.748-.8-5.616-1.233a210.3,210.3,0,0,1-21.118-6.351c-1.478-.509-2.973-.987-4.489-1.36a7.1,7.1,0,0,0-2.548-.185,3.386,3.386,0,0,0-2.83,4.5,4.883,4.883,0,0,0,.985,1.7,11.892,11.892,0,0,0,2.082,1.878c2.158,1.485,4.311,2.989,6.568,4.311,3.239,1.9,6.571,3.635,9.86,5.446.278.153.538.34.806.512a29.949,29.949,0,0,1-4.528.345,116.158,116.158,0,0,1-26.314-2.83c-6.154-1.329-12.254-2.906-18.384-4.348-1.75-.412-3.509-.813-5.285-1.075a9.788,9.788,0,0,0-3.145.021,3.842,3.842,0,0,0-2.542,6.2,11.29,11.29,0,0,0,2.126,2.329c2,1.631,4,3.274,6.135,4.712a129.951,129.951,0,0,0,21.509,11.708c.373.159.74.333,1.109.5l-.044.255c-.413.029-.826.081-1.239.082-2.542.011-5.085.071-7.625,0a234.4,234.4,0,0,1-28.58-2.949c-8.748-1.316-17.4-3.106-26.031-5.048-2.249-.506-4.52-.942-6.8-1.27a8.648,8.648,0,0,0-3.134.128,3.654,3.654,0,0,0-2.567,5.127,7.815,7.815,0,0,0,1.333,2.047,20.665,20.665,0,0,0,2.2,2.1,105.587,105.587,0,0,0,12.307,8.99,180.143,180.143,0,0,0,17.97,9.917,2.125,2.125,0,0,1,1.057.674,1.138,1.138,0,0,1-.286.094c-.939-.025-1.877-.041-2.814-.088a230.319,230.319,0,0,1-50.957-8.4c-7.229-2.036-14.406-4.254-21.618-6.35-2.025-.589-4.079-1.1-6.146-1.52a8.058,8.058,0,0,0-2.905-.042,3.626,3.626,0,0,0-2.882,4.858,6.009,6.009,0,0,0,1.077,1.927,22.79,22.79,0,0,0,2.53,2.6c9.578,8.3,19.192,16.559,29.886,23.439a4.011,4.011,0,0,1,.533.575c-.568-.083-.913-.121-1.254-.185a195.922,195.922,0,0,1-33.75-9.429c-7.976-3.048-15.654-6.758-23.307-10.523-4.844-2.383-9.667-4.808-14.533-7.144a40.625,40.625,0,0,0-5.019-1.964,6.577,6.577,0,0,0-2.653-.265,3.515,3.515,0,0,0-3.028,4.708,6.218,6.218,0,0,0,1,1.839,24.541,24.541,0,0,0,2.1,2.363c3.372,3.376,6.785,6.71,10.146,10.1a444.022,444.022,0,0,0,38.845,35.364c.231.184.439.395.658.594a3.366,3.366,0,0,1-1.519-.139,260.816,260.816,0,0,1-51.3-20.614c-8.9-4.7-17.324-10.193-25.731-15.708-2.452-1.609-4.91-3.211-7.389-4.778a10.852,10.852,0,0,0-2.206-1.076,3.428,3.428,0,0,0-3.7.79,3.291,3.291,0,0,0-.875,3.566A12.61,12.61,0,0,0,214.243,372.128Z"/><path class="cls-3" d="M708.756,481.044c-1.355-6.649-5.087-11.028-10.97-13.909a29.239,29.239,0,0,0-10.24-2.8c-1.162-.108-1.761-.491-1.892-1.657a10.882,10.882,0,0,0-.43-1.676A44.172,44.172,0,0,0,673.4,440.491a27.677,27.677,0,0,0-15.755-7.829c-3.624-.482-7.261-.87-10.892-1.3q-13.19-1.551-26.379-3.1-15.91-1.892-31.817-3.813c-11.084-1.323-22.164-2.677-33.257-3.909-1.588-.176-2.059-.87-2.348-2.254a72.378,72.378,0,0,0-12.328-27.447,59.224,59.224,0,0,0-15.554-15.326,29.036,29.036,0,0,0-17.1-5.258c-4.621.133-9.246.144-13.87.181-19.553.155-39.107.355-58.661.391a13.855,13.855,0,0,0-8.4,2.482c-6.149,4.434-9.825,9.871-9.793,18.093.151,38.329-.132,76.659-.253,114.99-.019,6.049,0,12.1,0,18.754-3.257-2.155-4.872-4.279-4.844-7.865.178-22.342.163-44.686.208-67.029.009-4.429,0-4.432-4.543-4.435l-5.044,0q.015-4.561.03-9.124c0-1.127.1-2.254.157-3.62,1.362-.069,2.488-.129,3.614-.182a32.76,32.76,0,0,0,3.743-.19,3.654,3.654,0,0,0,.651-7.02,8.331,8.331,0,0,0-2.54-.379c-1.716-.055-3.435-.016-5.37-.016V416.3c1.212-.058,2.243-.108,3.273-.156a26.492,26.492,0,0,0,2.881-.149,3.562,3.562,0,0,0,3.164-3.246,3.676,3.676,0,0,0-2.714-3.939,13.72,13.72,0,0,0-2.858-.259c-1.21-.064-2.422-.088-3.925-.139,0-1.354.018-2.395-.006-3.436a23.316,23.316,0,0,0-.155-3.166,3.61,3.61,0,0,0-3.448-3.292,3.7,3.7,0,0,0-3.9,3.148,16.46,16.46,0,0,0-.148,2.876c-.022,1.223,0,2.446,0,3.582a5.3,5.3,0,0,1-1.16.387q-74.841.2-149.682.377a16.6,16.6,0,0,1-1.993-.2.52.52,0,0,1-.248-.143,6.063,6.063,0,0,1-.422-.557c0-1,.041-2.333-.011-3.667a27.61,27.61,0,0,0-.352-4.584,3.375,3.375,0,0,0-3.32-2.71,3.442,3.442,0,0,0-3.579,2.373,10.755,10.755,0,0,0-.442,3.107c-.065,2-.019,4-.019,6.277-1.408.067-2.535.146-3.663.169-2.6.054-5.208-.033-7.8.155a3.662,3.662,0,0,0-3.455,3.616,3.8,3.8,0,0,0,3.063,3.7,9.559,9.559,0,0,0,2.011.144c2.408.014,4.817-.017,7.224.009.825.008,1.647.134,2.452.2v8.959c-1.158.054-2.1.126-3.049.137-2.215.025-4.432-.035-6.645.043-2.641.094-4.282,1.52-4.382,3.665-.1,2.252,1.553,3.795,4.377,3.941,1.633.085,3.274-.012,4.911.007,1.6.019,3.2.081,4.736.122a6.24,6.24,0,0,1,.289,1.136q.032,5.46.063,10.922l-13-.008c-.193,0-.385,0-.578,0-3.074.011-3.074.011-3.076,2.952a35.589,35.589,0,0,0,.027,3.754,2.8,2.8,0,0,1-1.846,3.17,47.723,47.723,0,0,0-8.442,4.971,6.463,6.463,0,0,1-4.1,1.07c-7.61-.021-15.22.01-22.831.023-.963,0-1.927-.018-2.889.013-.868.028-1.844.019-2.139,1.067-.291,1.031.419,1.682,1.249,2a4.967,4.967,0,0,1,2.583,2.951,21.88,21.88,0,0,1,1.563,4.641c3.23,14.464,3.131,29.054,1.3,43.646a10.634,10.634,0,0,0,4.295,10.575,67.561,67.561,0,0,0,15.545,8.744c1.159.5,2.048.907,1.966,2.391-.16,2.864,1.4,4.612,3.91,5.676,1.063.45,2.1.952,3.171,1.387a124.741,124.741,0,0,0,17,5.491,53.786,53.786,0,0,0,10.519,1.748c2.14.1,2.5-.215,2.878-2.259.069-.377.053-.769.109-1.15,5.007-45.751,42.742-49.924,58.207-46.663,12,2.531,21.468,9.224,28.9,18.819a60.893,60.893,0,0,1,12.34,30.384c.44,3.552.413,3.539,3.82,3.276,1.247-.1,2.5-.119,3.753-.135,6.357-.083,12.714-.189,19.071-.22,44.7-.222,89.393-.183,134.09-.558,28.223-.237,56.449-.218,84.674-.317a13.3,13.3,0,0,0,2.592-.089c1.094-.224,1.844-.931.994-2.045a2.708,2.708,0,0,1-.276-2.454c2.537-13.572,6.644-26.878,16.806-36.261,11.532-10.647,26.971-14.78,42.866-12.1,15.968,2.69,26.127,12.626,31.857,27.449-.142,2.888,1.888,4.516,3.724,6.17a23.245,23.245,0,0,0,16.438,5.9c1.349-.015,1.939-.622,1.923-1.927-.008-.674.01-1.348.017-2.022.108-10.015.24-20.03.3-30.045a8.371,8.371,0,0,1,1.358-4.573C708.622,494.973,710.261,488.425,708.756,481.044ZM579.255,450.9a24.829,24.829,0,0,1,3.156-.181q25.254.114,50.507.249c10.968.043,21.936.033,32.9.051a22.125,22.125,0,0,1,2.3.071,1.348,1.348,0,0,1,1.324,1.29,1.3,1.3,0,0,1-1.273,1.322,17.162,17.162,0,0,1-2.3.066c-14.046,0-70.423-.377-84.564-.381a15.888,15.888,0,0,1-2.013-.091,1.1,1.1,0,0,1-1.031-1.173A1.12,1.12,0,0,1,579.255,450.9Zm87.59,6.829a1.189,1.189,0,0,1-1.012,1.228,17.238,17.238,0,0,1-2.581.16c-12.415.009-61.881.488-74.2.478a7.752,7.752,0,0,1-2.86-.177,1.271,1.271,0,0,1-.885-1.042,1.144,1.144,0,0,1,.89-1.3,12.085,12.085,0,0,1,2.567-.223c14.147-.08,63.806-.4,74.488-.486a16.7,16.7,0,0,1,2.58.148A1.147,1.147,0,0,1,666.845,457.73Zm-98.027,10.08c.112,1.123-.756,1.509-1.668,1.533-2.5.066-4.993.04-7.489.05-.384,0-.769,0-1.153,0v.015c-2.4,0-4.8.014-7.2-.009a9.211,9.211,0,0,1-1.984-.206,1.169,1.169,0,0,1-.888-1.028,1.2,1.2,0,0,1,.873-1.322,5.384,5.384,0,0,1,1.691-.226c5.089-.024,10.179-.026,15.268-.033.288,0,.576,0,.864.011C567.976,466.612,568.727,466.9,568.818,467.81Zm-3.629-5.27c-2.309.019-4.619.006-6.928.006v-.066c-2.117,0-4.234,0-6.35,0a14.218,14.218,0,0,1-1.729-.056c-.829-.1-1.512-.464-1.456-1.44a1.341,1.341,0,0,1,1.346-1.256,10.631,10.631,0,0,1,1.44-.049l13.567.084c1.124.011,2.674-.216,2.727,1.351C567.861,462.727,566.319,462.53,565.189,462.54Zm-.794-7.077c-3.654.007-7.308-.014-10.962-.023-.962,0-1.923,0-2.885-.015a8.149,8.149,0,0,1-1.433-.112c-.824-.165-1.488-.585-1.333-1.546.125-.773.747-1.063,1.491-1.067q3.029-.015,6.057-.015,1.3,0,2.6,0v.008c2.212,0,4.426-.056,6.634.023,1.138.041,2.7-.575,3.054,1.262C567.81,455,566.786,455.459,564.4,455.463Zm2.931-8.011c-.31,1.617-1.679,1.266-2.769,1.283-2.49.038-4.981.012-7.471.012v.026c-2.491,0-4.982.007-7.472-.005a9.489,9.489,0,0,1-1.711-.126,1.072,1.072,0,0,1-.873-1,1.135,1.135,0,0,1,.8-1.347,7.617,7.617,0,0,1,1.972-.268q7.327-.06,14.656-.063C566.626,445.964,567.522,446.432,567.326,447.452Zm-20.979-6.173c.077-1.32,1.206-1.273,2.181-1.275,2.594-.006,5.187,0,7.78,0v-.059c2.69,0,5.379-.006,8.069,0,.925,0,1.825.181,1.773,1.361-.042.98-.85,1.188-1.665,1.2-5.377.095-10.754.188-16.131.249C547.358,442.77,546.271,442.594,546.347,441.279Zm-91.1-48.934c1.314-2.568,3.117-3.62,6.178-3.6,15.875.085,31.751-.1,47.627-.177.864,0,1.73.048,2.593.094a7,7,0,0,1,6.347,4.263c3.85,8.059,8.121,15.926,10.92,24.459,1.318,4.018,2.992,7.9,4.669,11.786,1.759,4.072,1.19,4.989-3.188,5-11.642.025-57.824.61-69.272.7a6.3,6.3,0,0,1-4.88-1.876,16.353,16.353,0,0,1-4.15-6.838C448.473,414.459,449.687,403.2,455.242,392.345Zm-8.77,55.86a3.2,3.2,0,0,1,3.1-2.191c2.877-.106,5.734-.366,8.595-.647,3.337-.329,6.683-.564,10.023-.866.992-.089,2.008-.2,2.406.972a2.2,2.2,0,0,1-1.053,2.471,10.073,10.073,0,0,1-5.086,1.808,33.351,33.351,0,0,1-7.661.452,12.109,12.109,0,0,1-1.8-.018c-1-.118-1.866-.192-2.476.886a2.6,2.6,0,0,1-1.331,1.024,3.68,3.68,0,0,1-4.017-.7A2.891,2.891,0,0,1,446.472,448.205Zm-18.8-59.258a10.864,10.864,0,0,1,12.561,6.74,5.089,5.089,0,0,1,.386,1.939c-.045,2.592.02,5.185.03,7.778s.132,17.406.307,22.207a4.07,4.07,0,0,1-2.845,4.39,32.844,32.844,0,0,1-10.364,2.265c-2.011.173-2.492-.368-2.537-2.532-.1-5-.12-10-.2-15-.125-7.979-.285-15.957-.4-23.935C424.568,389.877,424.9,389.513,427.669,388.947Zm2.775,99.026q-.314,16.9-.632,33.794a12.365,12.365,0,0,1-.126,2.013,1.225,1.225,0,0,1-1.2,1.055,1.167,1.167,0,0,1-1.212-1.018,7.873,7.873,0,0,1-.12-1.717q.572-33.942,1.165-67.882a17.266,17.266,0,0,1,.206-2.582,1.215,1.215,0,0,1,2.331-.042,7.648,7.648,0,0,1,.15,1.716q-.279,17.331-.58,34.662Zm-188.4-71.419H395.085v8.7l-73.107.306-79.931.335ZM365.953,543.926c-.08.785-.324,1.743-1.093,1.92-1.2.276-1.647-1.508-1.557-2.735a52.23,52.23,0,0,0-7.226-30.414c-8-13.36-20.709-22.745-34.8-28.418-27.315-10.994-62.232-11.367-88.754,2.577A53.324,53.324,0,0,0,213.8,502.394a35.3,35.3,0,0,0-7.153,19.784c-.044,1.111.2,2.684-1.428,2.651-1.519-.03-1.431-1.547-1.469-2.695-.528-16,5.709-28.6,19.038-37.556,17.723-11.9,41.176-14.308,62-13.772,24.442.63,48.986,7.435,65.426,26.086C361.46,509.652,367.677,527,365.953,543.926ZM241.845,445.718q-.007-4.281-.014-8.563c0-1.12,0-2.24,0-3.749H395.189c0,1.154,0,2.29,0,3.426q-.012,4.49-.022,8.979Zm320.593,100.8a7.122,7.122,0,0,1-2.856.257q-24.273.117-48.547.212c-13.87.032-27.741.054-38.435.3-33.42.163-63.666.31-93.912.46-.288,0-.578.067-.864.048-.93-.061-1.8-.315-1.762-1.452.029-.989.829-1.181,1.648-1.212.577-.021,1.156-.007,1.734-.011q31.929-.241,63.859-.477,58.083-.342,116.165-.617a23.559,23.559,0,0,1,2.874.138,1.081,1.081,0,0,1,.9.991A1.205,1.205,0,0,1,562.438,546.519ZM684.512,471.6a1.187,1.187,0,0,1-1.263.969,20.988,20.988,0,0,1-2.859-.355c-15.482-3.029-31.84-4.938-47.578-4.083-13.474.733-65.95,2.836-75.828,60.2-.113.653.135,1.346-.088,1.97-.475,1.329-1.816,1.031-2.929,1.046l-49.7.649c-16.179.286-32.359.532-48.541.585-.866,0-1.737.022-2.6-.057a1.067,1.067,0,0,1-1.006-1.184,1.1,1.1,0,0,1,1.01-1.188,15.526,15.526,0,0,1,1.725-.124c8.089-.146,16.178-.316,24.268-.42q27.594-.354,55.187-.66c5.875-.074,11.749-.216,17.623-.34,2.13-.044,1.922-.074,2.172-2.273,10-87.994,128.912-56.843,129.892-56A1.227,1.227,0,0,1,684.512,471.6ZM587.893,569.43H341.356v-8.539H587.893Z"/><path class="cls-1" d="M146.576,592.979C139.5,581.842,134.3,569.053,129.31,556.69c-4.144-10.26-7.889-20.736-11.129-31.406-3.225-1.168-5.663-4.646-8.64-6.485-4.125-2.546-8.744-3.584-12.863-6.015-1.109-.654-.994-2.9.381-3.079,5.056-.65,10.588,1.969,14.868,4.749,1.15.748,2.525,1.594,3.852,2.559q-1.881-6.818-3.49-13.731a46.629,46.629,0,0,0-11.5-8.842c-5.052-2.559-10.255-3.661-15.533-5.461-2.084-.712-1.389-3.818.606-3.9,8.163-.331,17.345,3.58,24.477,9.3-1-4.877-1.924-9.778-2.71-14.7-5.437-1.781-10.579-6.857-15.266-10.2-3.18-2.258-6.188-4.159-10.088-4.231a1.98,1.98,0,0,1-1.527-.926l.026-.006a2.582,2.582,0,0,1-.4-.872,2.228,2.228,0,0,1,1.6-2.659c4.975-.4,8.786,1.716,12.884,4.651,3.612,2.588,8.318,5.176,11.908,8.4-.737-5.223-1.358-10.468-1.831-15.728-3.282-3.535-5.485-7.918-9.512-11.051-4.228-3.281-9.334-7.277-14.481-8.549-1.876-.458-2.472-3.994-.144-4.093,5.956-.241,12.787,4.7,17.408,8.419a59.545,59.545,0,0,1,6,5.4c-.174-3.032-.311-6.068-.391-9.106-.043-1.646-.04-3.3-.054-4.948-1.723-2.106-2.772-4.765-4.441-6.977a40.839,40.839,0,0,0-5.784-6.467c-3.5-3.018-7.893-4.931-11.042-8.378a1.062,1.062,0,0,1,.615-1.653c5.641-.533,11.58,4.224,15.441,8.2a63.075,63.075,0,0,1,5.286,6.007q.288-11.61,1.56-23.221a1.353,1.353,0,0,1-.923-.454c-1.456-1.729-1.835-4.015-2.839-6.054a32.435,32.435,0,0,0-3.749-6.008c-2.359-2.919-6.746-9.124-10.64-9.552-2.269-.24-2.157-4.333.143-4.375,5.318-.088,10.175,6.021,13.356,10.041a34.743,34.743,0,0,1,5.549,9.132c.394-2.865.822-5.723,1.309-8.573-1.933-5.466-2.341-11.4-4.968-16.8A65.585,65.585,0,0,0,89.96,351.554a1.7,1.7,0,0,1,2.155-2.627,47.763,47.763,0,0,1,13.488,16.9,77.884,77.884,0,0,1,4,9.593q1.8-8.457,4.146-16.752c-.97-2.008-1.237-4.319-2.647-6.156a75.167,75.167,0,0,1-4.47-7.163c-2.942-4.89-6.14-9.508-9.514-14.1-1.629-2.223,1.836-5.3,3.585-3.208a77.162,77.162,0,0,1,10.344,16.286c1.354,2.814,1.637,5.83,2.807,8.626.32.765.635,1.477.931,2.181q2.539-8.478,5.654-16.712a1.732,1.732,0,0,1-1.235-1.329c-1.368-5.234-2.021-10.435-4.351-15.4a64.723,64.723,0,0,0-8.616-13.373c-1.583-1.953.847-4.624,2.685-2.913,6.842,6.373,12.8,16.853,13.99,26.839q2.189-5.3,4.618-10.467a1.515,1.515,0,0,1-1.586-1.444c-.539-5.214-.193-10.624-1.294-15.785-1.094-5.131-3.059-9.729-5.013-14.563-.841-2.085,1.753-3.7,2.946-1.774,6.007,9.643,6.364,19.453,6.354,30.557,2.563-5.234,5.344-10.328,8.285-15.3-.933-4,.467-8.772.381-12.9-.112-5.186-1.185-10.288-1.092-15.494a1.207,1.207,0,0,1,2.263-.58c2.507,4.8,3.057,10.672,3.073,16.07,0,1.69.069,3.57,0,5.454.821-1.263,1.627-2.536,2.473-3.778,1.663-5.069,4.56-9.845,6.82-14.556,2.062-4.313,3.815-10.38,6.812-14.012a1.9,1.9,0,0,1,2.117-.77l.4.134a2.554,2.554,0,0,1,1.6,3.177c-1.765,5.6-5.028,11.089-7.61,16.367-2.391,4.878-4.466,10.118-8.017,14.273.513-.366,1.04-.731,1.574-1.133,1.963-1.478,3.9-3,5.752-4.606,2.156-1.882,5.347-6.423,8.469-5.5,3.551,1.033-3.879,7.237-4.484,7.79-3.341,2.9-8.386,8.541-12.977,8.772a1.258,1.258,0,0,1-1.284-.9q-4.848,9.249-9.092,18.818c.492-.363.973-.7,1.41-1.006a54.516,54.516,0,0,1,7.827-4.824,29.953,29.953,0,0,1,6.753-1.957,1.165,1.165,0,0,1,.9,2.115c-3.486,2.764-6.942,5.164-10.627,7.724a28.576,28.576,0,0,0-5.213,4.058,23.567,23.567,0,0,1-3.1,3.444,1.528,1.528,0,0,1-1.94-.1q-2.205,5.474-4.2,11.039c5.625-4.827,11.939-10.052,18.9-12.262,1.458-.462,2.946,1.591,1.655,2.714-4.8,4.182-10.543,7.23-15.5,11.346-2.8,2.329-6.034,4.74-8.284,7.728-1.258,3.936-2.416,7.908-3.506,11.9.588-.616,1.171-1.2,1.734-1.756,5.131-5.047,11.894-10.988,18.518-13.509,1.771-.674,2.982,1.6,1.9,2.963-4.463,5.612-11.485,8.9-16.587,14.011-2.631,2.636-5.383,5.488-7.09,8.922-.818,1.645-1.491,3.315-2.262,4.941-1.126,5.295-2.081,10.64-2.9,16.02a47.648,47.648,0,0,1,4.148-4.865c4.186-4.35,9.585-10.739,15.955-10.225a1.664,1.664,0,0,1,.66,2.952,56.937,56.937,0,0,0-13.941,11.994,37.238,37.238,0,0,0-5.648,8.791c-.88,2.064-1.356,3.638-2.825,5.283a1.471,1.471,0,0,1-.126.109q-.87,8.809-1.143,17.736a41.076,41.076,0,0,1,3.149-4.748c3.118-4.1,9.925-13.131,15.53-11.657a1.7,1.7,0,0,1,.775,2.963c-4.883,3.979-9.877,7.89-13.39,13.394-2.968,4.654-3.669,10.056-6.157,14.776q.129,5.495.476,10.976a72.98,72.98,0,0,1,3.02-6.928,40.971,40.971,0,0,1,5.588-8.782c2.254-2.589,5.773-4.9,7.4-7.878.867-1.584,3.114-.353,3,1.206-.411,5.411-7.172,9.722-9.872,14.366a49.775,49.775,0,0,0-5.219,12.01c-.857,3.189-1.094,6.517-2.33,9.564a2,2,0,0,1-.351.566c.574,5.19,1.262,10.365,2.1,15.51,1.9-10.068,8.68-20.371,15.948-23.525.788-.344,1.948.421,1.507,1.38-2.676,5.845-7.933,9.943-10.217,16.233-2.259,6.241-1.766,12.624-3.312,18.905a1.532,1.532,0,0,1-1.255,1.134c.261,1.232.518,2.465.793,3.693,3.016-7.084,8.953-13.294,14.061-17.337a1.378,1.378,0,0,1,2.21,1.459c-.916,5.086-6.131,8.137-8.6,12.56-2.583,4.627-3.393,9.6-4.964,14.484q1.314,5.01,2.782,9.969c.308,1.042.637,2.078.954,3.117a47.854,47.854,0,0,1,10.34-19.441c1.361-1.452,4.219.126,3.422,2.123-1.931,4.856-5.191,9.051-6.892,14.087-1.692,5.015-1.182,10.567-2.909,15.421q3.834,11.142,8.353,21.963c4.767,11.356,10.716,22.218,15.517,33.421C152.579,593.291,148.284,595.66,146.576,592.979Z"/><path class="cls-1" d="M773.429,591.168c6.294-11.6,10.6-24.715,14.725-37.393,3.428-10.521,6.441-21.23,8.939-32.1,3.137-1.386,5.329-5.025,8.172-7.064,3.94-2.825,8.477-4.179,12.419-6.887,1.061-.729.791-2.964-.592-3.046-5.089-.3-10.428,2.694-14.506,5.763-1.1.825-2.409,1.764-3.667,2.818q1.407-6.931,2.537-13.939a46.587,46.587,0,0,1,10.868-9.613c4.864-2.9,9.978-4.359,15.119-6.518,2.031-.854,1.124-3.9-.873-3.848-8.166.233-17.057,4.767-23.778,10.961.667-4.935,1.246-9.887,1.691-14.856,5.3-2.152,10.082-7.569,14.527-11.224,3.017-2.472,5.887-4.575,9.773-4.916a1.978,1.978,0,0,0,1.459-1.029l-.027,0a2.577,2.577,0,0,0,.335-.9,2.228,2.228,0,0,0-1.782-2.542c-4.992-.06-8.647,2.317-12.534,5.527-3.425,2.831-7.941,5.737-11.3,9.2.375-5.262.633-10.537.743-15.817,3.032-3.753,4.927-8.278,8.729-11.68,3.991-3.565,8.81-7.9,13.857-9.526,1.84-.587,2.191-4.155-.138-4.093-5.959.17-12.432,5.572-16.786,9.6a59.34,59.34,0,0,0-5.615,5.8c-.036-3.038-.108-6.076-.238-9.112-.07-1.645-.187-3.294-.287-4.94,1.574-2.219,2.437-4.945,3.95-7.266a40.9,40.9,0,0,1,5.325-6.851c3.288-3.252,7.534-5.463,10.438-9.118a1.062,1.062,0,0,0-.727-1.607c-5.664-.143-11.261,5.011-14.839,9.243a63.089,63.089,0,0,0-4.86,6.357q-1.087-11.563-3.156-23.058a1.353,1.353,0,0,0,.89-.516c1.332-1.826,1.554-4.133,2.415-6.236a32.352,32.352,0,0,1,3.326-6.252c2.153-3.075,6.1-9.567,9.957-10.262,2.247-.4,1.853-4.472-.444-4.355-5.312.278-9.736,6.707-12.633,10.937a34.76,34.76,0,0,0-4.907,9.493c-.59-2.831-1.215-5.653-1.9-8.463,1.552-5.586,1.551-11.532,3.8-17.1a65.6,65.6,0,0,1,11.443-18.319,1.7,1.7,0,0,0-2.331-2.472,47.772,47.772,0,0,0-12.292,17.785,78.126,78.126,0,0,0-3.329,9.846q-2.373-8.313-5.289-16.426c.828-2.07.936-4.394,2.216-6.324a75.294,75.294,0,0,0,3.966-7.453c2.6-5.081,5.471-9.909,8.52-14.725,1.472-2.33-2.2-5.164-3.8-2.954a77.192,77.192,0,0,0-9.2,16.96c-1.157,2.9-1.231,5.929-2.206,8.8-.266.785-.532,1.517-.778,2.24q-3.118-8.283-6.792-16.283A1.735,1.735,0,0,0,783.11,334c1-5.316,1.3-10.55,3.279-15.659a64.672,64.672,0,0,1,7.675-13.935c1.444-2.057-1.164-4.554-2.88-2.721-6.386,6.829-11.613,17.695-12.108,27.739q-2.547-5.141-5.327-10.124a1.516,1.516,0,0,0,1.483-1.55c.177-5.239-.541-10.612.2-15.837.738-5.194,2.381-9.916,4-14.873.695-2.138-2-3.57-3.061-1.567-5.328,10.034-5.009,19.845-4.234,30.922-2.917-5.045-6.043-9.936-9.319-14.69.656-4.052-1.07-8.719-1.268-12.843-.246-5.181.473-10.345.022-15.532a1.207,1.207,0,0,0-2.3-.423c-2.17,4.957-2.314,10.857-1.959,16.244.112,1.686.177,3.566.371,5.441-.906-1.2-1.8-2.418-2.727-3.6-2.008-4.942-5.228-9.507-7.807-14.052-2.354-4.16-4.52-10.092-7.761-13.509a1.9,1.9,0,0,0-2.164-.623l-.392.162a2.554,2.554,0,0,0-1.378,3.279c2.146,5.466,5.779,10.717,8.719,15.8,2.721,4.7,5.154,9.787,8.982,13.687-.538-.329-1.088-.658-1.649-1.022-2.06-1.339-4.1-2.72-6.055-4.2-2.281-1.729-5.777-6.04-8.828-4.9-3.473,1.274,4.369,6.952,5.009,7.462,3.533,2.657,8.954,7.943,13.552,7.857a1.258,1.258,0,0,0,1.218-.986q5.474,8.893,10.367,18.147c-.516-.327-1.018-.631-1.476-.906a54.511,54.511,0,0,0-8.141-4.273,29.939,29.939,0,0,0-6.871-1.487,1.165,1.165,0,0,0-.748,2.171c3.668,2.517,7.281,4.674,11.133,6.974a28.562,28.562,0,0,1,5.481,3.689,23.575,23.575,0,0,0,3.333,3.223,1.526,1.526,0,0,0,1.928-.233q2.577,5.31,4.953,10.724c-5.945-4.428-12.6-9.2-19.7-10.931-1.487-.36-2.83,1.791-1.464,2.822,5.08,3.841,11.015,6.487,16.242,10.251,2.956,2.131,6.346,4.313,8.8,7.14,1.526,3.839,2.954,7.722,4.317,11.634-.629-.575-1.251-1.121-1.851-1.633-5.466-4.681-12.621-10.142-19.4-12.2-1.813-.55-2.865,1.8-1.688,3.087,4.839,5.291,12.071,8.092,17.512,12.835,2.806,2.448,5.748,5.1,7.688,8.412.929,1.585,1.716,3.2,2.6,4.774q2.231,7.808,3.994,15.782a47.647,47.647,0,0,0-4.472-4.568c-4.476-4.051-10.3-10.053-16.622-9.1a1.665,1.665,0,0,0-.455,2.991,56.93,56.93,0,0,1,14.734,11,37.249,37.249,0,0,1,6.24,8.382c1.021,2,1.6,3.535,3.183,5.075.039.038.089.066.132.1q1.476,8.727,2.363,17.614a41.022,41.022,0,0,0-3.469-4.519c-3.393-3.88-10.8-12.417-16.3-10.56a1.7,1.7,0,0,0-.569,3.009c5.145,3.634,10.4,7.191,14.281,12.44,3.282,4.439,4.353,9.779,7.16,14.316q.25,5.491.281,10.983a73.141,73.141,0,0,0-3.489-6.7,40.949,40.949,0,0,0-6.18-8.376c-2.428-2.428-6.1-4.486-7.928-7.349-.975-1.521-3.132-.139-2.906,1.409.783,5.37,7.825,9.2,10.838,13.652a49.778,49.778,0,0,1,6.034,11.621c1.074,3.123,1.539,6.428,2.983,9.382a2,2,0,0,0,.389.54c-.215,5.217-.545,10.427-1.031,15.619-2.588-9.914-10.062-19.726-17.53-22.372-.81-.289-1.915.554-1.409,1.482,3.073,5.646,8.6,9.372,11.312,15.49,2.683,6.071,2.631,12.472,4.606,18.632a1.534,1.534,0,0,0,1.33,1.045c-.176,1.247-.347,2.494-.537,3.738-3.5-6.859-9.847-12.646-15.221-16.326a1.378,1.378,0,0,0-2.105,1.607c1.265,5.011,6.678,7.695,9.448,11.938,2.9,4.437,4.046,9.347,5.95,14.107q-.965,5.09-2.088,10.138c-.237,1.06-.493,2.116-.738,3.174a47.85,47.85,0,0,0-11.654-18.682c-1.458-1.355-4.2.416-3.268,2.353,2.262,4.712,5.8,8.673,7.846,13.579,2.033,4.887,1.907,10.461,3.964,15.184q-3.057,11.379-6.819,22.487c-3.975,11.657-9.16,22.9-13.178,34.41C767.461,591.892,771.909,593.96,773.429,591.168Z"/><path class="cls-1" d="M610.875,620.934c-1.593,1.176-2.045,3.178-3.182,4.662A53.133,53.133,0,0,1,595.5,637.184c-3.625-4.442-9.659-6.457-16.1-7.793-1.551-.255-3.531-.269-4.8-1.527a23.564,23.564,0,0,1,11.264-8.023c2.919-1.022,7.657-.813,6.567-5.157-.945-3.583-8.388-2.891-11.959-1.728-5,1.648-12.723,5.977-11.3,13.032a16.913,16.913,0,0,0-2.326,2.913c-7.291,10.579-12.622,23.042-20.49,33.1-1.242,1.6-2.567,3.754-4.849,4.3-1.314-2.135-.782-4.8-.566-7.119.523-5.082,1.088-9.289,1.956-14.058.447-2.111.852-5.1,1.666-6.458.609-1.019,2.432-1.987,3.49-2.808a32.877,32.877,0,0,0,3.147-3.122A77.717,77.717,0,0,0,561.7,618.156c1.216-2.147,3.624-6.883,2.284-9.565-.5-1.187-2.968-2.276-4.328-3.089-2.158-1.435-4.542-2.969-7.7-2.374-5.02.793-8.215,7.435-10.091,11.813a84,84,0,0,0-3.912,12.281,13.776,13.776,0,0,0-2.7,3.215c-7.291,10.58-12.622,23.042-20.49,33.1-1.241,1.6-2.567,3.754-4.849,4.3-1.312-2.135-.782-4.8-.566-7.119.523-5.082,1.09-9.288,1.956-14.058.448-2.111.852-5.1,1.666-6.458.609-1.018,2.432-1.987,3.49-2.808a33.026,33.026,0,0,0,3.148-3.122,77.758,77.758,0,0,0,10.5-14.584c1.216-2.147,3.624-6.882,2.285-9.565-.5-1.186-2.969-2.275-4.329-3.089-2.158-1.434-4.542-2.968-7.7-2.374-5.019.793-8.215,7.436-10.091,11.814a81.332,81.332,0,0,0-3.507,10.63,28.254,28.254,0,0,0-2.517,3.407c-6.358,9.435-9.627,21.357-14.845,31.616-2.107,4.17-3.987,8.439-7.024,11.557-2.595-8.12-2.936-19.648-1.25-27.976.43-2.44,2.12-6.15,1.229-8.636-.755-1.943-3.831-1.9-6.161-2.34a24.87,24.87,0,0,1-6.578-1.878c1.83-3.059,3.98-6.351,5.876-10.292,1.7-3.6,3.911-7.776,3.456-12.591a6.938,6.938,0,0,0-.906-2.816c-1.422-2.129-5.571-3.8-9.379-2.952-1.629.41-2.871,2.009-4.128,3.28-3.449,3.686-5.694,9.512-5.375,16.093a15.238,15.238,0,0,0,2.267,7.652c-2.434,4.568-4.737,9.022-7.175,13.476-8.072,14.906-15.562,30.443-24.329,44.612-4.387,7.031-9.556,13.768-16.363,18.5-3.282-1.929-4.169-6.614-4.718-11.1-1.932-14.86-.352-29.89,1.1-42.933,1.988-17.907,6.479-34.068,10.554-49.769a294,294,0,0,1,47.443-7.914c12.592-1.051,26.627-1.843,38.328-.873,3.648.372,7.832.5,9.835,3.26-.155,1.327-1.784,1.737-1.736,2.723,1.352.7,2.613,1.743,4.676,1.2,3.583-.943,3.78-5.9,1.767-8.882-3.656-5.1-12.693-5.539-21.061-5.794-26.97-.667-54.37,3.413-77.145,7.6.552-2.227,1.275-5.45,2.2-9.013.65-2.451,2.615-7.273.968-9.5-1.172-1.481-5.915-1.8-8-1.7-2.626,7.056-3.992,15.147-6.048,22.614-14.575,3.237-32.257,8.165-47.36,11.867-6.626,1.641-16.852,3.9-21.421.382-2.169-1.654-2.455-5.268-4.114-7.717-3.079,2.24-.634,7.288.793,9.528,1.56,2.672,4.007,5.521,6.49,6.83,4.515,2.42,12.485,1.263,18.475.092,16.127-2.983,31.118-8.989,45.249-12.314-5.049,22.784-9.669,47.637-9.5,76-.017,8.688.248,18.679,4.292,24.97,2.025,3.2,7.2,7.9,12.309,6.658,3.916-.85,7.448-5.09,9.833-8.065a108.116,108.116,0,0,0,7.182-10.574c11.591-19.307,20.055-40.8,29.662-61.568,3.006,2.78,7.179,4.269,11.468,5.255-1.9,8.449-3.1,19.832-.645,29.718.693,2.934,1.516,6.3,2.928,8.213,1.889,2.658,6.632,2.976,9.5.968,4.782-3.421,6.644-10.329,8.769-16.369,2.74-7.709,5.594-15.807,8.8-23.326-.392,2.431-.727,4.883-1,7.334-.839,7.627-2.791,19.487,1.858,24.649,1.851,1.888,6.329,3.54,9.55,1.955,3.541-1.822,5.959-6.338,7.758-10.054,4.974-9.8,9.226-19.074,13.954-28.446-.63,3.414-1.142,6.887-1.531,10.361-.838,7.627-2.79,19.486,1.859,24.649,1.851,1.888,6.329,3.54,9.55,1.954,3.54-1.822,5.959-6.337,7.757-10.053,5.631-11.1,10.339-21.513,15.858-32.166,2.195,3.965,7.314,4.957,12.113,5.959,4.112.9,7.78,1.711,10.144,5.115-9.422,5.185-20.593,8.366-26.56,16.793-2.364,3.413-6.535,10.322-1.221,13.363,3.963,2.336,11.764-.022,15.533-1.634a37.518,37.518,0,0,0,8.881-5.05c5.726-4.347,11.945-12.126,8.958-21.545,2.772-1.784,5.057-4.534,7.337-7.394,2.181-2.635,4.56-5.719,5.721-8.964A4.647,4.647,0,0,0,610.875,620.934Zm-54.084-11.116c.736-.694,1.756-.085,2.127.777a45.423,45.423,0,0,1-11.7,17.171C549.218,621.4,552.361,613.662,556.791,609.818Zm-31.59,1.536c.737-.7,1.756-.085,2.127.776a45.416,45.416,0,0,1-11.7,17.171C517.628,622.937,520.772,615.2,525.2,611.354Zm-56.187-.127c.5-.9,1.375-3.366,2.587-3.315.992.063,1.5,1.576,1.674,2.777.27,3.286-1.325,6.662-2.624,9.364a41.906,41.906,0,0,1-3.445,5.787,5,5,0,0,0-.017-2.431,3.222,3.222,0,0,0-1.711.837C465.078,619.359,467.088,614.687,469.014,611.227Zm118.705,46.786c-4.14,3.059-8.951,8.131-16.447,7.725a7.406,7.406,0,0,1-3.8-1.244c.476-3.763,2.751-6.731,5.057-9.042,5.569-5.328,14.8-7.646,21.64-11.718.11,0,.115.105.225.1C594.742,650.964,591.287,654.54,587.719,658.013Z"/><path class="cls-1" d="M408.7,225.992c3.895,1.18,5.075-4.25,2.6-5.784C407.759,218.2,405.044,224.693,408.7,225.992Z"/><path class="cls-1" d="M661.909,244.288c-1.77,1.181-2.361,3.3-3.659,4.84a57.06,57.06,0,0,1-13.693,11.8c-3.66-4.958-10.034-7.436-16.88-9.207-1.653-.354-3.778-.473-5.076-1.889a25.338,25.338,0,0,1,12.512-8.027c3.188-.944,8.263-.472,7.319-5.193-.827-3.9-8.853-3.542-12.748-2.479-4.374,1.209-10.724,4.181-12.467,9.259-.058-.016-.1-.039-.166-.052a190.939,190.939,0,0,1-11.45,31.517c-1.535,3.187-2.833,6.728-5.666,8.735-1.535-5.429-.472-13.221.118-20.657.354-3.777.59-7.2.944-10.624.473-5.666,1.889-14.637-1.77-17.47a4.085,4.085,0,0,0-6.611,2.242c-2.6-.471-4.958-1.652-8.144-1.3a11.989,11.989,0,0,0-5.784,3.069,28.181,28.181,0,0,0-3.555,3.836c-.039-.1-.06-.2-.106-.295-1.539.972-2.129,2.611-2.579,4.269a65.368,65.368,0,0,0-5.565,12.612,51.383,51.383,0,0,0-2.29,9.775c-2.771,7.764-5.584,15.492-8.689,22.686-.944,2.125-1.77,4.722-3.777,6.02-2.36-14.283,0-29.746,2.951-41.314.944-4.25,2.6-7.909,2.951-12.4.118-3.3-.236-6.61-1.535-8.263a9.148,9.148,0,0,0-7.082-2.124c-1.181.235-3.187,1.888-4.014,2.6-3.068,2.6-5.784,6.611-8.262,10.27a60.162,60.162,0,0,0-6.611,11.922c.355-4.957.708-9.8,1.3-14.873.117-1.416.826-3.66.472-4.722-.826-1.888-5.548-1.652-7.2-.826a9.486,9.486,0,0,0-2.125,1.417c-6.139,5.311-9.207,15.7-12.985,23.018-.106-6.17,1.5-12.721.529-18.535.178-.353.355-.708.534-1.06a4.6,4.6,0,0,0-.71.136c-.071-.323-.145-.645-.234-.963-1.771-.59-6.257-1.3-6.965.473-.355.708,0,1.534,0,2.36-.056,2.155-.24,4.393-.421,6.752-7.451,11.717-13.467,24.836-20.59,36.57-.59.944-.944,2.479-2.361,2.6-.236-6.847,1.18-13.457,2.243-19.831,1.062-6.611,2.007-12.985,3.187-19.477,2.242-12.631,5.9-24.671,7.673-37.537,16.289-2.952,41.078-5.077,53.591,2.715-1.535,1.888-4.722,2.833-5.076,5.547,2.6,1.063,6.61.827,8.5-.826s1.888-5.548.59-8.027c-2.006-3.659-8.853-4.958-13.811-6.02-13.221-2.6-31.281-1.534-43.558.472.945-4.722-3.3-7.2-6.492-7.555-4.485-.471-2.125,5.666-2.951,8.972-13.574,1.062-27.622,6.02-43.44,4.485-4.485-.472-10.388-1.3-11.8-4.367-.472-.827-.236-2.479-1.062-3.069-1.889,1.062-1.063,4.6-.236,6.02,1.888,3.305,6.61,5.076,10.859,6.138,15.228,3.777,32.227-1.889,45.211-3.187-1.752,12.984-4.516,25.816-6.9,39.021a70.23,70.23,0,0,1-8.805,6.661c-3.66-4.958-10.034-7.436-16.881-9.207-1.652-.354-3.777-.473-5.075-1.889a25.338,25.338,0,0,1,12.512-8.027c3.187-.944,8.264-.472,7.319-5.193-.826-3.9-8.853-3.542-12.749-2.479-5.148,1.424-13.034,5.289-12.919,12.157-5.033,6.966-9.85,13.952-14.232,21.367-4.6,7.908-8.617,16.407-13.574,23.726-1.653,2.479-3.306,5.194-5.9,6.611-1.416-4.25-.59-9.8-.117-14.638a236.66,236.66,0,0,1,4.485-27.386c.944-4.367,2.479-8.853,2.833-13.1.118-1.535,0-3.423-.59-4.132-1.181-1.18-6.965-1.416-8.263-1.534-.771,3.424-1.525,6.881-2.253,10.406-.356.48-.7.957-1.054,1.4-7.319,9.8-11.45,22.428-17.588,33.17-2.479,4.367-4.722,8.853-8.145,12.04-2.361-8.853-2.125-21.248.118-30.1.59-2.6,2.6-6.492,1.771-9.207-.709-2.125-4.014-2.243-6.493-2.833a26.744,26.744,0,0,1-6.964-2.361c2.125-3.187,4.6-6.61,6.846-10.742,2.007-3.777,4.6-8.144,4.368-13.338a7.471,7.471,0,0,0-.826-3.07c-1.417-2.36-5.784-4.367-9.916-3.659-1.771.354-3.187,2.007-4.6,3.305-3.895,3.778-6.61,9.916-6.61,17,0,5.815,2.231,9.7,5.563,12.425-3.175,9.566-7.3,17.755-11.7,25.939-1.888,3.424-3.423,7.2-6.492,9.444-2.361-8.027-1.3-19.359,1.062-26.088.827-2.479,2.007-4.958,1.889-8.027-.236-5.43-6.611-8.971-11.8-6.492-4.722,2.243-7.909,7.083-10.86,11.568-3.069,4.6-5.548,9.8-8.145,14.047a56.715,56.715,0,0,1-.708-6.611c5.193-8.5,10.859-17.587,16.172-26.913,6.846-12.158,15.227-22.31,18.886-37.419.826-3.66,1.771-7.555,1.417-11.8-.472-6.021-4.014-11.332-11.1-10.624-5.312.472-9.207,6.256-11.687,10.269-7.2,11.45-11.8,25.262-15.935,39.308-2.833,9.68-5.312,20.3-4.722,32.108.023.559.05,1.117.078,1.674a342.364,342.364,0,0,1-24.631,43.3c-3.9,5.666-8.382,12.63-14.284,16.054-1.3.708-3.068,1.534-4.721,1.062-3.305-1.062-3.187-11.214-3.187-15.7a296.647,296.647,0,0,1,4.013-49.223c2.6-15.227,5.9-29.629,11.8-41.433,2.007-3.895,4.132-8.735,7.791-10.034,5.194-2.006,8.971,2.479,11.568,4.84,1.771,1.417,3.777,3.541,6.847,3.07,2.479-2.362.354-5.431-1.181-7.2a22.778,22.778,0,0,0-5.666-5.076c-3.777-2.6-10.151-5.666-16.526-5.076-6.374.472-10.151,6.729-12.866,11.568-6.965,12.631-10.27,28.094-12.985,45.092-1.653,10.624-2.833,22.429-3.542,35.059-.589,11.922-.826,27.386,3.66,34.586,1.652,2.479,4.485,3.778,7.437,5.43,2.242,1.181,4.6,2.479,7.673,2.007,4.013-.709,7.436-3.659,9.8-6.492a82.829,82.829,0,0,0,6.728-9.562c4.368-6.846,8.5-14.637,11.805-20.893,4.013-7.437,7.554-14.4,10.978-21.72.068-.144.139-.29.209-.435.847,7.527,2.373,14.489,5.1,20.03,5.076-.236,4.84-5.194,5.784-9.443a41,41,0,0,1,1.535-5.43c3.305-10.506,8.5-19.241,17.824-24.081-1.888,7.082-3.659,14.047-4.131,22.9-.355,7.555,1.3,18.415,7.79,19.123,2.361.236,4.486-2.243,5.785-3.659,4.367-5.194,7.082-11.8,9.8-18.061a123.593,123.593,0,0,0,6.413-18.975,36.382,36.382,0,0,0,7.754,3.04c-2.479,8.971-4.368,21.129-2.243,31.871.59,3.187,1.3,6.846,2.715,8.971,1.889,2.951,6.964,3.541,10.151,1.535,5.312-3.424,7.673-10.742,10.27-17.116,3.039-7.393,6.2-15.118,9.626-22.4-.432,2.458-.848,4.961-1.243,7.528-1.417,9.562-3.778,23.491.236,31.754a8.553,8.553,0,0,0,3.895,4.249c7.083,3.305,10.978-4.249,13.1-8.381,4.25-8.145,8.735-16.408,12.985-24.2,3.892-7.254,7.519-14.242,11.576-20.916,1.909,4.9,7.63,6.305,12.977,7.7,4.368,1.18,8.264,2.243,10.624,6.02-10.388,5.076-22.546,7.909-29.392,16.644-2.716,3.541-7.555,10.742-2.007,14.283,4.131,2.715,12.63.59,16.762-.944a40.235,40.235,0,0,0,9.8-4.958c6.375-4.368,13.457-12.395,10.743-22.664a24.977,24.977,0,0,0,5.215-4.234c-.664,4.042-1.284,8.116-1.791,12.261-.826,6.256-2.6,14.4-1.179,21.011.826,3.895,5.075,7.555,9.443,5.548,3.187-1.416,5.075-5.43,6.846-8.617,3.659-6.61,6.492-13.929,9.561-21.011,1.441-3.322,2.9-6.557,4.365-9.735-.026,4.451-.251,11.612,1.773,13.748a6.133,6.133,0,0,0,5.076,1.417c2.6-.591,3.423-5.194,4.6-7.792,1.179-3.068,2.6-6.137,3.777-8.734,2.242-5.076,4.367-10.27,7.555-14.284.236-.354.826-1.18,1.534-1.18-.118,7.437-1.063,14.519-.59,22.546,0,1.535.118,5.9,1.3,6.492,1.417.709,3.306-1.3,4.014-2.478.944-1.653,1.417-3.542,2.006-4.722a99.293,99.293,0,0,1,9.326-17.588c1.77-2.6,3.895-5.43,6.61-6.729.118,4.958-1.416,9.325-2.36,13.811a154.113,154.113,0,0,0-3.9,29.157c-.236,5.075.118,10.859,2.124,14.4,1.181,2.243,4.368,4.839,7.673,3.541,4.132-1.535,5.312-6.729,6.965-10.978,1.6-4.271,3.263-8.533,4.915-12.814.714,3.465,2.342,6.317,5.355,7.738,6.611,3.187,12.159-3.895,14.52-8.027a71.858,71.858,0,0,0,5.548-12.866c.235,7.436-1.889,18.414,2.007,23.018a9.666,9.666,0,0,0,6.727,2.951c3.777-.236,6.61-4.958,8.264-8.027a117.617,117.617,0,0,0,8.97-23.608c.742-2.522,1.762-5.464,2.331-8.414,2.5,3.418,7.362,4.623,11.955,5.817,4.367,1.18,8.262,2.243,10.624,6.02-10.388,5.076-22.546,7.909-29.393,16.644-2.715,3.541-7.555,10.742-2.007,14.283,4.132,2.715,12.631.59,16.762-.944a40.26,40.26,0,0,0,9.8-4.958c6.374-4.368,13.457-12.395,10.742-22.664,3.068-1.771,5.666-4.6,8.263-7.555,2.478-2.715,5.193-5.9,6.61-9.325A5,5,0,0,0,661.909,244.288ZM333.98,192.232c1.416-2.125,3.423-5.194,5.312-6.493,1.77-1.18,3.541,2.833,3.777,4.486.708,6.61-3.188,13.693-5.312,18.061-7.175,14.348-16.515,28.695-24.067,41.5a5.359,5.359,0,0,0-.487-2.075.906.906,0,0,0-.411,0A141.808,141.808,0,0,1,333.98,192.232Zm30.22,34.232c.59-.944,1.653-3.542,2.951-3.423,1.062.118,1.535,1.77,1.653,3.069.117,3.541-1.771,7.082-3.3,9.915a40.2,40.2,0,0,1-5.312,7.555C358.534,237.087,361.485,230.832,364.2,226.464Zm93.846,56.424c-4.6,3.069-10.034,8.263-18.061,7.437a7.958,7.958,0,0,1-4.013-1.535c.708-4.013,3.305-7.082,5.9-9.443,6.256-5.43,16.29-7.437,23.845-11.451.118,0,.118.119.236.119C465.955,275.688,462.06,279.347,458.046,282.888Zm133.036-29.511c-.591,2.361-2.243,5.076-3.424,7.437-1.3,2.479-2.6,4.84-3.777,7.082-2.6,4.6-4.957,9.562-9.207,12.159-.473-13.929,6.139-26.441,12.04-35.767,1.3-2.124,2.715-5.194,5.666-3.305C591.672,245.232,592.026,249.364,591.082,253.377Zm44.031,29.511c-4.6,3.069-10.033,8.263-18.06,7.437a7.965,7.965,0,0,1-4.014-1.535c.709-4.013,3.306-7.082,5.9-9.443,6.256-5.43,16.29-7.437,23.845-11.451.118,0,.118.119.236.119C643.022,275.688,639.127,279.347,635.113,282.888Z"/><path class="cls-4" d="M246.668,180.987c.194.418.365,1.414.053,1.754-1.37,1.342-2.9,2.465-4.451,3.715-.364.267-.908.443-1.273.71-.947.695-1.822,1.337-2.823,1.959a11.249,11.249,0,0,0-3.668,3.253,8.087,8.087,0,0,1-1.881,1.716c-.364.267-1.161.4-1.322.185-.448-.457-.856-1.167-.652-1.652a4.79,4.79,0,0,1,1.181-2.212,4.064,4.064,0,0,0,.29-5.259c-2.816-3.989-5.485-8.086-8.372-12.021a51.741,51.741,0,0,0-3.447-4.088,27.519,27.519,0,0,1-2.228-3.188,33.344,33.344,0,0,0-5.834-7.493,3.772,3.772,0,0,0-4.131-.893c-.69.282-1.638.977-2.134-.005a3.018,3.018,0,0,1,.4-2.2,5.172,5.172,0,0,1,1.5-1.775c3.207-2.353,6.448-4.507,9.475-6.952,2.28-1.785,4.7-3.224,6.978-5.009a41.384,41.384,0,0,0,3.469-3.218,2.127,2.127,0,0,1,2.591-.443,2.687,2.687,0,0,1,.88.588l4.259,5.958a5.946,5.946,0,0,1,.676,1.074,1.569,1.569,0,0,1-.709,2.09c-.782.462-1.322.185-1.876-.418a8.685,8.685,0,0,0-3.175-2.492,1.839,1.839,0,0,0-2.3.229c-2.007,1.7-4.422,2.684-6.429,4.38-.84.842-3.868,3.287-4.927,4.288,2.466,4.584,6.763,8.606,10.268,12.314,3.149-1.974,8.514-4.9,10.482-8.027-.229-.617-.857-2.848.106-3.218a1.839,1.839,0,0,1,2.3,1c1.741,2.984,2,2.571,3.739,5.555.355.636.656,1.2-.072,1.735a1.521,1.521,0,0,1-1.886.486c-1.619-.83-2.013-1.214-3.271-.179-2.138,2.129-6.4,4.58-8.7,6.943a56.385,56.385,0,0,0,9.788,13.339c1.327-.637,4.145-2.144,5.418-2.854A1.208,1.208,0,0,1,246.668,180.987Zm62.076-36.37a4.949,4.949,0,0,1-3.334,3.179c-.644.135-1.2.429-1.849.563-1.647.558-3.42.876-4.768,2.2a1.565,1.565,0,0,1-.843.34c-1.769.521-1.349-2.764-1.349-2.764l-3.294-2.967-8.568-7.959-6.152,3.842c-2.077,1.295-4.2,2.509-6.354,3.846-.05,3.6.773,6.334,1.939,10.112l1.071,3.012s4.267-1.014,5.079-.828a1.345,1.345,0,0,1,1.054,2.2,7.968,7.968,0,0,1-2.3,2.229c-2.722,1.429-5.607,2.739-8.455,3.928a2.047,2.047,0,0,1-2.682-.634,2.3,2.3,0,0,1,.113-2.51l2.216-2.389-.21-4.485a55.447,55.447,0,0,0-.759-5.727l-.259-2.826c-.714-5.445-.582-11.028-1.014-16.519-.458-4.763-.795-9.488-1.333-14.209-.061-1.09-.2-1.937.921-2.525a2.792,2.792,0,0,1,3.044.546c1.072,1.071,2.107,2.264,3.222,3.414,3.714,3.769,7.305,7.5,11.1,11.225q4.575,4.338,9.389,8.549a77.69,77.69,0,0,0,8.487,5.858,31.3,31.3,0,0,1,3.985-.969C308.292,142.2,309.285,143.312,308.744,144.617ZM282.712,134.9c-2.306-2.058-7.977-6.636-8.511-7.071-1.317-1.146-2.275-2.583-4.313-3.352l.926,16.158C278.489,138.138,279.092,137.924,282.712,134.9Zm79.609-8.805c.029.372-.54.946-.939,1.176-4.31,2.216-8.287,1.172-12.268-1.016-5.156-2.84-9.087-7.144-14.131-10.5l-6.512,1.624c.349,1.6.64,3.028,1.016,4.428.55,1.913,1.156,3.712,1.878,5.568a5.825,5.825,0,0,0,4.759,3.928l3.032.5c1,.14,1.859.423,1.979,1.623.088,1.115-.739,1.489-1.6,1.778L334.228,137l-7.624,2.57-1.371.463c-.885.2-1.8.32-2.261-.764-.46-.8.108-1.945,1.049-2.548,1.028-.633,2.2-1.123,3.225-1.756,1.883-1.207,1.511-1.177.412-4.718-.462-1.37-.839-2.77-1.357-4.026-1.586-3.854-3.257-7.679-4.929-11.5a16.639,16.639,0,0,0-.75-1.941c-1.3-3.569-2.483-7.081-3.867-10.621-.548-1.342-1.382-2.683-2.074-4.167l-1.713.292a7.205,7.205,0,0,1-1.915-.022,1.664,1.664,0,0,1-.891-1.226,1.507,1.507,0,0,1,.71-1.289,3.691,3.691,0,0,1,1.6-.634c4.145-.158,7.682-2.4,11.625-3.157,2.994-2.155,6.542-1.538,9.77-1.864,2.029-.207,4.206.872,6.209,1.437a1.953,1.953,0,0,1,1.175.939c1.839,2.624,3.164,5.421,2.975,8.824l-.191,2.545c-.193,1.973-1.417,3.435-2.412,5.011-.37.6-.855,1.146-1.224,1.748a27.145,27.145,0,0,0,6.971,6.808,77.248,77.248,0,0,1,6.136,5.182,12.5,12.5,0,0,0,7.556,2.89C361.633,125.47,362.346,125.324,362.321,126.1ZM335.485,95.458c-2.01-2.281-4.183-2.787-7.067-1.72-1.713.578-3.454,1.356-5.111,2.105a11.021,11.021,0,0,0-1.4.948l5.807,17.218a13.023,13.023,0,0,0,7.821-3.4c1.254-1.091,2.422-2.153,2.73-3.783C338.769,102.65,338.327,98.793,335.485,95.458Zm87.729,16.454c-.832-.047-1.65-.005-2.661-.023a39.238,39.238,0,0,1-1.16-4.3c-.61-4.3-1.042-8.624-1.741-12.906-.64-4.475-1.532-8.818-2.067-13.219-.377-2.869.283-4.992,3.02-5.623.089-.014.163-.118.239-.222-.156-2.631-1.1-3.392-3.513-3-.446.072-.967.249-1.5.337-3.405.464-6.247,1.569-7.181,5.386-.18.579-.643,1.113-.808,1.781-1.8,6.34-3.534,12.576-5.248,18.9a43.96,43.96,0,0,1-2.837,8.432c-.785-.879-1.347-1.52-1.925-2.25-2.277-3.292-4.63-6.48-6.894-9.683-3.106-4.439-6.014-10.467-8.718-15.247a2.884,2.884,0,0,0-3.741-1.587c-1.666.455-3.361.732-5.027,1.187-1.056.264-2.187.632-3.229.985A2.032,2.032,0,0,0,367,82.9c0,1.1.857,1.325,1.675,1.283.907-.056,1.828-.024,2.75.009a10.784,10.784,0,0,1,1.259,5.473l.483,2.4c.72,2.722,1.1,4.491,1.656,7.332.963,5.339,1.927,10.677,1.537,16.145-.171,2.318-.134,4.785-3.227,5.473-.179.03-.328.237-.492.355a1.044,1.044,0,0,0-.688,1.395c.206.7.575,1.28,1.318,1.342l1-.071a58.422,58.422,0,0,0,12.431-1.847c1.22-.383,1.593-.9,1.225-2.032a2.041,2.041,0,0,0-1.926-1.7,20.6,20.6,0,0,1-2.586-.127,1.523,1.523,0,0,1-1.542-1.03A23.147,23.147,0,0,1,380,110.91c-.257-3.256-.693-6.482-1.113-9.619l-1.574-9.636.595-.28c1.983,2.607,3.952,5.125,5.831,7.657,1.316,1.892,2.38,3.917,3.682,5.72,2.826,3.843,5.831,7.657,8.746,11.486a34.363,34.363,0,0,0,2.695,3.041c1.127-3.756,2.237-7.052,3.154-10.408.843-3.252,1.582-6.579,2.233-9.891a48.02,48.02,0,0,1,3.619-11.491c.283-.505.464-1.084.733-1.677.089-.015.193.06.283.046l4.488,27.479A19.889,19.889,0,0,0,410.8,114.4a2.716,2.716,0,0,0-1.088,1.186c-.676,2.033.271,3.344,2.441,3.173,2.974-.3,6.007-.8,8.966-1.19a16.591,16.591,0,0,0,2.9-.748c1.37-.59,1.639-1.184,1.362-2.878C425.248,112.588,424.61,112.05,423.214,111.912Zm82.631-40a41.868,41.868,0,0,1-4.731.129c-2.89-.164-5.658-.679-8.548-.843-3.888-.16-7.745-.681-11.707-1.029a5.177,5.177,0,0,0-2.3.342A3.022,3.022,0,0,0,476.8,71.9c-.275,1.064.9,1.167,1.6,1.411a3.772,3.772,0,0,1,2.515,3.4,33.32,33.32,0,0,1-.562,9.48,27.626,27.626,0,0,0-.43,3.864,51.144,51.144,0,0,1-.107,5.347c-.428,4.863-1.126,9.7-1.643,14.557a4.065,4.065,0,0,1-3.689,3.759,4.808,4.808,0,0,0-2.347.882c-.473.231-.634,1.034-.6,1.672-.024.27.665.694,1.115.733a8.07,8.07,0,0,0,2.546-.048,11.248,11.248,0,0,1,4.9-.023c1.163.193,2.244.288,3.414.391.451.04.976.268,1.426.307,1.989.084,3.88.251,5.795.147.458-.051.987-.912,1.117-1.354a1.207,1.207,0,0,0-1.059-1.364c-1.425-.307-4.537-1.034-5.955-1.431a56.366,56.366,0,0,1,1.449-16.48c3.29-.256,8.105.712,11.117.523,1.629.053,1.671.6,2.339,2.293.38.85,1.01.906,1.738.879.9.079,1.046-.543,1.2-1.256.661-3.39.2-3.25.857-6.64a1.838,1.838,0,0,0-1.071-2.272c-.967-.358-1.967,1.732-2.2,2.347-3.541,1.05-9.5-.291-13.172-.886-.187-5.1-.761-10.958.411-16.027,1.457-.054,5.345.107,6.532.029,2.627.05,5.094.9,7.721.952a1.838,1.838,0,0,1,1.878,1.345,8.685,8.685,0,0,1,.741,3.967c.018.818.241,1.383,1.134,1.552.99.087,1.652-.218,1.912-1.1a6.049,6.049,0,0,0,.2-1.253l.731-7.287a2.684,2.684,0,0,0-.273-1.022A2.125,2.125,0,0,0,505.845,71.908Zm54.441,57.855c-.171.331-.957.517-1.418.5-4.83-.394-7.655-3.382-9.881-7.342-2.877-5.136-3.942-10.866-6.452-16.38l-6.388-2.061c-.549,1.543-1.056,2.909-1.475,4.3-.544,1.915-.98,3.763-1.348,5.72a5.828,5.828,0,0,0,1.967,5.85l2.307,2.03c.777.647,1.357,1.34.824,2.422-.513.994-1.413.875-2.294.667l-5.455-1.284-7.832-1.845-1.409-.331c-.859-.3-1.7-.678-1.516-1.843.031-.922,1.119-1.594,2.237-1.61,1.206.006,2.458.208,3.665.213,2.235-.031,1.9-.2,2.842-3.788.332-1.409.751-2.8.975-4.136.688-4.11,1.29-8.241,1.891-12.372a16.756,16.756,0,0,0,.389-2.045c.782-3.716,1.632-7.324,2.326-11.062.243-1.428.243-3.007.44-4.632l-1.609-.658a7.182,7.182,0,0,1-1.615-1.03,1.67,1.67,0,0,1-.109-1.512,1.51,1.51,0,0,1,1.285-.719,3.691,3.691,0,0,1,1.692.3c3.6,2.056,7.79,2.021,11.538,3.46,3.68-.247,6.366,2.15,9.28,3.579,1.833.9,3.111,2.961,4.514,4.5a1.95,1.95,0,0,1,.5,1.418c.175,3.2-.178,6.274-2.135,9.064l-1.507,2.06c-1.206,1.574-3.018,2.169-4.7,2.981-.632.316-1.33.523-1.962.838a27.156,27.156,0,0,0,2.322,9.464,77.254,77.254,0,0,1,2.474,7.641,12.5,12.5,0,0,0,4.891,6.445C560.033,128.867,560.716,129.121,560.286,129.763ZM550.042,100.7c2.63-3.281,4.293-6.791,3.64-11.124-.5-3-2.08-4.576-5.092-5.192-1.76-.415-3.649-.674-5.451-.913a11.051,11.051,0,0,0-1.687.067l-4.165,17.688a13.014,13.014,0,0,0,8.437,1.243C547.365,102.2,548.919,101.917,550.042,100.7Zm65.726,1.532-1.26-.5c-2.975-1.081-5.951-2.162-8.958-3.16a66.689,66.689,0,0,1-12.206-5.516,3.349,3.349,0,0,0-3.255.364c-.585.74-.465,1.663.529,2.835.1.234.354.335.455.569.742,1.072.283,4.2.183,4.448l-2.573,8.7-.548,1.631q-1.77,5.571-3.791,11.041c-.616,1.8-1.6,3.548-2.3,5.313-.517,1.059-.832,2.1-1.434,3.127-1.234,2.136-2.174,2.542-4.609,2.063l-1.277-.214c-.823-.132-1.528-.314-2.011.661a1.757,1.757,0,0,0,.611,2.382,7.011,7.011,0,0,0,2.455,1.167c2.956.393,5.412,2.047,8.1,3.112,2.185.866,4.3,1.9,6.489,2.765,3.31,1.215,6.655,2.345,9.967,3.56a2.444,2.444,0,0,0,1.426.079c1.477-.291,2.852-.816,3.367-2.362a37.913,37.913,0,0,0,1.5-4.269,1.841,1.841,0,0,0-.492-1.459,1.33,1.33,0,0,0-1.915-.077c-.92.608-1.925,1.181-2.88,1.873a6.406,6.406,0,0,1-4.983,1.04c-3.309-.727-6.585-1.539-9.3-3.779-1.666-1.438-2.342-2.678-1.828-4.711.531-1.832,1.18-3.714,1.795-5.513.233-.587.6-1.025.8-1.53l2.62-4.407,1.335-2.388a19.386,19.386,0,0,0,1.867.934l7.949,2.761c.874.248,1.663.464,1.684,1.639-.016.285.675.753,1.044.8.252.1.788-.272,1-.575.9-1.782,1.768-3.481,2.585-5.3.265-.672.514-1.546-.31-2.165a1.682,1.682,0,0,0-2.282.36c-.753.675-1.422,1.382-2.058,2a41.242,41.242,0,0,1-11.111-4.6,120.1,120.1,0,0,1,5.14-14.2c2.534-.259,6.936.9,10.061,1.847,3.261,1.1,5.684,2.835,6.668,6.24a1.508,1.508,0,0,0,1.851,1.219,5.587,5.587,0,0,0,.685-.993,12.736,12.736,0,0,0,.966-2.437C618.461,104.266,618.054,103.327,615.768,102.227ZM653.694,132.1a4.453,4.453,0,0,0,1.266-1.369c1.078-1.78,3.181-3.926,4.224-5.829a4.7,4.7,0,0,1-.928-1.127c-1.7-2.168-4.632-3.775-6.96-5.36a7.861,7.861,0,0,0-4.593-1.588,18.433,18.433,0,0,0-11.465,3.614,7.484,7.484,0,0,0-2.829,4.223c-1.328,4.117-.332,7.755,1.718,11.353a39.124,39.124,0,0,1,2.156,3.965,31.44,31.44,0,0,0,1.868,4.116c1.548,1.879,1.306,4.014,1.511,6.086a2.091,2.091,0,0,1-.465,1.6,13.792,13.792,0,0,1-4.677,4.963c-2.485,1.525-5.06,1.145-7.533.2a1.825,1.825,0,0,1-.742-.716c-1.108-1.741-2.137-3.439-3.121-5.215a2.229,2.229,0,0,1-.055-1.783c.248-1.2.82-2.437,1.032-3.764a3.768,3.768,0,0,0-.234-2.4,1.573,1.573,0,0,0-2.7-.142,29.933,29.933,0,0,0-3.805,8.637c-.2.923,1.206,3.444,1.92,3.834a19.749,19.749,0,0,1,4,2.295c2.471,2.076,5.356,2.832,8.414,3.27a7.712,7.712,0,0,1,2.135.242,3.708,3.708,0,0,0,2.872.028c3.963-1.025,6.212-3.813,7.72-7.316,1.231-2.624,1.741-5.437.433-8.318a4.321,4.321,0,0,1-.358-1.228c-.755-1.444-.919-2.462-1.717-3.827a26.44,26.44,0,0,1-1.891-3.51c-1.141-3-2.24-6.073-3.092-9.22-.861-2.945-.237-4.46,2.335-6.143a12.5,12.5,0,0,1,2.722-1.4,7.941,7.941,0,0,1,3.363-.116c2.12.647,3.473,2.315,4.661,4.1,1.071,1.618,1.652,3.38.812,5.29a1.914,1.914,0,0,0-.169,1.248A1.419,1.419,0,0,0,653.694,132.1Zm52.809,25.09c-.949-.7-2.023-1.37-3.024-1.992l-2.912-1.685c-1.594,1.41-2.43,2.7-.98,4.55-3.551,4.234-6.058,8.113-9.449,12.129-4.24-4-10.213-6.252-14.361-10.075.374-.511.516-.856.782-1.22,2.571-3.048,4.529-5.873,6.933-9.154l2.259-3.388s2.319,2.035,2.979,1.286a2.59,2.59,0,0,0,.349-2.77c-.35-.593-4.409-3.007-6.708-4.916-1.022-.748-2.2-1.278-3.2-1.9-1.186.7-1.015,1.386-.52,2.086.4.52.788.913,1.119,1.38,1.031,1.652,1,1.851-.106,3.509-1.209,1.8-2.4,3.732-3.682,5.482-2.744,3.593-5.616,7.205-8.287,10.851-3.065,4.031-6.039,8.241-9.138,12.471l-2.2-1.278-2.4-1.311a4.433,4.433,0,0,0-1.667,1.357c-.694.947-.126,1.7.516,2.507.218.161.457.447.749.661,2.737,2.23,5.669,4.042,8.333,6.218.728.535,1.172,1.307,1.988,1.569,1.8.757,3.357-2.135,3.357-2.135a16.776,16.776,0,0,0-1.609-1.628c-1.59-1.5-1.425-2.949-.376-4.534.054-.072,4.838-8.9,8.452-12.3,4.682,3.094,9.626,7.054,14.308,10.148-.054.073.073.053-.141.345-1.677,2.134-2.7,4.749-4.372,6.883s-3.848,5.251-5.45,7.438c-.748,1.021-3.2-.217-3.2-.217a4.029,4.029,0,0,0-1.254,1.1c-.641.875-.811,1.871.064,2.512,1.969,1.443,3.938,2.886,6.014,4.183,1.074.675,1.667.325,2.415-.7.889-1.366-.151-2.24-.866-3.1.694-.949,1.262-1.877,1.977-2.7,4.193-5.109,6.946-11.161,11.085-16.2,2.783-3.341,5.422-6.787,8.06-10.234.588-.8,1.194-1.478,2.482-1.094,1.308.509,1.882.033,2.479-1.547C707.8,158.481,707.577,157.868,706.5,157.193Z"/><path class="cls-2" d="M190.369,646.544a7.85,7.85,0,0,0,8.959-.385,11.929,11.929,0,0,0,2.63-3.148,6.96,6.96,0,0,0,.539-7.059,22.6,22.6,0,0,0-1.878-3.427c-1.908-3.051-3.944-6.024-5.877-8.972a5.747,5.747,0,0,0-.723-.874,1.512,1.512,0,0,0-2.559,1.424l.366,1.009a1.649,1.649,0,0,1-.564,2.21,11.424,11.424,0,0,1-1.216,1.026l-11.62,7.444-8.719,5.718c-1.78,1.113-1.986,1.065-3.211-.469l-.382-.469a1.763,1.763,0,0,0-2.576-.158c-.786.581-.889,1.265-.277,2.385.8,1.272,1.566,2.647,2.466,3.942,1.081,1.447,2.313,2.71,3.459,4.117a1.347,1.347,0,0,0,1.613.317,1.373,1.373,0,0,0,.612-1.709c-.135-.358-.4-.636-.533-.993l-.66-1.621c2.122-1.416,4.077-2.816,6.111-4.088,2.122-1.415,4.261-2.664,6.614-4.136.437.7,1,1.319,1.478,2.083A18.7,18.7,0,0,0,190.369,646.544Zm-4.295-6.16c-.54-.723-.954-1.526-1.589-2.543l11.826-7.4a12.284,12.284,0,0,1,2.442,5.461,6.067,6.067,0,0,1-2.463,5.963C192.722,644.365,188.731,643.5,186.074,640.384Zm19.512,30.581-8.4,6.541c-.414.323-.783.7-1.2,1.027-1.763,1.277-2.032,3.007-1.578,4.934a19.391,19.391,0,0,1,.56,1.94c.152.928-.335,1.4-1.2,1.027a2.079,2.079,0,0,1-1.034-.717,62.1,62.1,0,0,1-7.3-10,1.132,1.132,0,0,1,.018-1.441,1.118,1.118,0,0,1,1.467-.191,16.861,16.861,0,0,1,2.146,1.657,1.542,1.542,0,0,0,2.2.381c1.349-.954,2.867-1.566,4.1-2.909a27.482,27.482,0,0,1,4.748-3.791c1.54-1.2,3.217-2.218,4.861-3.4l7.892-5.856a10.744,10.744,0,0,0,1.579-1.514c.986-1.052,1.012-1.263.328-2.632l-.8-1.755a2.685,2.685,0,0,1-.079-1.079c.118-.948.775-1.08,1.551-.448a15.835,15.835,0,0,1,3.825,4.912c1.112,1.8,1.928,3.822,3.619,5.262.184.236.507.651.468.967-1.323.744-3.935-1.88-3.935-1.88s-1.171.816-2.21,1.435c-2.032,1.3-4.156,2.474-6.2,3.876Q208.23,669.051,205.586,670.965Zm42.024,29.868c-2.291,2.056-4.583,4.218-6.77,6.381-2.986,3.059-6.025,6.173-8.906,9.339-1.6,1.688-3.094,3.484-4.642,5.225-1.483-.219-1.8-.54-1.793-1.918a168.82,168.82,0,0,1,1.153-17.176c.223-2.227.341-4.454.459-6.68l.627-8.218a3.41,3.41,0,0,1-.155-.689,198.151,198.151,0,0,0-14.341,13.977c.526.957.893,1.755,1.366,2.553,1.21,1.862.884,3.134-.978,4.344-.585.368-.9.048-1.27-.325-1.162-1.173-2.323-2.241-3.537-3.361-1.266-1.173-2.638-2.347-3.958-3.574-1.583-1.6-1.527-2.076.233-3.923.529.215,1.111.589,1.693.858a11.856,11.856,0,0,0,3.07,1.077,3.544,3.544,0,0,0,2.339-1.155c1.493-1.371,2.879-2.848,4.213-4.273,1.547-1.636,3.146-3.219,4.64-4.907q3.521-3.8,6.883-7.76a3.059,3.059,0,0,0,.5-3.975c-.316-.532-.789-1.223-.042-1.963.906-.9,1.595-.945,2.438.12,1.529,1.758,2.9,3.569,4.374,5.273a1.9,1.9,0,0,1,.413,2.018c-.591,1.641-1.078,3.282-1.563,4.923a33.045,33.045,0,0,0-1.481,9.062,5.26,5.26,0,0,1-.221,1.8,49.907,49.907,0,0,0-1.108,8.8,34.557,34.557,0,0,0,.084,4.03,8.614,8.614,0,0,0,.365,1.328,4.383,4.383,0,0,0,1.012-.9,50.9,50.9,0,0,1,8.318-8.228c.745-.633,1.334-1.531,2.026-2.217l4.268-4.538c-.9-1.225-1.738-2.395-2.634-3.515a1.089,1.089,0,0,1-.044-1.538c.64-.951,1.437-1.105,2.122-.2,1.579,2.129,3.852,3.468,5.593,5.439A12.057,12.057,0,0,0,254.1,697.9l1.426,1.228c-.489,2.065-1.286,2.433-2.978,1.469l-.265-.161C249.952,699.042,249.688,698.987,247.61,700.833Zm37.9,23.013a10.48,10.48,0,0,1-1.317,1.73,4.593,4.593,0,0,1-.77.64,1.252,1.252,0,0,1-1.2-1.389c-.024-2.94-1.57-4.871-3.929-6.477-2.284-1.457-5.541-3.371-7.623-3.73a99.792,99.792,0,0,0-7.288,10.193,34.278,34.278,0,0,0,7.847,6.161c.647-.355,1.34-.77,2.093-1.14a1.393,1.393,0,0,1,1.9.224c.52.678.126,1.321-.237,1.8-1.06,1.268-2.133,2.431-3.251,3.653-.243.193-.753.369-.932.233-.284-.122-.731-.65-.654-.875.247-.943-.336-1.292-.978-1.686l-5.732-3.987a16.026,16.026,0,0,1-1.282-1.164l-1.6,1.609-3.081,2.933c-.273.359-.664.625-.983,1.043-.894,1.3-1.834,2.657-2.668,4-.866,1.509-.6,2.651.406,4.173,1.662,2.4,4.1,3.779,6.578,5.1a5.312,5.312,0,0,0,4.213.285c.918-.338,1.849-.571,2.721-.851a1.1,1.1,0,0,1,1.511.491,1.524,1.524,0,0,1,.067,1.276,31.516,31.516,0,0,1-2.153,3.074c-.758,1.12-1.973,1.231-3.218,1.133a2.016,2.016,0,0,1-1.122-.384c-2.373-1.712-4.791-3.363-7.164-5.075-1.551-1.182-3.012-2.483-4.563-3.663-1.91-1.453-3.5-3.325-5.775-4.3a5.814,5.814,0,0,1-1.7-1.482,1.459,1.459,0,0,1,.045-2.04c.6-.67,1.128-.367,1.756-.078l.972.457c1.838.928,2.678.815,4.144-.615.709-.685,1.2-1.447,1.845-2.177.954-1.253,2.133-2.43,3.027-3.728q2.841-3.918,5.5-7.972l.8-1.178,4.006-6.377c.136-.179,1.2-2.572.85-3.594-.028-.21-.208-.347-.236-.557-.532-1.159-.421-1.923.212-2.384a2.781,2.781,0,0,1,2.682.44,55.373,55.373,0,0,0,8.514,7.14c2.18,1.471,4.314,3,6.448,4.532l.9.68C286.668,721.334,286.782,722.175,285.51,723.846Zm37.516,39.669a3.447,3.447,0,0,1-1.894,2.829,4.02,4.02,0,0,1-4.395-.073,3.072,3.072,0,0,1-1.292-2.809,2.507,2.507,0,0,1,2.3-2.127,8.574,8.574,0,0,1,1.742-.314,8.485,8.485,0,0,1,1.88.257C322.278,761.809,323.153,762.407,323.026,763.515Zm65.881,4.4a3.909,3.909,0,0,0,.96.74c-.492,1.732-1.8,3.856-2.34,5.494a3.686,3.686,0,0,1-.771,1.341,1.176,1.176,0,0,1-2-.645,1.582,1.582,0,0,1-.1-1.041,4.393,4.393,0,0,0-1.634-4.128,7.461,7.461,0,0,0-4.526-2.455,6.574,6.574,0,0,0-2.7.714,10.367,10.367,0,0,0-1.944,1.631c-1.77,1.836-2,3.176-.754,5.4,1.27,2.388,2.726,4.673,4.2,6.885a21.821,21.821,0,0,0,2.177,2.49c.9.957,1.218,1.75,2.1,2.778a3.561,3.561,0,0,0,.517.927,7.921,7.921,0,0,1,1.184,6.807c-.572,3.113-1.876,5.783-4.892,7.343a3.073,3.073,0,0,1-2.327.508,6.4,6.4,0,0,0-1.772.2,13.226,13.226,0,0,1-7.409-1.091,16.4,16.4,0,0,0-3.658-1.117,5,5,0,0,1-2.261-2.747,24.826,24.826,0,0,1,1.482-7.687,1.3,1.3,0,0,1,2.214-.385,3.125,3.125,0,0,1,.632,1.895c.073,1.113-.162,2.215-.139,3.235a1.846,1.846,0,0,0,.373,1.431c1.125,1.255,2.27,2.438,3.487,3.642a1.517,1.517,0,0,0,.732.441c2.174.306,4.327.138,6.055-1.554a11.448,11.448,0,0,0,2.867-4.877,1.737,1.737,0,0,0,.08-1.381c-.549-1.637-.747-3.408-2.345-4.643a25.932,25.932,0,0,1-2.271-2.983,32.442,32.442,0,0,0-2.478-2.809c-2.321-2.531-3.8-5.289-3.485-8.864a6.205,6.205,0,0,1,1.509-3.937,15.284,15.284,0,0,1,8.6-5.041,6.524,6.524,0,0,1,4.008.436C384.464,765.723,387.134,766.48,388.907,767.92Zm31.425,7.6a22.538,22.538,0,0,0-3.808-.87c-3.55-.594-7.124-1.043-10.614-1.551a6.1,6.1,0,0,0-1.133-.036,1.37,1.37,0,0,0-1.457,1.429,1.353,1.353,0,0,0,.825,1.431l1,.395a1.651,1.651,0,0,1,1.28,1.888,11.381,11.381,0,0,1-.039,1.591l-2.134,13.633-1.5,10.317c-.347,2.071-.52,2.194-2.48,2.094l-.6-.026a1.762,1.762,0,0,0-1.827,1.824c-.087.973.357,1.5,1.6,1.789,1.478.248,3.019.582,4.585.768,1.8.151,3.563.066,5.375.142a1.349,1.349,0,0,0,1.308-1,1.373,1.373,0,0,0-.874-1.591c-.357-.136-.739-.124-1.1-.26l-1.653-.581c.349-2.527.6-4.919.994-7.285.348-2.527.831-4.955,1.29-7.692.814.136,1.653.125,2.54.274a18.682,18.682,0,0,0,8.31-.583,7.849,7.849,0,0,0,5.654-6.96,11.907,11.907,0,0,0-.612-4.057A6.958,6.958,0,0,0,420.332,775.524Zm.313,8.57c-.5,4.326-3.792,6.739-7.886,6.661-.9-.075-1.774-.3-2.958-.5l2.308-13.757a12.277,12.277,0,0,1,5.706,1.794A6.073,6.073,0,0,1,420.645,784.094Zm51.424,30.862a10.369,10.369,0,0,1-5.015-4.461,64.247,64.247,0,0,0-3.238-5.823,22.5,22.5,0,0,1-3.41-7.329c.463-.359,1-.64,1.462-1,1.236-.93,2.615-1.705,3.344-3.18l.9-1.918a11.392,11.392,0,0,0,.282-7.72,1.618,1.618,0,0,0-.636-1.074c-1.389-1.026-2.76-2.5-4.395-2.938-2.6-.7-5.172-2.216-8.128-1.424-3.283-.57-6.685.131-9.948-.965a3.071,3.071,0,0,0-1.426.023,1.253,1.253,0,0,0-.93.791,1.384,1.384,0,0,0,.331,1.213,5.955,5.955,0,0,0,1.479.58l1.416.277c.1,1.355.354,2.64.385,3.842.034,3.153-.078,6.226-.118,9.377a14.107,14.107,0,0,1,.012,1.727c.173,3.458.346,6.917.445,10.373.033,1.127-.085,2.323-.129,3.523-.187,3.07.11,3.156-1.706,3.54-.982.189-2.035.225-3.017.415-.908.192-1.685.914-1.562,1.669.039.977.783,1.154,1.529,1.256l1.2.044,6.67.245,4.648.17c.749.028,1.5-.02,1.759-.911.26-.967-.323-1.438-1.058-1.84l-2.2-1.282a4.837,4.837,0,0,1-2.539-4.446c-.015-1.651.043-3.226.179-4.871.119-1.2.312-2.391.511-3.735l5.531.654c2.927,4.085,4.714,8.578,7.88,12.3,2.447,2.866,5.226,4.844,9.22,4.39.378-.061.989-.339,1.074-.635C473.111,815.22,472.514,815.123,472.069,814.956ZM456.63,795.928a10.8,10.8,0,0,1-7.067.342l.552-15.066a9.193,9.193,0,0,1,1.363-.325c1.5-.1,3.084-.188,4.583-.132a4.764,4.764,0,0,1,4.978,3.409c1.226,3.423.436,6.546-1.178,9.639A5.728,5.728,0,0,1,456.63,795.928Zm59.911-19.992c-1.476.3-1.461.454-3.086.775l.64,6.117a36.023,36.023,0,0,1,.5,6.961,30.5,30.5,0,0,0,.023,5.276c.288,2.761.652,5.513.873,8.356a7.706,7.706,0,0,1-1.923,5.4,20.19,20.19,0,0,1-5.166,4.688,6.568,6.568,0,0,1-2.674,1.109c-3.731.39-7.433.324-10.839-1.96-2.829-1.815-4.469-4.51-6.19-7.271a2.685,2.685,0,0,1-.235-.805c-.391-2.3-.707-4.6-1.023-6.906L485.8,783.373a24.489,24.489,0,0,0-.6-2.8c-1.342.14-2.528.339-3.655.382s-1.562-.515-1.5-1.351a1.439,1.439,0,0,1,1.151-1.252c1.253-.282,2.491-.713,3.826-.928a47.763,47.763,0,0,1,5.653-.741,2.556,2.556,0,0,1,1.473.374,1.629,1.629,0,0,1,.94,1.787c-.071.761-.727.98-1.391,1.125l-.73.227-.1,1.217c.468,4.477.637,8.984,1.627,13.4a28.642,28.642,0,0,0,1.105,3.354,16.28,16.28,0,0,1,.816,5.645c.116,2.553,1.9,5.232,4.311,5.885a11.231,11.231,0,0,0,5.025.455l2.446-.406c1.044-.109,2.179-.077,2.989-.991,1.06-1.393,2.287-2.652,2.472-4.482a16.555,16.555,0,0,0-.127-3.38c-.479-5.3-.958-10.609-1.511-15.906-.332-2.454-.731-4.825-1.154-7.421l-1.648.1c-1.351.065-1.681-.2-1.857-1.163-.1-.97.1-1.217,1.344-1.573.954-.251,1.991-.435,2.953-.611a34.141,34.141,0,0,1,4.751-.722C516.127,773.415,516.555,773.9,516.541,775.936Zm50.554,18.5a15.1,15.1,0,0,1,.187,2.583c.06,2.382-1.429,3.84-3.318,4.936a28.016,28.016,0,0,1-7.4,2.871,23.415,23.415,0,0,1-6.076.449,47.02,47.02,0,0,1-4.839-.481,12.864,12.864,0,0,1-5.827-2.553,20.661,20.661,0,0,1-4.666-4.392,18.913,18.913,0,0,1-3.38-7.27c-.237-.636-.257-1.327-.513-2.036-1.372-3.907-.525-7.6,1.3-11.08a30.733,30.733,0,0,1,4.118-6.066,19.647,19.647,0,0,1,8.029-5.274,28.884,28.884,0,0,1,4.78-1.593,24.4,24.4,0,0,1,4.748.119c1.328.051,2.6.194,3.949.319,1.564.069,1.855.3,2.368,1.723.421,1.363.9,2.635,1.245,4.017a12.762,12.762,0,0,1,.133,2.364c.056,1.147-.905,2.549-1.834,1.623a17.432,17.432,0,0,1-2.447-3.869c-1.951-2.524-4.553-3.028-7.5-2.44-1.636.258-3.292.134-4.927.7a7.545,7.545,0,0,0-3.47,2.19c-2.051,2.606-3.991,5.338-4.785,8.632a14.486,14.486,0,0,0,.691,8.567c.914,2.09,1.719,4.362,3.25,6.141.657.763.95,1.926,1.661,2.6a13.316,13.316,0,0,0,3.571,2.5,14.236,14.236,0,0,0,9.261,1.454,21.043,21.043,0,0,0,3.981-1.7,6.4,6.4,0,0,0,3.5-3.9,16.966,16.966,0,0,0,.611-3.4c.09-.563.088-1.183.178-1.746a1.26,1.26,0,0,1,1.217-1,.927.927,0,0,1,1.2.779C566.452,791.577,566.8,792.959,567.1,794.432Zm44.94-12.514c.577,1.223.054,2.326-.666,3.346a2.01,2.01,0,0,1-.9.77c-2.683,1.17-5.337,2.408-8.02,3.578-1.806.733-3.67,1.327-5.477,2.06-2.224.9-4.646,1.318-6.644,2.777a5.8,5.8,0,0,1-2.141.707,1.458,1.458,0,0,1-1.733-1.078c-.269-.862.259-1.157.828-1.551l.888-.6c1.736-1.11,2.067-1.891,1.583-3.88-.227-.96-.636-1.767-.933-2.7-.591-1.459-1-3.074-1.665-4.5q-1.923-4.442-4.054-8.8l-.606-1.293-3.445-6.7c-.085-.209-1.6-2.346-2.659-2.564-.2-.083-.4,0-.6-.081-1.267-.133-1.869-.617-1.942-1.4a2.78,2.78,0,0,1,1.744-2.084,55.254,55.254,0,0,0,10.484-3.687c2.376-1.126,4.781-2.182,7.185-3.238l1.043-.423c2-.651,2.784-.32,3.574,1.626a10.5,10.5,0,0,1,.817,2.016,4.593,4.593,0,0,1,.159.987,1.252,1.252,0,0,1-1.81.33c-2.542-1.479-4.992-1.132-7.576.078-2.418,1.224-5.724,3.051-7.095,4.659a99.73,99.73,0,0,0,5.057,11.467,34.261,34.261,0,0,0,9.3-3.611c.024-.739.02-1.547.086-2.383.052-.669.244-1.394,1.163-1.523.848-.1,1.2.565,1.425,1.121.551,1.557,1,3.073,1.486,4.658.044.306-.066.837-.274.921-.25.182-.932.3-1.086.117-.686-.693-1.283-.37-1.95-.019l-6.351,2.9a16.42,16.42,0,0,1-1.655.51l.568,2.2.954,4.145c.169.417.2.891.4,1.377.661,1.432,1.352,2.933,2.083,4.336.857,1.514,1.973,1.87,3.8,1.777,2.91-.209,5.341-1.6,7.743-3.06a5.316,5.316,0,0,0,2.393-3.48c.176-.961.45-1.882.655-2.775a1.1,1.1,0,0,1,1.193-1.05,1.52,1.52,0,0,1,1.13.593A31.12,31.12,0,0,1,612.035,781.918Zm40.559-38.741a4.015,4.015,0,0,1-2.3,3.745,3.068,3.068,0,0,1-3.075-.318,2.506,2.506,0,0,1-.66-3.063,8.632,8.632,0,0,1,.617-1.659,8.478,8.478,0,0,1,1.178-1.487c.92-.512,1.881-.961,2.769-.289A3.446,3.446,0,0,1,652.594,743.177Zm61.787-30.248c.208.321.461,1.121.244,1.435-.973,1.259-2.1,2.356-3.235,3.559-.27.261-.7.467-.966.727-.7.68-1.346,1.306-2.1,1.932a9.341,9.341,0,0,0-2.644,3.089,6.673,6.673,0,0,1-1.351,1.624c-.268.262-.908.464-1.064.3-.42-.326-.836-.862-.724-1.285a3.99,3.99,0,0,1,.719-1.951,3.37,3.37,0,0,0-.359-4.354c-2.767-2.959-5.426-6.022-8.247-8.928a42.493,42.493,0,0,0-3.3-2.966,22.945,22.945,0,0,1-2.193-2.366,27.628,27.628,0,0,0-5.645-5.494,3.129,3.129,0,0,0-3.5-.265c-.536.31-1.236.99-1.754.239a2.5,2.5,0,0,1,.081-1.855,4.3,4.3,0,0,1,1.031-1.629c2.368-2.3,4.787-4.436,7-6.79,1.67-1.725,3.5-3.183,5.165-4.908a34.522,34.522,0,0,0,2.484-3.039,1.765,1.765,0,0,1,2.079-.658,2.236,2.236,0,0,1,.79.382l4.176,4.413a4.859,4.859,0,0,1,.678.8,1.3,1.3,0,0,1-.345,1.8c-.59.469-1.065.3-1.589-.13a7.2,7.2,0,0,0-2.892-1.687,1.528,1.528,0,0,0-1.863.449c-1.456,1.623-3.328,2.709-4.785,4.331-.6.786-2.8,3.14-3.561,4.083,2.546,3.485,6.535,6.3,9.837,8.951,2.363-1.979,6.438-5,7.7-7.787-.258-.48-1.027-2.242-.278-2.655a1.525,1.525,0,0,1,2.007.559c1.769,2.255,1.934,1.886,3.7,4.14.363.482.675.912.137,1.434-.379.471-.756.837-1.494.614-1.425-.5-1.792-.77-2.709.224-1.514,1.994-4.734,4.491-6.358,6.694a46.766,46.766,0,0,0,9.558,9.848c1.018-.673,3.163-2.232,4.128-2.961A1,1,0,0,1,714.381,712.929Zm28.9-31.4a2.077,2.077,0,0,1-.477,1.164,62.148,62.148,0,0,1-8.184,9.29,1.133,1.133,0,0,1-1.411.293,1.119,1.119,0,0,1-.5-1.392,16.92,16.92,0,0,1,1.155-2.452,1.542,1.542,0,0,0-.1-2.228c-1.223-1.11-2.149-2.462-3.726-3.379A27.319,27.319,0,0,1,725.31,679c-1.5-1.244-2.861-2.662-4.372-4.012l-7.422-6.441a10.677,10.677,0,0,0-1.819-1.215c-1.241-.735-1.452-.716-2.64.248l-1.542,1.156a2.679,2.679,0,0,1-1.037.311c-.95.089-1.221-.525-.772-1.419a15.811,15.811,0,0,1,3.972-4.794c1.513-1.474,3.314-2.708,4.355-4.67.192-.23.527-.635.844-.665,1.012,1.131-.987,4.248-.987,4.248s1.05.967,1.878,1.848c1.7,1.7,3.313,3.524,5.124,5.218q2.3,2.343,4.737,4.51l8.2,6.795c.4.335.857.612,1.261.947,1.627,1.446,3.375,1.335,5.158.476a19.737,19.737,0,0,1,1.775-.966C742.9,680.229,743.464,680.6,743.284,681.524Zm29.123-43c-.38-.514-.77-.052-1.14.244a10.374,10.374,0,0,1-6.405,2.013,64.144,64.144,0,0,0-6.659-.21,22.458,22.458,0,0,1-8.04-.837c-.07-.581-.036-1.185-.105-1.766-.164-1.538-.121-3.119-1.012-4.5l-1.186-1.754a11.4,11.4,0,0,0-6.481-4.206,1.62,1.62,0,0,0-1.248,0c-1.594.664-3.564,1.084-4.777,2.264-1.933,1.875-4.558,3.3-5.4,6.245-2.175,2.523-3.32,5.8-5.934,8.04a3.063,3.063,0,0,0-.713,1.236,1.251,1.251,0,0,0,.2,1.2,1.381,1.381,0,0,0,1.211.339,5.982,5.982,0,0,0,1.257-.973l.964-1.072c1.214.61,2.447,1.052,3.5,1.642,2.723,1.59,5.3,3.263,7.986,4.916a13.691,13.691,0,0,1,1.488.876c3.057,1.627,6.114,3.253,9.131,4.942.984.55,1.95,1.267,2.957,1.92,2.538,1.736,2.765,1.525,2.162,3.28-.342.941-.85,1.863-1.193,2.8a1.734,1.734,0,0,0,.631,2.2c.858.468,1.392-.079,1.864-.668l.653-1,3.634-5.6,2.531-3.9c.409-.629.754-1.3.121-1.978-.695-.72-1.4-.462-2.122-.037l-2.231,1.234a4.834,4.834,0,0,1-5.119-.1c-1.425-.835-2.746-1.693-4.089-2.655-.966-.715-1.891-1.5-2.942-2.355l3.4-4.411c5.008-.415,9.781.358,14.6-.45,3.715-.628,6.84-2,8.5-5.659C772.543,639.419,772.618,638.752,772.407,638.525Zm-25.4,3.725a10.8,10.8,0,0,1-3.335,6.24l-12.646-8.207a9.178,9.178,0,0,1,.421-1.337c.691-1.34,1.422-2.743,2.24-4a4.767,4.767,0,0,1,5.481-2.522c3.566.705,5.841,2.986,7.667,5.96A5.728,5.728,0,0,1,747.011,642.25Z"/></svg>