<svg id="Layer_1" data-name="Layer 1" xmlns="http://www.w3.org/2000/svg" viewBox="0 0 864 864"><defs><style>.cls-1{fill:#fff;}.cls-2{fill:#761113;}.cls-3{fill:#3e3238;}.cls-4{fill:#fbb040;}</style></defs><circle class="cls-1" cx="422.355" cy="429.4" r="387.669"/><circle class="cls-2" cx="422.355" cy="429.4" r="387.669"/><path class="cls-3" d="M34.687,429.4a390.1,390.1,0,0,0,5.705,66.592H804.319a390.353,390.353,0,0,0-12.641-184.757H53.032A387.418,387.418,0,0,0,34.687,429.4Z"/><path class="cls-4" d="M231.418,235.255V570.867H619.64V235.255ZM260.5,264.333H363.82c-9.418,4.921-16.094,13.329-17.581,25.968-1.437,11.2,1.723,21.257,7.755,30.736,4.884,8.043,11.778,14.65,19.534,20.4,7.468,5.745,15.511,10.916,22.98,16.948,4.639,3.8,9.175,7.608,13.545,11.494-.434,1.237-.853,2.465-1.245,3.671a183.944,183.944,0,0,0-8.433,46.592,174.781,174.781,0,0,0,.8,35.481c2.061,16.888,7.62,40.483,18.264,60.852A97.978,97.978,0,0,1,392.2,527.285a71.171,71.171,0,0,1-22.118.574,34.372,34.372,0,0,1-5.745-.862c-31.024-7.756-54-21.257-62.622-53.141a38.694,38.694,0,0,1-.862-15.225c2.011-16.66,14.65-27,30.737-27.863a12.928,12.928,0,0,1,11.777,5.745c2.011,2.873,2.011,6.319,0,8.617a3.644,3.644,0,0,1-.287-1.723,8.286,8.286,0,0,0-8.043-6.319,6.593,6.593,0,0,0-4.022,1.148,9.421,9.421,0,0,0-.862,15.8,9.089,9.089,0,0,0,6.32,2.3,11.273,11.273,0,0,0,5.17-1.148c6.895-2.3,11.491-11.2,9.48-18.385-2.873-10.341-13.5-15.511-22.119-14.363a38.228,38.228,0,0,0-14.362,4.6c-.575.287-1.437.575-2.873,1.15a5.438,5.438,0,0,1,1.149-1.724c8.331-9.48,15.8-14.938,28.438-14.938a33.51,33.51,0,0,1,12.927,2.586,29.469,29.469,0,0,1,15.224,11.778c2.3,3.733,3.734,7.755,2.873,12.064-2.3,14.363-12.065,26.714-26.14,31.023-4.6,1.437-9.192,1.724-13.789,2.012h-.574l-1.724.287h-.575a16.039,16.039,0,0,0,1.724,8.9c3.448,6.32,8.905,9.48,15.8,10.628a48.691,48.691,0,0,0,20.395-.862c14.937-4.021,25.278-16.372,29.3-31.023a49.2,49.2,0,0,0,1.149-23.267c-3.447-20.107-22.693-35.045-41.652-39.929a55.015,55.015,0,0,0-18.1-1.148c-29.587,4.021-47.684,33.321-49.982,61.184a66.026,66.026,0,0,0,3.447,24.7c8.331,26.715,33.322,46.248,59.749,53.43,5.745,1.723,11.49,2.3,17.235,2.873a126.944,126.944,0,0,0,31.311-2.3,108.209,108.209,0,0,0,24.994-8.512,89.579,89.579,0,0,0,12.8,15.835H260.5ZM436.518,405.442c.19-1.974.4-4.033.632-6.146a97.571,97.571,0,0,1,17.383,44.4,79.841,79.841,0,0,1-1.723,26.14c-2.277,8.54-5.687,18.2-10.5,25.922a214.361,214.361,0,0,1-6.193-41.213C435.715,438.415,435.314,421.928,436.518,405.442ZM590.562,541.789h-64.9c1.489-1.092,2.973-2.192,4.423-3.38a7.753,7.753,0,0,0,2.008-2.868,4.122,4.122,0,0,1,.4-2.151v-3.942a4.107,4.107,0,0,0,.4-2.151c1.205-6.45,2.41-13.26,3.213-19.711.8-3.942,1.606-7.526,2.008-11.11.4-3.942.8-7.526,1.607-11.828H533.3q-2.41,0-2.41,2.151c-.8,2.151-1.606,4.659-2.409,7.168-5.058,15.625-15.412,38.275-31.756,47.822H468.763c-9.745-5.955-16.8-17.653-21.788-31.015,13.459-12.835,22.251-30.087,24.506-51.281a77.436,77.436,0,0,0,.288-16.374c-1.437-24.99-9.193-46.247-25.854-65.206-1.507-1.695-3.023-3.361-4.544-5.016,4.161-18.445,11.552-36.907,25.668-47.736a15.373,15.373,0,0,1,9.639-3.584,15.039,15.039,0,0,1,8.031,2.508c5.623,2.868,9.237,7.168,12.048,12.186a10.076,10.076,0,0,1,.4,8.961c-1.2,2.508-2.811,4.3-7.228,4.3l2.409-2.15a6.444,6.444,0,0,0-.8-8.6c-2.811-2.151-7.229-2.151-9.638,0-3.213,2.509-4.015,5.018-2.008,9.318,1.606,4.3,6.426,6.81,11.245,6.81a11.661,11.661,0,0,0,7.63-2.868c4.819-4.3,6.425-9.317,5.22-15.052-.8-4.3-3.614-8.243-7.228-11.469-.8-.717-2.008-1.434-2.008-2.867a28.4,28.4,0,0,1,13.654,7.885c7.631,7.526,8.834,16.845,6.024,26.163-2.008,7.885-8.434,11.827-17.269,11.827-15.26,0-25.3-7.884-29.718-20.429a20.077,20.077,0,0,0-1.606-2.508c-5.22,2.508-8.433,6.092-9.236,10.752-1.205,4.659,0,8.959,1.606,13.261,4.418,12.9,16.466,21.862,32.128,21.862,24.5,0,38.151-17.562,39.757-37.632a40.1,40.1,0,0,0-2.409-16.845c-3.615-7.885-8.033-14.695-14.859-20.429a51.185,51.185,0,0,0-22.891-9.677c-5.623-.717-11.245-.358-16.867,0-25.669,2.317-43.052,21.641-54.084,42.437-.4-.427-.81-.85-1.214-1.28-4.022-4.022-8.331-7.468-12.065-11.778-8.618-8.9-16.948-17.81-25.566-26.714-6.032-6.607-8.9-14.363-10.341-22.98A13.612,13.612,0,0,1,374.1,274.5c2.872-2.585,6.032-4.022,9.192-4.022,6.033,0,11.49,5.746,12.639,11.49.575,3.16.575,6.32.862,9.48v4.021c3.447-.287,6.32-.574,9.192-.861.939-10.093,1.675-20.185,2.387-30.277H590.562Z"/></svg>