<svg id="Layer_1" data-name="Layer 1" xmlns="http://www.w3.org/2000/svg" viewBox="0 0 864 864"><defs><style>.cls-1{fill:#761113;}.cls-2{fill:#607848;}.cls-3{fill:#9e1e22;}.cls-4{fill:#fff;}.cls-5{fill:#3e3238;}</style></defs><path class="cls-1" d="M576.414,405.292a40.194,40.194,0,0,0-9.982,1.2c.29-.629.577-1.259.839-1.9a61,61,0,0,0,4.468-16.985c.564-6-1.423-11.394-3.182-17.023-2.1-6.708-6.205-12.113-6.911-19.36a19.79,19.79,0,0,1,2.921-13.035c3.058-4.487,8.339-7.11,13.708-7.922a18.273,18.273,0,0,1,9.912.967c9.888,4.25,11.438,17.434,6.176,25.755-3.624,5.732-8.122,7.645-11.1,6.153-1.635-.819-1.859-2.059-1.979-3.471a3.588,3.588,0,0,0-2.156-3,4.667,4.667,0,0,0-6.062,1.582c-1.46,2.31-.939,6.288,4.056,8.791,5.863,2.938,14.214.139,19.838-8.758,8-12.66,2.864-29.544-11.648-36.816a32.6,32.6,0,0,0-42.106,11.568c-6.167,9.753-6.478,19.847-5.862,29.28.133,2.016.314,4,.494,5.945-44.929,49.98-119.7-19.684-162.448-75.18-12.48-16.2-25.908-24.86-38.745-28.785-2.2-2.05-4.155-4.009-6.022-5.878-.708-.708-1.4-1.4-2.08-2.073h0c-1.24-1.224-2.425-2.461-3.571-3.658a72.529,72.529,0,0,0-12.254-10.859,15.3,15.3,0,0,1,10.652-6.171c6.3-.713,8.853,1.716,9.136,4.228.167,1.473-1.013,2.116-2.035,2.4-2.943.819-4.65,3.066-4.349,5.725a5.208,5.208,0,0,0,6.048,4.464,7.887,7.887,0,0,0,5.408-3.387,10,10,0,0,0,1.77-6.974c-.832-7.352-7.768-11.972-16.49-10.986a20.409,20.409,0,0,0-14.222,8.535c-10-4.582-20.793-4.577-28.16-3.744-10.379,1.173-19.719,5.542-26.3,12.3s-9.668,15.106-8.718,23.517a30.727,30.727,0,0,0,12.58,21.342,35.457,35.457,0,0,0,21.167,6.861,38.262,38.262,0,0,0,4.275-.241,34.944,34.944,0,0,0,9.371-2.372,26.688,26.688,0,0,1,.968,3.253v.025c7.187,25.137-7.82,73.663-2.341,106.411.286.092.557.2.835.3a37.952,37.952,0,0,0-12.7-2.015c-23.031,0-42.8,19.452-42.8,42.954s18.832,42.791,45.131,42.791q1.681,0,3.321-.088c2.079.11,4.155.171,6.218.171H561.85c3.669,0,7.337.017,11,0h.478a24.473,24.473,0,0,0,3.2-.139c25.011-1.157,42.682-19.975,42.682-42.735C619.211,424.744,599.445,405.292,576.414,405.292Zm-25.7,19.646a14.4,14.4,0,0,0,.647,2.943,17.842,17.842,0,0,0-1.932,4.036,15.592,15.592,0,0,0,4.209,16.373c1.292,1.161,3.178-.728,1.888-1.888a13.038,13.038,0,0,1-3.55-13.641,14.776,14.776,0,0,1,.838-2,8.877,8.877,0,0,0,7.1,3.946,6.183,6.183,0,0,0,6.382-6.225,5.716,5.716,0,0,0-2.646-4.981c-.444-.3-.87-.592-1.262-.907a27.381,27.381,0,0,1,18.051.123c16.516,5.471,23.4,21.364,18.524,36.086-4.909,14.817-21.936,22.269-39.68,16.39-9.815-3.251-17.119-8.708-21.972-15.868a22.5,22.5,0,0,0,4.547-6.136,35.473,35.473,0,0,0,17.344,12.762c11.136,3.689,21.784-1.266,25-10.989,2.438-7.359.009-13.61-4.058-18.414-1.1-1.414-3.3.478-2.071,1.83a13.192,13.192,0,0,1,2.855,13.511c-3.252,9.814-13.938,12.033-21.676,9.47a32.061,32.061,0,0,1-16.086-11.509,39.773,39.773,0,0,0,.564-21.025c-.186.083-.378.153-.565.233A45.954,45.954,0,0,0,550.714,424.938Zm-13.206,6.148c1.436-.407,2.842-.9,4.224-1.436-.172.068-.339.146-.513.212a38.043,38.043,0,0,1-.031,17.132,67.018,67.018,0,0,1-7.044-15.908Zm-6.187,0c2.089,6.435,4.739,13.372,8.775,19.523a17.84,17.84,0,0,1-4.328,6.423c-4.982-8.355-7.763-16.4-10.6-22.682-.466-1.041-.941-2.122-1.448-3.264Zm-120.7,0H439.76c.172-.1.352-.178.526-.27a32.377,32.377,0,0,0-15.1,16.954v0a32.4,32.4,0,0,0-15.1-16.956C410.267,430.909,410.445,430.991,410.617,431.086Zm-79.716,0c-.507,1.142-.982,2.223-1.448,3.264-2.839,6.286-5.62,14.327-10.6,22.682a17.84,17.84,0,0,1-4.328-6.423c4.036-6.151,6.686-13.088,8.776-19.523Zm-17.47,15.908a37.9,37.9,0,0,1-.282-15.908h7.326A67.058,67.058,0,0,1,313.431,446.994ZM309.709,247.67a133.82,133.82,0,0,1,13.537,11.316c1.2,1.1,2.345,2.155,3.461,3.147a62.08,62.08,0,0,0-7.4-.526,68.973,68.973,0,0,0-10.37-8.279A17.533,17.533,0,0,1,309.709,247.67Zm.7,183.416a39.492,39.492,0,0,0,1.039,18.762,32.061,32.061,0,0,1-16.086,11.509c-7.738,2.563-18.424.344-21.675-9.47a13.192,13.192,0,0,1,2.854-13.511c1.227-1.352-.968-3.244-2.071-1.83-4.068,4.8-6.5,11.055-4.057,18.414,3.22,9.723,13.868,14.678,25,10.989a35.475,35.475,0,0,0,17.343-12.762,22.5,22.5,0,0,0,4.547,6.136c-4.853,7.16-12.158,12.617-21.971,15.868-17.745,5.879-34.772-1.573-39.681-16.39-4.877-14.722,2.008-30.615,18.523-36.086,6.965-2.308,13.717-2,18.976.245q-.377.273-.778.539a5.718,5.718,0,0,0-2.646,4.981,6.183,6.183,0,0,0,6.382,6.225,8.662,8.662,0,0,0,6.205-2.838q.177.44.329.894a13.036,13.036,0,0,1-3.55,13.641c-1.29,1.16.6,3.049,1.888,1.888a15.594,15.594,0,0,0,4.209-16.373c-.093-.281-.2-.557-.3-.831ZM284.13,247c-12.019,1.359-20.155,10.6-18.924,21.494a18.838,18.838,0,0,0,4.153,9.95c3.009,3.625,7.269,5.647,11.525,7.438,3.869,1.628,7.466,3.813,9.881,7.334a29.978,29.978,0,0,1-7.8,1.939,28.058,28.058,0,0,1-21.1-5.784,27.449,27.449,0,0,1-9.8-18.39,25.22,25.22,0,0,1,6.716-20.046c5.246-5.742,12.922-9.446,21.614-10.428,9.536-1.08,18.053.493,25.326,4.668a24.64,24.64,0,0,0-1.235,5.585A36.177,36.177,0,0,0,284.13,247Zm-3.117,239.832c-22.72,0-36.726-17.271-36.726-38.59S258.759,409.5,279.613,409.5c10.427,0,16.185,4.044,16.185,8.868a4.923,4.923,0,0,1-.621,2.509c-5.933-2.871-13.7-3.41-21.847-.712-17.837,5.91-27.552,24-22.206,40.138,5.284,15.951,25.421,23.941,45.62,17.25,9.151-3.032,18.03-8.172,24.08-15.517a21.186,21.186,0,0,0,8.229,2.883c-2.387,1.528-4.751,3.092-7.111,4.648C308.713,478.433,296.109,486.836,281.013,486.836Zm94.6.213H304.108a111.861,111.861,0,0,0,22.346-11.571c4.957-3.187,9.65-6.486,14.241-9.492,6.774,2.917,13.361,8.01,20.743,12.754a83.216,83.216,0,0,0,15.886,8.309Zm17.95,0c-10.543-.432-19.467-6.38-28.818-12.648-6.336-4.178-12.709-8.438-19.777-11.129h0c8.015-4.905,15.865-8.491,24.432-8.491,15.251,0,24.59,8.094,35.171,17.428,2.022,1.716,4.824-1.4,2.8-3.108-11.361-9.962-21.631-18.521-38.593-18.521a56.125,56.125,0,0,0-21.706,4.544,10.749,10.749,0,0,0-.074-6.686c-1.532-4.625-6.183-6.96-9.673-5.8a4.242,4.242,0,0,0-3.025,5.4c.719,2.169,2.824,3.147,5.307,2.743,1.885-.311,3.363.352,3.894,1.956a5.136,5.136,0,0,1-.419,4.169c-2.514,1.205-4.973,2.532-7.393,3.938h0l-.017.011q-1.223.711-2.431,1.446a16.653,16.653,0,0,1-10.72-2.4c4.725-7.538,6.155-13.668,8.715-20.483.969-2.588,1.948-5.344,3.113-8.331h47.508l.006,0a11.168,11.168,0,0,0-5.013,9.057c0,5.938,3.772,8.678,6.854,8.678a4.539,4.539,0,0,0,4.684-4.568,4.19,4.19,0,0,0-1.944-3.656c-1.371-.915-2.512-1.824-2.512-3.768,0-3.54,4.227-6.509,11.88-6.509,15.3,0,25.925,12.792,25.925,28.44,0,15.279-9.809,27.719-25.8,28.293Zm22.959,0h-7.64a31.072,31.072,0,0,0,16.3-17.167v0a31.061,31.061,0,0,0,16.3,17.164Zm40.284,0h-2.376c-15.992-.574-25.8-13.014-25.8-28.293,0-15.648,10.619-28.44,25.925-28.44,7.654,0,11.88,2.969,11.88,6.509,0,1.944-1.145,2.853-2.515,3.768a4.2,4.2,0,0,0-1.94,3.656,4.537,4.537,0,0,0,4.684,4.568c3.082,0,6.85-2.74,6.85-8.678a11.168,11.168,0,0,0-5.011-9.057l.006,0h51.751c1.165,2.987,2.144,5.743,3.113,8.331,2.56,6.815,3.99,12.945,8.715,20.483a16.946,16.946,0,0,1-9.111,2.521,108.74,108.74,0,0,0-11.825-6.345,5.074,5.074,0,0,1-.046-3.34c.532-1.6,2.01-2.267,3.895-1.956,2.484.4,4.588-.574,5.307-2.743a4.242,4.242,0,0,0-3.025-5.4c-3.49-1.157-8.141,1.178-9.674,5.8a10.784,10.784,0,0,0-.252,6.053,55.339,55.339,0,0,0-20.118-3.911c-16.962,0-27.233,8.559-38.594,18.521-2.022,1.711.78,4.824,2.8,3.108,10.582-9.334,19.92-17.428,35.171-17.428,7.844,0,15.088,3.006,22.407,7.279-.333.1-.665.193-.994.3-8.134,2.56-15.3,7.357-22.408,12.045C476.278,480.669,467.354,486.617,456.81,487.049Zm88.045,0H473.05a83.3,83.3,0,0,0,15.889-8.309c8.322-5.349,15.633-11.14,23.343-13.76q.5-.169,1-.321c5.246,3.342,10.6,7.156,16.293,10.819a111.861,111.861,0,0,0,22.346,11.571Zm30.159-.213c-15.1,0-27.7-8.4-40.929-17.271-2.45-1.615-4.905-3.239-7.384-4.822a21.434,21.434,0,0,0,7.094-2.709c6.05,7.345,14.929,12.485,24.08,15.517,20.2,6.691,40.336-1.3,45.62-17.25,5.347-16.137-4.369-34.228-22.206-40.138-7.626-2.526-14.922-2.214-20.691.19a5.126,5.126,0,0,1-.369-1.987,6.083,6.083,0,0,1,.95-3.223c.286-.369.572-.738.847-1.117,2.448-2.682,7.349-4.528,14.388-4.528,20.854,0,35.326,17.427,35.326,38.748S597.734,486.836,575.014,486.836Z"/><path class="cls-2" d="M448.637,281.974c-.1.615-4.279,4.064-7.4,10.118a2.647,2.647,0,0,0-.26-.22,12.014,12.014,0,0,0-12.69-.637,36.689,36.689,0,0,1-.592-5.961c.179-2.382.564-6.208-.8-6.935.7,1-.332,3.229-.478,4.089-.538,1.879-.836,3.589-1.289,5.041-.286-.923-5.636-9.506-7.231-11.746-1.061-1.5-2.553-3.067-2.871-5.093a60.518,60.518,0,0,1,.593-8.679,11.1,11.1,0,0,0-2.329,4.652c-.143.854-.357,2.133-.85,2.49-.571.782-1.212-.64-1.575-1.146-1.235-1.736-10.493-10.546-11.1-10.871.367.5.717,1,1.071,1.493s.884,1.245,1.412,2.007c.721,1,11.6,13.138,13.2,15.388.878,1.243,5.031,6.563,5.491,7.728-.744.537-5.076-2.4-6.286-3.044a37.353,37.353,0,0,0-4.9-2.142,45.032,45.032,0,0,1,5.106,3.5,60.634,60.634,0,0,1,8.88,7.2c.763,1.08,1.491,2.374,2.235,3.573a16.043,16.043,0,0,0-2.476,2.5,9.452,9.452,0,0,0-2.082,7.549,12.987,12.987,0,0,0,3.118,6.3,33.026,33.026,0,0,0-8.475-1.7c-1.739-.29-8.6,2.263-11.353,3.465.148-.876,3.2-5.537,1.5-12.626-1.993-8.325-8.549-16.733-15.316-19.786-3.329-1.5-6.476-1.54-10.473-1.771-.363-.508,7.473-7.572,8.43-19.154.385-4.5-1.064-14.152-2.667-20.272.877.156,4.526,6.862,12.368,10.53,6.113,2.871,19.133.419,24.728-1.559.363.509-.086,3.124.13,4.506a33.541,33.541,0,0,0,6.071,17.188c4.336,6.2,7.678,10.029,13.594,12.272C447.189,281.784,447.3,281.327,448.637,281.974Zm68.917-26.263c-1.136.828-2.827,1.36-3.953,2.168a108.4,108.4,0,0,1-12.09,2.863c-5.047.188-9.241.114-14.286.3a8.786,8.786,0,0,1-3.9-.637c-.561-.285-1.68-.863-2.225-1.15-.852.259-1.454,2.77-1.738,3.319-.584,1.111-1.165,2.227-2.029,3.881a59.011,59.011,0,0,1-6.859,7.713,17.107,17.107,0,0,1-8.48,4.055c-2.53.789-6.442.155-8.421,1.25a7.454,7.454,0,0,0,1.321,4.216c.537,1.684.506,3.09,1.035,4.778a53.176,53.176,0,0,1,.956,8.978c-.008.452.024,1.973-.054,3.777a15.306,15.306,0,0,1,6.912.907c.067-.11.132-.226.2-.333a6.794,6.794,0,0,0,1.114-2.664c.313-.615.362-2.139,1.112-2.665,1.132,1.069-.153,3.477.732,4.732a3.453,3.453,0,0,0,1.808-1.678,8.867,8.867,0,0,1,2.072-1.845c1.566-1.49,6.026-5.776,6.6-6.556.4-1.034-.25-8.593.2-10.28a9.7,9.7,0,0,0,.314,2.025c.035,1.1,1.583,7.5,1.507,7.942,1.249-.895,1.895-2.107,2.962-3.234.573-.781,1.317-1.309,2.14-2.271.745-.534,1.117-5.3.974-7.077a62.925,62.925,0,0,0,.058-6.792c.283.917,1.358,8.789,1.752,10.392,1.076-1.141,7.514-6.853,9.585-8.695a61.183,61.183,0,0,1,7.947-6.777c-.955,1.813-3.95,3.937-5.341,5.675-1.07,1.141-10.06,10.161-10.376,10.753a10.364,10.364,0,0,0,5.084-.233,17.681,17.681,0,0,1-3.6,1.8,10.278,10.278,0,0,0-2.674,1.533c-1,.7-12.226,11.314-13.221,12.022a13.271,13.271,0,0,0-2.393,2.448c1.6-.39,6.265-2.65,11.4-2.47-.928.289-1.6.392-2.529.672s-1.425.637-2.357.916a103.988,103.988,0,0,0-10.846,6,13.278,13.278,0,0,1,1.494,2.025,31.877,31.877,0,0,1,7.94.675c3.914.634,8.4.151,11.736,1.891,1.1.583,3.024,2.295,3.876,2.036s1.158-2.226,1.455-2.779a38.317,38.317,0,0,1,4.315-6.914c2.015-2.478,4.591-6.082,7.718-7.988a33.817,33.817,0,0,1,6.485-2.949c1.683-.533,3.938-.767,5.623-1.308,1.132-.82,1.132-.82.609-2.506s-2.173-3.962-2.969-6.494c-1.313-4.218-.952-8.977-.028-13.436.045-2.8,1.211-5.019,2.1-8.082.582-1.111.61-2.515,1.186-3.614.288-.562.885-1.67,1.161-2.223C519.272,253.788,518.693,254.891,517.554,255.711ZM502.9,340.377a26.138,26.138,0,0,1-2.54-9.869c-.029-.626.506-1.922-.152-2.5-.674-.588-1.876.114-2.508.158-9.961.665-23.4-4.053-26.652-14.444a9.522,9.522,0,0,1-2.551,6.3,13.68,13.68,0,0,1-8.534,3.978,11.8,11.8,0,0,1-7.434-1.591c-.095.462-.2.917-.324,1.362,2.5,1.062,5.032,2.02,7.5,3.057a59.224,59.224,0,0,0,7.286,3.714,17.082,17.082,0,0,0,5.8.528c2.142-.144,5.542-.888,7.428-.093-2.4.774-9.989,1.891-10.572,2.237.38,1.2,8.518,3.728,10.742,4.8,3.482,1.622,12.962,5.891,13.626,6.772-.563.651-5-1.512-6.567-2.02-2.833-1.04-5.661-2.085-8.483-3.115-1.262-.53-6.256-1.735-7.184-1.978-.632-.268-1.568-.506-2.2-.766.079,1.21,1.681,2.336,2.355,3.209.652.567,2.259,1.692,2.628,2.592-.609.033-3.794-1.514-6.362-4.191-2.039-2.122-4.148-4.742-4.828-5.62s-4.464-4.179-5.071-4.142c.881,1.518,1.133,2.275,1.813,3.461.372.9,1.9,2.1,1.765,4.274-.405-1.5-4.1-6.475-5.393-7.305a32.527,32.527,0,0,0-5.025-3.169c-.194.485-.4.945-.617,1.373a8.99,8.99,0,0,1-1.424,2.073c-.183.2-.381.371-.577.548a17.838,17.838,0,0,1,2.979,6.224,7.825,7.825,0,0,1,.872,3.708c.039.626-.407,3.167.869,3.708.673.578,2.508-.165,3.755-.247,1.287.545,3.208,1.037,4.5,1.579,5.121,1.542,9.657,3.747,13.032,7.293a82.1,82.1,0,0,1,6.866,8.949c1.418,2.415,2.24,5.5,3.657,7.915,1.709-2.634,2.128-5.8,4.459-8.457a40.754,40.754,0,0,1,8.4-5.581c3.716-.864,7.422-1.739,11.838-1.409,1.9.494,5.785,2.117,7.618,1.376C511.777,351.074,506.489,347.039,502.9,340.377Z"/><path class="cls-3" d="M470.785,310.831c-.644-3.012-2.593-5.7-5.779-7.991-2.668-1.9-6.262-1.714-9.167-1.569l-.828.037a1.769,1.769,0,0,0-1.142.454,11.607,11.607,0,0,0-5.525,3.37,10.956,10.956,0,0,0-1.9,2.829,3.247,3.247,0,0,0-.9-.484c-.43-.143-.9-.282-1.4-.412h0a11.472,11.472,0,0,0,.79-1.849c1.131-3.619-.122-8.587-2.851-11.615a2.592,2.592,0,0,0-1.111-1.73c-5.575-3.844-12.858-2.428-17.482,3.4a9.452,9.452,0,0,0-2.082,7.549c.562,3.554,3.148,7.144,6.893,9.6.255.169.513.313.772.452l0,0a10.693,10.693,0,0,0-1.775,6.651,14.07,14.07,0,0,0,5.2,9.659c4.579,3.85,12.64,4.911,16.919.28a8.994,8.994,0,0,0,1.425-2.073,20.394,20.394,0,0,0,1.685-4.978,11.8,11.8,0,0,0,7.436,1.592,13.68,13.68,0,0,0,8.534-3.978A9.942,9.942,0,0,0,470.785,310.831ZM439.08,297a1.081,1.081,0,0,1,.613-.951c.014-.009.014-.009.016-.015.072-.031.14-.06.21-.087a1.278,1.278,0,0,1,1.807.767,2.754,2.754,0,0,1,.3,1.234c.969,1.416,1.154,3.986-.9,4.286a2,2,0,0,1-2.349-1.371,1.19,1.19,0,0,1-.576-.868A3.76,3.76,0,0,1,439.08,297ZM448,322.022a1.236,1.236,0,0,1-1.855.241,1.278,1.278,0,0,1-.718-.185,1.316,1.316,0,0,1-.926-1.368c.185-.97.518-2.543,1.818-3.043a.809.809,0,0,1,.191-.028,1.271,1.271,0,0,1,.276-.049c.044,0,.085-.011.127-.009a1.238,1.238,0,0,1,.7.212,1.438,1.438,0,0,1,.625.9,1.614,1.614,0,0,1,.108.23,2.544,2.544,0,0,1,.025,1.276A2.19,2.19,0,0,1,448,322.022Zm16.847-6.336c-.672.166-1.906-.125-1.855-1.084a1.86,1.86,0,0,1,.47-1.157,4.027,4.027,0,0,1,1.058-1.263,1.182,1.182,0,0,1,1.5-.19,1.163,1.163,0,0,1,.454,1.17A2.305,2.305,0,0,1,464.85,315.686Z"/><path class="cls-4" d="M309.962,398.72v-2.978q16.926-15.39,16.926-28.305a10.038,10.038,0,0,0-1.536-5.861,4.778,4.778,0,0,0-4.106-2.194,4.889,4.889,0,0,0-3.589,1.489,4.712,4.712,0,0,0-1.489,3.432,7.011,7.011,0,0,0,1.16,4.012,1.212,1.212,0,0,1,.251.564c0,.231-.251.439-.753.628q-.5.188-2.539,1.065a9.513,9.513,0,0,1-2.445.878q-.564,0-1.285-1.74a9.679,9.679,0,0,1-.721-3.746,8.9,8.9,0,0,1,4-7.491,16.324,16.324,0,0,1,9.889-2.915,15.078,15.078,0,0,1,9.733,3.15,10.043,10.043,0,0,1,3.934,8.228,13.5,13.5,0,0,1-1.332,5.83q-1.334,2.821-6.38,8.7t-9.841,10.862H337.8l-1.6,8.965h-3.323a4.4,4.4,0,0,0,.188-1.192q0-.909-.47-1.144a4.907,4.907,0,0,0-1.881-.235Zm36.418-21.408.721-21.221h21.221a41.274,41.274,0,0,1-2.3,5.062q-.864,1.457-1.318,1.473t-2.805.016H350.33l-.282,10.03a11.486,11.486,0,0,1,7.523-2.57,14.467,14.467,0,0,1,9.7,3.683q4.278,3.682,4.279,10.234,0,7.3-5.2,11.457A19.191,19.191,0,0,1,354,399.629a15.924,15.924,0,0,1-8.213-1.927q-3.261-1.929-3.26-4.75a3.417,3.417,0,0,1,1.16-2.586,3.8,3.8,0,0,1,2.664-1.081q2.382,0,4.013,3.26,1.722,3.417,4.7,3.417A4.731,4.731,0,0,0,359.4,393.5q1.458-2.46,1.457-9.482,0-5.486-1.347-7.727a4.67,4.67,0,0,0-4.326-2.241,5.282,5.282,0,0,0-4.858,3.261Zm46.543,14.773L390.7,403.213h-3.385l2.32-11.567a13.789,13.789,0,0,1-8.056-4.608,12.548,12.548,0,0,1-2.853-8.212,13.244,13.244,0,0,1,4.326-10.093q4.326-4.044,12-4.357l2.477-12.382h3.385l-2.539,12.57a11.188,11.188,0,0,1,5.924,2.288,5.005,5.005,0,0,1,1.943,3.762,3.877,3.877,0,0,1-1.19,2.868,4,4,0,0,1-2.916,1.175q-3.417,0-4.356-4.451a10.431,10.431,0,0,0-.283-1.1l-3.7,18.431a8.163,8.163,0,0,0,2.54.407,7.346,7.346,0,0,0,7.178-4.764l3.228,1.411a10.43,10.43,0,0,1-4.639,5.391,15.471,15.471,0,0,1-8.244,2.132Q393.455,392.117,392.923,392.085Zm1.441-24.293q-4.951.659-4.952,8.808,0,5.674,1.536,8.432Z"/><path class="cls-2" d="M701.911,477.23c-.162.012-.272.012-.38.028-.94.142-1.878.293-2.818.43a8.677,8.677,0,0,1-2.8.039,1.6,1.6,0,0,1-1.469-1.718,1.673,1.673,0,0,1,.446-1,2.7,2.7,0,0,1,1.261-.782c1.369-.437,2.75-.842,4.108-1.313a32.342,32.342,0,0,0,3.418-1.4,50.781,50.781,0,0,0,4.514-2.5,44.013,44.013,0,0,0,5.453-3.816c.471-.4.928-.811,1.386-1.223a2.25,2.25,0,0,0,.227-.283l-.043-.085c-.221.029-.444.044-.663.087a16.8,16.8,0,0,1-4.948.206,6.9,6.9,0,0,0-2.335.091c-.735.179-1.454.42-2.179.636-.812.242-1.619.5-2.435.725a1.315,1.315,0,0,1-1.29-.3,1.173,1.173,0,0,1-.414-1.068,5.067,5.067,0,0,1,.962-2.483,2.79,2.79,0,0,1,1.315-.974c.569-.2,1.152-.354,1.732-.517.506-.143,1.02-.261,1.524-.411a2.529,2.529,0,0,0,1.194-.743,3.462,3.462,0,0,1,1.973-1.118c.693-.133,1.375-.327,2.068-.46a10.07,10.07,0,0,0,2.262-.746c.828-.376,1.645-.786,2.435-1.238a20.507,20.507,0,0,0,3.391-2.588c.333-.3.655-.605.981-.908l-.047-.085a1.494,1.494,0,0,0-.249.086c-.527.292-1.041.61-1.579.882a23.412,23.412,0,0,1-3.683,1.457,20.021,20.021,0,0,1-3.521.814,15.565,15.565,0,0,1-3.882-.017,4.425,4.425,0,0,1-1.872-.531,1.386,1.386,0,0,1-.786-1.153,1.292,1.292,0,0,1,.5-1.114,3.09,3.09,0,0,1,1.067-.52c.922-.274,1.844-.551,2.767-.825a24.927,24.927,0,0,0,4.862-2.117,19.107,19.107,0,0,0,3.545-2.439,5.81,5.81,0,0,0,1.532-1.778,7.87,7.87,0,0,0-.976.843c-.738.675-1.474,1.353-2.23,2.008a2.538,2.538,0,0,1-.759.443,1.331,1.331,0,0,1-1.223-.059,1.186,1.186,0,0,1-.523-.688c-.033-.108-.064-.216-.109-.367-.127.043-.231.075-.332.113a1.905,1.905,0,0,1-.936.172,1.113,1.113,0,0,1-1.036-1.1c-.014-.252,0-.5,0-.8-.139.038-.246.065-.352.1-.6.177-1.2.371-1.811.526a2.16,2.16,0,0,1-1.18,0,1.335,1.335,0,0,1-.9-1.854,3.038,3.038,0,0,1,1.076-1.371,21.626,21.626,0,0,1,2.7-1.483c.681-.36,1.365-.718,2.071-1.024,1.164-.506,2.348-.968,3.523-1.45.462-.19.922-.386,1.384-.578a31.649,31.649,0,0,0,3.119-1.592,2.412,2.412,0,0,0,.26-.2,1,1,0,0,0-.587-.217,2.984,2.984,0,0,1-1.124-.474,1.149,1.149,0,0,1,.247-1.96,11.358,11.358,0,0,1,1.436-.433,7.3,7.3,0,0,0,3.432-1.963,3.96,3.96,0,0,0,.339-.452c-.241-.144-.442-.251-.629-.38a3.432,3.432,0,0,1-.537-.428,1.426,1.426,0,0,1-.421-1.267.975.975,0,0,0,.008-.153c0-.01-.013-.02-.036-.054a1.176,1.176,0,0,0-.6.143,6.28,6.28,0,0,1-2.095.471c-.281,0-.562-.025-.843-.047a1.682,1.682,0,0,1-1.161-.687,1.139,1.139,0,0,1-.255-.9c.016-.135.016-.273.025-.439-.4-.051-.769-.106-1.137-.143a2.761,2.761,0,0,1-1.348-.524,1.513,1.513,0,0,1-.7-1.184,1.339,1.339,0,0,1,1.093-1.431c.724-.169,1.46-.291,2.195-.407,1.116-.175,2.236-.324,3.354-.492a5.625,5.625,0,0,0,.578-.147l0-.095c-.154-.034-.308-.073-.463-.1a3.1,3.1,0,0,1-1.437-.607,1.4,1.4,0,0,1-.109-2.184,4.805,4.805,0,0,1,1.015-.756c.7-.38,1.431-.695,2.14-1.055.652-.331,1.292-.686,1.936-1.032.028-.016.042-.057.055-.075a6.6,6.6,0,0,1-.829-.457.905.905,0,0,1-.352-.855,9.5,9.5,0,0,1,.211-.959c-.1-.032-.2-.064-.308-.1a1.83,1.83,0,0,1-1.3-2.093,2.424,2.424,0,0,1,.854-1.425,5.514,5.514,0,0,1,1.481-.887c.9-.384,1.793-.769,2.681-1.173a4.63,4.63,0,0,0,1.4-1.07.891.891,0,0,0,.314-.681c-.149.054-.263.1-.378.136l-1.424.471c-.414.138-.828.276-1.24.418a5.181,5.181,0,0,1-2,.333,2.422,2.422,0,0,1-1.236-.378,1.559,1.559,0,0,1-.544-2,3.809,3.809,0,0,1,1.45-1.507,9.213,9.213,0,0,1,1.169-.58c.183-.086.377-.149.59-.233a1.293,1.293,0,0,0-.123-.186,1.609,1.609,0,0,1,.057-2.287,4.059,4.059,0,0,1,1.372-.976q.729-.3,1.462-.592a10.922,10.922,0,0,0,2.518-1.62c.027-.021.038-.063.082-.139-.134-.008-.241-.019-.347-.02-.591-.009-1.183.015-1.77-.033a2.291,2.291,0,0,1-.869-.276,1.233,1.233,0,0,1-.474-1.672,2.362,2.362,0,0,1,.945-.935,12.147,12.147,0,0,1,2.129-.884,9.782,9.782,0,0,0,1.2-.595.89.89,0,0,0,.276-.264c.188-.256.108-.466-.207-.532s-.631-.118-.949-.159a2.182,2.182,0,0,1-1.121-.469,1.132,1.132,0,0,1-.228-1.583c.222-.313.493-.59.731-.891a18.106,18.106,0,0,0,2.15-3.636,19.847,19.847,0,0,0,1.115-2.987,15.007,15.007,0,0,0,.52-3.031c.038-.512.05-1.026.086-1.538a1.546,1.546,0,0,1,.1-.484.948.948,0,0,1,1.525-.362,4.4,4.4,0,0,1,.55.591,1.329,1.329,0,0,1,.245.756c.066.844.121,1.691.243,2.527a18.481,18.481,0,0,0,.657,2.725,20.174,20.174,0,0,0,1.269,2.969,16.433,16.433,0,0,0,1.829,2.892c.142.181.315.337.471.507a1.6,1.6,0,0,1,.513,1.045,1.021,1.021,0,0,1-.523,1,5.08,5.08,0,0,1-1,.377c-.306.091-.629.125-.941.2-.35.084-.445.34-.179.579a3.162,3.162,0,0,0,.867.554c.637.27,1.295.5,1.948.726a3.659,3.659,0,0,1,1.408.844,1.461,1.461,0,0,1,.45.872,1.189,1.189,0,0,1-.664,1.312,2.428,2.428,0,0,1-.834.261c-.51.053-1.026.041-1.539.057-.134,0-.269.013-.46.022a2.889,2.889,0,0,0,.77.667c.178.126.372.23.545.363a6.432,6.432,0,0,0,1.8.866,6.965,6.965,0,0,1,1.951.988,2.444,2.444,0,0,1,.817,1.1,1.305,1.305,0,0,1-.228,1.339c-.079.1-.151.2-.261.355.15.058.273.107.4.153a6.49,6.49,0,0,1,2.066,1.17,2.99,2.99,0,0,1,.787,1.032,1.554,1.554,0,0,1-1.034,2.189,3.942,3.942,0,0,1-2.2-.021,29.613,29.613,0,0,1-3.3-1.032c-.081-.032-.169-.049-.264-.076-.1.194.038.306.122.417a3.85,3.85,0,0,0,1.5,1.24c.691.309,1.392.6,2.082.905a18.662,18.662,0,0,1,1.771.844,2.414,2.414,0,0,1,1.331,2.075,1.6,1.6,0,0,1-.877,1.556c-.223.12-.453.228-.715.358.041.127.079.258.127.387a1.236,1.236,0,0,1-.776,1.735c-.078.031-.149.077-.287.149.242.147.426.282.628.378.88.42,1.758.847,2.651,1.237a8.857,8.857,0,0,1,1.746,1.048,1.49,1.49,0,0,1-.226,2.552,4.132,4.132,0,0,1-1.258.462.36.36,0,0,0-.238.155,2.984,2.984,0,0,0,.386.105c1.322.187,2.645.364,3.967.552.546.077,1.1.146,1.632.27a1.438,1.438,0,0,1,.752,2.428,2.4,2.4,0,0,1-1.445.742c-.317.048-.638.075-.956.114-.1.012-.2.033-.322.055a2.091,2.091,0,0,0,0,.356,1.43,1.43,0,0,1-1.207,1.654,4.079,4.079,0,0,1-1.909-.015c-.525-.123-1.043-.272-1.565-.406a2.3,2.3,0,0,0-.268-.034,1.608,1.608,0,0,1-.353,1.418c-.348.331-.752.6-1.169.932a3.063,3.063,0,0,0,.238.305,7.233,7.233,0,0,0,3.721,2.05,9.739,9.739,0,0,1,1.118.285,1.2,1.2,0,0,1,.832,1.136,1.162,1.162,0,0,1-.787,1.125,7.079,7.079,0,0,1-.769.241l-.626.193a3.91,3.91,0,0,0,.345.238c.772.4,1.534.834,2.325,1.2s1.608.675,2.42,1c.561.221,1.143.39,1.694.631,1.047.457,2.078.948,3.115,1.426.221.1.445.2.661.312.864.45,1.737.885,2.584,1.365a2.807,2.807,0,0,1,1.12,1.292,1.336,1.336,0,0,1-.4,1.752,1.542,1.542,0,0,1-.948.264,8.045,8.045,0,0,1-2.441-.506c-.1-.032-.194-.064-.292-.092-.023-.007-.05.006-.106.014a1.422,1.422,0,0,0-.036.236c0,.166.019.333.023.5A1.155,1.155,0,0,1,760,447.094a3.686,3.686,0,0,1-.551-.163c-.118-.039-.232-.087-.366-.138a1.224,1.224,0,0,0-.086.247,1.248,1.248,0,0,1-1.8.91,4.561,4.561,0,0,1-1.292-.826c-.791-.732-1.577-1.469-2.367-2.2a.675.675,0,0,0-.324-.162.584.584,0,0,0,.071.175,15.273,15.273,0,0,0,1.066,1.162c.483.44,1.008.832,1.525,1.233a16.915,16.915,0,0,0,2.445,1.531,32.946,32.946,0,0,0,3.426,1.574c1.224.483,2.509.742,3.757,1.137.354.113.71.223,1.061.349a1.581,1.581,0,0,1,.729.482,1.28,1.28,0,0,1-.282,1.973,3.428,3.428,0,0,1-1.2.5,13.632,13.632,0,0,1-6.147-.01c-.65-.152-1.305-.286-1.946-.472a19.758,19.758,0,0,1-4.119-1.6c-.568-.314-1.145-.613-1.793-.959a5.858,5.858,0,0,0,.856.9c.627.53,1.268,1.044,1.91,1.557a17.785,17.785,0,0,0,3.556,2.136,14.152,14.152,0,0,0,2.912.985c.8.185,1.605.349,2.409.52a2.734,2.734,0,0,1,1.238.59,3.827,3.827,0,0,1,.372.335,3.618,3.618,0,0,0,2.2,1.078,9.5,9.5,0,0,1,2.756.824,2.92,2.92,0,0,1,1.269,1.246,5.277,5.277,0,0,1,.668,1.873,1.242,1.242,0,0,1-1.438,1.523,9.09,9.09,0,0,1-1.571-.362c-.9-.254-1.791-.553-2.695-.8a7.349,7.349,0,0,0-2.976-.187,14.9,14.9,0,0,1-4.832-.137c-.227-.041-.456-.07-.685-.1-.021,0-.045.018-.121.052.1.109.181.212.273.306a20.5,20.5,0,0,0,2.514,2.089c1.449,1.067,2.967,2.026,4.514,2.943,1.359.806,2.742,1.569,4.167,2.248a30.373,30.373,0,0,0,4.53,1.726c.937.274,1.875.54,2.806.831a10.949,10.949,0,0,1,1.105.446,2.062,2.062,0,0,1,.943.928,1.5,1.5,0,0,1-.521,1.96,3.047,3.047,0,0,1-1.606.452,14.194,14.194,0,0,1-2.987-.265q-.8-.135-1.6-.254c-.187-.027-.377-.032-.65-.054.1.159.143.257.207.34q.942,1.219,1.887,2.433c.157.2.318.4.46.617a1.3,1.3,0,0,1-1.036,2.093,6.394,6.394,0,0,1-2.044-.328,22.617,22.617,0,0,1-3.1-1.149,7.031,7.031,0,0,0-.771-.241.255.255,0,0,0-.342.158,1.561,1.561,0,0,1-1.941.826,7.7,7.7,0,0,1-1.138-.356.822.822,0,0,0-.8.069,2.6,2.6,0,0,1-2.3.188,2.962,2.962,0,0,1-.443-.231A29.874,29.874,0,0,0,756.817,480c-.174-.077-.351-.144-.618-.254a1.754,1.754,0,0,0,.147.332c.438.552.875,1.107,1.328,1.647.752.894,1.518,1.776,2.272,2.668a2.2,2.2,0,0,1,.48.909,1.155,1.155,0,0,1-1.12,1.422,3.755,3.755,0,0,1-.875-.107c-1.063-.246-2.12-.518-3.184-.762a12.846,12.846,0,0,0-1.365-.235,2.9,2.9,0,0,0-2.44.8,7.651,7.651,0,0,1-1.73,1.211,2.915,2.915,0,0,1-1.8.277c-.482-.071-.96-.172-1.437-.274-.652-.138-1.3-.318-1.955-.427a7.645,7.645,0,0,1-2.324-.785c-.08-.042-.16-.082-.241-.121a.369.369,0,0,0-.484.092c-.178.2-.365.4-.552.591a.57.57,0,0,0-.18.449c.047.755.095,1.511.138,2.267a42.75,42.75,0,0,0,.814,4.78,11.7,11.7,0,0,0,1.043,3.012c.307.649.657,1.278.974,1.923a6.371,6.371,0,0,1,.4.955,1.059,1.059,0,0,1-.77,1.371,2.64,2.64,0,0,1-.647.068c-1.425.017-2.851,0-4.275.05-.908.032-1.812.167-2.718.255-.869.084-1.738.155-2.6.252a10.408,10.408,0,0,1-1.993.131,6.137,6.137,0,0,1-2.105-.4,1.394,1.394,0,0,1-.829-1.639,3.383,3.383,0,0,1,.251-.725,28.52,28.52,0,0,0,1.39-3.669c.737-2.285,1.388-4.6,2.009-6.913a9.465,9.465,0,0,0,.289-1.7,2.094,2.094,0,0,0-.358-1.428c-.171-.233-.215-.231-.483-.12-.615.255-1.235.5-1.853.75a1.523,1.523,0,0,1-.221.067c-1.14.253-2.279.515-3.422.752a3.425,3.425,0,0,1-1.975-.076,5.584,5.584,0,0,1-1.088-.564c-.445-.3-.853-.658-1.275-.992a2.375,2.375,0,0,0-1.62-.507,9.5,9.5,0,0,0-1.713.231c-1.087.253-2.159.568-3.242.84a4.6,4.6,0,0,1-.876.112,1.138,1.138,0,0,1-1.075-.557,1.1,1.1,0,0,1,.036-1.242c.4-.594.856-1.153,1.306-1.712.845-1.05,1.7-2.088,2.552-3.134a3.386,3.386,0,0,0,.2-.346,2.256,2.256,0,0,0-.379.1c-.514.262-1.031.521-1.533.805-.458.258-.894.554-1.348.82-.265.156-.54.3-.818.426a2.168,2.168,0,0,1-1.973-.026,1.61,1.61,0,0,0-1.5-.043,4.18,4.18,0,0,1-.7.226,1.673,1.673,0,0,1-1.631-.305,1.911,1.911,0,0,1-.332-.415c-.17-.27-.226-.306-.528-.192-.36.135-.714.289-1.07.434a19.823,19.823,0,0,1-3.259,1.165,4.957,4.957,0,0,1-1.528.143,1.252,1.252,0,0,1-1.015-.609,1.178,1.178,0,0,1-.008-1.249,13.768,13.768,0,0,1,.84-1.192c.516-.7,1.037-1.4,1.552-2.108A2.025,2.025,0,0,0,701.911,477.23Z"/><path class="cls-2" d="M82.359,477.23c-.162.012-.272.012-.38.028-.939.142-1.877.293-2.818.43a8.676,8.676,0,0,1-2.8.039,1.6,1.6,0,0,1-1.469-1.718,1.673,1.673,0,0,1,.446-1,2.7,2.7,0,0,1,1.261-.782c1.37-.437,2.751-.842,4.108-1.313a32.358,32.358,0,0,0,3.419-1.4,50.922,50.922,0,0,0,4.514-2.5,44.163,44.163,0,0,0,5.453-3.816c.471-.4.927-.811,1.385-1.223a2.164,2.164,0,0,0,.227-.283l-.043-.085c-.221.029-.444.044-.662.087a16.8,16.8,0,0,1-4.948.206,6.908,6.908,0,0,0-2.336.091c-.734.179-1.454.42-2.179.636-.812.242-1.619.5-2.435.725a1.316,1.316,0,0,1-1.29-.3,1.173,1.173,0,0,1-.414-1.068,5.078,5.078,0,0,1,.963-2.483,2.782,2.782,0,0,1,1.314-.974c.569-.2,1.152-.354,1.732-.517.507-.143,1.02-.261,1.525-.411a2.526,2.526,0,0,0,1.193-.743,3.462,3.462,0,0,1,1.973-1.118c.693-.133,1.375-.327,2.068-.46a10.07,10.07,0,0,0,2.262-.746c.829-.376,1.646-.786,2.435-1.238a20.507,20.507,0,0,0,3.391-2.588c.333-.3.655-.605.982-.908l-.048-.085a1.452,1.452,0,0,0-.248.086c-.528.292-1.042.61-1.58.882a23.374,23.374,0,0,1-3.683,1.457,20.03,20.03,0,0,1-3.52.814,15.564,15.564,0,0,1-3.882-.017,4.417,4.417,0,0,1-1.872-.531,1.386,1.386,0,0,1-.786-1.153,1.287,1.287,0,0,1,.5-1.114,3.086,3.086,0,0,1,1.066-.52c.923-.274,1.845-.551,2.767-.825a24.927,24.927,0,0,0,4.862-2.117,19.107,19.107,0,0,0,3.545-2.439,5.8,5.8,0,0,0,1.532-1.778,7.858,7.858,0,0,0-.975.843c-.739.675-1.475,1.353-2.231,2.008a2.513,2.513,0,0,1-.759.443,1.329,1.329,0,0,1-1.222-.059,1.182,1.182,0,0,1-.523-.688c-.034-.108-.065-.216-.11-.367-.126.043-.23.075-.332.113a1.905,1.905,0,0,1-.936.172,1.112,1.112,0,0,1-1.035-1.1c-.014-.252,0-.5,0-.8-.139.038-.246.065-.352.1-.6.177-1.2.371-1.811.526a2.157,2.157,0,0,1-1.179,0,1.336,1.336,0,0,1-.9-1.854,3.033,3.033,0,0,1,1.077-1.371,21.555,21.555,0,0,1,2.7-1.483c.68-.36,1.365-.718,2.07-1.024,1.165-.506,2.348-.968,3.523-1.45.463-.19.923-.386,1.384-.578a31.649,31.649,0,0,0,3.119-1.592,2.412,2.412,0,0,0,.26-.2.994.994,0,0,0-.586-.217,2.989,2.989,0,0,1-1.125-.474,1.149,1.149,0,0,1,.247-1.96,11.358,11.358,0,0,1,1.436-.433,7.288,7.288,0,0,0,3.432-1.963,3.958,3.958,0,0,0,.34-.452c-.241-.144-.443-.251-.629-.38a3.44,3.44,0,0,1-.538-.428,1.425,1.425,0,0,1-.42-1.267.974.974,0,0,0,.007-.153c0-.01-.013-.02-.036-.054a1.178,1.178,0,0,0-.6.143,6.275,6.275,0,0,1-2.094.471c-.281,0-.563-.025-.844-.047a1.682,1.682,0,0,1-1.161-.687,1.143,1.143,0,0,1-.255-.9c.016-.135.016-.273.025-.439-.4-.051-.769-.106-1.137-.143a2.758,2.758,0,0,1-1.347-.524,1.514,1.514,0,0,1-.7-1.184,1.339,1.339,0,0,1,1.093-1.431c.724-.169,1.46-.291,2.2-.407,1.116-.175,2.237-.324,3.354-.492a5.56,5.56,0,0,0,.578-.147l0-.095c-.154-.034-.307-.073-.462-.1a3.1,3.1,0,0,1-1.438-.607,1.4,1.4,0,0,1-.109-2.184,4.857,4.857,0,0,1,1.015-.756c.7-.38,1.431-.695,2.14-1.055.652-.331,1.292-.686,1.936-1.032.028-.016.042-.057.055-.075a6.6,6.6,0,0,1-.829-.457.9.9,0,0,1-.351-.855,9.224,9.224,0,0,1,.21-.959c-.1-.032-.2-.064-.308-.1a1.83,1.83,0,0,1-1.3-2.093,2.421,2.421,0,0,1,.855-1.425,5.493,5.493,0,0,1,1.48-.887c.9-.384,1.793-.769,2.681-1.173a4.634,4.634,0,0,0,1.4-1.07.89.89,0,0,0,.313-.681c-.149.054-.262.1-.378.136-.474.158-.95.314-1.424.471-.414.138-.828.276-1.24.418a5.178,5.178,0,0,1-2,.333,2.422,2.422,0,0,1-1.236-.378,1.56,1.56,0,0,1-.544-2,3.816,3.816,0,0,1,1.45-1.507,9.279,9.279,0,0,1,1.169-.58c.183-.086.377-.149.59-.233a1.213,1.213,0,0,0-.123-.186,1.609,1.609,0,0,1,.058-2.287,4.064,4.064,0,0,1,1.371-.976q.73-.3,1.463-.592a10.938,10.938,0,0,0,2.517-1.62c.027-.021.038-.063.082-.139-.134-.008-.24-.019-.347-.02-.59-.009-1.183.015-1.77-.033a2.287,2.287,0,0,1-.868-.276,1.234,1.234,0,0,1-.475-1.672,2.362,2.362,0,0,1,.945-.935,12.125,12.125,0,0,1,2.13-.884,9.7,9.7,0,0,0,1.2-.595.879.879,0,0,0,.276-.264c.189-.256.108-.466-.207-.532s-.631-.118-.949-.159a2.178,2.178,0,0,1-1.12-.469,1.13,1.13,0,0,1-.228-1.583c.221-.313.492-.59.731-.891a18.149,18.149,0,0,0,2.149-3.636,19.847,19.847,0,0,0,1.115-2.987,15.079,15.079,0,0,0,.521-3.031c.037-.512.049-1.026.085-1.538a1.546,1.546,0,0,1,.1-.484.948.948,0,0,1,1.525-.362,4.338,4.338,0,0,1,.55.591,1.314,1.314,0,0,1,.245.756c.066.844.121,1.691.244,2.527a18.352,18.352,0,0,0,.656,2.725,20.282,20.282,0,0,0,1.269,2.969,16.491,16.491,0,0,0,1.829,2.892c.142.181.316.337.472.507a1.611,1.611,0,0,1,.513,1.045,1.024,1.024,0,0,1-.524,1,5.057,5.057,0,0,1-1,.377c-.306.091-.629.125-.94.2-.351.084-.446.34-.179.579a3.156,3.156,0,0,0,.866.554c.638.27,1.3.5,1.948.726a3.663,3.663,0,0,1,1.409.844,1.472,1.472,0,0,1,.45.872,1.191,1.191,0,0,1-.665,1.312,2.428,2.428,0,0,1-.834.261c-.509.053-1.025.041-1.538.057-.135,0-.269.013-.46.022a2.9,2.9,0,0,0,.769.667c.178.126.373.23.545.363a6.432,6.432,0,0,0,1.8.866,6.938,6.938,0,0,1,1.951.988,2.453,2.453,0,0,1,.818,1.1,1.307,1.307,0,0,1-.228,1.339c-.08.1-.151.2-.262.355.15.058.274.107.4.153a6.48,6.48,0,0,1,2.066,1.17,2.978,2.978,0,0,1,.787,1.032,1.554,1.554,0,0,1-1.034,2.189,3.939,3.939,0,0,1-2.2-.021,29.694,29.694,0,0,1-3.306-1.032c-.081-.032-.168-.049-.264-.076-.1.194.038.306.122.417a3.85,3.85,0,0,0,1.5,1.24c.691.309,1.392.6,2.082.905a18.662,18.662,0,0,1,1.771.844,2.413,2.413,0,0,1,1.331,2.075,1.6,1.6,0,0,1-.877,1.556c-.223.12-.453.228-.715.358.041.127.08.258.127.387a1.235,1.235,0,0,1-.776,1.735c-.077.031-.149.077-.286.149.241.147.425.282.627.378.88.42,1.758.847,2.652,1.237a8.85,8.85,0,0,1,1.745,1.048,1.49,1.49,0,0,1-.225,2.552,4.152,4.152,0,0,1-1.258.462.358.358,0,0,0-.238.155,2.927,2.927,0,0,0,.385.105c1.322.187,2.645.364,3.967.552.546.077,1.1.146,1.633.27a1.437,1.437,0,0,1,.751,2.428,2.4,2.4,0,0,1-1.445.742c-.317.048-.637.075-.956.114-.1.012-.2.033-.322.055a2.091,2.091,0,0,0,0,.356,1.43,1.43,0,0,1-1.206,1.654,4.084,4.084,0,0,1-1.91-.015c-.525-.123-1.043-.272-1.565-.406a2.3,2.3,0,0,0-.268-.034,1.6,1.6,0,0,1-.353,1.418c-.348.331-.752.6-1.168.932a3.047,3.047,0,0,0,.237.305,7.233,7.233,0,0,0,3.721,2.05,9.7,9.7,0,0,1,1.119.285,1.2,1.2,0,0,1,.831,1.136,1.161,1.161,0,0,1-.787,1.125,7.062,7.062,0,0,1-.768.241l-.626.193a3.93,3.93,0,0,0,.344.238c.773.4,1.534.834,2.325,1.2s1.609.675,2.42,1c.561.221,1.143.39,1.695.631,1.046.457,2.077.948,3.114,1.426.222.1.445.2.661.312.865.45,1.737.885,2.585,1.365A2.8,2.8,0,0,1,146,443.8a1.336,1.336,0,0,1-.4,1.752,1.539,1.539,0,0,1-.947.264,8.032,8.032,0,0,1-2.441-.506c-.1-.032-.2-.064-.293-.092-.022-.007-.05.006-.106.014a1.326,1.326,0,0,0-.035.236c0,.166.018.333.022.5a1.154,1.154,0,0,1-1.346,1.132,3.618,3.618,0,0,1-.551-.163c-.118-.039-.233-.087-.367-.138a1.224,1.224,0,0,0-.086.247,1.248,1.248,0,0,1-1.8.91,4.561,4.561,0,0,1-1.292-.826c-.79-.732-1.576-1.469-2.367-2.2a.675.675,0,0,0-.324-.162.561.561,0,0,0,.072.175A15.273,15.273,0,0,0,134.8,446.1c.482.44,1.008.832,1.524,1.233a16.969,16.969,0,0,0,2.445,1.531,33.042,33.042,0,0,0,3.426,1.574c1.224.483,2.51.742,3.757,1.137.355.113.711.223,1.061.349a1.589,1.589,0,0,1,.73.482,1.281,1.281,0,0,1-.282,1.973,3.441,3.441,0,0,1-1.2.5,13.632,13.632,0,0,1-6.147-.01c-.65-.152-1.305-.286-1.945-.472a19.737,19.737,0,0,1-4.119-1.6c-.569-.314-1.146-.613-1.794-.959a5.858,5.858,0,0,0,.856.9c.628.53,1.269,1.044,1.91,1.557a17.764,17.764,0,0,0,3.557,2.136,14.144,14.144,0,0,0,2.911.985c.8.185,1.606.349,2.409.52a2.738,2.738,0,0,1,1.239.59,3.815,3.815,0,0,1,.371.335,3.618,3.618,0,0,0,2.2,1.078,9.478,9.478,0,0,1,2.756.824,2.92,2.92,0,0,1,1.269,1.246,5.277,5.277,0,0,1,.668,1.873,1.242,1.242,0,0,1-1.437,1.523,9.1,9.1,0,0,1-1.572-.362c-.9-.254-1.79-.553-2.695-.8a7.348,7.348,0,0,0-2.976-.187,14.9,14.9,0,0,1-4.832-.137c-.227-.041-.456-.07-.685-.1-.021,0-.045.018-.121.052.1.109.181.212.273.306a20.585,20.585,0,0,0,2.515,2.089c1.448,1.067,2.967,2.026,4.513,2.943,1.359.806,2.742,1.569,4.167,2.248a30.343,30.343,0,0,0,4.531,1.726c.936.274,1.874.54,2.8.831a10.949,10.949,0,0,1,1.105.446,2.069,2.069,0,0,1,.944.928,1.5,1.5,0,0,1-.522,1.96,3.041,3.041,0,0,1-1.606.452,14.194,14.194,0,0,1-2.987-.265q-.8-.135-1.6-.254c-.186-.027-.376-.032-.65-.054a3.916,3.916,0,0,0,.208.34q.941,1.219,1.886,2.433c.157.2.318.4.46.617a1.3,1.3,0,0,1-1.036,2.093,6.388,6.388,0,0,1-2.043-.328,22.63,22.63,0,0,1-3.1-1.149,6.964,6.964,0,0,0-.771-.241.255.255,0,0,0-.342.158,1.561,1.561,0,0,1-1.941.826,7.646,7.646,0,0,1-1.137-.356.824.824,0,0,0-.8.069,2.594,2.594,0,0,1-2.3.188,2.962,2.962,0,0,1-.443-.231A30,30,0,0,0,137.265,480c-.173-.077-.35-.144-.618-.254a1.754,1.754,0,0,0,.147.332c.438.552.875,1.107,1.329,1.647.751.894,1.517,1.776,2.272,2.668a2.213,2.213,0,0,1,.479.909,1.154,1.154,0,0,1-1.119,1.422,3.757,3.757,0,0,1-.876-.107c-1.063-.246-2.12-.518-3.183-.762a12.908,12.908,0,0,0-1.366-.235,2.9,2.9,0,0,0-2.44.8,7.651,7.651,0,0,1-1.73,1.211,2.913,2.913,0,0,1-1.8.277c-.483-.071-.96-.172-1.437-.274-.653-.138-1.3-.318-1.956-.427a7.645,7.645,0,0,1-2.324-.785c-.079-.042-.159-.082-.241-.121a.369.369,0,0,0-.484.092c-.177.2-.364.4-.552.591a.57.57,0,0,0-.18.449q.072,1.132.139,2.267a42.978,42.978,0,0,0,.813,4.78,11.734,11.734,0,0,0,1.043,3.012c.307.649.657,1.278.974,1.923a6.274,6.274,0,0,1,.4.955,1.061,1.061,0,0,1-.771,1.371,2.634,2.634,0,0,1-.647.068c-1.425.017-2.851,0-4.274.05-.908.032-1.813.167-2.719.255-.868.084-1.738.155-2.605.252a10.408,10.408,0,0,1-1.993.131,6.137,6.137,0,0,1-2.105-.4,1.4,1.4,0,0,1-.829-1.639,3.383,3.383,0,0,1,.251-.725,28.52,28.52,0,0,0,1.39-3.669c.737-2.285,1.388-4.6,2.009-6.913a9.465,9.465,0,0,0,.289-1.7,2.089,2.089,0,0,0-.358-1.428c-.171-.233-.214-.231-.482-.12-.616.255-1.235.5-1.854.75a1.523,1.523,0,0,1-.221.067c-1.14.253-2.279.515-3.422.752a3.425,3.425,0,0,1-1.975-.076,5.612,5.612,0,0,1-1.088-.564c-.445-.3-.853-.658-1.275-.992a2.372,2.372,0,0,0-1.62-.507,9.51,9.51,0,0,0-1.713.231c-1.087.253-2.159.568-3.242.84a4.586,4.586,0,0,1-.876.112,1.138,1.138,0,0,1-1.075-.557,1.1,1.1,0,0,1,.036-1.242c.4-.594.857-1.153,1.307-1.712.844-1.05,1.7-2.088,2.551-3.134a3.386,3.386,0,0,0,.2-.346,2.314,2.314,0,0,0-.379.1c-.514.262-1.03.521-1.533.805-.457.258-.894.554-1.347.82-.265.156-.541.3-.819.426a2.166,2.166,0,0,1-1.972-.026,1.61,1.61,0,0,0-1.5-.043,4.19,4.19,0,0,1-.7.226,1.673,1.673,0,0,1-1.631-.305,1.941,1.941,0,0,1-.332-.415c-.17-.27-.225-.306-.528-.192-.36.135-.714.289-1.07.434a19.758,19.758,0,0,1-3.259,1.165,4.951,4.951,0,0,1-1.527.143,1.253,1.253,0,0,1-1.016-.609,1.178,1.178,0,0,1-.008-1.249,13.779,13.779,0,0,1,.841-1.192c.515-.7,1.036-1.4,1.551-2.108A1.917,1.917,0,0,0,82.359,477.23Z"/><path class="cls-1" d="M432.643,664.741l16.229.674s-7.7,3.278-9.507,5.591S435.185,665.415,432.643,664.741Zm74.97-2.464,0,.054H495.509c-5,.386-10,1.06-11.639,1.253a.785.785,0,0,1-.655.193c-.41.1-38.441,1.638-47.293,21.206a1.758,1.758,0,0,1-2.3.964,2.373,2.373,0,0,1-.984-2.6s1.312-4.819-1.065-7.9a10.737,10.737,0,0,0-1.393-1.253,2.546,2.546,0,0,0-.82-.192c-.9-.289-1.885-.579-2.786-.868a22.874,22.874,0,0,0-5.082-.578A41.491,41.491,0,0,0,412.973,674c-.164.1-.41.192-.574.289a12.53,12.53,0,0,0-3.77,3.18,21.717,21.717,0,0,0-3.279,5.013,18.2,18.2,0,0,0-.983,9.832,7.969,7.969,0,0,0,3.278,5.012,5.061,5.061,0,0,0,3.934.772,3.75,3.75,0,0,0,1.967-.675,2.579,2.579,0,0,0,1.312-2.024,2.271,2.271,0,0,0-.738-2.121v.675c.082,1.253-.656,2.121-1.721,2.024-1.229-.289-1.967-1.446-1.475-3.084a2.241,2.241,0,0,1,2.95-1.35,3.891,3.891,0,0,1,2.295,3.856,4.854,4.854,0,0,1-3.524,4.434,9.544,9.544,0,0,1-2.869,0h-.246c-.164.385.082.482.246.578,2.623,1.639,5.41,1.928,8.033-.193a12.483,12.483,0,0,0,1.475-1.639,6.962,6.962,0,0,0,.819-1.349,8.754,8.754,0,0,0,.492-3.856,4.714,4.714,0,0,0-.819-1.735,9.276,9.276,0,0,0-2.3-2.6,6.5,6.5,0,0,0-4.59-1.253,7.767,7.767,0,0,0-2.787.867,1.863,1.863,0,0,0-.574.193,4.96,4.96,0,0,1,0-3.084,5.492,5.492,0,0,1,3.115-3.471,6.771,6.771,0,0,1,8.36,1.06,10.413,10.413,0,0,1,3.278,4.628,12.259,12.259,0,0,1,.82,6.65,10.535,10.535,0,0,1-.9,2.892,20.746,20.746,0,0,1-1.8,3.374,18.768,18.768,0,0,1-2.622,2.7,8.332,8.332,0,0,1-7.869,1.253,10.024,10.024,0,0,1-4.016-2.217,12.191,12.191,0,0,1-2.541-2.7,17.151,17.151,0,0,1-3.361-7.711,20.923,20.923,0,0,1,0-5.977,22.317,22.317,0,0,1,.984-4.048,26.091,26.091,0,0,1,2.049-4.724c.328-.481.574-.963.9-1.349-2.459.675-4.754,1.253-6.8,1.736.82,4.048.164,9.542-3.852,16.771a45.365,45.365,0,0,1-3.115,4.339h-.081a50.194,50.194,0,0,1-4.509,4.626h-.082a50.151,50.151,0,0,1-4.507-4.626,36.447,36.447,0,0,1-3.2-4.339c-4.016-7.229-4.59-12.723-3.852-16.771-2.049-.483-4.344-1.061-6.8-1.736a7.277,7.277,0,0,1,.9,1.349,33.437,33.437,0,0,1,2.13,4.724c.329,1.253.738,2.7.984,4.048a20.9,20.9,0,0,1-.082,5.977,17.033,17.033,0,0,1-3.278,7.711,14.856,14.856,0,0,1-2.623,2.7,10.3,10.3,0,0,1-3.934,2.217,8.457,8.457,0,0,1-7.951-1.253,14.8,14.8,0,0,1-2.541-2.7,15.9,15.9,0,0,1-1.8-3.374,8.356,8.356,0,0,1-.9-2.892,11.525,11.525,0,0,1,.738-6.65,10.423,10.423,0,0,1,3.279-4.628,7.387,7.387,0,0,1,4.344-2.024,7.2,7.2,0,0,1,4.016.964,5.285,5.285,0,0,1,3.114,3.471,4.931,4.931,0,0,1,0,3.084,1.859,1.859,0,0,0-.573-.193,7.3,7.3,0,0,0-2.787-.867,6.612,6.612,0,0,0-4.59,1.253,10.75,10.75,0,0,0-2.295,2.6,4.732,4.732,0,0,0-.82,1.735,8.8,8.8,0,0,0,.492,3.856,4.65,4.65,0,0,0,.9,1.349,12.341,12.341,0,0,0,1.393,1.639c2.7,2.121,5.41,1.832,8.115.193.163-.1.409-.193.246-.578h-.329a9.541,9.541,0,0,1-2.868,0,4.688,4.688,0,0,1-3.442-4.434,3.024,3.024,0,0,1,.409-2.217,3.883,3.883,0,0,1,1.8-1.639,2.241,2.241,0,0,1,2.95,1.35,2.168,2.168,0,0,1-1.475,3.084,1.7,1.7,0,0,1-1.721-2.024c.082-.289,0-.482.082-.675a2.146,2.146,0,0,0-.82,2.121,2.794,2.794,0,0,0,1.311,2.024,3.755,3.755,0,0,0,1.967.675,5.33,5.33,0,0,0,4.016-.772,7.86,7.86,0,0,0,3.2-5.012,17.437,17.437,0,0,0-.984-9.832,19.053,19.053,0,0,0-3.2-5.013,13.91,13.91,0,0,0-3.852-3.18l-.492-.289a43.354,43.354,0,0,0-8.524-1.446,23.585,23.585,0,0,0-5.163.578c-.9.289-1.886.579-2.787.868a3.15,3.15,0,0,0-.82.192,6.448,6.448,0,0,0-1.311,1.253c-2.459,3.085-1.148,7.9-1.148,7.9a2.158,2.158,0,0,1-.983,2.6,1.646,1.646,0,0,1-2.213-.964C334.125,673.9,319.7,668.6,308.061,665.994c-.983-.1-2.049-.289-3.2-.482a96.464,96.464,0,0,0-17.3-2.7c-1.393-.193-2.459-.386-3.114-.482H271.144q-.017-1.494-.02-2.988h236.9A7.433,7.433,0,0,0,507.613,662.277ZM389.285,694.43a7.572,7.572,0,0,0-1.721-2.025,6.35,6.35,0,0,0-1.721,2.025,9.623,9.623,0,0,0,1.721,2.8A9.58,9.58,0,0,0,389.285,694.43Zm6.066-15.809a68.914,68.914,0,0,1-8.2,1.157,67.2,67.2,0,0,1-7.869-1.157c-.737,3.952.656,8.965,4.016,14.652a11.857,11.857,0,0,1,4.1-3.663v-.289c0,.1.081.1.163.1a.236.236,0,0,0,.164-.1v.289a12.294,12.294,0,0,1,4.016,3.663C395.105,687.586,396.17,682.573,395.351,678.621Zm-7.787-2.988c1.721-.193,3.853-.386,6.476-.867a13.444,13.444,0,0,0-6.476-4.627,12.724,12.724,0,0,0-6.475,4.627C383.63,675.247,385.761,675.44,387.564,675.633Zm74.668-13.3H312.9c8.442,3.374,17.622,6.169,23.932,12.435.492.481,1.394,1.349,3.033,2.892a9.175,9.175,0,0,1,1.885-5.88c2.377-2.411,6.065-3.567,10.9-3.471,1.065-.1,2.213,0,3.278,0a17.453,17.453,0,0,1,4.508,1.06c1.8.387,3.688.868,5.573,1.447,4.344,1.349,8.032,2.409,11.229,3.084a.355.355,0,0,0,.082-.192c1.8-3.278,4.59-5.977,7.7-6.844.655-.675,2.048-.772,2.458-.964.656.192,1.558.481,2.459.771a15.408,15.408,0,0,1,7.787,7.037.357.357,0,0,1,.081.192c3.2-.771,6.885-1.735,11.23-3.084,1.967-.579,3.77-1.06,5.573-1.447a14.732,14.732,0,0,1,4.59-1.06,17.8,17.8,0,0,1,3.2-.1c4.918-.1,8.607.964,10.983,3.374,0,0,2.541,3.181,2.541,5.3.984-.964,1.722-1.543,2.295-2.121C444.528,668.5,453.79,665.705,462.232,662.331Zm-60.9,6.748c2.377,0,4.262-1.061,4.262-2.314s-1.885-2.217-4.262-2.217-4.262.964-4.262,2.217S398.957,669.079,401.334,669.079Zm-65.652,1.927c1.8,2.314,4.18-5.591,6.721-6.265l-16.147.674S333.961,668.693,335.682,671.006Zm38.031-1.927c2.377,0,4.344-1.061,4.344-2.314s-1.967-2.217-4.344-2.217-4.262.964-4.262,2.217S371.336,669.079,373.713,669.079Z"/><path class="cls-5" d="M263.365,526.943c0,.553.984,1.536.922,2.09,0,.614-1.106,1.967-1.168,2.581a34.561,34.561,0,0,1-2.459,8.666,22.884,22.884,0,0,1-4.609,8.175,8.627,8.627,0,0,1-6.331,2.95,9.1,9.1,0,0,1-8.113-4.241,23.677,23.677,0,0,1-3.134-8.912,43.191,43.191,0,0,1-.493-6.884c0-.8-1.474-1.967-1.474-2.765.061-.247-.062-.308.061-.553.492-.922,1.66-1.844,1.844-2.827a38.484,38.484,0,0,1,2.151-7.315,21.153,21.153,0,0,1,4.425-7.99,8.947,8.947,0,0,1,6.454-2.766,9.65,9.65,0,0,1,7.991,3.872,19.1,19.1,0,0,1,3.38,8.851A34.318,34.318,0,0,1,263.365,526.943Zm-4.61-.246c.431-3.687-.43-5.777-.737-7.928a11.37,11.37,0,0,0-1.906-5.164,4.349,4.349,0,0,0-3.319-1.72,6.559,6.559,0,0,0-4.548,2.151,26.549,26.549,0,0,0-3.5,7.253c-.492,1.6-.923,3.134-1.229,4.609-.246.984.8,1.844.675,2.766-.123.676-1.413,1.9-1.474,2.643-.246,2.766.307,4.179.676,6.761a12.518,12.518,0,0,0,2.089,5.655c.861,1.106,2.4,2.458,3.75,2.458,1.9,0,4.609-1.783,6.208-5.347a40.642,40.642,0,0,0,2.7-9.957c.061-.554-1.107-1.66-1.045-2.213S258.693,527.189,258.755,526.7Zm25.506,20.1c2.581,0,4.3,0,5.408-1.045.369-.86,1.045-1.6,1.045-2.521a4.99,4.99,0,0,1,.307-2.028c.247-.86.984-1.6,1.844-.86.553.43.369,2.028.492,2.52.184.676.246,1.045.122,3.811a11.322,11.322,0,0,1-.552,3.5c-.984,1.352-5.716.737-7.007.737-1.352,0-5.777.8-8.974.677-1.106-.062-4.24-1.476-5.1-1.414-1.413.184-2.458,1.414-3.319,1.414-2.4,0-3.687-.554-3.933-1.6a1.284,1.284,0,0,1,.491-1.536,5.351,5.351,0,0,1,1.6-.737c.184-.062.8-.308,1.843-.677a2.356,2.356,0,0,0,1.352-2.028s2.336-11.37,1.845-15.119c-.062-.738-.739-1.967-.8-2.705s1.291-1.475,1.414-2.212c.431-2.828.737-6.085,1.352-11.555.123-1.107-1.044-1.967-3.5-2.459-.8-.123-1.107-2.458-1.168-2.7-.062-.308.061-.492.369-.677a2.652,2.652,0,0,1,.86-.245,15.026,15.026,0,0,1,2.028.245c1.783.308,2.951,1.537,3.442,1.537,2.213,0,4-1.229,5.778-1.537.614-.122.984.062,1.045.492.184.553.245,2.336-.8,2.766-.8.307-1.29.554-1.474.615a2.12,2.12,0,0,0-.984,1.352s-1.659,9.895-1.537,13.03c0,.676,1.107,1.659,1.045,2.274-.061.8-1.536,1.783-1.6,2.52-.246,3.2-1.536,12.907-1.536,12.907a2.05,2.05,0,0,0,.8,1.782c.676.616,1.045.922,1.721.922ZM328.02,528.6c-.062.675-1.167,1.843-1.229,2.52a48.89,48.89,0,0,1-1.168,7.989c-.554,2.213-.86,4.488-1.352,6.085-1.168,4-6.331,4.611-8.667,5.225a32.363,32.363,0,0,1-6.883.737,42.752,42.752,0,0,0-4.242-1.045c-.983,0-2.765.738-4.486.984a3.8,3.8,0,0,1-1.414.123c-.553-.123-2.458-.676-2.519-1.045-.123-.368-.062-2.029.737-2.52.86-.615,4.794-1.66,4.917-2.643.061-.307.246-1.413.492-2.951.368-2.15.86-5.039,1.29-7.559.185-1.353.369-2.458.431-3.319.184-1.229.184-1.537.123-1.66,0-.123-.062-.246-.246-.429a4.676,4.676,0,0,1-.615-2.09c.123-.922,1.475-2.028,1.475-2.213a43.826,43.826,0,0,0,.983-7.683c0-.8.062-1.537.062-2.151a7.335,7.335,0,0,0,0-1.168c-.123-1.782-2.458-2.4-2.95-2.581a2.468,2.468,0,0,1-1.168-2.028c.677-2.4,1.537-2.152,2.7-2.029.369.062,3.5,1.291,4.241,1.23,2.213-.123,3.5-.861,5.1-.922a12,12,0,0,1,6.146.983c2.4,1.229,4.733,1.66,5.962,3.442a18.767,18.767,0,0,1,1.352,4.732c.307,1.783.246,8.113.246,9.035C327.282,527.189,328.02,527.742,328.02,528.6Zm-6.577-8.6c-.061-2.09,0-4.487-.061-4.671-1.107-2.09-4.733-1.66-6.147-1.9a3.581,3.581,0,0,0-3.5,3.072c-.246,1.353-.614,3.073-.921,5.04a10.639,10.639,0,0,0-.308,3.073c.185,1.045,1.229,1.844.922,2.643-.43,1.106-1.6,2.09-1.6,2.767-.246,3.995-.983,7.8-1.229,9.587-.246,1.6-.308,1.783-.369,2.09-.061,0-1.044,4,0,4.118,1.167.062,2.4.492,2.889.492a7.963,7.963,0,0,0,4.978-1.721c.738-.614,2.4-1.844,2.828-2.827,1.474-3.443,1.721-6.454,2.15-10.694.062-.554-.922-1.415-.922-1.661-.061-1.351,1.23-1.966,1.291-2.458A65,65,0,0,0,321.443,520Zm47.631-9.649c-.061.614-.123,1.413-.246,2.028-.061.614-.123,1.29-.123,1.6a21.444,21.444,0,0,1-.676,3.134,1.62,1.62,0,0,1-.43.984,1.315,1.315,0,0,1-1.107.429,1.006,1.006,0,0,1-.86-.552,2.06,2.06,0,0,1-.245-.8,24.932,24.932,0,0,1,.183-3.319c0-.123.123-.492,0-.738,0-.061-.06-.123-.06-.184a8.438,8.438,0,0,0-2.336-.308,6.367,6.367,0,0,0-1.045-.061l-1.537.123-4.117-.123a4.233,4.233,0,0,0-1.476.307c-.246.062-.614.246-.676.492,0,.062-.061.062-.061.122l-1.23,10.7c0,.245-.184,1.474.738,1.536,0,0,1.106-.123,1.721-.123.245,0,1.352.123,1.844.123a6.516,6.516,0,0,0,1.659,0c.431,0,.492-.185.676-1.107.061-.123.061-.246.123-.368a12.141,12.141,0,0,1,.615-4c.184-.246.491-.677.861-.677.983,0,2.151.493,1.72,1.661-.061.122-.184,1.966-.369,4.055-.061.308-.061.615-.122.862v.061c-.061.553-.061,1.413-.061,2.52A21.6,21.6,0,0,1,362.19,531a31.03,31.03,0,0,1-.737,3.749,2.189,2.189,0,0,1-.492.737,1.29,1.29,0,0,1-.8.308,1.211,1.211,0,0,1-.86-.369,1.173,1.173,0,0,1-.431-.861,6.633,6.633,0,0,1,.062-1.044,10.7,10.7,0,0,1,.123-1.168,4.618,4.618,0,0,1,.061-.676,8.147,8.147,0,0,0,.246-1.475c-.061-.246-.061-.307-.123-.369,0,0-1.782-.246-2.52-.246-.307,0-1.659.246-1.659.246h-1.23a1.439,1.439,0,0,0-.983.308,1.078,1.078,0,0,0-.369.922l-1.352,12.353c-.062,1.536-.062,2.643,3.687,4.609,1.6,1.353.493,3.75-.86,3.443-.553-.185-3.135-.922-3.626-1.045-.553-.185-1.045-.308-1.475-.431-.246,0-.492-.061-.676-.061a4.3,4.3,0,0,0-2.4.8,7.073,7.073,0,0,1-.923.307,5.28,5.28,0,0,1-1.29.123c-.492,0-1.045.185-1.352-.061a3.834,3.834,0,0,1-.676-2.4c.062-.369.369-.554.86-.86.37-.246.984-.308,1.291-.492a3.846,3.846,0,0,0,2.152-2.951c0-.429.553-2.888.86-7.129.062-.922.307-3.749.307-3.749a32.239,32.239,0,0,0,.307-3.873,1.334,1.334,0,0,0-.43-1.106,3.074,3.074,0,0,1-.491-.86,2.2,2.2,0,0,1,1.044-2.152c.123-.184.308-.552.37-.675a2.953,2.953,0,0,0,.306-1.353v-.062c.123-.86.185-1.782.308-2.765h-.062c.369-3.5.738-7.683.738-7.929,0-1.106-1.906-1.168-3.2-1.782a2.591,2.591,0,0,1-1.474-2.336c.061-1.782,2.765-1.167,3.134-1.229,1.168-.061,3.688,1.229,4.794,1.414a22.6,22.6,0,0,0,4.119-.615,52.693,52.693,0,0,1,5.9.123l5.347-.123c.369,0,1.045,0,1.291.308C369.32,508.873,369.074,509.488,369.074,510.349Zm23.784.061c-3.073.861-2.4,6.392-2.7,8.3s-.553,5.409-.8,7.13c-.123.8-.307,1.844-.43,2.766-.123.983,1.045,1.72.983,2.028-.123.983-1.72,2.336-1.72,2.459-.308,1.536-.493,2.581-.554,2.889,0,.306-.307,1.782-.738,4.178-.061.185-.061.369-.123.554v.307h-.061c-.062,1.414-.184,2.212-.245,3.627-.062.983-.431,1.6.061,2.273a11.372,11.372,0,0,0,2.581,2.09c1.783.922.123,3.073-.983,2.766-3.564-.8-2.336-1.352-5.04-1.537-.86-.061-4.794,1.537-6.024.369a2.089,2.089,0,0,1-.061-2.151c.554-.553,2.766-.8,3.381-1.659a4.548,4.548,0,0,0,.676-1.537c0-.123.86-5.224.86-5.224.061-.615,1.537-6.331,1.353-6.885-.185-.491-5.1-.675-5.41.185-.183.554-5.654,8.482-5.839,8.667l-3.011,4.855c-4.487,6.269-9.65,10.387-13.337,14.075a29.526,29.526,0,0,1-8.666,5.715,24.251,24.251,0,0,1-9.22,1.476c-5.163,0-7.683-2.827-7.683-6.085a4.348,4.348,0,0,1,1.66-2.827c.492-.246,2.274-.431,2.765.614.739,1.353-1.351,1.722-1.1,2.827A3.671,3.671,0,0,0,337.3,565.3a19.453,19.453,0,0,0,9.772-2.644,27.579,27.579,0,0,0,8.666-6.944c1.413-1.783,5.962-6.516,7.744-9.4,2.029-3.32,4.18-6.638,5.839-9.22q.369-.552.738-1.1c1.352-2.09,2.827-4.426,2.827-4.426s-.614-1.659-.245-2.4a12.048,12.048,0,0,1,2.519-2.4s.984-1.721,1.291-2.275c.491-.922,1.906-3.687,1.906-3.687s2.212-4.856,3.318-6.945a5.271,5.271,0,0,0,1.045-2.828c-.061-.983-2.028-.921-2.028-1.536-.061-.307.061-1.66.676-1.906a4.627,4.627,0,0,1,1.844,0c1.353.308,2.7,1.291,3.564,1.476,1.906.307,5.656-1.906,6.823-1.107C393.842,508.136,394.272,509.979,392.858,510.41Zm-6.822,3.749c-1.045,1.352-2.519,6.7-2.519,6.7s-3.135,6.085-3.258,6.392-.614,1.414-.738,1.783c-.123.43,3.873,0,4.487,0-.062-.554.43-1.844.922-4.487C385.36,521.9,386.405,513.729,386.036,514.159Zm33.189,24.708a12.683,12.683,0,0,1-4.487,9.465,11.455,11.455,0,0,1-7.437,2.95,13.108,13.108,0,0,1-8.666-2.95c-.738.922-1.352,2.889-1.906,2.889-1.229.123-2.212.061-2.642-.738a3.436,3.436,0,0,1,.308-2.4,20.92,20.92,0,0,0,1.474-3.073,11.246,11.246,0,0,0-.553-5.347c-.676-1.967,3.872-2.213,4.241-.8.307.984-.43,2.029.676,4.24,1.29,2.644,3.688,3.32,6.823,3.32,1.843,0,3.687-.185,5.1-1.906,0,0,2.459-2.642,2.521-4.547A6.429,6.429,0,0,0,412.9,535c-.861-.983-3.012-2.889-4.119-3.012-1.352-.061-1.659.615-3.011.307a1.3,1.3,0,0,1-.984-.86c-.184-.492.062-1.045-.676-1.721-2.459-2.274-3.2-2.151-4.3-3.381a9.745,9.745,0,0,1-2.4-7.252,12.612,12.612,0,0,1,3.32-8.421,11.022,11.022,0,0,1,8.3-3.195,9.77,9.77,0,0,1,6.884,2.581c.553-.553,1.659-2.151,2.335-2.151.615,0,1.782.307,1.905,1.106a5.472,5.472,0,0,1-.552,1.782,17.263,17.263,0,0,0-.922,1.906c-.246,1.537.368,3.2.246,4.855-.123,3.258-2.028,3.811-3.2,3.811-.984.061-1.107-2.151-1.045-3.134.061-1.414.246-3.073-.8-4.487a8.71,8.71,0,0,0-5.594-1.783,7.566,7.566,0,0,0-4.917,1.414,6.23,6.23,0,0,0-1.782,4.364,5.189,5.189,0,0,0,1.537,4.056c.8.738,1.967,2.09,3.073,2.09,1.106-.061,1.229-.983,2.335-.737a1.2,1.2,0,0,1,.676.368c.492.615.185,1.844,1.045,2.4,3.565,2.275,4.978,2.889,6.208,4.364A11.674,11.674,0,0,1,419.225,538.867Zm37.49-26.982a1.661,1.661,0,0,1-.922.061,5.344,5.344,0,0,0-1.6.492c-.307.123-1.229.922-1.229,1.229,0,0-2.212,9.711-1.659,10.449a17.369,17.369,0,0,1,1.229,1.721c.307.737.062.922-.369,1.844a12.658,12.658,0,0,1-.922,1.168,5.281,5.281,0,0,0-.737,2.7L448.6,543.846c0,.368-.308,1.167,1.351,2.335,1.045.737,4.057,2.765,2.275,4.487-.247.123-.247.491-2.275-.062-.491-.184-1.1-.246-1.721-.43-.921-.185-1.966-.43-2.581-.491h-.061a6.412,6.412,0,0,0-2.459.8,9.527,9.527,0,0,1-2.274.492c-1.66.184-1.966-1.783-1.966-2.09a2.07,2.07,0,0,1,.737-1.721,8.465,8.465,0,0,1,1.659-.553c2.521-1.475,2.151-3.011,2.4-4.794.307-2.089.246-4,.552-6.208.123-.737.431-2.765.431-2.765.061-1.107.246-3.32.185-3.32-.8-.061-2.213-.184-2.213-.184-.676-.062-1.353,0-2.4,0h-2.15a19.281,19.281,0,0,1-3.2-.184c-.431,0-.861.676-1.107,2.4L432.375,543.6a2.666,2.666,0,0,1-.062.552c-.122,1.107-.183,1.722-.183,1.722,1.351,2.643,4.855.983,4.732,3.626-.061.062.245,2.213-2.336,1.536-.737-.184-4.671-.922-6.208-.614-3.318.8-4.547,1.045-5.654.307a1.627,1.627,0,0,1,.123-2.4c.676-.43,3.073-1.721,3.811-2.95.184-1.782.369-3.32.43-3.565.245-2.089.738-4.364,1.045-6.638.123-.738.123-1.721.245-2.335,0-.062.431-2.827.431-3.934a1.858,1.858,0,0,0-.431-1.414,3.338,3.338,0,0,1-.368-1.659c.062-.922.676-.8,1.045-1.23a2.808,2.808,0,0,0,.43-.429,6.064,6.064,0,0,0,.369-1.66c.553-3.749,1.229-9.219,1.291-9.527,0-1.106-1.9-1.168-3.2-1.782a2.376,2.376,0,0,1-1.353-2.336c.062-1.782,2.766-1.168,3.2-1.168a2.14,2.14,0,0,1,.553-.061s3.873,1.044,4.487,1.044,1.783-.983,2.828-.86c.246,0,2.274-.307,2.765.185.615.614.676.614.308,1.966-.123.554-1.168.984-1.782,1.353a6.483,6.483,0,0,1-1.6.676,4.253,4.253,0,0,0-1.045,1.659s-1.536,7.744-1.659,10.449c0,.307.922.185,1.106.185l3.565.245,4.056.123a9.017,9.017,0,0,0,1.538.123c.491-.185.552.123.86-.185a2.854,2.854,0,0,0,.43-.429,6.064,6.064,0,0,0,.369-1.66c.552-3.749,1.229-9.219,1.291-9.527.061-1.9-4.979-1.6-4.917-3.749a2.673,2.673,0,0,1,.614-.922c.614-.676,2.52-.615,2.889-.615a2.841,2.841,0,0,1,.614-.061h.061c.431.061,3.811,1.044,4.365,1.044a33.144,33.144,0,0,1,4-.429c.246,0,.553-.062.983-.062.614,0,.676-.061,1.107.43C457.575,508.75,459.05,510.472,456.715,511.885Zm17.7-.369a12.325,12.325,0,0,0-1.167.615,21.281,21.281,0,0,0-1.291,5.1c-.123,1.414-.308,2.889-.431,4.364,0,0-.368,2.765-.429,3.687-.062.492.614.923.675,1.414a2.406,2.406,0,0,1-.246,1.107,4.308,4.308,0,0,0-.921,1.229c-.184,1.536-.676,5.9-.676,5.9-.861,7.128-1.107,8.973-1.168,9.834-.062.983,2.336,2.519,2.827,2.642.677.246.922,1.168,1.045,1.6a1.688,1.688,0,0,1-.614,1.537,2.268,2.268,0,0,1-.984.307c-.184,0-3.626-1.044-4.18-1.044-1.9,0-3.5,1.228-4.732,1.474a.965.965,0,0,1-.8-.123c-.43-.123-.922-1.536-.983-1.844-.123-.552-.492-1.72.86-2.274a3.345,3.345,0,0,0,.861-.491,4.455,4.455,0,0,0,1.536-2.7c.123-1.537.246-3.012.369-4.488.614-4.978.922-8.051,1.229-10.325.123-.983-.922-1.352-.8-2.4a1.977,1.977,0,0,1,.184-.861c.308-.492.8-.43.983-.983.8-2.889,1.353-11.985,1.353-11.985v-.123c-.062-.184-.246-.492-.922-.861l-1.474-.491c-1.107-.308-1.476-.738-1.476-1.168,0-2.151,2.581-2.09,2.889-2.09a15.373,15.373,0,0,1,2.95.308c.307.061.86.43.983.43a6.544,6.544,0,0,0,3.32-.922,8.535,8.535,0,0,1,1.536-.369c.737,0,1.229,1.352,1.414,2.151C476.259,510.226,475.767,510.963,474.414,511.516Zm29.87,15.427c0,.553.984,1.536.922,2.09,0,.614-1.106,1.967-1.168,2.581a34.561,34.561,0,0,1-2.459,8.666,22.884,22.884,0,0,1-4.609,8.175,8.629,8.629,0,0,1-6.331,2.95,9.1,9.1,0,0,1-8.113-4.241,23.677,23.677,0,0,1-3.134-8.912,43.074,43.074,0,0,1-.493-6.884c0-.8-1.474-1.967-1.474-2.765.061-.247-.062-.308.061-.553.492-.922,1.66-1.844,1.844-2.827a38.484,38.484,0,0,1,2.151-7.315,21.153,21.153,0,0,1,4.425-7.99,8.947,8.947,0,0,1,6.454-2.766,9.65,9.65,0,0,1,7.991,3.872,19.089,19.089,0,0,1,3.379,8.851A34.181,34.181,0,0,1,504.284,526.943Zm-4.61-.246c.43-3.687-.43-5.777-.737-7.928a11.37,11.37,0,0,0-1.906-5.164,4.349,4.349,0,0,0-3.319-1.72,6.559,6.559,0,0,0-4.548,2.151,26.576,26.576,0,0,0-3.5,7.253c-.491,1.6-.922,3.134-1.228,4.609-.246.984.8,1.844.675,2.766-.123.676-1.414,1.9-1.474,2.643-.246,2.766.306,4.179.676,6.761a12.518,12.518,0,0,0,2.089,5.655c.861,1.106,2.4,2.458,3.749,2.458,1.906,0,4.61-1.783,6.208-5.347a40.6,40.6,0,0,0,2.7-9.957c.061-.554-1.107-1.66-1.045-2.213S499.612,527.189,499.674,526.7Zm44.8-15.242c-.307.43-1.23,0-1.967.307a3.315,3.315,0,0,0-.615.43c-.123.738-.246,2.52-1.167,8.175a29.7,29.7,0,0,0-.615,4.363c.123,1.415.43,1.23.615,2.4s-1.353,1.536-1.415,2.335c-.368,2.09-.737,4.549-.8,5.777-.615,6.946-1.168,10.756-1.107,10.941,1.291,2.582,4.857.922,4.672,3.565-.061.062.123,1.6-2.4,1.6-.738,0-3.442-1.045-4.917-.615-3.258.922-5.839.984-6.884.246a1.678,1.678,0,0,1,.123-2.4c.922-.554,4.18-.86,3.441-2.336l-9.772-23.478c-.062.246-.122.492-.184.8a10.7,10.7,0,0,0-.061,2.766,11.442,11.442,0,0,1,.552,2.889c-.123.738-1.044.923-1.229,1.721-.43,1.721-2.212,15.55-2.274,16.1a7.028,7.028,0,0,0,1.291.431c1.044.184,3.5.43,2.705,3.073-.246.737-1.353.553-1.967.553a9.91,9.91,0,0,1-2.705-.553,4.214,4.214,0,0,0-.922-.185,3.986,3.986,0,0,0-1.29.308,7.252,7.252,0,0,1-2.275.43,42.27,42.27,0,0,1-4.978-.246c-1.414-.738-.614-2.028-.492-2.581.307-.922,4.918-1.045,5.04-1.292.553-.675,1.905-14.32,2.151-15.856.123-.922-1.045-1.906-.922-2.767s1.537-1.659,1.659-2.458c.247-1.782.247-1.72.37-2.95.43-2.888.675-4.732.8-5.962a26.186,26.186,0,0,0,0-3.81.228.228,0,0,0-.061-.185,2.851,2.851,0,0,0-1.659-2.09c-2.213-.614-1.906-3.2-1.783-3.38.247-.307.8-1.106,1.291-1.106a5.9,5.9,0,0,1,3.2,1.167A25.916,25.916,0,0,0,521,508.688c2.459-.183,5.1-1.72,6.515-1.228.923.368.615,3.38.369,3.749-.43.553-4.794.062-4.917,1.413-.062.431,4.118,7.5,4.118,7.5.922,1.9.922,4.486,2.52,7.621,1.537,2.766,1.9,5.531,3.319,8.237.123-.8.676-4.119,1.045-6.27.123-.8-.8-1.9-.738-2.151.184-1.23,1.414-2.029,1.6-3.319.308-1.905.614-4,.984-6.146.675-4.364,1.044-5.716.737-6.208-.062-.062-.184,0-.307,0H534.4c-.553,0-2.028.492-2.889-.308-.676-.614-.8-2.765-.368-3.81.123-.492,1.351-.307,2.519-.307a2,2,0,0,1,.615,0c1.167.122,3.38,1.045,4.548,1.045a11.663,11.663,0,0,0,2.52-.861c1.967-.184,3.011-.861,3.258.861C544.6,508.935,545.093,510.594,544.478,511.455Zm32.573,34.664a11.362,11.362,0,0,1-.43,3.5c-.922,1.352-5.717.737-7.007.737-1.352,0-6.76.861-10.018.676-1.045-.061-4.365-1.474-5.225-1.351-1.351.184-2.4,1.351-3.257,1.351-2.4,0-3.75-.553-4.056-1.6a1.167,1.167,0,0,1,.368-1.475,11.455,11.455,0,0,1,1.6-.86c.185-.062.738-.307,1.906-.676a2.23,2.23,0,0,0,1.229-1.967s.062-.369.122-.922V542.8c0-.431.8-5.594,1.291-9.834h.062a35,35,0,0,0,.307-4,1.967,1.967,0,0,0-.492-1.353,5.183,5.183,0,0,1-.491-2.028c.245-1.475,1.475-.553,1.782-2.95v-.062c.369-3.687.922-8.42.984-8.727a2.336,2.336,0,0,0-.615-1.6,3.768,3.768,0,0,0-1.66-.922h-.061a5.661,5.661,0,0,1-.8-.246c-1.107-.369-1.536-.8-1.536-1.23a2.132,2.132,0,0,1,2.212-2.335,15.737,15.737,0,0,1,2.643.184,13.9,13.9,0,0,0,3.012,1.107c1.106,0,3.626-.984,4.917-1.168a43.18,43.18,0,0,1,5.531.184l5.225-.184a1.385,1.385,0,0,1,.983.492,3,3,0,0,1,.43,1.9c-.062.676-.184,1.353-.307,2.028a6.891,6.891,0,0,0-.123,1.413,9.185,9.185,0,0,1-.061,1.414,1.808,1.808,0,0,1-.431,1.045,1.264,1.264,0,0,1-1.045.431,1.166,1.166,0,0,1-.983-.554,5.358,5.358,0,0,1-.307-.8c-.061-.493-.123-1.107-.123-1.415v-.123c-.062-.183-.185-.491-.246-.737a.224.224,0,0,1-.062-.184,7.786,7.786,0,0,0-2.089-.369h-1.107l-1.536.123-4.241-.123a3.927,3.927,0,0,0-1.475.246c-.308.123-.738.369-.738.615,0,0-1.782,10.2-.553,11.862h7.56c.43,0,.553-.123.738-1.106a.79.79,0,0,1,.061-.37,5.539,5.539,0,0,0,.123-1.29v-.184a1.1,1.1,0,0,1,.307-.8,1.033,1.033,0,0,1,.861-.369,1.635,1.635,0,0,1,1.782,1.352c0,.123,0,.185-.184,2.335-.061.37-.061.677-.123.922v.062c-.061.553-.061,1.414-.061,2.582v.614a16.33,16.33,0,0,1-.247,1.659,7.654,7.654,0,0,0-.246,1.107,8.949,8.949,0,0,1-.491,2.765,2.209,2.209,0,0,1-.492.739,1.1,1.1,0,0,1-.8.306,1.482,1.482,0,0,1-.922-.368,1.074,1.074,0,0,1-.43-.86,7.151,7.151,0,0,1,.061-1.045,11.866,11.866,0,0,1,.123-1.23,2.626,2.626,0,0,1,.123-.737c.062-.369.185-1.229.246-1.476a.639.639,0,0,0-.184-.368h-7.806a1.267,1.267,0,0,0-.983.307,1.282,1.282,0,0,0-.369.922l-1.537,11.371v.491a7.989,7.989,0,0,0,.185.8,4.36,4.36,0,0,0,.86,1.6l.062.061c.676.676,1.106.983,1.782.983l7.13.492c2.581,0,4.363,0,5.408-1.045.308-.8.984-1.6.922-2.52a4.671,4.671,0,0,1,.246-2.028c.185-.922.861-1.6,1.782-.922.554.491.493,2.09.616,2.581C576.928,542.924,576.989,543.354,577.051,546.119ZM611.836,528.6c-.062.675-1.167,1.843-1.229,2.52a48.782,48.782,0,0,1-1.168,7.989c-.553,2.213-.86,4.488-1.352,6.085-1.168,4-6.33,4.611-8.666,5.225a32.378,32.378,0,0,1-6.884.737,42.794,42.794,0,0,0-4.241-1.045c-.984,0-2.766.738-4.486.984a3.8,3.8,0,0,1-1.414.123c-.553-.123-2.458-.676-2.52-1.045-.123-.368-.062-2.029.737-2.52.861-.615,4.794-1.66,4.917-2.643.062-.307.246-1.413.492-2.951.369-2.15.861-5.039,1.29-7.559.185-1.353.37-2.458.431-3.319.185-1.229.185-1.537.123-1.66,0-.123-.061-.246-.246-.429a4.676,4.676,0,0,1-.614-2.09c.123-.922,1.474-2.028,1.474-2.213a43.737,43.737,0,0,0,.984-7.683c0-.8.061-1.537.061-2.151a7.335,7.335,0,0,0,0-1.168c-.123-1.782-2.458-2.4-2.95-2.581a2.47,2.47,0,0,1-1.168-2.028c.677-2.4,1.537-2.152,2.7-2.029.369.062,3.5,1.291,4.242,1.23,2.212-.123,3.5-.861,5.1-.922a12.006,12.006,0,0,1,6.147.983c2.4,1.229,4.732,1.66,5.961,3.442a18.683,18.683,0,0,1,1.352,4.732c.308,1.783.246,8.113.246,9.035C611.1,527.189,611.836,527.742,611.836,528.6ZM605.26,520c-.062-2.09,0-4.487-.062-4.671-1.106-2.09-4.732-1.66-6.146-1.9a3.581,3.581,0,0,0-3.5,3.072c-.246,1.353-.614,3.073-.922,5.04a10.639,10.639,0,0,0-.308,3.073c.185,1.045,1.23,1.844.922,2.643-.429,1.106-1.6,2.09-1.6,2.767-.247,3.995-.984,7.8-1.23,9.587-.246,1.6-.308,1.783-.369,2.09-.061,0-1.044,4,0,4.118,1.168.062,2.4.492,2.89.492a7.962,7.962,0,0,0,4.977-1.721c.738-.614,2.4-1.844,2.828-2.827,1.475-3.443,1.721-6.454,2.151-10.694.061-.554-.922-1.415-.922-1.661-.062-1.351,1.229-1.966,1.291-2.458A65.528,65.528,0,0,0,605.26,520Z"/><path class="cls-2" d="M271.406,678.28c4.759,18.336-10.5,31.634-27.714,31.634-11.477,0-20.435-7-27.433-15.537-3.5-4.479-6.579-9.1-9.658-13.856-.28-.42-1.539-3.081-2.1-3.22-.56-.28-3.779,2.1-4.339,2.38-3.079,1.819-6.158,3.638-9.238,5.318-20.715,11.617-48.149,24.355-72.083,14.977-6.579-2.52-12.318-7.279-14.837-14-4.2-10.917,1.119-24.355,12.457-28.274,2.1-.84,5.6-1.819,7.978-1.119h.14a5.381,5.381,0,0,1,4.9,5.458c0,7.139-10.5,7.419-11.477.98a15.529,15.529,0,0,0-6.439,4.759c-7.279,9.8-1.959,22.115,8.258,26.594,12.877,5.6,28.974,2.8,41.711-1.68,14.137-4.9,26.874-12.737,39.891-20.155-4.2-6.019-8.538-12.178-14.137-17.076a47.9,47.9,0,0,0-8.678-6.019c-3.359-1.679-7.7-1.819-10.918-3.639-2.939-1.68-1.819-5.039,1.54-5.319a13.418,13.418,0,0,1,3.08.42c.139-8.958.839-18.895,1.679-28.834l-1.679.42c-5.879.981-11.9,1.819-17.777,2.239h-.559c-.281,9.239-.56,18.477-1.12,26.595h6.3v4.619c-8.257.56-13.157-.84-21.415-.28a5.12,5.12,0,0,1-3.219-.56c-.84-.56-1.12-4.758-.14-5.178,1.4,1.119,3.779.42,4.759-1.12,1.12-1.4,1.26-34.013,2.239-47.03.141-1.96.28-3.92-.7-5.6s-3.5-2.52-4.9-1.26l-.559-5.879,25.614.979c.14.98,1.12,5.04.42,5.74-1.26,1.4-4.619-.84-6.159-1.12-.56,7.837-.839,16.516-1.119,25.334a7.866,7.866,0,0,1,1.679-.56l18.756-3.5c.42-7.278.84-14.417.84-20.855a31.209,31.209,0,0,1-3.5.7c.14-2.1.42-4.2.7-6.44H191.2c0,1.96,0,4.06.14,6.159-2.24-.139-4.339-.28-6.439-.28-.84,12.178-1.819,50.11-1.4,60.607a58.022,58.022,0,0,1,14.556,12.877c2.24,2.66,4.339,5.459,6.3,8.258,1.82,2.66,1.4,3.079,4.339,1.539,2.52-1.258,4.9-2.518,7.419-3.638,7.978-3.78,16.656-6.859,25.614-6.859C254.89,658.125,267.768,664.983,271.406,678.28Zm-19.455-13.016c-14.138-4.9-29.114,1.96-41.571,8.677-.14.141-.14.141-.28.141a.137.137,0,0,1-.14.14l-.56.28c6.579,9.937,13.3,22.675,24.775,27.853,11.337,5.04,27.994.84,31.772-12.177C268.887,679.4,262.028,668.9,251.951,665.264ZM239.91,604.657c0,9.1-.56,15.956-4.619,24.074-3.079,6.019-6.858,13.158-13.157,15.677-5.32,2.239-13.018-.42-17.357-3.919-4.2-3.639-6.858-8.818-8.4-14.136a52.658,52.658,0,0,1-.7-27.575c1.259-5.459,3.638-10.918,7.838-14.976,4.059-4.2,10.637-6.3,18.9-6.019C230.112,578.2,239.63,589.681,239.91,604.657Zm-6.439,2.379c0-16.376-7.838-24.074-11.9-24.494a6.961,6.961,0,0,0-6.3,3.359,20.275,20.275,0,0,0-2.519,6.859,126.179,126.179,0,0,0-2.1,34.012c.14,2.8.42,5.6,1.96,7.978a6.878,6.878,0,0,0,7,3.5C226.893,636.85,233.471,621.033,233.471,607.036Zm65.081,34.572c.98.7.56,2.38-.42,3.08-.98.84-2.239.84-3.5.98a35.813,35.813,0,0,1-8.678-.28c-2.8-.7-5.6-2.1-7.139-4.619-1.679-2.519-1.679-5.739-1.679-8.818V621.174c0-1.96-.84-6.579-4.759-7.278h-.84c-2.939,0-5.879.139-8.678.418a284.925,284.925,0,0,0,2.519,30.934l-21.415.42a4.4,4.4,0,0,1,5.879-5.738c.84-18.477,1.12-37.092.84-55.708-2.66,0-5.319-.14-7.979-.14a39.065,39.065,0,0,1,.141-4.06c7-.28,14-.419,20.855-.7v.7a9.5,9.5,0,0,1,1.959-.28c4.619-.559,9.378-1.26,14-.559,4.759.7,9.378,2.659,12.177,6.3a17.527,17.527,0,0,1,2.8,5.6c1.679,4.9,1.819,10.777-1.26,14.977a16.816,16.816,0,0,1-9.658,6.3,8.011,8.011,0,0,1,4.2,2.8c2.24,2.52,2.659,6.02,2.94,9.378q.42,4.62.839,9.239a12.816,12.816,0,0,0,1.54,6.018C294.353,641.469,296.732,642.589,298.552,641.608Zm-28.274-31.072c3.5-.84,7-2.939,8.538-6.159a18.009,18.009,0,0,0,1.4-7.139,15.924,15.924,0,0,0-1.119-7.7c-1.4-3.079-4.48-5.038-7.559-6.019a30.986,30.986,0,0,0-7.978-.839c-.7,9.378-.98,18.9-.84,28.414A27.6,27.6,0,0,0,270.278,610.536Zm69.56,20.016c.7,9.657-7.838,16.1-11.757,17.076a38.639,38.639,0,0,1-12.038.979c-3.219,0-6.439,0-9.1-1.679a11.485,11.485,0,0,1-4.758-8.258c-.42-3.22-.14-7.419,1.819-9.238,2.1-2.1,6.018.42,6.719,4.339-.56,3.359-4.339,3.219-3.5,5.458,1.259,3.219,5.318,6.159,8.677,5.459,3.919-.7,8.538-3.639,8.538-11.757s-19.036-23.375-21.554-36.672a14.943,14.943,0,0,1,2.379-11.9c3.219-4.058,8.958-5.039,14.136-5.6,3.919-.56,8.119-1.26,11.9.139,7.978,2.94,7.7,14.417,3.919,16.937-3.079,1.96-4.759.14-5.878-.84-1.12-.84-.141-4.339,2.1-4.619,3.359-.279.14-5.179-1.4-6.3a6.731,6.731,0,0,0-7.978.42,7.5,7.5,0,0,0-3.219,6.019c-.7,5.318,1.26,9.377,4.2,14C325.841,609,339.278,621.733,339.838,630.552Zm2.936-47.17v-3.64c7.839-.279,12.318-.7,20.157-.979,7.977-.14,16.1-.42,24.074-.56-.14,5.318-.28,10.5-.42,15.817-2.52,0-6.3.28-5.6-.84,1.68-3.22-.7-8.258-2.8-9.659-1.68-1.119-3.919-.979-5.878-.839-2.38.14-4.9.56-6.3,2.38a5.042,5.042,0,0,0-.84,2.8c-.28,5.74-.561,11.338-.84,16.937-.141,1.4-.141,2.8-.28,4.2,5.319-1.26,10.777-2.519,16.1-3.779.7.979-.28,5.319-1.12,6.018a9.049,9.049,0,0,1-3.218,1.26,113.56,113.56,0,0,1-12.037,1.96c-.42,8.538-.981,16.937-1.4,25.334,6.859,1.96,11.2.42,16.937-3.639,2.8-2.1-1.68-8.958,4.758-9.658,6.3-.559,2.94,12.737,3.36,17.916-8.538.14-14,.7-22.4.84-7.838,0-13.576,1.12-21.274,1.12a4.433,4.433,0,0,1,.279-5.6,4.7,4.7,0,0,1,5.459-1.12c.84-18.475.28-37.651,1.12-56.128C348.094,583.521,345.435,583.382,342.774,583.382Zm80.9,24.914c.14,2.1.7,5.319,0,7.278-.56,1.96.28,1.821-2.239,1.821h-5.6c-7.559,0-15.116.139-22.675.139-.28-2.659-.139-5.459-.28-8.118Zm13.295-24.074c-2.659,0-5.319-.14-7.979-.14a39.065,39.065,0,0,1,.141-4.06c5.738-.139,11.617-.419,17.355-.559,13.438-2.94,30.793,2.659,33.733,14.976,2.519,10.358,1.4,21.276-.14,31.773A26.218,26.218,0,0,1,477,636.57c-2.939,4.618-8.118,7.418-13.3,8.258a38.5,38.5,0,0,1-12.038.28v.14c-1.539.14-3.079.14-4.618.14a.493.493,0,0,1-.28.14.137.137,0,0,0,.139-.14c-5.6.14-11.057.14-16.656.28a4.4,4.4,0,0,1,5.879-5.738C436.967,621.453,437.247,602.838,436.967,584.222Zm12.737-.56a296.441,296.441,0,0,0,1.68,58.927c1.539-.141,3.219-.42,4.9-.7a15.265,15.265,0,0,0,7.559-4.619,19.579,19.579,0,0,0,3.079-8.958,99.023,99.023,0,0,0,.84-27.294c-.56-5.319-1.82-11.2-6.019-14.416C458.382,583.941,454.043,583.662,449.7,583.662ZM553.276,690.318c-33.732,0-35.971-34.152-34.292-58.227.281-3.639,0-7.279,0-10.917,0-1.82-.839-6.579-4.758-7.139h-.84a59.093,59.093,0,0,0-8.678.42,290.509,290.509,0,0,0,2.519,30.933c-7.138,0-14.277.14-21.415.28a4.578,4.578,0,0,1,.98-4.9,4.492,4.492,0,0,1,4.9-.7c.84-18.616,1.121-37.231.84-55.708l-7.978-.279c0-1.26,0-2.66.14-4.06l20.856-.559v.7a9.925,9.925,0,0,1,1.959-.42c4.759-.559,9.378-1.119,14-.559,4.759.7,9.378,2.659,12.177,6.438a15.554,15.554,0,0,1,2.8,5.459c1.68,5.039,1.82,10.777-1.259,15.116a16.606,16.606,0,0,1-9.659,6.159,9.686,9.686,0,0,1,4.2,2.8c3.5,3.92,4.059,12.738,3.219,19.6-2.1,18.2-7,49.97,20.576,49.97,21.975,0,28.693-38.492,8.4-48.15-6.719-3.219-15.257.28-18.2,7.558-3.079,7.419.84,15.816,8.118,18.9l2.239.42c.981-6.3,11.338-6.018,11.338,1.119,0,3.64-2.8,5.459-5.739,5.459a19.974,19.974,0,0,1-6.859-.839c-8.538-2.24-15.116-9.378-15.675-18.336-1.26-17.916,19.875-27.014,32.472-17.216C587.149,646.928,581.41,690.318,553.276,690.318Zm-41.15-79.782c3.5-.84,7-2.939,8.538-6.159,1.12-2.1,1.26-4.619,1.4-7.139a16.16,16.16,0,0,0-1.119-7.7c-1.4-2.938-4.479-4.9-7.558-5.878a31.133,31.133,0,0,0-7.979-.98q-1.048,14.277-.84,28.553A34.552,34.552,0,0,0,512.126,610.536Zm38.066,15.4H539.135v-3.64h3.219l2.52-9.1c.98-3.639,1.959-7.138,2.8-10.777a131.882,131.882,0,0,0,3.22-19.736,20.97,20.97,0,0,1-3.08.28l.42-3.779c5.879-.14,14.557-.281,20.436-.281l.42,3.5c-.981,0-1.96-.14-3.08-.14,2.1,13.017,4.059,27.154,6.439,40.172,1.82-.141,2.8-.141,4.618-.141l.84,4.06a71.312,71.312,0,0,0-21.135.839,27.984,27.984,0,0,0-.56-3.359l4.06-.7c-.281-4.619-.84-9.378-1.541-14.137-2.8.42-5.738.7-8.538.98-.979,4.2-1.959,8.258-3.079,12.458a6.552,6.552,0,0,1,3.079.139S550.612,625.093,550.192,625.933Zm7.979-21.136c-.98-6.019-2.1-12.037-3.5-17.776-1.12,6.439-2.239,12.737-3.64,19.036Zm84.82-25.754c5.459.42,10.918.84,16.517,1.4l-.42,4.2c-1.26-1.4-3.779-.98-5.179.139-7.558,20.156-7.558,37.653-13.857,55.428h5.879c.28,1.819.7,3.64.98,5.6a76.44,76.44,0,0,0-26.455,1.259c-.279-1.679-.56-3.218-.839-4.758,1.959-.42,3.779-.7,5.738-.98a373.9,373.9,0,0,0-7-43.95c-3.779,14.976-4.9,28.833-9.8,42.83h1.819c.28,1.819.7,3.64.979,5.6a76.435,76.435,0,0,0-26.454,1.259c-.28-1.679-.559-3.218-.84-4.758,1.96-.42,3.919-.7,5.74-.98-1.54-18.895-4.619-39.052-9.658-57.388-2.94.281-4.9.42-7.979.7.28-1.82.42-3.64.7-5.459,8.118-.14,17.357-.281,25.475-.42.279,1.679.559,3.359.7,5.039-1.4-.14-2.8-.14-4.339-.281,2.8,17.077,5.319,35.413,8.258,52.629,3.22-13.437,8.4-42.55,12.178-52.908-.42-1.68-.98-3.359-1.4-5.039,8.118-.14,12.037.7,20.156.56.28,1.679.419,3.359.7,5.039-1.4-.14-2.94-.14-4.34-.281,2.24,13.717,4.2,28.275,6.579,42.412,3.079-14.557,6.858-34.573,9.938-42.691h-4.9C642.292,581.842,642.571,580.442,642.991,579.043Zm54.723,1.4c4.9,0,15.116.56,20.155.7-.279,1.259-.84,3.638-1.26,4.9-1.819-1.539-4.9-.7-6.3,1.26s-1.4,3.5-1.54,5.879a313.169,313.169,0,0,0,0,36.252,39.867,39.867,0,0,0,1.54,10.078,4.287,4.287,0,0,0,1.4-.141c.14,2.38.279,4.759.42,7-5.879,0-14.7-.84-19.736,0,1.679-5.319-2.8-11.2-3.219-12.878-3.64-12.177-7.279-17.076-10.358-29.392-.98-3.5-3.08-10.5-5.178-14.558a56.943,56.943,0,0,0-.7,6.858,263.416,263.416,0,0,0,0,36.393c.14,2.379.14,3.919,1.54,5.738,1.4,1.96,4.479,2.94,6.3,1.4.281,1.258.84,3.638,1.26,4.9-5.039.14-15.257.7-20.3.7-.42-.98.98-4.059,5.038-3.779.981,0,.141-17.916,0-24.215-.139-11.338,0-21,.561-31.073a19.272,19.272,0,0,1-3.5.7c0-2.239-.141-4.619-.28-6.858,10.357-.281,18.335-.42,28.693-.7.42,1.679,1.96,3.359,2.38,4.9-1.68.14-4.619.14-6.3.279.979,8.118,3.22,14.278,5.179,21.7a131.7,131.7,0,0,0,9.8,26.173c-.559-8.118-.839-14-.7-24.354.141-6.158,1.12-24.214,0-24.074C698.693,584.5,697.294,581.422,697.714,580.442Z"/><path class="cls-5" d="M196.6,292.414c2.235,18.072-3.263,32.261-15.47,44.584-13.593,13.721-33.289,20.136-51.165,10.231-16.356-9.155-25.811-29.848-20.586-48.082,5.6-19.626,29.823-31.121,44.952-13.869,7.628,8.564,8.192,20.953,2.42,30.591-.877,1.648-2.884,5.2-5.277,7.106-2.77,2.542-6.939,3.447-10.242.174-6.352-6.293,2.58-16.071,9.43-11.3a9.629,9.629,0,0,0,1.38-2.41c3.877-9.249-.349-20.483-9.851-24.358-9.25-3.877-18.455,1.6-23.1,9.593-10.036,16.991.063,40.338,17.3,47.591,19.513,8.506,39.426-5.5,48.958-22.234a34.262,34.262,0,0,0,4.72-17.978c-2.262-24.142-34.8-33.219-56.949-36.53-11.387-1.463-24.424-4.057-34.7-12.228-10.788-8.422-7.961-25.759-3.939-31.089,3.015-4.061,6.155-8.5,10.824-10.673,9.842-4.6,20.008,5.976,18.9,11.671-.99,4.557-4.152,4.445-6.047,4.581-1.77.261-4.065-3.774-2.305-6.059,2.765-3.3-4.575-4.784-6.976-4.393a8.6,8.6,0,0,0-6.793,7.619c-1.327,13.536,17.159,18.761,30.449,21.1C148.973,249.012,192.255,256.4,196.6,292.414Zm21.248-64.676c-8.574,6.746-13.693,11.537-22.124,18.176-7.971,6.063-12.941,11.64-20.769,17.594a5.664,5.664,0,0,1-4.046-5.909,6.053,6.053,0,0,1,4.576-5.5c-13.328-19.295-28.836-38.5-42.165-57.8-2.671,1.806-5.375,3.863-8.079,5.92l-2.815-3.7c7.646-6.49,21.623-18.244,29.268-24.734l3.038,4.88c-2.311,1.983-4.548,4.359-4.565,7.291a6.444,6.444,0,0,0,1.312,3.5c4.154,6.053,8.2,11.963,12.246,17.872,8.382,12.5,16.8,24.744,25.072,37.1,7.55-4.844,11.712-8.234,14.3-16.942,1.331-4.159-8.637-7.811-2.523-13.361C206.543,206.677,213.412,222.8,217.845,227.738Zm-37.557-68.327c-.769-1.414-1.453-2.671-2.223-4.084,8.625-5.1,13.4-8.307,22.021-13.409,8.867-5.029,17.807-10.3,26.675-15.33,3.091,6.054,6.1,11.951,9.187,18.006-2.827,1.538-6.9,4.16-6.8,2.476-.081-4.638-5.828-8.84-9.039-9.129-2.569-.23-5,1.294-7.11,2.648-2.585,1.61-5.155,3.62-5.615,6.517a6.45,6.45,0,0,0,.767,3.655c3.191,6.61,6.295,13.064,9.4,19.518.7,1.657,1.552,3.227,2.25,4.883,5.2-4.661,10.556-9.409,15.756-14.07,1.383.672,2.933,6.139,2.418,7.437a11.593,11.593,0,0,1-2.843,3.38,144.944,144.944,0,0,1-12.312,9.55c4.743,9.838,9.244,19.6,13.9,29.285,8.893-1.989,12.822-6.367,16.783-14.427,1.859-4.065-7.356-9.026-.558-13.744,6.727-4.474,11.077,12.5,14.711,18.054-9.5,5.371-15.279,9.334-24.618,14.619-8.8,4.787-14.553,9.549-23.191,14.25a5.663,5.663,0,0,1-3.106-6.454,6,6,0,0,1,5.442-4.591c-10.34-21.246-22.68-42.424-33.021-63.67C186.342,156.319,183.272,157.787,180.288,159.411Zm91.244-47.99c.456,1.167,3.509,5.542,3.067,6.866-.747,2.021-5.953.982-7.915,1.364,6.734,21.176,17.116,47.265,23.851,68.441l7.329-2.863c.326.833,1.888,4.832,2.213,5.664-9.568,4.5-16.114,4.95-25.682,9.455-1.333.52-2.6,1.208-3.925.765-1.426-.211-3.711-5.078-2.741-6.033,2.251.849,4.693-1.257,5.375-3.443.451-2.288-14.542-41.166-19.261-57.179-.679-2.23-1.489-4.795-3.435-6.338-2.114-1.478-5.5-1.307-6.351.944-1.309-2.368-2.387-4.635-3.63-6.837C251.282,118.562,260.741,115.252,271.532,111.421Zm30.189-2.545a36.813,36.813,0,0,1,23.416-13.435c11.247-2.187,13.633,12.14,13.085,16.692a11.116,11.116,0,0,1,4.649-1.318c1.691.141,3.461,1.367,3.669,2.972.16,2.17-2.061,3.631-4.061,4.486a56.232,56.232,0,0,1-15.816,4.59,2.282,2.282,0,0,1-1.109-3.043,5.265,5.265,0,0,1,2.7-2.5,17.192,17.192,0,0,0,2.831-1.977c1.878-2.114,1.638-5.369.307-7.806-2.622-3.963-3.482-5.225-8.21-4.994a13.621,13.621,0,0,0-11.5,7.955,21.832,21.832,0,0,0-1.665,9.792,102.337,102.337,0,0,0,9.414,43.171c1.714,3.264,3.514,6.874,6.493,9.278s7.308,3.557,10.788,1.973c3.305-1.541,5.15-5.3,5.562-8.9.37-3.772-.519-7.42-1.366-10.9-1.184-4.865-2.37-9.73-3.6-14.77-3.127.762-6.293.614-9.246,1.333-.982-2.522-1.791-5.085-2.6-7.65,9.942-1.5,19.884-3,29.652-4.462.465,1.911.715,3.692,1.007,5.645l-6.082,1.481c2.135,5.738,4.1,11.519,4.665,17.638.528,5.946-.639,12.488-4.441,17.28s-9.846,7.184-15.542,9.492c-6.043,2.393-13.29,2.869-19.26.275-3.114-1.45-7.22-3.948-9.286-6.389-8.4-9.55-12.6-17.729-13.655-30.357C291.383,132.931,294.294,117.68,301.721,108.876ZM368.79,103.8c.042-2.331.063-5.02-1.314-7.088-1.555-2.059-4.831-2.939-6.333-1.06-.515-2.657-.841-5.145-1.346-7.624,11.458-.139,21.476-.373,32.923-.69.074,1.25,1.63,6.353.8,7.477-1.333,1.691-5.965-.9-7.951-1.143-.123,10.04.174,21.13.66,32.388a6.01,6.01,0,0,1,2.1-.841c7.949-1.9,16.067-3.994,24-6.075-.17-8.949-.519-17.885-1.024-26.454-1.408.441-2.994.893-4.4,1.334.189-2.877.209-5.566.4-8.443l23.922-1.413c.148,2.5.485,5.167.643,7.845-2.688-.021-5.556-.031-8.233.128-.007,18.094.835,68.744,2.347,70.088s4.169.829,6.1.177c.294,1.953.41,3.917.716,6.049-5.178.306-13.033.77-18.2,1.254-2.142.126-2.856.168-4.715-.976-1.849-.965-2.732-3.78-1.388-5.293l5.377.041c-.7-11.783-1.066-24.122-1.258-36.472a18.678,18.678,0,0,1-2.993.893c-7.425,1.693-14.859,3.206-22.5,4.2a1.07,1.07,0,0,1-.7.22c.339,11.8.667,23.43.743,33.816l7.856-.464c.052.893.305,5.178.358,6.07-10.491,1.336-16.855-.259-27.347,1.077-1.427.085-2.845.348-3.969-.481-1.292-.641-1.965-5.976-.748-6.585,1.88,1.5,4.852.251,6.175-1.618C370.621,162.093,368.343,120.485,368.79,103.8Zm215.339,92.955c.946,1.213-.177,3.118-1.631,3.62a9.288,9.288,0,0,1-4.643-.067,45.764,45.764,0,0,1-10.529-3.49c-3.177-1.872-6.1-4.6-7.071-8.246s.022-7.639,1.139-11.412l3.906-13.2c.71-2.4,1.527-8.313-3.193-10.643l-1.028-.3a76.68,76.68,0,0,0-10.784-2.632c-3.24,12.842-5.966,25.836-7.954,38.861-8.8-2.416-17.593-4.832-26.338-7.42a5.562,5.562,0,0,1,2.926-5.475,5.5,5.5,0,0,1,6.134.7c7.777-22.5,14.817-45.035,21.221-67.943-3.258-.964-7.424-2.011-10.681-2.975-7.991-1.99-15.523-5.524-23.868-6.315-7.264-.658-17.335,4.382-17.388,12.757-.025,2.605.084,4.128.637,5.412l.253-.858c2.69-9.089,16.75-4.929,14.062,4.16-1.37,4.63-5.853,5.914-9.4,4.677l-.514-.151c-15.606-4.617-12.261-26.007.736-31.486,9.817-4.182,20.486.094,30.089,2.935l8.231,2.436c8.282,2.263,18.933,5.974,45.34,13.788,5.456,2.359,10.354,6.606,12.636,12.129a25.741,25.741,0,0,1,1.451,7.7c.06,6.731-1.9,13.984-7.023,18.063a21.492,21.492,0,0,1-14.114,4.216,13.1,13.1,0,0,1,4.179,4.78c1.609,4.019.855,8.458-.02,12.675l-2.32,11.622c-.589,2.623-1.007,5.3-.244,7.761C579.035,195.06,581.544,197.294,584.129,196.753Zm-23.376-48.316c4.592.239,9.64-1.065,12.693-4.451a20.277,20.277,0,0,0,4.3-8.238c1.136-3.207,2.1-6.466,1.59-9.786-.6-4.28-3.66-7.8-7.249-10.164a39.573,39.573,0,0,0-9.47-3.921,350.029,350.029,0,0,0-11.157,34.557A41.608,41.608,0,0,0,560.753,148.437Zm89.711-1.3c-.585,1.107-1.9,6.277-3.193,6.808-2.016.755-4.633-3.863-6.206-5.1-11.622,18.939-24.577,43.849-36.2,62.789l6.958,3.675c-.418.791-2.423,4.586-2.84,5.377-9.664-4.3-14.279-8.959-23.943-13.255-1.265-.668-2.613-1.178-3.144-2.47-.773-1.217,1.416-6.128,2.774-6.018.829,2.259,4.018,2.73,6.119,1.817,2.025-1.155,21.646-37.915,30.679-51.952,1.244-1.973,2.654-4.261,2.55-6.744-.263-2.565-2.608-5.017-4.867-4.188.938-2.538,1.949-4.836,2.8-7.217C631.822,136.479,640.511,141.473,650.464,147.135Zm16.094,15.754c-2.759-1.984-5.412-4.113-8.171-6.1a50.129,50.129,0,0,1,3.173-4.1c6.056,4.134,12.363,8.229,18.42,12.365,16.13,6.972,29.958,25.726,23.82,40.7-5.112,12.623-14.417,23.112-23.845,32.853a33.461,33.461,0,0,1-10.92,8.447c-6.494,2.6-13.954,1.64-19.952-1.352a49.183,49.183,0,0,1-12.695-8.688l-.1.145c-1.7-1-3.3-2.151-4.9-3.3a.63.63,0,0,1-.395-.064.176.176,0,0,0,.25-.041c-5.912-4.031-11.574-8.1-17.486-12.134a5.623,5.623,0,0,1,10.378-1.567Q646.113,192.239,666.558,162.889Zm13.63,8.92a378.578,378.578,0,0,0-42.211,62.376c1.7,1,3.653,1.965,5.6,2.928a19.493,19.493,0,0,0,11.286.846c3.767-1.256,7.039-3.969,9.875-7a126.471,126.471,0,0,0,21.23-27.685c3.386-5.934,6.465-12.972,4.51-19.443C688.98,178.571,684.688,175.045,680.188,171.809Zm20.219,177.243c-18.165,1.28-32.044-4.957-43.707-17.8-12.986-14.3-18.354-34.3-7.521-51.633,10-15.851,31.165-24.2,49.1-18.023,19.3,6.623,29.507,31.42,11.482,45.619-8.953,7.166-21.355,7.076-30.675.805-1.6-.962-5.039-3.153-6.818-5.644-2.393-2.9-3.078-7.11.365-10.236,6.618-6.013,15.913,3.421,10.786,10.012a9.676,9.676,0,0,0,2.333,1.5c9.032,4.359,20.474.731,24.844-8.555,4.358-9.032-.63-18.512-8.364-23.568-16.439-10.917-40.285-2.061-48.435,14.765-9.523,19.038,3.412,39.661,19.624,50.061a34.252,34.252,0,0,0,17.7,5.66c24.228-.988,35.007-33,39.479-54.945,2.061-11.3,5.338-24.177,14.04-34.013,8.977-10.33,26.141-6.593,31.253-2.3,3.895,3.225,8.165,6.6,10.087,11.372,4.074,10.07-7.021,19.665-12.65,18.256-4.5-1.23-4.221-4.381-4.256-6.282-.168-1.78,3.984-3.86,6.172-1.982,3.15,2.936,5.018-4.317,4.754-6.735a8.6,8.6,0,0,0-7.25-7.184c-13.448-2.038-19.639,16.147-22.675,29.294C746.257,303.78,736.6,346.612,700.407,349.052Zm29.943-93.636L718.424,266.49c-9.125-12.97-30.282-17.912-43.445-12.72l-.25-5.33a40.423,40.423,0,0,1,13.426-2.772c12.876-12.422,31.167-29.52,40.47-38.694l-5.05-5.56,2.647-2.4L740,212.584c5.171,5.691,10.474,11.264,15.776,16.835-3.707,3.367-7.533,6.6-11.36,9.836-1.815-1.734-4.353-4.261-3.077-4.452,3.332-.854,5.343-5.821,5.079-8.239-.288-1.913-1.863-3.38-3.317-4.716s-2.165-2.383-4.548-.219c-4.091,3.475-6.908,6.758-11.119,10.1a4.928,4.928,0,0,1-1.312.95c4.281,3.118,4.967,4.67,9.26,7.534-.181,1.131-3.946,3.1-4.957,3.054a6.494,6.494,0,0,1-2.971-1.409c-3.055-2.3-2.381-3.153-5.17-5.692-5.03,4.569-9.687,9.283-14.706,13.6,6.712,2.6,8.371,4.959,11.5,8.4l5.813-5.038Z"/><path class="cls-5" d="M608.839,679.36a7.286,7.286,0,0,1-2.577,5.438,6.581,6.581,0,0,1-4.273,1.7,7.529,7.529,0,0,1-4.978-1.7c-.424.53-.777,1.66-1.095,1.66-.706.07-1.27.035-1.519-.424a1.984,1.984,0,0,1,.177-1.377,11.943,11.943,0,0,0,.848-1.765,6.461,6.461,0,0,0-.318-3.073c-.388-1.13,2.224-1.27,2.436-.459.177.566-.247,1.165.389,2.437.741,1.518,2.118,1.907,3.919,1.907a3.407,3.407,0,0,0,2.93-1.095A5.705,5.705,0,0,0,606.227,680a3.693,3.693,0,0,0-1.025-2.86,6.01,6.01,0,0,0-2.365-1.73c-.777-.035-.953.353-1.731.177a.744.744,0,0,1-.564-.5c-.106-.282.035-.6-.389-.988-1.412-1.307-1.836-1.236-2.471-1.943a5.589,5.589,0,0,1-1.377-4.166,7.24,7.24,0,0,1,1.906-4.837,6.333,6.333,0,0,1,4.767-1.837,5.616,5.616,0,0,1,3.955,1.484c.317-.318.953-1.236,1.341-1.236.353,0,1.024.176,1.1.635a3.161,3.161,0,0,1-.318,1.025,9.949,9.949,0,0,0-.53,1.094c-.141.883.212,1.836.142,2.789-.071,1.871-1.166,2.19-1.837,2.19-.564.035-.635-1.236-.6-1.8a3.775,3.775,0,0,0-.459-2.578,5,5,0,0,0-3.213-1.023,4.351,4.351,0,0,0-2.826.811,3.579,3.579,0,0,0-1.023,2.508,2.981,2.981,0,0,0,.882,2.33c.459.424,1.13,1.2,1.766,1.2.635-.035.706-.564,1.341-.424a.7.7,0,0,1,.389.212c.282.354.105,1.06.6,1.377,2.047,1.307,2.859,1.66,3.565,2.507A6.706,6.706,0,0,1,608.839,679.36Zm8.9-15.712c-.387.177-.6.318-.671.353a12.29,12.29,0,0,0-.741,2.931c-.07.812-.177,1.66-.247,2.506,0,0-.212,1.589-.247,2.12-.035.282.354.529.389.811a1.371,1.371,0,0,1-.142.636,2.456,2.456,0,0,0-.529.706c-.107.883-.389,3.39-.389,3.39-.494,4.1-.636,5.155-.671,5.649-.035.565,1.342,1.448,1.624,1.519.389.141.531.67.6.918a.967.967,0,0,1-.354.882,1.293,1.293,0,0,1-.564.177c-.107,0-2.083-.6-2.4-.6-1.1,0-2.013.706-2.719.847a.561.561,0,0,1-.459-.07c-.247-.071-.529-.883-.565-1.06-.071-.318-.283-.989.494-1.306a1.927,1.927,0,0,0,.5-.283,2.56,2.56,0,0,0,.882-1.553c.071-.883.142-1.731.212-2.577.353-2.861.53-4.626.706-5.933.071-.565-.529-.776-.459-1.377a1.136,1.136,0,0,1,.106-.494c.177-.282.459-.247.565-.566a57.291,57.291,0,0,0,.777-6.884v-.071c-.035-.106-.141-.283-.53-.494l-.847-.283c-.636-.176-.847-.424-.847-.671,0-1.235,1.482-1.2,1.659-1.2a8.771,8.771,0,0,1,1.695.177c.176.035.5.247.565.247a3.76,3.76,0,0,0,1.906-.53,4.929,4.929,0,0,1,.883-.211c.424,0,.706.776.813,1.235C618.8,662.906,618.515,663.33,617.737,663.648Zm22.987-.035c-.176.247-.706,0-1.13.176a2,2,0,0,0-.353.247c-.07.424-.141,1.448-.671,4.7a17.152,17.152,0,0,0-.353,2.507c.071.813.247.706.353,1.377s-.777.883-.812,1.342c-.212,1.2-.424,2.613-.459,3.319-.353,3.991-.671,6.179-.636,6.285.742,1.483,2.79.53,2.684,2.048-.035.036.071.918-1.377.918-.424,0-1.978-.6-2.824-.353-1.873.53-3.355.565-3.956.141a.964.964,0,0,1,.071-1.377c.53-.317,2.4-.494,1.977-1.341l-5.614-13.489c-.035.142-.07.284-.105.459a6.13,6.13,0,0,0-.036,1.589,6.556,6.556,0,0,1,.318,1.66c-.071.424-.6.53-.706.989-.247.988-1.272,8.933-1.307,9.251a4.088,4.088,0,0,0,.742.247c.6.106,2.012.247,1.553,1.765-.141.424-.776.318-1.13.318a5.659,5.659,0,0,1-1.553-.318,2.443,2.443,0,0,0-.53-.1,2.3,2.3,0,0,0-.741.176,4.17,4.17,0,0,1-1.307.247,24.229,24.229,0,0,1-2.86-.141c-.812-.424-.353-1.165-.282-1.483.176-.53,2.825-.6,2.9-.742.318-.388,1.095-8.227,1.237-9.109.07-.53-.6-1.1-.531-1.589s.883-.954.953-1.413c.142-1.023.142-.988.212-1.694.247-1.66.389-2.719.459-3.425a14.807,14.807,0,0,0,0-2.189.133.133,0,0,0-.035-.107,1.635,1.635,0,0,0-.953-1.2,1.606,1.606,0,0,1-1.024-1.941c.141-.177.46-.636.742-.636a3.382,3.382,0,0,1,1.836.671,15.223,15.223,0,0,0,1.765.635c1.412-.106,2.931-.989,3.743-.707.53.212.353,1.943.211,2.155-.247.317-2.753.035-2.824.812-.035.247,2.365,4.308,2.365,4.308.53,1.094.53,2.577,1.449,4.378.882,1.589,1.093,3.177,1.906,4.731.07-.459.389-2.366.6-3.6.07-.459-.459-1.1-.424-1.236.105-.707.811-1.166.918-1.907.176-1.1.352-2.295.564-3.531.389-2.507.6-3.283.424-3.566-.035-.035-.106,0-.177,0h-1.058c-.319,0-1.165.283-1.661-.176a2.575,2.575,0,0,1-.211-2.19c.071-.282.777-.177,1.448-.177a1.161,1.161,0,0,1,.352,0c.671.072,1.943.6,2.614.6a6.672,6.672,0,0,0,1.447-.494c1.13-.107,1.73-.494,1.872.494C640.795,662.165,641.077,663.118,640.724,663.613Zm17.019,2.33c-.176.212-.459,1.978-.776,2.119-.459.211-1.165.176-1.237-.071-.247-.671.389-2.33.284-2.648-.177-.424-1.13-1.2-3.567-1.236-1.907-.071-3.072.353-4.237,2.578a13.3,13.3,0,0,0-1.941,5.013c-.037.354.776,1.413.741,1.766-.035.53-.918,1.165-.953,1.66-.142,4.52.882,6.743,1.624,7.556a3.379,3.379,0,0,0,2.965,1.059,2.538,2.538,0,0,0,2.437-.918,11.328,11.328,0,0,0,1.271-2.755c.176-.67.6-1.447,1.376-1.305a1.365,1.365,0,0,1,1.2.953c.317,1.447-1.06,4.343-2.331,5.437a7.849,7.849,0,0,1-4.661,1.377c-1.836,0-3.566-1.306-4.943-2.93-1.165-1.412-1.377-2.577-1.8-4.52a18.546,18.546,0,0,1-.247-4.237c0-.318-.812-.671-.741-1.271.176-.954.564-1.094.988-1.7a10.024,10.024,0,0,0,.318-1.8,14.665,14.665,0,0,1,2.93-6.285c1.66-2.083,2.755-2.612,5.12-2.612a8.821,8.821,0,0,1,3.991.811c.352.177.846.636,1.165.778.494.212.988-1.025,1.447-1.554a.418.418,0,0,1,.636,0C659.756,661.776,657.92,665.731,657.743,665.943Zm19.916,17.584a6.509,6.509,0,0,1-.247,2.013c-.53.776-3.284.424-4.025.424-.777,0-3.884.494-5.755.388-.6-.036-2.508-.848-3-.777-.776.106-1.377.777-1.871.777-1.377,0-2.155-.318-2.33-.918a.669.669,0,0,1,.212-.848,6.385,6.385,0,0,1,.918-.494c.105-.035.422-.177,1.093-.388a1.283,1.283,0,0,0,.707-1.131s.036-.211.071-.529v-.424c0-.247.459-3.213.741-5.649h.035a20.2,20.2,0,0,0,.177-2.295,1.133,1.133,0,0,0-.282-.777,2.947,2.947,0,0,1-.283-1.165c.141-.847.847-.318,1.024-1.7V670c.212-2.118.53-4.838.565-5.014a1.342,1.342,0,0,0-.353-.918,2.169,2.169,0,0,0-.953-.53h-.036a3.174,3.174,0,0,1-.459-.141c-.635-.212-.882-.459-.882-.706a1.224,1.224,0,0,1,1.27-1.341,9.109,9.109,0,0,1,1.519.1,7.949,7.949,0,0,0,1.73.636c.636,0,2.083-.566,2.824-.671a24.59,24.59,0,0,1,3.178.105l3-.105a.794.794,0,0,1,.565.282,1.729,1.729,0,0,1,.247,1.1c-.036.388-.106.776-.177,1.165a3.886,3.886,0,0,0-.07.812,5.139,5.139,0,0,1-.036.812,1.029,1.029,0,0,1-.247.6.726.726,0,0,1-.6.248.672.672,0,0,1-.565-.318,3.073,3.073,0,0,1-.176-.459c-.036-.283-.071-.636-.071-.812v-.071c-.036-.106-.106-.283-.141-.424a.127.127,0,0,1-.036-.106,4.513,4.513,0,0,0-1.2-.212H673.1l-.882.071-2.437-.071a2.249,2.249,0,0,0-.847.142c-.177.07-.424.212-.424.353,0,0-1.024,5.862-.318,6.815h4.343c.247,0,.318-.072.424-.636A.452.452,0,0,1,673,670.5a3.172,3.172,0,0,0,.071-.741v-.107a.636.636,0,0,1,.176-.459.6.6,0,0,1,.5-.212.94.94,0,0,1,1.024.778c0,.07,0,.105-.106,1.342-.036.212-.036.387-.071.529v.035c-.035.318-.035.813-.035,1.483v.353a9.338,9.338,0,0,1-.141.954,4.322,4.322,0,0,0-.141.635,5.164,5.164,0,0,1-.283,1.589,1.258,1.258,0,0,1-.283.424.632.632,0,0,1-.459.176.844.844,0,0,1-.529-.212.613.613,0,0,1-.247-.494,4.115,4.115,0,0,1,.035-.6,6.772,6.772,0,0,1,.07-.706,1.488,1.488,0,0,1,.072-.424c.035-.212.105-.706.14-.847a.371.371,0,0,0-.1-.212H668.2a.726.726,0,0,0-.564.176.735.735,0,0,0-.212.53l-.883,6.533v.282a4.644,4.644,0,0,0,.106.459,2.506,2.506,0,0,0,.494.918l.035.035c.389.389.636.565,1.024.565l4.1.282c1.483,0,2.507,0,3.107-.6.177-.459.565-.918.53-1.447a2.677,2.677,0,0,1,.141-1.165c.106-.531.494-.918,1.024-.531.318.284.283,1.2.353,1.484A6.407,6.407,0,0,1,677.659,683.527Zm14.019,3.178a7.131,7.131,0,0,1-.777-.282c-.53-.212-.742-.459-1.271-.459a11.86,11.86,0,0,0-1.978.529,4.654,4.654,0,0,1-.776.177c-.282.035-.636,0-.741-.177-.142-.141-.072-.389-.107-.636a.6.6,0,0,1,.107-.529,1.574,1.574,0,0,1,.564-.318c.282-.106.6-.247.953-.388a1.4,1.4,0,0,0,.778-1.13,18.6,18.6,0,0,1,.352-3.179,40.769,40.769,0,0,0,.6-5.189c-.212-.389-.741-.742-.671-1.1.035-.318.848-.812,1.2-1.2.247-.247.389-4.378.636-5.437a1.1,1.1,0,0,0,.07-.283,1.061,1.061,0,0,0,.071-.282c.036-.071,0-.106-.035-.141l-.106-.106a3.709,3.709,0,0,0-1.659.317c-.177.107-.671.283-.778.212a2.977,2.977,0,0,1-.494-1.165.811.811,0,0,1,.424-.6c.389-.247,3.955-3,4.025-3.108.106-.105.989-.918,1.095-1.058a.59.59,0,0,1,.883-.247,2.636,2.636,0,0,1,.388.282,2.586,2.586,0,0,1,.388.317.529.529,0,0,1,.142.6c-.283.953-.53,1.871-.777,2.789-.247.954-.495,1.872-.706,2.79a9.477,9.477,0,0,0-.212,1.447c-.036.494-.071.99-.106,1.484-.071.423-.247,1.553-.283,1.941,0,.247.883,1.236.53,1.66-.212.212-.741.388-.883.812-.176.53-.176,1.342-.282,1.624-.177.565-.459,2.755-.565,3.389-.106.566-.212,1.13-.282,1.7a9.723,9.723,0,0,0,0,1.765,1.664,1.664,0,0,0,.211.671,1.391,1.391,0,0,0,.53.459l.318.106c.07.035.176.07.317.141a.466.466,0,0,1,.389.494c0,.106-.141,1.413-.812,1.377A1.506,1.506,0,0,1,691.678,686.705Zm8.863-24.47a6.534,6.534,0,0,1,1.589-.634,17.777,17.777,0,0,1,4.1-.319h.387a1.573,1.573,0,0,0,.319.035H707c1.519.284,2.79,1.413,3.778,3.32.848,1.589.671,7.485.459,9.145-.035.247.389.741.354.989-.107.494-.671.67-.778,1.129-.353,1.342-.141,4.944-.776,6.074-1.837,3.319-3.249,4.519-6.532,4.519a8.653,8.653,0,0,1-3.92-1.024c-.247-.176-.529-.353-.812-.53a1.123,1.123,0,0,0-.565-.282,1.917,1.917,0,0,0-.282.282l-.53.6c-.247.282-.954.883-1.236.883-.247,0-.494-.142-.848-.636-.07-.141.072-.424.212-.6.107-.142.354-.813.743-1.519a8.492,8.492,0,0,0,.564-1.342v-.035a12.4,12.4,0,0,0,.282-1.589c.142-.848.177-2.295.778-2.295a1.451,1.451,0,0,1,1.235,1.13,10.126,10.126,0,0,0,0,1.589c.247.812,2.436,2.048,2.436,2.048a4.359,4.359,0,0,0,2.472.247,3.466,3.466,0,0,0,2.754-1.1c.883-.847.989-6.037,1.1-6.461a15.787,15.787,0,0,1-2.19-.071c-.6.036-.706.53-1.305.389-.177-.036-.531-.459-.636-.53-.354-.212-3.072-.212-4.414-1.8a8.523,8.523,0,0,1-1.554-5.65,10.606,10.606,0,0,1,.671-3.46A14.748,14.748,0,0,1,700.541,662.235Zm.212,6.6a5.98,5.98,0,0,0-.107,1.377,2.8,2.8,0,0,0,.566,1.342,3.969,3.969,0,0,0,2.542,1.165c.776.07.953-.318,1.694-.177a.775.775,0,0,1,.6.529c.07.212.883,0,1.977-.105.176-1.377.671-5.65-.071-6.744-.741-1.165-.6-1.8-1.8-1.8-1.165,0-3.141.106-4.1.918a2.021,2.021,0,0,0-.883,1.236S701.07,667.038,700.753,668.839Zm18.22,13.064a1.181,1.181,0,0,0,.459,1.024,1.334,1.334,0,0,0,.989.494l3.425.318c1.447,0,2.436,0,3.036-.565.212-.494.6-.918.6-1.447a2.762,2.762,0,0,1,.177-1.13c.141-.494.565-.918,1.059-.494.283.247.177,1.165.247,1.412a6.1,6.1,0,0,1,.071,2.153,7.375,7.375,0,0,1-.282,1.978c-.566.777-3.249.423-3.99.423a44.165,44.165,0,0,1-5.049.389c-.636-.035-2.4-.848-2.9-.812-.777.106-1.624.847-2.119.812-1.624-.106-1.2-.424-1.342-.989a.985.985,0,0,1,.566-1.2c.105-.036.424-.177,1.023-.389a1.3,1.3,0,0,0,.778-1.13s.035-.212.352-2.26c.142-1.941.989-2.542,2.26-3.848.848-.848.883-1.024,2.86-3.178.389-.459.424-1.024.741-1.377a.9.9,0,0,1,.459-.177c.566-.14.459.247,1.06.283.671,0,2.118-2.366,2.648-2.825a3.331,3.331,0,0,0,1.13-2.26,3.239,3.239,0,0,0-.671-2.471,3.867,3.867,0,0,0-2.683-.812,5.679,5.679,0,0,0-3.319.988,4.327,4.327,0,0,0-.742,2.578c-.035.565-.247,1.765-.847,1.765-.636-.035-1.66-.317-1.518-2.153.07-.954.529-1.872.494-2.719a10.615,10.615,0,0,0-.388-1.1c-.036-.247-.283-.777-.212-.989.141-.494.812-.635,1.165-.635.388,0,.918.847,1.2,1.165a6.283,6.283,0,0,1,4.024-1.413,5.7,5.7,0,0,1,4.485,1.766,6.981,6.981,0,0,1-.565,8.9c-.742.707-1.695,1.765-3.249,3.072-.459.388-.352.671-.494.989a.949.949,0,0,1-.636.494c-.741.141-.424-.212-1.165-.141-.636.035-1.906,2.718-2.471,3.212a2.46,2.46,0,0,0-.636.955C718.8,682.15,718.973,681.9,718.973,681.9Zm25.246-9.322c1.094,1.342,1.518,4.838,1.342,6.779a7.707,7.707,0,0,1-2.754,5.438,6.9,6.9,0,0,1-4.343,1.7,7.431,7.431,0,0,1-4.943-1.7c-.424.53-.813,1.66-1.13,1.66-.706.07-1.272.035-1.519-.424a1.878,1.878,0,0,1,.247-1.377,11.477,11.477,0,0,0,.883-1.765,6.444,6.444,0,0,0-.176-3.073c-.353-1.13,2.26-1.27,2.436-.459.141.566-.283,1.165.283,2.437.706,1.518,2.083,1.907,3.884,1.907a3.551,3.551,0,0,0,2.966-1.095A5.962,5.962,0,0,0,742.913,680c.106-1.13-.142-3.884-.848-4.7a5.466,5.466,0,0,0-2.33-1.73c-.742-.036-.954.353-1.7.176a.685.685,0,0,1-.564-.494c-.107-.282-2.719.177-3.32-.564-.989-1.13-.282-3.073-.141-4.7.035-.388.388-3.389.423-4.2-.035-.105-.105-.212-.105-.247-.106-1.165-.283-.459-.247-1.165a1.238,1.238,0,0,1,.035-.494,1.336,1.336,0,0,1,.459-.671c.282-.106,1.694.424,2.719.459h.988c.706.035.777.212,1.342.247.389-.035.812-.035,1.271-.035,1.342,0,2.825.282,2.931-.318.141-.67.353-.919.6-.954a1.161,1.161,0,0,1,1.306,1.2,6.775,6.775,0,0,1-.176,1.413,4.028,4.028,0,0,0-.318,1.624,3.8,3.8,0,0,0,.318.918c.035.423-.707.812-1.165.953-.318.106-.6.176-1.024-.635a6.884,6.884,0,0,1-.283-.989,1.268,1.268,0,0,0-1.2-.777c-.283,0-3.425.071-3.46-.035-1.66-.036-.883-.036-1.13.07,0,.248-.848,2.79-.848,2.861-.07.918-.459,2.223.142,2.859a1.478,1.478,0,0,0,1.305.459c.636-.035.743-.529,1.342-.424.142.037.5.5.6.566C740.194,670.887,743.513,671.734,744.219,672.581Z"/></svg>