<svg id="Layer_1" data-name="Layer 1" xmlns="http://www.w3.org/2000/svg" viewBox="0 0 864 864"><defs><style>.cls-1{fill:#761113;}.cls-2{fill:#607848;}</style></defs><path class="cls-1" d="M367.216,142.907a49.938,49.938,0,0,0,6.805.1,5.91,5.91,0,0,1,.688.676q25.248,36.96,50.442,73.957a7.74,7.74,0,0,1,1.222,3.968c.132,5.73.062,11.465.046,17.2,0,.587-.144,1.173-.3,2.382-1.178-1.292-1.972-2.075-2.668-2.938q-11.529-14.311-23.036-28.639a21.36,21.36,0,0,0-2.319-2.633,6.9,6.9,0,0,0-8.965-.444,6.792,6.792,0,0,0-1.668,8.8,22.341,22.341,0,0,0,2.284,3.159Q406.989,240,424.29,261.461a9.672,9.672,0,0,1,2.4,6.716c-.134,6.121-.014,12.247-.019,18.371,0,.972-.119,1.945-.238,3.758-1.213-1.377-1.885-2.118-2.533-2.879q-12.558-14.73-25.121-29.455a23.135,23.135,0,0,0-3.563-3.59,6.746,6.746,0,0,0-8.639.375,6.933,6.933,0,0,0-1.2,8.59,24.568,24.568,0,0,0,2.6,3.412c11.237,13.2,22.284,26.572,33.85,39.478,3.8,4.244,5.5,8.5,5.031,13.989-.261,3.031-.094,6.1-.119,9.149a10.17,10.17,0,0,1-3.5-2.866q-8.145-9.5-16.278-19.009a26.537,26.537,0,0,0-2.38-2.585c-3.026-2.7-6.8-2.789-9.551-.3-2.605,2.36-2.96,6.018-.808,9.215a33.98,33.98,0,0,0,2.472,3.022c9.325,10.891,18.616,21.813,28.023,32.633a8.727,8.727,0,0,1,2.267,6.346c-.11,5.7-.024,11.409-.025,17.115H440.9q-.171-51.23-.352-102.46c-.009-2.168.1-3.987,2.25-5.367,1.229-.789,2.015-2.354,2.835-3.672q14.99-24.048,29.916-48.136a20.594,20.594,0,0,0,1.83-3.438,6.671,6.671,0,0,0-2.508-8.251A6.814,6.814,0,0,0,466,202.88a25.779,25.779,0,0,0-2.692,3.823q-10.341,16.584-20.656,33.183a21.808,21.808,0,0,1-1.712,2.123,110.387,110.387,0,0,1-.477-16.3,7.357,7.357,0,0,1,1.342-3.525q26.682-40.465,53.418-80.9a9.424,9.424,0,0,1,5.907-4.431A15.365,15.365,0,0,0,511.7,116.562a15.65,15.65,0,1,0-28.737,12.3c.5,1.036,1.091,2.025,1.734,3.208q-21.806,32.97-43.5,65.765l-.991-.267c-.063-22.947-.125-45.894-.186-68,4.595-3.246,8.924-5.58,12.349-8.859,10.211-9.775,15.226-21.711,12.715-35.984-2.665-15.142-16.473-23.962-31.428-20.423-18.676,4.419-32.7,25.071-29.516,44.034,1.888,11.23,8.154,18.976,19.678,21.752a17.622,17.622,0,0,1,2.3.927q.049,31.046.1,61.949l-.862.222q-19.858-29.118-39.623-58.1c.61-1.3,1.1-2.218,1.485-3.178a15.951,15.951,0,0,0-7.657-20.62c-7.1-3.55-14.047-2.713-20.222,2.031-5.775,4.437-8.08,10.625-6.163,17.726C355.062,138.015,360.122,141.881,367.216,142.907Zm50.565-41.94a26.517,26.517,0,0,1,14.483-21.4c10.7-5.71,20.182.356,19.456,12.445-.605,10.082-5.59,17.788-14.531,22.589C426.622,120.275,417.573,114.6,417.781,100.967Zm77.877,134.8c-5.141,2.127-6.445,4.146-6.156,9.537.1,1.951.3,3.9.477,5.842.863,9.6,1.792,19.2,2.543,28.8a9.494,9.494,0,0,1-.862,4.832q-22.5,44.119-45.163,88.161H462.18q19.834-38.635,39.636-77.289a13.105,13.105,0,0,1,5.473-5.786c11.808-6.658,23.531-13.466,35.265-20.255,5.25-3.037,6.161-5.059,5.1-10.872q-.879-4.8-1.779-9.6c-1.356-7.165-2.6-14.357-4.128-21.485-1.221-5.682-5.412-7.921-10.476-5.935q-13.452,5.275-26.9,10.562C501.459,233.428,498.547,234.573,495.658,235.769Zm37.847,23.02-27.374,15.728c-.862-9.39-1.654-18.006-2.475-26.932l25.743-10.2Zm-4.186,85.649c.561-1.95.86-3.181,1.267-4.375,4.067-11.959,8.17-23.906,12.214-35.873a23.383,23.383,0,0,0,1.293-5.283,6.444,6.444,0,0,0-4.506-6.963,6.842,6.842,0,0,0-8.111,3.074,21.437,21.437,0,0,0-1.634,3.957q-7.7,22.552-15.368,45.116c-1.346,3.932-2,8.49-4.485,11.534s-6.85,4.582-10.406,6.755c-1.251.765-2.545,1.46-4.594,2.628.667-2.217,1-3.447,1.405-4.652,2.7-8.024,5.425-16.036,8.1-24.068a20.634,20.634,0,0,0,1.111-4.533,6.64,6.64,0,0,0-4.47-7.037,6.789,6.789,0,0,0-8.126,3.009,22.785,22.785,0,0,0-1.762,4.324q-6.918,20.435-13.762,40.9h31.524Q531,359.723,552.97,346.469c2.25-1.359,4.221-2.256,6.8-.882a8.081,8.081,0,0,0,3.461.386q28.752.541,57.507,1.027a17.409,17.409,0,0,0,4.261-.377,6.632,6.632,0,0,0,5.321-6.782,6.92,6.92,0,0,0-5.8-6.458,28.467,28.467,0,0,0-4.289-.248q-19.558-.423-39.117-.832c-.954-.021-1.9-.195-2.855-.3a128.792,128.792,0,0,1,13.923-8.968,6.676,6.676,0,0,1,3.382-.457c10.033.4,20.064.856,30.1,1.312,22.407,1.017,44.813,2.071,67.222,3.029a8.9,8.9,0,0,1,6.457,2.839A15.592,15.592,0,1,0,719.693,306.2a15.751,15.751,0,0,0-22.468,3.523c-.735,1.05-1.365,2.174-2.171,3.469l-78.989-3.624-.156-.88,59.121-35.529a40.637,40.637,0,0,0,19.738,7.916c12.429,1.326,23.665-1.459,32.673-10.539,9.976-10.055,9.9-25.291.1-35.539-13.4-14.008-38.314-15.489-53.275-3.118-7.66,6.333-12.638,16.841-8.593,28.4.2.58.3,1.2.5,2.054q-26.712,15.888-53.171,31.614c-.075.044-.248-.018-.344-.079a2.151,2.151,0,0,1-.34-.384c.5-1.133.991-2.327,1.536-3.5,8.842-19.016,17.728-38.011,26.486-57.065a5.226,5.226,0,0,1,4.862-3.537A15.567,15.567,0,0,0,659.093,214.8,18.9,18.9,0,0,0,647.5,196.145a16.61,16.61,0,0,0-20.809,24.191c.725,1.218,1.568,2.366,2.435,3.664-2.194,4.751-4.364,9.473-6.553,14.186q-15.558,33.489-31.163,66.956a8.6,8.6,0,0,1-2.767,3.61c-5.392,3.408-10.935,6.579-16.438,9.81-.122.072-.42-.156-.839-.327.316-.943.608-1.911.96-2.857q6.483-17.389,12.966-34.778a17.418,17.418,0,0,0,1.134-4.116,6.781,6.781,0,0,0-12.492-4.391,20.284,20.284,0,0,0-1.764,3.9Q564,297.752,555.856,319.527c-1.463,3.892-2.258,8.4-4.793,11.424s-6.858,4.588-10.422,6.748C537.1,339.843,533.534,341.932,529.319,344.438Zm153.23-101.215c4.809-4.309,10.634-5.82,18.146-5.736a25.492,25.492,0,0,1,10.881,2.776,17.609,17.609,0,0,1,7.249,6.346c3.035,4.766,2.818,9.924-1.235,13.893a23.661,23.661,0,0,1-7.694,5.119,26.37,26.37,0,0,1-22.99-1.475,21.134,21.134,0,0,1-4.964-3.725C676.771,255.131,677.033,248.167,682.549,243.223ZM321.037,273.73c.579.3,1.178.557,1.765.838,9.637,4.615,19.26,9.259,28.92,13.824a10.26,10.26,0,0,1,4.844,4.252c2.676,4.619,5.636,9.074,8.473,13.6q20.894,33.346,41.777,66.7h16.468q-26.546-42.356-53.11-84.7a10.716,10.716,0,0,1-1.685-6.237q.4-20.908.609-41.821c.063-5.462-1.287-7.427-6.45-9.362-7.2-2.7-14.421-5.315-21.641-7.947-3.181-1.159-6.333-2.437-9.583-3.359-4.561-1.295-8.383,1.265-9.182,5.914q-1.916,11.149-3.785,22.308c-.9,5.4-1.809,10.792-2.588,16.206C315.138,269.028,316.446,271.376,321.037,273.73Zm13.612-38.355,20.217,7.345c-.087,10.345-.172,20.56-.264,31.662l-24.37-11.637C331.7,253.663,333.137,244.744,334.649,235.375ZM162.668,281.824c10.863,5.06,22.068,3.015,30.471-5.554.348-.355.756-.653,1.315-1.131l53.524,31.814q-.131.465-.262.932l-70.25,4.031c-.952-1.331-1.591-2.313-2.317-3.224a16.043,16.043,0,0,0-21.407-3.7,18.086,18.086,0,0,0-8.815,15.292c-.427,10.421,7.912,19.625,19.264,17.757,5.955-.979,10.145-4.535,12.768-9.881.748-1.524,1.441-2.488,3.39-2.572,7.161-.307,14.312-.866,21.47-1.268,21.868-1.229,43.739-2.393,65.6-3.692a10.018,10.018,0,0,1,6.261,1.527c4.311,2.689,8.726,5.211,13.082,7.829.805.484,1.534,1.1,2.79,2.007-1.929.335-3.2.6-4.476.771-12.645,1.736-25.3,3.43-37.938,5.2-4.61.645-7.2,3.9-6.592,8.042.558,3.793,4.117,6.235,8.427,5.665,7.361-.974,14.71-2.028,22.067-3.029,11.875-1.615,23.755-3.188,35.623-4.848a7.333,7.333,0,0,1,5.178,1.031c5.776,3.54,11.64,6.939,17.455,10.417a14.976,14.976,0,0,1,1.687,1.376c-.448.342-.622.583-.83.617q-20.616,3.445-41.233,6.876a19.246,19.246,0,0,0-4.511,1.174,6.664,6.664,0,0,0-3.915,7.359c.019.1.06.2.084.305h40.183c7.831-1.307,15.657-2.639,23.469-4.053,4.376-.792,8.036-.65,11.691,2.046.961.709,1.973,1.363,3.01,2.007h27.361q-32.01-19.01-64.047-37.975c-2.277-1.346-3.964-2.683-4.007-5.587a8.226,8.226,0,0,0-1.305-3.225q-13.206-25.721-26.457-51.418a15.763,15.763,0,0,0-2.125-3.257,6.756,6.756,0,0,0-11.571,6.367,25.106,25.106,0,0,0,1.9,4.273q9.095,17.73,18.215,35.448a26.581,26.581,0,0,1,1.012,2.877c-5.338-3.169-10.072-5.9-14.707-8.8a6.463,6.463,0,0,1-2.112-2.663q-21.234-44.19-42.413-88.408a7.551,7.551,0,0,1-.509-6.221,15.581,15.581,0,1,0-30.346-6.645c-1.351,8.681,5.282,16.864,14.284,17.614,1.15.1,2.3.157,3.6.244q17.134,35.752,34.191,71.339l-.69.559-58.625-34.816c-.5-5.885-.262-11.216-1.508-16.174-3.52-14-11.645-24.39-25.812-28.963-13.621-4.4-27.32,2.814-31.829,16.379C135.457,251.892,145.087,273.634,162.668,281.824Zm-6.291-46.719a10.525,10.525,0,0,1,11.482-4.687,21.627,21.627,0,0,1,5.42,2.1c9.289,5.211,14.814,17.642,12.589,28.056-1.194,5.586-4.938,9.662-10.056,9.9a17.94,17.94,0,0,1-8.193-1.8c-8.345-3.972-14.15-14.225-14.012-24.972A15.946,15.946,0,0,1,156.377,235.105Z"/><path class="cls-1" d="M364.651,515.747a26.815,26.815,0,0,1,1.279-4.1q2.993-8.1,6.014-16.19H386.87q-3.916,10.563-7.851,21.119a24.8,24.8,0,0,1-1.686,3.942,6.874,6.874,0,0,1-8.427,3.1A6.773,6.773,0,0,1,364.651,515.747ZM522.418,719.191c-.231,8.188-6.478,15.2-14.909,16.725-10.607,1.924-19.958-4.64-20.983-14.738-.384-3.783.819-7.2,2.788-10.876q-19.459-29.085-39.1-58.433l-.657.255q-.258,30.923-.517,61.923a18.032,18.032,0,0,0,2.318.873c9.895,2.181,17.906,10.317,19.512,22.761,2.439,18.9-11.895,39.1-30.464,43.085-15.685,3.366-29.655-6.949-31.282-23.1-1.614-16.016,7.395-32.335,22.328-39.815,2.772-1.389,3.685-2.889,3.677-5.9-.052-20.2.092-40.392.158-60.588,0-1.246-.113-2.492-.174-3.738l-.916-.205-43.743,64.9c.557,1.131,1.077,2.149,1.566,3.183a15.667,15.667,0,1,1-28.874,12A15.462,15.462,0,0,1,374.1,707.378a8.061,8.061,0,0,0,5.254-3.483q27.332-40.749,54.8-81.4a5.874,5.874,0,0,0,1.213-2.789A120.6,120.6,0,0,0,434.9,603.1c-.653.851-1.375,1.659-1.948,2.561q-10.178,16-20.323,32.016a28.647,28.647,0,0,1-2.944,4.124,6.734,6.734,0,0,1-8.873,1.183,6.647,6.647,0,0,1-2.492-8.257,20.117,20.117,0,0,1,1.846-3.429q15.142-23.96,30.324-47.893c.7-1.1,1.28-2.523,2.308-3.105,3.1-1.754,2.939-4.516,2.95-7.411q.149-38.713.341-77.426H452.24c.027.031.048.063.074.094,9.313,10.9,18.515,21.9,27.739,32.876a26.407,26.407,0,0,1,2.827,3.726,6.72,6.72,0,0,1-1.338,8.542,6.58,6.58,0,0,1-8.627.327,18.751,18.751,0,0,1-3.033-3.02c-5.477-6.464-10.913-12.963-16.374-19.441-.821-.975-1.7-1.9-2.967-3.32a22.217,22.217,0,0,0-.507,2.967c-.062,3.908.042,7.821-.118,11.725a7.265,7.265,0,0,0,2,5.27q18.14,21.533,36.187,43.142a35.138,35.138,0,0,1,2.2,2.741c2.294,3.374,1.965,7.138-.772,9.55-2.841,2.5-6.8,2.248-9.859-.7A37.165,37.165,0,0,1,477.105,587q-11.933-14.236-23.855-28.478c-.826-.985-1.686-1.94-2.931-3.367a21.724,21.724,0,0,0-.491,2.934c-.066,6.514-.011,13.031-.162,19.543a8.247,8.247,0,0,0,2.075,5.647q17.272,21.735,34.4,43.586a20.154,20.154,0,0,1,2.39,3.551,6.807,6.807,0,0,1-10.313,8.359,17.953,17.953,0,0,1-2.912-3.131q-11.292-14.251-22.544-28.534c-.759-.96-1.615-1.843-2.967-3.373-.131,1.738-.244,2.592-.252,3.447-.048,5.212-.014,10.425-.134,15.635a8.4,8.4,0,0,0,1.562,5.094q24.186,36.033,48.271,72.134a4.463,4.463,0,0,0,4.8,2.33,15.782,15.782,0,0,1,5.045.34C517.267,704.464,522.644,711.174,522.418,719.191Zm-84.292,10.874c-9.228,4.437-15.761,15.187-15.145,24.923.621,9.823,7.861,14.619,17.133,11.345a12.671,12.671,0,0,0,1.8-.737c9.338-5.029,14.2-12.957,15.119-21.748C457.193,730.627,448.515,725.07,438.126,730.065ZM560.338,581.891c-1.533,9.383-3.145,18.754-4.752,28.125-.593,3.458-1.256,6.9-1.906,10.353-.919,4.878-4.735,7.364-9.525,5.9-3.983-1.216-7.859-2.789-11.765-4.249-6.471-2.42-12.946-4.831-19.386-7.331-4.781-1.856-6.266-4.051-6.156-9.221q.445-21.1,1.047-42.2a10.122,10.122,0,0,0-1.6-5.873q-19.071-30.951-38.093-61.933h16.451q17.925,29.177,35.9,58.324a9.474,9.474,0,0,0,3.75,3.162c9.673,4.847,19.412,9.561,29.13,14.318.7.344,1.418.662,2.106,1.033C559.8,574.59,561.121,577.1,560.338,581.891Zm-14.4,1.24c-7.989-3.907-15.669-7.661-23.632-11.554a6.254,6.254,0,0,0-.54,1.3c-.29,9.235-.534,18.471-.868,27.7-.064,1.784.808,2.54,2.313,3.09,5.136,1.875,10.242,3.832,15.373,5.722a23.792,23.792,0,0,0,2.766.636C542.907,600.918,544.409,592.118,545.942,583.131Zm194.015,28.627c-4.491,14.154-18.562,21.512-32.65,16.674-13.748-4.721-21.493-15.034-25.234-28.669a39.543,39.543,0,0,1-.675-15.939L622.308,548.5l-.527.519c.408,1.034.757,2.1,1.233,3.1q15.448,32.469,30.885,64.942c1.1,2.329,2.317,3.453,5.168,3.623a15.33,15.33,0,0,1,14.23,17.569,15.507,15.507,0,0,1-18.021,13.283c-9.208-1.724-15.017-10.232-12.524-19.13a11.106,11.106,0,0,0-.93-8.466q-20.73-43.372-41.389-86.778a7.3,7.3,0,0,0-2.289-3.01c-4.5-2.866-9.118-5.532-14.513-8.761.594,1.631.82,2.528,1.229,3.332q8.777,17.241,17.594,34.463a34.941,34.941,0,0,1,1.823,3.888c1.325,3.652.121,7.058-2.989,8.76-3.22,1.761-6.892.751-9.213-2.58a20.241,20.241,0,0,1-1.344-2.378q-13.008-25.4-25.986-50.806c-.7-1.382-1.628-2.877-1.651-4.332-.041-2.566-1.543-3.578-3.415-4.695q-13.048-7.783-26.089-15.581h27.142c3.261,1.954,6.535,3.887,9.841,5.761a7.651,7.651,0,0,0,4.466.631c16-2.071,31.993-4.24,47.985-6.392h15.253a6.613,6.613,0,0,1,2.815,4.628c.554,3.937-2.24,7.247-6.875,7.887-12.655,1.748-25.321,3.416-37.982,5.124-1.132.153-2.257.37-3.362.553.035.481-.034.849.08.919,5.45,3.326,10.864,6.719,16.422,9.857a8.768,8.768,0,0,0,4.513.676q21.882-1.072,43.754-2.3,21.483-1.185,42.963-2.443c.776-.045,1.551-.121,2.564-.2.514-.943,1.058-1.95,1.611-2.951,4.356-7.879,13.1-11.4,20.928-8.419,7.905,3.009,12.321,11.812,10.327,20.457a18.535,18.535,0,0,1-7.267,11.227,16.1,16.1,0,0,1-22.655-3.23c-.712-.917-1.365-1.881-2.22-3.066l-70.03,3.856-.273.948,53.25,31.851c.671-.594,1.257-1.067,1.791-1.592,7.941-7.807,18.5-9.838,28.886-5.546C735.36,571.069,745.783,593.393,739.957,611.758Zm-12.131-9.395c-.877-11.6-4.932-20.1-14.459-25.1-8.475-4.45-16.417-.313-18.078,9.076-1.766,9.983,3.42,21.607,12.11,26.891a20.479,20.479,0,0,0,4.989,2.151c5.611,1.594,10.536-.417,13.075-5.639A45.972,45.972,0,0,0,727.826,602.363ZM321.589,514.058a8.762,8.762,0,0,0-4.225,4.806q-10.291,25.558-20.768,51.043a23.621,23.621,0,0,1-1.822,3.88A6.838,6.838,0,0,1,282.21,568.9a18.891,18.891,0,0,1,1.207-3.7q6.828-16.842,13.694-33.668c.469-1.155.849-2.346,1.5-4.174-1.546.7-2.47,1.047-3.323,1.52-4.447,2.466-8.853,5-13.322,7.429a8.473,8.473,0,0,0-3.749,3.8q-19.661,39.334-39.386,78.635c-.287.573-.493,1.187-.762,1.843.781,1.258,1.586,2.436,2.27,3.68,4.151,7.543,2.551,16.55-3.8,21.576-6.275,4.961-15.737,4.631-22.047-.745a19.131,19.131,0,0,1-6.305-9.671c-2.757-10.1,3.375-19.586,13.763-20.805a5.852,5.852,0,0,0,5.2-3.749c9.212-18.555,18.539-37.053,27.826-55.571a14.2,14.2,0,0,0,1.461-4.072c-18.233,9.613-36.059,19.722-54.1,29.835a22.122,22.122,0,0,0,.358,2.684c2.961,11.436-.816,20.633-9.83,27.647-15.056,11.715-39.163,9.7-52.319-4.062-10.533-11.021-10.066-27.153,1.458-37.171,10.835-9.421,23.542-10.974,37.114-7.576a40.711,40.711,0,0,1,14.431,7.365l59.791-33.573-.226-.895c-3.175-.3-6.345-.658-9.523-.9-21.718-1.629-43.439-3.2-65.152-4.89-2.543-.2-4.134.112-5.745,2.575a15.619,15.619,0,1,1-1.467-19.247c1.96,2.173,4.12,2.462,6.557,2.65q24.573,1.9,49.152,3.742c15.475,1.17,30.953,2.291,46.42,3.539a10.628,10.628,0,0,0,6.674-1.509c3.88-2.333,7.861-4.5,12.608-7.187a32.78,32.78,0,0,0-3.346-.6c-13.156-.647-26.314-1.255-39.469-1.911a20.762,20.762,0,0,1-4.627-.627,6.746,6.746,0,0,1,.691-13.188,17.041,17.041,0,0,1,3.894-.145q29.117,1.357,58.231,2.769a5.829,5.829,0,0,1,2.684.364c2.845,1.822,5.092.452,7.543-.928q4.029-2.268,8.059-4.53h33.04a23.22,23.22,0,0,0-1.208,2.8c-6.054,16.926-12.48,33.719-18.793,50.551a18.286,18.286,0,0,1-1.835,3.866,6.9,6.9,0,0,1-8.321,2.491,6.781,6.781,0,0,1-4.1-7.278,22.865,22.865,0,0,1,1.331-4.479q6.6-17.768,13.252-35.518c.446-1.2.839-2.414,1.473-4.246a24.191,24.191,0,0,0-2.813,1.073C332.741,507.827,327.219,511.042,321.589,514.058Zm-134.6,69.447a21.538,21.538,0,0,0-4.919-4.388A24.681,24.681,0,0,0,168,575.012c-6.173-.034-11.919,1.288-16.634,5.564-4.912,4.455-5.534,9.943-1.883,15.41a17.537,17.537,0,0,0,7.049,6.021,28.225,28.225,0,0,0,19.027,2.276,20.8,20.8,0,0,0,10.29-5.3C190.464,594.5,190.979,588.546,186.987,583.505Zm176.342,32.284q-13.787,4.956-27.582,9.886c-5.256,1.886-9.4-.6-10.46-6.538-1.171-6.538-2.119-13.116-3.154-19.678q-.913-5.79-1.791-11.586c-.8-5.355.275-7.629,5.047-10.206q18.411-9.942,36.886-19.764a10.74,10.74,0,0,0,4.621-4.529q15.913-28.973,31.883-57.913H414.8q-11.664,21.137-23.33,42.273c-4.655,8.443-9.227,16.934-13.975,25.325a10.078,10.078,0,0,0-1.363,5.93c.68,10.27,1.276,20.546,1.9,30.819.087,1.43.186,2.861.233,4.293a7.775,7.775,0,0,1-5.392,8.174C369.706,613.487,366.519,614.642,363.329,615.789Zm.555-17.544c-.458-7.136-.87-14.274-1.337-21.409a22,22,0,0,0-.637-2.9l-27.328,14.644c1.323,7.353,2.034,14.262,3.629,21.384,8.364-3.024,16.167-5.872,23.994-8.654C363.785,600.749,363.975,599.66,363.884,598.245Z"/><path class="cls-2" d="M274.738,165.741a8.359,8.359,0,1,1-8.359-8.359A8.359,8.359,0,0,1,274.738,165.741ZM354.9,182.369a8.359,8.359,0,1,0,8.359,8.359A8.359,8.359,0,0,0,354.9,182.369Zm194.751-66.782a8.359,8.359,0,1,0,8.359,8.359A8.36,8.36,0,0,0,549.653,115.587Zm23.22,91.948a8.359,8.359,0,1,0,8.358,8.359A8.359,8.359,0,0,0,572.873,207.535Zm94.432,131.4a8.359,8.359,0,1,0,8.359,8.359A8.359,8.359,0,0,0,667.305,338.933Zm-92.1,255.784a8.359,8.359,0,1,0,8.359,8.359A8.359,8.359,0,0,0,575.206,594.717Zm-65.571,60.215a8.359,8.359,0,1,0,8.359,8.359A8.358,8.358,0,0,0,509.635,654.932ZM586.8,675.458a8.359,8.359,0,1,0,8.359,8.359A8.36,8.36,0,0,0,586.8,675.458ZM366.4,639.852a8.359,8.359,0,1,0,8.359,8.359A8.358,8.358,0,0,0,366.4,639.852Zm-96.558-33.379a8.359,8.359,0,1,0,8.359,8.359A8.358,8.358,0,0,0,269.838,606.473Zm26.775,79.287a8.359,8.359,0,1,0,8.359,8.359A8.36,8.36,0,0,0,296.613,685.76ZM191.149,331.99a8.359,8.359,0,1,0,8.359,8.359A8.359,8.359,0,0,0,191.149,331.99Z"/><path class="cls-2" d="M799.509,372.988H75.062a5,5,0,0,1,0-10H799.509a5,5,0,0,1,0,10Zm5,125.356a5,5,0,0,0-5-5H75.062a5,5,0,1,0,0,10H799.509A5,5,0,0,0,804.509,498.344Z"/></svg>