<svg id="Layer_1" data-name="Layer 1" xmlns="http://www.w3.org/2000/svg" viewBox="0 0 864 864"><defs><style>.cls-1{fill:#7d1113;}.cls-2{fill:#fff;}.cls-3{fill:#607848;}.cls-4{fill:#9e1e22;}</style></defs><path class="cls-1" d="M42.118,410.646c0,211.184,171.2,382.383,382.383,382.383s382.383-171.2,382.383-382.383q0-11.187-.642-22.217H42.76Q42.129,399.458,42.118,410.646Z"/><path class="cls-1" d="M278.85,396.093a19.415,19.415,0,0,1-9.525-.4,16.609,16.609,0,0,1-3.967-1.587,6.961,6.961,0,0,0-1.985-1.587,41.673,41.673,0,0,1-3.968,1.587,12.685,12.685,0,0,1-5.556,1.19c-2.381-.4-4.365-.793-6.349-2.381a6,6,0,0,1-2.778-5.556A5.959,5.959,0,0,0,249.484,383c.794-1.984,1.19-3.969,1.984-5.953a64.263,64.263,0,0,0,.4-8.73c.4-37.7.4-75.8.4-113.893v-1.587h-.4a29.126,29.126,0,0,0-1.587,5.556c-1.191,3.571-2.382,7.54-3.572,11.508a74.016,74.016,0,0,0-2.778,8.73q-1.785,5.954-3.571,11.905a29.628,29.628,0,0,0-1.984,6.351c-1.588,4.761-3.176,9.523-4.366,14.285a74.031,74.031,0,0,0-2.778,8.731c-1.985,5.952-3.572,11.508-5.159,17.063a61.442,61.442,0,0,0-2.778,9.128q-1.785,5.358-3.571,10.715c0,.4-.4.793-.4,1.19a9.937,9.937,0,0,0-1.587-2.777c-1.587-5.16-3.572-9.922-5.556-14.683-2.382-5.556-4.762-11.112-6.746-16.667-1.985-4.763-3.969-9.922-5.953-14.684-2.778-5.952-5.159-12.3-7.539-18.254-1.985-4.365-3.573-8.731-5.556-13.1-1.985-5.159-4.366-10.714-6.35-16.27a11.881,11.881,0,0,0-1.588-3.175c0-.4-.4-.794-.793-1.191v1.191c.4,5.953.4,11.905.4,17.858.4,5.555.794,11.507.794,17.063v6.35c.4,3.968.4,7.937.4,11.9.4,4.763.4,9.525.4,14.286.4,4.762.4,9.524.794,14.286v8.731c.4,3.968.4,8.334.4,12.3a48.127,48.127,0,0,1,.4,7.54c.4,4.762,1.191,9.127,3.572,13.493a51.8,51.8,0,0,0,3.968,5.952,12.188,12.188,0,0,0,5.953,3.968c.4,0,.4.4.794.4a6.308,6.308,0,0,1-3.969,3.174c-4.365.793-8.333.4-11.9-2.381-.4-.4-.793-.4-1.191-.793-3.571,2.777-7.142,2.777-11.508,2.38a7.742,7.742,0,0,1-5.159-4.762,1.456,1.456,0,0,1-.4-1.19,1.39,1.39,0,0,0,.8-.4,10.175,10.175,0,0,0,7.142-4.762,25.388,25.388,0,0,0,3.175-7.54V350.456c0-7.54,0-14.682-.4-21.826V314.344c0-5.953-.4-11.9-.4-17.858,0-7.54,0-14.683-.4-22.223,0-5.555-.4-11.111-.4-17.064,0-3.968,0-8.334-.4-12.7a30.033,30.033,0,0,0-.4-5.953c0-.4,0-.793-.794-1.189a9.452,9.452,0,0,0-4.365-2.382,1.458,1.458,0,0,1-1.19-.4,6.989,6.989,0,0,1,3.571-5.16,11.262,11.262,0,0,1,5.159-1.587,21.362,21.362,0,0,1,8.73,1.587,5.049,5.049,0,0,0,2.382-.4c1.983-1.588,4.365-1.984,6.745-2.382a20.914,20.914,0,0,1,5.16.4,6.143,6.143,0,0,1,4.365,3.174c-.4,0-.4.4-.794.4a18.327,18.327,0,0,0-5.953,3.572c-.793.793-.793,1.19-.4,2.38,1.984,5.16,3.968,9.922,5.952,15.08,2.778,6.349,5.159,12.3,7.54,18.652,1.984,4.365,3.571,8.731,5.16,13.095,2.777,6.35,5.158,12.7,7.54,18.652a19.43,19.43,0,0,1,1.587,4.365.389.389,0,0,1,.4.4.389.389,0,0,0,.4-.4,134.147,134.147,0,0,0,4.365-13.492c1.984-4.762,3.571-9.922,5.16-15.08a68.529,68.529,0,0,0,2.777-8.334q1.785-5.356,3.572-10.714a74.031,74.031,0,0,0,2.778-8.731c1.19-3.175,2.38-6.746,3.571-10.318a7.35,7.35,0,0,0,.794-2.778,1.206,1.206,0,0,0,0-1.587q-1.191-1.189-2.381-2.381c0-.4-.4-.794,0-1.19a9,9,0,0,1,6.747-6.747,11.33,11.33,0,0,1,6.349.4c1.984,0,3.571.794,5.555,1.19,1.985-.793,3.572-1.587,5.556-2.38a14.4,14.4,0,0,1,9.127-.4c3.572.793,5.556,2.777,6.747,6.349v1.191c-1.191.4-1.985.793-3.175,1.19a3.861,3.861,0,0,0-2.381,1.985,51.851,51.851,0,0,0-3.571,11.111,14.836,14.836,0,0,0-.4,4.365v71.035c0,8.333,0,17.063.4,25.4v10.318c0,5.953.4,12.3.4,18.254a12.632,12.632,0,0,0,.793,5.557,3.431,3.431,0,0,0,1.191,2.38,22.653,22.653,0,0,0,8.334,5.159c.4,0,.793.4,1.191.4A8.369,8.369,0,0,1,278.85,396.093Zm24.606-14.683a5.493,5.493,0,0,0,1.983-3.572c.4-4.761.4-9.524.4-13.89V317.916a5.621,5.621,0,0,0-2.38-.794,19.917,19.917,0,0,0-4.763-.793,5.59,5.59,0,0,0-5.159,3.967,9.889,9.889,0,0,1-1.587,2.778c-1.191,1.191-1.984,1.191-2.778-.4a4.512,4.512,0,0,1-1.191-3.175,29.934,29.934,0,0,1,.4-5.952c.4-3.573,1.587-7.144,4.365-9.525,1.984-1.587,3.968-1.984,6.349-2.381a30.816,30.816,0,0,1,6.349.794c.4-.4.4-.4.4-.794V250.056q-.6-2.381-1.191-4.762a6.328,6.328,0,0,0-2.777-3.571,15.863,15.863,0,0,0-7.143-3.969h-.4c-.4-1.587.4-2.778,1.19-3.969a8.533,8.533,0,0,1,5.953-3.967c5.556-.4,10.318.793,14.286,3.967a1.385,1.385,0,0,1,.794.4c1.984-.4,3.572-1.191,5.556-1.588,1.587-.4,3.572-.793,5.556-1.19h43.652a64.7,64.7,0,0,1,8.73-.794h2.778c1.191,0,1.984.4,1.984,1.984v4.365s-.4.4-.793.794a55.079,55.079,0,0,0-14.683,17.064,22.511,22.511,0,0,0-2.778,8.73,7.846,7.846,0,0,0,5.556,9.128c.793,0,1.587.4,2.38.4h.794v-1.191c-.4-4.365,2.778-7.143,6.746-7.539a4.078,4.078,0,0,1,4.762,2.778c1.191,2.777,1.985,5.952,1.191,8.729a11.215,11.215,0,0,1-5.555,7.143,9.015,9.015,0,0,1-8.334,1.985,12.3,12.3,0,0,1-5.159-2.381,22.8,22.8,0,0,1-7.541-8.731,24.81,24.81,0,0,1-1.587-11.9c.4-1.984.794-4.365,1.191-5.952a44.636,44.636,0,0,1,5.159-10.715c.4-.794,1.19-1.984,1.587-2.778l-.794-.793q-2.976-.6-5.952-1.191c-3.571,0-7.144-.4-10.715-.4a48.219,48.219,0,0,0-10.714,0,18.859,18.859,0,0,0-9.525,2.38,7.63,7.63,0,0,0-4.364,5.953,49.873,49.873,0,0,0-1.985,13.1c.4,11.508,0,23.016,0,34.524v10.318a25.458,25.458,0,0,1,2.778.793c4.365,1.588,8.73,3.176,13.492,4.763a33.836,33.836,0,0,0,9.128,1.588,11.423,11.423,0,0,0,8.334-3.573,8.625,8.625,0,0,1,1.19-1.983,3.256,3.256,0,0,1,1.984-1.984,3.6,3.6,0,0,1,1.191,2.777c-.794,3.968-1.587,7.541-3.969,10.715a12.712,12.712,0,0,1-9.127,6.349,14.877,14.877,0,0,1-8.334,0c-4.762-.794-9.127-2.381-13.889-3.968h-.793c-.794-.4-1.588,0-1.985,1.19v29.367c0,7.54,0,15.476.4,23.016a11,11,0,0,0,1.19,5.16,5.051,5.051,0,0,0,3.572,2.777,5.882,5.882,0,0,0,2.778.4h5.555c3.175,0,6.351.4,9.922.4,5.158-.4,10.318-.4,15.079-.794,8.334-.794,15.08-4.762,19.446-12.3l2.381-4.762a4.2,4.2,0,0,1,2.777-2.382,2.185,2.185,0,0,1,1.985,1.191c.4.4.4.794.793,1.587.794,2.382.4,4.762,0,7.144a26.2,26.2,0,0,1-1.984,5.952c-1.191,1.984-1.587,3.572-.4,5.556a2.392,2.392,0,0,1,.4,1.588c0,1.19.4,2.778,0,3.967a1.875,1.875,0,0,1-1.984,1.985h-1.985a101.088,101.088,0,0,0-15.476-.794H315.757a13.507,13.507,0,0,0-5.556.794,14.751,14.751,0,0,1-8.333.4,8.928,8.928,0,0,1-6.746-7.143,1.231,1.231,0,0,1,.4-.794A21.374,21.374,0,0,0,303.456,381.41Zm90.083-148.021c1.19-2.778,3.572-3.969,6.35-4.365,3.968-.794,7.936.4,11.9,1.983a5.018,5.018,0,0,0,2.381.4c2.381-.794,4.365-1.587,6.349-2.381a49.971,49.971,0,0,1,11.112-1.984,62.73,62.73,0,0,1,12.3-.4q3.571.6,7.144,1.191c10.317,1.587,19.445,5.556,26.588,13.1A33.439,33.439,0,0,1,486,254.818c.8,2.381.8,4.763,1.191,7.143a64.439,64.439,0,0,1-.4,8.731,39.361,39.361,0,0,1-3.572,9.523,41.111,41.111,0,0,1-16.668,16.271,122.021,122.021,0,0,1-12.3,6.747,29.669,29.669,0,0,1-4.763,2.778h-.4a8.627,8.627,0,0,0,1.984,1.189c2.382,1.985,4.366,3.969,6.745,6.351,2.382,2.778,4.763,5.555,7.144,8.73a39.244,39.244,0,0,1,5.952,13.095c.795,3.969,1.588,7.938,2.779,11.905a46.832,46.832,0,0,0,1.586,7.938c.8,4.364,1.191,8.729,2.382,13.1a113.334,113.334,0,0,0,2.779,11.112,39.944,39.944,0,0,0,4.761,9.127,14.37,14.37,0,0,0,9.128,5.953,5.889,5.889,0,0,1,2.777.4l2.381,1.191c-.4,1.191-1.588,1.984-2.779,2.778a32.609,32.609,0,0,1-10.714.793,31.552,31.552,0,0,1-9.92-4.365c-6.351-3.968-10.716-9.921-13.493-17.064a56.53,56.53,0,0,1-1.984-8.731,61.626,61.626,0,0,1-1.984-9.127c-.4-2.381-.795-4.365-1.191-6.745a81.132,81.132,0,0,1-1.983-9.525c-.4-1.984-.8-4.366-1.191-6.349-1.588-6.35-3.572-12.7-7.144-18.255a30.039,30.039,0,0,0-7.54-8.334c-.4-.4-.793-.4-1.587,0a37.956,37.956,0,0,0-9.127,10.318,27.449,27.449,0,0,0-3.969,7.54,25.894,25.894,0,0,0-.793,9.524c.793,3.175,1.587,5.952,3.968,8.334.4.4.794.4,1.19.794.4-.4.794-1.191,1.191-1.588,2.381-3.572,6.747-3.175,9.524-1.588a4.885,4.885,0,0,1,1.984,3.969c-.395,3.969-1.984,7.54-5.158,9.524a11.541,11.541,0,0,1-8.731,1.985c-.794,0-1.588-.4-2.381-.4-.794-.4-1.587-.4-2.381-.793v1.191c-.4,2.38-.4,4.762-.793,7.143a56,56,0,0,0,.4,7.936,21.046,21.046,0,0,0,2.778,11.112,17.007,17.007,0,0,0,5.556,6.35c.793.4,1.587.4,2.381.793a5.866,5.866,0,0,1-4.366,3.174c-3.967,1.588-7.936.8-11.905-.793a12.051,12.051,0,0,1-2.778-1.985,22.057,22.057,0,0,1-8.333,2.382h-4.762c-3.572-.794-5.952-3.175-6.747-7.143v-.4c1.191-.794,2.382-1.191,3.573-1.984a10.712,10.712,0,0,0,4.365-5.952,28.859,28.859,0,0,0,1.587-9.922V256.009a48.007,48.007,0,0,0-.4-7.54,11.739,11.739,0,0,0-.794-3.969,6.39,6.39,0,0,0-1.587-2.777c-2.381-2.382-5.159-3.572-7.937-4.763h-.793l-.4-.4A4.508,4.508,0,0,1,393.539,233.389Zm28.97,88.1c0-.4.4-.4.4-.794,3.175-5.555,7.54-9.92,12.3-14.286a43.411,43.411,0,0,1,6.746-5.159c5.159-4.364,10.319-8.73,15.08-13.095a42.278,42.278,0,0,0,10.319-13.493,23.578,23.578,0,0,0,1.984-15.477,46.536,46.536,0,0,0-2.382-7.936,32.624,32.624,0,0,0-6.349-9.922,21.361,21.361,0,0,0-15.477-6.745,34.48,34.48,0,0,0-9.126.4,19.561,19.561,0,0,0-9.128,4.365,25.662,25.662,0,0,0-3.175,3.572,15.416,15.416,0,0,0-.794,5.952c-.4,5.953-.4,11.9-.4,17.461v46.827c0,.4-.4.794-.4,1.191v6.747Zm69.444-88.1c1.191-2.778,3.573-3.969,6.35-4.365,3.967-.794,7.937.4,11.905,1.983a5.02,5.02,0,0,0,2.381.4c2.382-.794,4.366-1.587,6.349-2.381a49.981,49.981,0,0,1,11.112-1.984,62.73,62.73,0,0,1,12.3-.4l7.145,1.191c10.316,1.587,19.445,5.556,26.587,13.1a33.428,33.428,0,0,1,8.333,13.889c.795,2.381.795,4.763,1.191,7.143a64.439,64.439,0,0,1-.4,8.731,39.361,39.361,0,0,1-3.572,9.523,41.111,41.111,0,0,1-16.668,16.271,122.021,122.021,0,0,1-12.3,6.747,29.626,29.626,0,0,1-4.763,2.778h-.4A8.583,8.583,0,0,0,549.5,307.2c2.381,1.985,4.365,3.969,6.744,6.351,2.382,2.778,4.763,5.555,7.145,8.73a39.222,39.222,0,0,1,5.951,13.095c.795,3.969,1.589,7.938,2.779,11.905a46.732,46.732,0,0,0,1.587,7.938c.795,4.364,1.19,8.729,2.381,13.1a113.334,113.334,0,0,0,2.779,11.112,39.944,39.944,0,0,0,4.761,9.127,14.37,14.37,0,0,0,9.128,5.953,5.889,5.889,0,0,1,2.777.4l2.382,1.191c-.4,1.191-1.589,1.984-2.779,2.778a32.617,32.617,0,0,1-10.715.793A31.536,31.536,0,0,1,574.5,395.3c-6.351-3.968-10.717-9.921-13.494-17.064a56.53,56.53,0,0,1-1.984-8.731,61.626,61.626,0,0,1-1.984-9.127c-.4-2.381-.795-4.365-1.19-6.745a81.137,81.137,0,0,1-1.984-9.525c-.4-1.984-.795-4.366-1.191-6.349-1.588-6.35-3.572-12.7-7.144-18.255a30.023,30.023,0,0,0-7.54-8.334c-.4-.4-.793-.4-1.586,0a37.963,37.963,0,0,0-9.129,10.318,27.47,27.47,0,0,0-3.967,7.54,25.872,25.872,0,0,0-.793,9.524c.793,3.175,1.586,5.952,3.967,8.334.4.4.793.4,1.191.794.4-.4.793-1.191,1.191-1.588,2.381-3.572,6.746-3.175,9.524-1.588a4.887,4.887,0,0,1,1.983,3.969c-.395,3.969-1.983,7.54-5.158,9.524a11.541,11.541,0,0,1-8.731,1.985c-.793,0-1.588-.4-2.381-.4-.793-.4-1.586-.4-2.382-.793v1.191c-.395,2.38-.395,4.762-.793,7.143a55.726,55.726,0,0,0,.4,7.936,21.046,21.046,0,0,0,2.777,11.112,17,17,0,0,0,5.556,6.35c.793.4,1.588.4,2.381.793a5.864,5.864,0,0,1-4.365,3.174c-3.968,1.588-7.937.8-11.9-.793a12.077,12.077,0,0,1-2.779-1.985,22.052,22.052,0,0,1-8.333,2.382h-4.761c-3.572-.794-5.954-3.175-6.747-7.143v-.4c1.191-.794,2.382-1.191,3.572-1.984a10.718,10.718,0,0,0,4.366-5.952,28.906,28.906,0,0,0,1.586-9.922V256.009a47.888,47.888,0,0,0-.4-7.54,11.716,11.716,0,0,0-.793-3.969,6.378,6.378,0,0,0-1.586-2.777c-2.382-2.382-5.161-3.572-7.938-4.763h-.793l-.4-.4A4.508,4.508,0,0,1,491.953,233.389Zm28.969,88.1c0-.4.4-.4.4-.794,3.174-5.555,7.54-9.92,12.3-14.286a43.411,43.411,0,0,1,6.746-5.159c5.159-4.364,10.319-8.73,15.08-13.095a42.264,42.264,0,0,0,10.319-13.493,23.566,23.566,0,0,0,1.984-15.477,46.536,46.536,0,0,0-2.381-7.936,32.646,32.646,0,0,0-6.35-9.922,21.359,21.359,0,0,0-15.477-6.745,34.48,34.48,0,0,0-9.126.4,19.57,19.57,0,0,0-9.128,4.365,25.662,25.662,0,0,0-3.175,3.572,15.434,15.434,0,0,0-.793,5.952c-.4,5.953-.4,11.9-.4,17.461v46.827c0,.4-.395.794-.395,1.191v6.747Zm131.749-13.1q3.572-8.333,7.144-16.667c1.984-4.762,3.968-9.524,5.556-14.287,2.38-5.158,4.365-9.92,6.349-15.079a48.079,48.079,0,0,0,1.984-7.143q.594-2.976,1.191-5.952a18.062,18.062,0,0,0-1.984-11.112,13.637,13.637,0,0,0-6.351-5.159,14.45,14.45,0,0,1-2.777-1.19c.4,0,.4-.4.793-.795a9.481,9.481,0,0,1,4.365-2.38c2.779-.4,5.159-.4,7.54.793a10.411,10.411,0,0,1,3.572,1.985,1.378,1.378,0,0,1,.793.4,13.066,13.066,0,0,1,7.54-2.382,10.194,10.194,0,0,1,7.938,3.175,3.91,3.91,0,0,1,1.19,3.175,8.511,8.511,0,0,0-6.349,3.968,28.122,28.122,0,0,0-3.969,5.556c-3.175,4.762-5.159,9.921-7.143,15.476-1.588,3.175-2.777,6.747-4.365,10.318-1.588,3.175-2.777,6.747-4.365,9.922-1.984,4.762-4.366,9.921-6.35,14.683s-3.967,9.524-5.953,14.285c-1.984,4.366-3.57,8.731-5.554,13.493-.795,1.191-.795,2.381-.795,3.969-.4,1.19,0,2.381,0,3.571v41.668a28.1,28.1,0,0,0,.4,5.556,15.6,15.6,0,0,0,5.952,11.111l2.381,1.191a3.02,3.02,0,0,0,1.589.794,4.064,4.064,0,0,1-1.984,2.38,11.173,11.173,0,0,1-7.938,1.588,18.959,18.959,0,0,1-7.142-2.381c-1.588-.794-2.779-1.19-4.365-.4-3.573,2.38-7.54,2.38-11.51,1.189a7.171,7.171,0,0,1-5.556-6.349c-.4-.793,0-1.19.795-1.587a9.056,9.056,0,0,0,4.761-2.381,35.76,35.76,0,0,0,3.572-3.968,7.34,7.34,0,0,0,.793-2.778V370.7a111.18,111.18,0,0,1,.4-11.508V336.17a49.062,49.062,0,0,0-.793-7.937,89.409,89.409,0,0,0-5.161-16.667q-2.379-5.356-4.761-10.715c-1.588-3.174-3.174-6.745-4.762-9.92l-5.952-14.287c-1.191-3.571-2.779-6.746-3.97-10.318-3.174-6.745-5.951-13.492-9.126-20.238-1.588-3.175-3.572-5.952-6.747-7.541a12.246,12.246,0,0,0-4.763-1.984h-.395a6.575,6.575,0,0,1,2.381-6.349,10.426,10.426,0,0,1,5.952-2.778,29.689,29.689,0,0,1,8.333.794,14.66,14.66,0,0,0,4.365,1.984,1.744,1.744,0,0,1,1.191-.4,13.09,13.09,0,0,1,10.714-2.778,8.11,8.11,0,0,1,6.747,5.555c0,.4,0,.794.4.794-1.191.794-2.382.794-3.572,1.587a9.378,9.378,0,0,0-3.573,3.175,6.4,6.4,0,0,0-1.19,3.572,16.464,16.464,0,0,0,1.19,6.349c2.779,6.349,5.161,12.7,7.938,19.049,3.174,7.936,6.747,15.872,9.921,23.81,2.382,5.555,4.365,11.111,6.747,16.269,1.189,2.778,1.984,5.16,3.175,7.54,0,.4.395.794.793,1.191C650.687,313.153,651.878,310.773,652.671,308.391Z"/><path class="cls-2" d="M290.236,579.854a48.279,48.279,0,0,0-17.373,11.489A82.078,82.078,0,0,1,261.1,601.71a100.134,100.134,0,0,1-34.185,15.972c-3.362.56-7,1.4-10.648,1.961a76.126,76.126,0,0,1-7.845.28c-4.2,0-8.406,0-12.609-.28a70.006,70.006,0,0,1-15.131-1.961,105.186,105.186,0,0,1-12.609-3.362,79.739,79.739,0,0,1-26.339-15.132,87.474,87.474,0,0,1-19.614-23.256,104.768,104.768,0,0,1-9.527-20.455,114.882,114.882,0,0,1-3.923-14.01c-.84-3.082-1.4-6.445-1.961-9.527a42.385,42.385,0,0,1-.841-5.884,12.458,12.458,0,0,0-4.483-7.286,15.963,15.963,0,0,1-1.961-2.241c-.561-.56-.281-1.4.28-2.242,3.082-2.522,4.483-5.6,5.884-9.246a8.921,8.921,0,0,0,.84-2.522,111.782,111.782,0,0,1,2.8-19.054,128.83,128.83,0,0,1,9.527-26.339,115.023,115.023,0,0,1,21.014-29.421,75.447,75.447,0,0,1,24.1-16.532A97,97,0,0,1,179,405.849a69.341,69.341,0,0,1,22.7-1.961c4.2,0,8.406.28,12.609.56,3.923.561,7.846,1.4,11.768,1.961,1.682.281,3.083.842,4.484,1.122s1.681,0,1.681-1.4a28.842,28.842,0,0,1,.28-4.764,8.029,8.029,0,0,1,3.082-5.324c1.681-1.4,3.363-1.12,5.044-.28,1.961.841,3.082,2.522,4.2,4.2a2.1,2.1,0,0,1,.28,1.4c.281.56,0,1.4,0,2.242a36.158,36.158,0,0,0,0,9.527c1.4,7.845,4.764,14.29,12.329,17.652,1.681.841,3.082,1.682,4.483,2.242.561.28,1.4.561,1.962.84,2.8.561,4.763-.56,5.324-3.082a1.232,1.232,0,0,0-.281-1.4,33.6,33.6,0,0,0-3.362-3.082c0-.28-.28-.28-.56-.561-2.522-1.4-2.8-2.241-1.682-5.043.841-1.681,1.682-3.363,3.363-3.923,2.522-.28,5.043,0,7,1.681a10.026,10.026,0,0,1,3.082,6.165c.841,7-5.044,12.329-10.087,14.01-4.2,1.4-8.126.56-11.769-1.962a98.705,98.705,0,0,1-14.01-10.086c-3.923-3.083-7.285-6.445-11.488-8.967a56.233,56.233,0,0,0-15.972-6.445,57.344,57.344,0,0,0-20.734-1.681,52.09,52.09,0,0,0-27.74,9.247,62.117,62.117,0,0,0-16.532,17.652c-3.083,4.763-5.884,9.247-8.687,14.011a74.488,74.488,0,0,0-7.285,16.812c-1.12,3.642-2.242,7-3.082,10.647-.56,3.363-1.121,6.445-1.4,9.527-.28,3.643-.28,7.286-.28,10.928a28.843,28.843,0,0,0,5.324,16.252,1.726,1.726,0,0,1,.28,1.961c-.841,2.522-1.681,5.324-2.522,7.846a23.235,23.235,0,0,0-1.961,10.647,66.1,66.1,0,0,0,1.12,7.846,109.32,109.32,0,0,0,14.851,34.185,69.739,69.739,0,0,0,21.015,20.454A47.032,47.032,0,0,0,179,603.671c2.8.841,5.884,1.962,8.686,2.8,3.082.84,6.164,1.4,9.247,1.961a52.881,52.881,0,0,0,11.488.841,62.951,62.951,0,0,0,14.57-1.962,66.877,66.877,0,0,0,22.7-10.367,52.6,52.6,0,0,1,5.043-3.363,25.893,25.893,0,0,0,3.923-3.923,3.254,3.254,0,0,0,.56-2.8c-.56-2.8-1.12-5.605-1.961-8.406-.56-1.122-1.4-2.522-1.961-3.643-.841-1.681-.281-3.082,1.681-3.363a9.506,9.506,0,0,1,2.8.281,40.79,40.79,0,0,1,5.324,1.961,18.949,18.949,0,0,0,7.565,1.962c3.643,0,7-.281,10.368-.561,5.324-.28,10.087-.56,15.13,1.4,1.121.561,2.242.28,3.083,1.4C295,578.454,292.477,579.294,290.236,579.854Zm-47.359-18.212a13.67,13.67,0,0,1-6.725,0,5.265,5.265,0,0,0-2.241-.561c-1.121-.28-1.962.28-3.082.561a10.859,10.859,0,0,1-7.286.84,4.933,4.933,0,0,1-3.642-2.522c.28-.28.84-.28,1.12-.561a8.768,8.768,0,0,0,3.083-2.241c1.961-1.961,2.522-4.483,3.082-7.285.56-3.363.28-7,.28-10.368V509.524c0-.56-.28-.841-.56-1.4a36.273,36.273,0,0,0-10.928-6.445,36.34,36.34,0,0,0-12.329-1.4,16.6,16.6,0,0,0-5.324,1.4,6.293,6.293,0,0,0-3.362,5.885,4.727,4.727,0,0,0,.841,2.8c.28-.279.56-.279.84-.56a5.769,5.769,0,0,1,7.566,2.242,3.4,3.4,0,0,1-.561,4.2,9.016,9.016,0,0,1-5.043,3.362,5.476,5.476,0,0,1-3.643.281,10.186,10.186,0,0,1-4.764-1.962,15.975,15.975,0,0,1-1.961-2.242,1.032,1.032,0,0,0-.28.841v26.339a18.322,18.322,0,0,0,0,3.923,27.621,27.621,0,0,0,.56,4.763l.841,2.522c1.121,2.522,2.8,4.763,5.6,5.6.28,0,.28.28.56.28A4.941,4.941,0,0,1,193,562.2a16.384,16.384,0,0,1-5.323.56,24.675,24.675,0,0,1-4.2-1.4,8.654,8.654,0,0,0-2.522-.28,16.75,16.75,0,0,1-7.285.84,6.534,6.534,0,0,1-4.764-2.8,8.3,8.3,0,0,1-.56-2.8c.28,0,.56-.281.84-.281a10.1,10.1,0,0,0,6.165-5.6v-.84a45.439,45.439,0,0,0,.28-6.165c.28-26.339.28-52.677,0-78.736a41.4,41.4,0,0,0-.28-5.884,5.036,5.036,0,0,0-1.121-2.522,8.467,8.467,0,0,0-5.324-3.923c-.84-.281-.84-.281-.56-1.121a5.794,5.794,0,0,1,2.8-3.923,6.267,6.267,0,0,1,2.8-.84,15.522,15.522,0,0,1,5.043.56,8.354,8.354,0,0,0,3.643.28c.561,0,.841-.28,1.121-.28a12.75,12.75,0,0,1,5.6-1.4,6.906,6.906,0,0,1,5.043,1.681,2.186,2.186,0,0,1,1.121,1.121l-.28.28c-2.522.561-3.923,2.242-5.324,4.483a12.386,12.386,0,0,0-1.681,7.005c.28,3.083.28,6.445.28,9.527,0,9.528,0,19.054-.28,28.581v7.005a5.832,5.832,0,0,1,1.121-1.681,14.807,14.807,0,0,1,7-6.725c1.4-.561,2.8-.841,4.2-1.4a4.77,4.77,0,0,1,1.961-.28,55.038,55.038,0,0,1,11.769.28,41.829,41.829,0,0,1,5.884.56c2.242.28,4.483.841,6.445,1.121h.56V477.861c-.28-5.043-.28-10.368-.28-15.691a6.168,6.168,0,0,1,.28-2.241,11.656,11.656,0,0,0-4.2-9.527,5.041,5.041,0,0,0-2.522-1.682c-.28,0-.28,0-.84-.28l.84-.841a6.4,6.4,0,0,1,3.363-1.681,12.029,12.029,0,0,1,7.565,1.121,7.979,7.979,0,0,0,3.643,0c2.241-.28,4.763-.841,7.285-.28,2.8.56,4.483,2.242,4.763,4.763v.56c-.84.281-1.4.561-2.241.842a12.2,12.2,0,0,0-3.923,3.641,6.435,6.435,0,0,0-1.121,3.924v87.142a7.761,7.761,0,0,0,.28,2.522v.561a14.756,14.756,0,0,0,3.363,3.922,8.72,8.72,0,0,0,2.8,1.4c.28,0,.56.281.84.281A5.4,5.4,0,0,1,242.877,561.642Zm7-113.482a5.261,5.261,0,0,1,4.483-3.082c2.8-.56,5.6.28,8.406,1.4a3.557,3.557,0,0,0,1.681.28c1.682-.561,3.083-1.121,4.484-1.681a35.354,35.354,0,0,1,7.846-1.4,44.346,44.346,0,0,1,8.686-.279q2.522.418,5.043.84c7.286,1.121,13.73,3.923,18.774,9.247a23.613,23.613,0,0,1,5.884,9.807,31.479,31.479,0,0,1,.841,5.044,45.41,45.41,0,0,1-.28,6.163,27.749,27.749,0,0,1-2.522,6.726,29.039,29.039,0,0,1-11.769,11.488,86.115,86.115,0,0,1-8.686,4.763,20.959,20.959,0,0,1-3.362,1.962h-.281a6.152,6.152,0,0,0,1.4.84c1.682,1.4,3.083,2.8,4.764,4.483,1.681,1.962,3.362,3.923,5.043,6.165a27.673,27.673,0,0,1,4.2,9.246c.561,2.8,1.121,5.6,1.962,8.406a33.091,33.091,0,0,0,1.12,5.605c.561,3.082.841,6.164,1.682,9.246a80.306,80.306,0,0,0,1.961,7.846,28.294,28.294,0,0,0,3.362,6.445,10.148,10.148,0,0,0,6.445,4.2,4.141,4.141,0,0,1,1.961.281l1.682.84A4.415,4.415,0,0,1,322.731,565a23.051,23.051,0,0,1-7.565.56,22.285,22.285,0,0,1-7-3.082,23.98,23.98,0,0,1-9.527-12.049,39.786,39.786,0,0,1-1.4-6.164,43.556,43.556,0,0,1-1.4-6.444c-.28-1.682-.56-3.083-.841-4.765a57.411,57.411,0,0,1-1.4-6.724c-.281-1.4-.561-3.082-.841-4.483a42.6,42.6,0,0,0-5.044-12.889,21.158,21.158,0,0,0-5.324-5.884c-.28-.281-.56-.281-1.12,0a26.8,26.8,0,0,0-6.445,7.284,19.379,19.379,0,0,0-2.8,5.324,18.268,18.268,0,0,0-.56,6.725c.56,2.242,1.12,4.2,2.8,5.884.28.28.56.28.84.561.28-.281.561-.841.841-1.121,1.681-2.522,4.763-2.241,6.725-1.121a3.45,3.45,0,0,1,1.4,2.8c-.281,2.8-1.4,5.323-3.643,6.724a8.143,8.143,0,0,1-6.164,1.4c-.561,0-1.121-.28-1.682-.28-.56-.281-1.12-.281-1.681-.561v.841c-.28,1.681-.28,3.363-.56,5.044a39.5,39.5,0,0,0,.28,5.6,14.853,14.853,0,0,0,1.961,7.845,12.006,12.006,0,0,0,3.923,4.484c.561.28,1.121.28,1.681.56a4.14,4.14,0,0,1-3.082,2.241c-2.8,1.121-5.6.561-8.406-.56a8.519,8.519,0,0,1-1.961-1.4,15.581,15.581,0,0,1-5.884,1.681h-3.363A5.96,5.96,0,0,1,250.72,558v-.28c.84-.561,1.681-.841,2.521-1.4a7.558,7.558,0,0,0,3.083-4.2,20.381,20.381,0,0,0,1.12-7.006V464.131a33.924,33.924,0,0,0-.28-5.323,8.3,8.3,0,0,0-.56-2.8,4.518,4.518,0,0,0-1.121-1.961,16.618,16.618,0,0,0-5.6-3.363h-.56l-.281-.279A3.183,3.183,0,0,1,249.879,448.16Zm20.455,62.2c0-.279.28-.279.28-.56,2.241-3.923,5.324-7,8.686-10.087a30.57,30.57,0,0,1,4.764-3.643c3.642-3.082,7.285-6.164,10.647-9.247A29.827,29.827,0,0,0,302,477.3a16.637,16.637,0,0,0,1.4-10.928,32.685,32.685,0,0,0-1.681-5.6,23,23,0,0,0-4.483-7A15.079,15.079,0,0,0,286.305,449a24.3,24.3,0,0,0-6.444.28,13.8,13.8,0,0,0-6.445,3.082,18.09,18.09,0,0,0-2.242,2.522,10.9,10.9,0,0,0-.56,4.2c-.28,4.2-.28,8.406-.28,12.329V504.48c0,.28-.28.561-.28.841v4.764ZM341.781,559.4a11,11,0,0,1-6.724,0,5.266,5.266,0,0,1-2.242-.56,14.721,14.721,0,0,0-3.362.841,12.858,12.858,0,0,1-7.286.841,7.151,7.151,0,0,1-3.362-2.242c-.28,0-.28-.28-.28-.56a1.679,1.679,0,0,0,1.12-.281,11.538,11.538,0,0,0,3.643-2.8,11.369,11.369,0,0,0,2.241-5.323,43.469,43.469,0,0,0,.841-8.687V529.138c0-3.362-.28-6.725-.28-10.087V500.277c-.561-5.884-.28-11.488-.28-17.092V470.3c0-1.4-.281-2.522-.281-3.923,0-.56.281-1.4.281-1.961v-7a19.139,19.139,0,0,0-.56-4.2c-1.4-3.082-3.083-5.6-6.725-6.724.28,0,.28-.281.28-.561a6.689,6.689,0,0,1,3.643-1.961,12.03,12.03,0,0,1,7.565,1.121,8,8,0,0,0,3.643,0c2.521-.281,4.763-.841,7.285-.281a5.662,5.662,0,0,1,5.043,4.764v.56c-.56.281-.84.281-1.4.56a8.348,8.348,0,0,0-5.044,4.2,4.511,4.511,0,0,0-.841,2.522,63.372,63.372,0,0,0-.28,7.285v77.055a41.4,41.4,0,0,0,.28,5.884,1.031,1.031,0,0,0,.28.841,16.868,16.868,0,0,0,2.522,3.643,9.494,9.494,0,0,0,3.363,1.681c.28.28.56.28,1.12.56A5.423,5.423,0,0,1,341.781,559.4Zm74.531-31.1c-.56,1.122-.84,2.242-1.4,3.363a8.354,8.354,0,0,1-4.763,3.362,14.028,14.028,0,0,1-3.363.56c-4.2.281-7.846-2.522-9.527-6.163a5.573,5.573,0,0,1-.28-3.083,1.029,1.029,0,0,1,.28-.84,5.781,5.781,0,0,1,8.126-1.682c.561.28,1.121.841,1.682,1.121a2.8,2.8,0,0,0,1.12-1.4,8.311,8.311,0,0,0,0-7.285,21.283,21.283,0,0,0-3.362-5.324,17.324,17.324,0,0,0-5.6-4.2c-3.923-2.242-8.126-4.484-12.329-6.445-2.242-1.4-4.2-2.522-6.445-3.642a46.444,46.444,0,0,1-10.647-8.967,25.006,25.006,0,0,1-5.6-10.367,22.447,22.447,0,0,1-.84-8.687,24.941,24.941,0,0,1,5.324-12.889,24.416,24.416,0,0,1,22.976-8.686,25.322,25.322,0,0,1,19.334,14.01,18.1,18.1,0,0,1,1.4,7.565,21.338,21.338,0,0,1-.84,5.884c-1.4,3.363-3.643,5.605-7.286,5.885a8.642,8.642,0,0,1-2.8.28,8.859,8.859,0,0,1-6.164-2.242,11.069,11.069,0,0,1-2.8-4.2c-.56-.561-.56-1.4-.841-2.242a4.148,4.148,0,0,1,2.242-4.763,6.088,6.088,0,0,1,6.164-.281,5.034,5.034,0,0,1,1.962,1.4.979.979,0,0,0,.56.279,6.669,6.669,0,0,0,1.681-3.082,7.839,7.839,0,0,0-1.961-7c-1.681-2.241-3.923-3.362-6.445-4.483a18.53,18.53,0,0,0-9.527-.841,13.737,13.737,0,0,0-6.724,2.242,20.775,20.775,0,0,0-3.363,1.962,9.565,9.565,0,0,0-4.2,6.164,19.409,19.409,0,0,0-.28,7,14.116,14.116,0,0,0,3.643,7,25.851,25.851,0,0,0,7.285,6.165c2.8,1.4,5.6,2.8,8.406,4.483,5.044,2.522,10.087,5.043,15.131,7.845a36.854,36.854,0,0,1,14.57,14.011,49.953,49.953,0,0,1,4.483,13.169,28.351,28.351,0,0,1,.561,8.406,36.289,36.289,0,0,1-4.2,13.17A46.875,46.875,0,0,1,411.269,558a43.569,43.569,0,0,1-11.489,7,38.39,38.39,0,0,1-9.807,2.241,53.834,53.834,0,0,1-6.725.281l-5.884-.841a39.759,39.759,0,0,1-6.164-1.4,33.345,33.345,0,0,1-10.087-4.763,32.982,32.982,0,0,1-6.445-7.566,39.458,39.458,0,0,1-4.764-8.967,16.4,16.4,0,0,1-1.4-6.163,26.248,26.248,0,0,1,1.962-14.571,28.154,28.154,0,0,1,7.845-11.208A19.144,19.144,0,0,1,367.277,507a23.351,23.351,0,0,1,6.164-.84,17.684,17.684,0,0,1,12.049,4.763,15.112,15.112,0,0,1,5.884,10.367,12,12,0,0,1-1.681,8.687,4.955,4.955,0,0,1-6.445,1.4,3.9,3.9,0,0,1-1.121-5.884,7.464,7.464,0,0,1,1.4-1.682,1.453,1.453,0,0,0,.561-1.121,1.355,1.355,0,0,0,0-1.961,21.057,21.057,0,0,0-4.2-4.483,14.357,14.357,0,0,0-7.565-2.522,15.134,15.134,0,0,0-9.247,3.643,21.153,21.153,0,0,0-5.6,9.246,25.46,25.46,0,0,0-.841,6.444,24.039,24.039,0,0,0,.281,4.484,21,21,0,0,0,1.12,4.483,26.82,26.82,0,0,0,17.092,15.411,18.383,18.383,0,0,0,6.445,1.121,36.722,36.722,0,0,0,7.846,0,28.533,28.533,0,0,0,11.768-3.362,30.108,30.108,0,0,0,9.807-8.967,19.549,19.549,0,0,0,3.082-5.884,38.766,38.766,0,0,0,2.522-9.807c0-.56.28-1.12.28-1.681v-.841a.274.274,0,0,0-.28-.28C416.592,528.017,416.312,528.017,416.312,528.3Zm67.246-75.934a21.96,21.96,0,0,0-6.164-.561c-3.363-.28-6.165,2.242-7,5.6a10.473,10.473,0,0,0-.281,3.082v34.745c0,5.324-.28,10.367-.28,15.691v6.724c-.28,5.885-.28,12.049-.28,17.933v9.808c0,.56.28,1.4.28,2.241a32.583,32.583,0,0,0,1.121,5.044,10.01,10.01,0,0,0,5.6,5.6c.28,0,.28,0,.56.28,0,.561-.56.84-.84,1.121a7.245,7.245,0,0,1-6.725,1.4,13.174,13.174,0,0,1-4.483-1.121,7.764,7.764,0,0,0-2.522-.28,9.964,9.964,0,0,1-2.8.561c-1.962.28-3.643.56-5.324,0a6.17,6.17,0,0,1-4.483-4.2v-1.121c.56-.28.84-.28,1.4-.56a8.211,8.211,0,0,0,4.483-3.642,4.88,4.88,0,0,0,1.4-3.923c0-1.682.28-3.643.28-5.324V466.093c0-2.242-.28-4.484-.28-6.725a6.6,6.6,0,0,0-1.681-4.764,16.861,16.861,0,0,0-2.242-2.241,3.18,3.18,0,0,0-2.241-.841c-1.682.28-3.363.28-5.044.56a13.2,13.2,0,0,0-4.483,1.121c0,.281.28.281.28.561l3.363,5.884a30.832,30.832,0,0,1,1.4,4.764,17.25,17.25,0,0,1,.56,5.323,13.558,13.558,0,0,1-3.643,9.528,15.407,15.407,0,0,1-4.763,3.641,7.2,7.2,0,0,1-6.725-.56,7.719,7.719,0,0,1-4.2-4.2,7.341,7.341,0,0,1-.561-4.2,11.89,11.89,0,0,1,.561-3.082,3.71,3.71,0,0,1,5.043-1.961,4.678,4.678,0,0,1,3.363,3.082v1.961c.28.281,0,.56,0,.841a6.662,6.662,0,0,0,3.362-.841c2.522-1.4,3.363-3.923,2.8-6.724-1.121-5.044-3.923-8.967-7.285-12.61l-4.2-4.2-.28-.281a1.875,1.875,0,0,1-1.121-1.961,6.015,6.015,0,0,1,0-2.242c.28-.84.56-1.121,1.4-1.121h1.4a66,66,0,0,0,10.648.561h45.393c2.521,0,5.043-.561,7.285-.561,2.522-.279,3.082.281,3.082,2.522v1.121a2.026,2.026,0,0,1-1.121,1.681,44.687,44.687,0,0,0-3.643,3.643,56.093,56.093,0,0,0-5.324,6.165,30.471,30.471,0,0,0-2.8,7c-.281,1.4-.561,2.8.28,4.2a5.716,5.716,0,0,0,4.2,3.362,2.094,2.094,0,0,0,1.4.281v-1.961a4.566,4.566,0,0,1,3.082-3.643,3.26,3.26,0,0,1,2.8-.561,3.568,3.568,0,0,1,2.522,1.962,9.253,9.253,0,0,1,.56,6.725,9.569,9.569,0,0,1-3.922,4.763,7.292,7.292,0,0,1-6.726.84,7.975,7.975,0,0,1-3.922-2.241,15.763,15.763,0,0,1-4.763-7.285,12.839,12.839,0,0,1-.281-5.6c0-1.121.281-2.242.281-3.362a30.46,30.46,0,0,1,2.8-7c.561-1.121,1.4-2.242,1.962-3.363.28-.28.28-.56.56-.841C485.519,452.924,484.4,452.643,483.558,452.363ZM584.989,563.042a13.7,13.7,0,0,1-6.726-.28,11.708,11.708,0,0,1-2.8-1.12,4.92,4.92,0,0,0-1.4-1.121,29.377,29.377,0,0,1-2.8,1.121,8.953,8.953,0,0,1-3.923.84,8.8,8.8,0,0,1-4.483-1.681,4.241,4.241,0,0,1-1.961-3.923,4.208,4.208,0,0,0,3.362-3.082c.561-1.4.841-2.8,1.4-4.2a45.439,45.439,0,0,0,.28-6.165c.28-26.619.28-53.518.28-80.418v-1.12h-.28a20.584,20.584,0,0,0-1.121,3.923c-.841,2.522-1.681,5.323-2.522,8.125a52.337,52.337,0,0,0-1.962,6.165q-1.26,4.2-2.521,8.406a21.011,21.011,0,0,0-1.4,4.483c-1.121,3.362-2.242,6.725-3.082,10.088a52.122,52.122,0,0,0-1.962,6.163c-1.4,4.2-2.522,8.127-3.642,12.049a43.383,43.383,0,0,0-1.962,6.445l-2.521,7.566c0,.279-.281.56-.281.84a7.009,7.009,0,0,0-1.12-1.961c-1.121-3.643-2.522-7.006-3.923-10.368-1.682-3.922-3.363-7.845-4.764-11.768-1.4-3.363-2.8-7.005-4.2-10.368-1.961-4.2-3.642-8.686-5.324-12.889-1.4-3.082-2.522-6.164-3.923-9.247-1.4-3.642-3.082-7.565-4.483-11.488a8.363,8.363,0,0,0-1.121-2.241c0-.281-.28-.561-.56-.841v.841c.28,4.2.28,8.406.28,12.608.28,3.923.561,8.126.561,12.049v4.483c.28,2.8.28,5.605.28,8.406.28,3.363.28,6.726.28,10.088.28,3.362.28,6.724.561,10.087V529.7c.28,2.8.28,5.884.28,8.687a33.93,33.93,0,0,1,.28,5.324,22.987,22.987,0,0,0,2.521,9.527,36.753,36.753,0,0,0,2.8,4.2,8.618,8.618,0,0,0,4.2,2.8c.281,0,.281.28.561.28a4.451,4.451,0,0,1-2.8,2.241c-3.082.56-5.884.28-8.406-1.681-.28-.28-.56-.28-.841-.56-2.521,1.961-5.043,1.961-8.125,1.681a5.465,5.465,0,0,1-3.643-3.363,1.029,1.029,0,0,1-.28-.84.982.982,0,0,0,.561-.28,7.189,7.189,0,0,0,5.043-3.363,17.908,17.908,0,0,0,2.241-5.324V530.819c0-5.323,0-10.367-.28-15.411V505.321c0-4.2-.28-8.406-.28-12.609,0-5.324,0-10.368-.28-15.692,0-3.922-.281-7.845-.281-12.048,0-2.8,0-5.885-.279-8.967a21.148,21.148,0,0,0-.281-4.2c0-.28,0-.56-.56-.84a6.679,6.679,0,0,0-3.082-1.681,1.03,1.03,0,0,1-.841-.28,4.933,4.933,0,0,1,2.522-3.643,7.942,7.942,0,0,1,3.642-1.121,15.092,15.092,0,0,1,6.165,1.121,3.557,3.557,0,0,0,1.681-.28A9.752,9.752,0,0,1,522.5,443.4a14.86,14.86,0,0,1,3.642.279,4.339,4.339,0,0,1,3.082,2.242c-.28,0-.28.28-.56.28a12.945,12.945,0,0,0-4.2,2.522c-.56.561-.56.841-.28,1.682,1.4,3.642,2.8,7,4.2,10.647,1.961,4.483,3.642,8.686,5.324,13.17,1.4,3.082,2.521,6.164,3.643,9.246,1.961,4.483,3.641,8.966,5.323,13.17a13.65,13.65,0,0,1,1.121,3.082.274.274,0,0,1,.28.28.274.274,0,0,0,.28-.28,94.5,94.5,0,0,0,3.082-9.527c1.4-3.363,2.522-7,3.643-10.648a48.257,48.257,0,0,0,1.961-5.884q1.261-3.783,2.522-7.565a52.382,52.382,0,0,0,1.962-6.164c.84-2.242,1.681-4.764,2.522-7.286a5.219,5.219,0,0,0,.56-1.962.852.852,0,0,0,0-1.12l-1.682-1.681c0-.281-.279-.561,0-.841a6.357,6.357,0,0,1,4.764-4.764,8.021,8.021,0,0,1,4.484.281,19.569,19.569,0,0,1,3.922.841c1.4-.561,2.522-1.122,3.923-1.682a10.18,10.18,0,0,1,6.445-.28,6.01,6.01,0,0,1,4.763,4.483v.841c-.84.28-1.4.56-2.241.84a2.728,2.728,0,0,0-1.682,1.4,36.672,36.672,0,0,0-2.522,7.845,10.52,10.52,0,0,0-.28,3.083v50.156c0,5.884,0,12.048.28,17.932V535.3c0,4.2.281,8.685.281,12.889a8.912,8.912,0,0,0,.56,3.923,2.42,2.42,0,0,0,.841,1.681,15.979,15.979,0,0,0,5.884,3.642c.28,0,.56.281.84.281A5.906,5.906,0,0,1,584.989,563.042Zm36.143-118.524a13.1,13.1,0,0,1,7.286,1.4,3.972,3.972,0,0,1,1.681.561,24.176,24.176,0,0,1,4.764-1.961,9.417,9.417,0,0,1,7.284.84,6.639,6.639,0,0,1,2.522,4.2v.28c-1.121.28-1.961.28-3.082.561a5.849,5.849,0,0,0-3.642,1.961,2.543,2.543,0,0,0-.841,1.961,6.168,6.168,0,0,0,.28,2.241c.561,1.962.841,3.924,1.4,5.885q1.261,4.623,2.522,9.247c.561,1.961.84,3.643,1.4,5.6q1.26,4.623,2.522,9.246c.56,1.682.84,3.363,1.4,5.324.56,2.242,1.4,4.764,1.961,7.286a8.149,8.149,0,0,1,.561,2.521A15.506,15.506,0,0,0,656.437,500a24.032,24.032,0,0,0,6.445-3.643,5.964,5.964,0,0,1,0,2.242,7.212,7.212,0,0,1-2.241,3.642l-5.044,4.2c-1.121,1.121-2.522,1.961-3.643,3.082-.28.28-.56.561-.28,1.121.561,2.241,1.4,4.763,1.962,7.285.56,1.681.84,3.642,1.4,5.324q1.26,4.623,2.522,9.246c.56,1.962.84,3.643,1.4,5.6a123.641,123.641,0,0,0,4.2,13.45,8.745,8.745,0,0,0,2.522,3.082c.84,1.122,2.241.841,3.362,1.122h.84c.281.84-.28,1.68-.56,2.521a6.143,6.143,0,0,1-5.043,3.082,14.566,14.566,0,0,1-7.566-1.4c-1.4-.561-1.4-.561-3.082.281-2.242.84-4.763,1.68-7.566,1.12a5.562,5.562,0,0,1-5.323-5.6c.84,0,1.681-.281,2.521-.281a7.046,7.046,0,0,0,3.923-1.681,2.541,2.541,0,0,0,.84-1.962,20.782,20.782,0,0,0-.279-5.884c-.561-2.241-1.121-4.763-1.682-7-.56-1.681-.84-3.642-1.4-5.324a75.089,75.089,0,0,0-1.961-7.565,44.673,44.673,0,0,0-1.4-5.885,75.159,75.159,0,0,0-1.961-7.565q-.421-1.68-.841-3.363c0-.56-.28-1.12-.28-1.68a83.436,83.436,0,0,0-20.455.28,23.383,23.383,0,0,1-1.121,4.2c-.56,2.8-1.4,5.6-1.961,8.125-1.121,3.643-1.962,7.286-3.082,11.209-.561,1.961-1.4,4.2-1.961,6.445v.56c1.12,0,2.241.28,3.362.28a16.321,16.321,0,0,0,5.323-.84,7.6,7.6,0,0,0,5.324-3.923c1.121-1.4,1.121-3.363.841-5.044-.841,0-1.4.28-1.961.28-1.682.56-3.083,0-4.483-1.121a3.712,3.712,0,0,1-1.682-2.8,2.129,2.129,0,0,1,.84-2.522,9.415,9.415,0,0,1,4.484-2.8,8.615,8.615,0,0,1,2.8-.281,9.34,9.34,0,0,1,5.884,2.522,6.192,6.192,0,0,1,2.8,3.643,7.9,7.9,0,0,1-.561,5.043,14.678,14.678,0,0,1-2.8,5.044,15.174,15.174,0,0,1-6.165,4.2,22.442,22.442,0,0,1-5.884,1.4,21.222,21.222,0,0,1-4.2.28c-1.121,0-2.242-.28-3.362-.28-.56,0-.841-.28-1.4-.28,0,.56-.279.84-.279,1.121-.561,2.241-1.122,4.2-1.682,6.444-.28,1.4-.28,2.8-.561,4.2-.279,1.681.561,2.8,2.8,3.363.561.28,1.4.28,2.241.56,0,1.4-.84,2.242-1.961,3.082a5.6,5.6,0,0,1-4.2.561,11.682,11.682,0,0,1-2.8-1.122,1.277,1.277,0,0,0-1.4,0,8.321,8.321,0,0,1-5.044,1.122,4.2,4.2,0,0,1-3.923-3.083v-.56c.281-.28.281-.28.561-.28a7.609,7.609,0,0,0,5.6-3.083,18.984,18.984,0,0,0,3.362-6.164,68.249,68.249,0,0,0,2.8-6.725v-.84c-1.12-.841-2.241-1.4-3.362-2.242a15.621,15.621,0,0,1-6.725-10.087,18.15,18.15,0,0,1-.28-6.725,15.053,15.053,0,0,1,4.2-8.406,18.1,18.1,0,0,1,6.164-5.044,39.056,39.056,0,0,1,9.808-4.483c.28-.28.56-.28.56-.84.28-1.122.841-2.522,1.12-3.643.561-2.522,1.4-4.763,1.962-7.285.56-1.682.841-3.643,1.4-5.324.56-2.522,1.4-4.764,1.961-7a33.912,33.912,0,0,1,1.4-5.044c.28-1.961.84-3.643,1.12-5.323.281-.842.281-1.4.56-2.242a30.794,30.794,0,0,0,.561-5.044,9.976,9.976,0,0,0-4.763-8.686,12.826,12.826,0,0,0-3.923-1.961c-.281,0-.281,0-.56-.281h-.281A6.283,6.283,0,0,1,621.132,444.518Zm-8.686,64.165a12.405,12.405,0,0,0-4.483,1.681,25.607,25.607,0,0,0-6.445,4.2,16.087,16.087,0,0,0-4.2,6.445,11.513,11.513,0,0,0,1.4,9.526,14.19,14.19,0,0,0,5.884,5.6c.28.281.56.281.84.56,2.522-9.527,5.044-18.773,7.566-28.02Zm22.977-12.048c-.841-3.643-1.961-7.286-2.8-11.209l-1.68-7.565a75.1,75.1,0,0,1-1.962-7.565,2.122,2.122,0,0,0-.56-1.121c-.281.28-.281.28-.281.56l-1.68,5.885a83.829,83.829,0,0,0-2.243,8.966c-.84,2.522-1.4,5.044-2.241,7.845-.841,2.522-1.4,5.324-2.242,8.127v.84c5.6-1.121,10.928-1.121,16.532-1.4ZM739.932,528.3c-.56,1.122-.84,2.242-1.4,3.363a8.353,8.353,0,0,1-4.764,3.362,14.012,14.012,0,0,1-3.362.56c-4.2.281-7.845-2.522-9.527-6.163a5.573,5.573,0,0,1-.28-3.083,1.029,1.029,0,0,1,.28-.84A5.781,5.781,0,0,1,729,523.814c.561.28,1.121.841,1.682,1.121a2.8,2.8,0,0,0,1.12-1.4,8.311,8.311,0,0,0,0-7.285,21.283,21.283,0,0,0-3.362-5.324,17.307,17.307,0,0,0-5.6-4.2c-3.922-2.242-8.125-4.484-12.328-6.445-2.241-1.4-4.2-2.522-6.445-3.642a46.4,46.4,0,0,1-10.647-8.967,24.982,24.982,0,0,1-5.6-10.367,22.428,22.428,0,0,1-.841-8.687,24.941,24.941,0,0,1,5.324-12.889,24.416,24.416,0,0,1,22.977-8.686,25.328,25.328,0,0,1,19.334,14.01,18.117,18.117,0,0,1,1.4,7.565,21.338,21.338,0,0,1-.84,5.884c-1.4,3.363-3.643,5.605-7.286,5.885a8.638,8.638,0,0,1-2.8.28,8.858,8.858,0,0,1-6.165-2.242,11.081,11.081,0,0,1-2.8-4.2c-.561-.561-.561-1.4-.84-2.242a4.147,4.147,0,0,1,2.241-4.763,6.09,6.09,0,0,1,6.165-.281,5.03,5.03,0,0,1,1.961,1.4.979.979,0,0,0,.56.279,6.669,6.669,0,0,0,1.681-3.082,7.839,7.839,0,0,0-1.961-7c-1.681-2.241-3.923-3.362-6.445-4.483a18.53,18.53,0,0,0-9.527-.841,13.734,13.734,0,0,0-6.724,2.242,20.725,20.725,0,0,0-3.362,1.962,9.563,9.563,0,0,0-4.2,6.164,19.409,19.409,0,0,0-.28,7,14.114,14.114,0,0,0,3.642,7,25.87,25.87,0,0,0,7.286,6.165c2.8,1.4,5.6,2.8,8.406,4.483,5.044,2.522,10.087,5.043,15.131,7.845a36.86,36.86,0,0,1,14.57,14.011,50.006,50.006,0,0,1,4.484,13.169,28.383,28.383,0,0,1,.56,8.406,36.27,36.27,0,0,1-4.2,13.17A46.861,46.861,0,0,1,734.888,558a43.548,43.548,0,0,1-11.488,7,38.4,38.4,0,0,1-9.807,2.241,53.842,53.842,0,0,1-6.725.281l-5.884-.841a39.786,39.786,0,0,1-6.164-1.4,33.372,33.372,0,0,1-10.088-4.763,32.977,32.977,0,0,1-6.444-7.566,39.414,39.414,0,0,1-4.763-8.967,16.365,16.365,0,0,1-1.4-6.163,26.248,26.248,0,0,1,1.962-14.571,28.146,28.146,0,0,1,7.846-11.208A19.141,19.141,0,0,1,690.9,507a23.351,23.351,0,0,1,6.164-.84,17.683,17.683,0,0,1,12.049,4.763,15.116,15.116,0,0,1,5.884,10.367,12,12,0,0,1-1.681,8.687,4.955,4.955,0,0,1-6.445,1.4,3.9,3.9,0,0,1-1.12-5.884,7.384,7.384,0,0,1,1.4-1.682,1.458,1.458,0,0,0,.56-1.121,1.353,1.353,0,0,0,0-1.961,21.057,21.057,0,0,0-4.2-4.483,14.355,14.355,0,0,0-7.566-2.522,15.134,15.134,0,0,0-9.246,3.643,21.155,21.155,0,0,0-5.6,9.246,25.458,25.458,0,0,0-.84,6.444,24.123,24.123,0,0,0,.28,4.484,21,21,0,0,0,1.121,4.483,26.818,26.818,0,0,0,17.093,15.411,18.374,18.374,0,0,0,6.444,1.121,36.722,36.722,0,0,0,7.846,0A28.533,28.533,0,0,0,724.8,555.2a30.112,30.112,0,0,0,9.808-8.967,19.57,19.57,0,0,0,3.081-5.884,38.766,38.766,0,0,0,2.522-9.807c0-.56.281-1.12.281-1.681v-.841a.275.275,0,0,0-.281-.28C740.212,528.017,739.932,528.017,739.932,528.3Z"/><path class="cls-3" d="M485.077,663.83c-.466-1,2.145-10.21.613-22.154a4.9,4.9,0,0,0,.6.059,21.232,21.232,0,0,0,19.1-11.814A64.942,64.942,0,0,1,512.237,638c2.132,3.645,5.412,9.6,8.127,9.286-2.016-.745-2.758-5.03-3.409-6.428-1.105-3.274-2.388-6.059-3.186-8.627,1.343,1.055,17.743,8.172,22.312,9.828,3.05,1.118,6.793,1.9,9.29,4.529,3.127,4.026,5.4,8.893,7.851,13.222.606-3.24-.51-6.523-1.281-9.107-.651-1.385-1.623-3.462-1.264-4.476.045-1.711,2.4-.286,3.441.086,3.54,1.287,25.854,4.81,27.066,4.67-1.032-.354-2.044-.729-3.056-1.1s-2.537-.924-4.07-1.5c-2.05-.727-30.072-7.465-34.653-9.134-2.526-.928-13.908-4.5-15.747-5.732.544-1.528,9.792-1.606,12.2-1.881,2.9-.1,6.186-1.212,9.281-1.8a79.56,79.56,0,0,1-10.946.028c-3.607.415-18.114-.817-20.144-1.554-2.195-.8-4.553-1.956-6.839-2.954a28.381,28.381,0,0,0,1.095-6.12,16.708,16.708,0,0,0-4.551-13.074,22.963,22.963,0,0,0-10.861-6.034c6.221-1.924,11.912-4.479,14.034-6.041,2.82-1.325,10.244-11.931,13.038-16.439.664,1.421.9,11.268,10.5,19.87,11.256,10.11,29.238,15.761,42.146,13.409,6.347-1.164,10.969-4.262,17.014-7.938,1.039.375-3.269,18.52,6.966,36.331,3.962,6.939,15.756,19.519,24.233,26.815-1.433.653-13.474-5.439-28.566-2.9-11.776,1.959-28.257,18.6-34.411,27.092-1.039-.375-3.011-4.63-4.712-6.424a59.319,59.319,0,0,0-26.088-18.912c-12.538-4.672-21.24-6.881-32.1-4.206C487.374,662.653,487.671,663.43,485.077,663.83Zm-73.9,107.4c.823-2.345,2.75-4.817,3.575-7.123a191.877,191.877,0,0,1,14.716-16.3c7.154-5.341,13.33-9.444,20.481-14.783,2.059-1.366,4.115-2.73,6.314-2.991,1.1-.147,3.311-.43,4.391-.559.98-1.233-.665-5.489-.8-6.575-.265-2.2-.54-4.408-.944-7.683.423-5.633.726-12.368,2.235-18.107a30.243,30.243,0,0,1,8.268-14.412c2.888-3.688,9.216-6.694,11-10.273a13.166,13.166,0,0,0-6.154-4.809c-2.472-1.911-3.837-3.986-6.3-5.911-3.83-4-7.668-7.986-10.406-12.1-.441-.666-2.015-2.847-3.714-5.549-3.171,2.391-6.858,4.88-10.965,5.619.012.228.035.462.041.687a11.99,11.99,0,0,0,1.054,4.994c.163,1.21,1.621,3.476,1.058,4.994-2.72-.418-3.268-5.213-5.816-6.15-.858.844-1.106,3.051-.945,4.256a15.7,15.7,0,0,1-1.162,4.764c-.783,3.741-2.969,14.454-3.016,16.161.456,1.908,8.99,12.251,10.023,15.162-.312-.709-1.666-1.749-2.489-2.632-1.155-1.562-9.836-9.325-10.166-10.04-.919,2.555-.642,4.968-1.064,7.678-.049,1.712-.6,3.227-.832,5.452-.549,1.526,3.693,8.83,5.688,11.275a110.966,110.966,0,0,0,6.734,9.939c-1.333-1.05-10.8-11.423-12.982-13.36-.42,2.741-4.052,17.513-5.216,22.274a108.032,108.032,0,0,1-4.758,17.836c-.431-3.6,1.793-9.692,2.074-13.618.41-2.734,4.434-24.882,4.3-26.06-2.582.778-5.222,3.275-7.164,5.442a31.3,31.3,0,0,1,3.424-6.237A18.116,18.116,0,0,0,424,697.57c.747-2.025,6.429-28.735,7.166-30.765a23.479,23.479,0,0,0,1.022-5.964c-1.941,2.179-6.453,10.145-14.1,15.036,1.06-1.352,1.934-2.177,3.006-3.516,1.071-1.356,1.433-2.359,2.508-3.7,1.774-2.471,6.742-12.745,9.755-19.621a23.559,23.559,0,0,1-4.207-1.446,56.39,56.39,0,0,1-12.23,6.989c-6.329,3.007-12.373,8.213-18.972,9.031-2.188.258-6.7-.3-7.684.929-.953,1.229.55,4.4.673,5.5a67.657,67.657,0,0,1,.665,14.392c-.444,5.627-.575,13.457-3.21,19.37a59.8,59.8,0,0,1-6.474,10.8c-1.914,2.464-4.959,5.068-6.868,7.547-.823,2.329-.823,2.329,1.63,4.257,2.469,1.92,7.14,3.582,10.839,6.467,6.145,4.819,10.4,12.105,13.531,19.519,2.741,4.115,3.276,8.517,5.054,13.869.269,2.2,1.638,4.271,1.9,6.448.145,1.107.389,3.319.542,4.4C410.609,775.749,410.344,773.563,411.177,771.228ZM347.5,633.341a46.192,46.192,0,0,1,13.6,11.808c.671.881,1.193,3.3,2.728,3.481,1.571.179,2.615-2.049,3.491-2.747,13.824-10.968,38.107-17.591,53.276-5.744a16.832,16.832,0,0,1-2.617-11.732c.728-5.12,3.711-10.207,8.422-14.354a20.853,20.853,0,0,1,12.413-5.15c-.326-.766-.626-1.537-.9-2.307-4.706.967-9.349,2.114-13.975,3.079-2.706.085-12.2,1.231-14.329,1.911a30.223,30.223,0,0,0-8.962,5.049c-2.97,2.361-7.17,6.856-10.712,7.593,2.712-3.533,12.635-12.78,13.135-13.867-1.761-1.372-16.136,3.126-20.444,3.8-6.695,1.136-24.772,4.443-26.623,3.827.165-1.511,8.8-2.823,11.582-3.653q7.75-2,15.47-3.985c2.368-.5,10.842-3.756,12.436-4.334,1.189-.244,2.789-.839,3.964-1.091-1.329-1.681-4.791-1.71-6.648-2.3-1.517-.17-4.985-.193-6.425-1.132.852-.66,7.04-1.607,13.464-.291,5.1,1.04,10.8,2.736,12.665,3.33,1.854.6,10.69,1.6,11.537.935-2.806-1.324-3.933-2.173-6.112-3.215-1.441-.931-4.874-1.143-6.86-4.446,2.1,1.783,12.467,5.3,15.18,5.213a57.584,57.584,0,0,0,10.493-.434c-.2-.9-.366-1.778-.482-2.617a15.882,15.882,0,0,1-.008-4.446c.067-.471.182-.922.289-1.377a31.522,31.522,0,0,1-10.583-6.064,13.813,13.813,0,0,1-4.99-4.519c-.686-.871-2.588-5.017-4.988-4.522-1.559-.166-3.483,2.757-5.216,4.129-2.418.5-5.708,1.713-8.128,2.218-9,2.9-17.812,4.244-26.281,2.474a145.238,145.238,0,0,1-18.974-6.127c-4.487-2.089-8.78-5.751-13.268-7.844.159,5.549,2.724,10.569,2,16.781a72.009,72.009,0,0,1-6.623,16.555c-4.538,4.988-9.051,9.981-15.807,13.934-3.267,1.2-10.543,2.728-12.465,5.647C323.844,626.687,335.588,627.248,347.5,633.341Z"/><path class="cls-4" d="M423.884,644.082c3.961,3.735,9.5,5.69,16.43,5.823,5.786.08,10.832-3.793,14.912-6.921l1.167-.884a3.127,3.127,0,0,0,1.206-1.807,20.523,20.523,0,0,0,4.655-10.45,19.382,19.382,0,0,0-.069-6.028,5.706,5.706,0,0,0,1.8-.2c.77-.224,1.6-.5,2.444-.8l-.006,0a20.117,20.117,0,0,0,.706,3.484c1.988,6.4,8.8,12.371,15.81,14.035a4.574,4.574,0,0,0,3.351,1.4c11.97,0,21.146-9.376,22.017-22.5a16.708,16.708,0,0,0-4.551-13.074c-4.385-4.605-11.751-7.233-19.667-7.049-.539.011-1.06.061-1.576.118v.009a18.91,18.91,0,0,0-4.093-11.459c-3.865-4.925-10.162-8.137-17.263-8.832-10.527-1-23.32,5.545-24.9,16.578a15.844,15.844,0,0,0,.008,4.446,36.039,36.039,0,0,0,2.545,8.935,20.846,20.846,0,0,0-12.416,5.15c-4.711,4.146-7.693,9.234-8.422,14.354C417.154,634.237,419.185,639.66,423.884,644.082Zm60.016-11.7a1.906,1.906,0,0,1,.063,2c-.011.027-.011.027-.008.039-.073.117-.143.228-.218.338a2.258,2.258,0,0,1-3.4.7,4.889,4.889,0,0,1-1.675-1.5c-2.831-1.088-5.68-4.64-3-7.138,1.257-1.152,3.45-1.716,4.793-.364a2.105,2.105,0,0,1,1.709.685A6.646,6.646,0,0,1,483.9,632.381Zm-38.106-27.453a2.183,2.183,0,0,1,2.455-2.213,2.264,2.264,0,0,1,1.231-.45,2.325,2.325,0,0,1,2.721,1.06c.7,1.6,1.8,4.219.41,6.251-.069.116-.168.145-.249.232a2.288,2.288,0,0,1-.353.35c-.062.046-.113.1-.177.14a2.187,2.187,0,0,1-1.231.395,2.534,2.534,0,0,1-1.818-.689,2.748,2.748,0,0,1-.387-.226,4.492,4.492,0,0,1-1.319-1.831A3.871,3.871,0,0,1,445.794,604.928Zm-18.15,26.132c.812-.917,2.9-1.732,3.786-.285a3.267,3.267,0,0,1,.478,2.155,7.109,7.109,0,0,1-.27,2.9,2.089,2.089,0,0,1-1.989,1.781,2.055,2.055,0,0,1-1.835-1.247A4.073,4.073,0,0,1,427.644,631.06Z"/><path class="cls-2" d="M452.262,608.854a2.389,2.389,0,0,0,.353-.351c.081-.087.179-.116.248-.231,1.391-2.033.3-4.656-.41-6.252a2.323,2.323,0,0,0-2.72-1.06,2.265,2.265,0,0,0-1.231.451,2.182,2.182,0,0,0-2.455,2.212,3.87,3.87,0,0,0,1.283,3.019,4.49,4.49,0,0,0,1.318,1.831,2.867,2.867,0,0,0,.388.227,2.542,2.542,0,0,0,1.817.689,2.188,2.188,0,0,0,1.232-.4C452.149,608.954,452.2,608.9,452.262,608.854Z"/><path class="cls-2" d="M483.99,633.452c.075-.11.145-.221.218-.338,0-.011,0-.011.008-.039a1.909,1.909,0,0,0-.063-2,6.65,6.65,0,0,0-1.729-5.239,2.107,2.107,0,0,0-1.709-.685c-1.343-1.352-3.536-.788-4.793.364-2.685,2.5.164,6.05,2.995,7.138a4.9,4.9,0,0,0,1.675,1.5A2.258,2.258,0,0,0,483.99,633.452Z"/><path class="cls-2" d="M428.067,635.058A2.055,2.055,0,0,0,429.9,636.3a2.089,2.089,0,0,0,1.989-1.781,7.109,7.109,0,0,0,.27-2.9,3.267,3.267,0,0,0-.478-2.155c-.887-1.447-2.975-.632-3.786.286A4.072,4.072,0,0,0,428.067,635.058Z"/></svg>