<?xml version="1.0" encoding="utf-8"?>
<!-- Generator: Adobe Illustrator 25.3.1, SVG Export Plug-In . SVG Version: 6.00 Build 0)  -->
<svg version="1.1" id="Layer_1" xmlns="http://www.w3.org/2000/svg" xmlns:xlink="http://www.w3.org/1999/xlink" x="0px" y="0px"
	 viewBox="0 0 288 288" style="enable-background:new 0 0 288 288;" xml:space="preserve">
<style type="text/css">
	.st0{fill:#202D5E;stroke:#000001;stroke-width:0.0636;stroke-miterlimit:10;}
	.st1{fill:#536DA0;stroke:#000001;stroke-width:0.0636;stroke-miterlimit:10;}
	.st2{fill:#536DA0;stroke:#000001;stroke-width:0.069;stroke-miterlimit:10;}
	.st3{fill-rule:evenodd;clip-rule:evenodd;fill:#536DA0;stroke:#000001;stroke-width:0.0636;stroke-miterlimit:10;}
	.st4{fill:#202D5E;stroke:#000001;stroke-width:0.0474;stroke-miterlimit:10;}
	.st5{fill:#536DA0;stroke:#000001;stroke-width:0.0474;stroke-miterlimit:10;}
	.st6{fill:#536DA0;stroke:#000001;stroke-width:0.0514;stroke-miterlimit:10;}
	.st7{fill:#202D5E;stroke:#000001;stroke-width:0.073;stroke-miterlimit:10;}
	.st8{fill-rule:evenodd;clip-rule:evenodd;fill:#536DA0;stroke:#000001;stroke-width:0.0474;stroke-miterlimit:10;}
</style>
<path class="st0" d="M238.877,150.927c8.293,0.079,8.229-0.054,8.796-0.043c1.378,0.028,2.637-0.616,3.513-1.533
	c2.835-2.966,0.534-7.887-3.45-7.887H232.23l15.201-23.519c2.038-3.156-0.962-8.11-5.252-6.91c-1.178,0.329-2.202,1.092-2.885,2.15
	l-18.283,28.3h-13.13l25.52-39.427c1.397-2.158,0.415-5.219-1.69-6.45c-2.245-1.314-5.034-0.494-6.448,1.689l-22.603,34.924
	c-3.228-15.02-11.281-28.267-22.456-38.031l42.007-2.136c1.221-0.062,2.431-0.578,3.321-1.414c3.135-2.95,0.504-8.2-3.324-8.012
	l-46.934,2.386l6.576-11.368l33.618-1.685c1.22-0.061,2.43-0.577,3.321-1.414c3.135-2.951,0.5-8.203-3.324-8.012l-28,1.403
	c1.363-2.356,2.478-4.244,3.462-5.911c4.77-8.078,3.467-6.123,4.257-7.432c1.333-2.246,0.537-5.22-1.659-6.504
	c-2.147-1.257-5.142-0.568-6.448,1.691l-7.241,12.52l-10.627-24.714c-0.982-2.285-4.379-2.904-6.45-1.694
	c-2.316,1.355-2.758,3.968-1.692,6.445l12.926,30.064l-7.64,13.209l-18.586-44.854c-1.909-4.611-7.028-4.407-8.89-0.6
	c-0.519,1.062-0.588,2.167-0.196,3.114l16.983,41.001c-13.439-4.344-27.988-4.511-41.55-0.454l16.795-40.546
	c0.935-2.256-0.981-5.276-3.292-5.802c-2.692-0.614-4.758,0.786-5.795,3.288l-18.585,44.854l-7.64-13.209l12.926-30.064
	c1.052-2.445,0.609-5.1-1.692-6.445c-2.049-1.198-5.458-0.612-6.45,1.694L89.752,58.302c-1.042-1.803-1.929-3.374-2.787-4.894
	c-4.124-7.305-3.705-6.314-4.421-7.568c-1.357-2.374-4.389-2.973-6.482-1.748c-2.195,1.284-2.97,4.237-1.691,6.449l7.75,13.398
	c0,0-28.122-1.408-28.184-1.408c-2.389,0-4.639,2.306-4.531,4.719c0.118,2.641,2.056,4.578,4.711,4.712l33.618,1.685l6.576,11.368
	c0,0-47.059-2.391-47.121-2.391c-2.395,0-4.636,2.314-4.528,4.719c0.118,2.639,2.056,4.576,4.711,4.712L88.18,94.13
	c-10.847,9.453-18.765,22.185-22.196,36.635l-21.66-33.467c-2.343-3.617-7.652-2.856-8.658,1.38
	c-0.289,1.215-0.104,2.416,0.52,3.381l25.52,39.427h-13.13l-18.283-28.3c-2.336-3.618-7.648-2.858-8.657,1.375
	c-0.29,1.216-0.105,2.418,0.52,3.385l15.201,23.525c-7.143-0.006-10.92-0.155-15.308-0.012c-0.061,0.002-0.087,0-0.198,0
	c-2.449,0-4.824,2.154-4.71,4.714c0.117,2.612,2.132,4.717,4.713,4.718h14.43l-16.057,21.522c-1.491,1.999-0.396,5.232,1.689,6.452
	c2.312,1.352,4.843,0.461,6.447-1.688l19.605-26.265h15.253l-30.261,39.454c-2.162,2.817,0.995,8.226,5.243,6.898
	c1.079-0.336,2.079-1.074,2.893-2.135l24.801-32.329c3.107,13.393,10.068,25.324,19.643,34.563l-40.087,5.272
	c-2.585,0.341-4.828,2.051-4.709,4.714c0.107,2.41,2.188,5.043,4.717,4.712l49.319-6.487l-7.621,13.224l-32.525,3.841
	c-2.596,0.307-4.827,2.083-4.71,4.714c0.108,2.419,2.168,5.007,4.717,4.712l26.69-3.151c-2.742,4.755-5.027,8.449-7.098,12.317
	c-0.022,0.042-0.072,0.123-0.097,0.168c-1.275,2.214-0.501,5.167,1.691,6.449c2.15,1.258,5.148,0.566,6.449-1.691l7.755-13.456
	l12.796,24.972c0.515,1.006,1.458,1.752,2.653,2.101c4.153,1.218,7.502-2.926,5.488-6.856L95.63,222.983l6.559-11.381l21.412,41.863
	c0.514,1.005,1.455,1.751,2.649,2.1c4.168,1.224,7.496-2.936,5.492-6.854l-17.718-34.64c13.539,4.069,28.177,3.956,41.781-0.474
	l-17.96,35.114c-1.178,2.305-0.554,5.133,1.692,6.447c2.103,1.23,5.283,0.587,6.45-1.692l21.412-41.863l6.559,11.381l-15.339,29.934
	c-0.574,1.12-0.732,2.389-0.445,3.571c1.065,4.374,6.897,4.479,8.586,1.183l12.796-24.972c1.373,2.384,2.456,4.306,3.412,6.003
	c4.595,8.154,3.516,5.964,4.317,7.409c0.154,0.278,0.942,1.674,2.882,2.189c4.225,1.116,7.288-3.423,5.282-6.903l-7.195-12.485
	l26.69,3.151c2.428,0.287,4.823-2.339,4.717-4.714c-0.117-2.616-1.878-4.377-4.71-4.711l-32.525-3.841l-7.621-13.224l49.319,6.487
	c2.444,0.316,4.823-2.369,4.717-4.714c-0.117-2.616-1.834-4.333-4.709-4.712l-41.207-5.419c9.802-9.514,16.838-21.86,19.775-35.704
	l25.79,33.618c1.63,2.124,4.151,3.032,6.447,1.688c2.048-1.198,3.216-4.46,1.689-6.451l-30.261-39.454h15.253l19.605,26.265
	c0.775,1.039,1.805,1.794,2.902,2.127c4.317,1.308,7.355-4.046,5.234-6.89l-16.057-21.516
	C233.378,150.896,237.207,150.912,238.877,150.927z M149.476,138.273l-0.371,0.124c-0.461-0.675-0.967-1.317-1.513-1.92l0.304-0.518
	c6.193-9.534,16.251-17.137,29.932-22.629C169.511,125.829,159.983,134.214,149.476,138.273z M188.631,161.232
	c-14.723,1.148-27.058-1.231-36.706-7.087l-0.441-0.296c0.243-0.808,0.432-1.641,0.561-2.492l0.435-0.059
	C163.671,150.295,175.824,153.636,188.631,161.232z M177.658,102.511c-0.132,0.039-0.264,0.079-0.394,0.127
	c-11.892,4.354-21.637,10.13-29.118,17.244c0.804-10.425-0.842-21.829-4.934-34.068c-0.051-0.151-0.108-0.299-0.168-0.444
	C156.419,87.291,168.433,93.48,177.658,102.511z M134.57,92.251c4.298,14.333,4.738,27.094,1.304,37.979l-0.17,0.464
	c-0.749-0.048-1.518-0.048-2.267,0l-0.17-0.463C129.832,119.345,130.273,106.582,134.57,92.251z M127.238,146.987
	c0.833-3.872,4.018-6.145,7.333-6.145c3.308,0,6.498,2.266,7.332,6.147c1.034,4.814-2.565,9.39-7.332,9.39
	C129.831,156.38,126.196,151.832,127.238,146.987z M126.15,85.247c-0.082,0.185-0.158,0.374-0.223,0.569
	c-4.091,12.238-5.738,23.642-4.933,34.067c-7.481-7.114-17.225-12.891-29.115-17.244c-0.348-0.128-0.702-0.222-1.057-0.288
	C100.228,93.21,112.502,87.008,126.15,85.247z M91.314,113.329c13.678,5.491,23.738,13.094,29.931,22.629l0.304,0.518
	c-0.546,0.604-1.052,1.245-1.513,1.92l-0.371-0.124C109.156,134.213,99.628,125.828,91.314,113.329z M117.656,153.848l-0.441,0.296
	c-9.649,5.857-21.984,8.239-36.706,7.087c12.806-7.594,24.959-10.936,36.151-9.935l0.435,0.059
	C117.224,152.208,117.412,153.04,117.656,153.848z M72.368,154.293c-1.608-13.63,1.276-27.243,8.224-38.965
	c0.13,0.303,0.283,0.598,0.462,0.883c6.876,10.995,14.657,19.48,23.234,25.357c-10.213,1.504-20.816,5.703-31.668,12.553
	C72.533,154.175,72.451,154.235,72.368,154.293z M76.816,171.118c12.492,1.304,23.671,0.396,33.391-2.706
	c-4.897,8.536-8.187,18.835-9.824,30.782C89.974,192.44,81.699,182.665,76.816,171.118z M110.631,199.452
	c2.202-14.882,7.227-26.617,14.958-34.919l0.295-0.289c0.669,0.385,1.366,0.727,2.085,1.022l-0.051,0.573
	C126.39,177.162,120.579,188.456,110.631,199.452z M117.585,206.938c7.862-8.555,13.545-17.382,16.985-26.384
	c3.416,8.937,9.043,17.702,16.818,26.2C140.669,209.847,128.908,210.07,117.585,206.938z M141.223,165.84l-0.051-0.573
	c0.72-0.295,1.416-0.637,2.085-1.022l0.295,0.289c7.73,8.3,12.755,20.036,14.958,34.919
	C148.561,188.456,142.751,177.163,141.223,165.84z M168.688,198.697c-1.66-11.735-4.924-21.868-9.753-30.285
	c9.495,3.032,20.383,3.965,32.531,2.79C186.696,182.432,178.717,191.981,168.688,198.697z M196.005,153.802
	c-10.673-6.66-21.101-10.754-31.152-12.235c8.577-5.877,16.358-14.362,23.236-25.36c0.027-0.043,0.049-0.088,0.075-0.132
	C194.709,127.477,197.454,140.614,196.005,153.802z"/>
</svg>
