<?xml version="1.0" encoding="utf-8"?>
<!-- Generator: Adobe Illustrator 25.3.1, SVG Export Plug-In . SVG Version: 6.00 Build 0)  -->
<svg version="1.1" id="Layer_1" xmlns="http://www.w3.org/2000/svg" xmlns:xlink="http://www.w3.org/1999/xlink" x="0px" y="0px"
	 viewBox="0 0 288 288" style="enable-background:new 0 0 288 288;" xml:space="preserve">
<style type="text/css">
	.st0{fill:#202D5E;stroke:#000001;stroke-width:0.0636;stroke-miterlimit:10;}
	.st1{fill:#536DA0;stroke:#000001;stroke-width:0.0636;stroke-miterlimit:10;}
	.st2{fill:#536DA0;stroke:#000001;stroke-width:0.069;stroke-miterlimit:10;}
	.st3{fill-rule:evenodd;clip-rule:evenodd;fill:#536DA0;stroke:#000001;stroke-width:0.0636;stroke-miterlimit:10;}
	.st4{fill:#202D5E;stroke:#000001;stroke-width:0.0474;stroke-miterlimit:10;}
	.st5{fill:#536DA0;stroke:#000001;stroke-width:0.0474;stroke-miterlimit:10;}
	.st6{fill:#536DA0;stroke:#000001;stroke-width:0.0514;stroke-miterlimit:10;}
	.st7{fill:#202D5E;stroke:#000001;stroke-width:0.073;stroke-miterlimit:10;}
	.st8{fill-rule:evenodd;clip-rule:evenodd;fill:#536DA0;stroke:#000001;stroke-width:0.0474;stroke-miterlimit:10;}
</style>
<path class="st0" d="M221.453,77.119c5.468-0.011,9.846-4.361,9.87-9.654s-4.29-9.496-9.758-9.484
	c-6.568,0.014-11.708,6.321-9.232,12.807l-6.086,5.971l-1.361-16.652c-0.145-2.523-2.534-4.423-5.056-4.266
	c-2.699,0.168-4.622,2.393-4.266,5.056l1.868,24.572l-8.785,8.705l-3.284-34.284c-0.321-2.488-2.497-4.236-4.846-4.126
	c-1.651-1.854-4.596-1.988-6.485-0.512l-27.303,22.273V65.323l19.193-16.058c2.029-1.687,2.163-4.631,0.512-6.485
	s-4.631-2.163-6.661-0.477L146.727,53.33v-9.82c2.941-1.689,5.053-4.847,5.075-8.317c0.033-5.293-4.29-9.496-9.758-9.484
	c-5.468,0.011-9.863,4.361-9.87,9.654c-0.004,3.645,2.072,6.69,5.124,8.261v9.82l-12.931-10.85c-1.966-1.608-4.974-1.322-6.623,0.61
	c-1.741,2.039-1.567,4.875,0.574,6.448l19.198,15.955v12.204L110.3,55.982c-1.966-1.608-4.804-1.217-6.448,0.574
	c-2.559-0.03-4.763,1.692-5.004,4.111L95.432,95.03l-8.833-8.668l1.952-24.615c0.205-2.594-1.692-4.763-4.286-4.968
	s-4.938,1.728-5.143,4.322l-1.373,16.658l-6.357-6.191c0.209-0.772,0.275-1.332,0.276-2.244c0.006-5.293-4.29-9.496-9.758-9.484
	s-9.846,4.361-9.87,9.654c-0.03,6.621,6.63,11.244,12.911,8.847l6.111,5.876l-17.002,1.432c-2.698,0.181-4.622,2.393-4.266,5.056
	c0.162,2.809,2.837,4.532,5.021,4.09l25.273-2.01l8.845,8.575l-35.16,3.462c-2.488,0.321-4.446,2.358-4.301,4.881
	c-1.854,1.651-2.024,4.421-0.548,6.31l22.482,26.574l-12.343,0.125l-16.477-18.519c-1.651-1.854-4.631-2.163-6.661-0.477
	s-2.163,4.631-0.512,6.485l11.132,12.679h-8.202c-1.689-2.941-4.812-4.853-8.457-4.846c-5.468,0.011-9.846,4.361-9.87,9.654
	c-0.024,5.293,4.29,9.521,9.758,9.484c3.821-0.025,7.041-2.144,8.582-5.19h8.027l-11.259,12.861
	c-1.783,2.002-1.567,4.875,0.574,6.448c1.898,1.588,5.017,1.263,6.798-0.645l16.411-18.786l12.343-0.125l-22.633,26.791
	c-1.608,1.966-1.427,4.665,0.539,6.273c-0.065,2.384,1.657,4.588,4.251,4.793l35.197,3.034l-8.785,8.705l-25.141-1.846
	c-2.594-0.205-4.938,1.728-5.143,4.322c-0.205,2.594,1.692,4.763,4.286,4.968l17.148,1.092l-5.492,5.304
	c-6.364-2.605-13.451,2.106-13.482,8.925c-0.024,5.293,4.29,9.496,9.758,9.484s9.846-4.361,9.87-9.654
	c0.069-0.561-0.037-1.086-0.144-1.612l6.086-5.971l1.361,16.652c0.162,2.809,2.837,4.532,5.021,4.09
	c2.698-0.181,4.622-2.393,4.266-5.056l-1.868-24.572l8.785-8.705l3.32,34.459c0.285,2.313,2.287,4.096,4.67,4.161l0.35-0.071
	c1.99,1.982,4.446,1.903,6.45,0.337l27.303-22.273v12.204l-19.193,16.058c-2.993,2.487-1.877,7.732,3.101,8.125
	c1.086-0.037,2.102-0.425,3.047-1.163l13.057-11.027l-0.089,7.676c-3.326,1.584-5.655,4.777-5.73,8.634
	c-0.103,5.292,4.29,9.496,9.758,9.484c5.468-0.011,9.837-4.361,9.87-9.654c0.022-3.47-1.844-6.375-4.547-8.017v-8.202l12.913,10.85
	c1.924,1.609,5.083,1.236,6.798-0.645c1.807-1.981,1.567-4.875-0.574-6.448l-19.198-15.954v-12.204l27.217,21.826
	c1.828,1.529,4.746,1.362,6.273-0.539l0.175-0.035c2.384,0.065,4.553-1.832,4.793-4.251l3.416-34.362l8.845,8.575L195.2,230.91
	c-0.205,2.594,1.692,4.763,4.286,4.968l0.35-0.071c2.384,0.065,4.553-1.832,4.793-4.251l1.373-16.658l6.322,6.015
	c-1.763,6.517,3.083,12.127,9.378,12.114c5.468-0.011,9.846-4.361,9.87-9.654c0.024-5.293-4.29-9.496-9.758-9.484
	c-0.911,0.002-1.962,0.214-2.838,0.391l-6.146-6.051l17.002-1.432c2.699-0.181,4.622-2.393,4.266-5.056
	c-0.145-2.523-2.358-4.446-5.056-4.266l-25.255,2.097L194.941,191l35.16-3.462c2.488-0.321,4.446-2.358,4.301-4.881
	c1.854-1.651,2.199-4.456,0.548-6.31l-22.446-26.399l12.343-0.125l16.477,18.519c0.949,1.085,2.317,1.537,3.614,1.64
	c1.086-0.037,2.113-0.411,3.047-1.163c2.055-1.656,2.163-4.631,0.512-6.485l-11.132-12.697h8.377
	c1.689,2.941,4.809,4.748,8.422,4.653c5.466-0.144,9.846-4.361,9.87-9.654c0.024-5.293-4.29-9.521-9.758-9.484
	c-3.821,0.025-7.041,2.161-8.582,5.208h-8.202l11.236-12.808c1.783-2.002,1.525-4.82-0.574-6.448
	c-2.007-1.556-5.015-1.356-6.623,0.61L225.12,140.5l-12.343,0.125l22.633-26.791c1.608-1.966,1.427-4.665-0.539-6.273
	c0.065-2.384-1.657-4.588-4.251-4.793l-35.203-3.064L204.202,91l25.491,1.775c2.384,0.065,4.577-1.83,4.793-4.251
	c0.231-2.592-1.692-4.763-4.286-4.968l-17.148-1.092l6.541-6.428C220.156,77.017,220.752,77.261,221.453,77.119z M146.728,89.309
	l29.69-24.206l3.572,37.508l-6.856,6.674l-0.791-9.322c3.218-3.021,4.33-7.63,2.54-11.788c-2.315-5.377-8.496-7.757-13.827-5.41
	c-3.85,1.695-6.053,5.235-6.36,9.126l-8.088,6.741L146.728,89.309z M188.872,129.412l-10.642,12.15l-14.166,0.129
	c-0.531-2.628-1.763-5.114-3.135-7.389l10.01-9.864l16.236,1.094c0.142,0.701,0.283,1.401,0.6,2.067
	C188.274,128.257,188.591,128.922,188.872,129.412z M158.669,100.722c1.299,1.014,2.702,1.642,4.421,2.024l1.253,15.215
	l-10.01,9.864c-2.281-1.362-4.906-2.478-7.571-3.034v-13.816L158.669,100.722z M160.927,189.307
	c-1.155,0.598-2.311,1.197-3.045,2.074l-11.399-9.341v-13.816c2.803-0.567,5.295-1.623,7.535-3.17l10.004,9.799l-1.204,13.888
	C162.469,188.813,161.768,188.955,160.927,189.307z M141.798,159.472c-7.29,0.103-13.159-5.727-13.136-12.813
	c0.023-7.115,5.971-12.931,13.198-13.031c7.29-0.101,13.159,5.727,13.136,12.813C154.973,153.556,149.055,159.37,141.798,159.472z
	 M120.746,104.043c1.472,0.067,3.049-0.252,4.555-0.921l1.47-0.844l10.557,8.782v13.816c-2.803,0.567-5.295,1.623-7.535,3.17
	l-9.975-9.805L120.746,104.043z M107.527,65.568l29.767,23.825l-0.085,9.499l-5.688-4.685c0.032-1.647-0.097-3.266-0.816-4.94
	c-2.311-5.379-8.497-7.761-13.827-5.41c-5.356,2.362-7.763,8.498-5.41,13.827c0.035,0.175,0.246,0.315,0.281,0.49l-0.963,11.469
	l-6.814-6.645L107.527,65.568z M112.786,124.95l10.004,9.799c-1.537,2.317-2.514,4.702-3.244,7.402l-14.166,0.129l-10.886-12.356
	c0.699-1.053,1.187-2.246,1.465-3.578L112.786,124.95z M122.869,158.589l-10.01,9.864l-15.325-1.095
	c-0.14-2.435-0.689-3.13-1.728-4.938l9.762-11.09l14.166-0.129C120.301,154.003,121.322,156.349,122.869,158.589z M97.157,109.724
	l6.814,6.645l-10.379,0.822c-2.881-3.429-7.848-4.582-12.174-2.644c-5.342,2.394-7.734,8.485-5.41,13.827
	c1.748,4.018,5.867,6.472,10.177,6.148l6.851,7.732l-9.609,0.119l-24.59-28.883L97.157,109.724z M58.708,180.647l24.667-29.207
	l9.609-0.119l-5.455,6.391c-7.863-0.151-13.289,7.643-10.14,14.783c2.362,5.356,8.476,7.713,13.827,5.41
	c0.837-0.36,1.47-0.844,2.1-1.336l10.698,0.755l-6.856,6.674L58.708,180.647z M137.07,203.581l-29.69,24.206l-3.572-37.508
	l6.856-6.674l0.682,7.885c-2.132,2.984-2.754,6.93-1.176,10.418c4.104,9.069,17.119,8.24,19.841-1.823l7.173-6.009L137.07,203.581z
	 M127.13,190.487c-1.826-1.819-4.212-2.795-6.806-3l-1.036-12.341l10.01-9.864c2.281,1.362,4.906,2.478,7.571,3.034v13.816
	L127.13,190.487z M176.277,227.351l-29.767-23.825l0.085-9.499l8.321,6.888c0.142,0.701,0.293,1.397,0.6,2.067
	c2.439,5.322,8.497,7.761,13.827,5.41c6.821-3.009,8.686-11.906,2.879-17.327l0.615-7.782l6.814,6.645L176.277,227.351z
	 M170.849,168.186l-10.004-9.799c1.537-2.317,2.514-4.702,3.244-7.402l14.166-0.129l10.147,11.411
	c-1.014,1.299-1.781,2.913-2.024,4.421L170.849,168.186z M186.508,183.406l-6.814-6.645l9.322-0.791
	c2.986,3.043,7.594,4.155,11.753,2.365c5.377-2.315,7.782-8.507,5.41-13.827c-1.642-3.683-5.235-6.053-9.091-6.185l-6.605-7.417
	l9.609-0.119l24.625,28.906L186.508,183.406z M224.95,112.454l-24.492,29.172l-9.609,0.119l6.819-7.76
	c1.472,0.067,2.864-0.236,4.204-0.85c5.322-2.439,7.761-8.497,5.41-13.827c-2.362-5.356-8.501-7.769-13.827-5.41
	c-1.507,0.667-2.766,1.653-3.64,2.742l-9.962-0.721l6.856-6.674L224.95,112.454z"/>
</svg>
