<?xml version="1.0" encoding="utf-8"?>
<!-- Generator: Adobe Illustrator 25.3.1, SVG Export Plug-In . SVG Version: 6.00 Build 0)  -->
<svg version="1.1" id="Layer_1" xmlns="http://www.w3.org/2000/svg" xmlns:xlink="http://www.w3.org/1999/xlink" x="0px" y="0px"
	 viewBox="0 0 288 288" style="enable-background:new 0 0 288 288;" xml:space="preserve">
<style type="text/css">
	.st0{fill:#202D5E;stroke:#000001;stroke-width:0.0636;stroke-miterlimit:10;}
	.st1{fill:#536DA0;stroke:#000001;stroke-width:0.0636;stroke-miterlimit:10;}
	.st2{fill:#536DA0;stroke:#000001;stroke-width:0.069;stroke-miterlimit:10;}
	.st3{fill-rule:evenodd;clip-rule:evenodd;fill:#536DA0;stroke:#000001;stroke-width:0.0636;stroke-miterlimit:10;}
	.st4{fill:#202D5E;stroke:#000001;stroke-width:0.0474;stroke-miterlimit:10;}
	.st5{fill:#536DA0;stroke:#000001;stroke-width:0.0474;stroke-miterlimit:10;}
	.st6{fill:#536DA0;stroke:#000001;stroke-width:0.0514;stroke-miterlimit:10;}
	.st7{fill:#202D5E;stroke:#000001;stroke-width:0.073;stroke-miterlimit:10;}
	.st8{fill-rule:evenodd;clip-rule:evenodd;fill:#536DA0;stroke:#000001;stroke-width:0.0474;stroke-miterlimit:10;}
</style>
<path class="st1" d="M247.03,193.587l-16.254-9.351l19.195-9.87c2.278-1.171,3.178-3.977,2.007-6.255
	c-1.189-2.312-3.999-3.168-6.254-2.007l-24.536,12.616l-11.969-6.886l37.052-19.051c1.104-0.567,1.92-1.53,2.299-2.712
	c1.267-3.95-2.894-7.429-6.546-5.55l-42.394,21.796l-16.014-9.213l16.424-9.517c4.369,3.98,11.457,0.895,11.448-5.066
	c-0.008-5.281-5.718-8.497-10.217-5.942l-18.376-10.572l16.659-9.652l42.46,21.666c3.662,1.87,7.807-1.627,6.529-5.57
	c-0.383-1.181-1.201-2.141-2.307-2.705l-37.111-18.936l11.947-6.923l24.575,12.54c2.261,1.155,5.067,0.288,6.248-2.026
	c1.164-2.281,0.255-5.083-2.026-6.248l-19.226-9.811l17.068-9.889c5.95,3.729,13.731-0.555,13.72-7.611
	c-0.008-4.953-4.03-8.963-8.983-8.955c-4.707,0.007-8.555,3.642-8.919,8.254l-17.543,10.164l1.05-21.56
	c0.061-1.239-0.365-2.427-1.199-3.346c-2.757-3.041-7.878-1.255-8.079,2.895l-1.343,27.557l-11.948,6.923l2.028-41.614
	c0.126-2.56-1.847-4.728-4.41-4.866c-2.5-0.134-4.741,1.804-4.868,4.412l-2.32,47.612l-16.673,9.652V98.622
	c2.826-0.846,4.869-3.465,4.865-6.565c-0.006-3.78-3.075-6.84-6.855-6.834c-3.607,0.006-6.551,2.802-6.809,6.342l-17.819,10.316
	V83.406l39.979-25.939c1.041-0.675,1.757-1.715,2.016-2.928c0.863-4.046-3.612-7.103-7.07-4.865l-34.966,22.671V58.536
	l23.136-15.013c2.15-1.394,2.769-4.266,1.37-6.424c-1.408-2.171-4.286-2.755-6.424-1.37l-18.12,11.745V33.311
	c2.465-1.602,4.087-4.376,4.082-7.535c-0.008-4.953-4.03-8.963-8.983-8.955c-4.953,0.008-8.963,4.03-8.955,8.983
	c0.005,3.343,1.852,6.25,4.566,7.788v13.897L124.099,35.8c-2.152-1.384-5.024-0.778-6.421,1.39c-1.389,2.155-0.77,5.03,1.389,6.42
	l23.205,14.942v13.808l-35.013-22.563c-3.453-2.22-7.935,0.834-7.056,4.887c0.263,1.212,0.981,2.251,2.024,2.922l40.088,25.816
	v19.252l-17.317-9.971c0.323-4.087-2.916-7.395-6.828-7.389c-3.78,0.006-6.84,3.075-6.834,6.855c0.004,2.912,1.845,5.39,4.409,6.375
	v19.526l-16.673-9.6l-2.467-47.606c-0.128-2.473-2.166-4.408-4.642-4.404c-2.674,0.004-4.771,2.24-4.636,4.886l2.156,41.608
	l-11.969-6.886l-1.428-27.554c-0.135-2.615-2.396-4.542-4.879-4.397c-2.563,0.15-4.53,2.315-4.399,4.879l1.117,21.556l-15.241-8.769
	c-0.626-4.349-4.36-7.691-8.88-7.684c-4.953,0.008-8.963,4.03-8.955,8.983c0.011,7.315,8.284,11.465,14.152,7.298l14.293,8.223
	l-19.195,9.87c-2.309,1.188-3.168,3.996-2.007,6.255c1.188,2.31,3.993,3.171,6.254,2.007l24.536-12.616l11.969,6.886l-37.053,19.051
	c-1.103,0.567-1.919,1.53-2.299,2.711c-1.268,3.951,2.893,7.43,6.546,5.55l42.394-21.796l16.013,9.212l-18.275,10.589
	c-4.481-3.405-10.986-0.216-10.977,5.458c0.006,3.78,3.075,6.84,6.855,6.834c1.983-0.003,3.762-0.854,5.01-2.203l18.109,10.418
	l-16.659,9.652l-42.461-21.665c-3.654-1.87-7.808,1.624-6.529,5.57c0.383,1.18,1.202,2.14,2.307,2.704l37.111,18.936l-11.948,6.923
	L48.421,166.41c-2.259-1.156-5.067-0.289-6.248,2.025c-1.154,2.26-0.288,5.067,2.026,6.249l19.226,9.811L46.155,194.5
	c-5.928-3.003-13.022,1.296-13.012,8.012c0.008,4.953,4.03,8.963,8.983,8.955s8.963-4.03,8.955-8.983c0-0.154-1.321,0.662,17-9.953
	l-1.051,21.559c-0.059,1.239,0.367,2.428,1.2,3.347c2.722,3.002,7.874,1.319,8.079-2.894l1.344-27.558l11.947-6.923l-2.028,41.614
	c-0.123,2.56,1.847,4.729,4.411,4.866c2.542,0.136,4.744-1.845,4.868-4.412l2.32-47.613l16.675-9.652v21.933
	c-2.562,0.993-4.362,3.476-4.358,6.388c0.006,3.78,3.075,6.84,6.855,6.834c4.607-0.007,7.893-4.481,6.526-8.879l17.592-10.185
	v18.474l-39.979,25.939c-2.151,1.394-2.767,4.269-1.369,6.424c1.408,2.169,4.287,2.756,6.425,1.37l34.964-22.671v13.808
	l-23.137,15.013c-1.042,0.675-1.756,1.715-2.015,2.928c-0.866,4.052,3.623,7.102,7.071,4.865l18.122-11.745v16.118
	c-2.447,1.605-4.052,4.369-4.047,7.514c0.008,4.953,4.03,8.963,8.983,8.955c4.953-0.008,8.963-4.03,8.955-8.983
	c-0.005-3.357-1.869-6.275-4.601-7.809v-15.811l18.133,11.689c3.463,2.228,7.931-0.842,7.055-4.887
	c-0.263-1.212-0.982-2.251-2.025-2.922l-23.203-14.942v-13.808l35.014,22.563c2.141,1.379,5.019,0.786,6.42-1.39
	c1.387-2.154,0.773-5.027-1.39-6.42l-40.088-25.815v-19.253l18.403,10.595c-2.03,4.521,1.284,9.651,6.253,9.643
	c3.78-0.006,6.84-3.075,6.834-6.855c-0.005-3.1-2.089-5.713-4.917-6.55v-22.228l16.671,9.601l2.467,47.605
	c0.132,2.557,2.326,4.54,4.879,4.397c2.562-0.144,4.531-2.315,4.397-4.879l-2.156-41.607l11.969,6.886l1.428,27.553
	c0.132,2.569,2.311,4.539,4.879,4.398c2.562-0.141,4.531-2.315,4.397-4.878l-1.117-21.557l16.623,9.563
	c0.32,4.669,4.202,8.356,8.951,8.349c4.953-0.008,8.962-4.03,8.955-8.983C260.661,194.193,252.953,189.958,247.03,193.587z
	 M142.362,113.4v19.981l-17.319-9.964v-19.982L142.362,113.4z M120.456,151.45l-17.994-10.352l17.289-10.018l17.994,10.352
	L120.456,151.45z M125.13,180.247v-20.759l17.289-10.017v20.759L125.13,180.247z M168.94,102.59v20.759l-17.289,10.018v-20.759
	L168.94,102.59z M169.027,179.401l-17.32-9.963v-19.982l17.32,9.964V179.401z M174.319,151.756l-17.995-10.352l17.289-10.018
	l17.994,10.352L174.319,151.756z"/>
</svg>
