<?xml version="1.0" encoding="utf-8"?>
<!-- Generator: Adobe Illustrator 25.3.1, SVG Export Plug-In . SVG Version: 6.00 Build 0)  -->
<svg version="1.1" id="Layer_1" xmlns="http://www.w3.org/2000/svg" xmlns:xlink="http://www.w3.org/1999/xlink" x="0px" y="0px"
	 viewBox="0 0 864 864" style="enable-background:new 0 0 864 864;" xml:space="preserve">
<style type="text/css">
	.st0{fill:#202D5E;stroke:#000001;stroke-width:0.0636;stroke-miterlimit:10;}
	.st1{fill:#536DA0;stroke:#000001;stroke-width:0.0636;stroke-miterlimit:10;}
	.st2{fill:#536DA0;stroke:#000001;stroke-width:0.069;stroke-miterlimit:10;}
	.st3{fill-rule:evenodd;clip-rule:evenodd;fill:#536DA0;stroke:#000001;stroke-width:0.0636;stroke-miterlimit:10;}
	.st4{fill:#202D5E;stroke:#000001;stroke-width:0.0474;stroke-miterlimit:10;}
	.st5{fill:#536DA0;stroke:#000001;stroke-width:0.0474;stroke-miterlimit:10;}
	.st6{fill:#536DA0;stroke:#000001;stroke-width:0.0514;stroke-miterlimit:10;}
	.st7{fill:#202D5E;stroke:#000001;stroke-width:0.073;stroke-miterlimit:10;}
	.st8{fill-rule:evenodd;clip-rule:evenodd;fill:#536DA0;stroke:#000001;stroke-width:0.0474;stroke-miterlimit:10;}
</style>
<path class="st4" d="M140.65,377.655c0,0.028-0.041,0.217-0.047,0.243C140.585,377.95,140.583,377.916,140.65,377.655z
	 M198.954,500.142c0.002,0.063,0.002,0.186,0.004,0.198C198.962,500.214,198.958,500.154,198.954,500.142z M206.257,422.622
	c0.071-0.035,0.11-0.059,0.136-0.073C206.47,422.505,206.463,422.497,206.257,422.622z M197.569,425.066l-5.777,3.24l16.414,8.67
	c1.528,0.807,1.833,2.813,1.077,4.227c-0.814,1.521-2.803,1.829-4.227,1.077l-19.661-10.385l-7.583,4.253l27.454,14.476
	c1.529,0.806,1.833,2.814,1.077,4.227c-0.814,1.522-2.802,1.828-4.227,1.077l-30.704-16.19l-7.735,4.339l16.103,10.922
	c1.999,1.356,1.944,4.05-0.081,5.351l-16.356,10.509l7.624,4.529l31.114-15.429c1.497-0.742,3.354-0.313,4.194,1.204
	c0.781,1.41,0.289,3.453-1.204,4.194l-27.791,13.781l7.472,4.439l19.93-9.901c1.496-0.743,3.355-0.312,4.194,1.204
	c0.781,1.411,0.288,3.452-1.204,4.194l-16.61,8.251l5.651,3.357c1.893-1.94,4.325-3.257,6.938-3.652
	c0.241-0.036,0.526-0.068,0.772-0.054c4.745,0.005,8.161,4.036,10.516,7.718c2.375,3.714,4.349,7.773,5.456,12.05
	c0.394,1.522-0.591,3.459-2.228,3.75c-3.625,0.646-7.202,0.635-10.845,0.178c-6.218-0.78-14.484-3.04-14.553-10.742
	c-0.012-1.349,0.232-2.707,0.684-4.01l-4.876-2.897l1.852,17.563c0.176,1.666-1.585,3.074-3.107,3.063
	c-1.798-0.012-2.889-1.453-3.063-3.107l-2.26-21.427l-8.686-5.16l3.865,32.513c0.198,1.665-1.602,3.073-3.107,3.063
	c-1.814-0.012-2.867-1.455-3.063-3.107l-4.329-36.41l-6.237-3.705l-0.264,21.2c-0.029,2.337-2.642,3.829-4.661,2.63l-18.242-10.837
	l-0.09,7.257l28.797,22.666c1.364,1.074,1.951,2.593,1.077,4.227c-0.715,1.337-2.954,2.079-4.227,1.077l-25.742-20.262
	l-0.126,10.108l17.09,13.089c1.378,1.055,1.942,2.609,1.077,4.227c-0.723,1.351-2.942,2.061-4.227,1.077l-14.035-10.748l-0.071,5.72
	c5.733,1.191,9.001,5.465,7.747,12.538c-0.479,2.701-1.598,5.28-2.762,7.747c-1.441,3.058-3.206,5.835-5.451,8.372
	c-1.11,1.254-3.273,1.04-4.363-0.086c-3.152-3.258-5.666-7.203-7.603-11.296c-1.816-3.837-3.327-8.709-0.921-12.625
	c0.093-0.173,0.309-0.48,0.51-0.699c1.71-2.088,4.083-3.361,6.67-3.919l0.082-6.602l-15.73,9.889
	c-1.416,0.89-3.42,0.194-4.194-1.204c-0.838-1.514-0.206-3.307,1.204-4.194l18.81-11.826l0.108-8.694l-26.278,16.547
	c-1.415,0.891-3.421,0.193-4.194-1.204c-0.838-1.514-0.205-3.306,1.204-4.194l29.359-18.487l0.11-8.867l-17.524,8.491
	c-2.141,1.037-4.467-0.345-4.58-2.721l-0.925-19.451l-7.734,4.338l-2.193,34.625c-0.106,1.668-1.362,3.075-3.107,3.063
	c-1.599-0.011-3.169-1.445-3.063-3.107l1.963-30.992l-7.584,4.253l-1.388,22.175c-0.104,1.669-1.363,3.075-3.107,3.063
	c-1.6-0.011-3.167-1.445-3.063-3.107l1.161-18.544l-5.738,3.218c0.729,2.611,0.64,5.373-0.307,7.83
	c-0.091,0.237-0.207,0.504-0.347,0.719c-2.294,3.967-7.285,4.967-11.515,5.207c-4.521,0.257-9.188-0.064-13.557-1.274
	c-1.504-0.417-2.731-2.219-2.162-3.79c1.249-3.45,3.034-6.536,5.238-9.455c3.313-4.389,8.525-10.096,14.708-8.109
	c1.963,0.631,3.674,1.857,5.035,3.429l4.954-2.778l-16.152-7.184c-1.579-0.702-1.789-2.896-1.077-4.227
	c0.851-1.59,2.758-1.73,4.227-1.077l19.669,8.749l8.817-4.945l-30.106-12.916c-1.588-0.681-1.781-2.912-1.077-4.227
	c0.858-1.603,2.75-1.71,4.227-1.077l33.679,14.449l6.33-3.551l-18.242-10.837c-2.018-1.199-1.957-4.208,0.081-5.351l18.492-10.372
	l-6.237-3.705l-34.046,13.613c-1.552,0.621-3.302,0.407-4.194-1.204c-0.735-1.329-0.344-3.575,1.204-4.194l30.402-12.156
	l-8.686-5.16l-19.898,8.264c-1.543,0.641-3.311,0.391-4.194-1.204c-0.743-1.342-0.336-3.554,1.204-4.194l16.309-6.773l-4.916-2.92
	c-1.238,1.364-2.759,2.463-4.488,3.115c-3.091,1.165-6.489,0.193-9.049-1.73c-2.658-1.997-4.684-4.554-6.566-7.271
	c-1.907-2.753-3.414-5.642-4.478-8.824c-0.528-1.581,0.698-3.367,2.228-3.75c4.285-1.073,8.794-1.28,13.192-0.972
	c4.36,0.306,9.535,1.38,11.808,5.544c0.136,0.22,0.247,0.495,0.334,0.737c0.927,2.588,0.873,5.232,0.053,7.778l5.697,3.385
	l-0.698-18.533c-0.063-1.672,1.495-3.074,3.107-3.063c1.719,0.012,3.001,1.444,3.063,3.107l0.837,22.238l7.472,4.439l-1.19-30.997
	c-0.064-1.672,1.496-3.074,3.107-3.063c1.719,0.012,2.999,1.444,3.063,3.107l1.332,34.704l7.624,4.529l1.406-19.391
	c0.174-2.401,2.513-3.737,4.661-2.63L131.9,425.2l0.11-8.868l-28.904-19.221c-1.442-0.959-1.899-2.69-1.077-4.227
	c0.759-1.419,2.882-1.971,4.227-1.077l25.844,17.186l0.108-8.693L113.686,388c-1.442-0.958-1.898-2.691-1.077-4.227
	c0.759-1.419,2.881-1.97,4.227-1.077l15.465,10.268l0.082-6.576c-2.634-0.687-4.999-2.151-6.64-4.2
	c-0.149-0.186-0.327-0.426-0.435-0.641c-2.3-3.958-0.655-8.793,1.242-12.567c2.043-4.063,4.672-7.955,7.918-11.147
	c1.128-1.109,3.297-1.18,4.363,0.086c2.378,2.825,4.161,5.952,5.589,9.345c2.405,5.713,4.491,13.643-1.76,17.731
	c-1.232,0.806-2.637,1.339-4.109,1.62l-0.07,5.654l14.312-10.406c1.355-0.985,3.464-0.114,4.194,1.204
	c0.876,1.582,0.142,3.215-1.204,4.194l-17.397,12.649l-0.126,10.106l25.609-19.144c1.388-1.038,3.025-1.185,4.363,0.086
	c1.105,1.05,1.211,3.394-0.086,4.363c-31.431,23.496-29.58,22.138-29.981,22.368l-0.091,7.298l18.52-10.388
	c2.015-1.13,4.609,0.41,4.58,2.721l-0.264,21.233l6.368-3.571c0.007-0.463-0.299,1.811,5.301-37.027
	c0.239-1.659,2.337-2.561,3.79-2.162c1.749,0.48,2.4,2.143,2.162,3.79l-4.564,31.646l8.815-4.944l2.788-21.328
	c0.217-1.659,1.274-3.076,3.107-3.063c1.52,0.01,3.279,1.455,3.063,3.107l-2.293,17.546l4.988-2.798
	c-0.605-1.878-0.787-3.887-0.39-5.824c0.661-3.225,3.355-5.531,6.278-6.724c4.475-1.828,12.436-2.754,19.124-1.392
	c1.625,0.331,2.598,2.265,2.162,3.79c-1.25,4.378-3.411,8.548-6.002,12.285c-2.407,3.471-5.867,7.229-10.443,7.101
	c-0.252,0.007-0.561-0.038-0.808-0.083C201.645,428.41,199.366,427.05,197.569,425.066z M69.17,412.627
	C69.265,412.767,69.317,412.775,69.17,412.627L69.17,412.627z M69.394,412.988C69.371,412.929,69.365,412.918,69.394,412.988
	L69.394,412.988z M69.606,415.291c0.032-0.137,0.016-0.022,0.028-0.26c0.041-0.851,0.019-0.83,0.004-1.13
	c-0.172-0.776-0.083-0.598-0.478-1.283c-0.129-0.128-0.405-0.353-0.484-0.483c-0.478-0.281-0.798-0.43-1.094-0.621
	c-0.035-0.023,0.008-0.004-0.126-0.05c-1.504-0.52-2.614-0.739-4.119-0.866c-2.327-0.197-6.111-0.229-8.561,0.073
	c1.472,2.935,4.938,7.959,7.589,9.704c0.959,0.631,1.445,0.782,2.085,0.908c0.204-0.042,0.779-0.053,0.491,0.013
	c0.359-0.067,0.537-0.121,0.709-0.179c0.264-0.189,0.591-0.3,0.888-0.503c0.322-0.379,0.769-0.681,1.107-1.057
	c0.644-0.719,1.137-1.807,1.418-2.33C69.215,416.734,69.218,416.958,69.606,415.291z M64.084,491.192
	C64.044,491.188,64.04,491.189,64.084,491.192L64.084,491.192z M64.137,491.195c0.047,0.002,0.116,0.005,0.21,0.007
	C64.277,491.201,64.207,491.198,64.137,491.195z M57.364,496.004C57.461,495.884,57.42,495.934,57.364,496.004L57.364,496.004z
	 M66.697,500.913c0.248-0.119,0.862-0.452,1.046-0.637c0.434-0.437,0.321-0.284,0.55-0.678c0.242-0.808,0.401-0.596,0.276-2.42
	c-0.252-1.491-0.73-2.614-1.649-3.959c-1.396-1.672-1.498-1.398-2.184-1.859c-0.688-0.23-0.565-0.147-1.255-0.185
	c-0.594,0.197-0.817,0.064-2.431,1.133c-0.018,0.012-0.098,0.067-0.116,0.083c-0.61,0.583-1.489,1.094-3.462,3.484
	c-1.027,1.243-2.802,3.741-3.817,5.645c2.548,0.379,5.803,0.53,9.793,0.207C63.548,501.707,65.659,501.412,66.697,500.913z
	 M67.476,500.478C67.447,500.496,67.452,500.494,67.476,500.478L67.476,500.478z M68.105,499.915
	C67.903,500.122,67.932,500.195,68.105,499.915L68.105,499.915z M198.954,500.142c-0.006-0.017-0.012,0.058,0.002,0.181
	c0,0.031,0,0.063-0.001,0.094c0.007-0.136-0.005-0.081,0.03,0.079c0.034,0.15,0.092,0.302,0.13,0.452
	c0.067,0.117,0.189,0.335,0.25,0.455c0.092,0.111,0.24,0.299,0.288,0.35c0.121,0.127,0.415,0.385,0.406,0.394
	c0.915,0.66,1.825,1.027,1.774,1.009c3.4,1.309,8.301,1.819,11.504,1.707c-0.656-1.728-2.882-5.994-4.7-8.503
	c-1.163-1.508-1.89-2.069-2.182-2.349c-0.131-0.126-0.816-0.434-1.133-0.689c-0.137-0.03-0.354-0.088-0.545-0.151
	c-0.148-0.048,0.043,0.011-0.521-0.017c-0.169,0.027-0.467,0.07-0.574,0.099c-0.315,0.087-0.689,0.329-0.196,0.044
	c-0.261,0.15-0.544,0.262-0.805,0.416c-0.183,0.108-0.884,0.66-0.323,0.183c-1.876,1.594-1.963,1.933-2.951,3.769
	c0.29-0.538,0.018-0.037-0.083,0.256C198.883,499.211,198.937,499.692,198.954,500.142z M200.002,416.656
	C200.014,417.033,200.013,416.818,200.002,416.656L200.002,416.656z M201.565,420.287
	C201.705,420.503,201.705,420.466,201.565,420.287L201.565,420.287z M209.537,419.786
	C209.329,420.034,209.396,419.967,209.537,419.786L209.537,419.786z M200.238,414.772c-0.08,0.115-0.018-0.039-0.24,0.779
	c0.015,0.089-0.014,0.252-0.016,0.354c-0.005,0.234,0.011,0.465,0.019,0.699c0.281,1.55,0.662,2.282,1.549,3.659
	c0.021,0.033,0.237,0.298,0.314,0.388c0.691,0.81,0.901,0.872,1.164,1.179c0.018,0.021,0.108,0.085,0.13,0.1
	c0.883,0.599,0.936,0.557,1.268,0.719c0.786,0.233,0.449,0.134,1.171,0.172c0.191-0.063,0.299-0.072,0.471-0.122
	c0.151-0.044,0.292-0.14,0.093-0.018c0.303-0.187,0.728-0.374,0.995-0.546c0.157-0.101,0.634-0.556,0.121-0.075
	c0.166-0.156,1.057-0.787,2.269-2.284c1.195-1.476,3.86-5.877,4.955-8.449c-3.055-0.187-9.093,0.268-11.915,1.582
	c-1.334,0.621-1.604,0.951-2.002,1.354C200.52,414.372,200.3,414.682,200.238,414.772z M127.976,457.025l-16.711-9.927
	l-16.953,9.509l16.711,9.927L127.976,457.025z M137.743,451.546l16.952-9.508l0.242-19.435l-16.952,9.508L137.743,451.546z
	 M134.673,380.547C134.186,380.458,134.522,380.53,134.673,380.547L134.673,380.547z M131.172,379.136
	C131.137,379.105,131.143,379.111,131.172,379.136L131.172,379.136z M132.14,379.769c0.779,0.423,1.814,0.647,2.533,0.779
	c0.761,0.084,1.623,0.077,2.287,0.023c0.434-0.075,0.975-0.211,1.6-0.372c0.647-0.284,0.478-0.252,0.916-0.475
	c0.097-0.05,0.059-0.023,0.1-0.062c0.17-0.162,0.339-0.346,0.514-0.505c0.061-0.138,0.105-0.118,0.305-0.521
	c0.044-0.267,0.236-0.72,0.254-0.958c0.02-0.096,0.02-0.092,0.001-0.022c0.042-1.068-0.011-1.74-0.015-1.923
	c-0.122-0.519-0.224-1.871-1.405-4.973c-0.796-1.94-1.767-4.066-2.879-5.853c-1.265,1.603-3.504,5.081-5.077,8.447
	c-0.208,0.701-0.831,2.205-0.901,3.17c-0.023,0.317-0.046,0.898,0.025,1.225c0.032,0.145,0.125,0.351,0.139,0.506
	c0.204,0.345,0.192,0.423,0.793,1.013C131.355,379.266,131.682,379.52,132.14,379.769z M115.765,423.808l-1.306,18.011
	l17.109,10.164l0.248-19.898L115.765,423.808z M114.086,471.889l0.857,18.036l16.249-7.873l0.248-19.896L114.086,471.889z
	 M136.749,534.129c-0.692-0.191-1.686-0.713-4.159-0.462c-0.027,0.014-0.489,0.092-0.609,0.118
	c-1.071,0.231-1.633,0.468-2.494,1.005c0.147-0.083-0.293,0.237-0.407,0.347c-0.258,0.251-0.28,0.327-0.524,0.736
	c0.01,0.218-0.198,1.198-0.157,0.471c-0.064,1.141-0.033,1.111,0.009,1.582c0.212,1.181,0.545,2.338,1.178,3.725
	c1.046,2.292,2.727,5.309,4.49,7.645c1.709-2.601,3.704-6.812,4.399-10.056c0.314-1.464,0.139-1.646,0.186-2.635
	c-0.021-0.108-0.037-0.217-0.061-0.324c-0.043-0.191-0.123-0.386-0.16-0.578c-0.126-0.271-0.048-0.125-0.334-0.575
	C137.411,534.398,138.009,534.905,136.749,534.129z M154.073,492.108l0.242-19.436l-16.711-9.927l-0.242,19.436L154.073,492.108z
	 M157.423,467.342l15.192-9.762l-14.945-10.137l-17.356,9.735L157.423,467.342z"/>
<path class="st4" d="M421.38,667.823c0.051-0.002,0.102,0,0.153,0c1.924-0.002,3.767-1.69,3.678-3.678
	c-0.089-1.991-1.616-3.674-3.678-3.673h-12.218l11.962-18.506c1.078-1.669,0.34-4.061-1.319-5.032
	c-1.783-1.043-3.951-0.353-5.032,1.319l-14.365,22.235h-10.367l20.065-30.999c1.079-1.668,0.339-4.062-1.319-5.032
	c-1.784-1.044-3.95-0.353-5.032,1.319l-22.473,34.727h-10.583l10.351-20.699c1.283-2.567-0.301-5.361-3.176-5.534l-23.124-1.388
	l5.299-9.162l41.286-2.099c1.918-0.098,3.77-1.622,3.678-3.678c-0.085-1.909-1.62-3.782-3.678-3.678l-36.903,1.876l5.193-8.977
	l26.414-1.324c1.918-0.096,3.77-1.623,3.678-3.678c-0.086-1.91-1.62-3.781-3.678-3.678l-22.032,1.104
	c2.875-4.969,4.377-7.347,6.032-10.427c0.024-0.045,0.051-0.089,0.077-0.133c0.994-1.719,0.4-4.026-1.319-5.032
	c-1.715-1.003-4.034-0.405-5.032,1.319l-5.711,9.872l-8.364-19.452c-0.785-1.825-3.468-2.234-5.032-1.319
	c-1.887,1.103-2.107,3.2-1.319,5.032l10.156,23.62l-6.03,10.425l-14.614-35.268c-0.76-1.834-2.439-3.142-4.524-2.569
	c-1.733,0.476-3.334,2.678-2.569,4.524c18.023,43.496,16.856,40.744,17.133,41.219l-4.356,7.53l-12.675-21.955
	c-1.378-2.386-4.974-2.386-6.351,0l-12.675,21.955l-4.354-7.527c0.282-0.491-1.01,2.559,17.131-41.222
	c0.739-1.783-0.797-4.12-2.569-4.524c-2.145-0.489-3.733,0.66-4.524,2.569l-14.614,35.268l-6.03-10.425l10.156-23.62
	c0.784-1.823,0.542-3.943-1.319-5.032c-1.55-0.907-4.243-0.515-5.032,1.319l-8.364,19.452c-2.321-4.012-3.776-6.766-5.634-9.74
	c-0.027-0.043-0.051-0.088-0.077-0.133c-0.994-1.718-3.323-2.319-5.032-1.319c-1.726,1.009-2.317,3.306-1.319,5.032l6.108,10.56
	l-22.032-1.104c-1.924-0.096-3.764,1.76-3.678,3.678c0.093,2.075,1.616,3.574,3.678,3.678l26.414,1.324l5.193,8.977l-36.903-1.876
	c-1.924-0.098-3.764,1.761-3.678,3.678c0.093,2.076,1.616,3.573,3.678,3.678l41.286,2.099l5.299,9.161l-23.124,1.388
	c-2.875,0.173-4.459,2.967-3.176,5.534l10.351,20.699h-10.583l-22.473-34.727c-1.078-1.666-3.262-2.354-5.032-1.319
	c-1.658,0.969-2.403,3.357-1.319,5.032l20.065,30.999h-10.367l-14.365-22.235c-1.077-1.667-3.263-2.354-5.032-1.319
	c-1.659,0.97-2.402,3.357-1.319,5.032l11.962,18.511c-3.728-0.003,7.801,0.008-12.218-0.01c-1.924-0.002-3.767,1.693-3.678,3.678
	c0.089,1.994,1.616,3.681,3.678,3.682h11.38l-12.639,16.94c-1.189,1.593-0.259,4.108,1.319,5.032
	c1.877,1.098,3.84,0.277,5.032-1.319l15.404-20.635h12.039l-23.794,31.022c-1.21,1.577-0.243,4.118,1.319,5.032
	c1.895,1.108,3.819,0.262,5.032-1.319l26.636-34.718h8.638l-12.656,21.924c-1.393,2.413,0.377,5.534,3.176,5.534h25.332
	l-4.315,7.488l-43.366,5.704c-1.9,0.25-3.775,1.512-3.678,3.678c0.08,1.777,1.635,3.946,3.678,3.678l38.779-5.101
	c-0.907,1.574,2.301-3.993-6.015,10.437l-25.555,3.017c-1.904,0.225-3.774,1.53-3.678,3.678c0.081,1.799,1.631,3.919,3.678,3.678
	l21.007-2.48c-2.271,3.941-3.945,6.628-5.597,9.713c-0.024,0.045-0.051,0.089-0.077,0.133c-0.992,1.721-0.402,4.025,1.319,5.032
	c1.713,1.002,4.037,0.407,5.032-1.319l6.111-10.605l10.069,19.65c0.906,1.767,3.385,2.282,5.032,1.319
	c1.795-1.05,2.228-3.258,1.319-5.032l-12.051-23.519l5.179-8.987l16.835,32.915c0.904,1.768,3.386,2.282,5.032,1.319
	c1.796-1.05,2.227-3.257,1.319-5.032l-18.816-36.787l5.284-9.169l12.774,19.347c1.563,2.367,4.788,2.367,6.351,0l12.774-19.347
	l5.284,9.169l-18.816,36.787c-0.904,1.768-0.462,3.99,1.319,5.032c1.643,0.961,4.124,0.456,5.032-1.319l16.835-32.915l5.179,8.987
	l-12.051,23.519c-0.905,1.767-0.461,3.99,1.319,5.032c1.644,0.962,4.123,0.455,5.032-1.319l10.069-19.65
	c2.89,5.015,4.183,7.499,6.035,10.472c0.027,0.043,0.051,0.089,0.077,0.133c0.991,1.72,3.325,2.318,5.032,1.319
	c1.728-1.011,2.315-3.305,1.319-5.032l-5.674-9.846l21.007,2.48c1.918,0.226,3.759-1.853,3.678-3.678
	c-0.098-2.186-1.623-3.435-3.678-3.678l-25.555-3.017l-6.015-10.437l38.779,5.101c1.915,0.252,3.759-1.871,3.678-3.678
	c-0.099-2.208-1.625-3.408-3.678-3.678l-43.366-5.704l-4.315-7.488h25.332c2.799,0,4.569-3.121,3.176-5.534l-12.656-21.924h8.638
	l26.636,34.718c1.207,1.573,3.165,2.411,5.032,1.319c1.549-0.906,2.536-3.446,1.319-5.032l-23.794-31.022h12.039l15.404,20.635
	c1.186,1.589,3.181,2.402,5.032,1.319c1.567-0.916,2.514-3.431,1.319-5.032l-12.639-16.935
	C414.717,667.828,417.883,667.941,421.38,667.823z M332.84,690.027l-5.473-9.48c5.855-10.161,2.396-4.088,5.501-9.45l5.446,9.45
	L332.84,690.027z M314.603,687.963h-23.2l11.6-20.091h4.258l-6.273,10.866c-1.393,2.413,0.377,5.534,3.176,5.534h12.565
	L314.603,687.963z M332.84,638.284l5.216,9.035c-4.761,8.231-2.863,4.905-5.243,8.973l-5.19-8.973L332.84,638.284z M350.793,639.993
	l21.466,1.289l-9.617,19.236h-4.271l6.426-11.128c1.404-2.431-0.445-5.699-3.271-5.699h-12.871L350.793,639.993z M339.567,667.885
	h10.361l5.217,9.032h-10.433C339.6,668.046,342.367,672.809,339.567,667.885z M326.709,660.53h-10.902l-5.474-9.485h10.947
	C326.285,659.697,324.606,656.873,326.709,660.53z M344.4,651.045h10.947l-5.474,9.481c-10.194,0.008-6.561-0.035-10.933-0.042
	L344.4,651.045z M326.143,667.938l-5.175,8.98h-10.433l5.217-9.036C326.022,667.89,320.55,667.903,326.143,667.938z
	 M314.887,639.993l2.138,3.697h-12.871c-1.598,0-3.065,1.166-3.541,2.619c-0.327,0.998-0.283,2.123,0.27,3.08l6.426,11.128h-4.271
	l-9.617-19.236L314.887,639.993z M351.078,687.963l-2.127-3.691h12.565c2.799,0,4.569-3.121,3.176-5.534l-6.273-10.866h4.258
	l11.6,20.091H351.078z M344.44,636.284l-2.132,3.686l-6.292-10.898c-1.378-2.386-4.974-2.386-6.351,0l-6.292,10.898l-2.132-3.686
	l11.6-20.091L344.44,636.284z M320.992,691.609l2.131-3.698l6.445,11.164c1.377,2.384,5.14,2.429,6.542,0l6.445-11.164l2.131,3.698
	l-11.848,17.944L320.992,691.609z"/>
<path class="st5" d="M628.057,250.217c0.081,4.028-2.94,7.147-6.537,7.194h-7.911l0.623,0.671c2.686,2.776,2.76,7.299,0.224,10.071
	c-2.493,2.765-6.739,2.901-9.461,0.069l-10.289-10.663h-5.401l12.632,13.124c1.871,1.935,2.538,4.762,1.739,7.375
	c-1.541,5.053-7.468,6.419-10.975,2.769l-22.299-23.1h-14.278c-0.569,1.758-1.379,3.473-2.388,4.972l7.841,13.91l28.699,7.987
	c1.737,0.48,3.206,1.65,4.134,3.296c2.471,4.373,0.016,10.066-4.804,10.681c-0.833,0.106-1.672,0.044-2.496-0.183l-15.717-4.374
	l2.908,5.159l13.37,3.723c4.13,1.143,6.273,6.035,4.45,10.082c-0.969,2.153-2.885,3.609-5.128,3.895
	c-0.979,0.125-1.629,0.045-2.869-0.282l3.755,6.661c0.93,1.649,1.208,3.571,0.782,5.411c-1.406,6.108-9.101,7.285-12.207,1.788
	l-4.106-7.28l-0.205,0.894c-1.428,6.198-9.145,7.221-12.211,1.791c-0.925-1.646-1.201-3.566-0.778-5.407l3.38-14.688l-2.805-4.971
	l-4.148,18.04c-0.912,3.955-4.637,6.066-8.077,5.088c-3.624-1.005-5.781-4.923-4.912-8.704l7.323-31.83l-7.409-13.143
	c-1.759,0.338-3.514,0.389-5.239,0.181l-7.26,13.996l8.282,30.394c1.009,3.706-0.907,7.702-4.557,8.766
	c-3.608,1.039-7.278-1.318-8.279-4.998l-4.534-16.642l-2.693,5.191l3.859,14.161c1.148,4.212-1.467,8.449-5.516,8.966
	c-3.25,0.414-6.396-1.819-7.319-5.197l-0.111-0.408l-3.483,6.714c-2.361,4.552-8.498,4.899-11.363,0.403
	c-1.44-2.257-1.578-5.116-0.361-7.462l3.802-7.33c-0.802,0.235-1.175,0.365-1.797,0.444c-5.399,0.688-9.425-5.518-6.762-10.624
	c0.864-1.658,2.28-2.841,3.979-3.329l13.668-4.01l2.594-5.004c-18.13,5.328-17.184,5.064-17.758,5.129
	c-3.256,0.365-6.396-1.818-7.317-5.193c-0.851-3.109,0.394-6.36,3.014-8.089c0.79-0.522,0.16-0.29,31.15-9.368l6.857-13.22
	c-1.163-1.436-2.115-2.984-2.846-4.709h-15.093l-20.42,22.446c-3.071,3.381-8.604,2.703-10.778-1.878
	c-1.311-2.767-0.876-5.963,1.111-8.145l11.183-12.252h-5.602l-9.506,10.45c-3.084,3.398-8.615,2.693-10.778-1.868
	c-1.267-2.677-1.016-5.987,1.382-8.432h-7.249c-3.057,0.016-5.689-2.088-6.552-5.265c-1.219-4.495,1.674-8.405,5.355-8.874
	c1.271-0.162,3.006-0.144,8.805-0.154l-0.615-0.638c-4.024-4.159-1.866-11.44,3.713-12.151c2.032-0.259,4.045,0.474,5.523,2.011
	l10.289,10.662h5.398l-12.633-13.128c-2.71-2.81-2.72-7.337-0.218-10.071c2.463-2.731,6.719-2.919,9.46-0.067l22.297,23.099h14.279
	c0.568-1.754,1.378-3.47,2.388-4.972l-7.841-13.909l-28.702-7.987c-1.735-0.48-3.203-1.65-4.129-3.293
	c-2.471-4.377-0.024-10.07,4.804-10.685c0.835-0.106,1.675-0.045,2.494,0.186l15.718,4.374l-2.909-5.16l-13.37-3.722
	c-5.765-1.595-6.978-9.834-1.893-13.051c1.558-0.985,3.382-1.213,5.06-0.743l0.385,0.106l-3.763-6.674
	c-2.493-4.417,0.046-10.068,4.803-10.675c2.759-0.352,5.292,1.114,6.618,3.471l4.109,7.285l0.205-0.894
	c1.28-5.576,7.89-7.166,11.459-2.877c1.482,1.78,2.054,4.207,1.529,6.491l-3.378,14.687l2.803,4.972l4.147-18.031
	c1.274-5.573,7.877-7.176,11.452-2.886c1.487,1.784,2.061,4.21,1.538,6.493l-7.322,31.832l7.41,13.141
	c1.677-0.323,3.452-0.396,5.238-0.181l7.26-13.996l-8.281-30.397c-1.148-4.221,1.491-8.448,5.51-8.96
	c3.257-0.415,6.406,1.819,7.324,5.194l4.536,16.644l2.693-5.192l-3.86-14.165c-1.148-4.23,1.511-8.452,5.503-8.961
	c3.264-0.416,6.417,1.82,7.335,5.199l0.112,0.41l3.483-6.714c1.015-1.958,2.871-3.285,4.964-3.552
	c5.357-0.683,9.412,5.496,6.761,10.612l-3.8,7.327l0.841-0.247c3.656-1.038,7.284,1.353,8.28,4.998
	c1.057,3.888-1.081,7.749-4.545,8.76l-13.667,4.01l-2.594,5.004c18.093-5.316,17.181-5.064,17.759-5.129
	c2.51-0.284,4.961,0.891,6.406,3.158c2.603,4.083,0.687,9.547-3.634,10.797l-29.618,8.691l-6.856,13.225
	c1.161,1.432,2.115,2.98,2.846,4.707h15.093c21.408-23.588,20.9-23.068,21.785-23.593c2.519-1.587,5.841-1.249,8.092,1.088
	c2.63,2.728,2.802,7.24,0.208,10.081l-11.183,12.253h5.601c10.372-11.433,9.933-11.004,10.879-11.601
	c2.528-1.593,5.851-1.242,8.089,1.087c2.605,2.703,2.915,7.327-0.062,10.363h7.245C624.905,243.127,627.971,246.286,628.057,250.217
	z"/>
<path class="st5" d="M406.16,496.371l-11.993-7.146l14.402-7.128c1.709-0.846,2.411-2.924,1.565-4.633
	c-0.859-1.735-2.941-2.404-4.633-1.565l-18.409,9.11l-8.831-5.262l27.799-13.757c0.828-0.409,1.447-1.117,1.742-1.992
	c0.988-2.926-2.07-5.563-4.809-4.206l-31.806,15.74l-11.815-7.041l12.335-6.896c3.207,3.013,8.518,0.797,8.579-3.64
	c0.054-3.931-4.159-6.39-7.538-4.54l-13.558-8.079l12.511-6.995l31.359,16.613c2.704,1.434,5.83-1.121,4.924-4.072
	c-0.271-0.883-0.87-1.608-1.687-2.04l-27.408-14.52l8.973-5.017l18.15,9.615c1.67,0.886,3.769,0.272,4.674-1.437
	c0.893-1.684,0.248-3.781-1.437-4.674l-14.199-7.523l12.818-7.166c4.387,2.844,10.227-0.256,10.3-5.509
	c0.051-3.687-2.897-6.718-6.584-6.769c-3.504-0.048-6.41,2.613-6.734,6.042l-13.175,7.366l1.028-16.037
	c0.059-0.921-0.244-1.811-0.854-2.505c-2.018-2.295-5.85-1.024-6.047,2.062l-1.315,20.497l-8.973,5.017l1.985-30.953
	c0.123-1.904-1.321-3.541-3.227-3.672c-1.86-0.128-3.55,1.289-3.674,3.229l-2.272,35.415l-12.511,6.995l0.199-14.404
	c2.113-0.597,3.675-2.523,3.707-4.831c0.039-2.814-2.211-5.127-5.025-5.166c-2.685-0.037-4.909,2.011-5.141,4.643l-13.371,7.476
	l0.19-13.753l30.067-18.851c0.782-0.491,1.328-1.257,1.534-2.157c0.689-3.002-2.608-5.329-5.207-3.703l-26.279,16.476l0.142-10.279
	l17.402-10.911c1.616-1.013,2.11-3.144,1.093-4.767c-1.023-1.632-3.159-2.1-4.767-1.093l-13.614,8.536l0.146-10.543
	c1.854-1.164,3.101-3.211,3.133-5.562c0.051-3.687-2.897-6.718-6.584-6.769s-6.718,2.897-6.769,6.584
	c-0.034,2.488,1.299,4.673,3.302,5.849l-0.143,10.345l-13.373-8.909c-1.586-1.055-3.731-0.637-4.796,0.961
	c-1.059,1.589-0.63,3.736,0.96,4.795l17.095,11.388l-0.142,10.278l-25.813-17.196c-2.545-1.692-5.916,0.53-5.308,3.557
	c0.182,0.905,0.704,1.687,1.473,2.198l29.534,19.675l-0.198,14.331l-12.788-7.62c0.287-3.039-2.086-5.538-4.998-5.579
	c-2.814-0.039-5.127,2.211-5.166,5.025c-0.03,2.167,1.301,4.033,3.198,4.796l-0.201,14.535l-12.312-7.337l-1.292-35.465
	c-0.067-1.842-1.562-3.306-3.405-3.331c-1.99-0.027-3.577,1.613-3.507,3.584l1.129,30.997l-8.831-5.263l-0.748-20.527
	c-0.071-1.948-1.732-3.409-3.582-3.329c-1.909,0.082-3.398,1.671-3.33,3.582l0.585,16.058l-11.245-6.701
	c-0.416-3.244-3.158-5.775-6.522-5.821c-3.687-0.051-6.718,2.897-6.769,6.584c-0.075,5.445,6.035,8.629,10.451,5.595l10.546,6.284
	l-14.402,7.128c-1.732,0.858-2.404,2.938-1.565,4.633c0.858,1.733,2.936,2.406,4.633,1.565l18.408-9.11l8.831,5.262l-27.799,13.757
	c-0.828,0.409-1.446,1.117-1.742,1.992c-0.989,2.927,2.068,5.564,4.809,4.206l31.806-15.74l11.815,7.041l-13.725,7.674
	c-3.296-2.586-8.175-0.287-8.234,3.937c-0.064,4.63,5.594,6.921,8.78,3.583l13.361,7.962l-12.511,6.995l-31.359-16.612
	c-2.699-1.434-5.831,1.119-4.924,4.072c0.271,0.883,0.871,1.607,1.686,2.039l27.409,14.52l-8.973,5.017l-18.15-9.615
	c-1.668-0.887-3.769-0.273-4.674,1.436c-0.885,1.669-0.272,3.768,1.437,4.675l14.199,7.523l-12.969,7.251
	c-4.378-2.303-9.708,0.816-9.778,5.815c-0.051,3.687,2.897,6.718,6.584,6.769s6.718-2.897,6.769-6.584
	c0.002-0.115-0.991,0.478,12.768-7.215l-1.029,16.036c-0.058,0.922,0.245,1.811,0.855,2.505c1.992,2.266,5.847,1.072,6.047-2.062
	l1.315-20.498l8.973-5.017l-1.985,30.954c-0.121,1.904,1.32,3.541,3.228,3.672c1.891,0.13,3.552-1.319,3.674-3.229l2.272-35.416
	l12.51-6.994l-0.226,16.327c-1.918,0.71-3.299,2.538-3.329,4.705c-0.039,2.814,2.211,5.127,5.025,5.166
	c3.43,0.047,5.927-3.245,4.959-6.535l13.201-7.38l-0.19,13.752l-30.067,18.851c-1.617,1.013-2.109,3.146-1.092,4.767
	c1.023,1.631,3.16,2.101,4.767,1.093l26.278-16.476l-0.142,10.278l-17.403,10.911c-0.783,0.491-1.327,1.257-1.534,2.157
	c-0.691,3.006,2.616,5.328,5.208,3.703l13.614-8.536l-0.166,11.998c-1.84,1.167-3.075,3.206-3.108,5.547
	c-0.051,3.687,2.897,6.718,6.584,6.769c3.687,0.051,6.718-2.897,6.769-6.584c0.035-2.499-1.31-4.692-3.327-5.865l0.163-11.77
	l13.373,8.909c2.552,1.698,5.914-0.536,5.308-3.557c-0.182-0.905-0.705-1.687-1.474-2.198l-17.094-11.387l0.142-10.279
	l25.814,17.196c1.578,1.051,3.727,0.642,4.795-0.961c1.057-1.588,0.633-3.733-0.961-4.795l-29.534-19.675l0.198-14.332l13.589,8.097
	c-1.563,3.342,0.846,7.198,4.544,7.249c2.814,0.039,5.127-2.211,5.166-5.025c0.032-2.308-1.477-4.276-3.572-4.932l0.229-16.547
	l12.313,7.337l1.292,35.464c0.069,1.905,1.679,3.406,3.582,3.329c1.909-0.078,3.4-1.672,3.329-3.582l-1.129-30.996l8.831,5.262
	l0.748,20.526c0.069,1.914,1.668,3.405,3.582,3.33c1.908-0.075,3.4-1.672,3.329-3.581l-0.585-16.059l12.265,7.309
	c0.185,3.479,3.033,6.268,6.568,6.317c3.687,0.051,6.717-2.897,6.769-6.584C416.299,496.977,410.61,493.737,406.16,496.371z
	 M329.152,435.485l-0.206,14.874l-12.778-7.615l0.206-14.874L329.152,435.485z M312.422,463.558l-13.276-7.911l12.984-7.259
	l13.276,7.912L312.422,463.558z M315.584,485.048l0.214-15.453l12.984-7.259l-0.213,15.453L315.584,485.048z M349.059,427.741
	l-0.214,15.453l-12.984,7.259l0.214-15.453L349.059,427.741z M348.269,484.92l-12.779-7.615l0.206-14.874l12.779,7.615
	L348.269,484.92z M352.513,464.402l-13.276-7.912l12.984-7.259l13.276,7.911L352.513,464.402z"/>
<path class="st4" d="M609.692,500.945l2.845,10.801l13.666-3.599l-3.599-13.666l-10.969,2.889l-10.546-6.162l17.882-9.035
	c2.346-1.185,0.336-4.728-1.997-3.549l-20.068,10.139l-3.58-2.092l-4.274-16.227l-16.198,4.266l-6.086-3.556
	c18.656-12.166,17.3-11.23,17.71-11.663h3.082c0.004,0.435,0.146,0.886,0.481,1.3l11.883,14.696c1.649,2.04,4.552-0.821,2.917-2.843
	l-10.628-13.138h8.95l7.159,7.24l9.275-9.18l-9.17-9.285l-7.241,7.151l-8.953-0.089l10.76-13.002
	c0.706-0.853,0.854-2.025,0.037-2.88c-0.697-0.73-2.18-0.883-2.88-0.037l-12.049,14.56c-0.323,0.391-0.528,0.849-0.578,1.312
	l-3.017-0.03c-0.403-0.434,0.911,0.494-17.579-11.866l6.126-3.486l16.148,4.45l4.458-16.177l3.605-2.051l19.941,10.362
	c2.317,1.204,4.387-2.304,2.056-3.515l-17.788-9.243l10.617-6.042l10.935,3.013l3.755-13.624l-13.624-3.755l-2.967,10.767
	c-0.164,0.085-2.276,1.29-10.354,5.887l2.406-19.429c0.136-1.1-1.033-2.025-2.036-2.037c-1.209-0.014-1.903,0.951-2.037,2.036
	l-2.715,21.924l-4.12,2.345l-15.682-4.322l-4.33,15.711l-6.242,3.553c0.137-24.105,0.177-22.453,0.019-23.021
	c0.166-0.254-0.614,1.058,1.816-3.132c0.401,0.032-0.775,0.197,16.836-2.718c2.588-0.428,1.537-4.364-1.031-3.939l-13.212,2.187
	l4.08-7.035l9.845-2.578l-3.321-12.683l-12.684,3.321l2.578,9.845l-4.132,7.004l-4.569-12.588c-0.888-2.446-4.834-1.435-3.939,1.032
	c6.114,16.844,5.656,15.67,5.883,16.007c-2.432,4.123-1.713,2.877-1.84,3.118c-0.576,0.141,1.031-0.706-20.039,11.299v-7.182
	l11.591-11.474l-11.441-11.552v-4.74l17.792-13.112c0.891-0.657,1.35-1.726,0.776-2.773c-0.479-0.872-1.89-1.428-2.773-0.776
	l-15.756,11.62c0.048-9.332,0.063-11.725,0.057-11.91l7.931-7.864l-9.95-10.036l-10.036,9.95l7.955,8.055v12.215l-16.806-10.975
	c-2.195-1.436-4.245,2.083-2.056,3.515l18.795,12.304v4.147l-11.927,11.814l11.775,11.894v7.048
	c-19.82-10.051-18.4-9.368-18.977-9.507l-1.502-2.61c0.379-0.272,0.675-0.677,0.858-1.152l6.785-17.639
	c0.394-1.024-0.461-2.235-1.444-2.492c-1.158-0.303-2.094,0.41-2.492,1.444l-6.059,15.751l-4.465-7.76l2.685-9.816l-12.587-3.443
	l-3.456,12.584l9.813,2.695l4.398,7.795l-16.666-2.822c-2.559-0.433-3.639,3.497-1.048,3.936l18.634,3.155
	c0.524,0.089,0.985-0.008,1.366-0.218l1.515,2.685c-0.175,0.564-0.025-1.097-1.488,21.154l-6.082-3.562l-4.22-16.21l-16.239,4.228
	l-3.578-2.095l-0.998-22.462c-0.116-2.609-4.189-2.63-4.073-0.001l0.889,20.015l-10.54-6.173l-2.858-10.977l-13.676,3.561
	l3.561,13.676l10.809-2.814c0.156,0.1,2.252,1.324,10.272,6.021l-18.007,7.622c-1.02,0.432-1.263,1.886-0.776,2.773
	c0.579,1.055,1.766,1.202,2.773,0.776l20.366-8.62l4.087,2.394l4.099,15.743l15.771-4.106l6.198,3.63
	c-21.114,12.031-19.52,11.065-19.94,11.495c-0.198-0.002,0.281,0-3.621-0.008c-0.176-0.367,0.563,0.583-10.766-13.211
	c-1.666-2.028-4.569,0.832-2.917,2.843l8.508,10.35h-8.13l-7.155-7.245l-9.324,9.218l9.218,9.324l7.237-7.155l8.133,0.077
	l-8.608,10.24c-1.673,1.991,1.157,4.922,2.843,2.917c11.593-13.791,10.748-12.738,10.926-13.108l3.628,0.034
	c0.409,0.426-1.136-0.534,19.812,11.72l-6.239,3.559l-15.723-4.285l-4.277,15.695l-4.116,2.348l-20.255-8.846
	c-1.008-0.44-2.183-0.3-2.785,0.729c-0.505,0.863-0.285,2.342,0.729,2.785l17.93,7.831c-8.04,4.587-10.185,5.807-10.341,5.905
	l-10.777-2.937l-3.716,13.635l13.635,3.716l2.983-10.944l10.611-6.053l-1.118,20.026c-0.146,2.617,3.927,2.616,4.073,0.001
	l1.252-22.427l3.603-2.055l16.189,4.412l4.404-16.16l6.121-3.492c1.21,22.277,1.079,20.614,1.246,21.176l-1.507,2.602
	c-0.425-0.191-0.922-0.247-1.413-0.17l-18.668,2.943c-1.095,0.173-1.702,1.494-1.454,2.485c0.289,1.155,1.405,1.624,2.485,1.454
	l16.685-2.63l-4.487,7.746l-9.844,2.583l3.312,12.622l12.626-3.299l-2.573-9.846l4.553-7.708l5.885,15.833
	c0.386,1.038,1.343,1.74,2.485,1.454c0.986-0.247,1.836-1.457,1.454-2.485l-6.584-17.715c-0.175-0.471-0.469-0.872-0.843-1.143
	l1.532-2.594c0.571-0.13-0.972,0.574,19.047-9.293v7.046l-11.95,11.759l11.768,11.949v4.148l-18.948,12.083
	c-2.205,1.407-0.215,4.961,1.997,3.549l16.87-10.789v12.216l-8.115,7.963l9.922,10.064l10.064-9.922l-7.842-7.954
	c0.01-0.184,0.022-2.652,0.079-11.908l15.613,11.791c0.879,0.664,2.276,0.141,2.785-0.729c0.61-1.043,0.152-2.12-0.729-2.785
	l-17.623-13.32v-4.739l11.599-11.421l-11.419-11.605v-7.183c20.935,12.246,19.375,11.377,19.948,11.525l1.808,3.145
	c-0.236,0.339,0.26-0.894-6.071,15.949c-0.92,2.448,3.019,3.486,3.936,1.048l4.707-12.522l4.053,7.052l-2.69,9.815l12.645,3.465
	l3.465-12.645l-9.815-2.69l-3.999-7.079l13.199,2.339c2.558,0.453,3.637-3.477,1.048-3.936c-17.649-3.128-16.395-2.935-16.792-2.91
	c-2.056-3.64-1.695-3.002-1.782-3.153c0.17-0.58,0.109,1.306,0.247-23.014l6.202,3.623l4.151,15.759l15.731-4.143l4.09,2.39
	l2.468,21.977c0.124,1.101,0.848,2.023,2.036,2.037c1.006,0.012,2.159-0.945,2.037-2.036l-2.182-19.432
	C607.434,499.631,609.529,500.858,609.692,500.945z M556.736,465.294l10.816-6.163c0.774-0.441,1.054-1.14,0.999-1.821
	c0.081-0.691-0.185-1.411-0.968-1.869l-10.755-6.291l4.172-2.375l15.799,10.561l-15.918,10.38L556.736,465.294z M527.111,477.505
	V466.06l9.947-5.676v11.455L527.111,477.505z M550.798,436.902v11.011l-9.564,5.441v-11.001L550.798,436.902z M552.674,462.921
	l-9.891-5.779l9.957-5.666l9.879,5.779L552.674,462.921z M537.16,453.835l-9.882-5.789V436.6l9.882,5.779V453.835z M534.64,457.095
	l-9.556,5.451l-9.504-5.56l9.567-5.451C528.445,453.467,524.094,450.919,534.64,457.095z M541.129,460.911l9.501,5.55v11.011
	l-9.501-5.56V460.911z M559.064,422.825c-0.079,13.913-0.115,19.365-0.103,19.641c-0.124,0.299-0.195,0.603-0.217,0.907
	l-3.857,2.215v-12.2c0.009-1.525-1.675-2.53-3-1.775l-10.589,6.04v-4.482c0.254-0.167,0.496-0.376,0.694-0.628
	C542.239,432.417,547,429.698,559.064,422.825z M537.227,437.676l-10.767-6.291c-0.78-0.456-1.536-0.337-2.099,0.069
	c-0.623,0.285-1.134,0.873-1.139,1.766v12.449l-4.178-2.426l1.247-18.963l16.937,8.595V437.676z M499.271,456.894
	c18.322-10.44,16.825-9.581,17.056-9.73c0.324-0.042,0.625-0.134,0.9-0.267l3.864,2.263l-10.582,6.029
	c-1.34,0.764-1.367,2.75-0.029,3.532l10.522,6.155l-4.021,2.294c-0.166-0.07-0.338-0.127-0.513-0.17
	C516.161,466.755,517.533,467.577,499.271,456.894z M518.889,470.769l4.133-2.378v12.47c-0.005,0.894,0.43,1.483,1.053,1.768
	c0.554,0.408,1.302,0.532,2.083,0.087l10.82-6.174v4.799l-17.059,8.401L518.889,470.769z M558.673,491.642
	c-18.285-10.696-16.867-9.887-17.235-10.036c-0.124-0.132-0.244-0.254-0.387-0.365v-4.628l10.536,6.155
	c1.337,0.782,3.09-0.214,3.099-1.757v-12.178l3.905,2.261c0.018,0.305,0.084,0.611,0.204,0.911
	C558.777,472.28,558.793,470.564,558.673,491.642z"/>
<path class="st6" d="M201.277,722.626l-2.374-21.032l18.796-9.51c1.435-0.726,1.897-2.7,1.133-4.057
	c-0.821-1.458-2.618-1.861-4.057-1.133l-18.648,9.435l-18.218-10.623l27.461-13.869c1.436-0.725,1.896-2.701,1.133-4.057
	c-0.821-1.458-2.617-1.86-4.057-1.133l-30.663,15.486l-9.339-5.446l15.692-10.246c1.945-1.27,1.98-3.871,0.04-5.166l-15.599-10.414
	l9.395-5.35l30.487,15.791c1.381,0.715,3.298,0.406,4.073-1.069c0.72-1.369,0.412-3.306-1.069-4.073l-27.332-14.157
	c4.191-2.386,16.449-9.306,18.365-10.418l18.498,9.598c1.38,0.716,3.298,0.405,4.073-1.069c0.72-1.37,0.412-3.305-1.069-4.073
	l-18.715-9.711l2.593-21.038c0.197-1.596-1.512-2.978-2.979-2.977c-1.77,0.001-2.78,1.376-2.977,2.979l-2.615,21.214l-18.074,10.293
	l4.064-29.721c0.218-1.592-0.422-3.192-2.114-3.643c-1.406-0.375-3.424,0.51-3.643,2.114l-4.777,34.935l-8.863,5.077v-20.525
	c0.011-2.231-2.45-3.699-4.388-2.594l-17.806,10.172v-10.26l28.108-21.318c1.244-0.945,1.126-3.206,0.052-4.212
	c-1.3-1.218-2.879-1.063-4.212-0.052l-23.894,18.136c0.021-4.813,0.134-18.7,0.13-20.829l17.154-12.666
	c1.293-0.954,1.989-2.535,1.133-4.057c-0.713-1.267-2.756-2.093-4.057-1.133l-17.052,12.591l-17.65-11.533
	c-1.306-0.853-3.35-0.306-4.073,1.069c-0.783,1.489-0.33,3.159,1.069,4.073l17.435,11.422v21.091l-25.8-16.856
	c-1.305-0.854-3.351-0.306-4.073,1.069c-0.783,1.49-0.329,3.158,1.069,4.073l28.705,18.802v10.812l-16.756-8.474
	c-2.08-1.054-4.329,0.253-4.48,2.572l-1.219,18.701l-9.33-5.461l-1.569-34.316c-0.073-1.605-1.319-2.978-2.979-2.977
	c-1.555,0.001-3.051,1.366-2.977,2.979l1.405,30.732C89.678,634.158,77.558,627,75.642,625.9l-0.937-20.833
	c-0.072-1.605-1.32-2.978-2.979-2.977c-1.556,0.001-3.05,1.366-2.977,2.979l0.947,21.043l-19.487,8.261
	c-1.482,0.628-1.859,2.766-1.133,4.057c0.864,1.534,2.571,1.762,4.057,1.133l19.711-8.356l17.948,10.505l-28.457,11.621
	c-1.49,0.609-1.852,2.779-1.133,4.057c0.872,1.549,2.563,1.743,4.057,1.133l31.958-13.05l8.855,5.183L88.27,660.809
	c-1.959,1.118-1.997,4.023-0.04,5.166l17.709,10.346l-8.911,5.094l-31.805-13.37c-1.43-0.601-3.257-0.484-4.073,1.069
	c-0.67,1.275-0.469,3.427,1.069,4.073l28.353,11.919c-4.171,2.384-16.252,9.232-18.102,10.305l-19.566-8.532
	c-1.423-0.62-3.263-0.471-4.073,1.069c-0.678,1.291-0.46,3.406,1.069,4.073l19.416,8.466l-1.164,21.066
	c-0.089,1.605,1.435,2.978,2.979,2.977c1.684-0.001,2.888-1.368,2.977-2.979l1.151-20.833l18.312-10.467L91.85,721
	c-0.09,1.605,1.435,2.978,2.979,2.977c1.685-0.001,2.887-1.368,2.977-2.979l1.918-34.264l9.386-5.365l1.029,18.743
	c0.126,2.293,2.381,3.61,4.44,2.594l16.8-8.309v10.811l-28.938,18.498c-1.354,0.867-1.952,2.601-1.133,4.057
	c0.756,1.343,2.697,2.003,4.057,1.133l25.94-16.6c-0.029,4.833-0.17,18.911-0.164,21.117l-17.544,11.21
	c-1.355,0.866-1.952,2.601-1.133,4.057c0.757,1.344,2.696,2.002,4.057,1.133l17.779-11.36l16.911,12.756
	c1.248,0.941,3.385,0.24,4.073-1.069c0.824-1.568,0.268-3.064-1.069-4.073l-17.016-12.882v-20.802l24.368,18.845
	c1.236,0.958,3.392,0.227,4.073-1.069c0.833-1.584,0.255-3.046-1.069-4.073l-27.236-21.14V694.68l17.74,10.346
	c1.957,1.143,4.521-0.316,4.533-2.572V681.96l8.916,5.169l4.326,34.247c0.201,1.593,1.228,2.978,2.979,2.977
	c1.453-0.001,3.18-1.373,2.977-2.979l-3.852-30.496c4.154,2.422,16.121,9.461,17.97,10.524l2.396,21.225
	c0.18,1.596,1.243,2.978,2.979,2.977C199.769,725.604,201.458,724.233,201.277,722.626z M137.406,687.807
	c0.027-4.623,0.132-17.112,0.151-18.735l16.116,9.425v18.785L137.406,687.807z M111.907,672.91l-16.219-9.475l16.316-9.309
	c3.985,2.333,14.749,8.667,16.15,9.497L111.907,672.91z M131.698,639.489c-0.02,4.614-0.113,17.406-0.125,19.189l-16.541-9.681
	l1.132-17.375L131.698,639.489z M156.799,654.154l14.481,9.668l-14.579,9.519c-3.981-2.321-15.014-8.797-16.557-9.702
	L156.799,654.154z M153.873,648.966c-4.008,2.283-14.835,8.438-16.259,9.24v-18.715l16.355-9.308L153.873,648.966z M114.885,678.068
	l16.622-9.49v19.167l-15.668,7.706L114.885,678.068z"/>
<path class="st5" d="M217.258,266.223l-10.748-14.402l9.613-14.877c1.567-2.425,0.574-6.191-1.977-7.538
	c-2.739-1.447-5.865-0.612-7.538,1.977l-9.612,14.879h-9.741l10.88-16.861c1.565-2.426,0.575-6.19-1.977-7.538
	c-2.738-1.446-5.867-0.613-7.538,1.977l-14.475,22.44h-7.27l5.679-11.355c1.923-3.845-0.45-8.032-4.757-8.29l-12.704-0.763
	l3.641-6.294l26.637-1.315c2.874-0.142,5.647-2.432,5.509-5.509c-0.128-2.863-2.426-5.662-5.509-5.509l-20.076,0.991
	c0.851-1.472,4.124-7.095,4.905-8.438l17.631-0.884c2.874-0.144,5.647-2.431,5.509-5.509c-0.128-2.861-2.427-5.664-5.509-5.509
	l-17.726,0.889l-7.121-16.563c-0.507-1.179-2.118-2.208-3.293-2.532c-1.319-0.363-3.075-0.199-4.245,0.555
	c-2.772,1.787-3.311,4.435-1.977,7.538l7.125,16.57l-4.956,8.567l-6.826-16.607c-0.569-1.385-1.187-2.506-2.532-3.293
	c-1.181-0.691-2.921-0.984-4.245-0.555c-1.333,0.431-2.619,1.258-3.293,2.532c-0.644,1.219-1.105,2.908-0.555,4.245l10.536,25.632
	l-2.898,5.011l-7.118-12.329c-2.064-3.574-7.451-3.574-9.514,0l-7.118,12.329l-2.898-5.011l10.536-25.632
	c0.506-1.23,0.084-3.153-0.555-4.245c-0.669-1.143-1.979-2.233-3.293-2.532c-1.41-0.321-2.993-0.252-4.245,0.555
	c-1.286,0.829-1.955,1.889-2.532,3.293l-6.826,16.607c-0.899-1.554-4.193-7.283-4.944-8.593l7.114-16.544
	c0.609-1.417,0.983-2.692,0.555-4.245c-0.352-1.278-1.34-2.663-2.532-3.293c-1.279-0.676-2.828-1.014-4.245-0.555
	c-1.268,0.41-2.741,1.25-3.293,2.532l-7.121,16.563l-17.726-0.889c-2.883-0.144-5.638,2.637-5.509,5.509
	c0.139,3.109,2.421,5.355,5.509,5.509l17.656,0.885l4.88,8.437l-20.076-0.991c-2.883-0.142-5.638,2.636-5.509,5.509
	c0.139,3.107,2.421,5.357,5.509,5.509l26.637,1.315l3.641,6.294l-12.704,0.763c-4.307,0.259-6.68,4.445-4.757,8.29l5.679,11.355
	h-7.27l-14.475-22.44c-1.561-2.419-4.961-3.638-7.538-1.977c-2.418,1.559-3.648,4.947-1.977,7.538l10.88,16.865
	c-1.709-0.001-8.213-0.026-9.757-0.032l-9.597-14.851c-1.562-2.418-4.96-3.639-7.538-1.977c-2.416,1.558-3.65,4.949-1.977,7.538
	l9.613,14.877l-10.748,14.402c-0.8,1.072-0.893,3.018-0.555,4.245c0.352,1.278,1.34,2.663,2.532,3.293
	c2.958,1.563,5.569,0.662,7.538-1.977l10.827-14.503h9.896l-11.809,15.308c-0.809,1.049-0.888,3.039-0.555,4.245
	c0.352,1.278,1.34,2.663,2.532,3.293c1.279,0.676,2.828,1.014,4.245,0.555c1.46-0.473,2.364-1.329,3.293-2.532l16.091-20.852h5.795
	l-7.089,12.281c-2.087,3.614,0.564,8.29,4.757,8.29h14.207l-2.897,5.027l-27.537,3.701c-1.263,0.17-2.684,1.492-3.293,2.532
	c-0.691,1.181-0.984,2.921-0.555,4.245c0.431,1.333,1.258,2.619,2.532,3.293c1.406,0.743,2.687,0.765,4.245,0.555l17.725-2.382
	c-0.888,1.542-4.205,7.265-4.972,8.587l-17.918,2.116c-1.511,0.178-2.778,0.496-3.896,1.614c-0.956,0.956-1.675,2.523-1.614,3.896
	c0.064,1.425,0.532,2.903,1.614,3.896c1.003,0.921,2.478,1.781,3.896,1.614l17.877-2.111l8.106,15.819
	c1.317,2.57,5.133,3.527,7.538,1.977c2.622-1.69,3.385-4.789,1.976-7.538l-8.048-15.707l4.867-8.446l9.193,17.909
	c1.319,2.569,5.131,3.528,7.538,1.977c2.62-1.689,3.387-4.79,1.977-7.538l-12.166-23.699l3.63-6.299l7.028,10.645
	c2.341,3.546,7.173,3.546,9.514,0l7.028-10.645l3.63,6.299L137.2,312.903c-1.315,2.562-0.752,6.096,1.977,7.538
	c2.521,1.332,6.133,0.761,7.538-1.977l9.193-17.909c0.859,1.49,4.093,7.138,4.855,8.471l-8.036,15.682
	c-1.313,2.562-0.753,6.096,1.976,7.538c2.519,1.331,6.135,0.762,7.538-1.977l8.106-15.819l17.877,2.111
	c1.305,0.154,3.008-0.726,3.896-1.614c0.956-0.956,1.675-2.523,1.614-3.896c-0.136-3.039-1.891-5.082-5.509-5.509l-17.944-2.119
	l-4.946-8.584l17.725,2.382c1.539,0.207,2.844,0.265,4.245-0.555c1.143-0.669,2.233-1.979,2.532-3.293
	c0.321-1.41,0.252-2.993-0.555-4.245c-0.716-1.111-1.916-2.347-3.293-2.532l-27.537-3.701l-2.897-5.027h14.207
	c4.193,0,6.844-4.676,4.757-8.29l-7.089-12.281h5.795l16.091,20.852c0.918,1.19,1.779,2.115,3.293,2.532
	c1.319,0.363,3.075,0.199,4.245-0.555c1.176-0.758,2.212-1.888,2.532-3.293c0.305-1.337,0.325-3.104-0.555-4.245l-11.809-15.304
	c1.787-0.001,8.396,0.011,9.913,0.015l10.809,14.484c0.89,1.193,1.802,2.121,3.293,2.532c1.319,0.363,3.075,0.199,4.245-0.555
	c1.176-0.758,2.212-1.888,2.532-3.293C218.121,269.117,218.125,267.386,217.258,266.223z M118.698,266.85h-11.013l5.507-9.535
	h10.998L118.698,266.85z M113.326,246.297l-4.579-9.163l10.221-0.613l5.657,9.777H113.326z M133.951,221.357l5.507,9.538
	l-5.507,9.52l-5.507-9.52L133.951,221.357z M133.951,280.783l-5.64-8.542l5.64-9.786l5.639,9.786L133.951,280.783z M143.277,246.297
	l5.657-9.776l10.221,0.614l-4.579,9.163H143.277z M149.204,266.85l-5.492-9.535h10.998l5.507,9.535H149.204z"/>
<path class="st4" d="M398.658,300.645l-1.62-13.514l11.886-6.117c2.339-1.204,3.264-4.628,1.862-6.85
	c-1.506-2.387-4.354-3.146-6.85-1.862l-12.153,6.254l-3.957-2.201l7.405-3.811c2.339-1.204,3.264-4.628,1.862-6.85
	c-1.506-2.387-4.354-3.146-6.85-1.862l-12.948,6.663l-7.366-4.098l6.804-3.493c2.34-1.201,3.263-4.629,1.862-6.85
	c-1.507-2.389-4.352-3.144-6.85-1.862l-12.355,6.342l-16.705-9.295l16.676-9.354l12.35,6.285c2.336,1.189,5.562,0.646,6.852-1.849
	c1.197-2.316,0.657-5.577-1.849-6.852l-6.841-3.481l7.356-4.126l12.945,6.604c2.335,1.191,5.563,0.645,6.852-1.849
	c1.198-2.318,0.656-5.574-1.849-6.852l-7.431-3.791c1.322-0.731,2.643-1.465,3.95-2.22l12.141,6.194
	c2.335,1.191,5.563,0.645,6.852-1.849c1.198-2.318,0.656-5.574-1.849-6.852l-11.936-6.09l1.578-13.573
	c0.135-1.161-0.67-2.706-1.45-3.494c-0.876-0.886-2.338-1.553-3.604-1.489c-1.273,0.065-2.604,0.486-3.494,1.45l-0.82,1.067
	c-0.449,0.787-0.672,1.632-0.669,2.537l-1.543,13.27l-4.246,2.382l0.921-7.921c0.135-1.161-0.67-2.706-1.45-3.494
	c-0.876-0.886-2.338-1.553-3.604-1.489c-1.273,0.065-2.604,0.486-3.494,1.45l-0.82,1.067c-0.449,0.787-0.672,1.632-0.669,2.537
	l-1.613,13.868l-7.166,4.02l0.68-5.162c0.178-1.353,0.201-2.517-0.504-3.75c-0.619-1.082-1.86-2.103-3.1-2.366
	c-1.249-0.265-2.639-0.196-3.75,0.504c-1.061,0.67-2.194,1.794-2.366,3.1l-1.814,13.761c-0.589,0.33-16.127,9.045-16.265,9.122
	l-0.297-18.645l10.981-8.49c0.958-0.74,1.498-2.453,1.489-3.604c-0.009-1.206-0.549-2.662-1.45-3.494
	c-0.968-0.894-2.249-1.558-3.604-1.489l-1.272,0.174c-0.851,0.233-1.592,0.658-2.223,1.276l-4.119,3.185l-0.131-8.216l11.174-8.37
	c1.124-0.842,1.999-1.679,2.366-3.1c0.302-1.169,0.151-2.711-0.504-3.75c-0.703-1.114-1.772-2.085-3.1-2.366
	c-1.187-0.252-2.732-0.258-3.75,0.504l-6.373,4.774c-0.017-1.622-0.036-3.244-0.082-4.865l10.688-8.006
	c1.124-0.842,1.999-1.679,2.366-3.1c0.302-1.169,0.151-2.711-0.504-3.75c-0.703-1.114-1.772-2.085-3.1-2.366
	c-1.187-0.252-2.732-0.258-3.75,0.504l-10.937,8.192l-11.268-7.253c-2.211-1.423-5.649-0.477-6.852,1.849
	c-1.301,2.518-0.519,5.327,1.849,6.852l11.468,7.382l0.072,4.533l-7.025-4.522c-2.211-1.423-5.649-0.477-6.852,1.849
	c-1.301,2.518-0.519,5.327,1.849,6.852l12.22,7.866l0.134,8.433l-6.45-4.161c-2.209-1.425-5.65-0.476-6.852,1.849
	c-1.303,2.52-0.518,5.325,1.849,6.852l11.645,7.512l0.303,19.118l-16.435-9.763l-0.734-13.868c-0.069-1.298-0.521-2.555-1.45-3.494
	c-0.876-0.886-2.338-1.553-3.604-1.489c-2.613,0.133-5.132,2.251-4.983,5.055l0.404,7.638l-7.247-4.305l-0.755-14.543
	c-0.067-1.297-0.522-2.556-1.45-3.494c-0.876-0.886-2.338-1.553-3.604-1.489c-2.615,0.133-5.129,2.251-4.983,5.055l0.431,8.303
	c-1.292-0.779-2.587-1.555-3.893-2.309l-0.708-13.64c-0.067-1.297-0.522-2.556-1.45-3.494c-0.876-0.886-2.338-1.553-3.604-1.489
	c-2.615,0.133-5.129,2.251-4.983,5.055l0.693,13.349l-12.495,5.398c-1.118,0.483-2.076,1.977-2.366,3.1
	c-0.302,1.169-0.151,2.711,0.504,3.75c1.626,2.577,4.097,3.051,6.85,1.862l12.318-5.322l4.173,2.479l-7.268,3.14
	c-1.118,0.483-2.076,1.977-2.366,3.1c-0.302,1.169-0.151,2.711,0.504,3.75c1.626,2.577,4.097,3.051,6.85,1.862l12.871-5.561
	l7.062,4.195l-5.967,2.47c-1.116,0.462-2.08,1.995-2.366,3.1c-0.302,1.169-0.151,2.711,0.504,3.75
	c0.703,1.114,1.772,2.085,3.1,2.366l1.291,0.159c0.876-0.011,1.695-0.232,2.458-0.663l11.67-4.832
	c0.589,0.35,15.909,9.451,16.037,9.528l-16.009,9.586l-11.659-4.779c-1.294-0.53-2.4-0.875-3.809-0.495
	c-1.188,0.321-2.468,1.232-3.043,2.344c-0.597,1.154-0.898,2.534-0.495,3.809c0.37,1.171,1.148,2.553,2.344,3.043l6.003,2.461
	l-7.056,4.225l-12.863-5.504c-1.274-0.545-2.419-0.87-3.809-0.495c-1.188,0.321-2.468,1.232-3.043,2.344
	c-0.597,1.154-0.898,2.534-0.495,3.809c0.374,1.183,1.148,2.532,2.344,3.043l7.296,3.122c-1.394,0.825-2.787,1.652-4.166,2.501
	l-12.306-5.265c-1.274-0.545-2.419-0.87-3.809-0.495c-1.188,0.321-2.468,1.232-3.043,2.344c-0.597,1.154-0.898,2.534-0.495,3.809
	c0.374,1.183,1.148,2.532,2.344,3.043l12.539,5.366L268.73,302.5c-0.127,2.627,2.452,5.116,5.055,4.983
	c2.838-0.144,4.847-2.245,4.983-5.055l0.658-13.596l3.891-2.33l-0.405,8.373c-0.127,2.627,2.452,5.116,5.055,4.983
	c2.838-0.144,4.847-2.245,4.983-5.055l0.701-14.489l7.238-4.334l-0.38,7.694c-0.13,2.627,2.453,5.116,5.055,4.983
	c2.84-0.144,4.844-2.245,4.983-5.055l0.682-13.814l16.406-9.822l-0.237,19.119l-11.596,7.539c-1.131,0.735-2.021,1.766-2.366,3.1
	c-0.302,1.169-0.151,2.711,0.504,3.75c1.383,2.193,4.5,3.39,6.85,1.862l6.459-4.199l-0.105,8.435l-12.17,7.894
	c-1.131,0.733-2.021,1.767-2.366,3.1c-0.302,1.169-0.151,2.711,0.504,3.75c1.385,2.195,4.498,3.387,6.85,1.862l7.021-4.555
	c-0.029,1.511-0.055,3.022-0.053,4.533l-11.411,7.402c-1.131,0.733-2.021,1.767-2.366,3.1c-0.302,1.169-0.151,2.711,0.504,3.75
	c1.385,2.195,4.498,3.387,6.85,1.862l11.262-7.306l10.945,8.138c0.961,0.714,2.705,0.792,3.809,0.495
	c1.188-0.321,2.468-1.232,3.043-2.344c0.597-1.154,0.898-2.534,0.495-3.809l-0.489-1.187c-0.452-0.784-1.07-1.403-1.854-1.857
	l-10.744-7.989l0.06-4.862l6.377,4.742c0.961,0.714,2.705,0.792,3.809,0.495c1.188-0.321,2.468-1.232,3.043-2.344
	c0.597-1.154,0.898-2.534,0.495-3.809l-0.489-1.187c-0.452-0.784-1.07-1.403-1.854-1.857l-11.227-8.348l0.102-8.223l5.146,3.95
	c0.941,0.723,2.723,0.788,3.809,0.495c1.188-0.321,2.468-1.232,3.043-2.344c0.597-1.154,0.898-2.534,0.495-3.809l-0.489-1.187
	c-0.452-0.784-1.07-1.403-1.854-1.857l-9.995-7.672c0.009-0.696,0.231-18.518,0.233-18.659l16.301,9.068l1.695,12.517
	c0.184,1.356,0.445,2.479,1.45,3.494c0.876,0.886,2.338,1.553,3.604,1.489c1.273-0.065,2.604-0.486,3.494-1.45
	c0.848-0.918,1.665-2.303,1.489-3.604l-0.867-6.4l7.178,3.993l1.669,13.921c0.161,1.346,0.46,2.493,1.45,3.494
	c0.876,0.886,2.338,1.553,3.604,1.489c1.273-0.065,2.604-0.486,3.494-1.45c0.857-0.927,1.646-2.292,1.489-3.604l-0.941-7.851
	c1.409,0.793,2.819,1.586,4.24,2.353l1.596,13.319c0.161,1.346,0.46,2.493,1.45,3.494c0.876,0.886,2.338,1.553,3.604,1.489
	c1.273-0.065,2.604-0.486,3.494-1.45C398.026,303.322,398.816,301.958,398.658,300.645z"/>
<path class="st7" d="M795.943,614.152c4.07,0.084,7.402-3.08,7.509-7.019c0.107-3.939-3.033-7.14-7.103-7.223
	c-4.889-0.101-8.82,4.508-7.087,9.376l-4.63,4.342l-0.732-12.417c-0.066-1.88-1.811-3.335-3.691-3.26
	c-2.012,0.08-3.48,1.703-3.26,3.691l0.976,18.32l-6.685,6.331l-1.867-25.572c-0.197-1.857-1.787-3.195-3.537-3.152
	c-1.198-1.408-3.387-1.557-4.818-0.491l-20.728,16.117l0.269-9.081l14.524-11.629c1.539-1.221,1.688-3.41,0.491-4.818
	c-1.198-1.408-3.41-1.688-4.949-0.467l-9.904,7.987l0.181-7.308c2.217-1.207,3.835-3.523,3.91-6.105
	c0.114-3.939-3.033-7.14-7.103-7.223c-4.07-0.084-7.415,3.079-7.509,7.019c-0.065,2.713,1.437,5.015,3.682,6.235l-0.181,7.308
	l-9.434-8.293c-1.436-1.23-3.68-1.068-4.94,0.342c-1.33,1.488-1.249,3.602,0.319,4.809l14.052,12.199l-0.269,9.081l-19.858-16.703
	c-1.436-1.23-3.555-0.987-4.809,0.319c-1.904-0.065-3.574,1.179-3.793,2.976l-3.121,25.518l-6.428-6.6l1.868-18.288
	c0.196-1.927-1.179-3.574-3.107-3.77c-1.927-0.196-3.705,1.203-3.901,3.13l-1.303,12.375l-4.627-4.715
	c1.233-4.181-1.91-8.787-6.86-8.889c-4.07-0.084-7.402,3.08-7.509,7.019c-0.134,4.927,4.745,8.481,9.46,6.802l4.449,4.476
	l-12.679,0.779c-2.011,0.089-3.48,1.703-3.26,3.691c0.072,2.062,2.005,3.426,3.668,3.129l18.844-1.07l6.438,6.531l-26.227,1.984
	c-1.857,0.197-3.349,1.68-3.283,3.56c-1.408,1.198-1.581,3.256-0.514,4.687l16.285,20.157l-9.189-0.115l-11.952-14.061
	c-1.198-1.408-3.41-1.688-4.949-0.467s-1.688,3.41-0.491,4.818l8.071,9.618l-6.105-0.125c-1.207-2.217-3.5-3.7-6.213-3.755
	c-4.07-0.084-7.402,3.08-7.509,7.019c-0.107,3.939,3.033,7.158,7.103,7.223c2.844,0.045,5.276-1.484,6.475-3.725l5.974,0.149
	l-8.597,9.376c-1.361,1.46-1.249,3.602,0.319,4.809c1.386,1.214,3.713,1.025,5.071-0.366l12.531-13.706l9.189,0.115l-17.297,19.558
	c-1.23,1.436-1.141,3.448,0.295,4.678c-0.089,1.773,1.156,3.443,3.083,3.639l26.145,2.852l-6.685,6.331l-18.681-1.798
	c-1.927-0.196-3.705,1.203-3.901,3.13s1.179,3.574,3.107,3.77l12.744,1.102l-4.177,3.855c-4.693-2.046-10.047,1.341-10.185,6.416
	c-0.107,3.939,3.033,7.14,7.103,7.223s7.402-3.08,7.509-7.019c0.061-0.416-0.009-0.809-0.08-1.202l4.631-4.342l0.732,12.417
	c0.072,2.062,2.005,3.426,3.668,3.129c2.011-0.089,3.48-1.703,3.26-3.691l-0.976-18.32l6.685-6.331l1.89,25.703
	c0.173,1.726,1.633,3.087,3.406,3.176l0.262-0.047c1.448,1.508,3.277,1.491,4.795,0.36l20.728-16.117l-0.269,9.081l-14.524,11.629
	c-2.269,1.801-1.528,5.723,2.171,6.1c0.809-0.009,1.572-0.281,2.287-0.814l9.904-7.987l-0.196,5.712
	c-2.503,1.123-4.29,3.46-4.41,6.33c-0.166,3.937,3.033,7.14,7.103,7.223s7.395-3.08,7.509-7.019
	c0.075-2.582-1.259-4.776-3.243-6.043l0.125-6.105l9.434,8.293c1.405,1.23,3.762,1.005,5.071-0.366
	c1.378-1.444,1.249-3.602-0.319-4.809l-14.052-12.199l0.269-9.081l19.858,16.703c1.335,1.169,3.509,1.094,4.678-0.295l0.131-0.023
	c1.773,0.089,3.419-1.287,3.639-3.083l3.121-25.518l6.438,6.531l-1.868,18.288c-0.196,1.927,1.179,3.574,3.107,3.77l0.262-0.047
	c1.773,0.089,3.419-1.287,3.639-3.083l1.303-12.375l4.604,4.584c-1.422,4.821,2.09,9.078,6.776,9.174
	c4.07,0.084,7.402-3.08,7.509-7.019s-3.033-7.14-7.103-7.223c-0.678-0.014-1.464,0.126-2.119,0.244l-4.473-4.607l12.679-0.779
	c2.011-0.089,3.48-1.703,3.26-3.691c-0.066-1.88-1.68-3.349-3.691-3.26l-18.832,1.135l-6.438-6.531l26.227-1.984
	c1.857-0.197,3.349-1.68,3.283-3.56c1.408-1.198,1.712-3.279,0.514-4.687l-16.261-20.026l9.189,0.115l11.952,14.061
	c0.688,0.823,1.698,1.183,2.662,1.281c0.809-0.009,1.58-0.27,2.287-0.814c1.557-1.198,1.688-3.41,0.491-4.818l-8.071-9.618
	l6.236,0.102c3.46,6.354,13.502,3.803,13.698-3.394c0.107-3.939-3.033-7.158-7.103-7.223c-2.844-0.045-5.276,1.484-6.475,3.725
	l-6.105-0.126l8.579-9.35c1.361-1.46,1.217-3.562-0.319-4.809c-1.468-1.192-3.71-1.094-4.94,0.342l-12.531,13.706l-9.189-0.115
	l17.297-19.558c1.23-1.436,1.141-3.448-0.295-4.678c0.089-1.773-1.156-3.443-3.083-3.639l-26.149-2.873l6.685-6.331l18.943,1.751
	c1.773,0.089,3.438-1.285,3.639-3.083c0.216-1.925-1.179-3.574-3.107-3.77l-12.744-1.102l4.977-4.674
	C794.98,614.054,795.419,614.246,795.943,614.152z M740.121,621.965l22.505-17.515l2.026,27.977l-5.215,4.852l-0.431-6.951
	c2.446-2.194,3.351-5.606,2.089-8.731c-1.632-4.041-6.192-5.917-10.2-4.259c-2.894,1.197-4.593,3.794-4.888,6.685l-6.134,4.881
	L740.121,621.965z M770.812,652.523l-8.125,8.863l-10.546-0.143c-0.351-1.965-1.226-3.836-2.209-5.552l7.616-7.173l12.066,1.088
	c0.094,0.524,0.187,1.048,0.412,1.548C770.387,651.653,770.611,652.154,770.812,652.523z M748.816,630.661
	c0.95,0.776,1.984,1.267,3.256,1.581l0.676,11.345l-7.616,7.173c-1.675-1.052-3.588-1.927-5.562-2.385l0.19-10.284L748.816,630.661z
	 M749.004,696.631c-0.87,0.426-1.74,0.852-2.301,1.493l-8.305-7.144l0.19-10.284c2.096-0.375,3.99-1.119,5.683-2.232l7.281,7.462
	l-1.13,10.316C750.16,696.289,749.636,696.383,749.004,696.631z M735.27,674.103c-5.427-0.046-9.697-4.484-9.561-9.758
	c0.137-5.295,4.662-9.524,10.043-9.476c5.427,0.048,9.697,4.484,9.561,9.758C745.175,669.922,740.672,674.149,735.27,674.103z
	 M720.535,632.494c1.095,0.075,2.273-0.136,3.405-0.609l1.109-0.604l7.687,6.713l-0.19,10.284c-2.096,0.375-3.99,1.119-5.683,2.232
	l-7.259-7.466L720.535,632.494z M711.345,603.635l21.753,18.234l-0.224,7.068l-4.154-3.583c0.051-1.226-0.017-2.432-0.524-3.691
	c-1.63-4.042-6.193-5.919-10.2-4.259c-4.027,1.668-5.921,6.194-4.259,10.2c0.023,0.131,0.178,0.239,0.201,0.37l-0.91,8.52
	l-4.959-5.061L711.345,603.635z M714.258,647.92l7.281,7.462c-1.183,1.698-1.95,3.457-2.539,5.455l-10.546-0.143l-7.894-9.38
	c0.538-0.772,0.921-1.651,1.15-2.638L714.258,647.92z M721.196,673.127l-7.616,7.173l-11.388-1.074
	c-0.063-1.814-0.46-2.341-1.203-3.705l7.452-8.09l10.546,0.143C719.362,669.67,720.082,671.433,721.196,673.127z M702.883,636.324
	l4.959,5.061l-7.739,0.437c-2.087-2.601-5.764-3.543-9.016-2.173c-4.017,1.692-5.899,6.185-4.259,10.2
	c1.233,3.02,4.258,4.916,7.471,4.747l4.969,5.87l-7.154-0.073l-17.815-21.911L702.883,636.324z M673.071,688.462l18.851-21.323
	l7.154,0.073l-4.167,4.664c-5.85-0.245-10.019,5.465-7.796,10.832c1.668,4.027,6.179,5.883,10.2,4.259
	c0.629-0.254,1.109-0.604,1.586-0.959l7.949,0.742l-5.215,4.852L673.071,688.462z M731.008,706.853l-22.505,17.515l-2.026-27.977
	l5.215-4.852l0.375,5.88c-1.637,2.185-2.167,5.111-1.051,7.734c2.901,6.819,12.602,6.421,14.798-1.022l5.44-4.351L731.008,706.853z
	 M723.83,696.94c-1.329-1.385-3.088-2.151-5.015-2.348l-0.563-9.203l7.616-7.173c1.675,1.052,3.588,1.927,5.562,2.385l-0.19,10.284
	L723.83,696.94z M759.788,725.205l-21.753-18.234l0.224-7.068l6.077,5.266c0.094,0.524,0.195,1.045,0.412,1.548
	c1.725,4.002,6.193,5.919,10.2,4.259c5.128-2.124,6.665-8.715,2.435-12.847l0.589-5.782l4.959,5.061L759.788,725.205z
	 M756.745,681.078l-7.281-7.462c1.183-1.698,1.95-3.457,2.539-5.455l10.546,0.143l7.36,8.664c-0.776,0.95-1.375,2.138-1.581,3.256
	L756.745,681.078z M768.143,692.67l-4.959-5.061l6.951-0.431c2.171,2.315,5.582,3.22,8.707,1.958c4.041-1.632,5.935-6.2,4.259-10.2
	c-1.16-2.769-3.794-4.593-6.662-4.757l-4.791-5.632l7.154,0.073l17.84,21.929L768.143,692.67z M797.95,640.51l-18.72,21.299
	l-7.154-0.073l5.206-5.661c5.041,0.344,9.69-5.242,7.403-10.762c-1.668-4.026-6.196-5.926-10.2-4.259
	c-1.133,0.471-2.086,1.184-2.755,1.979l-7.402-0.705l5.215-4.852L797.95,640.51z"/>
<path class="st8" d="M572.565,634.235c13.7-13.945,12.695-13.097,13.446-13.363c1.656-0.588,2.646-1.766,2.828-3.505
	c0.515-4.912-6.556-6.443-8.081-1.663c-0.245,0.768-12.996,13.518-13.268,13.738c-0.309-33.493,1.311-28.328-5.133-31.225
	c-0.562,0.194-20.081,20.818-20.417,20.576c-0.289,0.003-0.017,1.071-0.158-14.416l8.898-18.901l-14.274-16.027l-11.09,20.937
	l9.351,10.609c0.331,1.154,0.354,17.786,0.211,17.933c-23.866-23.435-19.265-21.024-25.098-18.312
	c0.287,30.178,0.461,28.917,0.158,28.992c-13.301-13.07-12.508-12.124-12.793-12.888c-0.624-1.673-1.838-2.628-3.606-2.754
	c-4.926-0.35-6.196,6.717-1.46,8.108c0.668,0.196,12.756,12.222,13.021,12.567c-33.579,0.31-28.372-1.354-30.963,5.246l20.5,20.142
	c-20.029,0.422-14.196,1.748-30.358-9.569l-19.608,12.49l21.034,13.333c15.366-9.91,11.559-9.854,28.95-9.306
	c-23.492,23.924-21.098,19.107-18.246,25.821c28.224-0.28,28.699-0.502,28.948-0.23c0.119,0.288-12.382,12.687-12.685,12.79
	c-3.37,1.15-3.918,5.437-1.15,7.352c5.053,3.496,5.077-2.994,18.925-15.305c0.44,38.833-3.048,38.885,25.326,10
	c0.92,16.593,0.738,13.179-8.836,32.449L542.06,758l10.226-23.186l-9.445-11.187c-0.153-17.962-0.157-15.675-0.091-16.269
	l20.705,20.343c6.702-2.664,5.064,2.434,4.771-30.957c0.115-0.059,13.147,12.494,13.479,13.445c1.212,3.465,5.686,3.845,7.507,0.757
	c2.527-4.285-2.702-6.078-3.008-6.38c-13.104-12.863-12.657-12.411-13.068-12.899l29.02-0.274c2.403-6.584,4.79-1.442-19.079-25.166
	c21.286-0.682,16.097-1.262,32.046,9.044l18.196-11.866l-19.55-13.943l-15.078,9.704c-18.86,0.163-15.009,0.15-15.661,0.085
	c23.506-23.939,20.995-19.323,18.601-25.072C600.962,633.953,572.699,634.624,572.565,634.235z M485.969,641.784
	c0.289-0.032,26.051-0.431,26.49-0.001c12.774,12.526,17.793,17.465,18.218,17.938c-0.839,0.038-9.175,0.25-25.749,0.267
	C504.161,659.99,486.218,642.056,485.969,641.784z M486.016,685.759c0.257-0.292,18.278-18.888,18.886-18.894
	c8.525-0.086,25.807-0.21,26.039-0.213c-0.729,0.804-14.112,14.288-18.152,18.525C512.238,685.755,486.306,685.785,486.016,685.759z
	 M535.705,697.143c0.01,0.666-17.819,18.535-18.077,18.77c-0.018-0.304-0.437-25.342,0.05-25.839
	c19.426-19.798,17.784-18.419,17.787-17.507C535.483,678.588,535.673,694.957,535.705,697.143z M561.28,690.262
	c0.1,10.45,0.23,24.996,0.209,25.72c-0.453-0.386,2.868,2.806-18.598-18.223c-0.424-0.415-0.49-26.282-0.479-26.586
	C562.561,691.001,561.272,689.452,561.28,690.262z M542.01,629.17c-0.007-0.666-1.379,0.97,18.362-19.12
	c0.032,0.289,0.527,26.203-0.04,26.765c-18.924,18.796-17.762,18.419-18.083,18.249C542.228,654.384,542.141,642.486,542.01,629.17z
	 M517.028,636.03c-0.111-12.144-0.238-24.403-0.188-25.127c0.643,0.572,5.743,5.633,17.851,17.493
	c0.6,0.587,0.6,25.673,0.603,25.991C535.093,654.476,517.036,636.898,517.028,636.03z M591.875,684.513
	c-0.289,0.032-25.559,0.454-26.012,0.01c-19.11-18.754-18.302-17.706-18.205-18.011c0.304-0.018,25.443-0.453,25.999,0.092
	L591.875,684.513z M591.111,641.125c-0.257,0.292-17.634,18.237-18.256,18.251c-26.179,0.555-24.922,0.389-25.084,0.115
	c18.997-19.33,17.562-18.149,18.33-18.15C576.406,641.325,590.141,641.092,591.111,641.125z"/>
<path class="st8" d="M820.044,499.425c-1.654-0.786-3.399-0.776-4.544-0.114c0.188-1.233-0.149-2.314-0.946-3.215
	c-0.817-0.923-1.853-1.3-3.069-1.391c-0.188-2.739-1.38-4.853-3.848-6.065c-2.467-1.212-4.872-0.858-7.108,0.649
	c-2.93-1.609-5.809-3.163-8.78-4.806c1.011-0.315,4.704-1.234,8.429-2.277c0.511-0.143,0.946-0.101,1.449,0.146
	c1.492,0.733,2.96,0.562,4.231-0.479c1.283-1.051,1.752-2.419,1.353-4.045c-0.387-1.581-1.437-2.6-3.015-2.93
	c-1.559-0.326-2.891,0.145-3.933,1.393c-0.24,0.287-0.464,0.486-0.842,0.58c-14.599,3.631-14.146,4.118-15.037,3.646
	c-7.523-3.983-5.821-3.131-6.618-3.695c0.544-0.188,0.295,0.258,19.64-5.178c0.371-0.104,0.668-0.085,0.99,0.112
	c2.576,1.399,5.804-0.467,5.836-3.538c0.018-1.68-1.078-3.202-2.675-3.759c-1.613-0.563-3.416-0.054-4.486,1.323
	c-0.249,0.321-0.507,0.508-0.908,0.609c-8.289,2.095-16.569,4.32-24.854,6.508c-0.445,0.117-0.787,0.063-1.191-0.154
	c-5.653-3.029-17.257-9.458-17.497-9.588c0.098-0.252,0.174-0.495,0.296-0.81c1.114-0.021,14.572-0.502,20.191-0.665
	c0.568-0.016,1.016-0.185,1.439-0.529c1.732-1.411,3.454-2.766,5.211-4.125c0.564-0.436,0.37-0.346,2.395-0.376
	c1.122,2.249,2.769,3.142,4.818,2.633c1.766-0.439,3.018-2.09,2.965-3.945c-0.083-2.894-3.183-4.793-5.83-3.389
	c-1.144,0.607-1.792,1.626-2.09,2.906c-0.439,0.011-0.834,0.009-1.233,0.047c-0.429,0.04-0.766-0.082-1.108-0.322
	c-1.795-1.254-3.654-2.461-5.428-3.722c-0.498-0.354-0.994-0.482-1.615-0.464c-6.373,0.188-19.562,0.728-19.82,0.737
	c-0.142-0.382-0.245-0.676-0.359-0.992c0.676-0.481,5.483-3.427,17.125-10.471c0.33-0.2,0.642-0.208,1.013-0.133
	c8.292,1.683,16.574,3.506,24.869,5.269c0.519,0.11,0.863,0.299,1.197,0.701c1.051,1.262,2.811,1.697,4.366,1.133
	c2.185-0.792,3.23-3.226,2.295-5.348c-0.935-2.122-3.469-3.012-5.548-1.919c-0.318,0.167-0.603,0.292-0.996,0.23
	c-21.963-4.72-18.831-3.958-19.918-4.289c0.436-0.375-0.617,0.372,6.237-3.871c0.551-0.341,0.184-0.157,15.321,3.048
	c0.402,0.085,0.718,0.257,1.001,0.552c1.089,1.135,2.429,1.54,3.949,1.134c1.637-0.437,2.628-1.554,2.897-3.21
	c0.266-1.636-0.323-2.995-1.682-3.936c-1.386-0.959-2.876-0.959-4.331-0.104c-0.394,0.231-0.72,0.268-1.122,0.181
	c-2.206-0.476-8.125-1.777-8.867-1.92c-0.019-0.044-0.017-0.097-0.026-0.119c2.868-1.734,5.748-3.499,8.594-5.223
	c4.612,3.115,10.621,0.207,10.908-5.485c2.617-0.108,4.17-2.099,4.061-4.245c1.181,0.368,2.724,0.133,4.146-0.729
	c2.207-1.337,3.208-3.686,2.267-5.232c-0.953-1.566-3.505-1.727-5.687-0.395c-1.359,0.83-2.284,2.051-2.545,3.238
	c-1.754-1.15-4.268-0.858-5.7,1.414c-2.477-1.234-4.907-1.235-7.187,0.292c-2.28,1.527-3.161,3.796-2.993,6.492
	c-2.846,1.724-5.648,3.429-8.528,5.194c0.291-1.356,0.855-3.223,2.281-8.582c0.118-0.444,0.306-0.729,0.7-0.962
	c1.579-0.931,2.235-2.866,1.668-4.576c-0.703-2.12-2.96-3.282-5.078-2.57c-2.138,0.719-3.255,3.054-2.478,5.168
	c0.481,1.31,0.009,0.314-3.703,15.139c-0.087,0.348-0.264,0.587-0.583,0.753c-3.529,2.13-5.639,3.451-6.485,3.902
	c0.261-1.186,1.732-6.17,5.304-19.451c0.119-0.444,0.317-0.764,0.724-1.025c1.775-1.136,2.288-3.464,1.253-5.281
	c-1.036-1.817-3.329-2.517-5.2-1.602c-1.891,0.925-2.775,3.13-1.949,5.065c0.178,0.418,0.182,0.778,0.059,1.202
	c-2.366,8.16-4.511,16.385-6.753,24.583c-0.13,0.475-0.354,0.8-0.79,1.053c-5.502,3.198-16.701,10.128-16.923,10.277
	c-0.203-0.224-0.385-0.458-0.578-0.66c0.129-0.24,5.972-11.407,8.772-16.798c0.227-0.437,0.296-0.833,0.225-1.327
	c-0.321-2.251-0.676-4.479-1.022-6.709c-0.102-0.659,0.009-0.631,0.835-2.197c2.685,0.045,4.235-0.949,4.739-3.002
	c0.431-1.756-0.414-3.605-2.032-4.435c-3.979-2.04-8.016,3.177-4.316,6.631c-0.225,0.439-0.445,0.825-0.616,1.212
	c-0.13,0.294-0.358,0.492-0.641,0.622c-2.021,0.93-3.977,1.945-5.986,2.899c-0.627,0.297-1.026,0.707-1.337,1.294
	c-2.763,5.213-8.452,16.161-8.582,16.4c-0.308-0.047-0.594-0.104-0.881-0.161c-0.006-0.311-0.231-13.711-0.474-20.171
	c-0.02-0.537,0.151-0.903,0.502-1.292c5.72-6.342,11.382-12.75,17.158-19.055c0.246-0.269,0.488-0.379,0.846-0.451
	c2.314-0.466,3.791-2.663,3.225-4.896c-0.494-1.951-2.306-3.217-4.307-3.015c-2.001,0.202-3.542,1.872-3.552,3.917
	c-0.002,0.471-0.147,0.795-0.45,1.113c-1.11,1.163-12.658,14.146-13.554,14.959c-0.11-0.605-0.026,0.729-0.228-7.633
	c-0.008-0.311,0.104-0.539,0.316-0.766c10.286-11.051,9.657-11.136,10.68-11.342c2.507-0.504,3.944-3.175,2.892-5.533
	c-0.779-1.747-2.674-2.691-4.579-2.268c-1.808,0.402-3.057,2.043-3.05,3.93c0.001,0.342-0.014,0.627-0.28,0.907
	c-6.971,7.348-5.424,6.074-6.159,6.659c-0.06-3.161-0.135-6.237-0.22-9.335c2.388-1.34,3.773-3.285,3.807-6.067
	c0.033-2.76-1.288-4.762-3.597-6.149c1.023-2.875-0.065-4.85-2.154-5.661c1.003-0.808,1.676-2.359,1.635-4.117
	c-0.06-2.561-1.595-4.628-3.406-4.587c-1.811,0.04-3.246,2.165-3.196,4.726c0.035,1.789,0.812,3.326,1.868,4.063
	c-2.016,0.94-3.068,3.416-1.646,5.872c-2.21,1.627-3.32,3.758-3.024,6.479c0.295,2.714,1.867,4.534,4.245,5.602
	c0.079,3.205,0.152,6.334,0.219,9.571c-0.792-0.67,0.663,0.887-6.565-6.54c-0.248-0.255-0.355-0.499-0.364-0.885
	c-0.052-2.42-1.97-4.17-4.345-3.991c-1.923,0.145-3.498,1.757-3.615,3.657c-0.135,2.21,1.383,3.911,3.252,4.237
	c0.975,0.17,0.023-0.333,11.505,11.052c0.274,0.272,0.4,0.555,0.405,0.919c0.046,3.45,0.16,6.174,0.132,7.179
	c-0.944-0.838,1.356,1.382-14.369-14.467c-0.235-0.236-0.34-0.477-0.357-0.81c-0.122-2.479-2.355-4.155-4.591-3.778
	c-1.996,0.337-3.411,2.019-3.375,4.021c0.036,2.016,1.501,3.669,3.515,3.886c0.436,0.047,0.739,0.197,1.025,0.489
	c5.972,6.079,11.899,12.203,17.967,18.186c0.313,0.309,0.431,0.62,0.441,1.06c0.151,6.548,0.457,20.074,0.475,20.353
	c-0.454,0.096-0.877,0.204-1.331,0.299c-0.877-1.338-9.638-15.166-10.509-16.559c-0.269-0.43-0.606-0.727-1.08-0.909
	c-2.068-0.794-4.148-1.602-6.21-2.411c-0.724-0.284-0.657-0.364-1.611-1.877c1.366-2.117,1.319-3.973-0.109-5.465
	c-1.281-1.339-3.298-1.613-4.892-0.666c-2.466,1.464-2.609,5.04-0.155,6.705c1.12,0.76,2.36,0.789,3.64,0.434
	c0.737,1.139,0.984,1.397,0.958,1.877c-0.401,7.231-0.757,7.43-0.247,8.156c0.188,0.309,10.273,16.141,10.596,16.756
	c-0.117,0.208-0.21,0.354-0.315,0.531c-0.31-0.229-17.767-9.732-17.945-9.835c-0.311-0.179-0.499-0.408-0.607-0.725
	c-0.82-2.413-6.181-18.762-7.99-24.541c-0.115-0.368-0.111-0.66,0.028-1.005c0.911-2.276-0.69-5.172-3.432-5.359
	c-1.835-0.125-3.519,1.009-4.085,2.766c-0.581,1.805,0.143,3.735,1.837,4.704c0.311,0.178,0.49,0.385,0.607,0.725
	c7.26,21.14,6.077,18.538,6.23,19.359c-0.381-0.093,0.633,0.305-6.74-3.615c-0.27-0.144-0.383-0.328-0.474-0.601
	c-1.542-4.657-2.919-9.366-4.499-14.008c-0.232-0.681,0.205-1.02,0.264-2.128c0.104-1.933-1.331-3.673-3.208-4.021
	c-1.963-0.364-3.854,0.698-4.524,2.542c-0.665,1.828,0.049,3.884,1.779,4.808c0.405,0.216,0.616,0.512,0.747,0.925
	c0.82,2.59,2.591,8.134,2.67,8.491l-8.269-4.535c0.06-2.77-0.979-4.951-3.342-6.34c-2.362-1.389-4.779-1.239-7.123,0.081
	c-1.528-1.809-3.301-2.334-5.096-1.544c-0.503,0.222-0.936,0.543-1.287,0.933c-0.005-1.435-1.148-3.023-3-3.904
	c-2.312-1.099-4.839-0.664-5.626,0.989c-0.787,1.653,0.474,3.869,2.798,4.986c1.788,0.86,3.688,0.779,4.831-0.064
	c-0.086,0.456-0.094,0.905-0.014,1.391c0.316,1.929,1.745,3.072,4.235,3.386c0.309,2.659,1.563,4.706,4.052,5.818
	c2.488,1.111,4.848,0.686,7.055-0.888c2.784,1.517,5.547,3.043,8.436,4.618c-1.119,0.386-5.023,1.292-9.037,2.44
	c-0.393,0.113-0.67,0.002-0.997-0.188c-1.46-0.847-3.273-0.614-4.541,0.485c-1.246,1.08-1.715,2.872-1.126,4.441
	c1.068,2.847,4.842,3.5,6.806,1.156c0.24-0.287,0.493-0.484,0.842-0.58c4.809-1.327,9.649-2.522,14.479-3.845
	c0.326-0.089,0.582-0.099,0.896,0.076c7.107,3.967,5.613,3.014,6.325,3.563c-0.457,0.149-6.396,1.57-19.693,5.175
	c-0.326,0.088-0.581,0.048-0.883-0.107c-2.678-1.373-5.828,0.583-5.794,3.572c0.043,3.824,4.897,5.406,7.142,2.393
	c0.23-0.309,0.466-0.542,0.866-0.643c8.289-2.095,16.526-4.299,24.788-6.479c0.445-0.117,0.804-0.064,1.191,0.154
	c5.722,3.22,17.633,9.659,17.819,9.786c-0.098,0.252-0.174,0.495-0.262,0.769c-0.364,0.004-13.526,0.318-19.816,0.448
	c-0.622,0.013-1.141,0.195-1.624,0.585c-1.692,1.366-3.418,2.671-5.162,3.999c-0.586,0.446-0.552,0.348-2.385,0.398
	c-1.286-2.386-2.891-3.237-4.922-2.691c-1.777,0.477-2.987,2.124-2.924,3.979c0.099,2.906,3.273,4.7,5.833,3.335
	c1.121-0.598,1.758-1.584,2.075-2.822c1.469,0.005,1.691-0.161,2.247,0.238c1.742,1.25,3.54,2.465,5.268,3.714
	c0.651,0.471,1.285,0.666,2.088,0.648c6.219-0.145,19.314-0.462,19.647-0.478c0.135,0.306,0.219,0.557,0.335,0.819
	c-0.676,0.481-5.805,3.692-17.412,10.65c-0.351,0.21-0.686,0.227-1.057,0.152c-8.377-1.698-16.749-3.578-25.134-5.335
	c-0.403-0.084-0.662-0.257-0.926-0.559c-1.105-1.264-2.497-1.695-4.082-1.259c-1.584,0.437-2.584,1.534-2.863,3.169
	c-0.276,1.615,0.285,2.956,1.587,3.899c1.345,0.974,2.815,1.049,4.26,0.24c0.398-0.223,0.751-0.251,1.185-0.156
	c21.47,4.669,19.023,3.978,19.716,4.247c-0.112,0.102-0.168,0.152-0.255,0.191c-2.085,1.258-4.161,2.53-6.256,3.828
	c-0.308,0.19-0.584,0.147-0.882,0.075c-4.71-1.134-9.44-2.098-14.175-3.056c-0.371-0.075-0.631-0.244-0.884-0.525
	c-1.13-1.251-2.544-1.685-4.16-1.198c-1.568,0.472-2.518,1.58-2.778,3.183c-0.26,1.604,0.306,2.948,1.663,3.892
	c1.356,0.944,2.841,0.993,4.262,0.186c0.418-0.237,0.784-0.291,1.251-0.185c2.486,0.563,8.156,1.789,8.644,1.888l-8.054,4.907
	c-2.35-1.421-4.77-1.635-7.158-0.295s-3.468,3.514-3.514,6.199c-2.49,0.575-3.635,1.687-3.872,3.665
	c-0.066,0.554,0.011,1.092,0.157,1.603c-1.207-0.723-3.117-0.611-4.828,0.429c-2.205,1.34-3.208,3.686-2.267,5.232
	c0.953,1.566,3.5,1.718,5.687,0.395c1.773-1.073,2.76-2.81,2.563-4.264c0.257,0.227,0.56,0.427,0.904,0.569
	c2.316,0.954,4.08,0.188,5.398-1.803c2.485,1.074,4.872,0.972,7.052-0.599c2.203-1.588,3.035-3.845,2.76-6.546
	c2.724-1.644,5.395-3.291,8.219-5.006c-0.28,1.143-1.249,4.877-2.396,8.972c-0.11,0.392-0.289,0.648-0.641,0.857
	c-1.823,1.082-2.474,3.337-1.517,5.215c0.968,1.899,3.23,2.705,5.177,1.847c1.925-0.848,2.878-3.018,2.138-4.992
	c-0.402-1.071-0.153-0.097,3.816-15.476c0.098-0.38,0.277-0.618,0.607-0.816c3.368-2.024,5.22-3.214,6.154-3.704
	c-0.31,1.312-1.909,7.515-5.344,19.599c-0.111,0.392-0.299,0.626-0.641,0.857c-1.289,0.873-1.881,2.135-1.731,3.663
	c0.165,1.678,1.081,2.868,2.681,3.417c1.601,0.549,3.05,0.167,4.206-1.069c1.171-1.252,1.398-2.758,0.735-4.321
	c-0.441-1.041-0.187,0.277,6.701-25.71c0.109-0.411,0.325-0.687,0.697-0.908c5.661-3.362,17.266-10.507,17.497-10.635
	c0.172,0.212,0.324,0.38,0.486,0.57c-0.213,0.407-6.648,12.259-9.72,17.79c-0.232,0.418-0.321,0.82-0.247,1.337
	c0.319,2.234,0.616,4.484,0.903,6.735c0.085,0.668-0.009,0.631-0.867,2.185c-2.682-0.099-4.237,0.875-4.777,2.915
	c-0.47,1.776,0.378,3.649,2.008,4.498c2.609,1.36,5.727-0.513,5.767-3.455c0.017-1.262-0.5-2.262-1.4-3.119
	c0.213-0.407,0.421-0.762,0.601-1.127c0.165-0.335,0.412-0.547,0.731-0.714c2.047-0.928,4.043-1.912,6.1-2.818
	c0.569-0.251,0.917-0.642,1.191-1.152c3.002-5.586,9.486-17.373,9.695-17.727c0.308,0.047,0.585,0.082,0.924,0.141
	c0.011,0.204,0.281,13.74,0.485,20.375c0.012,0.386-0.122,0.662-0.367,0.946c-5.606,6.486-11.496,12.72-17.182,19.118
	c-0.227,0.256-0.479,0.397-0.846,0.451c-2.531,0.376-4.07,2.969-3.152,5.36c0.696,1.81,2.527,2.826,4.493,2.488
	c1.823-0.313,3.181-1.944,3.229-3.879c0.008-0.342,0.088-0.621,0.333-0.904c14.657-16.952,12.736-14.207,13.703-15.155
	c0.004,0.364,0.098,4.995,0.178,7.106c0.018,0.461-0.12,0.79-0.419,1.125c-3.235,3.627-6.578,7.17-9.787,10.818
	c-0.332,0.377-0.704,0.596-1.224,0.722c-2.147,0.521-3.422,2.735-2.859,4.839c0.532,1.986,2.431,3.263,4.448,2.979
	c1.994-0.281,3.485-2.026,3.41-4.063c-0.017-0.461,0.127-0.783,0.428-1.103c3.431-3.652,5.387-5.979,6.152-6.734
	c0.088,3.462,0.16,6.827,0.232,10.192c-2.437,1.23-3.858,3.163-4,5.865c-0.142,2.702,1.106,4.764,3.303,6.252
	c-1.051,2.547-0.434,4.74,1.955,5.801c-1.003,0.808-1.659,2.35-1.623,4.085c0.053,2.562,1.595,4.628,3.406,4.587
	c1.811-0.04,3.255-2.165,3.196-4.726c-0.041-1.758-0.774-3.239-1.796-4.016c1.906-0.892,2.91-2.824,1.808-5.682
	c4.814-3.009,4.273-9.93-0.786-12.221c-0.065-3.29-0.151-6.57-0.232-9.957c0.748,0.69,3.387,3.401,6.197,6.179
	c0.366,0.362,0.545,0.723,0.559,1.269c0.06,2.415,2.464,4.174,4.79,3.638c1.896-0.437,3.207-2.092,3.15-4s-1.404-3.483-3.357-3.825
	c-0.969-0.169-0.064,0.304-11.198-10.769c-0.274-0.272-0.394-0.533-0.405-0.919c-0.064-2.304-0.139-7.254-0.145-7.565
	c1.106,1.028-1.595-1.401,14.328,14.433c0.274,0.272,0.388,0.533,0.405,0.919c0.092,2.147,1.734,3.751,3.86,3.839
	c2.051,0.084,3.894-1.501,4.1-3.504c0.224-2.183-1.253-4.154-3.351-4.403c-0.468-0.056-0.814-0.242-1.139-0.569
	c-6.009-6.042-11.958-12.144-17.967-18.186c-0.326-0.327-0.461-0.654-0.46-1.104c0.015-6.527-0.459-20.02-0.468-20.278
	c0.292-0.05,0.508-0.093,0.777-0.133c0.179,0.287,7.129,11.419,10.492,16.698c0.325,0.511,0.698,0.866,1.286,1.08
	c2.065,0.752,4.091,1.607,6.134,2.418c0.66,0.262,0.584,0.318,1.548,1.853c-1.388,2.127-1.35,4.023,0.106,5.519
	c1.267,1.301,3.273,1.559,4.829,0.642c2.488-1.467,2.64-5.077,0.146-6.727c-1.112-0.736-2.318-0.755-3.577-0.41
	c-0.239-0.365-0.425-0.727-0.667-1.039s-0.313-0.647-0.281-1.052c0.181-2.229,0.324-4.481,0.519-6.708
	c0.048-0.544-0.054-1.022-0.376-1.506c-0.148-0.223-10.057-15.949-10.349-16.552c0.117-0.208,0.232-0.363,0.303-0.499
	c0.587,0.264,6.644,3.52,17.875,9.735c0.314,0.174,0.489,0.411,0.595,0.757c0.4,1.311,5.799,17.573,7.942,24.431
	c0.115,0.368,0.113,0.66,0.004,1.017c-0.168,0.551-0.309,1.13-0.275,1.689c0.119,1.964,1.555,3.467,3.523,3.726
	c1.777,0.234,3.556-0.868,4.184-2.601c0.657-1.812-0.057-3.781-1.715-4.783c-0.324-0.196-0.511-0.429-0.636-0.791
	c-7.348-21.236-5.938-18.103-6.261-19.372c0.271,0.142,4.36,2.403,6.216,3.375c1.01,0.529,0.421,0.267,5.232,14.782
	c0.166,0.501,0.163,0.951,0.024,1.479c-0.723,2.744,1.467,5.29,4.242,5.003c3.971-0.41,4.976-5.7,1.415-7.521
	c-0.332-0.17-0.491-0.385-0.607-0.725c-3.326-9.765-2.618-8.017-2.761-8.817c0.296,0.079-0.608-0.463,8.596,4.626
	c0.209,0.116,0.351,0.263,0.307,0.518c-0.251,5.145,4.922,8.675,9.592,6.591c0.175-0.078,0.35-0.154,0.525-0.231
	c1.671,1.955,3.303,2.516,5.129,1.738c0.418-0.178,0.79-0.4,1.104-0.696c0.136,1.377,1.266,2.811,3.013,3.637
	c2.314,1.094,4.864,0.676,5.626-0.989C823.633,502.779,822.355,500.524,820.044,499.425z M800.934,413.706
	c1.414-1.48,3.676-1.62,5.068-0.299c1.392,1.32,1.355,3.61-0.055,5.093c-1.41,1.484-3.679,1.623-5.068,0.299
	C799.474,417.46,799.505,415.203,800.934,413.706z M667.254,423.586c-1.918,0.051-3.52-1.585-3.559-3.631
	c-0.039-2.047,1.457-3.751,3.375-3.786c1.918-0.035,3.509,1.585,3.559,3.631C670.679,421.837,669.185,423.535,667.254,423.586z
	 M668.981,501.992c-1.918,0.035-3.52-1.585-3.559-3.631c-0.039-2.047,1.457-3.751,3.375-3.786c1.918-0.035,3.52,1.585,3.559,3.631
	C672.395,500.252,670.899,501.956,668.981,501.992z M730.597,378.774c-0.039-2.047,1.457-3.751,3.375-3.786
	c1.918-0.035,3.52,1.585,3.559,3.631c0.039,2.047-1.457,3.751-3.375,3.786C732.239,382.44,730.637,380.821,730.597,378.774z
	 M741.188,535.655c0.051,2.046-1.457,3.751-3.375,3.786c-1.918,0.035-3.52-1.585-3.559-3.631s1.457-3.74,3.375-3.786
	C739.538,531.978,741.138,533.618,741.188,535.655z M736.817,469.571c-6.774,0.163-12.379-5.206-12.542-11.98
	s5.206-12.379,11.98-12.542c6.774-0.163,12.39,5.206,12.542,11.98C748.948,463.813,743.59,469.408,736.817,469.571z M804.659,498.13
	c-1.918,0.046-3.52-1.585-3.559-3.631c-0.039-2.047,1.457-3.751,3.375-3.786c1.918-0.035,3.509,1.585,3.559,3.631
	C808.083,496.381,806.567,498.084,804.659,498.13z"/>
<path class="st7" d="M813.149,255.175c6.265,0.059,6.037-0.042,6.548-0.032c0.302,0.006,1.551-0.028,2.615-1.141
	c2.111-2.208,0.397-5.871-2.568-5.871h-11.544l11.317-17.509c1.517-2.349-0.716-6.038-3.91-5.144
	c-0.877,0.245-1.639,0.813-2.148,1.6l-13.611,21.068h-9.775l18.999-29.352c1.04-1.606,0.309-3.885-1.258-4.802
	c-1.671-0.978-3.748-0.368-4.8,1.258l-16.827,26c-2.403-11.182-8.399-21.044-16.718-28.313l31.273-1.59
	c0.909-0.046,1.81-0.43,2.472-1.053c2.334-2.197,0.375-6.105-2.475-5.965l-34.941,1.777l4.895-8.463l25.028-1.255
	c0.908-0.046,1.809-0.429,2.472-1.053c2.334-2.197,0.372-6.107-2.475-5.965l-20.845,1.045c1.015-1.754,1.845-3.159,2.577-4.4
	c3.551-6.014,2.581-4.558,3.169-5.533c0.993-1.672,0.399-3.886-1.235-4.842c-1.598-0.936-3.828-0.423-4.8,1.259l-5.391,9.32
	l-7.911-18.399c-0.731-1.701-3.26-2.162-4.802-1.261c-1.724,1.009-2.053,2.954-1.26,4.798l9.623,22.382l-5.688,9.833l-13.837-33.392
	c-1.421-3.432-5.232-3.281-6.619-0.447c-0.386,0.79-0.438,1.613-0.146,2.318l12.644,30.524c-10.005-3.234-20.836-3.358-30.933-0.338
	l12.503-30.186c0.298-0.719,0.223-1.609-0.207-2.441c-1.375-2.663-5.134-2.863-6.558,0.57l-13.836,33.392l-5.688-9.833l9.623-22.382
	c0.783-1.82,0.453-3.797-1.26-4.798c-1.525-0.892-4.063-0.456-4.802,1.261l-7.911,18.399c-0.776-1.342-1.436-2.512-2.075-3.643
	c-3.07-5.438-2.758-4.701-3.291-5.634c-0.457-0.8-1.194-1.387-2.157-1.641c-3.104-0.82-5.442,2.521-3.927,5.141l5.77,9.975
	c0,0-20.936-1.048-20.982-1.048c-1.778,0-3.453,1.717-3.373,3.513c0.088,1.966,1.531,3.408,3.508,3.508l25.028,1.255l4.896,8.463
	c0,0-35.034-1.78-35.08-1.78c-1.783,0-3.451,1.723-3.371,3.513c0.088,1.965,1.531,3.407,3.508,3.508l30.378,1.545
	c-8.076,7.038-13.97,16.516-16.525,27.273l-16.125-24.915c-1.744-2.693-5.697-2.126-6.446,1.027
	c-0.215,0.905-0.078,1.798,0.387,2.517l18.999,29.352h-9.775l-13.611-21.068c-1.739-2.694-5.694-2.127-6.445,1.024
	c-0.216,0.905-0.078,1.8,0.387,2.52l11.317,17.514c-7.039-0.006,8.264-0.009-11.543-0.009c-1.823,0-3.591,1.604-3.506,3.509
	c0.087,1.945,1.587,3.511,3.509,3.512h10.743l-11.954,16.023c-1.11,1.488-0.295,3.895,1.257,4.803
	c1.722,1.006,3.606,0.343,4.799-1.256l14.596-19.553h11.356l-22.529,29.372c-1.609,2.098,0.74,6.124,3.903,5.135
	c0.803-0.25,1.548-0.799,2.154-1.589l18.464-24.068c2.313,9.971,7.495,18.853,14.624,25.731l-29.843,3.925
	c-1.924,0.254-3.594,1.527-3.506,3.51c0.08,1.794,1.629,3.754,3.512,3.508l36.717-4.829l-5.674,9.845l-24.214,2.859
	c-0.951,0.112-1.827,0.49-2.466,1.065c-2.408,2.162-0.217,6.264,2.472,5.952l19.87-2.346c-3.933,6.821,1.58-2.845-5.356,9.295
	c-1.505,2.612,0.81,5.971,3.933,5.143c0.916-0.243,1.671-0.812,2.126-1.601l5.773-10.018l9.526,18.591
	c0.384,0.749,1.085,1.305,1.975,1.564c3.092,0.907,5.585-2.178,4.086-5.104l-11.419-22.285l4.883-8.473l15.941,31.166
	c0.383,0.748,1.083,1.304,1.972,1.563c3.103,0.911,5.581-2.186,4.089-5.103l-13.19-25.789c10.08,3.03,20.977,2.945,31.105-0.353
	l-13.371,26.141c-0.877,1.716-0.413,3.821,1.26,4.799c1.566,0.915,3.933,0.437,4.802-1.26l15.941-31.166l4.883,8.473l-11.419,22.285
	c-1.239,2.42,0.273,5.257,3.022,5.257c1.235,0,2.464-0.596,3.039-1.717l9.526-18.591c1.022,1.775,1.829,3.205,2.541,4.469
	c3.421,6.07,2.617,4.44,3.214,5.516c0.477,0.859,1.289,1.402,2.145,1.63c3.146,0.831,5.426-2.548,3.932-5.139l-5.356-9.295
	l19.87,2.346c1.808,0.214,3.591-1.741,3.511-3.51c-0.087-1.948-1.398-3.259-3.506-3.508l-24.214-2.859l-5.674-9.845l36.717,4.829
	c1.819,0.235,3.59-1.764,3.512-3.51c-0.087-1.948-1.365-3.226-3.506-3.508l-30.677-4.035c7.297-7.083,12.536-16.274,14.722-26.581
	l19.2,25.028c1.214,1.581,3.09,2.257,4.799,1.256c1.525-0.892,2.395-3.32,1.257-4.802l-22.529-29.372H800.3l14.596,19.553
	c0.577,0.773,1.344,1.336,2.16,1.583c3.214,0.974,5.476-3.012,3.896-5.13l-11.954-16.018
	C809.055,255.152,811.906,255.164,813.149,255.175z M746.593,245.755l-0.276,0.092c-0.343-0.503-0.72-0.98-1.127-1.43l0.226-0.386
	c4.61-7.098,12.099-12.758,22.283-16.847C761.508,236.49,754.415,242.733,746.593,245.755z M775.743,262.847
	c-10.961,0.855-20.144-0.917-27.327-5.276l-0.328-0.221c0.181-0.602,0.321-1.221,0.418-1.855l0.324-0.044
	C757.161,254.704,766.208,257.192,775.743,262.847z M767.574,219.131c-0.098,0.029-0.196,0.059-0.294,0.095
	c-8.853,3.241-16.108,7.542-21.677,12.838c0.599-7.761-0.627-16.251-3.673-25.363c-0.038-0.113-0.08-0.222-0.125-0.331
	C751.762,207.8,760.706,212.408,767.574,219.131z M735.496,211.492c3.2,10.67,3.527,20.171,0.97,28.274l-0.126,0.345
	c-0.558-0.036-1.13-0.036-1.688,0l-0.126-0.345C731.969,231.663,732.297,222.161,735.496,211.492z M730.037,252.242
	c0.619-2.877,2.986-4.575,5.459-4.575c2.483,0,4.843,1.71,5.459,4.576c0.77,3.584-1.91,6.991-5.459,6.991
	C731.968,259.234,729.261,255.848,730.037,252.242z M729.228,206.278c-0.061,0.138-0.117,0.278-0.166,0.423
	c-3.046,9.111-4.271,17.601-3.672,25.362c-5.57-5.296-12.824-9.597-21.676-12.838c-0.259-0.095-0.522-0.165-0.787-0.215
	C709.929,212.207,719.067,207.589,729.228,206.278z M703.293,227.185c10.183,4.088,17.672,9.748,22.283,16.847l0.226,0.386
	c-0.407,0.45-0.783,0.927-1.127,1.43l-0.276-0.092C716.576,242.732,709.483,236.49,703.293,227.185z M722.904,257.35l-0.328,0.221
	c-7.183,4.36-16.367,6.134-27.327,5.276c9.534-5.654,18.581-8.142,26.913-7.396l0.324,0.044
	C722.582,256.129,722.723,256.748,722.904,257.35z M689.188,257.681c-1.197-10.147,0.95-20.282,6.123-29.008
	c0.097,0.225,0.211,0.445,0.344,0.657c5.119,8.185,10.912,14.502,17.297,18.877c-7.603,1.12-15.497,4.246-23.576,9.345
	C689.311,257.593,689.25,257.638,689.188,257.681z M692.5,270.206c9.3,0.971,17.622,0.295,24.858-2.015
	c-3.646,6.355-6.095,14.022-7.314,22.916C702.295,286.08,696.135,278.803,692.5,270.206z M717.674,291.301
	c1.639-11.079,5.38-19.816,11.135-25.996l0.219-0.215c0.498,0.287,1.017,0.541,1.552,0.761l-0.038,0.427
	C729.406,274.706,725.08,283.114,717.674,291.301z M722.851,296.873c5.853-6.369,10.083-12.94,12.645-19.642
	c2.543,6.653,6.732,13.179,12.52,19.505C740.037,299.039,731.281,299.205,722.851,296.873z M740.449,266.277l-0.038-0.427
	c0.536-0.22,1.054-0.474,1.552-0.761l0.219,0.215c5.755,6.179,9.496,14.916,11.136,25.996
	C745.912,283.114,741.586,274.707,740.449,266.277z M760.895,290.738c-1.236-8.736-3.666-16.28-7.261-22.547
	c7.068,2.257,15.175,2.952,24.218,2.077C774.302,278.629,768.362,285.739,760.895,290.738z M781.232,257.315
	c-7.946-4.958-15.709-8.006-23.192-9.108c6.385-4.375,12.178-10.692,17.298-18.88c0.02-0.032,0.037-0.066,0.056-0.098
	C780.267,237.717,782.311,247.497,781.232,257.315z"/>
</svg>
