<?xml version="1.0" encoding="utf-8"?>
<!-- Generator: Adobe Illustrator 25.3.1, SVG Export Plug-In . SVG Version: 6.00 Build 0)  -->
<svg version="1.1" id="Layer_1" xmlns="http://www.w3.org/2000/svg" xmlns:xlink="http://www.w3.org/1999/xlink" x="0px" y="0px"
	 viewBox="0 0 288 288" style="enable-background:new 0 0 288 288;" xml:space="preserve">
<style type="text/css">
	.st0{fill:#202D5E;stroke:#000001;stroke-width:0.0636;stroke-miterlimit:10;}
	.st1{fill:#536DA0;stroke:#000001;stroke-width:0.0636;stroke-miterlimit:10;}
	.st2{fill:#536DA0;stroke:#000001;stroke-width:0.069;stroke-miterlimit:10;}
	.st3{fill-rule:evenodd;clip-rule:evenodd;fill:#536DA0;stroke:#000001;stroke-width:0.0636;stroke-miterlimit:10;}
	.st4{fill:#202D5E;stroke:#000001;stroke-width:0.0474;stroke-miterlimit:10;}
	.st5{fill:#536DA0;stroke:#000001;stroke-width:0.0474;stroke-miterlimit:10;}
	.st6{fill:#536DA0;stroke:#000001;stroke-width:0.0514;stroke-miterlimit:10;}
	.st7{fill:#202D5E;stroke:#000001;stroke-width:0.073;stroke-miterlimit:10;}
	.st8{fill-rule:evenodd;clip-rule:evenodd;fill:#536DA0;stroke:#000001;stroke-width:0.0474;stroke-miterlimit:10;}
</style>
<path class="st0" d="M222.592,218.45l-2.176-18.153l15.965-8.216c3.141-1.617,4.384-6.216,2.501-9.201
	c-2.023-3.206-5.848-4.226-9.201-2.501l-16.325,8.401l-5.315-2.957l9.946-5.119c3.141-1.617,4.384-6.216,2.501-9.201
	c-2.023-3.206-5.848-4.226-9.201-2.501l-17.393,8.951l-9.895-5.505l9.14-4.692c3.143-1.613,4.383-6.218,2.501-9.201
	c-2.025-3.209-5.846-4.223-9.201-2.501l-16.595,8.518l-22.439-12.485l22.4-12.565l16.59,8.442c3.138,1.597,7.471,0.868,9.204-2.483
	c1.608-3.11,0.882-7.491-2.484-9.204l-9.189-4.676l9.881-5.543l17.389,8.871c3.136,1.6,7.472,0.866,9.204-2.484
	c1.609-3.113,0.881-7.487-2.483-9.204l-9.981-5.092c1.776-0.982,3.55-1.967,5.306-2.982l16.308,8.32
	c3.136,1.6,7.472,0.866,9.204-2.483c1.609-3.113,0.881-7.487-2.483-9.204l-16.033-8.18l2.12-18.232
	c0.181-1.559-0.9-3.634-1.948-4.694c-1.177-1.19-3.14-2.087-4.842-2c-1.71,0.087-3.497,0.653-4.694,1.948l-1.102,1.433
	c-0.603,1.057-0.903,2.193-0.898,3.408l-2.073,17.825l-5.704,3.2l1.237-10.64c0.181-1.559-0.9-3.634-1.948-4.694
	c-1.177-1.19-3.14-2.087-4.842-2c-1.71,0.087-3.497,0.653-4.694,1.948l-1.102,1.433c-0.603,1.057-0.903,2.193-0.898,3.408
	l-2.166,18.628l-9.626,5.4l0.914-6.933c0.24-1.817,0.27-3.381-0.677-5.037c-0.831-1.453-2.499-2.825-4.164-3.178
	c-1.677-0.355-3.545-0.264-5.037,0.677c-1.426,0.9-2.947,2.41-3.178,4.164l-2.437,18.484c-0.791,0.444-21.663,12.149-21.848,12.253
	l-0.399-25.045l14.75-11.404c1.286-0.995,2.012-3.295,2-4.842c-0.012-1.62-0.738-3.575-1.948-4.694c-1.3-1.201-3.022-2.093-4.842-2
	l-1.708,0.234c-1.144,0.313-2.139,0.884-2.986,1.714l-5.532,4.278l-0.176-11.036l15.01-11.243c1.51-1.131,2.685-2.255,3.178-4.164
	c0.406-1.57,0.203-3.642-0.677-5.037c-0.944-1.496-2.381-2.8-4.164-3.178c-1.595-0.338-3.67-0.346-5.037,0.677l-8.561,6.413
	c-0.023-2.179-0.048-4.358-0.11-6.534l14.357-10.754c1.51-1.131,2.685-2.255,3.178-4.164c0.406-1.57,0.203-3.642-0.677-5.037
	c-0.944-1.496-2.381-2.8-4.164-3.178c-1.595-0.338-3.67-0.346-5.037,0.677l-14.69,11.004l-15.135-9.742
	c-2.97-1.911-7.589-0.641-9.204,2.484c-1.748,3.382-0.698,7.156,2.483,9.204l15.404,9.916l0.097,6.089l-9.437-6.074
	c-2.97-1.911-7.589-0.641-9.204,2.483c-1.748,3.382-0.698,7.156,2.484,9.204L126.3,87.242l0.18,11.328l-8.663-5.589
	c-2.968-1.915-7.59-0.639-9.204,2.483c-1.75,3.385-0.696,7.153,2.483,9.204l15.641,10.091l0.407,25.681l-22.077-13.114
	l-0.986-18.628c-0.092-1.743-0.7-3.432-1.948-4.694c-1.177-1.19-3.14-2.087-4.842-2c-3.51,0.178-6.893,3.023-6.694,6.79
	l0.543,10.259l-9.735-5.783l-1.014-19.534c-0.09-1.742-0.701-3.434-1.948-4.694c-1.177-1.19-3.14-2.087-4.842-2
	c-3.513,0.179-6.889,3.023-6.694,6.79l0.579,11.153c-1.736-1.047-3.474-2.089-5.229-3.101l-0.951-18.322
	c-0.09-1.742-0.701-3.434-1.948-4.694c-1.177-1.19-3.14-2.087-4.842-2c-3.513,0.179-6.889,3.023-6.694,6.79l0.93,17.931
	l-16.783,7.251c-1.502,0.649-2.788,2.656-3.178,4.164c-0.406,1.57-0.203,3.642,0.677,5.037c2.184,3.461,5.503,4.099,9.201,2.501
	l16.547-7.149l5.605,3.329l-9.763,4.218c-1.502,0.649-2.788,2.656-3.178,4.164c-0.406,1.57-0.203,3.642,0.677,5.037
	c2.184,3.461,5.503,4.098,9.201,2.501l17.289-7.47l9.486,5.635l-8.015,3.318c-1.498,0.62-2.794,2.68-3.178,4.164
	c-0.406,1.57-0.203,3.642,0.677,5.037c0.944,1.496,2.381,2.8,4.164,3.178l1.735,0.214c1.177-0.015,2.277-0.312,3.302-0.891
	l15.676-6.49c0.792,0.47,21.369,12.695,21.542,12.799l-21.504,12.876l-15.661-6.419c-1.738-0.713-3.224-1.175-5.116-0.664
	c-1.596,0.431-3.316,1.655-4.088,3.148c-0.801,1.55-1.206,3.403-0.664,5.116c0.497,1.573,1.542,3.429,3.148,4.088l8.063,3.305
	l-9.478,5.675l-17.278-7.393c-1.711-0.732-3.25-1.168-5.116-0.664c-1.596,0.431-3.316,1.655-4.088,3.148
	c-0.801,1.55-1.206,3.403-0.664,5.116c0.502,1.589,1.543,3.401,3.148,4.088l9.801,4.194c-1.872,1.108-3.744,2.219-5.596,3.359
	l-16.529-7.073c-1.711-0.732-3.25-1.168-5.116-0.664c-1.596,0.431-3.316,1.655-4.088,3.148c-0.801,1.55-1.206,3.403-0.664,5.116
	c0.502,1.589,1.543,3.401,3.148,4.088l16.844,7.207l-0.871,18.011c-0.171,3.529,3.293,6.872,6.79,6.694
	c3.812-0.194,6.511-3.016,6.694-6.79l0.883-18.263l5.226-3.129L67.116,210.7c-0.171,3.529,3.293,6.872,6.79,6.694
	c3.812-0.194,6.511-3.016,6.694-6.79l0.941-19.463l9.722-5.821l-0.511,10.335c-0.174,3.529,3.296,6.871,6.79,6.694
	c3.815-0.194,6.507-3.016,6.694-6.79l0.917-18.556l22.037-13.193l-0.318,25.681l-15.576,10.127
	c-1.519,0.987-2.715,2.372-3.178,4.164c-0.406,1.57-0.203,3.642,0.677,5.036c1.858,2.945,6.044,4.553,9.201,2.501l8.676-5.64
	l-0.14,11.331l-16.347,10.604c-1.519,0.985-2.715,2.374-3.178,4.164c-0.406,1.57-0.203,3.642,0.677,5.037
	c1.86,2.948,6.042,4.55,9.201,2.501l9.431-6.118c-0.039,2.03-0.073,4.06-0.071,6.088l-15.328,9.943
	c-1.519,0.985-2.715,2.374-3.178,4.164c-0.406,1.57-0.203,3.642,0.677,5.036c1.86,2.948,6.042,4.55,9.201,2.501l15.128-9.813
	l14.702,10.932c1.291,0.96,3.634,1.064,5.116,0.664c1.596-0.431,3.316-1.655,4.088-3.148c0.801-1.55,1.206-3.403,0.664-5.116
	l-0.657-1.594c-0.607-1.053-1.438-1.884-2.491-2.494l-14.432-10.731l0.081-6.531l8.566,6.369c1.291,0.96,3.634,1.064,5.116,0.664
	c1.596-0.431,3.316-1.655,4.088-3.148c0.801-1.55,1.206-3.403,0.664-5.116l-0.657-1.594c-0.607-1.053-1.438-1.884-2.491-2.494
	l-15.081-11.214l0.137-11.046l6.913,5.306c1.264,0.97,3.657,1.058,5.116,0.664c1.596-0.431,3.316-1.655,4.088-3.148
	c0.801-1.55,1.206-3.403,0.664-5.116l-0.657-1.594c-0.607-1.053-1.438-1.884-2.491-2.494l-13.426-10.306
	c0.012-0.935,0.31-24.874,0.313-25.063l21.896,12.181l2.277,16.813c0.247,1.822,0.598,3.33,1.948,4.694
	c1.177,1.19,3.14,2.087,4.842,2c1.71-0.087,3.497-0.653,4.694-1.948c1.139-1.233,2.237-3.093,2-4.842l-1.164-8.597l9.642,5.364
	l2.241,18.7c0.217,1.808,0.617,3.349,1.948,4.694c1.177,1.19,3.14,2.087,4.842,2c1.71-0.087,3.497-0.653,4.694-1.948
	c1.151-1.246,2.211-3.079,2-4.842l-1.264-10.545c1.892,1.066,3.786,2.13,5.696,3.161l2.144,17.89
	c0.217,1.808,0.617,3.349,1.948,4.694c1.177,1.19,3.14,2.087,4.842,2c1.71-0.087,3.497-0.653,4.694-1.948
	C221.743,222.046,222.803,220.213,222.592,218.45z"/>
</svg>
