<?xml version="1.0" encoding="utf-8"?>
<!-- Generator: Adobe Illustrator 25.3.1, SVG Export Plug-In . SVG Version: 6.00 Build 0)  -->
<svg version="1.1" id="Layer_1" xmlns="http://www.w3.org/2000/svg" xmlns:xlink="http://www.w3.org/1999/xlink" x="0px" y="0px"
	 viewBox="0 0 288 288" style="enable-background:new 0 0 288 288;" xml:space="preserve">
<style type="text/css">
	.st0{fill:#202D5E;stroke:#000001;stroke-width:0.0636;stroke-miterlimit:10;}
	.st1{fill:#536DA0;stroke:#000001;stroke-width:0.0636;stroke-miterlimit:10;}
	.st2{fill:#536DA0;stroke:#000001;stroke-width:0.069;stroke-miterlimit:10;}
	.st3{fill-rule:evenodd;clip-rule:evenodd;fill:#536DA0;stroke:#000001;stroke-width:0.0636;stroke-miterlimit:10;}
	.st4{fill:#202D5E;stroke:#000001;stroke-width:0.0474;stroke-miterlimit:10;}
	.st5{fill:#536DA0;stroke:#000001;stroke-width:0.0474;stroke-miterlimit:10;}
	.st6{fill:#536DA0;stroke:#000001;stroke-width:0.0514;stroke-miterlimit:10;}
	.st7{fill:#202D5E;stroke:#000001;stroke-width:0.073;stroke-miterlimit:10;}
	.st8{fill-rule:evenodd;clip-rule:evenodd;fill:#536DA0;stroke:#000001;stroke-width:0.0474;stroke-miterlimit:10;}
</style>
<path class="st1" d="M267.906,134.501c0.346,5.13-3.19,9.726-8.317,10.035l-10.612,0.562l0.877,0.83
	c3.779,3.555,4.165,9.619,0.938,13.499c-3.171,3.868-8.858,4.318-12.69,0.691l-14.481-13.677l-7.245,0.383l17.778,16.79
	c2.633,2.478,3.707,6.229,2.8,9.786c-1.747,6.878-9.614,9.085-14.551,4.41l-31.384-29.641l-19.152,1.016
	c-0.652,2.394-1.633,4.691-2.892,6.765l11.401,18.167l39.012,8.902c2.361,0.534,4.405,2.012,5.755,4.16
	c3.591,5.711,0.658,13.506-5.77,14.635c-1.111,0.195-2.241,0.165-3.361-0.088l-21.365-4.874l4.228,6.738l18.175,4.149
	c5.613,1.272,8.798,7.701,6.608,13.246c-1.164,2.95-3.643,5.025-6.634,5.55c-1.306,0.229-2.183,0.163-3.867-0.196l5.46,8.699
	c1.352,2.153,1.846,4.716,1.391,7.211c-1.501,8.285-11.75,10.35-16.266,3.172l-5.969-9.509l-0.219,1.212
	c-1.524,8.407-11.813,10.267-16.271,3.176c-1.346-2.149-1.837-4.709-1.386-7.206l3.605-19.921l-4.078-6.493l-4.424,24.468
	c-0.973,5.365-5.838,8.433-10.516,7.338c-4.926-1.119-8.069-6.239-7.142-11.368l7.812-43.171l-10.772-17.165
	c-2.339,0.565-4.691,0.744-7.018,0.574l-8.856,19.238l13.035,40.258c1.589,4.908-0.73,10.392-5.559,12.05
	c-4.776,1.622-9.848-1.308-11.424-6.183l-7.136-22.043l-3.286,7.136l6.074,18.756c1.806,5.579-1.434,11.43-6.835,12.379
	c-4.334,0.762-8.697-2.036-10.149-6.51l-0.175-0.541l-4.249,9.228c-2.88,6.256-11.092,7.111-15.221,1.26
	c-2.074-2.938-2.441-6.765-0.957-9.989l4.638-10.076c-1.061,0.366-1.553,0.564-2.383,0.709c-7.201,1.265-12.995-6.807-9.745-13.826
	c1.055-2.279,2.88-3.956,5.129-4.718l18.086-6.245l3.164-6.879c-24.024,8.307-22.741,7.883-23.502,8.005
	c-4.345,0.696-8.697-2.035-10.146-6.505c-1.339-4.118,0.126-8.558,3.532-11.044c1.028-0.75,0.195-0.398,41.203-14.539l8.364-18.172
	c-1.651-1.853-3.03-3.929-4.119-6.197l-20.246,1.073l-25.982,31.35c-3.907,4.73-11.374,4.171-14.58-1.839
	c-1.934-3.63-1.552-7.946,0.976-10.999l14.229-17.168l-7.515,0.398l-12.094,14.601c-3.923,4.754-11.389,4.158-14.579-1.824
	c-1.938-3.639-1.557-7.959,0.97-11.008l0.35-0.423l-9.724,0.517c-9.027,0.472-13.358-12.258-5.689-17.597
	c2.389-1.667,3.543-1.531,14.991-2.091l-0.865-0.817c-5.662-5.326-3.227-15.232,4.213-16.539c2.71-0.476,5.457,0.38,7.537,2.349
	l14.48,13.675l7.241-0.382l-17.78-16.795c-3.813-3.599-4.113-9.672-0.93-13.498c3.132-3.82,8.831-4.341,12.688-0.689l31.381,29.639
	l19.154-1.016c0.652-2.39,1.632-4.687,2.892-6.766l-11.401-18.167l-39.015-8.901c-2.359-0.535-4.401-2.011-5.749-4.158
	c-3.593-5.716-0.669-13.51,5.77-14.641c1.113-0.196,2.245-0.166,3.358,0.092l21.367,4.875l-4.23-6.739l-18.174-4.148
	c-7.836-1.775-9.985-12.754-3.365-17.391c2.027-1.42,4.461-1.841,6.742-1.317l0.523,0.118l-5.471-8.716
	c-3.624-5.769-0.575-13.512,5.769-14.627c3.611-0.634,7.132,1.099,9.099,4.238l5.974,9.514l0.219-1.212
	c1.364-7.562,10.133-10.115,15.193-4.586c2.101,2.294,3.021,5.514,2.462,8.613l-3.604,19.92l4.076,6.494l4.424-24.456
	c1.357-7.558,10.116-10.127,15.183-4.596c2.107,2.299,3.032,5.519,2.474,8.615l-7.811,43.174l10.774,17.163
	c2.229-0.54,4.607-0.75,7.016-0.574l8.856-19.238l-13.033-40.261c-1.807-5.591,1.466-11.429,6.826-12.371
	c4.344-0.763,8.71,2.035,10.156,6.506l7.138,22.045l3.285-7.137l-6.075-18.762c-1.808-5.603,1.493-11.436,6.816-12.371
	c4.353-0.765,8.725,2.036,10.17,6.511l0.176,0.543l4.248-9.228c1.238-2.691,3.645-4.59,6.436-5.08
	c7.145-1.255,12.976,6.779,9.742,13.811l-4.635,10.072l1.112-0.385c4.84-1.624,9.859,1.355,11.426,6.183
	c1.663,5.149-0.96,10.466-5.544,12.042l-18.084,6.245l-3.164,6.879c23.94-8.277,22.732-7.881,23.503-8.005
	c3.35-0.539,6.712,0.882,8.795,3.833c3.751,5.314,1.525,12.767-4.193,14.717l-39.191,13.535l-8.363,18.178
	c1.648,1.847,3.029,3.923,4.119,6.195l20.245-1.073c27.251-32.913,26.535-32.18,27.74-32.975c3.279-2.289,7.758-2.046,10.927,0.948
	c3.702,3.494,4.217,9.537,0.917,13.513l-14.228,17.17l7.513-0.397c12.984-15.699,12.579-15.333,13.864-16.233
	c3.291-2.297,7.773-2.037,10.923,0.946c3.75,3.541,4.163,9.606,0.922,13.516l-0.348,0.42l9.719-0.515
	C263.227,125.159,267.542,129.232,267.906,134.501z"/>
</svg>
