<?xml version="1.0" encoding="utf-8"?>
<!-- Generator: Adobe Illustrator 25.3.1, SVG Export Plug-In . SVG Version: 6.00 Build 0)  -->
<svg version="1.1" id="Layer_1" xmlns="http://www.w3.org/2000/svg" xmlns:xlink="http://www.w3.org/1999/xlink" x="0px" y="0px"
	 viewBox="0 0 288 288" style="enable-background:new 0 0 288 288;" xml:space="preserve">
<style type="text/css">
	.st0{fill:#202D5E;stroke:#000001;stroke-width:0.0636;stroke-miterlimit:10;}
	.st1{fill:#536DA0;stroke:#000001;stroke-width:0.0636;stroke-miterlimit:10;}
	.st2{fill:#536DA0;stroke:#000001;stroke-width:0.069;stroke-miterlimit:10;}
	.st3{fill-rule:evenodd;clip-rule:evenodd;fill:#536DA0;stroke:#000001;stroke-width:0.0636;stroke-miterlimit:10;}
	.st4{fill:#202D5E;stroke:#000001;stroke-width:0.0474;stroke-miterlimit:10;}
	.st5{fill:#536DA0;stroke:#000001;stroke-width:0.0474;stroke-miterlimit:10;}
	.st6{fill:#536DA0;stroke:#000001;stroke-width:0.0514;stroke-miterlimit:10;}
	.st7{fill:#202D5E;stroke:#000001;stroke-width:0.073;stroke-miterlimit:10;}
	.st8{fill-rule:evenodd;clip-rule:evenodd;fill:#536DA0;stroke:#000001;stroke-width:0.0474;stroke-miterlimit:10;}
</style>
<path class="st1" d="M253.135,164.797l-14.437-19.345l12.913-19.983c2.105-3.258,0.771-8.315-2.655-10.125
	c-3.68-1.944-7.878-0.822-10.125,2.655l-12.911,19.986h-13.085l14.615-22.649c2.103-3.259,0.772-8.314-2.655-10.125
	c-3.677-1.943-7.881-0.824-10.125,2.655l-19.443,30.143h-9.765l7.628-15.253c2.582-5.165-0.605-10.788-6.39-11.136l-17.065-1.024
	l4.891-8.455l35.78-1.767c3.86-0.191,7.586-3.267,7.4-7.4c-0.172-3.846-3.259-7.605-7.4-7.4l-26.967,1.332
	c1.143-1.977,5.539-9.531,6.589-11.335l23.683-1.187c3.86-0.193,7.586-3.265,7.4-7.4c-0.172-3.844-3.259-7.608-7.4-7.4
	l-23.811,1.193l-9.566-22.248c-0.681-1.583-2.845-2.966-4.423-3.401c-1.771-0.488-4.13-0.268-5.702,0.746
	c-1.58,1.019-2.971,2.536-3.401,4.423c-0.472,2.071-0.085,3.77,0.746,5.702l9.57,22.258l-6.657,11.508l-9.169-22.307
	c-0.765-1.86-1.595-3.366-3.401-4.423c-1.586-0.928-3.924-1.322-5.702-0.746c-1.791,0.579-3.518,1.689-4.423,3.401
	c-0.865,1.637-1.485,3.906-0.746,5.702l14.153,34.43l-3.893,6.731l-9.561-16.56c-2.772-4.801-10.008-4.801-12.78,0l-9.561,16.56
	l-3.893-6.731l14.153-34.43c0.679-1.652,0.112-4.236-0.746-5.702c-0.898-1.535-2.658-2.999-4.423-3.401
	c-1.894-0.431-4.021-0.338-5.702,0.746c-1.727,1.113-2.626,2.537-3.401,4.423l-9.169,22.307c-1.207-2.087-5.632-9.783-6.642-11.543
	l9.555-22.223c0.818-1.903,1.321-3.616,0.746-5.702c-0.473-1.717-1.8-3.577-3.401-4.423c-1.717-0.907-3.798-1.362-5.702-0.746
	c-1.703,0.551-3.682,1.679-4.423,3.401l-9.566,22.248l-23.811-1.193c-3.872-0.194-7.573,3.543-7.4,7.4
	c0.187,4.176,3.252,7.192,7.4,7.4l23.717,1.189l6.555,11.333l-26.967-1.332c-3.872-0.191-7.573,3.541-7.4,7.4
	c0.187,4.173,3.252,7.196,7.4,7.4l35.78,1.767l4.891,8.455l-17.065,1.024c-5.785,0.347-8.972,5.971-6.39,11.136l7.628,15.253h-9.765
	l-19.443-30.143c-2.096-3.249-6.664-4.887-10.125-2.655c-3.248,2.094-4.9,6.646-2.655,10.125l14.615,22.654
	c-2.296-0.002-11.032-0.035-13.106-0.043l-12.89-19.949c-2.099-3.248-6.662-4.888-10.125-2.655
	c-3.246,2.093-4.902,6.647-2.655,10.125l12.913,19.983l-14.437,19.345c-1.074,1.44-1.2,4.054-0.746,5.702
	c0.473,1.717,1.8,3.577,3.401,4.423c1.717,0.907,3.798,1.362,5.702,0.746c1.947-0.63,3.207-1.771,4.423-3.401l14.543-19.482h13.292
	l-15.862,20.562c-1.087,1.409-1.192,4.082-0.746,5.702c0.473,1.717,1.8,3.577,3.401,4.423c1.717,0.907,3.798,1.362,5.702,0.746
	c1.961-0.635,3.176-1.785,4.423-3.401l21.615-28.009h7.784l-9.522,16.496c-2.803,4.855,0.758,11.136,6.39,11.136h19.083
	l-3.891,6.753l-36.989,4.971c-1.696,0.228-3.605,2.004-4.423,3.401c-0.928,1.586-1.322,3.924-0.746,5.702
	c0.579,1.791,1.689,3.518,3.401,4.423c1.888,0.998,3.61,1.027,5.702,0.746l23.809-3.2c-1.193,2.071-5.648,9.758-6.679,11.534
	l-24.069,2.842c-2.029,0.24-3.732,0.667-5.233,2.168c-1.284,1.284-2.25,3.389-2.168,5.233c0.086,1.914,0.714,3.899,2.168,5.233
	c1.348,1.237,3.329,2.392,5.233,2.168l24.013-2.835l10.888,21.249c1.769,3.452,6.894,4.738,10.125,2.655
	c3.522-2.27,4.547-6.433,2.655-10.125l-10.811-21.098l6.538-11.345l12.348,24.056c1.771,3.45,6.893,4.739,10.125,2.655
	c3.52-2.269,4.549-6.435,2.655-10.125l-16.341-31.834l4.875-8.46l9.44,14.298c3.144,4.762,9.636,4.762,12.78,0l9.44-14.298
	l4.875,8.46l-16.341,31.834c-1.766,3.441-1.01,8.189,2.655,10.125c3.386,1.789,8.238,1.022,10.125-2.655l12.348-24.056
	c1.154,2.002,5.498,9.588,6.521,11.378l-10.794,21.065c-1.764,3.442-1.012,8.188,2.655,10.125c3.383,1.788,8.24,1.024,10.125-2.655
	l10.888-21.249l24.013,2.835c1.753,0.207,4.041-0.976,5.233-2.168c1.284-1.284,2.25-3.389,2.168-5.233
	c-0.086-1.914-0.714-3.899-2.168-5.233c-1.539-1.413-3.171-1.924-5.233-2.168l-24.103-2.846l-6.644-11.53l23.809,3.2
	c2.067,0.278,3.82,0.355,5.702-0.746c1.535-0.898,2.999-2.658,3.401-4.423c0.431-1.894,0.338-4.021-0.746-5.702
	c-0.962-1.493-2.574-3.152-4.423-3.401l-36.989-4.971l-3.891-6.753h19.083c5.632,0,9.193-6.28,6.39-11.136l-9.522-16.496h7.784
	l21.615,28.009c1.234,1.599,2.39,2.841,4.423,3.401c1.771,0.488,4.13,0.268,5.702-0.746c1.58-1.019,2.971-2.536,3.401-4.423
	c0.409-1.796,0.437-4.169-0.746-5.702l-15.862-20.557c2.401-0.002,11.277,0.015,13.315,0.02l14.52,19.456
	c1.196,1.602,2.42,2.849,4.423,3.401c1.771,0.488,4.13,0.268,5.702-0.746c1.58-1.019,2.971-2.536,3.401-4.423
	C254.294,168.684,254.301,166.359,253.135,164.797z M120.746,165.64h-14.793l7.398-12.807h14.772L120.746,165.64z M113.529,138.032
	l-6.151-12.308l13.73-0.824l7.599,13.132H113.529z M141.234,104.531l7.397,12.811l-7.397,12.787l-7.397-12.787L141.234,104.531z
	 M141.234,184.355l-7.576-11.474l7.576-13.145l7.575,13.145L141.234,184.355z M153.761,138.031l7.599-13.132l13.73,0.824
	l-6.151,12.308H153.761z M161.722,165.64l-7.377-12.807h14.772l7.398,12.807H161.722z"/>
</svg>
