<?xml version="1.0" encoding="utf-8"?>
<!-- Generator: Adobe Illustrator 25.3.1, SVG Export Plug-In . SVG Version: 6.00 Build 0)  -->
<svg version="1.1" id="Layer_1" xmlns="http://www.w3.org/2000/svg" xmlns:xlink="http://www.w3.org/1999/xlink" x="0px" y="0px"
	 viewBox="0 0 288 288" style="enable-background:new 0 0 288 288;" xml:space="preserve">
<style type="text/css">
	.st0{fill:#202D5E;stroke:#000001;stroke-width:0.0636;stroke-miterlimit:10;}
	.st1{fill:#536DA0;stroke:#000001;stroke-width:0.0636;stroke-miterlimit:10;}
	.st2{fill:#536DA0;stroke:#000001;stroke-width:0.069;stroke-miterlimit:10;}
	.st3{fill-rule:evenodd;clip-rule:evenodd;fill:#536DA0;stroke:#000001;stroke-width:0.0636;stroke-miterlimit:10;}
	.st4{fill:#202D5E;stroke:#000001;stroke-width:0.0474;stroke-miterlimit:10;}
	.st5{fill:#536DA0;stroke:#000001;stroke-width:0.0474;stroke-miterlimit:10;}
	.st6{fill:#536DA0;stroke:#000001;stroke-width:0.0514;stroke-miterlimit:10;}
	.st7{fill:#202D5E;stroke:#000001;stroke-width:0.073;stroke-miterlimit:10;}
	.st8{fill-rule:evenodd;clip-rule:evenodd;fill:#536DA0;stroke:#000001;stroke-width:0.0474;stroke-miterlimit:10;}
</style>
<path class="st3" d="M190.951,107.8c18.403-18.731,17.053-17.592,18.061-17.95c2.225-0.79,3.554-2.372,3.798-4.708
	c0.691-6.598-8.807-8.654-10.855-2.234c-0.329,1.031-17.456,18.157-17.822,18.453c-0.415-44.988,1.761-38.051-6.895-41.943
	c-0.755,0.261-26.973,27.964-27.424,27.638c-0.389,0.004-0.023,1.439-0.212-19.364l11.952-25.388L142.38,20.777L127.483,48.9
	l12.561,14.251c0.445,1.551,0.475,23.891,0.283,24.088c-32.058-31.479-25.878-28.241-33.713-24.597
	c0.386,40.536,0.62,38.842,0.213,38.944C88.96,84.029,90.026,85.3,89.643,84.274c-0.838-2.248-2.469-3.531-4.843-3.7
	c-6.616-0.471-8.323,9.023-1.961,10.891c0.897,0.263,17.135,16.417,17.49,16.88c-45.105,0.416-38.11-1.819-41.591,7.047
	l27.537,27.056c-26.904,0.567-19.068,2.348-40.778-12.853l-26.338,16.777l28.254,17.91c20.64-13.312,15.527-13.236,38.887-12.5
	c-31.555,32.136-28.34,25.665-24.508,34.684c37.911-0.376,38.55-0.675,38.884-0.309c0.16,0.387-16.632,17.041-17.039,17.18
	c-4.527,1.545-5.262,7.303-1.545,9.875c6.788,4.696,6.82-4.022,25.421-20.558c0.591,52.161-4.095,52.232,34.018,13.433
	c1.236,22.289,0.991,17.702-11.87,43.587l20.313,24.374l13.736-31.144l-12.686-15.027c-0.206-24.128-0.211-21.055-0.123-21.854
	l27.812,27.325c9.002-3.579,6.802,3.27,6.408-41.583c0.155-0.079,17.659,16.783,18.106,18.06c1.628,4.655,7.637,5.165,10.083,1.017
	c3.394-5.756-3.629-8.165-4.041-8.569c-17.601-17.278-17.001-16.672-17.553-17.327l38.981-0.368
	c3.228-8.843,6.434-1.937-25.628-33.804c28.592-0.916,21.622-1.695,43.046,12.148l24.441-15.939l-26.26-18.729l-20.254,13.035
	c-25.333,0.219-20.161,0.201-21.037,0.114c31.575-32.156,28.201-25.955,24.986-33.678
	C229.095,107.422,191.131,108.323,190.951,107.8z M74.632,117.94c0.388-0.043,34.993-0.578,35.582-0.001
	c17.159,16.826,23.901,23.46,24.471,24.095c-1.127,0.051-12.325,0.335-34.587,0.359C99.068,142.395,74.966,118.306,74.632,117.94z
	 M74.695,177.01c0.346-0.393,24.552-25.372,25.369-25.38c11.451-0.116,34.665-0.282,34.976-0.286
	c-0.98,1.08-18.955,19.192-24.382,24.883C109.918,177.004,75.085,177.045,74.695,177.01z M141.439,192.301
	c0.013,0.894-23.935,24.897-24.282,25.212c-0.024-0.408-0.588-34.041,0.067-34.708c26.094-26.593,23.888-24.741,23.892-23.516
	C141.14,167.377,141.397,189.365,141.439,192.301z M175.792,183.059c0.134,14.037,0.309,33.576,0.281,34.549
	c-0.608-0.518,3.852,3.769-24.981-24.478c-0.57-0.558-0.659-35.303-0.644-35.711C177.514,184.051,175.781,181.97,175.792,183.059z
	 M149.908,100.997c-0.009-0.894-1.852,1.304,24.665-25.683c0.043,0.388,0.708,35.196-0.054,35.952
	c-25.42,25.248-23.859,24.741-24.289,24.512C150.201,134.865,150.084,118.884,149.908,100.997z M116.352,110.212
	c-0.149-16.312-0.32-32.779-0.253-33.752c0.864,0.768,7.715,7.567,23.979,23.498c0.805,0.789,0.805,34.485,0.81,34.912
	C140.617,134.99,116.362,111.378,116.352,110.212z M216.889,175.337c-0.388,0.043-34.332,0.61-34.94,0.013
	c-25.67-25.19-24.585-23.783-24.453-24.193c0.408-0.024,34.176-0.608,34.922,0.123L216.889,175.337z M215.862,117.055
	c-0.346,0.393-23.686,24.497-24.522,24.515c-35.164,0.745-33.477,0.522-33.694,0.155c25.518-25.965,23.59-24.378,24.621-24.38
	C196.11,117.324,214.559,117.011,215.862,117.055z"/>
</svg>
