<?xml version="1.0" encoding="utf-8"?>
<!-- Generator: Adobe Illustrator 25.3.1, SVG Export Plug-In . SVG Version: 6.00 Build 0)  -->
<svg version="1.1" id="Layer_1" xmlns="http://www.w3.org/2000/svg" xmlns:xlink="http://www.w3.org/1999/xlink" x="0px" y="0px"
	 viewBox="0 0 288 288" style="enable-background:new 0 0 288 288;" xml:space="preserve">
<style type="text/css">
	.st0{fill:#202D5E;stroke:#000001;stroke-width:0.0636;stroke-miterlimit:10;}
	.st1{fill:#536DA0;stroke:#000001;stroke-width:0.0636;stroke-miterlimit:10;}
	.st2{fill:#536DA0;stroke:#000001;stroke-width:0.069;stroke-miterlimit:10;}
	.st3{fill-rule:evenodd;clip-rule:evenodd;fill:#536DA0;stroke:#000001;stroke-width:0.0636;stroke-miterlimit:10;}
	.st4{fill:#202D5E;stroke:#000001;stroke-width:0.0474;stroke-miterlimit:10;}
	.st5{fill:#536DA0;stroke:#000001;stroke-width:0.0474;stroke-miterlimit:10;}
	.st6{fill:#536DA0;stroke:#000001;stroke-width:0.0514;stroke-miterlimit:10;}
	.st7{fill:#202D5E;stroke:#000001;stroke-width:0.073;stroke-miterlimit:10;}
	.st8{fill-rule:evenodd;clip-rule:evenodd;fill:#536DA0;stroke:#000001;stroke-width:0.0474;stroke-miterlimit:10;}
</style>
<path class="st0" d="M238.612,204.624l3.821,14.509l18.357-4.835l-4.835-18.357l-14.734,3.881l-14.166-8.277l24.02-12.136
	c3.151-1.592,0.452-6.351-2.683-4.768l-26.957,13.62l-4.808-2.809l-5.741-21.797l-21.757,5.73l-8.175-4.776
	c25.06-16.342,23.238-15.084,23.789-15.666h4.14c0.005,0.584,0.196,1.19,0.646,1.746l15.962,19.74
	c2.216,2.74,6.114-1.103,3.918-3.818l-14.276-17.647h12.021l9.616,9.724l12.459-12.33l-12.318-12.471l-9.726,9.606l-12.026-0.119
	l14.453-17.465c0.948-1.146,1.148-2.72,0.05-3.868c-0.937-0.98-2.928-1.186-3.868-0.05l-16.185,19.557
	c-0.434,0.525-0.709,1.14-0.776,1.763l-4.052-0.04c-0.541-0.583,1.224,0.663-23.613-15.939l8.228-4.683l21.69,5.977l5.988-21.729
	l4.842-2.756l26.786,13.918c3.112,1.617,5.893-3.094,2.762-4.721l-23.893-12.415l14.261-8.116l14.689,4.048l5.043-18.301
	l-18.301-5.043l-3.986,14.463c-0.22,0.115-3.057,1.733-13.907,7.908l3.232-26.097c0.183-1.477-1.388-2.72-2.734-2.736
	c-1.624-0.019-2.556,1.277-2.736,2.734l-3.647,29.449l-5.534,3.15l-21.065-5.805l-5.816,21.103l-8.385,4.772
	c0.184-32.379,0.238-30.16,0.025-30.923c0.222-0.341-0.824,1.422,2.44-4.207c0.539,0.043-1.275,0.304,22.615-3.651
	c3.476-0.575,2.065-5.862-1.386-5.291l-17.747,2.938l5.48-9.449l13.224-3.463l-4.461-17.037l-17.037,4.461l3.463,13.224
	l-5.551,9.408l-6.137-16.909c-1.193-3.286-6.494-1.928-5.291,1.386c8.213,22.626,7.597,21.049,7.902,21.501
	c-3.267,5.538-2.302,3.864-2.471,4.189c-0.774,0.19,1.385-0.949-26.917,15.178v-9.648l15.57-15.412l-15.368-15.517V56.86
	l23.898-17.612c1.197-0.883,1.814-2.319,1.042-3.725c-0.643-1.172-2.538-1.918-3.725-1.042l-21.164,15.608
	c0.065-12.535,0.085-15.75,0.077-15.998l10.653-10.563l-13.366-13.48l-13.48,13.366l10.685,10.819v16.408l-22.574-14.742
	c-2.948-1.929-5.702,2.798-2.762,4.721l25.246,16.527v5.571l-16.02,15.869l15.816,15.977v9.467
	c-26.622-13.501-24.716-12.584-25.491-12.771l-2.017-3.506c0.508-0.366,0.907-0.91,1.152-1.547l9.114-23.693
	c0.529-1.375-0.62-3.002-1.939-3.347c-1.555-0.407-2.813,0.55-3.347,1.939l-8.139,21.158l-5.998-10.424l3.606-13.186l-16.908-4.624
	l-4.642,16.903l13.182,3.62l5.907,10.47l-22.387-3.791c-3.438-0.582-4.888,4.697-1.408,5.287l25.029,4.238
	c0.704,0.119,1.323-0.01,1.835-0.292l2.035,3.607c-0.235,0.757-0.034-1.473-1.999,28.415l-8.17-4.785L95.109,95.93l-21.813,5.679
	l-4.806-2.814l-1.34-30.172c-0.156-3.505-5.627-3.532-5.47-0.002l1.194,26.885l-14.158-8.291l-3.839-14.745l-18.371,4.783
	l4.783,18.371l14.52-3.78c0.209,0.134,3.025,1.779,13.798,8.088l-24.188,10.238c-1.371,0.58-1.696,2.534-1.042,3.725
	c0.777,1.417,2.372,1.615,3.725,1.042l27.356-11.579l5.49,3.215l5.505,21.146l21.184-5.515l8.325,4.876
	c-28.361,16.16-26.22,14.863-26.784,15.441c-0.266-0.003,0.377-0.001-4.864-0.011c-0.23-0.479,0.9,0.957-14.462-17.746
	c-2.237-2.724-6.137,1.117-3.918,3.818l11.428,13.903H56.442l-9.611-9.731l-12.524,12.382l12.382,12.524l9.721-9.611l10.925,0.103
	l-11.562,13.755c-2.248,2.674,1.554,6.611,3.818,3.918c15.572-18.525,14.437-17.111,14.677-17.608l4.873,0.046
	c0.549,0.572-1.525-0.717,26.612,15.742l-8.381,4.781l-21.12-5.756l-5.746,21.082l-5.529,3.154L37.77,175.383
	c-1.353-0.591-2.933-0.403-3.741,0.98c-0.678,1.16-0.383,3.146,0.98,3.741l24.085,10.518c-10.8,6.161-13.681,7.8-13.89,7.932
	l-14.476-3.945l-4.992,18.315l18.315,4.992l4.006-14.7l14.253-8.131l-1.502,26.899c-0.196,3.516,5.274,3.513,5.47,0.002
	l1.682-30.124l4.839-2.761l21.746,5.927l5.916-21.707l8.221-4.69c1.625,29.924,1.449,27.689,1.673,28.444l-2.024,3.494
	c-0.57-0.257-1.238-0.332-1.898-0.228l-25.076,3.953c-1.471,0.232-2.286,2.007-1.953,3.338c0.388,1.551,1.888,2.182,3.338,1.953
	l22.412-3.533l-6.027,10.405l-13.223,3.47l4.449,16.955l16.959-4.432l-3.456-13.226l6.115-10.354l7.905,21.267
	c0.518,1.395,1.804,2.337,3.338,1.953c1.324-0.331,2.466-1.957,1.953-3.338l-8.844-23.795c-0.235-0.633-0.63-1.171-1.133-1.536
	l2.058-3.484c0.767-0.174-1.305,0.772,25.584-12.482v9.465l-16.051,15.796l15.807,16.051v5.571l-25.451,16.23
	c-2.962,1.89-0.289,6.664,2.683,4.768l22.66-14.493v16.408l-10.901,10.697l13.327,13.518l13.518-13.327l-10.534-10.684
	c0.013-0.247,0.029-3.562,0.106-15.995l20.973,15.838c1.181,0.892,3.058,0.189,3.741-0.98c0.819-1.4,0.204-2.847-0.98-3.741
	l-23.673-17.892v-6.366l15.58-15.341l-15.338-15.588v-9.648c28.12,16.449,26.025,15.282,26.795,15.481l2.428,4.225
	c-0.325,0.466,0.292-1.049-8.155,21.423c-1.236,3.288,4.056,4.683,5.287,1.408l6.323-16.82l5.444,9.472l-3.613,13.184l16.985,4.655
	l4.655-16.985l-13.183-3.613l-5.371-9.508l17.729,3.142c3.436,0.609,4.885-4.67,1.408-5.287
	c-23.707-4.202-22.022-3.943-22.556-3.908c-2.762-4.889-2.277-4.032-2.394-4.235c0.228-0.779,0.146,1.754,0.332-30.914l8.33,4.867
	l5.575,21.169l21.131-5.565l5.494,3.21l3.315,29.52c0.166,1.479,1.139,2.717,2.734,2.736c1.351,0.016,2.901-1.27,2.736-2.734
	l-2.931-26.102C235.579,202.859,238.392,204.507,238.612,204.624z M167.479,156.736l14.529-8.278
	c1.039-0.592,1.415-1.531,1.342-2.446c0.108-0.928-0.248-1.895-1.301-2.511l-14.446-8.45l5.605-3.19l21.222,14.186l-21.382,13.943
	L167.479,156.736z M127.685,173.139v-15.373l13.361-7.625v15.387L127.685,173.139z M159.503,118.598v14.79l-12.847,7.309v-14.777
	L159.503,118.598z M162.023,153.548l-13.286-7.763l13.374-7.611l13.27,7.762L162.023,153.548z M141.184,141.344l-13.274-7.776
	v-15.374l13.274,7.762V141.344z M137.798,145.723l-12.836,7.323l-12.766-7.468l12.851-7.323
	C129.478,140.85,123.633,137.427,137.798,145.723z M146.514,150.848l12.763,7.455v14.791l-12.763-7.468V150.848z M170.606,99.689
	c-0.106,18.688-0.155,26.011-0.138,26.383c-0.167,0.401-0.261,0.81-0.291,1.218l-5.181,2.975v-16.387
	c0.012-2.049-2.25-3.399-4.03-2.385l-14.223,8.113v-6.021c0.341-0.224,0.666-0.505,0.933-0.844
	C148.007,112.574,154.402,108.923,170.606,99.689z M141.273,119.638l-14.463-8.45c-1.048-0.613-2.063-0.453-2.819,0.092
	c-0.838,0.382-1.523,1.172-1.53,2.373v16.721l-5.613-3.259l1.674-25.471l22.75,11.546V119.638z M90.289,145.453
	c24.61-14.023,22.6-12.869,22.91-13.07c0.435-0.056,0.839-0.18,1.209-0.359l5.19,3.039l-14.214,8.099
	c-1.8,1.026-1.836,3.693-0.039,4.744l14.133,8.267l-5.401,3.081c-0.223-0.094-0.453-0.171-0.688-0.229
	C112.977,158.698,114.82,159.803,90.289,145.453z M116.641,164.09l5.551-3.194v16.75c-0.007,1.2,0.578,1.992,1.415,2.375
	c0.745,0.548,1.749,0.715,2.798,0.117l14.534-8.293v6.446l-22.914,11.285L116.641,164.09z M170.08,192.128
	c-24.562-14.368-22.657-13.281-23.151-13.481c-0.166-0.177-0.327-0.341-0.519-0.49v-6.216l14.152,8.267
	c1.796,1.051,4.151-0.288,4.163-2.36v-16.359l5.245,3.037c0.024,0.409,0.112,0.821,0.274,1.224
	C170.221,166.12,170.241,163.816,170.08,192.128z"/>
</svg>
