<?xml version="1.0" encoding="utf-8"?>
<!-- Generator: Adobe Illustrator 25.3.1, SVG Export Plug-In . SVG Version: 6.00 Build 0)  -->
<svg version="1.1" id="Layer_1" xmlns="http://www.w3.org/2000/svg" xmlns:xlink="http://www.w3.org/1999/xlink" x="0px" y="0px"
	 viewBox="0 0 288 288" style="enable-background:new 0 0 288 288;" xml:space="preserve">
<style type="text/css">
	.st0{fill:#202D5E;stroke:#000001;stroke-width:0.0636;stroke-miterlimit:10;}
	.st1{fill:#536DA0;stroke:#000001;stroke-width:0.0636;stroke-miterlimit:10;}
	.st2{fill:#536DA0;stroke:#000001;stroke-width:0.069;stroke-miterlimit:10;}
	.st3{fill-rule:evenodd;clip-rule:evenodd;fill:#536DA0;stroke:#000001;stroke-width:0.0636;stroke-miterlimit:10;}
	.st4{fill:#202D5E;stroke:#000001;stroke-width:0.0474;stroke-miterlimit:10;}
	.st5{fill:#536DA0;stroke:#000001;stroke-width:0.0474;stroke-miterlimit:10;}
	.st6{fill:#536DA0;stroke:#000001;stroke-width:0.0514;stroke-miterlimit:10;}
	.st7{fill:#202D5E;stroke:#000001;stroke-width:0.073;stroke-miterlimit:10;}
	.st8{fill-rule:evenodd;clip-rule:evenodd;fill:#536DA0;stroke:#000001;stroke-width:0.0474;stroke-miterlimit:10;}
</style>
<path class="st2" d="M230.915,225.028l-3.189-28.251l25.247-12.774c1.928-0.975,2.547-3.627,1.521-5.449
	c-1.102-1.958-3.516-2.499-5.449-1.521l-25.048,12.673l-24.471-14.269l36.886-18.629c1.929-0.974,2.547-3.628,1.521-5.449
	c-1.103-1.959-3.516-2.498-5.449-1.521l-41.187,20.801l-12.545-7.315l21.078-13.762c2.613-1.706,2.659-5.2,0.054-6.939
	l-20.953-13.989l12.62-7.187l40.952,21.212c1.855,0.961,4.43,0.545,5.471-1.436c0.967-1.839,0.554-4.44-1.436-5.471l-36.713-19.016
	c5.629-3.206,22.095-12.5,24.668-13.994l24.847,12.893c1.854,0.962,4.43,0.544,5.471-1.436c0.968-1.841,0.553-4.439-1.436-5.471
	l-25.138-13.044l3.483-28.259c0.264-2.144-2.031-4-4.001-3.999c-2.377,0.001-3.734,1.849-3.999,4.001l-3.512,28.495l-24.278,13.825
	l5.459-39.922c0.292-2.139-0.567-4.288-2.839-4.894c-1.888-0.503-4.599,0.686-4.894,2.839l-6.417,46.926l-11.905,6.82v-27.57
	c0.015-2.996-3.291-4.969-5.894-3.484l-23.918,13.663V90.343l37.756-28.635c1.672-1.269,1.512-4.307,0.07-5.657
	c-1.746-1.635-3.867-1.428-5.657-0.07l-32.095,24.361c0.028-6.466,0.18-25.118,0.175-27.979l23.042-17.013
	c1.736-1.282,2.672-3.406,1.521-5.449c-0.958-1.702-3.702-2.812-5.449-1.521l-22.905,16.912L118.273,29.8
	c-1.754-1.146-4.5-0.411-5.471,1.436c-1.051,2-0.443,4.243,1.436,5.471l23.419,15.343V80.38l-34.656-22.642
	c-1.753-1.148-4.501-0.411-5.471,1.436c-1.052,2.001-0.442,4.242,1.436,5.471l38.558,25.256v14.523l-22.507-11.382
	c-2.794-1.415-5.815,0.34-6.018,3.455l-1.637,25.12l-12.533-7.335l-2.107-46.094c-0.099-2.156-1.772-4.001-4.001-3.999
	c-2.088,0.001-4.098,1.834-3.999,4.001l1.887,41.281c-5.596-3.276-21.876-12.891-24.45-14.368l-1.259-27.984
	c-0.097-2.156-1.773-4.001-4.001-3.999c-2.09,0.001-4.097,1.834-3.999,4.001l1.272,28.266l-26.175,11.096
	c-1.99,0.844-2.497,3.716-1.521,5.449c1.16,2.06,3.454,2.367,5.449,1.521l26.477-11.224l24.108,14.11l-38.225,15.61
	c-2.001,0.817-2.488,3.733-1.521,5.449c1.172,2.081,3.443,2.341,5.449,1.521l42.927-17.53l11.895,6.962L79.12,141.993
	c-2.632,1.502-2.682,5.403-0.054,6.939l23.788,13.897l-11.97,6.842l-42.722-17.959c-1.921-0.808-4.374-0.651-5.471,1.436
	c-0.9,1.713-0.63,4.603,1.436,5.471l38.084,16.01c-5.603,3.203-21.83,12.401-24.315,13.842l-26.281-11.46
	c-1.911-0.833-4.383-0.633-5.471,1.436c-0.911,1.734-0.618,4.575,1.436,5.471L53.66,195.29l-1.564,28.297
	c-0.119,2.156,1.927,4.001,4.001,3.999c2.262-0.001,3.88-1.837,3.999-4.001l1.546-27.984l24.597-14.06l-2.312,41.303
	c-0.121,2.156,1.928,4.001,4.001,3.999c2.263-0.001,3.878-1.837,3.999-4.001l2.577-46.025l12.607-7.206l1.382,25.176
	c0.169,3.08,3.198,4.85,5.964,3.484l22.567-11.161v14.521l-38.87,24.848c-1.819,1.164-2.623,3.493-1.521,5.449
	c1.016,1.804,3.623,2.69,5.449,1.521l34.843-22.298c-0.039,6.492-0.228,25.403-0.22,28.365l-23.566,15.057
	c-1.82,1.163-2.622,3.494-1.521,5.449c1.016,1.805,3.622,2.689,5.449,1.521l23.882-15.259l22.715,17.134
	c1.677,1.265,4.547,0.322,5.471-1.436c1.107-2.107,0.36-4.116-1.436-5.471l-22.856-17.303v-27.941l32.732,25.313
	c1.66,1.287,4.556,0.305,5.471-1.436c1.118-2.127,0.343-4.092-1.436-5.471l-36.584-28.396V187.49l23.829,13.897
	c2.628,1.535,6.073-0.425,6.088-3.455v-27.528l11.977,6.943l5.811,46.002c0.27,2.14,1.649,4.001,4.001,3.999
	c1.951-0.001,4.272-1.845,3.999-4.001l-5.175-40.964c5.58,3.254,21.655,12.709,24.138,14.136l3.218,28.511
	c0.242,2.143,1.669,4.001,4.001,3.999C228.89,229.028,231.159,227.187,230.915,225.028z M145.122,178.257
	c0.037-6.21,0.178-22.985,0.203-25.165l21.648,12.661v25.232L145.122,178.257z M110.87,158.247L89.084,145.52L111,133.016
	c5.353,3.133,19.811,11.642,21.693,12.757L110.87,158.247z M137.454,113.356c-0.027,6.197-0.151,23.38-0.168,25.776l-22.218-13.004
	l1.521-23.338L137.454,113.356z M171.172,133.054l19.451,12.986l-19.583,12.786c-5.348-3.118-20.167-11.817-22.241-13.032
	L171.172,133.054z M167.24,126.085c-5.384,3.066-19.928,11.334-21.84,12.411v-25.138l21.969-12.504L167.24,126.085z
	 M114.871,165.176l22.328-12.747v25.746l-21.046,10.351L114.871,165.176z"/>
</svg>
