<?xml version="1.0" encoding="utf-8"?>
<!-- Generator: Adobe Illustrator 25.3.1, SVG Export Plug-In . SVG Version: 6.00 Build 0)  -->
<svg version="1.1" id="Layer_1" xmlns="http://www.w3.org/2000/svg" xmlns:xlink="http://www.w3.org/1999/xlink" x="0px" y="0px"
	 viewBox="0 0 288 288" style="enable-background:new 0 0 288 288;" xml:space="preserve">
<style type="text/css">
	.st0{fill:#202D5E;stroke:#000001;stroke-width:0.0636;stroke-miterlimit:10;}
	.st1{fill:#536DA0;stroke:#000001;stroke-width:0.0636;stroke-miterlimit:10;}
	.st2{fill:#536DA0;stroke:#000001;stroke-width:0.069;stroke-miterlimit:10;}
	.st3{fill-rule:evenodd;clip-rule:evenodd;fill:#536DA0;stroke:#000001;stroke-width:0.0636;stroke-miterlimit:10;}
	.st4{fill:#202D5E;stroke:#000001;stroke-width:0.0474;stroke-miterlimit:10;}
	.st5{fill:#536DA0;stroke:#000001;stroke-width:0.0474;stroke-miterlimit:10;}
	.st6{fill:#536DA0;stroke:#000001;stroke-width:0.0514;stroke-miterlimit:10;}
	.st7{fill:#202D5E;stroke:#000001;stroke-width:0.073;stroke-miterlimit:10;}
	.st8{fill-rule:evenodd;clip-rule:evenodd;fill:#536DA0;stroke:#000001;stroke-width:0.0474;stroke-miterlimit:10;}
</style>
<path class="st0" d="M255.644,149.418c0.068-0.002,0.137,0,0.206,0c2.584-0.002,5.06-2.271,4.94-4.94
	c-0.12-2.675-2.171-4.936-4.94-4.933h-16.411l16.067-24.859c1.448-2.241,0.457-5.455-1.772-6.759
	c-2.395-1.401-5.307-0.475-6.759,1.772l-19.296,29.867h-13.926l26.953-41.639c1.45-2.24,0.456-5.456-1.772-6.759
	c-2.397-1.402-5.305-0.474-6.759,1.772l-30.186,46.647h-14.215l13.904-27.803c1.724-3.448-0.404-7.202-4.266-7.433l-31.061-1.864
	l7.118-12.306l55.457-2.82c2.577-0.131,5.064-2.178,4.94-4.94c-0.115-2.564-2.176-5.081-4.94-4.94l-49.569,2.52l6.975-12.059
	l35.48-1.778c2.577-0.129,5.064-2.18,4.94-4.94c-0.115-2.566-2.176-5.079-4.94-4.94l-29.594,1.483
	c3.861-6.675,5.88-9.869,8.102-14.007c0.032-0.06,0.069-0.119,0.103-0.178c1.336-2.309,0.537-5.408-1.772-6.759
	c-2.303-1.347-5.419-0.544-6.759,1.772l-7.671,13.261l-11.234-26.128c-1.054-2.451-4.658-3.001-6.759-1.772
	c-2.534,1.482-2.83,4.298-1.772,6.759l13.642,31.728l-8.1,14.003l-19.63-47.374c-1.021-2.463-3.276-4.22-6.077-3.45
	c-2.327,0.64-4.478,3.597-3.45,6.077c24.209,58.426,22.641,54.729,23.014,55.367l-5.851,10.114L140.98,67.69
	c-1.85-3.205-6.681-3.205-8.531,0l-17.026,29.49l-5.848-10.11c0.379-0.659-1.356,3.437,23.012-55.371
	c0.992-2.394-1.07-5.535-3.45-6.077c-2.881-0.656-5.014,0.886-6.077,3.45l-19.63,47.374l-8.1-14.003l13.642-31.728
	c1.053-2.449,0.728-5.297-1.772-6.759c-2.082-1.218-5.699-0.692-6.759,1.772L89.205,51.857c-3.117-5.389-5.073-9.088-7.568-13.083
	c-0.036-0.058-0.069-0.119-0.103-0.178c-1.335-2.308-4.464-3.115-6.759-1.772c-2.318,1.356-3.113,4.441-1.772,6.759l8.205,14.185
	l-29.594-1.483c-2.585-0.13-5.055,2.365-4.94,4.94c0.125,2.787,2.171,4.801,4.94,4.94l35.48,1.778l6.975,12.059L44.5,77.48
	c-2.585-0.131-5.055,2.366-4.94,4.94c0.125,2.789,2.171,4.799,4.94,4.94l55.457,2.82l7.118,12.306l-31.061,1.864
	c-3.862,0.232-5.989,3.986-4.266,7.433l13.904,27.803H71.439L41.253,92.94c-1.448-2.237-4.382-3.163-6.759-1.772
	c-2.227,1.302-3.228,4.51-1.772,6.759l26.953,41.639H45.749l-19.296-29.867c-1.446-2.239-4.383-3.162-6.759-1.772
	c-2.228,1.303-3.226,4.509-1.772,6.759l16.067,24.865c-7.741-0.006-11.524-0.165-16.206-0.013c-0.068,0.002-0.137,0-0.206,0
	c-2.584-0.002-5.059,2.274-4.94,4.94c0.12,2.678,2.171,4.944,4.94,4.946h15.286l-16.977,22.754c-1.597,2.14-0.348,5.519,1.772,6.759
	c2.521,1.475,5.158,0.373,6.759-1.772l20.691-27.718H61.28l-31.961,41.669c-1.625,2.119-0.327,5.531,1.772,6.759
	c2.546,1.489,5.13,0.352,6.759-1.772l35.779-46.635h11.603l-17,29.45c-1.871,3.241,0.506,7.433,4.266,7.433h34.026l-5.796,10.058
	l-58.25,7.662c-2.552,0.336-5.07,2.031-4.94,4.94c0.107,2.387,2.196,5.301,4.94,4.94l52.09-6.851
	c-1.219,2.115,3.091-5.364-8.079,14.02l-34.326,4.053c-2.557,0.302-5.069,2.056-4.94,4.94c0.108,2.417,2.191,5.265,4.94,4.94
	l28.217-3.332c-3.05,5.293-5.299,8.903-7.518,13.047c-0.032,0.06-0.069,0.119-0.103,0.178c-1.332,2.311-0.54,5.407,1.772,6.759
	c2.3,1.345,5.423,0.546,6.759-1.772l8.209-14.245l13.525,26.395c1.216,2.374,4.547,3.066,6.759,1.772
	c2.411-1.41,2.993-4.376,1.772-6.759l-16.188-31.592l6.956-12.071l22.614,44.212c1.215,2.375,4.549,3.065,6.759,1.772
	c2.412-1.411,2.991-4.375,1.772-6.759l-25.274-49.413l7.097-12.316l17.159,25.988c2.099,3.179,6.432,3.179,8.531,0l17.159-25.988
	l7.097,12.316l-25.274,49.413c-1.214,2.374-0.62,5.359,1.772,6.759c2.207,1.291,5.539,0.612,6.759-1.772l22.614-44.212l6.956,12.071
	l-16.188,31.592c-1.216,2.374-0.619,5.36,1.772,6.759c2.208,1.292,5.538,0.611,6.759-1.772l13.525-26.395
	c3.882,6.737,5.619,10.073,8.106,14.066c0.036,0.058,0.069,0.119,0.103,0.178c1.331,2.31,4.467,3.113,6.759,1.772
	c2.321-1.358,3.109-4.439,1.772-6.759l-7.621-13.225l28.217,3.332c2.576,0.304,5.05-2.489,4.94-4.94
	c-0.132-2.936-2.18-4.614-4.94-4.94l-34.326-4.053l-8.079-14.02l52.09,6.851c2.573,0.338,5.049-2.514,4.94-4.94
	c-0.133-2.966-2.183-4.577-4.94-4.94l-58.25-7.662l-5.796-10.058h34.026c3.76,0,6.137-4.192,4.266-7.433l-17-29.45h11.603
	l35.779,46.635c1.621,2.113,4.251,3.239,6.759,1.772c2.08-1.217,3.406-4.629,1.772-6.759l-31.961-41.669h16.171l20.691,27.718
	c1.593,2.135,4.273,3.226,6.759,1.772c2.104-1.231,3.377-4.608,1.772-6.759l-16.977-22.748
	C246.695,149.425,250.946,149.576,255.644,149.418z M136.714,179.243l-7.352-12.734c7.865-13.649,3.218-5.491,7.389-12.694
	l7.315,12.694L136.714,179.243z M112.217,176.471H81.054l15.582-26.987h5.72L93.93,164.08c-1.871,3.241,0.506,7.433,4.266,7.433
	h16.878L112.217,176.471z M136.714,109.74l7.007,12.136c-6.396,11.057-3.845,6.588-7.042,12.052l-6.972-12.052L136.714,109.74z
	 M160.829,112.035l28.834,1.731l-12.918,25.839h-5.737l8.632-14.948c1.885-3.265-0.598-7.656-4.394-7.656h-17.289L160.829,112.035z
	 M145.749,149.502h13.918l7.008,12.132h-14.014C145.794,149.718,149.511,156.116,145.749,149.502z M128.479,139.622h-14.644
	l-7.353-12.741h14.704C127.908,138.502,125.654,134.709,128.479,139.622z M152.242,126.881h14.704l-7.353,12.735
	c-13.693,0.011-8.813-0.047-14.685-0.056L152.242,126.881z M127.718,149.572l-6.951,12.062h-14.014l7.008-12.138
	C127.556,149.507,120.206,149.525,127.718,149.572z M112.599,112.035l2.872,4.966H98.182c-2.146,0-4.117,1.566-4.756,3.518
	c-0.439,1.34-0.38,2.852,0.362,4.138l8.632,14.948h-5.737l-12.918-25.839L112.599,112.035z M161.211,176.471l-2.857-4.957h16.878
	c3.76,0,6.137-4.192,4.266-7.433l-8.426-14.596h5.72l15.582,26.987H161.211z M152.295,107.053l-2.864,4.951l-8.452-14.639
	c-1.85-3.205-6.681-3.205-8.531,0l-8.452,14.639l-2.864-4.951l15.581-26.988L152.295,107.053z M120.8,181.367l2.862-4.967
	l8.658,14.996c1.849,3.203,6.904,3.263,8.788,0l8.658-14.996l2.863,4.967l-15.914,24.103L120.8,181.367z"/>
</svg>
