<?xml version="1.0" encoding="utf-8"?>
<!-- Generator: Adobe Illustrator 25.3.1, SVG Export Plug-In . SVG Version: 6.00 Build 0)  -->
<svg version="1.1" id="Layer_1" xmlns="http://www.w3.org/2000/svg" xmlns:xlink="http://www.w3.org/1999/xlink" x="0px" y="0px"
	 viewBox="0 0 288 288" style="enable-background:new 0 0 288 288;" xml:space="preserve">
<style type="text/css">
	.st0{fill:#202D5E;stroke:#000001;stroke-width:0.0636;stroke-miterlimit:10;}
	.st1{fill:#536DA0;stroke:#000001;stroke-width:0.0636;stroke-miterlimit:10;}
	.st2{fill:#536DA0;stroke:#000001;stroke-width:0.069;stroke-miterlimit:10;}
	.st3{fill-rule:evenodd;clip-rule:evenodd;fill:#536DA0;stroke:#000001;stroke-width:0.0636;stroke-miterlimit:10;}
	.st4{fill:#202D5E;stroke:#000001;stroke-width:0.0474;stroke-miterlimit:10;}
	.st5{fill:#536DA0;stroke:#000001;stroke-width:0.0474;stroke-miterlimit:10;}
	.st6{fill:#536DA0;stroke:#000001;stroke-width:0.0514;stroke-miterlimit:10;}
	.st7{fill:#202D5E;stroke:#000001;stroke-width:0.073;stroke-miterlimit:10;}
	.st8{fill-rule:evenodd;clip-rule:evenodd;fill:#536DA0;stroke:#000001;stroke-width:0.0474;stroke-miterlimit:10;}
</style>
<path class="st3" d="M256.855,200.079c-2.188-1.122-4.532-1.179-6.097-0.338c0.303-1.647-0.107-3.113-1.14-4.355
	c-1.059-1.273-2.435-1.821-4.064-1.993c-0.141-3.685-1.656-6.571-4.92-8.299c-3.264-1.728-6.507-1.35-9.57,0.583
	c-3.868-2.28-7.671-4.482-11.593-6.809c1.37-0.382,6.365-1.466,11.409-2.715c0.692-0.171,1.274-0.098,1.939,0.254
	c1.974,1.044,3.952,0.874,5.7-0.472c1.765-1.359,2.45-3.176,1.981-5.376c-0.456-2.138-1.824-3.55-3.93-4.057
	c-2.08-0.501-3.888,0.077-5.336,1.711c-0.334,0.376-0.643,0.634-1.154,0.744c-6.419,1.392-12.776,2.92-19.155,4.465
	c-0.441,0.107-0.785,0.046-1.182-0.18c-9.938-5.654-7.689-4.44-8.736-5.229c0.739-0.23,0.385,0.359,26.579-6.155
	c0.503-0.125,0.9-0.087,1.325,0.191c3.402,1.983,7.811-0.391,7.979-4.513c0.092-2.255-1.317-4.343-3.439-5.156
	c-2.143-0.821-4.584-0.211-6.076,1.594c-0.348,0.421-0.702,0.661-1.243,0.781c-11.214,2.477-22.421,5.127-33.634,7.73
	c-0.602,0.14-1.059,0.052-1.593-0.256c-7.467-4.296-22.786-13.399-23.103-13.583c0.142-0.335,0.254-0.657,0.431-1.075
	c1.497,0.017,19.585-0.083,27.136-0.074c0.763,0.001,1.372-0.207,1.953-0.652c2.382-1.824,4.75-3.573,7.164-5.327
	c0.775-0.563,0.511-0.449,3.231-0.407c1.415,3.065,3.591,4.331,6.362,3.73c2.389-0.518,4.137-2.684,4.141-5.176
	c0.006-3.889-4.079-6.565-7.69-4.786c-1.56,0.768-2.472,2.11-2.924,3.818c-0.59-0.003-1.121-0.021-1.658,0.013
	c-0.578,0.037-1.025-0.141-1.475-0.477c-2.359-1.757-4.805-3.452-7.137-5.218c-0.654-0.495-1.315-0.688-2.15-0.689
	c-8.564-0.007-26.294,0.184-26.64,0.185c-0.175-0.518-0.302-0.917-0.441-1.346c0.928-0.618,7.501-4.379,23.417-13.364
	c0.451-0.255,0.871-0.253,1.365-0.137c11.064,2.596,22.111,5.38,33.176,8.083c0.693,0.169,1.146,0.437,1.579,0.989
	c1.36,1.737,3.706,2.393,5.816,1.699c2.965-0.975,4.467-4.2,3.298-7.087c-1.169-2.888-4.535-4.185-7.372-2.801
	c-0.434,0.212-0.821,0.367-1.347,0.268c-29.296-7.229-25.122-6.078-26.568-6.566c0.6-0.486-0.843,0.475,8.531-4.945
	c0.754-0.436,0.253-0.203,20.447,4.714c0.537,0.131,0.953,0.374,1.321,0.782c1.416,1.568,3.199,2.166,5.255,1.683
	c2.216-0.52,3.591-1.979,4.02-4.192c0.423-2.186-0.312-4.035-2.098-5.353c-1.822-1.344-3.822-1.404-5.81-0.315
	c-0.538,0.295-0.978,0.33-1.514,0.197c-2.943-0.729-10.836-2.715-11.827-2.938c-0.024-0.06-0.018-0.131-0.031-0.161
	c3.921-2.211,7.859-4.465,11.751-6.664c6.066,4.37,14.251,0.709,14.869-6.922c3.519-0.039,5.684-2.648,5.624-5.535
	c1.571,0.542,3.651,0.289,5.597-0.811c3.017-1.706,4.457-4.819,3.257-6.932c-1.216-2.141-4.636-2.462-7.619-0.761
	c-1.858,1.06-3.15,2.661-3.548,4.244c-1.16-0.812-2.534-1.127-3.964-0.89c-1.622,0.27-2.816,1.175-3.746,2.557
	c-3.276-1.757-6.538-1.857-9.661,0.101c-3.123,1.958-4.398,4.969-4.281,8.594c-3.891,2.199-7.723,4.375-11.661,6.628
	c0.446-1.809,1.278-4.293,3.41-11.43c0.177-0.591,0.441-0.967,0.979-1.263c2.157-1.186,3.117-3.758,2.425-6.076
	c-0.858-2.876-3.841-4.527-6.713-3.657c-2.9,0.878-4.494,3.968-3.537,6.838c0.163,0.488,0.267,0.927,0.102,1.449
	c-1.972,6.226-3.916,12.462-5.687,18.727c-0.131,0.464-0.378,0.777-0.813,0.988c-4.825,2.716-7.711,4.404-8.865,4.976
	c0.399-1.582,2.576-8.213,7.911-25.9c0.178-0.591,0.457-1.013,1.014-1.346c2.429-1.453,3.213-4.558,1.896-7.04
	c-1.317-2.481-4.368-3.515-6.916-2.362c-2.577,1.165-3.853,4.089-2.822,6.722c0.223,0.568,0.213,1.053,0.031,1.616
	c-3.507,10.859-6.721,21.816-10.065,32.732c-0.194,0.633-0.508,1.06-1.103,1.382c-7.518,4.071-22.835,12.92-23.138,13.112
	c-0.264-0.309-0.498-0.63-0.749-0.909c0.184-0.317,8.48-15.073,12.46-22.197c0.323-0.578,0.431-1.106,0.356-1.773
	c-0.34-3.035-0.726-6.041-1.1-9.049c-0.111-0.889,0.038-0.847,1.21-2.916c3.603,0.17,5.725-1.103,6.484-3.839
	c0.65-2.34-0.409-4.857-2.548-6.037c-3.439-1.897-7.614,0.421-7.878,4.334c-0.118,1.748,0.598,3.188,1.814,4.394
	c-0.32,0.58-0.63,1.09-0.876,1.602c-0.187,0.39-0.501,0.646-0.885,0.809c-2.751,1.166-5.418,2.451-8.155,3.649
	c-0.854,0.374-1.406,0.908-1.848,1.684c-3.921,6.887-12.004,21.355-12.188,21.671c-0.412-0.076-0.794-0.164-1.176-0.251
	c0.004-0.417,0.247-18.417,0.183-27.101c-0.005-0.722,0.239-1.206,0.726-1.715c7.937-8.283,15.8-16.657,23.81-24.888
	c0.341-0.351,0.67-0.489,1.155-0.571c3.126-0.532,5.198-3.422,4.529-6.443c-0.584-2.639-2.965-4.413-5.66-4.222
	c-2.695,0.19-4.832,2.37-4.928,5.114c-0.022,0.632-0.229,1.061-0.65,1.476c-1.537,1.516-17.569,18.48-18.805,19.535
	c-0.123-0.817-0.064,0.978,0.004-10.258c0.003-0.418,0.161-0.719,0.455-1.016c14.258-14.42,13.418-14.56,14.799-14.794
	c3.387-0.575,5.425-4.102,4.108-7.311c-0.975-2.377-3.482-3.722-6.055-3.231c-2.444,0.467-4.187,2.619-4.254,5.153
	c-0.012,0.46-0.044,0.841-0.412,1.206c-9.658,9.583-7.529,7.934-8.539,8.69c0.048-4.247,0.072-8.38,0.084-12.543
	c3.261-1.702,5.2-4.257,5.357-7.991c0.157-3.705-1.536-6.446-4.58-8.402c1.49-3.819,0.109-6.514-2.663-7.688
	c1.379-1.044,2.346-3.099,2.362-5.461c0.024-3.441-1.953-6.278-4.387-6.297s-4.446,2.774-4.482,6.216
	c-0.025,2.404,0.956,4.499,2.344,5.531c-2.744,1.181-4.257,4.461-2.448,7.817c-3.033,2.094-4.611,4.911-4.323,8.577
	c0.287,3.656,2.322,6.163,5.472,7.694c-0.023,4.306-0.053,8.511-0.094,12.859c-1.036-0.932,0.854,1.218-8.549-9.047
	c-0.323-0.352-0.457-0.684-0.452-1.203c0.028-3.251-2.475-5.679-5.671-5.534c-2.588,0.117-4.768,2.217-5.001,4.763
	c-0.271,2.961,1.699,5.307,4.194,5.821c0.567,0.117,0.966,0.337,1.339,0.74c4.512,4.87,9.061,9.721,13.66,14.566
	c0.357,0.376,0.515,0.761,0.506,1.25c-0.078,4.634-0.036,8.296-0.114,9.644c-1.234-1.164,1.765,1.911-18.705-20.007
	c-0.305-0.327-0.438-0.654-0.446-1.101c-0.063-3.334-2.993-5.674-6.01-5.258c-2.693,0.371-4.662,2.572-4.695,5.262
	c-0.033,2.708,1.866,4.987,4.561,5.36c0.584,0.081,0.984,0.295,1.357,0.698c7.771,8.404,15.48,16.867,23.385,25.146
	c0.408,0.427,0.553,0.851,0.549,1.441c-0.064,8.797-0.201,26.97-0.188,27.346c-0.614,0.11-1.186,0.238-1.8,0.348
	c-1.123-1.832-12.325-20.754-13.438-22.66c-0.344-0.588-0.785-1.001-1.413-1.264c-2.744-1.15-5.504-2.319-8.239-3.49
	c-0.96-0.411-0.867-0.515-2.086-2.585c1.92-2.787,1.933-5.281,0.076-7.342c-1.666-1.849-4.363-2.299-6.541-1.093
	c-3.37,1.866-3.708,6.662-0.481,8.996c1.473,1.065,3.136,1.156,4.87,0.731c0.943,1.559,1.265,1.915,1.21,2.559
	c-0.831,9.692-1.318,9.945-0.663,10.941c0.24,0.422,13.137,22.088,13.547,22.928c-0.166,0.275-0.296,0.466-0.444,0.7
	c-0.407-0.32-23.46-13.787-23.695-13.932c-0.41-0.254-0.653-0.568-0.786-0.999c-1.003-3.272-7.538-25.442-9.732-33.273
	c-0.14-0.499-0.122-0.89,0.078-1.348c1.316-3.019-0.717-6.973-4.391-7.335c-2.459-0.242-4.766,1.212-5.597,3.549
	c-0.854,2.4,0.041,5.02,2.276,6.39c0.411,0.252,0.643,0.537,0.786,0.999c8.889,28.678,7.407,25.137,7.579,26.245
	c-0.508-0.141,0.838,0.436-8.902-5.127c-0.357-0.204-0.501-0.456-0.612-0.826c-1.881-6.316-3.54-12.693-5.472-18.99
	c-0.283-0.923,0.316-1.362,0.441-2.847c0.217-2.591-1.637-4.985-4.145-5.529c-2.62-0.568-5.202,0.781-6.177,3.229
	c-0.967,2.427-0.092,5.217,2.193,6.527c0.535,0.307,0.807,0.713,0.966,1.272c0.996,3.511,3.148,11.026,3.24,11.509l-10.918-6.424
	c0.193-3.716-1.114-6.687-4.23-8.648c-3.116-1.961-6.366-1.858-9.567-0.18c-1.979-2.49-4.338-3.268-6.779-2.279
	c-0.685,0.277-1.279,0.691-1.766,1.2c0.051-1.927-1.418-4.105-3.87-5.363c-3.059-1.57-6.47-1.088-7.593,1.1
	c-1.124,2.188,0.48,5.214,3.554,6.808c2.366,1.227,4.919,1.196,6.489,0.11c-0.135,0.609-0.163,1.211-0.076,1.867
	c0.347,2.602,2.219,4.195,5.549,4.718c0.308,3.583,1.908,6.382,5.205,7.976c3.295,1.593,6.482,1.117,9.509-0.905
	c3.677,2.149,7.324,4.311,11.139,6.543c-1.519,0.472-6.796,1.531-12.232,2.909c-0.533,0.135-0.9-0.025-1.331-0.293
	c-1.926-1.197-4.369-0.957-6.117,0.467c-1.717,1.399-2.419,3.786-1.692,5.918c1.319,3.866,6.359,4.896,9.091,1.828
	c0.334-0.375,0.682-0.629,1.154-0.744c6.51-1.587,13.057-2.994,19.596-4.574c0.441-0.107,0.786-0.109,1.199,0.138
	c9.381,5.614,7.414,4.274,8.347,5.04c-0.619,0.182-8.651,1.849-26.651,6.149c-0.442,0.106-0.782,0.041-1.182-0.18
	c-3.54-1.952-7.848,0.546-7.925,4.56c-0.098,5.136,6.356,7.457,9.492,3.502c0.322-0.406,0.648-0.709,1.189-0.828
	c11.214-2.477,22.362-5.101,33.545-7.693c0.602-0.14,1.082-0.053,1.593,0.256c7.552,4.556,23.282,13.684,23.527,13.861
	c-0.142,0.335-0.254,0.657-0.383,1.021c-0.489-0.01-18.173-0.122-26.624-0.203c-0.835-0.008-1.539,0.215-2.204,0.719
	c-2.327,1.766-4.698,3.447-7.093,5.159c-0.805,0.575-0.756,0.445-3.219,0.437c-1.63-3.255-3.75-4.464-6.499-3.813
	c-2.405,0.569-4.096,2.731-4.087,5.224c0.015,3.906,4.203,6.443,7.696,4.715c1.53-0.757,2.425-2.056,2.901-3.704
	c1.972,0.066,2.277-0.148,3.008,0.411c2.288,1.75,4.654,3.453,6.923,5.201c0.855,0.659,1.698,0.947,2.777,0.954
	c8.355,0.057,25.95,0.164,26.397,0.156c0.169,0.417,0.272,0.756,0.416,1.113c-0.928,0.618-7.943,4.722-23.81,13.592
	c-0.48,0.268-0.93,0.277-1.425,0.161c-11.178-2.62-22.343-5.484-33.529-8.183c-0.537-0.13-0.878-0.372-1.22-0.788
	c-1.432-1.742-3.284-2.378-5.429-1.856c-2.145,0.522-3.532,1.955-3.972,4.138c-0.435,2.157,0.263,3.981,1.973,5.3
	c1.767,1.362,3.737,1.523,5.71,0.495c0.544-0.284,1.018-0.306,1.598-0.162c28.637,7.139,25.379,6.112,26.299,6.502
	c-0.155,0.132-0.232,0.198-0.351,0.246c-2.85,1.605-5.689,3.228-8.555,4.885c-0.421,0.243-0.79,0.173-1.187,0.065
	c-6.278-1.714-12.59-3.2-18.908-4.679c-0.494-0.116-0.837-0.354-1.166-0.741c-1.466-1.726-3.347-2.365-5.536-1.778
	c-2.124,0.57-3.445,2.019-3.859,4.161c-0.414,2.143,0.291,3.971,2.074,5.293c1.783,1.322,3.774,1.448,5.715,0.423
	c0.571-0.301,1.065-0.359,1.687-0.198c3.315,0.857,10.878,2.733,11.529,2.885l-11.013,6.261c-3.098-2.003-6.338-2.388-9.599-0.687
	c-3.261,1.702-4.799,4.577-4.969,8.18c-3.367,0.67-4.949,2.117-5.347,4.764c-0.112,0.741-0.03,1.467,0.146,2.158
	c-1.591-1.019-4.16-0.947-6.499,0.38c-3.015,1.709-4.457,4.819-3.257,6.932c1.216,2.141,4.629,2.449,7.619,0.761
	c2.425-1.369,3.819-3.66,3.614-5.622c0.335,0.315,0.734,0.596,1.19,0.8c3.07,1.374,5.471,0.418,7.32-2.202
	c3.293,1.543,6.502,1.503,9.492-0.518c3.022-2.042,4.231-5.04,3.971-8.677c3.725-2.097,7.377-4.2,11.239-6.388
	c-0.423,1.523-1.875,6.497-3.581,11.949c-0.163,0.522-0.415,0.859-0.896,1.125c-2.492,1.379-3.458,4.38-2.249,6.94
	c1.223,2.589,4.227,3.763,6.876,2.69c2.62-1.061,3.987-3.936,3.073-6.615c-0.496-1.454-0.201-0.136,5.751-20.624
	c0.147-0.506,0.397-0.818,0.848-1.071c4.604-2.581,7.139-4.104,8.413-4.724c-0.47,1.749-2.868,10.013-7.97,26.097
	c-0.165,0.521-0.427,0.828-0.896,1.125c-1.767,1.119-2.612,2.79-2.472,4.847c0.153,2.26,1.335,3.895,3.461,4.697
	c2.127,0.802,4.088,0.348,5.69-1.265c1.623-1.634,1.989-3.646,1.162-5.772c-0.55-1.416-0.262,0.364,10.041-34.246
	c0.163-0.548,0.464-0.909,0.973-1.191c7.737-4.284,23.608-13.406,23.923-13.569c0.222,0.291,0.42,0.523,0.63,0.785
	c-0.302,0.538-9.423,16.19-13.772,23.491c-0.329,0.552-0.464,1.088-0.386,1.785c0.337,3.012,0.645,6.045,0.939,9.079
	c0.087,0.9-0.038,0.847-1.252,2.898c-3.597-0.241-5.725,1.003-6.533,3.72c-0.704,2.365,0.36,4.914,2.513,6.12
	c3.448,1.932,7.711-0.457,7.884-4.405c0.074-1.694-0.58-3.057-1.754-4.245c0.302-0.538,0.596-1.005,0.852-1.489
	c0.235-0.443,0.575-0.718,1.01-0.929c2.786-1.163,5.506-2.403,8.305-3.536c0.774-0.313,1.257-0.825,1.646-1.498
	c4.257-7.378,13.441-22.941,13.737-23.408c0.412,0.076,0.782,0.134,1.236,0.227c0.007,0.274-0.181,18.459-0.176,27.376
	c0,0.519-0.191,0.884-0.531,1.255c-7.789,8.48-15.951,16.611-23.845,24.971c-0.316,0.334-0.659,0.513-1.155,0.572
	c-3.413,0.402-5.586,3.821-4.449,7.068c0.861,2.458,3.278,3.896,5.931,3.523c2.461-0.346,4.35-2.48,4.493-5.077
	c0.025-0.459,0.144-0.831,0.484-1.201c20.367-22.166,17.676-18.558,19.012-19.792c-0.01,0.489-0.072,6.71-0.049,9.549
	c0.005,0.62-0.193,1.056-0.608,1.494c-4.491,4.739-9.123,9.36-13.579,14.127c-0.461,0.493-0.969,0.771-1.672,0.92
	c-2.904,0.612-4.706,3.534-4.034,6.381c0.634,2.688,3.132,4.479,5.851,4.18c2.688-0.296,4.761-2.579,4.743-5.316
	c-0.004-0.62,0.203-1.046,0.62-1.464c4.755-4.764,7.475-7.809,8.533-8.792c-0.022,4.652-0.062,9.173-0.103,13.694
	c-3.321,1.553-5.308,4.09-5.609,7.712c-0.301,3.621,1.292,6.442,4.181,8.529c-1.515,3.377-0.775,6.347,2.389,7.868
	c-1.379,1.044-2.323,3.087-2.345,5.419c-0.033,3.441,1.953,6.278,4.387,6.297c2.433,0.019,4.459-2.774,4.482-6.216
	c0.016-2.362-0.907-4.38-2.248-5.465c2.596-1.12,4.022-3.673,2.658-7.556c6.586-3.845,6.141-13.159-0.559-16.44
	c0.047-4.42,0.064-8.827,0.092-13.378c0.976,0.956,4.41,4.703,8.07,8.548c0.477,0.501,0.703,0.993,0.699,1.727
	c-0.017,3.244,3.139,5.704,6.284,5.078c2.564-0.51,4.39-2.679,4.391-5.243c0.001-2.565-1.744-4.734-4.352-5.272
	c-0.567-0.117-0.966-0.337-1.339-0.74c-4.393-4.744-8.814-9.478-13.259-14.174c-0.357-0.377-0.508-0.731-0.506-1.25
	c0.008-3.096,0.108-9.746,0.112-10.163c1.443,1.425-2.084-1.946,18.651,19.96c0.357,0.377,0.5,0.731,0.506,1.25
	c0.036,2.887,2.175,5.107,5.026,5.31c2.751,0.196,5.289-1.858,5.646-4.539c0.389-2.922-1.514-5.628-4.32-6.047
	c-0.626-0.094-1.083-0.358-1.506-0.811c-7.822-8.356-15.562-16.79-23.385-25.146c-0.424-0.453-0.593-0.897-0.573-1.5
	c0.285-8.763,0.196-26.898,0.194-27.244c0.393-0.055,0.685-0.104,1.049-0.148c0.228,0.393,9.109,15.62,13.409,22.845
	c0.416,0.699,0.901,1.19,1.682,1.502c2.743,1.094,5.428,2.324,8.138,3.496c0.875,0.379,0.771,0.45,2.003,2.55
	c-1.95,2.799-1.976,5.346-0.082,7.414c1.648,1.799,4.331,2.226,6.458,1.058c3.4-1.869,3.751-6.709,0.468-9.026
	c-1.463-1.033-3.082-1.108-4.786-0.695c-0.306-0.5-0.541-0.994-0.853-1.422s-0.395-0.881-0.334-1.424
	c0.333-2.986,0.617-6.003,0.97-8.986c0.086-0.728-0.031-1.375-0.444-2.038c-0.19-0.305-12.856-21.821-13.223-22.643
	c0.166-0.275,0.326-0.479,0.427-0.658c0.777,0.378,8.777,4.996,23.605,13.796c0.414,0.246,0.64,0.572,0.768,1.04
	c0.484,1.776,7.073,23.83,9.672,33.125c0.139,0.499,0.125,0.891-0.036,1.366c-0.248,0.733-0.46,1.505-0.438,2.256
	c0.08,2.641,1.947,4.718,4.578,5.145c2.376,0.386,4.809-1.021,5.723-3.322c0.956-2.406,0.076-5.079-2.109-6.492
	c-0.426-0.276-0.668-0.596-0.822-1.088c-9.004-28.81-7.238-24.547-7.621-26.263c0.359,0.201,5.757,3.403,8.209,4.784
	c0.577,0.325,0.853,0.729,1.032,1.349c1.797,6.24,3.54,12.493,5.394,18.71c0.203,0.68,0.18,1.284-0.027,1.986
	c-1.082,3.655,1.755,7.161,5.492,6.889c5.349-0.39,6.912-7.451,2.206-10.041c-0.439-0.242-0.644-0.537-0.786-0.999
	c-4.069-13.246-3.189-10.871-3.349-11.95c0.394,0.118-0.797-0.646,11.354,6.56c0.276,0.164,0.461,0.368,0.391,0.708
	c-0.545,6.898,6.257,11.848,12.611,9.238c0.238-0.098,0.476-0.193,0.714-0.289c2.164,2.692,4.332,3.512,6.816,2.541
	c0.568-0.222,1.077-0.506,1.511-0.889c0.127,1.854,1.586,3.825,3.898,5.005c3.062,1.563,6.503,1.105,7.593-1.1
	C261.539,204.729,259.914,201.648,256.855,200.079z M234.676,84.216c1.958-1.93,5.001-2.025,6.816-0.196
	c1.815,1.829,1.673,4.901-0.281,6.836c-1.954,1.935-5.005,2.03-6.816,0.196C232.564,89.197,232.697,86.167,234.676,84.216z
	 M54.793,92.055c-2.577-0.01-4.662-2.27-4.632-5.02c0.03-2.75,2.108-4.977,4.685-4.946c2.577,0.031,4.647,2.27,4.632,5.02
	C59.463,89.847,57.388,92.065,54.793,92.055z M53.93,197.395c-2.577-0.031-4.662-2.27-4.632-5.02c0.03-2.75,2.108-4.977,4.685-4.946
	c2.577,0.031,4.662,2.27,4.632,5.02C58.585,195.199,56.507,197.426,53.93,197.395z M141.658,34.461
	c0.03-2.75,2.108-4.977,4.685-4.946c2.577,0.031,4.662,2.27,4.632,5.02s-2.108,4.977-4.685,4.946
	C143.713,39.45,141.628,37.21,141.658,34.461z M149.512,245.523c-0.015,2.75-2.108,4.977-4.685,4.946
	c-2.577-0.031-4.662-2.27-4.632-5.02c0.03-2.75,2.108-4.962,4.685-4.946C147.445,240.519,149.527,242.786,149.512,245.523z
	 M146.324,156.619c-9.101-0.057-16.409-7.492-16.352-16.594c0.057-9.101,7.492-16.409,16.594-16.352
	c9.101,0.057,16.424,7.493,16.352,16.594C162.846,149.38,155.425,156.676,146.324,156.619z M236.251,197.716
	c-2.577-0.016-4.662-2.27-4.632-5.02s2.108-4.977,4.685-4.946c2.577,0.031,4.647,2.27,4.632,5.02
	C240.921,195.507,238.816,197.732,236.251,197.716z"/>
</svg>
