<?xml version="1.0" encoding="utf-8"?>
<!-- Generator: Adobe Illustrator 25.3.1, SVG Export Plug-In . SVG Version: 6.00 Build 0)  -->
<svg version="1.1" id="Layer_1" xmlns="http://www.w3.org/2000/svg" xmlns:xlink="http://www.w3.org/1999/xlink" x="0px" y="0px"
	 viewBox="0 0 288 288" style="enable-background:new 0 0 288 288;" xml:space="preserve">
<style type="text/css">
	.st0{fill:#202D5E;stroke:#000001;stroke-width:0.0636;stroke-miterlimit:10;}
	.st1{fill:#536DA0;stroke:#000001;stroke-width:0.0636;stroke-miterlimit:10;}
	.st2{fill:#536DA0;stroke:#000001;stroke-width:0.069;stroke-miterlimit:10;}
	.st3{fill-rule:evenodd;clip-rule:evenodd;fill:#536DA0;stroke:#000001;stroke-width:0.0636;stroke-miterlimit:10;}
	.st4{fill:#202D5E;stroke:#000001;stroke-width:0.0474;stroke-miterlimit:10;}
	.st5{fill:#536DA0;stroke:#000001;stroke-width:0.0474;stroke-miterlimit:10;}
	.st6{fill:#536DA0;stroke:#000001;stroke-width:0.0514;stroke-miterlimit:10;}
	.st7{fill:#202D5E;stroke:#000001;stroke-width:0.073;stroke-miterlimit:10;}
	.st8{fill-rule:evenodd;clip-rule:evenodd;fill:#536DA0;stroke:#000001;stroke-width:0.0474;stroke-miterlimit:10;}
</style>
<path class="st0" d="M149.87,38.645c-0.001,0.037-0.056,0.291-0.063,0.326C149.782,39.041,149.779,38.995,149.87,38.645z
	 M228.185,203.173c0.003,0.084,0.003,0.249,0.005,0.266C228.196,203.271,228.191,203.19,228.185,203.173z M237.995,99.046
	c0.096-0.047,0.148-0.079,0.182-0.098C238.281,98.89,238.272,98.879,237.995,99.046z M226.325,102.329l-7.759,4.352l22.048,11.646
	c2.053,1.084,2.462,3.779,1.446,5.678c-1.093,2.043-3.765,2.457-5.678,1.446l-26.41-13.95l-10.186,5.713l36.877,19.445
	c2.053,1.083,2.462,3.78,1.446,5.678c-1.094,2.044-3.764,2.455-5.678,1.446l-41.243-21.747l-10.39,5.828l21.63,14.671
	c2.686,1.822,2.612,5.44-0.108,7.188l-21.97,14.117l10.241,6.084l41.793-20.725c2.01-0.997,4.505-0.42,5.633,1.617
	c1.048,1.894,0.388,4.639-1.617,5.633l-37.33,18.511l10.037,5.962l26.77-13.299c2.01-0.998,4.506-0.419,5.633,1.617
	c1.049,1.895,0.387,4.637-1.617,5.633l-22.311,11.084l7.591,4.509c2.543-2.606,5.81-4.375,9.32-4.905
	c0.324-0.049,0.706-0.091,1.037-0.072c6.373,0.006,10.963,5.421,14.125,10.368c3.19,4.989,5.842,10.441,7.329,16.185
	c0.529,2.045-0.794,4.646-2.993,5.038c-4.869,0.867-9.674,0.853-14.567,0.239c-8.352-1.048-19.456-4.083-19.549-14.428
	c-0.016-1.812,0.311-3.636,0.919-5.387l-6.55-3.891l2.488,23.591c0.236,2.238-2.129,4.129-4.173,4.115
	c-2.416-0.016-3.88-1.951-4.115-4.173l-3.036-28.781l-11.667-6.931l5.192,43.673c0.266,2.236-2.152,4.128-4.173,4.115
	c-2.437-0.017-3.851-1.955-4.115-4.173l-5.815-48.907l-8.377-4.977l-0.354,28.477c-0.039,3.139-3.549,5.143-6.26,3.533
	l-24.504-14.557l-0.121,9.748l38.682,30.446c1.833,1.442,2.621,3.483,1.446,5.678c-0.961,1.796-3.968,2.792-5.678,1.446
	l-34.578-27.216l-0.169,13.578l22.957,17.581c1.85,1.417,2.609,3.505,1.446,5.678c-0.971,1.814-3.951,2.769-5.678,1.446
	l-18.852-14.438l-0.096,7.684c7.7,1.599,12.091,7.341,10.407,16.842c-0.643,3.629-2.147,7.093-3.71,10.407
	c-1.936,4.107-4.306,7.838-7.322,11.245c-1.491,1.685-4.397,1.397-5.86-0.115c-4.234-4.377-7.611-9.676-10.213-15.174
	c-2.439-5.154-4.469-11.699-1.237-16.958c0.124-0.232,0.415-0.644,0.686-0.939c2.296-2.805,5.485-4.514,8.96-5.264l0.11-8.869
	l-21.129,13.283c-1.902,1.195-4.594,0.26-5.633-1.617c-1.125-2.033-0.276-4.442,1.617-5.633l25.267-15.885l0.145-11.679
	l-35.298,22.226c-1.901,1.197-4.595,0.259-5.633-1.617c-1.126-2.034-0.275-4.441,1.617-5.633l39.436-24.832l0.148-11.911
	l-23.539,11.406c-2.875,1.393-6-0.463-6.152-3.655l-1.242-26.127l-10.389,5.827l-2.946,46.51c-0.142,2.241-1.829,4.131-4.173,4.115
	c-2.148-0.015-4.256-1.941-4.115-4.173l2.636-41.629l-10.187,5.713L75.08,215.9c-0.14,2.241-1.831,4.131-4.173,4.115
	c-2.149-0.015-4.254-1.941-4.115-4.173l1.559-24.908l-7.708,4.323c0.98,3.507,0.86,7.217-0.413,10.518
	c-0.123,0.318-0.277,0.676-0.466,0.966c-3.081,5.329-9.786,6.671-15.467,6.994c-6.072,0.345-12.342-0.086-18.21-1.711
	c-2.021-0.559-3.668-2.981-2.904-5.091c1.678-4.634,4.076-8.779,7.036-12.701c4.45-5.895,11.451-13.561,19.756-10.893
	c2.637,0.847,4.935,2.495,6.763,4.606l6.654-3.732l-21.696-9.65c-2.121-0.943-2.403-3.889-1.446-5.678
	c1.142-2.135,3.705-2.324,5.678-1.446l26.42,11.751l11.843-6.643l-40.44-17.349c-2.134-0.915-2.392-3.911-1.446-5.678
	c1.152-2.153,3.694-2.297,5.678-1.446l45.239,19.408l8.503-4.769l-24.504-14.557c-2.711-1.611-2.629-5.652,0.108-7.187
	l24.839-13.932l-8.377-4.977l-45.731,18.286c-2.085,0.834-4.435,0.547-5.633-1.617c-0.988-1.785-0.462-4.802,1.617-5.633
	l40.837-16.329l-11.667-6.931l-26.727,11.1c-2.073,0.861-4.447,0.526-5.633-1.617c-0.998-1.803-0.451-4.774,1.617-5.633
	l21.908-9.098l-6.603-3.923c-1.664,1.833-3.706,3.309-6.028,4.184c-4.152,1.565-8.716,0.26-12.155-2.324
	c-3.57-2.682-6.292-6.118-8.819-9.767c-2.561-3.698-4.586-7.578-6.014-11.853c-0.709-2.123,0.938-4.523,2.993-5.038
	c5.756-1.441,11.813-1.72,17.72-1.305c5.856,0.411,12.808,1.853,15.862,7.447c0.183,0.295,0.332,0.665,0.448,0.99
	c1.246,3.476,1.172,7.028,0.071,10.447l7.653,4.546l-0.937-24.894c-0.085-2.246,2.009-4.129,4.173-4.115
	c2.308,0.016,4.031,1.939,4.115,4.173l1.125,29.871l10.037,5.962L86.42,67.352c-0.086-2.246,2.01-4.129,4.173-4.115
	c2.31,0.016,4.029,1.94,4.115,4.173l1.789,46.615l10.241,6.084l1.889-26.046c0.234-3.225,3.376-5.02,6.26-3.533l23.229,11.978
	l0.148-11.912L99.44,64.778c-1.936-1.288-2.551-3.614-1.446-5.678c1.019-1.905,3.871-2.648,5.678-1.446l34.715,23.085l0.145-11.677
	L113.65,52.541c-1.937-1.286-2.55-3.615-1.446-5.678c1.02-1.906,3.87-2.647,5.678-1.446l20.773,13.792l0.11-8.833
	c-3.539-0.922-6.715-2.889-8.919-5.642c-0.2-0.25-0.439-0.573-0.585-0.86c-3.089-5.316-0.88-11.812,1.668-16.88
	c2.744-5.458,6.275-10.685,10.636-14.973c1.515-1.49,4.429-1.585,5.86,0.115c3.194,3.794,5.589,7.995,7.507,12.552
	c3.23,7.674,6.032,18.326-2.364,23.817c-1.656,1.083-3.541,1.798-5.519,2.177l-0.095,7.595l19.224-13.978
	c1.82-1.323,4.653-0.153,5.633,1.617c1.176,2.125,0.191,4.318-1.617,5.633L146.828,68.54l-0.169,13.575l34.399-25.715
	c1.865-1.394,4.064-1.592,5.86,0.115c1.484,1.41,1.626,4.558-0.115,5.86c-42.219,31.561-39.733,29.736-40.272,30.046l-0.122,9.802
	l24.877-13.953c2.707-1.518,6.19,0.551,6.152,3.655l-0.355,28.521l8.553-4.797c0.01-0.621-0.467,2.882,7.121-49.736
	c0.321-2.229,3.139-3.44,5.091-2.904c2.349,0.645,3.223,2.878,2.904,5.091l-6.13,42.509l11.84-6.641l3.744-28.648
	c0.291-2.228,1.711-4.131,4.173-4.115c2.042,0.014,4.405,1.954,4.115,4.173l-3.081,23.568l6.7-3.758
	c-0.813-2.523-1.057-5.221-0.524-7.822c0.888-4.331,4.507-7.429,8.432-9.033c3.939-1.61,8.103-2.222,12.323-2.573
	c4.507-0.375,8.923-0.202,13.364,0.703c2.183,0.445,3.489,3.042,2.904,5.091c-1.68,5.88-4.581,11.482-8.062,16.502
	c-3.233,4.663-7.88,9.71-14.028,9.539c-0.338,0.01-0.753-0.051-1.085-0.111C231.801,106.82,228.739,104.994,226.325,102.329z
	 M53.854,85.621C53.983,85.808,54.053,85.819,53.854,85.621L53.854,85.621z M54.156,86.105
	C54.125,86.026,54.116,86.011,54.156,86.105L54.156,86.105z M54.441,89.199c0.043-0.184,0.022-0.029,0.037-0.349
	c0.055-1.143,0.026-1.115,0.005-1.518c-0.231-1.042-0.112-0.803-0.642-1.724c-0.174-0.171-0.544-0.475-0.65-0.649
	c-0.641-0.378-1.072-0.578-1.469-0.835c-0.047-0.03,0.01-0.005-0.169-0.067c-2.021-0.698-3.511-0.992-5.533-1.164
	c-3.126-0.264-8.208-0.307-11.5,0.098c1.977,3.943,6.632,10.691,10.194,13.035c1.288,0.848,1.94,1.05,2.801,1.22
	c0.274-0.056,1.046-0.071,0.659,0.017c0.482-0.09,0.721-0.162,0.952-0.241c0.354-0.253,0.794-0.403,1.193-0.676
	c0.433-0.51,1.033-0.914,1.486-1.42c0.865-0.966,1.527-2.428,1.905-3.13c0.079-0.256,0.12-0.339,0.191-0.548
	C54.266,90.171,54.325,89.694,54.441,89.199z M47.023,191.152C46.97,191.146,46.963,191.148,47.023,191.152L47.023,191.152z
	 M47.094,191.157c0.064,0.003,0.155,0.007,0.282,0.01C47.282,191.164,47.188,191.16,47.094,191.157z M37.996,197.616
	C38.127,197.455,38.072,197.522,37.996,197.616L37.996,197.616z M51.938,203.354c0.583-0.587,0.432-0.381,0.739-0.911
	c0.134-0.448,0.395-0.912,0.415-1.48c0.044-1.267-0.004-1.184-0.044-1.771c-0.013-0.078-0.234-1.111-0.34-1.487
	c-0.05-0.179-0.327-0.99-0.3-0.963c-0.412-0.992-0.942-1.941-1.575-2.868c-1.875-2.246-2.012-1.877-2.934-2.496
	c-0.924-0.309-0.76-0.197-1.686-0.249c-0.797,0.265-1.097,0.086-3.265,1.522c-0.024,0.016-0.132,0.09-0.155,0.112
	c-0.819,0.783-2,1.47-4.65,4.68c-1.379,1.669-3.764,5.026-5.127,7.582c3.423,0.509,7.795,0.711,13.154,0.278
	c0.203-0.041,1.868-0.255,3.446-0.746C50.643,204.237,51.694,203.599,51.938,203.354z M51.579,203.625
	C51.541,203.65,51.546,203.646,51.579,203.625L51.579,203.625z M52.424,202.869C52.153,203.147,52.192,203.245,52.424,202.869
	L52.424,202.869z M228.185,203.173c-0.008-0.022-0.017,0.078,0.002,0.244c0,0.042,0.001,0.084-0.002,0.126
	c0.009-0.183-0.007-0.108,0.041,0.106c0.045,0.201,0.124,0.405,0.175,0.608c0.091,0.157,0.254,0.45,0.336,0.611
	c0.123,0.149,0.322,0.402,0.386,0.47c0.162,0.171,0.557,0.517,0.545,0.529c1.229,0.886,2.451,1.379,2.383,1.355
	c2.404,0.925,5.27,1.545,7.594,1.83c2.521,0.309,5.329,0.551,7.858,0.463c-0.881-2.321-3.871-8.051-6.313-11.421
	c-1.563-2.025-2.539-2.779-2.93-3.155c-0.176-0.17-1.097-0.582-1.521-0.926c-0.183-0.04-0.475-0.118-0.732-0.202
	c-0.198-0.065,0.058,0.014-0.699-0.023c-0.226,0.036-0.628,0.093-0.771,0.133c-0.422,0.117-0.926,0.442-0.263,0.059
	c-0.35,0.202-0.731,0.352-1.082,0.558c-0.246,0.145-1.188,0.886-0.434,0.246c-2.52,2.141-2.636,2.596-3.964,5.063
	c0.389-0.723,0.023-0.05-0.111,0.344C228.09,201.924,228.163,202.57,228.185,203.173z M229.593,91.032
	C229.61,91.539,229.608,91.25,229.593,91.032L229.593,91.032z M231.692,95.91C231.881,96.199,231.881,96.149,231.692,95.91
	L231.692,95.91z M242.401,95.237C242.121,95.569,242.212,95.48,242.401,95.237L242.401,95.237z M229.91,88.502
	c-0.107,0.154-0.025-0.052-0.323,1.047c0.02,0.12-0.019,0.339-0.022,0.475c-0.007,0.314,0.015,0.625,0.026,0.939
	c0.377,2.082,0.89,3.065,2.08,4.915c0.028,0.044,0.318,0.4,0.422,0.522c0.928,1.088,1.211,1.171,1.563,1.584
	c0.024,0.028,0.146,0.115,0.174,0.134c1.186,0.805,1.258,0.748,1.704,0.965c1.056,0.312,0.604,0.18,1.573,0.231
	c0.256-0.084,0.402-0.097,0.632-0.164c0.203-0.059,0.392-0.189,0.124-0.024c0.407-0.251,0.978-0.503,1.336-0.734
	c0.212-0.136,0.851-0.746,0.163-0.1c0.224-0.21,1.419-1.057,3.048-3.068c1.605-1.982,5.185-7.894,6.656-11.348
	c-4.104-0.251-12.214,0.36-16.005,2.125c-1.133,0.528-1.424,0.785-1.851,1.036c-0.485,0.417-0.209,0.148-0.838,0.784
	C230.289,87.964,229.994,88.381,229.91,88.502z M132.844,145.257l-22.446-13.335l-22.772,12.772l22.446,13.335L132.844,145.257z
	 M145.965,137.898l22.771-12.772l0.325-26.106l-22.771,12.772L145.965,137.898z M141.84,42.53
	C141.187,42.41,141.638,42.507,141.84,42.53L141.84,42.53z M137.138,40.634C137.091,40.592,137.099,40.601,137.138,40.634
	L137.138,40.634z M138.438,41.484c1.046,0.568,2.436,0.869,3.402,1.046c1.022,0.113,2.18,0.104,3.072,0.031
	c0.583-0.101,1.31-0.284,2.149-0.5c0.869-0.381,0.643-0.338,1.23-0.638c0.131-0.067,0.079-0.031,0.135-0.084
	c0.228-0.217,0.455-0.464,0.691-0.678c0.082-0.186,0.14-0.159,0.409-0.7c0.06-0.358,0.317-0.967,0.341-1.287
	c0.026-0.129,0.026-0.123,0.002-0.029c0.057-1.435-0.015-2.337-0.02-2.583c-0.163-0.697-0.301-2.513-1.888-6.68
	c-1.069-2.606-2.373-5.461-3.867-7.862c-1.806,2.288-4.26,6.333-5.558,8.775c-0.735,1.383-1.091,2.206-1.262,2.572
	c-0.279,0.941-1.116,2.962-1.211,4.258c-0.031,0.426-0.062,1.206,0.034,1.645c0.043,0.195,0.168,0.471,0.187,0.679
	c0.097,0.165,0.189,0.331,0.282,0.496c0.551,0.668,0.308,0.399,0.782,0.865C137.384,40.809,137.823,41.15,138.438,41.484z
	 M116.442,100.639l-1.755,24.193l22.981,13.652l0.333-26.728L116.442,100.639z M114.188,165.224l1.152,24.226l21.827-10.576
	l0.333-26.725L114.188,165.224z M144.63,248.826c-0.442-0.122-1.224-0.433-2.311-0.608c-0.389-0.02-1.538-0.189-3.275-0.012
	c-0.037,0.018-0.656,0.123-0.818,0.158c-1.439,0.31-2.193,0.628-3.35,1.35c0.197-0.111-0.394,0.318-0.547,0.467
	c-0.347,0.337-0.376,0.44-0.704,0.988c0.014,0.292-0.266,1.609-0.211,0.633c-0.086,1.533-0.045,1.493,0.012,2.125
	c0.285,1.587,0.732,3.141,1.582,5.004c1.405,3.078,3.662,7.131,6.03,10.269c2.295-3.494,4.975-9.15,5.909-13.507
	c0.421-1.966,0.187-2.211,0.25-3.54c-0.028-0.145-0.049-0.292-0.082-0.436c-0.057-0.257-0.166-0.518-0.216-0.776
	c-0.17-0.364-0.065-0.168-0.449-0.772C145.518,249.187,146.321,249.869,144.63,248.826z M167.899,192.383l0.325-26.108
	l-22.446-13.334l-0.325,26.108L167.899,192.383z M172.399,159.116l20.407-13.112l-20.075-13.616l-23.313,13.076L172.399,159.116z"/>
</svg>
