<?xml version="1.0" encoding="utf-8"?>
<!-- Generator: Adobe Illustrator 23.0.1, SVG Export Plug-In . SVG Version: 6.00 Build 0)  -->
<svg version="1.1" id="Layer_1" xmlns="http://www.w3.org/2000/svg" xmlns:xlink="http://www.w3.org/1999/xlink" x="0px" y="0px"
	 viewBox="0 0 864 864" style="enable-background:new 0 0 864 864;" xml:space="preserve">
<g>
	<g>
		<path d="M850.8,458.6c-0.5,1.2-0.8,2.5-1.5,3.5c-2,2.9-5,4.2-8.3,4.6c-8.7,1.2-17.2-4.9-18.9-13.5c-0.8-4.1,0.7-7.7,4.3-9.7
			c4.2-2.4,8.6-2.4,13-0.8c5,1.8,8.5,5.3,10.5,10.2c0.4,0.9,0.6,1.9,0.9,2.9C850.8,456.7,850.8,457.6,850.8,458.6z"/>
		<path d="M455.3,850.8c-0.3-0.1-0.6-0.3-0.9-0.4c-7.4-2.8-11-8.6-12.1-16.1c-0.6-4.1,0.6-7.8,4.3-10.1c3.9-2.4,8-2.7,12-0.4
			c4.9,2.8,7.5,7.4,8.5,12.8c0.3,1.7,0.3,3.5,0,5.3c-0.5,3.9-2.7,6.6-6.3,8.1c-0.6,0.3-1.2,0.6-1.8,0.8
			C457.8,850.8,456.5,850.8,455.3,850.8z"/>
		<path d="M850.8,409.1c-2,6.8-6.9,10.5-13.4,12.4c-1.7,0.5-3.5,0.7-5.2,0.5c-8.4-0.6-11.2-9.6-8.6-15.1c1.3-2.8,3.3-5,5.8-6.7
			c4.1-2.7,8.6-4.1,13.6-3.1c4,0.9,6.7,3.2,7.6,7.4c0,0.2,0.2,0.3,0.3,0.5C850.8,406.4,850.8,407.7,850.8,409.1z"/>
		<path d="M408.7,13.2c6.2,2.1,10,6.6,12,12.7c0.7,2,0.9,4,0.8,6c-0.3,5.1-3.9,8.9-9,9.5c-2.6,0.3-5.1-0.1-7.3-1.5
			c-6.2-4-9.2-9.7-8.8-17.1c0.3-4.8,3-7.9,7.6-9.3c0.2-0.1,0.5-0.3,0.7-0.4C406,13.2,407.3,13.2,408.7,13.2z"/>
		<path d="M13.2,454.1c0.2-0.2,0.5-0.5,0.6-0.7c2.4-6.7,7.6-10.1,14.2-11.6c1.9-0.5,4.1-0.4,6.1,0c5.9,1.2,9.2,7.8,7.1,13.8
			c-1.4,3.9-4.3,6.6-7.8,8.5c-3.6,1.9-7.5,2.9-11.6,2.1c-3.7-0.7-6.2-2.9-7.6-6.4c-0.2-0.5-0.6-1-0.9-1.5
			C13.2,456.8,13.2,455.4,13.2,454.1z"/>
		<path d="M471,79.8c2.5-1,4.9-1.9,7.2-2.9c11-4.7,22.1-8.9,33.7-11.9c11.4-2.9,23-4.7,34.8-4.3c11.9,0.3,23.2,2.9,33.9,8.1
			c3.7,1.8,7.5,3.7,11.3,5.4c10.8,4.9,19.8,12,27.5,21.1c13.3,15.5,22.5,33.2,29.1,52.4c0.7,2.1,1.4,4.1,2.1,6.2
			c0.2,0.7,0.5,1.4,0.9,2.2c1.9-0.1,3.6-0.2,5.4-0.3c8.1-0.5,16.2,0.1,24.1,2.3c7,2,13.3,5.3,18.3,10.7c5.5,5.9,8.2,13.1,9.4,20.9
			c1,6.9,0.7,13.9-0.3,20.8c-0.1,0.4-0.1,0.8-0.1,1.2c0,0.2,0,0.4,0,0.9c1.6,0.8,3.1,1.7,4.8,2.3c5.8,2.2,11.6,4.5,17.4,6.6
			c10.3,3.7,20.1,8.3,28.8,15.1c7.9,6.1,14.6,13.3,20.4,21.3c6.7,9.1,12.4,18.7,17.2,29c4.1,8.9,6.1,18.3,6.6,28.1
			c0.5,9.2-0.3,18.4-2.1,27.5c-2.2,11.4-4.8,22.8-8.5,33.9c-0.8,2.4-1.7,4.7-2.7,7.1c-1.4,3.5-3.1,6.8-5.7,9.7
			c0.3,0.3,0.5,0.5,0.8,0.7c8.3,6,13.5,14.1,16.6,23.7c1.5,4.8,2.6,9.6,2.7,14.6c0,3.3-0.4,6.7-1.1,9.9c-1.5,7.4-4.3,14.2-9,20.2
			c-2.7,3.5-6,6.3-10,8.5c0.3,0.9,0.6,1.8,0.9,2.7c2.8,7,5.7,14,8.4,21.1c4,10.4,7,21.1,8.7,32.1c2.2,14,2.1,28-2.3,41.7
			c-2.7,8.5-6.7,16.4-10.8,24.2c-3.3,6.4-7.1,12.5-11.8,18.2c-6.5,7.9-14.6,13.9-23.5,18.8c-9.5,5.3-19.4,9.6-29.2,14.2
			c-5.3,2.5-10.6,4.9-15.9,7.4c-0.2,0.1-0.5,0.2-0.8,0.4c0.2,2.4,0.5,4.7,0.6,7.1c0.5,7.5,0,15-2.2,22.2
			c-4.3,14-13.6,22.8-27.8,26.3c-6.3,1.5-12.7,1.9-19.1,1.4c-2.6-0.2-5.1-0.4-7.9-0.7c-0.5,1-1.1,2-1.6,3
			c-2.8,6.7-5.6,13.4-8.3,20.2c-3.4,8.4-7.1,16.6-12.2,24.2c-6.5,9.7-14.6,17.8-23.9,24.7c-11.1,8.2-23.1,14.7-35.9,19.7
			c-10.4,4.1-21.3,5.8-32.5,5.1c-6.9-0.4-13.6-1.9-20.2-3.9c-8.9-2.7-17.4-6.4-26-9.7c-6.4-2.5-12.9-4.7-19.4-7
			c-0.2-0.1-0.4-0.1-0.6-0.1c-0.1,0.1-0.3,0.1-0.4,0.2c-2.6,5.7-7.3,9.2-12.8,11.9c-7.1,3.5-14.8,5.6-22.7,6.6
			c-4.9,0.6-9.7-0.3-14.4-1.2c-5.2-1.1-10.1-2.6-14.8-5.1c-5.3-2.8-9.6-6.6-12.4-12.3c-0.7,0.2-1.4,0.4-2.1,0.6
			c-8.8,2.5-17.2,5.9-25.7,9.4c-6.9,2.8-13.9,5.6-21.2,7.3c-8.8,2.1-17.8,2.6-26.8,1.6c-13.3-1.4-25.8-5.5-38.2-10.2
			c-9-3.5-17.4-8.1-24.9-14.2c-10.2-8.3-17.9-18.5-24-29.9c-4.4-8.2-7.9-16.9-11.4-25.6c-1.7-4.4-3.5-8.7-5.3-13.1
			c-0.3-0.7-0.6-1.4-0.9-2c-1.8,0-3.5,0-5.2,0c-8.9,0.3-17.7-0.3-26.3-3.1c-8.9-2.9-16.1-7.9-20.8-16.1c-2.8-4.9-4.2-10.2-4.9-15.7
			c-0.8-6.4-0.5-12.8,0.3-19.2c0.1-0.7,0.1-1.4,0.2-2c0-0.2-0.1-0.4-0.1-0.8c-1.9-0.9-3.8-1.8-5.8-2.7c-9-3.8-18-7.5-26.9-11.4
			c-10.2-4.4-19.5-10.3-27.6-17.9c-7.7-7.3-13.9-15.7-19.1-24.9c-5.9-10.3-10.8-21-13.4-32.6c-2.7-12-2.9-24-0.9-36.1
			c1.8-11,5.4-21.5,9.4-31.9c2.4-6.1,4.6-12.2,6.9-18.4c0.6-1.6,1-3.2,1.5-4.9c-1-0.5-1.9-1-2.8-1.5c-3.1-1.9-5.6-4.5-7.7-7.5
			c-4.1-5.9-6.5-12.6-8.3-19.4c-0.6-2.4-1.1-4.8-1.5-7.2c-0.5-2.4-0.5-4.7,0-7.1c0.9-5.3,2.3-10.4,4.4-15.3
			c3.3-7.8,7.9-14.6,15.9-18.9c-0.5-1.5-0.9-3.1-1.5-4.6c-2.5-5.8-5-11.6-7.5-17.5c-4.5-10.4-7.8-21.2-9.1-32.5
			c-1-8.5-1-17,0.1-25.5c1.9-15,6.5-29.2,13.1-42.8c4.7-9.8,11.8-17.8,19.8-25c9.9-8.8,21.1-15.6,32.9-21.5
			c8.6-4.2,17.3-8.1,26.6-10.4c2.1-0.5,2.3-0.8,2.3-3c0-3.3-0.1-6.7,0-10c0.1-6.8,0.8-13.5,2.9-20c4.3-13.4,13.6-21.3,27.3-24.2
			c7.6-1.6,15.3-1.5,23-0.6c0.7,0.1,1.4,0.2,2,0.2c0.3,0,0.5,0,1,0c0.7-1.6,1.6-3.3,2.2-4.9c3.2-7.8,6.2-15.7,9.5-23.5
			c4.4-10.3,10-19.8,17.2-28.4c9.6-11.4,21.2-20.1,34.6-26.5c5.5-2.6,11.1-5.2,16.8-7.4c11-4.2,22.4-5.1,34-4.3
			c21.3,1.6,41.3,7.4,60.5,16.7c1.3,0.6,2.6,1.2,3.9,1.8c1.2,0.6,2.1,0.4,3.1-0.5c3.4-3.2,6.8-6.4,10.3-9.4
			c3.2-2.7,6.6-5.1,10.6-6.4c5.6-1.7,11.4-2.9,17.3-3.1c3.4-0.1,6.9,0.7,10.3,1.4c5.6,1.2,10.8,3.2,15.7,6.1
			c4.8,2.9,8.7,6.5,11.4,11.4C470.5,79.2,470.6,79.4,471,79.8z M728.5,428.5c-0.4-7.6-0.6-15.1-1.1-22.7
			c-0.8-12.9-2.7-25.6-5.3-38.2c-6.2-30.1-17-58.4-32.2-85.1c-16.3-28.4-36.7-53.4-61.3-75c-21.6-19-45.4-34.6-71.4-46.7
			c-23.5-10.9-47.9-18.6-73.5-23c-13.8-2.4-27.7-3.9-41.6-4.3c-16.6-0.5-33.1,0.4-49.5,2.7c-12.9,1.8-25.6,4.4-38.2,7.9
			c-22,6-43.1,14.5-63.2,25.4c-21.4,11.6-40.9,25.7-58.8,42.2c-18.8,17.3-35.1,36.7-48.9,58.3c-19.4,30.4-32.6,63.4-40,98.7
			c-3.7,17.4-5.8,35.1-6.3,52.9c-0.3,9.7,0,19.5,0.7,29.2c1,13.5,2.8,26.8,5.6,40c6.1,29.1,16.4,56.6,30.9,82.5
			c16,28.6,36.2,53.7,60.6,75.6c22.3,19.9,47.1,36.2,74.2,48.7c30,13.9,61.4,22.5,94.3,25.9c15,1.5,30.1,1.8,45.1,1
			c14.5-0.8,28.8-2.6,42.9-5.5c29.6-6.1,57.5-16.5,83.9-31.2c28.3-15.7,53.6-35.2,75.5-59.1c27.3-29.8,47.2-63.9,60.4-102
			c6.2-18,10.8-36.4,13.6-55.3C727.1,457.2,728.3,442.9,728.5,428.5z M295.7,708.4c-0.4,0.8-0.9,1.5-1.2,2.3
			c-3.1,7.7-6.3,15.4-9.4,23.1c-2.6,6.4-3.9,13-4.3,19.9c-0.3,5.6,0.1,11.1,1.9,16.3c2.5,7.3,3.6,7.6,10.2,9.5
			c3.5,1,6.9,0.6,10.1-1.1c1.1-0.6,2.3-1.2,3.3-2c2.4-2.1,4.8-4.1,6.8-6.4c5.8-6.5,10.1-14,14.1-21.7c2.9-5.5,5.5-11.1,8.3-16.6
			c1-2,2-3.9,3.1-6C324.3,719.9,310.1,714.2,295.7,708.4z M568.9,708.6c-14.6,5.2-28.6,11.1-42.7,17.1c0.3,0.4,0.4,0.7,0.5,0.9
			c2.7,3.3,4.3,7.1,5.4,11.1c0.9,3.1,2.1,6.2,3.5,9.1c3.7,7.8,8.5,14.9,14.4,21.3c3.1,3.4,6.4,6.6,10.4,9.2c3,1.9,6.2,3,9.8,2.7
			c6.8-0.5,11.2-4,12.8-10.6c0.4-1.6,0.6-3.4,0.7-5c0.3-4.9-0.4-9.6-1.4-14.4c-2-9.8-5.2-19.3-8.7-28.7
			C572.1,717.2,570.5,713.1,568.9,708.6z M727.4,526.3c-1.7,2.3-2.7,4.4-3.3,6.7c-0.7,2.5-1.3,5-2.3,7.4c-3.6,8.7-7.3,17.3-11,25.9
			c-0.3,0.7-0.6,1.4-0.9,2.1c0.6,0.3,1.1,0.7,1.7,0.9c7.8,3.7,15.7,7,23.8,9.6c8,2.6,16.1,4.7,24.5,5c3.2,0.1,6.4-0.1,9.5-1.1
			c5.7-1.8,9.2-5.6,10.3-11.5c0.8-4-0.1-7.7-2-11.2c-1.5-2.9-3.5-5.3-5.8-7.6c-5.2-5.2-11.3-9.5-17.8-12.9
			C745.4,535,736.4,530.7,727.4,526.3z M137.5,526.9c-8.6,4.3-17,8.5-25.3,12.8c-5.5,2.8-10.7,5.9-15.7,9.6c-3.6,2.7-7,5.6-9.7,9.3
			c-1.7,2.3-3,4.9-3.3,7.8c-0.7,6.2,2.9,12.5,8.7,15.3c2.6,1.3,5.4,1.9,8.3,2.1c6.8,0.5,13.4-0.6,20-2.3
			c10.1-2.6,19.8-6.4,29.3-10.7c1.5-0.7,3-1.3,4.6-2C148.7,554.7,143.1,540.8,137.5,526.9z M711.5,295c1.9,4.6,3.9,8.9,5.6,13.4
			c3.3,8.3,6.5,16.6,9.7,24.9c0.4,0.9,0.9,1.8,1.3,2.7c2.3-1.1,4.3-2.2,6.4-3.1c6-2.6,12.1-5,18-7.6c6.4-2.9,12.5-6.4,17.6-11.4
			c4.7-4.6,8.2-9.9,10-16.2c1.5-5.4-0.2-9.9-4.9-13c-1.2-0.8-2.6-1.5-4-2.1c-6.8-2.7-13.8-2.9-20.9-2.3c-9.5,0.8-18.6,3.3-27.2,7.5
			C719,289.8,715.1,292.1,711.5,295z M153.6,295.4c-1.7-1.2-3.2-2.3-4.7-3.3c-5.5-3.4-11.4-5.7-17.6-7.6c-8.8-2.7-17.9-4.4-27.1-4.2
			c-4.1,0.1-8.1,0.7-12,2.1c-6.8,2.6-9,10.2-8,15.2c1,4.6,3.5,8.2,6.6,11.6c3.7,4,8.1,7.3,12.6,10.3c10.1,6.6,20.9,11.7,32,16.2
			c0.3,0.1,0.6,0.1,1.1,0.2C142.3,322.6,146.7,308.6,153.6,295.4z M335.6,134.7c-1.1-2.7-2-5.1-3-7.5c-3.5-8.5-7.3-16.9-12.2-24.7
			c-3.1-5-6.7-9.6-11.3-13.4c-3.5-2.8-7.3-4.8-11.8-5.1c-6.6-0.5-11,2-13.6,7.3c-0.7,1.4-1.3,3-1.7,4.6c-1.8,6.8-1.4,13.7-0.2,20.5
			c2.1,12.4,6.6,24,12.8,34.9c0.3,0.5,0.6,0.9,0.9,1.3C308.8,146.7,322.1,140.8,335.6,134.7z M569.4,152.2c0.7-1.1,1.3-2,1.8-3
			c5.1-9.3,8.6-19.3,10.9-29.6c1.3-5.9,2-11.9,1.7-18c-0.2-3.4-0.9-6.6-2.4-9.7c-3.1-6.1-9.9-9.3-16.6-7.7c-4.5,1.1-8,3.6-11.2,6.8
			c-4.3,4.2-7.7,9.1-10.8,14.3c-5.5,9.3-9.7,19.2-13.7,29.2c0,0.1,0.1,0.3,0.2,0.7C542.1,141.4,555.7,146.6,569.4,152.2z
			 M209.1,693.2c-0.1-1.1,0-2.2-0.2-3.2c-0.7-5.1-1.3-10.3-2.1-15.4c-0.7-4.4-1.6-8.7-2.4-13c-0.2-1.3-0.8-2.1-2.2-2.3
			c-0.3,0-0.6-0.2-1-0.3c-9.6-2.6-19.4-3.6-29.3-4.1c-0.4,0-0.8,0.1-1.2,0.1c-2.1,4.2-2.6,8.6-1.7,13c2.6,12.4,10,21,21.8,25.6
			C196.9,695.9,203,695.8,209.1,693.2z M204,203.9c0.2-0.7,0.3-1.1,0.4-1.5c1.6-10.1,3.2-20.2,4.7-30.3c0.3-1.8-0.2-2.6-2-3.3
			c-2.2-0.9-4.5-1.1-6.8-0.7c-9.4,1.3-17.4,5.4-23.9,12.2c-7.3,7.6-9.5,16.6-6.2,26.8c0.2,0.6,0.5,1.1,0.7,1.7
			C182,207.1,192.9,205.5,204,203.9z M693.6,208.6c1.9-3.9,2.6-9,1.6-13.6c-2.1-10.2-8-17.7-16.8-23c-4.6-2.7-9.6-4.1-15-3.7
			c-2.8,0.2-5.5,0.9-8,2.4c1.5,11.1,2.7,22.2,5.1,33.1C671.6,205.4,682.5,207,693.6,208.6z M458.2,87.4c-3.1-7.3-8.4-11.9-16-13.6
			c-10.9-2.4-21.1,0-30.5,5.8c-1.8,1.1-3.4,2.5-4.6,4.3c-1.5,2.3-1.3,3.4,0.7,5.3c6.8,6.1,13.5,12.2,20.3,18.4
			c1.3,1.2,2.6,2.3,4.1,3.6C440.9,103.3,449.5,95.4,458.2,87.4z M693.5,654.8c-11.1,1.7-22,3.3-32.8,5c-0.2,0.4-0.3,0.6-0.3,0.8
			c-1.7,10.3-3.3,20.6-4.9,30.9c-0.3,1.8,0.2,2.8,2.1,3.1c2.1,0.4,4.3,0.5,6.5,0.3c5.4-0.6,10.6-2.2,15.7-4.3c2.4-1,4.6-2.4,6.4-4.3
			c6.2-6.6,9.1-14.6,9.2-23.6C695.3,660,694.8,657.4,693.5,654.8z M776.8,405.8c-0.9,0.9-1.6,1.5-2.3,2.3
			c-6.8,7.4-13.6,14.9-20.4,22.3c-1.5,1.7-1.4,1.8,0.3,3.2c2.2,1.8,4.4,3.6,6.4,5.7c5.2,5.2,9.8,10.7,13.9,16.8
			c1.4,2.1,2.6,2.4,4.6,1c1.4-1,2.8-2.2,3.9-3.6c5.7-7.5,8.6-16.1,8.2-25.5C790.9,417.7,785.9,410.4,776.8,405.8z M111.5,431.9
			c-0.4-0.5-0.6-0.9-0.9-1.2c-5.3-6-10.5-12-15.8-17.9c-1.9-2.1-3.8-4.1-5.8-6.1c-1.1-1.1-1.8-1.2-3-0.3c-0.8,0.6-1.6,1.3-2.3,2
			c-5,5.7-8.5,12.3-10.7,19.5c-0.6,2.1-0.7,4.3-0.2,6.5c1.3,6,3.6,11.6,7.3,16.5c1.5,2,3.4,3.7,5.2,5.4c0.7,0.6,1.6,1,2.5,1.5
			C95.8,449.1,103.6,440.5,111.5,431.9z M432.1,752.6c-8.7,8-17.3,15.8-26,23.7c6.4,10.2,15.7,14.8,27.4,14.3
			c10.5-0.5,19.1-4.8,24.8-14.2C449.6,768.3,441.1,760.3,432.1,752.6z M340.2,759.8c0.5,0,0.7,0,0.9,0c9.2-1.9,17.5-5.9,24.6-12.2
			c3.4-3,6.1-6.6,7.6-10.9c0.2-0.6,0.3-1.1,0.5-1.8c-8.1-2.6-16.1-4.8-24.6-5.5c-0.1,0.5-0.2,0.8-0.2,1c0.2,6.6-1.5,12.8-4.1,18.8
			c-1.2,2.8-2.6,5.6-3.8,8.4C340.8,758.2,340.6,758.9,340.2,759.8z M161.9,581.4c-10,4.5-19.6,9.3-29.3,14.1
			c8.5,7.5,33.2,11.6,41.4,6.9C170.4,595.3,166.4,588.4,161.9,581.4z M515.4,729.8c-4-0.8-21.6,3.3-24.6,5.6c1.1,3.8,3.3,7.1,6,10
			c6.9,7.1,15.3,11.8,24.9,14c0.8,0.2,1.6,0.2,2.6,0.3c-0.3-0.9-0.5-1.6-0.8-2.2c-1-2.2-2-4.5-3-6.7
			C517.4,744.2,514.8,737.4,515.4,729.8z M282.7,702.5c-0.5-0.5-0.8-0.8-1.2-1.1c-6-4-12.1-7.9-18.1-11.8c-1.5-1-2.4-0.7-3.2,0.9
			c-0.3,0.7-0.7,1.4-0.7,2.1c-0.2,2.6-0.4,5.2-0.2,7.7c0.5,6.7,1.9,13.2,4.1,19.5c1.1,3.3,2.7,6.5,4.1,9.8c0.2,0.6,0.7,1,1.4,1.9
			C272.5,721.1,276.2,711.1,282.7,702.5z M595.8,731.4c0.2,0,0.3,0,0.5,0c0.6-1,1.2-1.9,1.8-3c4.9-9,6.9-18.7,6.7-28.9
			c-0.1-2.6-0.6-5.3-1.1-7.9c-0.2-0.9-0.7-1.7-1.1-2.5c-4.1,1.8-18.9,11-20.8,12.9c0,0.1,0.1,0.3,0.1,0.4c0.3,0.5,0.6,0.9,0.8,1.4
			c4.6,7.5,9,15.1,11.3,23.7C594.5,728.9,595.3,730.1,595.8,731.4z M703.3,581.6c-3,3.2-12.5,18.9-12.7,21.1
			c11.4,4.3,34.1-0.4,41.2-7.3c-4.9-2-9.8-3.9-14.6-5.9C712.3,587.5,707.6,584.9,703.3,581.6z M760.4,524
			c-1.3-8.3-4.4-15.4-9.1-21.7c-3.3-4.4-7.3-8.1-12.2-10.7c-0.7-0.4-1.4-0.6-2.3-1c-2.8,7.9-5.2,15.5-5.8,23.8
			c0.7,0.1,1.1,0.2,1.5,0.2c5.4,0.3,10.6,1.6,15.5,3.9c2.8,1.3,5.7,2.7,8.5,4C757.6,523,758.8,523.4,760.4,524z M128,490.5
			c-0.8,0.3-1.5,0.6-2.2,0.9c-3.5,1.6-6.4,3.9-9,6.6c-6.3,6.8-10.2,14.9-12.3,23.9c-0.1,0.6-0.1,1.1-0.2,1.9
			c0.7-0.2,1.2-0.3,1.6-0.5c2.1-0.9,4.3-1.8,6.3-2.8c5.9-2.9,11.9-5,18.4-5.6c1.1-0.1,2.2-0.3,3.4-0.4
			C132,506.4,130,498.6,128,490.5z M731.2,349.3c1.7,7.9,3.7,15.5,6.1,23.2c2.3-0.5,4.1-1.6,5.7-2.9c9-7,14.4-16.2,16.9-27.2
			c0.2-0.8,0.2-1.5,0.4-2.6c-1.1,0.3-1.8,0.5-2.5,0.8c-2.9,1.3-5.9,2.6-8.7,3.9c-3.7,1.7-7.4,3-11.4,3.7
			C735.6,348.6,733.5,348.9,731.2,349.3z M704,280.2c3.7-0.9,25.8-10.8,27.7-12.4c-8.5-7.4-32.8-11.6-39.9-6.9
			C693.8,265,701.7,277.5,704,280.2z M172.5,260.7c-0.7-0.3-1.1-0.5-1.6-0.6c-1.1-0.2-2.1-0.5-3.2-0.6c-7.6-1-14.9,0.2-22.2,2.3
			c-3.9,1.1-7.7,2.7-11.1,4.9c-0.6,0.4-1.1,0.9-1.6,1.3c9.3,4.3,18.5,8.6,27.8,12.9C165.5,274.7,169.2,268,172.5,260.7z
			 M132.8,349.2c-5.1-0.6-9.6-1.8-14-3.5c-3.8-1.5-7.5-3.1-11.3-4.7c-1-0.4-2-0.8-3-1.2c-0.1,0.4-0.2,0.6-0.2,0.8
			c0.1,0.5,0.1,1.1,0.3,1.6c1.8,7.6,5.1,14.5,9.9,20.6c3,3.8,6.6,7,11.1,9.2c0.7,0.3,1.5,0.6,2.4,0.9
			C129.6,364.9,131.2,357.2,132.8,349.2z M261.1,171.5c5.9-3.3,11.6-6.5,17.3-9.8c3.2-1.8,3.4-1.2,1.7-4.9
			c-3.5-7.8-7.2-15.6-10.8-23.3c-0.2-0.5-0.5-0.9-0.7-1.4C261.6,139.2,257.1,162.5,261.1,171.5z M340.4,103.5
			c0.4,2.8,8.6,25.1,10.1,27.6c7.5-1,14.9-2.8,22.4-4.9c-1.2-3.4-3-6-5.2-8.3c-4.6-4.7-10.1-8-16.1-10.6
			C348,105.7,344.4,104.3,340.4,103.5z M491.5,126.3c1,0.3,1.7,0.6,2.4,0.6c4.1,0.1,8,1,11.8,2.1c2,0.6,4,1.2,6,1.9
			c2.3,0.8,2.4,0.8,3.4-1.4c0.1-0.3,0.3-0.6,0.4-0.9c3.3-7.6,6-15.5,8.4-23.4c0.1-0.4,0.1-0.9,0.2-1.3c-0.3,0-0.4-0.1-0.6-0.1
			c-9.2,1.9-17.4,5.8-24.3,12.2c-2.2,2.1-4.1,4.5-6.1,6.9C492.5,123.7,492.1,124.9,491.5,126.3z M603.5,171.6
			c3.7-9.3-0.3-30.9-7.5-39.7c-4.2,9.3-8.3,18.5-12.6,27.9C590.2,163.9,596.8,167.7,603.5,171.6z M443.5,740c0.7,1.1,1.2,2,1.8,2.8
			c2.6,3.6,5.6,6.8,8.9,9.8c2,1.8,2.3,1.8,4.6,0.4c5.3-3.3,10.6-6.6,16-9.9c0.4-0.2,0.8-0.5,1.2-0.8c-0.6-2.8-2.6-4-4.9-4.7
			c-3-0.9-6.2-1.2-9.3-0.8c-4.4,0.5-8.8,1.2-13.1,1.9C446.9,739,445.3,739.6,443.5,740z M389.8,737.6c-0.7,2.2-0.4,3.9,0.7,5.4
			c1.1,1.5,2.4,2.9,3.9,4.1c3.7,2.9,7.9,4.7,12.2,6.4c1.3,0.5,2.1,0.3,3.1-0.6c4-3.4,7.4-7.2,10.4-11.5c0.3-0.4,0.5-0.9,0.8-1.6
			C410.5,738.1,400.2,738,389.8,737.6z M248.6,680c-9.2-7.9-18.5-15.6-28.1-23.6c0,2.4-0.1,4.3,0,6.1c0.3,3.2,0.8,6.5,1.2,9.7
			c0.1,0.9,0.5,1.7,1.4,2.2c5.2,3.1,10.6,5.8,16.6,7.3c2,0.5,4,0.8,6.1,0.3C246.9,681.6,247.9,681.2,248.6,680z M657.6,643.4
			c0.3,0.2,0.5,0.3,0.7,0.3c5.1,0.1,10.1-0.5,15-1.5c0.5-0.1,1.1-0.6,1.3-1.1c3.2-5.3,5.9-10.7,7.4-16.7c0.5-2,0.8-4,0.3-6.1
			c-0.3-1.1-0.7-2.1-2.1-2.8c-1.5,3.8-4.3,6.4-7,9.1c-5.3,5.4-10.1,11.2-14.6,17.3C658.3,642.3,658,642.8,657.6,643.4z M742.8,475.5
			c4-6.5,8-12.9,11.9-19.2c-2.6-4.7-9.8-11.1-12.8-11.6c-0.1,0.1-0.2,0.2-0.2,0.4c-1,6-2,12.1-2.8,18.1c-0.3,2.7-0.3,5.4-0.1,8.1
			C739,473.8,740.1,474.9,742.8,475.5z M615.7,680c1.3,0.8,2.6,1.1,3.8,1c3.2-0.3,6.4-0.6,9.5-1.2c4.1-0.9,8-2.2,11.6-4.5
			c1.4-0.9,2.3-2.1,2.5-3.8c0.4-4.4,0.7-8.8,1.1-13.2c0-0.3-0.1-0.6-0.2-1.2c-0.8,0.5-1.4,0.7-1.9,1.1
			C633.3,665.5,624.5,672.7,615.7,680z M206.2,643.5c-0.1-0.5-0.2-0.6-0.2-0.7c-6.4-8.3-12.9-16.7-20.1-24.4c-0.6-0.6-1.3-1.3-2-1.8
			c-0.9-0.7-1.7-0.5-2.1,0.5c-0.3,0.6-0.4,1.3-0.4,2c0.1,1.1,0.2,2.3,0.5,3.4c1.7,6.5,4.6,12.5,7.7,18.4c0.4,0.9,1.1,1.3,2.1,1.4
			c2.8,0.4,5.6,0.9,8.5,1.2C202.1,643.6,204,643.5,206.2,643.5z M109.6,456.3c3.4,5.5,6.7,10.9,10,16.3c0.5,0.8,1.1,1.6,1.7,2.2
			c1,1,2.2,0.8,2.9-0.3c0.3-0.5,0.5-1.1,0.6-1.7c0.2-1.7,0.4-3.4,0.4-5.1c-0.1-6.4-1.1-12.7-2.2-19c-0.2-1.3-0.5-2.6-0.8-4.2
			C117,447.5,113.1,451.5,109.6,456.3z M122.1,419.1c0.6-2.9,1.2-5.5,1.8-8.1c1.1-5.3,2.1-10.7,1.8-16.2c-0.1-1.4-0.3-2.8-0.8-4.2
			c-0.5-1.5-1.6-2.5-3.3-2.6c-0.2,0.4-0.4,0.7-0.7,1c-2.6,4.2-5.1,8.5-7.7,12.7c-0.9,1.5-1.8,3-2.8,4.5c-0.5,0.8-0.5,1.5,0.1,2.2
			C113.6,412.7,117.4,416.1,122.1,419.1z M754.7,407.7c-3.5-6.3-7.1-12.4-11.4-18c-0.3-0.4-0.7-0.8-1.1-1.2
			c-0.6-0.5-1.2-0.4-1.5,0.3c-0.3,0.6-0.6,1.3-0.7,1.9c-0.2,1.5-0.4,3.1-0.4,4.7c-0.1,7,0.7,14,1.8,20.9c0.1,0.9,0.4,1.8,0.7,3
			C747.1,416.3,751.1,412.4,754.7,407.7z M100.4,394.5c3-2.7,7.6-10.8,8.1-14.2c0-0.4,0-0.9-0.3-1.1c-1.8-2-3.7-4-5.6-5.9
			c-0.5-0.5-1.1-0.7-1.9-0.3c-2.5,1.2-5.1,2.3-7.5,3.7c-1.9,1.1-1.9,1.4-1.1,3.5c1.7,4.6,4,8.8,6.9,12.7
			C99.4,393.4,99.9,393.9,100.4,394.5z M485.8,772.7c2.3-2.7,3.9-5.6,5.2-8.5c0.6-1.2,0.4-2.2-0.5-3.1c-1.7-1.6-3.4-3.1-5.1-4.7
			c-0.7-0.6-1.3-0.7-2.2-0.5c-4.4,1.3-8.4,3.4-12,6.3c-0.5,0.4-1,0.9-1.6,1.5C474.3,767.9,479.8,770.5,485.8,772.7z M773.1,485.4
			c-1.9-5.3-4.3-10.3-7.5-14.8c-0.2-0.3-0.4-0.5-0.7-0.8c-0.6-0.7-1.3-0.8-1.9-0.1c-0.2,0.3-0.5,0.5-0.7,0.8
			c-2.7,3.8-4.7,8-6.2,12.4c-0.1,0.4-0.1,1.2,0.1,1.5c1.9,2.1,3.8,4.1,5.7,6.1c0.5,0.5,1,0.6,1.7,0.3
			C767,489.4,770.2,487.9,773.1,485.4z M378.6,90.9c-2.7,3.1-4.1,6.7-5.5,10.1c1.6,3,4.3,4.8,6.6,6.8c0.6,0.6,1.3,0.3,1.9,0
			c4.3-1.6,8.4-3.6,11.9-6.5c0.5-0.4,0.9-0.8,1.4-1.3C390.1,95.7,384.7,93,378.6,90.9z M100.3,469.1c-4.1,4.8-6.6,10.4-9.2,16.1
			c2.9,2.7,6.2,4.3,9.8,5.5c0.4,0.1,1.1-0.1,1.4-0.4c1.5-1.3,2.9-2.7,4.3-4c1.6-1.6,2.1-3.4,1-5.5c-0.4-0.7-0.5-1.4-0.8-2.1
			C105.2,475.2,103.4,471.9,100.3,469.1z M395.1,763.7c-4.3-3.7-8.8-6.3-13.8-8c-0.6-0.2-1.6,0-2,0.4c-1.9,1.8-3.8,3.7-5.6,5.6
			c-0.5,0.5-0.6,1-0.2,1.7c1.3,2.5,2.4,5,3.7,7.5c0.4,0.7,1,1.2,1.5,1.9C384.7,770.7,390,767.6,395.1,763.7z M764.1,394.7
			c1.1-1.6,2.2-2.8,3-4.2c1.9-3.4,3.7-6.9,5.5-10.5c0.8-1.7,0.8-2-0.8-3c-2.5-1.4-5.1-2.6-7.6-3.9c-1-0.5-1.8-0.4-2.6,0.4
			c-1.8,1.9-3.5,3.8-5.2,5.7c-0.3,0.3-0.3,0.9-0.2,1.3C757.6,385.7,760.2,390.4,764.1,394.7z M469.6,99.9c0.4,0.4,0.6,0.6,0.8,0.8
			c3.8,3.4,8.3,5.4,13,7.2c0.4,0.1,1,0.1,1.3-0.1c2.1-1.9,4.2-3.8,6.3-5.8c0.5-0.5,0.6-1.2,0.2-1.9c-1.3-2.5-2.4-5-3.8-7.5
			c-1.1-1.9-1.3-1.9-3.3-1.1c-4.6,1.7-8.8,4-12.7,6.9C470.8,98.8,470.2,99.4,469.6,99.9z M446.3,120.1c0.7,0.1,1,0.2,1.4,0.2
			c6.3,0.7,12.6,1.4,18.9,2c2.4,0.2,4.8,0.3,7.1,0.4c0.7,0,1.4-0.2,2.2-0.3c-1.4-3.1-12.5-10.4-19.6-13.1
			C452.6,112.5,448.5,115.2,446.3,120.1z M226,691.9c-0.2,3.5,2.7,13.4,4.6,16.1c3.8,0.2,7.5-0.1,11.3-1c1.5-0.4,2.1-1.2,2.3-2.7
			c0.2-2.5-0.2-4.8-0.4-7.4C237.8,695.3,232,693.6,226,691.9z M246.8,181.4c-0.1-0.2-0.2-0.4-0.3-0.6c-0.8,0.1-1.6,0-2.4,0.2
			c-2.6,0.7-5.3,1.3-7.8,2.3c-4.2,1.6-8.4,3.5-12.6,5.3c-1.3,0.5-2,1.5-2.1,3c-0.3,2.8-0.7,5.5-1,8.3c-0.1,1,0,2.1,0,3.6
			C230,196.5,238.6,189.2,246.8,181.4z M706.9,620.2c-2.8,0-5.4,0-8,0c-1.1,0-1.5,0.7-1.8,1.6c-1.4,4.8-2.8,9.6-4.2,14.5
			c-0.2,0.6-0.2,1.1-0.4,2.1c1.4-0.2,2.5-0.3,3.6-0.6c3.7-1.1,7.4-2.2,11.1-3.3c0.8-0.3,1.4-0.7,1.4-1.7
			C708.7,628.4,708,624.3,706.9,620.2z M172.1,225.5c-0.4,0-0.8-0.1-1.2-0.1c-4.9,0.6-9.5,2.1-14.1,4c-0.8,0.3-0.9,0.9-0.9,1.6
			c0.2,2.5,0.2,5,0.5,7.5c0.2,1.6,0.7,3.1,1.1,4.6c3.6,0.5,7.4,0.3,9.5-0.4C168.7,237.1,170.4,231.3,172.1,225.5z M225.8,171.7
			c6.2-1.8,12-3.4,18.1-5.2c0-2.8,0-5.3,0-7.9c0-1-0.4-1.7-1.5-1.8c-3.5-0.4-7-0.8-10.5-1.2c-1.3-0.2-1.9,0.4-2.4,1.6
			c-1.6,4.1-2.7,8.4-3.6,12.7C225.8,170.3,225.9,170.8,225.8,171.7z M638.7,692.3c-0.3-0.1-0.4-0.2-0.5-0.2
			c-5.4,1.5-10.9,3-16.3,4.5c-0.9,0.2-1.2,0.8-1.2,1.6c0,2.6,0,5.3,0,8.1c0.8,0.2,1.6,0.5,2.4,0.6c3.2,0.7,6.4,1.2,9.7,0.9
			c1.3-0.1,2.1-0.6,2.5-1.9c0.7-2.4,1.5-4.8,2.2-7.2C637.9,696.7,638.6,694.5,638.7,692.3z M172.2,638.2c-1.7-5.9-3.3-11.5-5-17
			c-0.1-0.4-0.6-0.9-0.9-0.9c-2.6-0.1-5.2,0-7.7,0c-0.8,0-1.2,0.6-1.3,1.3c-0.9,3.9-1.3,7.8-1.2,11.9
			C161.1,636.1,166.3,637.7,172.2,638.2z M634.1,155.6c-4.1-0.3-7.9,0.3-11.8,1.1c-1.2,0.3-1.8,0.9-1.8,2.1c0,2.2,0.1,4.3,0.2,6.5
			c0,1,0.5,1.5,1.6,1.8c4.8,1.3,9.5,2.8,14.3,4.1c0.6,0.2,1.3,0.2,1.9,0.4C638.7,168,636.5,160.3,634.1,155.6z M692.4,225.4
			c1.7,6,3.4,11.8,5,17.7c2.7,0.5,5.2,0.7,7.8,0.5c1.2-0.1,1.8-0.6,2.1-1.8c0.8-3.3,1.1-6.7,1.2-10.1c0-1.3-0.5-1.9-1.6-2.4
			c-4-1.7-8.1-2.8-12.3-3.6C694,225.4,693.3,225.4,692.4,225.4z M408,109.5c-0.1,0-0.3,0.1-0.4,0.1c-6.2,4-12.4,7.9-18.5,11.9
			c-0.2,0.2-0.3,0.5-0.7,1.1c3.5,0.8,6.8,0.2,10.1-0.1c3.2-0.3,6.5-0.7,9.7-1c3.3-0.4,6.5-0.8,9.9-1.2
			C416.3,116.6,411,110.9,408,109.5z M204,220.4c-2.6-0.7-11,0.4-12.9,1c-0.9,0.3-1.4,0.8-1.7,1.6c-3.1,6.6-5.9,13.3-7.9,20.3
			c-0.2,0.9-0.2,1.8-0.3,2.7c0.2,0.1,0.4,0.2,0.6,0.3C189.7,238.2,196.7,229.3,204,220.4z M660.7,219.8c-0.1,0.2-0.1,0.3-0.2,0.5
			c0.6,0.7,1.3,1.3,1.9,2.1c4.3,5.4,8.5,10.8,12.8,16.1c1.7,2.1,3.3,4.1,5.1,6.1c0.6,0.7,1.5,1.2,2.4,1.9c0.1-0.5,0.2-0.7,0.2-0.8
			c0-0.5-0.1-0.9-0.2-1.4c-1.6-7.4-4.5-14.4-7.7-21.3c-0.6-1.3-1.7-1.7-2.9-1.9C668.4,220.6,664.5,220.2,660.7,219.8z M643.6,202.5
			c0.5-4,0.1-7.9-0.9-11.6c-0.2-0.7-0.9-1.4-1.5-1.7c-6.8-3.4-13.8-6.3-21.3-8.1c-0.5-0.1-1-0.1-1.5-0.1c-0.1,0.1-0.1,0.3-0.2,0.4
			C626,189.1,634.7,195.8,643.6,202.5z M628.4,141.1c-0.4-3.9-5.4-13.9-8.2-16.2c-1.7,1.1-3.5,2.2-5.3,3.3c-1.3,0.8-1.6,1.9-1.1,3.3
			c0.7,2,1.5,4.1,2.3,6.1c0.6,1.6,1.3,3.2,2,4.8C621.7,142.5,625,142.4,628.4,141.1z M246.6,721c-3.7,0.2-7.2,0.1-10.8,1.6
			c1.9,5.8,4.5,11.1,8.1,16.3c2-1.2,3.9-2.2,5.7-3.4c1.6-1.1,1.6-1.5,1-3.3c-1-2.8-2-5.5-3-8.2C247.3,723,247,722.1,246.6,721z
			 M244,124.7c-3.6,5.2-6.4,10.4-8.1,16.3c3.2,0.9,6.1,1.5,9.2,1.7c0.7,0,1.4-0.1,1.7-0.9c1.3-3.6,2.7-7.3,4-10.9c0.4-1.1,0-2-1-2.6
			C247.9,127.1,246.1,126,244,124.7z M722.9,628c4.1-0.5,13.6-5.3,16.3-8c-0.5-2.3-2.2-3.9-3.6-5.7c-0.8-1.1-1.7-1.3-3-0.8
			c-2.5,1-5.1,1.9-7.6,2.8c-1.1,0.4-2.2,0.9-3.4,1.4C721.4,621.3,722.3,624.6,722.9,628z M721.6,246c3.9,1.4,7.7,2.9,11.5,4.3
			c0.9,0.3,1.7,0.3,2.3-0.7c1.2-2,2.5-4,3.7-6c-3.4-3.3-13.4-8.1-16.3-7.9C722.1,239,721.4,242.3,721.6,246z M125.4,619.8
			c3.1,3.3,13.1,8.1,16.2,8c0.9-2.8,1.5-5.6,1.5-8.6c0-0.8-0.1-1.5-1-1.8c-3.6-1.3-7.1-2.7-10.7-4.1c-1-0.4-1.8-0.1-2.4,0.8
			C127.7,616,126.5,617.9,125.4,619.8z M618,721.1c-1.4,3.7-2.7,7.4-4,11c-0.6,1.6-0.4,2.4,1,3.3c1.8,1.2,3.7,2.2,5.4,3.3
			c3.4-3.7,7.9-13.3,7.7-16.2C624.8,721.4,621.4,721,618,721.1z M141.5,235.3c-5.8,1.9-11,4.7-16,8c1,2.5,2.1,4.6,3.7,6.4
			c0.6,0.7,1.1,1.1,2.1,0.7c3.5-1.4,7.1-2.7,10.7-4c0.8-0.3,1.2-0.8,1.1-1.7C142.9,241.5,142.4,238.5,141.5,235.3z M265.4,749.5
			c-1.6-1-3.2-1.9-4.8-2.8c-1.1-0.6-2.1-0.6-3.2,0.3c-1,0.9-2.3,1.5-3.4,2.3c-0.8,0.5-1.5,1.2-2.3,1.8c3.7,5.6,7.7,10.6,13.4,14.7
			C265.5,760.1,265.4,754.8,265.4,749.5z M98.2,264.8c5.9,0,11.3,0,16.5,0c1-1.7,1.9-3.2,2.8-4.6c0.5-0.8,0.7-1.4,0.1-2.2
			c-1-1.6-1.9-3.3-3-4.9c-1.2-1.8-1.4-1.9-3.2-0.7c-4.3,2.6-7.9,6-11.1,9.8C99.6,262.9,99.1,263.7,98.2,264.8z M113,612.3
			c1.9-2.2,3.3-4.7,4.7-7.2c0.2-0.3,0.1-0.9-0.1-1.3c-0.9-1.6-1.9-3.3-3-5c-5.3,0-10.7,0-16.1,0C99.8,601.8,107.6,609,113,612.3z
			 M746.4,258.8c1,1.8,2,3.2,2.6,4.8c0.5,1.1,1.2,1.4,2.3,1.4c3.8,0,7.6,0.1,11.4,0.1c1,0,2.1-0.1,3.2-0.2c-3-5-10.7-11.8-15-13.3
			C749.6,254,748,256.4,746.4,258.8z M605.2,117.5c0.3-0.2,0.7-0.3,0.9-0.5c1.5-0.9,2.9-1.7,4.4-2.6c2.7-1.7,2.8-2,0.8-4.5
			c-3.2-4-6.7-7.6-10.6-11c-0.3-0.3-0.7-0.5-1-0.7c-0.2,0.1-0.3,0.2-0.3,0.2c0,5-0.1,10.1-0.1,15.1c0,0.4,0.4,1,0.8,1.3
			C601.7,115.6,603.5,116.5,605.2,117.5z M265.3,98.2c-0.2-0.1-0.3-0.1-0.5-0.2c-0.3,0.2-0.6,0.5-0.9,0.7c-3.2,3.3-6.5,6.6-9.7,10
			c-0.7,0.7-1.3,1.6-1.8,2.5c-0.7,1.1-0.6,1.4,0.4,2.2c1.3,1,2.7,1.8,4.1,2.7c2.5,1.5,2.5,1.3,5.1,0.1c2.6-1.2,3.5-2.9,3.3-5.7
			C265.2,106.4,265.3,102.3,265.3,98.2z M749.9,598.8c-1.2,2-2.3,3.9-3.4,5.8c1.5,2.8,3.1,5.4,5.1,7.6c4.3-2.1,13.4-10.6,14.4-13.4
			C760.6,598.8,755.3,598.8,749.9,598.8z M613,750.8c-2.9-1.7-5.4-3.3-7.9-4.8c-2,1.2-3.9,2.3-5.7,3.4c0,5.4,0,10.8,0,16.6
			C604.6,761.4,609.3,756.8,613,750.8z M500,85.4c1.3,2.8,2.4,5.7,4.4,8.1c3.7-1.4,7.2-2.7,10.8-4c-0.4-3,0.4-6.1-1.1-8.8
			C509.3,81,502.5,83.2,500,85.4z M770.6,359.2c2.3,2.3,5.8,4.4,8.4,4.8c2.3-4.5,3.9-9.3,4.2-14.5c-2.4-0.3-4.5-0.6-6.5-0.8
			c-1.2-0.2-2,0.2-2.4,1.4C773,353.1,771.8,356.2,770.6,359.2z M364.7,778.5c-0.9-1.9-1.6-3.5-2.4-5.2c-0.5-0.9-1-1.8-1.7-2.5
			c-0.3-0.3-1-0.6-1.4-0.4c-3,1-5.9,2.2-8.8,3.3c-0.8,0.3-1.2,0.9-1.2,1.7c0,2.5,0.2,5,1.1,7.5C355.3,782.2,360,780.8,364.7,778.5z
			 M779.2,499.4c-3.4,1.1-5.9,2.8-8.5,4.6c0.2,0.7,0.2,1.3,0.4,1.8c0.5,1.5,1,3,1.7,4.4c0.7,1.5,1.5,3,2.2,4.5c1.8,0,3.5,0,5.3-0.1
			c1.1-0.1,2.2-0.2,3.1-1.1C782.4,508.8,781.5,504,779.2,499.4z M85.5,499.7c-2.4,4.5-3.6,9.2-4.5,14.1c2.7,1.2,5.5,1.1,8.3,0.9
			c0.3,0,0.7-0.5,0.8-0.8c1.2-2.9,2.4-5.8,3.5-8.7c0.3-0.8,0.2-1.5-0.5-2C90.8,501.6,88.3,500.5,85.5,499.7z M81,349.9
			c1,4.9,2.4,9.6,4.3,14.2c3.1-1.1,6-2.4,8.6-4.6c-1-2.7-1.8-5.3-2.9-7.8c-1.6-3.6-0.6-3.1-4.9-3C84.5,348.9,82.7,348.8,81,349.9z
			 M514.3,782.9c0.3-0.9,0.6-1.6,0.7-2.4c0.2-1.4,0.1-2.9,0.3-4.3c0.2-1.5-0.5-2.4-1.7-2.9c-3-1.1-5.9-2.2-9-3.4
			c-1.8,2.9-3.7,5.4-4.6,8.5C504.5,780.8,509.2,782,514.3,782.9z M349.4,89.5c3.6,1.3,7,2.6,10.5,3.9c2.3-2.4,3.5-5.3,4.7-8.2
			c-3.7-2.2-11.9-4.7-14.5-4.3C349.3,83.6,349.4,86.5,349.4,89.5z M78.3,528.4c-1.2,5.9-1.8,11.5-1.2,17.6c0.9-0.8,1.5-1.4,2.1-1.9
			c1.7-1.7,3.3-3.4,5-5.1c3.1-3.1,3.1-3.1,3-7.5c0-0.1,0-0.1,0-0.2c-0.1-1.7-0.3-2.1-2-2.3C83,528.6,80.8,528.6,78.3,528.4z
			 M546.1,76.9c-0.1-0.2-0.1-0.3-0.2-0.5c-5.7-0.3-11.3,0-17.1,1.4c0.2,2.4,0.2,4.5,0.6,6.7c0.3,1.9,0.7,2.1,2.6,2.1
			c1.2,0,2.3-0.2,3.5-0.1c0.9,0,1.5-0.4,2.1-1c2.4-2.4,4.9-4.7,7.3-7.1C545.3,78,545.7,77.4,546.1,76.9z M787.2,545.8
			c0.1-0.2,0.3-0.3,0.3-0.4c0.7-5.4-0.1-10.7-1-16c-0.1-0.3-0.6-0.8-1-0.8c-2.2,0.1-4.5,0.2-6.7,0.4c-1,0.1-1.5,0.8-1.5,1.9
			c0.1,1.4,0.2,2.7,0.2,4.1c0,1,0.4,1.6,1.1,2.3c2.6,2.5,5.1,5.1,7.6,7.7C786.5,545.2,786.8,545.5,787.2,545.8z M545.9,786.9
			c-0.1-0.4-0.2-0.6-0.2-0.6c-2.8-2.9-5.6-5.7-8.5-8.6c-0.3-0.3-0.7-0.5-1.1-0.5c-1.6-0.1-3.3-0.2-4.9-0.3c-1.1-0.1-1.8,0.5-1.9,1.5
			c-0.2,2.2-0.2,4.3-0.3,6.5c0,0.9,0.5,1.3,1.4,1.4c1.6,0.2,3.1,0.5,4.7,0.6C538.7,787.2,542.2,787.2,545.9,786.9z M77,317.9
			c-0.5,6,0,11.5,1.3,17c2.8,0.7,5.4,0.2,7.9-0.7c0.4-0.1,0.8-0.9,0.9-1.4c0.1-1.2,0-2.4,0-3.7c0-1.1-0.3-1.9-1.1-2.7
			c-2.2-2.1-4.3-4.4-6.5-6.5C78.8,319.2,78,318.7,77,317.9z M318.5,76.7c0.4,0.5,0.6,0.9,1,1.3c2.3,2.3,4.7,4.5,7,6.9
			c1.6,1.7,3.5,2.2,5.7,1.8c0.4-0.1,0.8-0.2,1.2-0.1c1,0,1.4-0.5,1.7-1.4c0.6-2.3,0.5-4.7,0.4-7C331.6,76.5,322.6,75.8,318.5,76.7z
			 M777.7,334c2.9,1,5.7,1.6,8.6,0.9c1.4-5.1,1.8-14.5,0.8-17.1c-2.5,2.6-4.8,5.3-7.4,7.6c-2,1.8-2.6,3.8-2.2,6.4
			C777.6,332.4,777.6,333.1,777.7,334z M335.4,785.7c0.2-2.5,0.1-4.9-0.4-7.2c-0.3-1.4-0.6-1.6-2.1-1.6c-1.2,0-2.4,0.3-3.7,0.2
			c-1.1,0-1.9,0.5-2.7,1.2c-2.3,2.3-4.6,4.6-6.9,6.9c-0.5,0.5-0.8,1-1.5,1.8C324.2,787.2,329.8,787.3,335.4,785.7z"/>
		<path d="M129.1,714.1c-2.2-0.5-4.4-0.8-6.5-1.5c-5.6-2-8-7.1-6-12.7c2.1-6,6.7-9.3,12.9-10.2c3.3-0.5,6.5,0,9.6,1.4
			c5.4,2.4,7.5,7.5,5.3,13C142.1,709.8,135.9,713.8,129.1,714.1z"/>
		<path d="M29.9,421.4c-7.6,0-15.1-6.3-16.2-14.4c-0.3-2.4,0.6-4.7,2.2-6.6c2.7-3.1,6.2-4.3,10.2-4.3c7.7,0,14.9,6.3,16.3,13.8
			c0.7,3.9-0.8,7.2-4.1,9.3C35.9,420.8,33.3,421.4,29.9,421.4z"/>
		<path d="M422.3,833.8c-0.1,7.1-4.6,13.3-11.2,15.9c-5.7,2.3-10.3-0.9-12.2-4.5c-2.4-4.5-2.4-9.1-0.3-13.6c2.3-5,6.3-8.2,11.5-9.7
			c4.4-1.3,8.3,0.5,10.5,4.5C421.9,828.8,422.4,831.3,422.3,833.8z"/>
		<path d="M737.7,713.8c-5.2-0.4-9.5-1.7-13.5-4.1c-3.4-2.1-5.5-5.1-5.1-9.3c0.4-4.3,2.6-7.6,6.5-9.4c6.2-3,15.6-0.8,19.9,4.7
			c2.3,2.9,3.3,6.2,2.6,9.9c-0.7,3.8-3,6.4-6.7,7.5C740.2,713.4,738.6,713.6,737.7,713.8z"/>
		<path d="M733.1,174.4c-2.3-0.6-4.7-0.9-6.9-1.7c-5.3-2-8-7.5-6.7-12.9c0.4-1.7,1.4-3.1,2.8-4.2c4.5-3.6,9.7-5.7,15.6-5.8
			c2.1,0,4.2,0.5,6,1.7c3.4,2.2,4.9,6.2,4.1,10.6C746.7,169.3,740.7,174.2,733.1,174.4z"/>
		<path d="M713.9,128c-0.1,5.1-1.5,9.7-5,13.5c-5.7,6.2-15,3.2-17.6-3.2c-1-2.3-1.4-4.7-1.2-7.2c0.4-4.9,2-9.2,5.6-12.5
			c2.7-2.4,5.8-3.5,9.4-3c3.5,0.5,6,2.5,7.4,5.7C713.6,123.4,713.9,125.7,713.9,128z"/>
		<path d="M441.7,30.4c0.2-6.3,2.8-11.4,8.2-14.9c7.1-4.5,14.7-1.2,16.4,7c0.9,4,0.2,7.9-2,11.4c-2.7,4.2-6.5,7-11.3,8.1
			c-3.8,0.9-7.2-0.5-9.3-3.8C442.2,35.8,441.7,33.2,441.7,30.4z"/>
		<path d="M132.3,174c-3.4-0.1-6.8-0.8-9.8-2.5c-3.5-2.1-5.7-5-6.2-9.1c-0.9-7.5,4.8-13.3,12.4-12.4c4.2,0.5,8.1,1.9,11.7,4.1
			c8,4.7,5.3,14.6-0.3,17.9C137.7,173.4,135.1,174,132.3,174z"/>
		<path d="M174.3,730.6c-0.3,5.9-1.9,10.6-5.6,14.4c-6,6-14.8,3-17.3-3.8c-1.2-3.3-1.2-6.7-0.5-10.1c0.7-3.3,2.1-6.3,4.4-8.8
			c6.4-7,15.7-2.7,17.9,3.7C173.9,727.7,174.1,729.5,174.3,730.6z"/>
		<path d="M713.6,736.7c-0.2,1.1-0.4,3.3-1.2,5.3c-1.8,4.9-5.9,7.1-11.1,6c-4.2-0.9-7.2-3.3-9-7c-2.5-5.1-2.8-10.4-0.7-15.6
			c3.7-9.3,13.7-7.8,17.6-2.7C712.3,726.4,713.5,730.8,713.6,736.7z"/>
		<path d="M174,132.2c0,2.2-0.4,4.7-1.6,7.1c-3.4,7.4-12.7,7.1-16.7,2.4c-2.6-3.1-4.2-6.7-4.7-10.7c-0.3-2.1-0.3-4.2-0.1-6.3
			c1-8.3,9-12,16.1-7.4c2.3,1.5,3.9,3.5,5.1,6C173.4,125.8,174,128.7,174,132.2z"/>
		<path d="M827,375.8c-0.3,4.5-1.8,9.7-6,13.6c-2.7,2.6-5.9,3.3-9.4,1.7c-3.6-1.6-5.9-4.3-6.9-8.1c-1.7-6.8,2.3-15.6,8.5-18.9
			c3.8-2,7.4-1.4,10.4,1.8C825.8,368.4,827.1,371.3,827,375.8z"/>
		<path d="M375,36.9c4.9,0.2,9.1,1.7,12.7,5c5.1,4.6,4.8,11-0.5,15.3c-3.7,3-7.8,3.7-12.3,2.4c-4-1.2-7.2-3.5-9.6-6.9
			c-4.1-6-2.1-12.4,4.7-15c0.8-0.3,1.6-0.5,2.4-0.6C373.3,36.9,374.2,36.9,375,36.9z"/>
		<path d="M37.3,488.6c0.2-5.3,1.7-9.8,5-13.5c5.1-5.8,11.1-4.3,15,0.1c3,3.4,3.9,7.4,2.9,11.8c-1.1,4.6-3.6,8.2-7.6,10.7
			c-7.7,4.7-13.1-0.5-14.7-5.9C37.4,490.7,37.4,489.4,37.3,488.6z"/>
		<path d="M483.7,60.8c-2.6-0.1-5-0.6-7.3-1.9c-5.8-3.4-6.9-11.5-1.9-16c3.5-3.2,7.6-5.2,12.4-5.8c5.9-0.7,10.8,3.6,11.3,9.8
			c0.6,7.1-3.4,11.5-10.3,13.3C486.6,60.6,485.1,60.6,483.7,60.8z"/>
		<path d="M489,826.8c-4.6-0.1-8.8-1.6-12.5-4.6c-0.9-0.8-1.8-1.7-2.5-2.7c-2.1-3-2.2-6.2-0.4-9.4c3-5.3,9.2-7.7,15.3-5.9
			c4,1.2,7.3,3.6,9.6,7.1c4.4,6.8,0.7,14.5-7.4,15.3C490.5,826.7,489.8,826.7,489,826.8z"/>
		<path d="M126.4,187.2c0.4,0,0.7,0,1,0.1c6.6,0.4,9.9,4.4,8.9,10.9c-0.8,5.7-5.7,12.3-13,13.2c-3.4,0.4-6.7-0.3-9.5-2.3
			c-3.4-2.3-4.8-6.2-3.4-10.5c2.1-6.5,7-10,13.6-11.2C124.8,187.3,125.7,187.3,126.4,187.2z"/>
		<path d="M738.6,676.6c-5.5,0-9.5-3.2-10.6-8.4c-0.5-2.1,0-4.1,0.8-6c2.4-5.6,9.1-10.4,15.9-9.8c2.1,0.2,4,0.8,5.8,1.8
			c3.7,2.2,5.1,6.1,3.8,10.7C752.3,671.4,745.4,676.6,738.6,676.6z"/>
		<path d="M38.1,376.4c0-4,1-6.9,3.2-9.5c3.2-3.6,8.1-4.5,12.2-1.9c8.1,5.2,9.9,15.2,4.3,23c-2.4,3.4-9.6,5.3-14.5,0.2
			C39.9,384.9,38.2,380.6,38.1,376.4z"/>
		<path d="M211.7,121c-0.2,4.7-2.5,9.3-7,12.7c-2.4,1.8-5.1,2.6-8.1,2.2c-5-0.6-8.3-3.8-8.7-8.8c-0.5-6.1,1.6-11.3,6.2-15.3
			c2.8-2.4,6.1-3.2,9.7-2.2C208.9,111,211.7,114.8,211.7,121z"/>
		<path d="M803.4,484.9c0-2.8,0.8-5.3,1.9-7.9c2.4-5.4,10.6-7.1,15-3c5,4.7,7,10.4,5.4,17.2c-0.5,1.9-1.5,3.7-2.9,5.1
			c-3.1,3.3-7.5,4-11.6,1.9C806.7,495.8,803.4,490.3,803.4,484.9z"/>
		<path d="M379.9,803.1c2.7,0.1,5.4,0.6,7.9,2.2c5,3.2,6.3,10.5,2.2,14.8c-4.4,4.7-9.9,7-16.4,5.7c-5.7-1.1-9.4-6.1-8.7-11.5
			c0.3-2.3,1.4-4.3,2.9-6C371,804.8,375.1,803.3,379.9,803.1z"/>
		<path d="M211.4,742.7c-0.2,1.4-0.3,2.8-0.6,4.1c-1.9,7.6-8.4,9.1-14.1,6.2c-0.8-0.4-1.5-0.9-2.2-1.5c-4.3-3.9-6.7-8.7-6.7-14.6
			c0-6.2,4.7-10.2,10.9-9.5c6,0.7,10.4,4.6,11.9,10.7C211,739.6,211.1,741.2,211.4,742.7z"/>
		<path d="M120.6,652.4c7.4,0.1,12.9,4.2,15.5,10.7c2.3,5.8-2.5,14.1-10.3,13.3c-3.8-0.3-7.3-1.6-10.3-4.1c-2.7-2.2-4.5-4.9-5.1-8.4
			c-1.1-5.9,2.6-11,8.6-11.6C119.6,652.4,120.3,652.4,120.6,652.4z"/>
		<path d="M676.7,126.2c-0.3,1.4-0.6,3.2-1.2,4.9c-1.4,3.5-4.5,5.3-8.3,5.1c-10.4-0.6-16.9-10.7-13.1-20.4c0.5-1.2,1.1-2.3,1.9-3.3
			c2.4-3.1,6-4.1,9.7-2.8c5.9,2.2,9.1,6.7,10.5,12.6C676.4,123.4,676.5,124.5,676.7,126.2z"/>
		<path d="M743,211.3c-4.5-0.3-8.9-2.1-12.1-6.5c-2.2-3-3.2-6.3-2.5-10c0.9-4.7,4.3-7.8,9.1-7.7c5,0.1,9.5,1.7,13.1,5.4
			c2,2,3.3,4.5,3.6,7.4C755,206.5,750.4,211.4,743,211.3z"/>
		<path d="M676.6,738.4c-0.4,5.2-2.9,10.5-8.3,14c-6.1,4.1-14,0.5-15.1-6.7c-1-6.7,1.5-12.2,6.8-16.2c3-2.3,6.5-2.7,10.1-1.7
			C674.4,729.1,676.7,732.4,676.6,738.4z"/>
		<path d="M682.7,430.2c0,19.3-2.8,36.3-8,52.9c-6.1,19.4-13.7,38.2-22,56.7c-4.3,9.6-8.8,19.2-13.3,28.7
			c-6.4,13.5-15.2,25.3-25.6,36c-18,18.4-38.9,32.8-62.2,43.7c-23.1,10.8-46.9,19.7-71.5,26.6c-9.9,2.8-19.9,5-30.1,6.5
			c-11.2,1.7-22.4,1.5-33.6-0.4c-32.5-5.5-63.8-15.2-93.9-28.7c-18.6-8.4-36.4-18.3-52.6-30.8c-13.6-10.4-25.7-22.3-35.4-36.5
			c-4.3-6.4-7.8-13.2-11.1-20.2c-9-19.2-17.8-38.6-25.3-58.5c-5.1-13.4-9.6-27-12.8-40.9c-2.6-11.6-4.3-23.3-4.2-35.2
			c0.1-13.2,2.3-26.2,5.9-38.9c4.3-15.1,9.9-29.7,15.5-44.3c3.7-9.7,7.2-19.5,11.1-29.2c7.5-18.9,18.2-35.9,31.5-51.3
			c19-21.9,41.9-38.8,68.2-51.1c22.2-10.5,45.1-19.1,68.8-25.5c10.6-2.9,21.3-5.2,32.2-6.7c10-1.4,20.1-2,30.2-1.2
			c11.3,0.8,22.4,2.8,33.4,5.8c15.4,4.2,30.3,9.8,45,16c16.4,6.8,32.4,14.2,48.3,22c9.1,4.4,17.2,10.3,24.8,16.8
			c16.8,14.2,31,30.6,42.3,49.5c4.2,7,7.7,14.4,10.8,22c6.1,15.1,12.4,30.1,18.4,45.2c5.1,12.9,9.1,26.1,11.9,39.7
			C681.5,409.8,682.7,420.8,682.7,430.2z M230.4,515.8c2,0.6,3.7,1.2,5.4,1.7c11.5,3.2,22.8,6.8,33.8,11.5
			c10.8,4.6,21.1,10.2,30.4,17.5c11.5,9,20.6,20.2,28.4,32.5c7.9,12.4,13,26,16.5,40.3c1.1,4.3,2.2,8.6,3.4,12.8
			c0.2,0.9,0.7,1.7,1.1,2.6c2.6-1.3,5-2.4,7.4-3.5c8.9-4.3,17.8-8.5,27.1-12c16.6-6.2,33.7-9.2,51.5-8c5.6,0.4,11.1,1,16.7,1.7
			c10.8,1.3,21.4,3.2,31.8,6.3c8.4,2.4,16.5,5.5,23.8,10.5c2.1,1.4,4.2,3.1,6.4,4.5c2.2,1.3,3.3,1.3,4.1-1.5
			c1.3-4.9,2.7-9.7,4.2-14.5c5.2-16.5,12.1-32.1,21.6-46.6c7.7-11.8,17.1-21.7,28.8-29.4c10.9-7.2,22.5-12.8,34.8-17
			c8.6-3,17.3-5.5,25.9-8.2c0.8-0.3,1.6-0.6,2.5-0.9c-0.5-1.1-0.9-1.9-1.3-2.8c-3.8-7.6-7.8-15.2-11.3-22.9
			c-6.4-13.9-11.5-28.2-14-43.4c-1.4-8.5-1.8-17.1-0.5-25.6c2.7-17.1,7.8-33.6,15.2-49.2c3.4-7.3,7.3-14.5,11-21.7
			c0.4-0.7,0.7-1.4,1.1-2.2c-1-0.3-1.9-0.6-2.7-0.9c-4.7-1.5-9.5-3-14.2-4.6c-14.4-5-28.3-10.9-41.6-18.4
			c-16.3-9.3-28.9-22.1-38-38.5c-5-9-8.8-18.4-12.2-28.1c-3.1-8.7-6.1-17.5-9.1-26.3c-0.2-0.7-0.6-1.3-0.9-2.1
			c-1.5,0.6-2.8,0.9-4,1.6c-5.4,2.7-10.8,5.4-16.1,8.3c-9.2,5-18.7,9.5-28.8,12.4c-10.4,3-21,4.5-31.8,4.7c-5,0.1-10,0-14.9-0.5
			c-9.9-1-19.4-3.5-28.8-6.6c-14.5-4.9-28.3-11.3-41.6-18.8c-0.6-0.4-1.3-0.7-2.1-1.1c-0.4,1.2-0.7,2.1-1,3.1
			c-1.2,4.5-2.4,9.1-3.7,13.6c-4.4,15.8-10.9,30.6-20,44.4c-10,15.2-22.7,27.2-38.6,36.1c-8.8,4.9-17.9,9.2-27.5,12.5
			c-8.4,2.9-17,5.4-25.5,8.2c-0.8,0.2-1.5,0.5-2.4,0.9c0.4,0.8,0.7,1.4,1,2c2.4,4.3,4.9,8.5,7.2,12.9c6.3,11.9,11.9,24.2,16,37.1
			c3,9.7,4.8,19.6,4.2,29.8c-0.3,4.9-0.6,9.8-1.1,14.7c-1.8,15.8-6.2,30.8-13.2,45.1c-3.4,7-7.4,13.7-11,20.5
			C232.5,511.6,231.6,513.6,230.4,515.8z M216.3,508.9c0.3-0.2,0.5-0.3,0.5-0.4c0.4-0.4,0.7-0.8,1-1.3c7.8-10,13.6-21.2,17.5-33.3
			c5.2-16.2,6.9-32.7,5.8-49.6c-0.9-14.9-3.8-29.3-9.1-43.2c-2.9-7.7-6.5-15-11.5-21.5c-1.3-1.7-2.7-3.2-4.2-4.9
			c-0.7,1-1.3,1.7-1.9,2.5c-4,5.8-6.8,12.2-8.9,19c-4.3,13.5-6.2,27.5-6.9,41.6c-0.9,19.1,0.2,38.1,4,56.9
			c1.7,8.3,3.9,16.4,7.4,24.2C211.6,502.4,213.5,505.9,216.3,508.9z M334.3,639.4c-0.1-1.3-0.1-2.3-0.2-3.3
			c-0.5-4.2-1.6-8.3-2.9-12.3c-6-17.5-14.3-33.8-24.1-49.5c-2.3-3.7-5-7-8.4-9.7c-2.5-2.1-5-4.2-7.7-6.1
			c-15.4-10.9-32.3-18.9-50.2-24.7c-4.4-1.4-8.9-2.6-13.5-3c-0.6-0.1-1.3,0-2,0c1.2,6.2,3,11.8,5.4,17.2c5.6,13,13.6,24.5,22.9,35.2
			c13.9,16.1,30,29.7,47.9,41.2c7.3,4.7,14.9,8.8,22.9,12C327.4,637.6,330.6,638.7,334.3,639.4z M334.1,224.3
			c-0.5,0.1-0.9,0.1-1.2,0.2c-3.3,1.1-6.6,2.1-9.8,3.5c-12.6,5.3-24.3,12.2-35.6,20c-9.7,6.7-18.5,14.4-25.8,23.7
			c-4.5,5.7-9,11.3-13.3,17.1c-6.9,9.4-13.3,19.1-18.7,29.5c-1.5,3-2.7,6.1-3.9,9.2c-0.4,1-0.5,2.1-0.5,3.2c0,1.2,0.5,1.5,1.7,1.4
			c0.8-0.1,1.6-0.3,2.4-0.5c12.9-3,25.4-7.3,37.5-12.6c8.1-3.6,16-7.6,23.2-12.8c4.7-3.4,9.2-7.1,12.6-11.9c1.5-2.1,2.9-4.3,4.2-6.5
			c7.9-12.6,15.3-25.4,21.1-39.2c2.4-5.7,4.5-11.4,5.6-17.5C334,228.9,334.4,226.7,334.1,224.3z M639.2,530.8
			c-2.2,0.5-4.2,0.8-6.1,1.2c-17.9,4.6-34.5,12.1-50,22.1c-12.7,8.1-22.7,18.8-30.3,31.8c-7.8,13.3-13.4,27.5-17.3,42.4
			c-0.8,3-1.4,6.1-2.1,9.3c0.8,0,1.4,0.2,1.9,0.1c1.7-0.3,3.5-0.6,5.2-1.2c5.7-1.8,11-4.5,16.1-7.5c22.5-13.4,42-30.2,58.6-50.4
			c8-9.7,14.8-20.2,19.6-31.9C636.7,541.8,638.3,536.7,639.2,530.8z M357.3,649.1c1.2,0.8,2,1.4,2.8,1.8c4,1.8,8,3.8,12.1,5.3
			c17.6,6.3,35.8,9.3,54.4,10.1c14.2,0.6,28.3-0.3,42.3-3.2c13.3-2.7,26.1-7.2,38.1-13.6c0.4-0.2,0.8-0.6,1.4-1
			c-1.3-1.2-2.3-2.4-3.6-3.3c-2.4-1.7-4.8-3.4-7.3-4.8c-17.8-9.6-36.8-14.8-57-15.8c-14.7-0.7-29.1,0.7-43.3,4.6
			c-12.2,3.3-23.8,8.1-34.3,15.4C361.1,645.9,359.4,647.4,357.3,649.1z M508.2,215.4c-0.2-0.3-0.2-0.5-0.3-0.6c-0.5-0.3-1-0.7-1.6-1
			c-4.6-2-9.1-4.3-13.8-6c-14.5-5.3-29.5-8.6-44.9-10c-12-1.1-24-1-35.9,0.6c-12.9,1.7-25.6,4.6-37.9,8.9c-4.5,1.6-8.9,3.5-13.3,5.3
			c-1,0.4-2.1,0.8-2.9,2.1c2,1.5,3.9,3.1,5.9,4.5c9.2,6.1,19.3,10.4,29.7,13.9c9.9,3.3,20,5.9,30.5,6.5c19.7,1.2,38.9-1.6,57.3-8.6
			c8.9-3.4,17.4-7.8,25-13.7C506.7,216.7,507.5,216.1,508.2,215.4z M638.5,331.7c0-1.7,0.4-3.3-0.4-4.9c-9.4-18.4-20.2-35.8-33.1-52
			c-9.3-11.6-19.5-22.2-31.4-31.2c-10.2-7.6-21.2-13.6-33.6-16.8c-2.1-0.5-4.2-0.9-6.6-1.4c1.5,13.3,5.6,25.5,11.2,37.1
			c9.7,20.2,23.4,37,42.1,49.6C602.4,322.7,619.7,328.9,638.5,331.7z M649.7,357.1c-0.7,0.8-1.4,1.4-2,2.2c-2,2.9-4,5.7-5.7,8.7
			c-5.5,9.7-9.4,20.1-12.4,30.8c-4,14.6-5.7,29.4-3.7,44.5c2.2,16.5,6.8,32.2,13.8,47.3c2.2,4.7,4.7,9.3,7.8,13.4
			c0.6,0.8,1.3,1.5,2,2.3c0.3-0.4,0.5-0.6,0.7-0.8c0.4-0.5,0.7-1,1-1.5c3.3-5.2,5.7-10.8,7.6-16.7c4.1-12.9,6-26.1,6.9-39.6
			c1.2-19.3,0.2-38.6-3.6-57.6c-1.7-8.5-4-16.8-7.7-24.7C653.2,362.6,651.7,359.8,649.7,357.1z"/>
		<path d="M696.2,328.5c-0.1,3.4-1.6,7.2-4.9,10.2c-2.9,2.7-6.4,3.6-10.2,2.6c-3-0.8-5.7-2.2-8-4.3c-3.6-3.3-4.4-7.7-2.5-12.1
			c2.7-6.1,10-9.9,16.3-8.6C692.9,317.3,696.3,321.5,696.2,328.5z"/>
		<path d="M179.4,521.9c3.4,0.1,5.9,0.8,8.3,2.1c5.4,2.9,7.7,8.6,5.7,14.4c-2.6,7.8-10.8,11.2-18.4,8.2c-2.3-0.9-4-2.6-5.1-4.8
			c-2.4-5-2.2-10,0.7-14.8C172.8,523.6,176,521.9,179.4,521.9z"/>
		<path d="M696.4,535.5c-0.3,1.5-0.4,3-0.9,4.4c-1.4,4.4-4.5,7-9.2,7.6c-3.4,0.4-6.7-0.2-9.6-1.9c-4.4-2.5-6.5-6.4-6.1-11.4
			c0.4-5.5,3.4-9.4,8.6-11.3C688.1,519.7,696.2,525.8,696.4,535.5z"/>
		<path d="M547.8,179.4c0,3.2-0.6,5.5-1.6,7.6c-4.4,8.7-13.5,8.2-18.7,3.6c-4.8-4.2-6-11.8-2.8-17.4c1.9-3.3,4.8-5.2,8.6-5.5
			c1.6-0.1,3.3-0.1,4.9,0.2C544.2,169,547.8,173.7,547.8,179.4z"/>
		<path d="M329.8,167.5c7.1,0.2,11.7,4.8,11.7,12.1c0,3.1-0.8,6.1-2.4,8.7c-3.9,6.3-11.9,7.5-17.4,2.5c-4-3.6-5.7-8.3-4.9-13.6
			c0.6-4.2,3.2-7,7.1-8.4C325.7,168.1,327.8,167.9,329.8,167.5z"/>
		<path d="M547.8,683.4c0,2.2-0.4,4.3-1.4,6.3c-2.1,4.5-6.4,6.9-11.3,6.3c-0.8-0.1-1.6-0.2-2.4-0.4c-7.3-1.8-11.1-7.7-9.5-15.1
			c1.6-7.5,8.6-12,15.8-10.1c4.8,1.3,8.2,5.7,8.7,11.2C547.8,682.2,547.8,682.8,547.8,683.4z"/>
		<path d="M168.2,329c0-2.6,0.6-4.8,1.7-6.8c2.4-4.5,6.8-6.7,11.9-6c3,0.4,5.6,1.5,8,3.4c3.9,3.1,5.3,7.4,3.9,12.2
			c-2.5,8.9-12.5,12.5-20.1,7.3C170,336.7,168.1,333,168.2,329z"/>
		<path d="M329.9,695.9c-3.2-0.1-6.1-1-8.6-2.8c-3.6-2.6-5.1-6.2-4.6-10.5c0.4-3.8,2.1-7,5-9.6c7-6.4,15.6-2,18.3,3.6
			c2.4,4.8,2.2,9.7-0.7,14.2C337.2,694.3,334,696,329.9,695.9z"/>
		<path d="M710,432.4c0.1,1.7-0.3,4-2,5.8c-2.1,2.3-4.7,2.6-7.5,2c-2.6-0.6-4.3-2.2-5-4.9c-0.5-2.3-0.6-4.6,0-6.9
			c1-4.4,6.4-6.7,10.4-4.5C708.9,425.6,710.1,427.8,710,432.4z"/>
		<path d="M432.4,694.6c3.1,0,5.7,0.9,7.5,3.7c2.3,3.6,0.6,9.1-3.5,10.5c-2.3,0.8-4.6,1.1-7,0.5c-3.5-0.8-6-3.8-5.9-7.3
			c0-3.7,2.4-6.4,6.1-7.1C430.5,694.8,431.5,694.7,432.4,694.6z"/>
		<path d="M154.5,432.2c0-3,0.4-5.5,2.6-7.3c2.2-1.9,4.8-2.4,7.4-1.3c2.6,1.1,4.4,3,4.5,6c0.1,1.8,0.1,3.5-0.1,5.3
			c-0.3,2.6-1.9,4.3-4.3,5.2c-2.6,0.9-5.2,0.9-7.5-1.1C155.1,437,154.4,434.6,154.5,432.2z"/>
		<path d="M432.4,168.9c-0.8-0.1-1.7-0.1-2.5-0.2c-3.8-0.4-6.2-3.1-6.3-7c-0.1-3.9,2.3-6.9,6-7.3c1.8-0.2,3.7-0.2,5.5,0
			c3.3,0.4,5.7,3.3,5.8,6.9c0.2,3.5-2,6.5-5.4,7.2C434.5,168.7,433.4,168.7,432.4,168.9z"/>
		<path d="M631.2,622.2c0,5.2-4.5,8-7.6,8.6c-2.5,0.5-6-1.4-7.3-3.7c-3-5.2,0.8-11.9,6.8-12.3c3.1-0.2,5.3,1.1,6.8,3.6
			C630.6,619.5,630.8,620.9,631.2,622.2z"/>
		<path d="M233.6,241.4c-0.2-4.9,3.8-8.2,8.4-8.3c3.3-0.1,7.4,3,7.2,7.8c-0.2,4.5-3.9,7.9-8.6,8
			C237.4,248.9,233.1,245.4,233.6,241.4z"/>
		<path d="M623.5,248.8c-4.6,0-8.2-3.7-8.3-8.3c-0.1-4.3,3.9-7.5,7.6-7.4c4.4,0.1,8.3,4.1,8.2,8.5
			C631,245.5,627.6,248.8,623.5,248.8z"/>
		<path d="M241.7,630.4c-4.3,0.4-8.2-4.1-8.2-8.3c0.1-3.6,3.6-7.5,7.5-7.3c4.9,0.3,8.3,3.7,8.2,8.8
			C249.1,627.6,246,630.4,241.7,630.4z"/>
		<path d="M650.3,582.4c4.4,0,7.3,2.6,7.3,6.7c0,4.3-3.2,7.8-7.2,7.9c-3.9,0.1-7.5-3.5-7.4-7.3C643.2,585.1,645.9,582.4,650.3,582.4
			z"/>
		<path d="M643.2,274.1c0-4.4,2.8-7.4,7.1-7.4c3.9,0,7.2,3.3,7.2,7.3c0,3.9-3.3,7.4-7.2,7.4C646.1,281.5,643.2,278.5,643.2,274.1z"
			/>
		<path d="M221.4,589.6c0,4.3-3,7.2-7.4,7.2c-4,0-7.1-3.2-7-7.4c0-4.1,3-7.2,7-7.1C218.2,582.3,221.6,584.6,221.4,589.6z"/>
		<path d="M274.2,221c-3.9,0-7-3.3-7-7.5c0-3.9,3.3-7,7.5-7c4,0,7.2,3.1,7.2,7.1C282,217.9,278.8,221,274.2,221z"/>
		<path d="M221.3,274.1c0,4.5-3,7.4-7.5,7.3c-3.7,0-7.1-3.6-6.9-7.4c0.1-4,3.4-7.4,7.4-7.4C218.3,266.7,221.4,270,221.3,274.1z"/>
		<path d="M267.2,649.8c0-4.1,3.3-7.2,7.5-7.2c4.1,0,7.3,3.2,7.2,7.2c-0.1,4.1-3.5,7.4-7.4,7.4C270.5,657.1,267.1,653.7,267.2,649.8
			z"/>
		<path d="M589.8,642.5c4.1,0,7.4,3.1,7.4,7.1c0.1,4.2-3,7.5-7.2,7.5c-3.9,0.1-7.2-3.3-7.2-7.3C582.7,645.7,585.8,642.6,589.8,642.5
			z"/>
		<path d="M590.1,206.6c4.2,0,7.2,3,7.2,7.2c0,4-3.3,7.2-7.3,7.2c-4.3,0-7.3-3.1-7.3-7.4C582.7,210.2,585.2,206.4,590.1,206.6z"/>
		<path d="M484,172.7c-3.7,0-6.6-2.9-6.5-6.4c0.1-3.7,3-6.9,6.4-6.9c3.5,0,6.6,3,6.7,6.4C490.5,169.6,487.5,172.8,484,172.7z"/>
		<path d="M698.1,477c3.9,0,6.4,2.4,6.3,6.2c-0.1,4-2.9,7-6.5,6.9c-3.7-0.1-6.5-3-6.5-6.7C691.5,479.6,694.2,476.9,698.1,477z"/>
		<path d="M387,165.8c0,4-2.7,7-6.2,7c-3.9,0-6.6-2.7-6.6-6.5c0-3.9,2.7-6.6,6.5-6.6C384.4,159.6,387,162.1,387,165.8z"/>
		<path d="M698.1,386.6c-3.9,0-6.8-2.6-6.8-6.1c0-3.7,3.1-6.9,6.6-7c3.7,0,6.5,2.7,6.5,6.4C704.3,383.8,701.6,386.6,698.1,386.6z"/>
		<path d="M173.1,379.8c0,3.8-2.9,6.8-6.4,6.8c-3.8,0-6.7-2.7-6.7-6.2c0-3.7,2.9-6.8,6.5-6.8C170.3,373.6,173.1,376.2,173.1,379.8z"
			/>
		<path d="M166.9,490.1c-3.9,0-6.8-2.7-6.8-6.3c0-3.8,2.8-6.8,6.4-6.8c3.8,0,6.5,2.6,6.6,6.4C173.1,487.1,170.4,490.1,166.9,490.1z"
			/>
		<path d="M380.8,704.1c-3.8,0-6.7-2.9-6.6-6.6c0.1-3.8,2.8-6.6,6.4-6.6c3.8,0,6.4,2.6,6.5,6.2C387,701,384.3,704.1,380.8,704.1z"/>
		<path d="M484,704c-3.5,0-6.3-2.6-6.3-6.1c-0.1-3.9,2.8-7.2,6.3-7.2c3.5,0,6.5,2.9,6.6,6.2C490.5,700.7,487.5,704,484,704z"/>
		<path d="M308.6,482.5c-3-1.5-5.8-3-8.7-4.2c-5.1-2.2-10.4-4.1-15.5-6.2c-2.4-1-4.8-2-7-3.4c-4.9-2.9-6.2-8.3-3-13
			c1.6-2.4,3.8-4.5,5.9-6.4c3.4-3.1,7.1-6,10.5-9.1c2.9-2.6,5.6-5.4,8.5-8.2c-1.4-1.5-2.6-2.9-4-4.1c-4.7-4.3-9.5-8.6-14.2-13
			c-1.6-1.5-3.2-3-4.7-4.5c-0.8-0.8-1.5-1.6-2.1-2.5c-3.3-4.6-2.3-9.7,2.4-12.7c4.3-2.8,9.1-4.6,13.8-6.5c4.7-1.9,9.3-3.8,14-5.8
			c1.4-0.6,2.6-1.3,4.1-2.1c-0.9-1.8-1.6-3.5-2.4-5.1c-4.3-8.2-8.9-16.3-12.8-24.6c-2.6-5.5-0.5-10.5,5.3-11.7
			c2.6-0.6,5.4-0.8,8.1-0.8c6.1,0,12.3,0.3,18.4,0.2c4.3,0,8.6-0.4,13.1-0.6c0.2-2.5,0.4-4.7,0.5-6.9c0.2-8.5,0.3-17,0.5-25.6
			c0.1-2.6,0.3-5.3,0.7-7.9c0.6-3.6,3.5-5.6,7.1-5.4c2.7,0.2,5.3,1.1,7.8,2.1c5.4,2.2,10.3,5.2,15.4,8.1c2.7,1.5,5.3,3,8,4.5
			c0.5,0.3,1,0.5,1.5,0.7c1.4,0.6,1.8,0.5,2.5-0.8c0.6-1,1.1-2,1.6-3.1c2.1-5.1,4-10.3,6.1-15.4c1.6-3.8,3.2-7.7,5.2-11.3
			c3-5.5,9.2-6.7,14.1-2.7c2.4,2,4.5,4.3,6.6,6.6c2.9,3.2,5.6,6.7,8.6,9.9c1.8,2,3.8,3.9,5.8,5.7c0.6,0.6,1.4,1.1,2.3,1.8
			c2-1.9,3.9-3.8,5.7-5.7c4.5-4.8,9-9.7,13.6-14.5c1.3-1.4,2.7-2.7,4.1-4c3.4-3,9.5-2.7,12.4,0.7c1.4,1.6,2.6,3.6,3.4,5.5
			c2,4.7,3.6,9.5,5.6,14.3c1.5,3.7,3.2,7.4,4.9,11c0.3,0.6,0.7,1.2,1.1,2c1.4-0.5,2.9-0.9,4.2-1.6c4.7-2.4,9.2-5,13.9-7.4
			c3.9-2,7.9-3.9,11.9-5.8c0.9-0.4,1.9-0.7,2.9-0.9c4.4-0.9,8.4,1.8,8.8,6.2c0.4,4.2,0.6,8.4,0.7,12.6c0.2,7.6,0.3,15.3,0.4,22.9
			c0,1.2,0.1,2.4,0.2,3.9c1.5,0.2,2.9,0.4,4.3,0.4c7.6,0.1,15.1,0.1,22.7,0.2c3.7,0.1,7.3,0.3,11,0.6c1.5,0.1,2.9,0.6,4.3,1.3
			c2.3,1,3.5,2.8,3.6,5.5c0.1,2.4-0.4,4.5-1.5,6.6c-4.6,8.5-9,17-13.5,25.5c-1.6,3-1.6,3.4,1.6,4.6c4.9,2,10,3.6,14.9,5.6
			c4,1.6,7.8,3.5,11.7,5.4c1,0.5,2,1.2,2.9,1.9c1.8,1.4,3.4,2.8,3.5,5.4c0.1,3,0,5.9-2.3,8.2c-1.4,1.3-2.7,2.7-4.2,3.9
			c-6.5,5.3-12.7,11-18.3,17.2c-0.4,0.5-0.8,0.9-1.3,1.5c1.1,1.2,2.1,2.5,3.3,3.6c4.9,4.5,9.8,8.9,14.6,13.4c2.1,2,4.2,4.1,6.1,6.3
			c1.7,2,2.6,4.3,2.3,7c-0.3,3.1-1.9,5.6-4.6,7.1c-2.2,1.3-4.6,2.3-7,3.3c-6.6,2.7-13.2,5.2-19.7,7.8c-1.4,0.6-2.7,1.3-4.2,2
			c0.3,1,0.5,1.9,0.9,2.7c1.4,2.8,2.8,5.6,4.2,8.4c2.3,4.4,4.8,8.7,7.2,13.1c1.6,3,2.9,6.2,3.2,9.6c0.1,0.7,0.1,1.5,0,2.2
			c-0.4,3.1-2,5-5.1,5.5c-2.7,0.4-5.4,0.8-8.1,0.9c-9.8,0.3-19.6,0.5-29.4,0.8c-0.8,0-1.6,0.1-2.7,0.1c-0.1,0.8-0.2,1.5-0.2,2.2
			c-0.2,7.5-0.2,15-0.5,22.5c-0.1,4.5-0.4,9-0.7,13.5c-0.1,0.9-0.3,1.8-0.5,2.6c-0.8,2.8-2.6,4.3-5.6,4.5c-2.3,0.1-4.5-0.4-6.6-1.1
			c-5.1-1.6-9.7-4.2-14.4-6.8c-3.6-2-7.1-4.3-10.8-6.2c-4.5-2.4-3.8-1.9-5.7,1.7c-3.9,7.7-7.6,15.4-11.5,23.1
			c-1.2,2.3-2.5,4.5-3.9,6.7c-0.6,1-1.3,1.9-2.1,2.7c-1.2,1.2-2.7,1.3-4.1,0.3c-0.9-0.6-1.7-1.4-2.4-2.2c-7-7.7-14.5-15-22.3-21.9
			c-0.9-0.8-1.7-1.5-2.8-2.5c-1.9,1.8-3.8,3.5-5.5,5.4c-4.1,4.5-8,9.1-12.1,13.6c-2.1,2.3-4.2,4.5-6.9,6c-3,1.8-6.1,2.1-9.1,0.2
			c-1-0.6-2-1.5-2.6-2.5c-1.5-2.4-2.9-4.9-4-7.5c-1.9-4.4-3.5-9-5.4-13.5c-1.3-3.1-2.7-6.1-4-9.2c-0.3-0.6-0.6-1.2-1.1-2
			c-1.8,0.8-3.6,1.3-5.2,2.2c-3.8,2.1-7.6,4.3-11.4,6.4c-3.8,2-7.6,4-11.5,5.8c-1.5,0.7-3.1,1.1-4.7,1.3c-1.4,0.2-2.9,0.1-4.2-0.2
			c-2.1-0.5-3.7-2-4-4.2c-0.5-3.2-1.1-6.5-1.2-9.7c-0.3-8-0.4-15.9-0.6-23.9c-0.1-2.4-0.2-4.8-0.3-7.3c-2.2-0.2-4.3-0.5-6.4-0.5
			c-6.5-0.1-13.1-0.1-19.6-0.3c-4.2-0.1-8.4-0.3-12.6-0.6c-0.8,0-1.6-0.3-2.4-0.6c-3.1-1-4.8-3.6-4.9-6.8c0-2.2,0.6-4.3,1.6-6.3
			c1.5-3,3.2-6,4.8-9c2.7-5,5.4-10.1,8.1-15.1C307.6,485.4,308,484.1,308.6,482.5z M433.8,322.7c-5.9,0.1-11.6,0.6-17.3,1.5
			c-13,2.1-25.2,6.5-36.7,12.6c-22.2,11.8-38.1,29.2-47.6,52.5c-4.5,11.2-7.2,22.8-8.2,34.9c-1,11.3-0.6,22.6,2.1,33.7
			c6.4,26.2,20.3,47.6,42.1,63.5c15.8,11.5,33.5,18.1,52.8,20.1c9.1,1,18.2,0.7,27.3-0.7c10.9-1.6,21.4-4.7,31.4-9.5
			c17.5-8.4,31.8-20.5,42.6-36.6c15.8-23.3,22.2-48.9,18.7-76.9c-2.2-18-8.6-34.6-19.4-49.3C500,338.9,470.4,324,433.8,322.7z
			 M354.8,335.8c2.5-0.8,18.3-11.2,19.6-12.9c-6.2-3.4-12.3-7.2-19.2-9.7C354.1,320.9,354.3,328.3,354.8,335.8z M323.8,373.7
			c2.7-3.3,11.9-17.5,12.4-19.3c-7.5-0.4-14.9-0.6-22.4,0C314.4,358.1,321.2,371.1,323.8,373.7z M396.6,314.2
			c8.2-1.6,15.8-3.2,23.6-4.7c-2.8-4.2-12.8-14.7-15.2-15.8C401.7,300.2,398.9,306.8,396.6,314.2z M467.8,313.9
			c-1.2-5.7-6.8-18.4-8.8-20.2c-3.4,2.5-13.2,13.4-14.2,15.9C452.4,311.1,459.9,312.5,467.8,313.9z M490.3,323
			c6.5,4.4,12.8,8.5,19.5,12.7c0.8-7.7-0.1-15,0.1-22.6C502.6,315.5,496.6,319.1,490.3,323z M310.1,418.9c0.2-0.8,0.3-1.5,0.4-2.1
			c0.7-5.5,1.6-10.9,3.2-16.2c0.4-1.3,0.4-2.6,0.6-4c-2.8,0.3-16.7,5.8-20,7.9C296.3,408.3,305.7,417,310.1,418.9z M541,373
			c3-3,9.3-15.3,9.7-18.6c-7.2-0.4-14.3-0.2-22-0.3C532.6,360.8,536.8,366.8,541,373z M309.4,444.7c-0.5,0.2-0.7,0.3-0.8,0.4
			c-4.5,4.1-9,8.1-13.4,12.2c-0.5,0.4-0.8,1-1.3,1.8c6.6,2.9,13,5.7,20.1,7.8C312.7,459.3,311.2,452.1,309.4,444.7z M313.4,509.4
			c7.5,0,14.6,0,22.2,0c-4.2-6.6-8.1-12.7-12.1-19.1C319.2,496.2,316,502.4,313.4,509.4z M555.3,418.8c5.8-4.2,10.7-8.7,15.1-14
			c-3.2-2.3-16.5-7.8-19.3-7.8C552.4,404.3,554.3,411.2,555.3,418.8z M373,541.1c-5.9-4.5-11.8-8.2-17.7-12
			c-1.3,3.5-1,18.9,0.4,21.4C361.6,547.8,367.4,545.1,373,541.1z M397.7,551c0,0.5-0.1,0.7,0,0.8c1.8,6,4,11.9,6.7,17.5
			c0.2,0.4,0.4,0.7,0.5,1c3.4-2.1,12.5-12.2,13.4-14.8C411.5,553.9,404.7,552.5,397.7,551z M551.4,466.8c6.9-1.9,13-4.7,19.2-7.9
			c-4.6-5.3-9.5-9.7-15-14C554.2,452.3,552.8,459.3,551.4,466.8z M529.8,509.1c2.3,0.4,19.5,0.4,21,0c-0.9-4.4-7-15.6-9.5-17.5
			C537.4,497.3,533.5,503.1,529.8,509.1z M509.5,550.6c0.4-7.2,1-13.9-0.1-21c-6.2,3.7-11.9,7.6-17.8,11.7
			C497.4,545,503.1,548.1,509.5,550.6z M459.5,570.2c3.2-6,5.4-12.2,7.7-18.8c-7.3,1.2-14.1,2.5-20.9,4.2
			C447.8,558.7,456.4,568.3,459.5,570.2z"/>
		<path d="M432.3,281.6c-1.1-0.2-2.2-0.3-3.3-0.5c-3.6-0.8-5.7-3.7-5.6-7.5c0.1-3.4,2.6-6.2,6.1-6.9c2.1-0.4,4.2-0.5,6.3,0.1
			c6.7,2,6.5,9.4,3.2,12.6c-0.8,0.7-1.8,1.2-2.8,1.5C434.8,281.3,433.5,281.4,432.3,281.6z"/>
		<path d="M598,431.7c-0.5,1.7-0.7,3.4-1.4,5c-1.3,2.9-4.5,4.5-7.8,3.9c-3.2-0.5-5.6-3-5.9-6.1c-0.2-1.9-0.2-3.8,0.1-5.7
			c0.6-3.5,3-5.5,6.6-5.9c2.8-0.3,6,1.6,7.2,4.4C597.4,428.6,597.6,430.1,598,431.7z"/>
		<path d="M282,431.7c-0.1,1.1-0.2,2-0.4,2.8c-0.8,3.8-3.5,6.1-7.3,6.1c-3.8,0-6.6-2.5-7.3-6.3c-0.4-2.3-0.3-4.6,0.6-6.8
			c1.2-3.1,3.9-4.8,7.2-4.6c3.1,0.2,5.8,2.3,6.6,5.4C281.7,429.5,281.8,430.7,282,431.7z"/>
		<path d="M432.2,582.4c0.6,0,1.2,0,1.8,0c3.7,0.1,6.4,2.4,7,5.9c0.6,3.7-1.2,6.9-4.5,8.2c-2.9,1.1-5.9,1-8.8-0.2
			c-2.5-1-4-3.1-4.3-5.8c-0.3-2.8,0.6-5.1,3-7C428.2,582.1,430.2,582.5,432.2,582.4z"/>
		<path d="M535.5,319.1c0-1.9,1.3-4.3,4-5.8c2.7-1.5,5.3-0.9,7.7,0.8c3.3,2.2,4.9,5.9,3.9,9.1c-1.2,4.2-5.4,6.4-9.5,5
			C537.8,327,535.4,323.9,535.5,319.1z"/>
		<path d="M329.1,320.4c0,4.5-3.8,8.1-8.5,8.1c-4.2,0-7.4-3.2-7.4-7.3c0-4.5,4.1-8.4,8.6-8.4C325.9,312.8,329.1,316.1,329.1,320.4z"
			/>
		<path d="M321.7,550.7c-5.5,0-9.6-5.6-8.1-10.5c1.4-4.5,6.7-6.7,10.9-4.3c3.1,1.7,4.7,4.5,4.6,8c0,3.6-2.5,6.3-6.1,6.7
			C322.4,550.7,321.9,550.7,321.7,550.7z"/>
		<path d="M542.7,550.7c-4.3,0-7.3-3.1-7.2-7.6c0-4.3,4.1-8.2,8.6-8.1c4.2,0.1,7.3,3.4,7.3,7.5C551.2,547.1,547.4,550.8,542.7,550.7
			z"/>
		<path d="M490.2,587.8c-3.2,0.4-7.2-3.3-7.1-7.2c0.2-4.1,3.3-7.5,7.3-7.5c3.8,0,7.4,3.5,7.4,7.3
			C497.8,584.6,494.5,587.8,490.2,587.8z"/>
		<path d="M381.4,283.1c0.4,3.5-3.2,7.2-7.4,7.2c-3.7,0-7.2-3.9-7.2-7.1c0-4.3,3.8-7.6,7.2-7.5C378.9,276,381.4,278.3,381.4,283.1z"
			/>
		<path d="M581.1,482.7c4.2-0.4,7.4,4,7.2,7.2c-0.2,4-3.5,7.4-7.5,7.4c-3.6,0-7.3-3.6-7.2-7.2C573.8,486.1,576.5,482.4,581.1,482.7z
			"/>
		<path d="M283.3,380.9c-4.7,0.2-7.1-3.8-7.1-7.5c0.1-3.9,3.2-6.9,7.3-7c4-0.1,7.5,3.9,7.4,7C290.8,377.8,287.8,380.9,283.3,380.9z"
			/>
		<path d="M381.4,580.6c0.3,4.9-4.1,7.4-7.5,7.4c-3.9-0.1-7.1-3.5-7.1-7.7c0-2.8,2.9-7,7.1-7.1C378.2,573.2,381.7,576.7,381.4,580.6
			z"/>
		<path d="M490.2,290.2c-3.6,0.3-7.3-3.4-7.1-7.6c0.2-4,3.4-6.8,7.6-6.9c3.8-0.1,7.2,3.9,7.1,7.4
			C497.7,287.2,494.1,290.6,490.2,290.2z"/>
		<path d="M283.5,482.7c4.4-0.3,7.4,4,7.3,7.2c-0.1,4-3.3,7.4-7.2,7.5c-4,0.1-7.2-3.4-7.4-7.6C276.1,485.8,279.8,482.4,283.5,482.7z
			"/>
		<path d="M573.8,373.6c0.1-4.5,3.1-7.3,7.6-7.1c3.8,0.1,7,3.4,6.9,7.2c-0.1,4.5-3.1,7.2-7.7,7.3C577.2,381,573.3,377.4,573.8,373.6
			z"/>
		<path d="M229.2,433.2c-0.5,3.4-1.1,7.4-1.7,11.4c-0.1,0.8-0.4,1.6-0.7,2.4c-1.1,3-1.9,4.6-6.7,4.7c-2.7,0-4.5-1.1-5.7-3.5
			c-1.3-2.5-1.9-5.1-2.2-7.8c-1-7.2-0.8-14.3,1.1-21.3c0.4-1.5,1-3,1.7-4.3c0.9-1.8,2.5-2.8,4.6-2.8c0.5,0,1,0,1.4,0
			c2.6-0.1,4.4,1.2,5.5,3.5c1.3,2.6,1.8,5.4,2.1,8.3C228.9,426.6,229,429.5,229.2,433.2z"/>
		<path d="M273.7,565.1c1.5-0.1,2.7,0.5,3.8,1.4c5.5,4.1,10.4,9,15,14.1c1.9,2.1,3.7,4.2,5.4,6.4c1.5,2,1.5,4.1,0.4,6.3
			c-1.3,2.3-3.5,3.6-5.8,4.6c-0.6,0.2-1.6-0.1-2.3-0.4c-3.7-1.8-7.1-4-10.2-6.7c-4.9-4.1-9.2-8.7-12.1-14.4c0-0.1-0.1-0.1-0.1-0.2
			c-0.7-1.6-2-3.3-1.3-5c0.9-2.3,2.5-4.3,4.7-5.5C271.8,565.3,272.8,565.3,273.7,565.1z"/>
		<path d="M298.9,273.3c-0.1,1.5-0.5,2.8-1.4,4.1c-4.5,5.9-9.4,11.5-15.2,16.2c-2.5,2-5.1,3.6-8.2,4.5c-1.6,0.4-3.1,0.3-4.3-1
			c-0.6-0.6-1.3-1.2-1.9-1.8c-2-2.4-2.3-3.9-0.8-6.6c4.8-8.7,11.4-15.7,19.7-21.1c0.1,0,0.1-0.1,0.2-0.1c1.7-0.9,3.3-2.3,5.3-1.7
			c2.5,0.7,4.5,2.4,5.8,4.6C298.6,271.1,298.7,272.3,298.9,273.3z"/>
		<path d="M565.8,590.7c-0.1-2.2,0.6-4,2-5.6c5.9-6.7,12.3-12.9,19.1-18.6c2.1-1.8,6.2-1.7,8.1,0.3c1.3,1.3,2.2,3.1,3.3,4.6
			c0.5,0.7,0.2,1.5-0.1,2.1c-1.6,2.6-2.9,5.4-4.7,7.8c-4.8,6.5-10.6,11.8-17.8,15.6c-2.2,1.2-4,1.2-5.9-0.4
			c-0.8-0.6-1.6-1.2-2.4-1.9C566.2,593.6,565.5,592.3,565.8,590.7z"/>
		<path d="M432.5,634.5c4.6,0.2,9.1,0.5,13.5,2c1.4,0.5,2.8,1.2,4,2c1.4,0.9,2.2,2.2,2.1,4c0,0.7,0,1.4,0,2c0,2.1-1,3.7-2.8,4.6
			c-1.6,0.8-3.2,1.6-4.9,2c-8.4,1.9-16.8,1.9-25.1-0.3c-1.4-0.4-2.7-1-4-1.6c-3.6-1.6-4.4-8.8-0.1-11.1c2.8-1.5,5.7-2.3,8.7-2.8
			C426.7,634.9,429.6,634.8,432.5,634.5z"/>
		<path d="M432.1,211.1c4.8,0,9.2,0.3,13.4,1.7c1.3,0.4,2.7,1,3.9,1.7c1.9,1.1,2.8,2.8,2.8,5.1c-0.1,3.8-1.5,5.9-5.1,7.2
			c-3.1,1.1-6.4,1.5-9.6,1.7c-6.1,0.4-12.1,0-18-1.5c-1.4-0.3-2.7-1-4-1.5c-3.9-1.4-4.3-8.9-0.7-10.8c1.8-1,3.7-1.8,5.6-2.4
			C424.2,211.3,428.3,211,432.1,211.1z"/>
		<path d="M565.8,272.9c-0.3-1.4,0.3-2.5,1.2-3.5c3.4-3.9,5.4-4.4,10.1-2.1c4.2,2,7.8,4.9,11,8.3c4,4.1,7.3,8.6,9.7,13.8
			c0.7,1.4,0.8,2.7-0.2,4c-1,1.3-1.9,2.6-3,3.8c-1.2,1.4-2.8,1.6-4.5,0.9c-1.4-0.6-2.9-1.3-4.1-2.2c-7.2-4.9-13.2-11.1-18.6-17.9
			C566.1,276.5,565.7,274.8,565.8,272.9z"/>
		<path d="M652.9,432.6c0.1,4-0.1,8-1.3,11.9c-0.4,1.2-0.8,2.4-1.4,3.6c-1.4,2.9-3.9,3.6-6.8,3.6c-2.8,0-4.6-1.4-5.5-3.8
			c-0.9-2.5-1.7-5-2.1-7.6c-1-6.6-0.8-13.2,0.7-19.7c0.4-1.9,1.2-3.8,2-5.6c0.9-2.1,2.6-3.1,5-3.1c4,0,5.5,0.9,7,4.6
			c1.5,3.8,2.1,7.7,2.3,11.8C652.9,429.7,652.9,431.2,652.9,432.6z"/>
		<path d="M503.2,484.9c-0.2,2.2,0.4,4.2,0.9,6.3c0.4,1.3,0.8,2.6,1.2,3.9c1.9,6.6-4.8,11.3-9.3,9.9c-2.5-0.8-5-1.4-7.5-2
			c-0.9-0.2-1.9-0.2-3-0.4c-0.6,1.3-1.3,2.4-1.9,3.7c-1.5,3-3,5.9-5.2,8.5c-4.8,5.9-11.1,8.3-18.6,7.8c-4-0.3-7.8-1.2-11.5-2.6
			c-0.6-0.2-1.3-0.4-2.1-0.7c-0.5,0.7-0.9,1.5-1.4,2.2c-1.2,2.1-2.3,4.2-3.5,6.2c-1.5,2.6-3.7,4.1-6.8,4c-1.6,0-3.3,0-4.9,0
			c-3.1-0.1-5.4-1.6-6.9-4.4c-0.8-1.6-1.7-3.3-2.5-4.9c-0.5-1-1.1-1.9-1.7-2.9c-0.6,0.1-1.1,0.2-1.6,0.3c-4.8,1.2-9.6,2.4-14.6,2.7
			c-6.4,0.4-11.5-1.9-15.1-7.2c-2.3-3.2-4.3-6.6-6.5-9.9c-0.6-0.9-1.1-1.7-1.6-2.6c-2.3-0.2-4.5,0.5-6.6,1c-1.4,0.4-2.7,0.9-4.1,1.2
			c-4.7,1.1-9.3-2.3-9.2-7.2c0-2.1,0.6-4.2,1-6.2c0.3-1.5,0.9-3,1.3-4.5c0.4-1.8,0.1-2.5-1.4-3.4c-1.6-1-3.4-1.7-5.1-2.7
			c-1.9-1.1-3.8-2.1-5.6-3.4c-6.4-4.7-8.8-11.1-8-18.8c0.4-3.8,1.4-7.5,2.7-11.1c0.2-0.6,0.4-1.1,0.7-1.9c-1.2-0.7-2.4-1.5-3.6-2.2
			c-1.7-0.9-3.4-1.8-5-2.8c-2.3-1.4-3.8-3.3-3.8-6.1c0-2.1,0-4.2,0-6.3c0-2.4,1.3-4.1,3.2-5.3c2-1.2,4.1-2.2,6.1-3.4
			c1.1-0.6,2.1-1.2,3.2-1.9c-0.7-1.6-1.3-3-1.8-4.5c-1.5-4-2.4-8.1-2.1-12.4c0.4-4.8,2.3-8.9,5.7-12.4c2.8-2.9,6.1-5,9.5-7
			c1.8-1,3.5-2.1,5.3-3.1c-0.3-3.1-1.2-5.8-1.9-8.7c-0.4-1.5-0.8-3.1-0.6-4.6c0.6-4.6,4.5-7.4,9.1-6.6c2.2,0.4,4.3,1.1,6.5,1.7
			c1,0.3,2,0.6,3,0.8c0.9,0.2,1.6-0.1,2.1-0.9c0.6-1.1,1-2.2,1.6-3.3c1.1-2.1,2.1-4.3,3.4-6.3c4.8-7.4,11.7-10.3,20.3-9.5
			c3.9,0.3,7.6,1.3,11.3,2.6c0.6,0.2,1.3,0.4,2.1,0.6c0.9-1.5,1.8-2.9,2.6-4.4c0.7-1.3,1.4-2.7,2.2-3.9c1.4-2.3,3.3-3.8,6.1-4
			c2.2-0.1,4.4-0.1,6.5,0c2.4,0.1,4.2,1.5,5.5,3.5c1,1.6,1.8,3.2,2.7,4.8c0.8,1.3,1.6,2.7,2.4,4c1.8-0.6,3.4-1.2,5-1.7
			c4.3-1.3,8.6-2,13.1-1.6c6.3,0.7,11.3,3.6,14.9,8.7c1.9,2.7,3.3,5.6,4.8,8.5c1.6,3.1,1.5,3.1,5,2.2c2.6-0.7,5.1-1.4,7.7-1.9
			c5.6-1.1,9.9,3.9,8.7,9.2c-0.6,2.6-1.3,5.1-2,7.7c-0.1,0.4-0.2,0.8-0.2,1.2c-0.3,1.1,0.1,1.8,1.1,2.5c3.7,2.5,7.4,5.1,11,7.8
			c1.3,1,2.5,2.1,3.6,3.3c4,3.9,5.5,8.7,4.4,14.2c-0.7,3.7-1.9,7.2-2.8,10.9c-0.2,0.8-0.5,1.5-0.8,2.5c2.7,1.5,5.2,3.1,7.9,4.4
			c2.1,1,3.2,2.7,4.3,4.4c0.2,0.4,0.2,0.9,0.2,1.4c0,2.1-0.1,4.2,0,6.3c0.1,2.2-0.8,3.9-2.5,5.1c-1.3,1-2.7,1.8-4.1,2.7
			c-1.9,1.1-3.8,2.2-5.8,3.3c0.2,0.8,0.5,1.5,0.7,2.2c1,3.5,2.1,7,2.8,10.6c1.2,5.9-0.4,11.1-4.4,15.5c-3,3.3-6.6,5.8-10.5,8.1
			C506.7,483,505,484,503.2,484.9z M486.5,485.8c-0.6-2.8-1-5.1-1.5-7.3c-1.5-5.9-3-11.7-4.4-17.6c-0.5-2.3-0.8-4.7-1-7.1
			c-0.4-3.3,0.9-5.8,3.9-7.4c0.5-0.3,0.9-0.6,1.4-0.8c4.1-2.1,8.1-4.2,12.2-6.2c4-2,8-4.1,12-6.1c0.6-0.3,1.2-0.8,2-1.3
			c-1.4-0.9-2.5-1.7-3.6-2.3c-3.3-1.7-6.7-3.3-10-5.1c-4.8-2.5-9.5-5-14.2-7.6c-3-1.6-4.2-4.3-3.7-7.5c0.5-3.3,1.1-6.6,1.9-9.8
			c1.4-5.8,3-11.5,4.4-17.2c0.4-1.4,0.4-2.9,0.7-4.7c-2.5,0.4-4.7,0.5-6.8,1c-5.6,1.4-11.2,3-16.8,4.4c-2.6,0.7-5.3,1.2-8,1.6
			c-3.4,0.5-6.1-0.7-7.8-3.9c-1.3-2.5-2.7-4.9-4-7.3c-2.9-5.6-5.7-11.2-8.5-16.7c-0.6-1.1-1.4-2.2-2.3-3.6c-1.2,1.9-2.2,3.5-3.1,5.2
			c-2.6,5.2-5.1,10.5-7.8,15.8c-1.4,2.8-3.1,5.4-4.8,8.1c-1.2,1.9-3,2.6-5.2,2.6c-3.4-0.1-6.8-0.7-10.1-1.6
			c-6.5-1.6-12.9-3.3-19.4-4.9c-1.1-0.3-2.2-0.4-3.5-0.6c0.1,1.2,0.1,2.1,0.3,2.9c1.3,5.3,2.7,10.7,4.1,16c1.1,4.1,2.1,8.2,2.4,12.4
			c0.2,3.9-1,6.9-4.6,8.8c-0.4,0.2-0.8,0.5-1.2,0.7c-3.7,1.8-7.3,3.6-11,5.4c-4.1,2.1-8.1,4.1-12.2,6.2c-0.8,0.4-1.5,1-2.4,1.7
			c1.6,1,2.9,1.9,4.3,2.6c6.3,3.3,12.7,6.5,19.1,9.8c1.8,0.9,3.4,1.9,5.1,2.9c1.7,1,2.8,2.7,3.1,4.6c0.3,1.5,0.4,3.1,0.2,4.7
			c-0.4,2.5-0.9,5.1-1.8,7.5c-1.7,5-3.6,9.8-5.4,14.8c-0.5,1.3-0.8,2.8-0.9,4.2c-0.3,2.7,0.8,3.8,3.5,3.3c2.2-0.4,4.4-1,6.5-1.6
			c5.5-1.6,10.9-3.3,16.4-4.8c2.7-0.7,5.5-1.1,8.3-0.8c1.9,0.2,3.4,1,4.4,2.6c0.6,0.8,1.2,1.7,1.7,2.6c1.7,3.2,3.4,6.4,5,9.6
			c2.5,4.8,5,9.7,7.5,14.5c0.4,0.7,0.9,1.4,1.5,2.3c1-1.6,1.8-2.8,2.5-4.2c2.9-5.8,5.8-11.6,8.7-17.3c1.1-2.2,2.4-4.3,3.6-6.4
			c1.5-2.7,3.7-3.9,6.8-3.5c2.6,0.3,5.3,0.5,7.9,1.1c6,1.4,11.9,3,17.8,4.4C481.7,485.1,483.9,485.4,486.5,485.8z M469.6,364.9
			c-1.1-3.6-2.7-6.5-6.1-8.1c-2.8-1.3-5.6-1.2-8.2,0.5c-1.3,0.8-1.8,1.9-1.3,3.1c1.1,2.6,2.4,5.1,3.6,7.7
			C461.8,367.3,465.8,366.9,469.6,364.9z M496.1,406.4c2.5,1.2,4.8,2.3,7.2,3.5c0.9,0.4,1.7,0.5,2.4-0.3c1.6-1.9,2.7-4.1,2.2-6.6
			c-0.8-4-3.4-6.7-7.2-8.3c-1.2-0.5-1.8-0.3-2.3,0.9C497.1,399.1,496.5,402.7,496.1,406.4z M395,498.6c0.8,3.6,2.6,6.2,5.7,7.9
			c3.1,1.7,6,1.2,8.8-0.7c1.2-0.8,1.4-1.3,0.9-2.6c-1-2.3-2.1-4.5-3.3-6.8c-0.3-0.7-1-0.9-1.7-0.8
			C401.9,496.1,398.5,497.2,395,498.6z M368.3,457.1c-2.4-1.2-4.7-2.4-7-3.4c-1.4-0.6-2.1-0.4-3,0.8c-1.8,2.6-2.6,7.2,0.3,10.6
			c1.7,2,4,3.2,6.7,4C367.6,465.4,367.9,461.3,368.3,457.1z M368.4,406.3c-0.3-3.6-1-6.8-2.1-9.9c-0.8-2.2-1.6-2.5-3.7-1.3
			c-2.3,1.3-3.8,3.2-5.1,5.4c-1.5,2.6-1.3,5.2,0.2,7.7c1.1,1.9,2,2.3,4,1.4C364,408.7,366.1,407.4,368.4,406.3z M499,468.8
			c4.8-0.5,7.8-4.2,8.7-7.3c0.8-2.8,0-5.1-1.7-7.2c-0.6-0.8-1.4-1.2-2.5-0.7c-2.1,1.1-4.3,2.1-6.4,3.1c-0.9,0.5-1.2,1.2-1,2.2
			c0.3,1.5,0.5,3.1,1,4.6C497.6,465.3,498.4,467.1,499,468.8z M469.6,498.8c-3.5-1.7-6.9-2.6-10.5-3c-0.7-0.1-1.2,0-1.6,0.7
			c-1.1,2-2.3,4-3.3,6.1c-0.8,1.6-0.4,2.4,1.1,3.5c2.7,2,6.2,2.1,9.1,0.1C467.1,504.4,468.6,501.9,469.6,498.8z M395.3,365.1
			c3.3,1.4,6.8,2.3,10.3,2.8c0.9,0.1,1.4-0.4,1.8-1.1c1.5-2.3,2.5-4.8,3.3-7.4c-1.8-2.2-4-3.6-6.9-3.3
			C399.7,356.4,395.7,360.7,395.3,365.1z"/>
		<path d="M432.6,407.4c3.3,0,6.5,0.5,9.7,1.5c8.4,2.9,13.7,8.8,15.3,17.6c1.8,9.7-0.8,18.4-7.9,25.4c-4.9,4.9-11.1,6.7-18,6.1
			c-4.3-0.4-8.3-1.5-12-3.7c-7.5-4.5-11.3-11.2-11.8-19.8c-0.3-4.6,0.5-9,2.6-13.1C414.9,412.2,422.4,407.6,432.6,407.4z
			 M432.9,442.2c5.3,0.1,9.4-4.2,9.5-9.9c0.1-5.1-3.9-9.2-9.2-9.2c-5.4,0-10,4.1-10,9.2C423.2,437.5,427.7,442.1,432.9,442.2z"/>
		<path d="M438.5,396.5c0-4.4,3.1-7.2,7.5-7.3c3.8-0.1,7.1,3.5,7.1,7.4c0,3.6-3.7,7.2-7.4,7.2C441.6,403.7,438.1,399.8,438.5,396.5z
			"/>
		<path d="M438.5,467.2c-0.5-4.2,4-7.5,7.1-7.4c3.9,0,7.5,3.4,7.5,7.5c0,3.7-3.7,7.3-7.4,7.2C441.5,474.3,438.6,471.5,438.5,467.2z"
			/>
		<path d="M396.9,411c4.1,0,7.1,3.1,7.3,7.2c0.2,4-3.8,7.6-7.5,7.4c-4.1-0.2-7.1-3.4-7.2-7.6C389.4,414.9,392.7,410.6,396.9,411z"/>
		<path d="M467.8,411c4-0.4,7.2,3.9,7.2,7.3c0.1,3.8-3.9,7.5-7.5,7.3c-4-0.2-7.1-3.4-7.2-7.6C460.2,414.8,463.6,410.5,467.8,411z"/>
		<path d="M396.8,438.1c3.8-0.4,7.5,3.3,7.4,7.2c0,5.1-4.2,7.3-7.6,7.3c-3.9,0-7.1-3.3-7.1-7.4C389.6,440.7,393.2,437.8,396.8,438.1
			z"/>
		<path d="M411.5,396.3c-0.4-3.5,3.4-7.2,7.2-7.2c4.9,0,7.5,4.3,7.4,7.4c0,3-2.9,7.2-7.2,7.3C414.4,403.7,411.1,399.8,411.5,396.3z"
			/>
		<path d="M467.6,452.5c-3.7,0.4-7.4-3.4-7.3-7.2c0.2-4.2,3.1-7.3,7.1-7.3c4.4-0.1,7.5,3.8,7.5,7.3
			C475.1,448.8,471.6,453,467.6,452.5z"/>
		<path d="M418.7,459.9c4.6-0.2,7.4,3.9,7.4,7.3c0,3.5-3,7.3-7.1,7.2c-4.4-0.1-7.2-3-7.5-7.2C411.2,463.5,414.8,459.7,418.7,459.9z"
			/>
	</g>
</g>
</svg>
