<?xml version="1.0" encoding="UTF-8" standalone="no"?>
<svg
   xmlns:dc="http://purl.org/dc/elements/1.1/"
   xmlns:cc="http://creativecommons.org/ns#"
   xmlns:rdf="http://www.w3.org/1999/02/22-rdf-syntax-ns#"
   xmlns:svg="http://www.w3.org/2000/svg"
   xmlns="http://www.w3.org/2000/svg"
   id="svg8"
   version="1.1"
   viewBox="0 0 210 297"
   height="297mm"
   width="210mm">
  <defs
     id="defs2" />
  <metadata
     id="metadata5">
    <rdf:RDF>
      <cc:Work
         rdf:about="">
        <dc:format>image/svg+xml</dc:format>
        <dc:type
           rdf:resource="http://purl.org/dc/dcmitype/StillImage" />
        <dc:title></dc:title>
      </cc:Work>
    </rdf:RDF>
  </metadata>
  <g
     id="layer1">
    <path
       id="path3273"
       d="m 103.05959,245.10329 c -0.83316,-0.0837 -2.47943,-0.44266 -3.726752,-0.81265 -0.865111,-0.25663 -2.724482,-1.03522 -3.834776,-1.60578 -2.473076,-1.27088 -4.044228,-2.3792 -5.668642,-3.99881 -1.194688,-1.19114 -1.957201,-2.23652 -2.375548,-3.25679 l -0.250226,-0.61026 -0.767787,-0.18128 c -2.812191,-0.664 -5.843635,-2.19483 -7.715034,-3.89597 l -0.68198,-0.61994 -0.506261,0.22212 c -0.278441,0.12217 -0.773609,0.31925 -1.100378,0.43798 -2.201428,0.79983 -3.219939,1.16739 -5.131038,1.85171 -1.188237,0.42549 -2.415636,0.86762 -2.727548,0.98253 -0.311915,0.11491 -0.82232,0.30286 -1.134231,0.41766 -2.167832,0.79794 -4.03251,1.44865 -4.375928,1.52708 -0.71708,0.16373 -1.205462,0.0115 -1.767893,-0.55087 -0.548247,-0.54825 -0.683128,-0.88111 -0.852259,-2.10314 -0.05755,-0.41588 -0.154024,-1.07211 -0.214379,-1.45829 -0.06035,-0.38618 -0.157568,-1.04241 -0.216041,-1.4583 -0.05847,-0.41588 -0.155694,-1.07211 -0.216045,-1.45829 -0.06035,-0.38618 -0.157507,-1.04241 -0.215902,-1.4583 -0.05839,-0.41588 -0.203915,-1.41238 -0.323384,-2.21444 -0.119464,-0.80207 -0.318292,-2.16314 -0.441839,-3.02461 -0.123543,-0.86148 -0.260939,-1.60414 -0.305322,-1.65037 -0.07388,-0.0769 -1.299822,-0.0263 -5.951015,0.24604 -0.920889,0.0539 -2.549317,0.14878 -3.618735,0.21081 -1.883479,0.10924 -3.376998,0.197 -7.453507,0.43801 -1.069414,0.0632 -2.722151,0.1598 -3.672741,0.21462 -0.950591,0.0548 -2.297609,0.13336 -2.993359,0.17454 -1.4789,0.0875 -1.96747,-0.0396 -2.60577,-0.67787 -0.63831,-0.6383 -0.7654,-1.12686 -0.67787,-2.60576 0.0412,-0.69576 0.11973,-2.04277 0.17454,-2.99337 0.0548,-0.95059 0.1514,-2.60332 0.21462,-3.67274 0.24101,-4.07651 0.32877,-5.57002 0.43802,-7.45351 0.062,-1.06941 0.15688,-2.69784 0.2108,-3.61873 0.27231,-4.65119 0.32299,-5.87713 0.24605,-5.95102 -0.0462,-0.0444 -0.7889,-0.18178 -1.65037,-0.30532 -0.86148,-0.12355 -2.22256,-0.32237 -3.02462,-0.44183 -0.80206,-0.11947 -1.79856,-0.26499 -2.21445,-0.32339 -0.41588,-0.0584 -1.07211,-0.15555 -1.45829,-0.2159 -0.38618,-0.0603 -1.04241,-0.15757 -1.4583,-0.21605 -0.41588,-0.0585 -1.07211,-0.15569 -1.45829,-0.21604 -0.38618,-0.0603 -1.04241,-0.15682 -1.45829,-0.21438 -1.22203,-0.16913 -1.55489,-0.304 -2.10314,-0.85226 -0.56242,-0.56243 -0.7146,-1.0508 -0.55086,-1.76788 0.0794,-0.34757 0.86362,-2.59136 1.52005,-4.34893 0.11095,-0.29706 0.64697,-1.77966 1.19116,-3.29466 0.87626,-2.43947 1.25666,-3.49271 2.06776,-5.72516 0.11872,-0.32677 0.31582,-0.82194 0.43798,-1.10038 l 0.22212,-0.50626 -0.61993,-0.68198 c -1.70114,-1.8714 -3.23197,-4.90284 -3.89597,-7.71503 l -0.18129,-0.76779 -0.61026,-0.25 c -2.00102,-0.81974 -4.45377,-3.26276 -6.26106,-6.23623 -1.18379,-1.94765 -2.3217301,-4.54828 -2.8236601,-6.45312 -0.5257,-1.99506 -0.58479,-2.43714 -0.58479,-4.37489 0,-1.93775 0.0591,-2.37983 0.58479,-4.37488 0.50193,-1.90484 1.6398701,-4.50548 2.8236601,-6.45313 1.80729,-2.97347 4.26004,-5.41649 6.26106,-6.23623 l 0.61026,-0.25 0.18129,-0.76778 c 0.664,-2.81219 2.19483,-5.84364 3.89597,-7.71504 l 0.61993,-0.68198 -0.22212,-0.50626 c -0.12216,-0.27844 -0.31926,-0.77361 -0.43798,-1.10038 -0.8111,-2.23245 -1.1915,-3.28569 -2.06776,-5.72516 -0.54419,-1.515 -1.08021,-2.9976 -1.19116,-3.29466 -0.65643,-1.75757 -1.44068,-4.00136 -1.52005,-4.34893 -0.16374,-0.71708 -0.0115,-1.20545 0.55086,-1.76789 0.54825,-0.54824 0.88111,-0.68313 2.10314,-0.85225 0.41588,-0.0576 1.07211,-0.15403 1.45829,-0.21438 0.38618,-0.0603 1.04241,-0.15758 1.45829,-0.21605 0.41589,-0.0585 1.07212,-0.15569 1.4583,-0.21604 0.38618,-0.0603 1.04241,-0.15751 1.45829,-0.2159 0.41589,-0.0584 1.41239,-0.20392 2.21445,-0.32339 0.80206,-0.11946 2.16314,-0.31829 3.02462,-0.44183 0.86147,-0.12355 1.60414,-0.26094 1.65037,-0.30533 0.0769,-0.0739 0.0263,-1.29982 -0.24605,-5.951014 -0.0539,-0.920885 -0.14877,-2.549315 -0.2108,-3.618731 -0.10925,-1.883481 -0.19701,-3.377 -0.43802,-7.453507 -0.0632,-1.069416 -0.1598,-2.722151 -0.21462,-3.672743 -0.0548,-0.950592 -0.13335,-2.297604 -0.17454,-2.99336 -0.0875,-1.478903 0.0396,-1.967467 0.67787,-2.605771 0.6383,-0.638305 1.12687,-0.7654 2.60577,-0.677865 0.69575,0.04118 2.042768,0.119724 2.993359,0.174541 0.95059,0.05481 2.603327,0.151395 3.672741,0.214618 4.076509,0.241003 5.570028,0.328771 7.453507,0.438016 1.069418,0.06203 2.697846,0.156888 3.618735,0.210802 4.651193,0.272306 5.877138,0.322993 5.951015,0.246046 0.04438,-0.04623 0.181779,-0.788896 0.305322,-1.65037 0.123547,-0.861474 0.322375,-2.222548 0.441839,-3.024611 0.119469,-0.802062 0.264989,-1.798563 0.323384,-2.214447 0.0584,-0.415885 0.155551,-1.072117 0.215902,-1.458295 0.06035,-0.386178 0.157573,-1.042411 0.216045,-1.458295 0.05847,-0.415884 0.15569,-1.072117 0.216041,-1.458295 0.06035,-0.386178 0.156825,-1.04241 0.214379,-1.458294 0.169131,-1.222032 0.304012,-1.554886 0.852259,-2.103134 0.562431,-0.56243 1.050813,-0.714606 1.767893,-0.550864 0.343418,0.07842 2.208096,0.729137 4.375928,1.527069 0.311911,0.114808 0.822316,0.302757 1.134231,0.417663 0.311912,0.114906 1.539311,0.557041 2.727548,0.982524 1.911099,0.68432 2.92961,1.051885 5.131038,1.851716 0.326769,0.118721 0.821937,0.315812 1.100378,0.437979 l 0.506261,0.222121 0.68198,-0.619935 c 1.871399,-1.701138 4.902843,-3.231971 7.715034,-3.895973 l 0.767787,-0.181286 0.250226,-0.610257 c 0.804046,-1.960906 3.219494,-4.412152 6.07608,-6.166131 1.192712,-0.732337 3.032253,-1.65152 4.290579,-2.143911 1.329948,-0.52042 2.06625,-0.735367 4.212849,-1.229845 0.78953,-0.181873 4.17948,-0.181873 4.96901,0 2.1466,0.494478 2.88291,0.709425 4.21285,1.229845 3.12074,1.221168 5.92833,2.99657 7.99111,5.05325 1.19469,1.191146 1.9572,2.236526 2.37555,3.256792 l 0.25022,0.610257 0.76779,0.181286 c 2.8122,0.664002 5.84364,2.194835 7.71504,3.895973 l 0.68197,0.619935 0.50627,-0.222121 c 0.27844,-0.122167 0.77361,-0.319258 1.10037,-0.437979 2.20144,-0.799831 3.21994,-1.167396 5.13104,-1.851716 1.18824,-0.425483 2.41564,-0.867618 2.72755,-0.982524 0.31191,-0.114906 0.82232,-0.302855 1.13423,-0.417663 2.16783,-0.797932 4.03251,-1.448649 4.37594,-1.527069 0.71708,-0.163742 1.20545,-0.01157 1.76788,0.550864 0.54825,0.548248 0.68313,0.881102 0.85226,2.103134 0.0576,0.415884 0.15403,1.072116 0.21438,1.458294 0.0603,0.386178 0.15757,1.042411 0.21604,1.458295 0.0585,0.415884 0.15569,1.072117 0.21605,1.458295 0.0603,0.386178 0.1575,1.04241 0.2159,1.458295 0.0584,0.415884 0.20391,1.412385 0.32338,2.214447 0.11947,0.802063 0.31829,2.163137 0.44184,3.024611 0.12354,0.861474 0.26094,1.604141 0.30532,1.65037 0.0739,0.07695 1.29983,0.02626 5.95102,-0.246046 0.92089,-0.05391 2.54932,-0.148774 3.61873,-0.210802 1.88348,-0.109245 3.377,-0.197013 7.45351,-0.438016 1.06941,-0.06322 2.72215,-0.159802 3.67274,-0.214618 0.9506,-0.05482 2.29761,-0.133359 2.99336,-0.174541 1.47891,-0.08754 1.96747,0.03956 2.60577,0.677865 0.63831,0.638304 0.7654,1.126868 0.67787,2.605771 -0.0412,0.695756 -0.11973,2.042768 -0.17454,2.99336 -0.0548,0.950592 -0.1514,2.603327 -0.21462,3.672743 -0.24101,4.076507 -0.32877,5.570026 -0.43802,7.453507 -0.062,1.069416 -0.15689,2.697846 -0.2108,3.618731 -0.2723,4.651194 -0.32299,5.877134 -0.24604,5.951014 0.0462,0.0444 0.78889,0.18178 1.65037,0.30533 0.86147,0.12354 2.22254,0.32237 3.02461,0.44183 0.80206,0.11947 1.79856,0.26499 2.21444,0.32339 0.41589,0.0584 1.07212,0.15555 1.4583,0.2159 0.38618,0.0603 1.04241,0.15757 1.45829,0.21604 0.41589,0.0585 1.07212,0.15569 1.4583,0.21605 0.38618,0.0603 1.04241,0.15682 1.45829,0.21438 1.22203,0.16912 1.55489,0.30401 2.10313,0.85225 0.56244,0.56244 0.71461,1.05081 0.55087,1.76789 -0.0794,0.34757 -0.86362,2.59136 -1.52005,4.34893 -0.11095,0.29706 -0.64697,1.77966 -1.19117,3.29466 -0.87625,2.43947 -1.25665,3.49271 -2.06775,5.72516 -0.11873,0.32677 -0.31581,0.82194 -0.43798,1.10038 l -0.22212,0.50626 0.61994,0.68198 c 1.70114,1.8714 3.23197,4.90285 3.89597,7.71504 l 0.18128,0.76778 0.61026,0.25 c 2.00103,0.81974 4.45377,3.26276 6.26106,6.23623 1.53791,2.53028 2.56722,5.12032 3.22991,8.12746 0.24842,1.12723 0.24842,4.27387 0,5.4011 -0.66269,3.00714 -1.692,5.59718 -3.22991,8.12746 -1.80729,2.97347 -4.26003,5.41649 -6.26106,6.23623 l -0.61026,0.25 -0.18128,0.76779 c -0.664,2.81219 -2.19483,5.84363 -3.89597,7.71503 l -0.61994,0.68198 0.22212,0.50626 c 0.12217,0.27844 0.31925,0.77361 0.43798,1.10038 0.8111,2.23245 1.1915,3.28569 2.06775,5.72516 0.5442,1.515 1.08022,2.9976 1.19117,3.29466 0.65643,1.75757 1.44069,4.00136 1.52005,4.34893 0.16374,0.71708 0.0115,1.20545 -0.55087,1.76788 -0.54824,0.54826 -0.8811,0.68313 -2.10313,0.85226 -0.41588,0.0576 -1.07211,0.15403 -1.45829,0.21438 -0.38618,0.0603 -1.04241,0.15758 -1.4583,0.21604 -0.41588,0.0585 -1.07211,0.1557 -1.45829,0.21605 -0.38618,0.0603 -1.04241,0.15751 -1.4583,0.2159 -0.41588,0.0584 -1.41238,0.20392 -2.21444,0.32339 -0.80207,0.11946 -2.16314,0.31828 -3.02461,0.44183 -0.86148,0.12354 -1.60414,0.26095 -1.65037,0.30532 -0.0769,0.0739 -0.0263,1.29983 0.24604,5.95102 0.0539,0.92089 0.14878,2.54932 0.2108,3.61873 0.10925,1.88349 0.19701,3.377 0.43802,7.45351 0.0632,1.06942 0.1598,2.72215 0.21462,3.67274 0.0548,0.9506 0.13336,2.29761 0.17454,2.99337 0.0875,1.4789 -0.0396,1.96746 -0.67787,2.60576 -0.6383,0.63831 -1.12686,0.7654 -2.60577,0.67787 -0.69575,-0.0412 -2.04276,-0.11973 -2.99336,-0.17454 -0.95059,-0.0548 -2.60333,-0.15139 -3.67274,-0.21462 -4.07651,-0.24101 -5.57003,-0.32877 -7.45351,-0.43801 -1.06941,-0.062 -2.69784,-0.1569 -3.61873,-0.21081 -4.65119,-0.2723 -5.87713,-0.32299 -5.95102,-0.24604 -0.0444,0.0462 -0.18178,0.78889 -0.30532,1.65037 -0.12355,0.86147 -0.32237,2.22254 -0.44184,3.02461 -0.11947,0.80206 -0.26498,1.79856 -0.32338,2.21444 -0.0584,0.41589 -0.15555,1.07212 -0.2159,1.4583 -0.0604,0.38618 -0.15757,1.04241 -0.21605,1.45829 -0.0585,0.41589 -0.15569,1.07212 -0.21604,1.4583 -0.0603,0.38618 -0.15683,1.04241 -0.21438,1.45829 -0.16913,1.22203 -0.30401,1.55489 -0.85226,2.10314 -0.56243,0.56243 -1.0508,0.7146 -1.76788,0.55087 -0.34343,-0.0784 -2.20811,-0.72914 -4.37594,-1.52708 -0.31191,-0.1148 -0.82232,-0.30275 -1.13423,-0.41766 -0.31191,-0.11491 -1.53931,-0.55704 -2.72755,-0.98253 -1.9111,-0.68432 -2.9296,-1.05188 -5.13104,-1.85171 -0.32676,-0.11873 -0.82193,-0.31581 -1.10037,-0.43798 l -0.50627,-0.22212 -0.68197,0.61994 c -1.8714,1.70114 -4.90284,3.23197 -7.71504,3.89597 l -0.76779,0.18128 -0.25022,0.61026 c -0.80405,1.96091 -3.21949,4.41215 -6.07609,6.16614 -1.1927,0.73233 -3.03225,1.65151 -4.29057,2.1439 -1.32806,0.51968 -2.1142,0.74925 -4.13961,1.20887 -0.5468,0.12408 -3.27555,0.22948 -4.01604,0.15512 z m 4.37489,-3.58418 c 2.70635,-0.73615 4.75497,-1.66714 7.11509,-3.23345 1.28698,-0.85411 3.255,-2.65706 3.255,-2.98198 0,-0.15514 -0.12492,-0.18285 -0.83717,-0.18577 -1.24882,-0.005 -3.48042,-0.33626 -4.99804,-0.74169 -2.11114,-0.56398 -5.06589,-1.81662 -6.66031,-2.82359 -0.37282,-0.23546 -0.72884,-0.4281 -0.79116,-0.4281 -0.0623,0 -0.41835,0.19264 -0.79117,0.4281 -1.59442,1.00697 -4.54916,2.25961 -6.660316,2.82359 -1.517614,0.40543 -3.749206,0.73659 -4.998035,0.74169 -0.712246,0.003 -0.837169,0.0306 -0.837169,0.18577 0,0.1003 0.456096,0.62892 1.013546,1.17472 2.292882,2.24494 6.181554,4.30491 9.572594,5.07092 0.44559,0.10067 0.85877,0.20098 0.91818,0.22294 0.0594,0.022 0.9587,0.0236 1.99841,0.004 1.48061,-0.0285 2.066,-0.0841 2.70055,-0.25671 z m -43.40286,-9.73696 c 0.136473,-0.0542 0.527638,-0.20003 0.869255,-0.32407 1.326066,-0.4815 1.829885,-0.66517 2.376483,-0.86634 0.311911,-0.11481 1.271954,-0.45837 2.133431,-0.76348 0.861474,-0.30511 1.821516,-0.64867 2.133431,-0.76348 0.311912,-0.11479 0.834466,-0.30594 1.161235,-0.42476 0.326764,-0.11882 0.861473,-0.31326 1.188237,-0.43208 0.908907,-0.33052 1.832233,-0.68138 1.872693,-0.71162 0.01996,-0.0149 -0.20109,-0.4321 -0.491253,-0.92702 -0.713834,-1.21759 -1.068545,-1.9961 -1.492812,-3.27636 -0.390434,-1.17818 -0.80681,-3.02597 -0.80681,-3.58046 0,-0.19228 -0.0374,-0.37271 -0.08313,-0.40096 -0.08071,-0.0499 -1.511352,0.0153 -5.642027,0.25713 -1.099124,0.0643 -2.716639,0.15454 -3.59448,0.20044 -0.87784,0.0459 -1.638789,0.1284 -1.690995,0.18333 -0.0907,0.0954 -0.04127,0.50013 0.533293,4.36673 0.128013,0.86147 0.273537,1.85797 0.323387,2.21445 0.04985,0.35647 0.147023,1.0127 0.215943,1.45829 0.06892,0.44559 0.166138,1.10182 0.216045,1.4583 0.368808,2.63442 0.327577,2.51084 0.778076,2.33196 z m 29.153804,-0.0167 c 2.263947,-0.28713 4.723228,-0.97335 6.551109,-1.82799 1.606937,-0.75132 2.945187,-1.53336 2.942517,-1.71953 -0.001,-0.0946 -0.3476,-0.56093 -0.76943,-1.03622 -0.42183,-0.4753 -0.87157,-0.9857 -0.99941,-1.13423 -0.12783,-0.14853 -0.966157,-1.10683 -1.862938,-2.12954 -0.89678,-1.0227 -1.71356,-2.03449 -1.815065,-2.2484 -0.220556,-0.46478 0.01229,-0.58248 -2.415199,1.22088 -1.92124,1.42728 -2.731978,1.9413 -3.963884,2.51321 -1.923089,0.89278 -3.758919,1.29197 -5.941204,1.29187 -2.607732,0 -4.554775,-0.58028 -6.670348,-1.98757 -0.40797,-0.27138 -0.373295,-0.10839 0.149272,0.70168 0.939984,1.45713 2.41998,2.96676 3.812248,3.8886 0.789842,0.52297 2.570922,1.39954 3.464984,1.70532 2.222426,0.76008 5.173465,1.05919 7.517348,0.76192 z m 27.049636,-0.0384 c 2.05432,-0.3164 3.19792,-0.66217 4.86099,-1.46969 1.36617,-0.66336 2.17949,-1.20219 3.21007,-2.12668 0.93403,-0.83787 1.69541,-1.72368 2.33881,-2.72106 0.52256,-0.81007 0.55724,-0.97306 0.14927,-0.70168 -2.11558,1.40729 -4.06261,1.98745 -6.67035,1.98757 -2.18228,10e-5 -4.01811,-0.39909 -5.9412,-1.29187 -1.23192,-0.57191 -2.04265,-1.08593 -3.96388,-2.51321 -2.4275,-1.80336 -2.19465,-1.68566 -2.41521,-1.22087 -0.1015,0.2139 -0.91828,1.22569 -1.81506,2.2484 -0.89678,1.0227 -1.73511,1.981 -1.86294,2.12953 -0.12785,0.14853 -0.57758,0.65893 -0.99941,1.13423 -0.42183,0.47529 -0.76808,0.94159 -0.76943,1.03622 -0.005,0.34667 3.12263,1.91044 5.15696,2.57843 2.9501,0.96867 6.21362,1.31694 8.72138,0.93068 z m 25.16132,0.0582 c 0.0549,-0.0887 0.16303,-0.74345 0.38585,-2.33503 0.0499,-0.35648 0.14712,-1.01271 0.21604,-1.4583 0.0689,-0.44559 0.1661,-1.10182 0.21595,-1.45829 0.0498,-0.35647 0.19537,-1.35298 0.32338,-2.21445 0.57457,-3.8666 0.62399,-4.2713 0.5333,-4.36673 -0.0522,-0.0549 -0.81316,-0.13742 -1.691,-0.18333 -0.87784,-0.0459 -2.49536,-0.1361 -3.59448,-0.20044 -4.13068,-0.24181 -5.56132,-0.30701 -5.64202,-0.25713 -0.0457,0.0283 -0.0831,0.20868 -0.0831,0.40096 0,0.55449 -0.41638,2.40228 -0.80681,3.58046 -0.42427,1.28027 -0.77898,2.05877 -1.49281,3.27636 -0.29017,0.49492 -0.51122,0.91208 -0.49125,0.92702 0.0405,0.0302 0.96378,0.3811 1.87269,0.71162 0.32677,0.11882 0.86147,0.31326 1.18824,0.43208 0.32676,0.11883 0.84932,0.30997 1.16123,0.42476 0.31191,0.11481 1.27196,0.45838 2.13343,0.76348 0.86148,0.30511 1.82152,0.64867 2.13344,0.76348 0.53233,0.19592 0.82043,0.30097 2.37647,0.86659 0.34163,0.12416 0.71835,0.2667 0.83717,0.31674 0.28844,0.12148 0.35454,0.12305 0.42432,0.0102 z m -39.57743,-8.06016 c 2.06233,-2.37917 3.5804,-4.05082 3.67869,-4.05082 0.0535,0 0.0973,-0.0459 0.0973,-0.10191 0,-0.14543 -4.76295,-3.70615 -5.02301,-3.75514 -0.14796,-0.0279 -0.948,0.50819 -2.53852,1.70092 -1.27736,0.95789 -2.383577,1.80051 -2.458271,1.87248 -0.108065,0.10415 -0.01968,0.2513 0.432641,0.72037 0.6993,0.72517 4.09801,4.6062 4.222,4.82115 0.1755,0.30426 0.47893,0.0738 1.5892,-1.20705 z m -19.113322,-0.44067 c 1.226713,-0.2327 2.373569,-0.62728 3.319183,-1.14196 1.288986,-0.70158 1.238773,-0.66551 8.942861,-6.42398 2.086518,-1.55959 3.958008,-2.9358 4.158838,-3.05824 0.30111,-0.18358 0.5452,-0.22262 1.39138,-0.22262 0.84618,0 1.09026,0.039 1.39137,0.22262 0.20084,0.12244 2.07231,1.49865 4.15884,3.05824 7.70409,5.75847 7.65388,5.7224 8.94286,6.42398 1.46586,0.79785 3.46506,1.31259 5.09782,1.31255 3.28512,-6e-5 5.93383,-1.64339 6.89659,-4.27881 0.35617,-0.97497 0.39692,-2.75395 0.0892,-3.89441 -0.47246,-1.75099 -0.58039,-1.88236 -3.94609,-4.80344 -2.58494,-2.24348 -5.98596,-5.2068 -10.98065,-9.56747 -0.63285,-0.55253 -1.22557,-1.00461 -1.31714,-1.00461 -0.0916,0 -0.23977,0.10464 -0.32935,0.23253 -0.0896,0.12789 -0.63874,0.74426 -1.22036,1.36973 -1.84446,1.98348 -4.27649,3.91416 -5.97451,4.74288 -0.82818,0.4042 -2.36455,0.89233 -2.80856,0.89233 -0.44402,0 -1.98039,-0.48813 -2.80857,-0.89233 -1.69802,-0.82872 -4.130041,-2.7594 -5.97451,-4.74288 -0.581619,-0.62547 -1.130785,-1.24184 -1.22036,-1.36973 -0.08958,-0.12789 -0.237785,-0.23253 -0.329353,-0.23253 -0.09157,0 -0.684279,0.45208 -1.317141,1.00461 -4.994683,4.36067 -8.395699,7.32399 -10.980646,9.56747 -3.365705,2.92108 -3.473623,3.05245 -3.946091,4.80344 -0.307731,1.14046 -0.266994,2.91944 0.08918,3.89441 0.769976,2.10771 2.64936,3.62374 5.099165,4.1133 0.988397,0.19752 2.519513,0.19535 3.576066,-0.005 z m -1.923489,-5.87423 c -0.494372,-0.30144 -0.71568,-0.78728 -0.65348,-1.4346 0.05702,-0.59338 0.301901,-0.98674 0.847205,-1.36088 0.741433,-0.50871 1.786996,-0.0639 2.139195,0.91012 0.477392,1.32021 -1.129715,2.61899 -2.33292,1.88536 z m 37.927841,0.007 c -1.03518,-0.63126 -1.16754,-1.77749 -0.30211,-2.61629 0.66701,-0.6465 1.60258,-0.49785 2.23423,0.355 0.29654,0.40038 0.36531,1.25411 0.13667,1.69628 -0.36886,0.71327 -1.37501,0.98806 -2.06879,0.56501 z m -28.280267,-6.1005 c -1.269818,-0.76865 -1.225537,-2.59441 0.08151,-3.36039 0.533713,-0.31277 1.306901,-0.36527 1.775364,-0.12054 0.332092,0.1735 0.801433,0.65294 0.98064,1.00175 0.208218,0.40529 0.147149,1.30883 -0.120669,1.78534 -0.511131,0.90944 -1.811884,1.24163 -2.716843,0.69384 z m 18.147667,0 c -0.5973,-0.36156 -0.92881,-0.95682 -0.9295,-1.66901 -0.001,-0.63256 0.10092,-0.89381 0.52575,-1.35283 0.40644,-0.43913 0.79432,-0.61147 1.37623,-0.61147 1.47719,0 2.46289,1.66103 1.74436,2.93947 -0.51113,0.90944 -1.81188,1.24163 -2.71684,0.69384 z m -71.846392,6.51904 c 1.12883,-0.0611 2.830171,-0.15722 3.780766,-0.21368 5.26175,-0.31247 8.456006,-0.49778 11.180259,-0.64861 2.535088,-0.14036 3.4567,-0.22589 3.4567,-0.32081 0,-0.0436 -0.376724,-0.16711 -0.837169,-0.27457 -1.422385,-0.33193 -3.767705,-1.0335 -5.428097,-1.62373 -1.602849,-0.56977 -4.14823,-1.71382 -5.347083,-2.40328 -0.921934,-0.53021 -1.770465,-1.06516 -2.121971,-1.33778 -0.21649,-0.1679 -0.429803,-0.30528 -0.474023,-0.30528 -0.154923,0 -7.396027,7.10817 -7.396027,7.26025 0,0.0692 0.210799,0.0857 0.567114,0.0443 0.311915,-0.0362 1.490701,-0.11576 2.619531,-0.17684 z m 130.760442,0.12006 c 0,-0.14291 -7.2502,-7.2478 -7.39603,-7.2478 -0.0442,0 -0.25753,0.13738 -0.47402,0.30528 -0.35151,0.27262 -1.20004,0.80757 -2.12198,1.33778 -1.19885,0.68946 -3.74422,1.83351 -5.34707,2.40328 -1.6604,0.59023 -4.00572,1.2918 -5.4281,1.62373 -0.46045,0.10746 -0.83717,0.23101 -0.83717,0.27457 0,0.0949 0.92161,0.18045 3.4567,0.32081 2.81727,0.15597 6.79002,0.38673 11.18026,0.64939 0.95059,0.0569 2.72485,0.15556 3.9428,0.2193 1.21794,0.0637 2.26305,0.13352 2.32246,0.15508 0.2228,0.0809 0.70215,0.0526 0.70215,-0.0414 z M 37.24045,213.32792 c 4.089252,-4.1677 5.077277,-5.20445 5.040166,-5.28874 -0.02066,-0.0469 -0.311569,-0.49852 -0.646462,-1.00352 -1.576381,-2.37712 -3.034633,-5.56674 -4.000289,-8.74977 -0.485757,-1.60118 -0.82252,-2.80276 -1.006642,-3.59173 -0.107453,-0.46045 -0.231005,-0.83717 -0.274563,-0.83717 -0.09654,0 -0.182106,0.93884 -0.324903,3.56472 -0.05977,1.09912 -0.154812,2.77616 -0.211203,3.72675 -0.05639,0.9506 -0.153864,2.60333 -0.216604,3.67275 -0.0627,1.06941 -0.16026,2.72215 -0.21671,3.67274 -0.0565,0.95059 -0.15261,2.65193 -0.21369,3.78076 -0.0611,1.12883 -0.14064,2.30762 -0.17683,2.61953 -0.0413,0.35633 -0.0249,0.56712 0.0443,0.56712 0.0606,0 1.052103,-0.96005 2.2034,-2.13344 z m 136.8026,1.56632 c -0.0362,-0.31191 -0.11576,-1.4907 -0.17684,-2.61953 -0.0611,-1.12883 -0.15722,-2.83017 -0.21368,-3.78076 -0.0565,-0.95059 -0.15397,-2.60333 -0.21671,-3.67274 -0.0627,-1.06942 -0.16021,-2.72215 -0.21661,-3.67275 -0.0564,-0.95059 -0.15142,-2.62763 -0.2112,-3.72675 -0.1428,-2.62588 -0.22836,-3.56472 -0.3249,-3.56472 -0.0436,0 -0.16711,0.37672 -0.27457,0.83717 -0.18411,0.78897 -0.52088,1.99055 -1.00663,3.59173 -0.96566,3.18303 -2.42391,6.37265 -4.0003,8.74977 -0.33489,0.505 -0.62579,0.95658 -0.64646,1.00352 -0.0207,0.0469 0.63394,0.77607 1.45467,1.62032 3.83505,3.94496 5.6878,5.80186 5.7889,5.80186 0.0692,0 0.0857,-0.21079 0.0443,-0.56712 z M 70.364981,214.49621 c -0.0198,-0.0556 -0.619981,-0.48693 -1.333729,-0.95863 -3.285361,-2.17119 -5.915491,-5.216 -7.729274,-8.94792 -0.600882,-1.23633 -1.332602,-3.24115 -1.600951,-4.38639 -0.448331,-1.91337 -0.531517,-2.52158 -0.618372,-4.52128 l -0.07322,-1.68572 -1.685716,-0.0732 c -0.927144,-0.0403 -2.001678,-0.12242 -2.387858,-0.18256 -0.657958,-0.10247 -0.934709,-0.15927 -2.160438,-0.44336 -1.107159,-0.25662 -3.130794,-0.99628 -4.359376,-1.59339 -3.844408,-1.86846 -7.019135,-4.66145 -9.186424,-8.08181 -0.348227,-0.54956 -0.675428,-0.9992 -0.72712,-0.9992 -0.212244,0 -0.01984,4.17884 0.276037,5.99521 0.02903,0.17824 0.107392,0.66434 0.174128,1.08022 0.875856,5.45801 2.75838,11.12934 4.948185,14.90701 0.709344,1.22371 3.275979,3.79035 4.499687,4.49969 5.278935,3.06004 14.104092,5.41767 20.506144,5.4782 0.886778,0.008 1.479666,-0.0269 1.458297,-0.0868 z m -19.670106,-9.80022 c -0.568571,-0.098 -1.595447,-0.91054 -2.011002,-1.59133 -0.361872,-0.59283 -0.388516,-0.69675 -0.389887,-1.52054 -0.0012,-0.79673 0.03082,-0.9365 0.325004,-1.41251 0.617817,-0.99973 1.810039,-1.5125 2.893563,-1.2445 1.365501,0.33775 2.217499,1.19056 2.563623,2.56604 0.269145,1.06957 -0.240492,2.27446 -1.217543,2.87853 -0.510442,0.31559 -1.421683,0.45216 -2.163758,0.32431 z m 92.062745,9.74234 c 0.86147,-0.0871 1.71214,-0.18214 1.89038,-0.21117 0.17824,-0.029 0.66433,-0.10739 1.08022,-0.17412 4.58398,-0.7356 9.80826,-2.33572 13.28298,-4.06836 1.92418,-0.95948 2.44689,-1.33945 4.05549,-2.94805 1.60861,-1.60861 1.98858,-2.13132 2.94806,-4.0555 1.73264,-3.47472 3.33276,-8.699 4.06835,-13.28298 0.0667,-0.41588 0.1451,-0.90198 0.17413,-1.08022 0.29587,-1.81637 0.48828,-5.99521 0.27604,-5.99521 -0.0517,0 -0.3789,0.44964 -0.72712,0.9992 -2.16729,3.42036 -5.34202,6.21335 -9.18642,8.08181 -1.23633,0.60088 -3.24115,1.3326 -4.38639,1.60095 -1.91337,0.44833 -2.52158,0.53152 -4.52129,0.61836 l -1.68571,0.0732 -0.0732,1.68572 c -0.11083,2.55182 -0.35009,3.8541 -1.16019,6.31515 -1.52491,4.63258 -4.75611,8.87562 -8.78841,11.54044 -0.71374,0.4717 -1.31392,0.90308 -1.33372,0.95863 -0.0552,0.15475 2.31598,0.12117 4.08683,-0.0579 z m 13.9224,-9.81313 c -0.91356,-0.34292 -1.46081,-0.97654 -1.71997,-1.99143 -0.12044,-0.47159 -0.12078,-0.66265 -0.002,-1.13424 0.34852,-1.38471 1.19689,-2.23388 2.57164,-2.57405 1.03944,-0.2572 2.24995,0.23675 2.8329,1.15594 0.6226,0.98175 0.57129,2.14788 -0.14041,3.19096 -0.62722,0.91925 -1.38866,1.37781 -2.40416,1.44785 -0.48484,0.0334 -0.8846,6e-5 -1.13791,-0.095 z m -80.890441,7.19042 c 0.310339,-0.57927 0.91294,-1.63653 1.33911,-2.34947 0.794014,-1.32833 1.355935,-2.48549 1.355935,-2.7923 0,-0.095 -0.156895,-0.25389 -0.348656,-0.35305 -0.191757,-0.0992 -0.665703,-0.3868 -1.053214,-0.63919 -1.476546,-0.96171 -5.614872,-3.50465 -6.532703,-4.01425 -1.077686,-0.59837 -1.355307,-0.9547 -1.355307,-1.73955 0,-0.60053 -8.16e-4,-0.59932 1.608545,-2.81584 0.749129,-1.03184 1.775238,-2.44735 2.280241,-3.14559 1.424105,-1.96902 2.155458,-2.97309 2.900578,-3.98217 0.515634,-0.69831 0.660783,-0.97008 0.584122,-1.09373 -0.05611,-0.0905 -0.48639,-0.37166 -0.956184,-0.62482 l -0.854178,-0.4603 -1.080217,0.0541 c -0.594121,0.0298 -1.469099,0.10181 -1.944393,0.16014 -0.475297,0.0583 -1.301663,0.15735 -1.836373,0.22008 -0.534709,0.0627 -1.433988,0.17267 -1.998403,0.24435 -0.564415,0.0717 -1.350864,0.13113 -1.747663,0.13211 -0.780089,0.002 -1.099655,-0.15195 -1.540327,-0.74172 -0.265373,-0.35516 -0.291551,-1.17078 -0.08882,-2.7672 0.07168,-0.56441 0.181636,-1.46369 0.244355,-1.9984 0.06272,-0.53471 0.161757,-1.36108 0.220083,-1.83637 0.05832,-0.4753 0.13039,-1.35028 0.16014,-1.9444 l 0.05409,-1.08021 -0.460297,-0.85418 c -0.253161,-0.46979 -0.534334,-0.90008 -0.624823,-0.95618 -0.123649,-0.0767 -0.395423,0.0685 -1.093727,0.58411 -1.009084,0.74513 -2.013154,1.47648 -3.982182,2.90058 -0.698235,0.50501 -2.113749,1.53112 -3.145577,2.28025 -2.216523,1.60923 -2.21531,1.60854 -2.815837,1.60854 -0.784861,0 -1.141192,-0.27762 -1.739551,-1.35531 -0.509609,-0.91782 -3.052548,-5.05615 -4.014252,-6.5327 -0.252394,-0.38751 -0.540029,-0.86146 -0.63919,-1.05321 -0.09916,-0.19176 -0.258036,-0.34865 -0.353053,-0.34865 -0.306808,0 -1.463976,0.56191 -2.792295,1.35593 -0.712945,0.42617 -1.774622,1.03114 -2.359279,1.34439 -1.189373,0.63725 -1.140637,0.52413 -0.721436,1.67456 1.79116,4.91553 6.595091,9.2767 12.066987,10.95479 2.276514,0.69816 3.062935,0.80302 6.087337,0.81168 3.92865,0.0113 3.718839,-0.19856 3.730095,3.7301 0.0087,3.0244 0.113524,3.81082 0.811677,6.08733 1.247943,4.06924 4.032318,7.88536 7.473373,10.2426 0.917068,0.62822 2.9384,1.70597 3.230183,1.72229 0.07877,0.004 0.337661,0.098 0.575308,0.20803 0.708804,0.32812 0.742682,0.30719 1.355776,-0.83717 z m 59.136451,0.73123 c 4.91257,-1.79007 9.27772,-6.59839 10.9548,-12.06698 0.69816,-2.27651 0.80301,-3.06293 0.81168,-6.08733 0.0113,-3.92866 -0.19856,-3.71885 3.7301,-3.7301 3.02439,-0.009 3.81081,-0.11352 6.08733,-0.81168 5.4719,-1.67809 10.27583,-6.03926 12.06698,-10.95479 0.41921,-1.15043 0.46794,-1.03731 -0.72143,-1.67456 -0.58466,-0.31325 -1.64633,-0.91822 -2.35927,-1.34439 -1.32833,-0.79402 -2.48549,-1.35593 -2.7923,-1.35593 -0.095,0 -0.25389,0.15689 -0.35305,0.34865 -0.0992,0.19175 -0.3868,0.6657 -0.63919,1.05321 -0.96171,1.47655 -3.50465,5.61488 -4.01425,6.5327 -0.59837,1.07769 -0.9547,1.35531 -1.73956,1.35531 -0.60052,0 -0.59931,0.001 -2.81583,-1.60854 -1.03184,-0.74913 -2.44735,-1.77524 -3.14559,-2.28025 -1.96902,-1.4241 -2.97309,-2.15545 -3.98217,-2.90058 -0.69831,-0.51563 -0.97008,-0.66078 -1.09373,-0.58411 -0.0905,0.0561 -0.37166,0.48639 -0.62482,0.95618 l -0.4603,0.85418 0.0541,1.08021 c 0.0298,0.59412 0.10181,1.4691 0.16015,1.9444 0.0583,0.47529 0.15735,1.30166 0.22008,1.83637 0.0627,0.53471 0.17268,1.43399 0.24435,1.9984 0.20273,1.59642 0.17656,2.41204 -0.0888,2.7672 -0.44067,0.58977 -0.76024,0.74365 -1.54032,0.74172 -0.3968,-0.001 -1.18326,-0.0604 -1.74767,-0.13211 -0.56441,-0.0717 -1.4637,-0.18163 -1.99841,-0.24435 -0.5347,-0.0627 -1.36107,-0.16176 -1.83636,-0.22008 -0.4753,-0.0583 -1.35028,-0.1304 -1.9444,-0.16014 l -1.08022,-0.0541 -0.85417,0.4603 c -0.4698,0.25316 -0.90008,0.53433 -0.95619,0.62482 -0.0767,0.12365 0.0685,0.39542 0.58412,1.09373 0.74513,1.00908 1.47648,2.01315 2.90058,3.98217 0.505,0.69824 1.53112,2.11375 2.28024,3.14559 1.60924,2.21652 1.60855,2.21531 1.60855,2.81584 0,0.78485 -0.27762,1.14118 -1.35531,1.73955 -0.91783,0.5096 -5.05615,3.05254 -6.5327,4.01425 -0.38751,0.25239 -0.86146,0.54003 -1.05322,0.63919 -0.19176,0.0992 -0.34865,0.25803 -0.34865,0.35305 0,0.30681 0.56192,1.46397 1.35594,2.7923 0.42616,0.71294 1.03114,1.77461 1.34439,2.35927 0.63724,1.18937 0.52412,1.14065 1.67455,0.72143 z m -49.906085,-9.19659 c 6.186416,-5.391 7.075431,-6.17842 7.075431,-6.2669 0,-0.0529 -0.405283,-0.78829 -0.900627,-1.63426 -1.838859,-3.14043 -2.739175,-5.42903 -3.194071,-8.11931 l -0.184028,-1.08834 -0.588189,0.0263 c -0.323506,0.0145 -0.989222,0.0752 -1.479372,0.13503 -0.490146,0.0598 -1.316512,0.15881 -1.836369,0.22001 -0.519856,0.0612 -1.309763,0.15577 -1.755355,0.21015 -0.445591,0.0544 -1.166142,0.1311 -1.601224,0.17052 -0.940956,0.0853 -1.058575,0.23215 -0.584829,0.73041 0.948721,0.99781 2.054827,3.29632 2.61444,5.43287 0.495238,1.89076 0.590941,2.79265 0.589071,5.55123 -0.002,2.73175 -0.06772,3.37044 -0.593076,5.75102 -0.263364,1.19339 -0.261445,1.24769 0.0347,0.98199 0.133676,-0.11993 1.215245,-1.06526 2.403487,-2.10072 z m 41.437835,1.13561 c -0.52945,-2.39872 -0.59497,-3.03205 -0.59683,-5.7679 -0.002,-2.75858 0.0938,-3.66047 0.58908,-5.55123 0.5596,-2.13655 1.66571,-4.43506 2.61443,-5.43287 0.47375,-0.49826 0.35612,-0.64516 -0.58484,-0.73041 -0.43507,-0.0394 -1.15562,-0.11616 -1.60121,-0.17052 -0.44559,-0.0544 -1.2355,-0.14895 -1.75536,-0.21015 -0.51985,-0.0612 -1.34622,-0.16021 -1.83637,-0.22001 -0.49015,-0.0598 -1.15587,-0.12056 -1.47937,-0.13503 l -0.58819,-0.0263 -0.18402,1.08834 c -0.45491,2.69027 -1.35521,4.97888 -3.19408,8.11931 -0.49535,0.84596 -0.90062,1.58289 -0.90062,1.63762 0,0.0547 1.8304,1.69586 4.06756,3.64695 2.23717,1.95108 4.41245,3.8486 4.83398,4.21671 0.42153,0.3681 0.78026,0.63038 0.79718,0.58284 0.0169,-0.0475 -0.0647,-0.51885 -0.18134,-1.04736 z m -20.72012,-1.12338 c 2.8249,-1.44237 5.86161,-4.39087 8.38865,-8.14496 2.54391,-3.77916 4.11692,-8.07066 3.69931,-10.09254 -0.071,-0.34369 -0.12907,-0.7403 -0.12907,-0.88135 0,-0.43841 0.42569,-1.16726 0.82639,-1.4149 0.40516,-0.2504 0.67608,-0.25046 2.46828,0 0.41588,0.058 1.24225,0.15649 1.83637,0.21888 0.59412,0.0624 1.4934,0.16264 1.9984,0.22279 2.32229,0.27656 3.16437,0.37424 5.56313,0.64525 0.5347,0.0604 1.38538,0.15899 1.89038,0.21905 2.66892,0.31747 6.04704,0.70613 7.64683,0.87982 0.61133,0.0664 1.14005,0.0921 1.17496,0.0572 0.0349,-0.0349 0.009,-0.56363 -0.0572,-1.17496 -0.17369,-1.59977 -0.56235,-4.97789 -0.87982,-7.64681 -0.0601,-0.505 -0.15864,-1.35567 -0.21905,-1.89038 -0.27101,-2.39875 -0.36869,-3.24084 -0.64525,-5.56312 -0.0601,-0.50501 -0.1604,-1.40429 -0.22279,-1.99841 -0.0624,-0.59412 -0.16089,-1.42049 -0.21888,-1.83637 -0.24993,-1.7922 -0.24988,-2.06312 0,-2.46828 0.33684,-0.54502 1.06322,-0.87451 1.71875,-0.77961 1.23151,0.17827 1.73632,0.18153 2.60028,0.0168 4.46541,-0.85144 10.57895,-4.72658 14.15311,-8.97114 1.35492,-1.60905 2.49137,-3.55733 2.49137,-4.2711 0,-0.71376 -1.13645,-2.66204 -2.49137,-4.2711 -3.57416,-4.24455 -9.6877,-8.1197 -14.15311,-8.97113 -0.86396,-0.16474 -1.36877,-0.16148 -2.60028,0.0168 -0.65553,0.0949 -1.38191,-0.23459 -1.71875,-0.77962 -0.25041,-0.40515 -0.25046,-0.67607 0,-2.46827 0.058,-0.41589 0.15649,-1.24226 0.21888,-1.83638 0.0624,-0.59411 0.16264,-1.4934 0.22279,-1.9984 0.27656,-2.32229 0.37424,-3.16437 0.64525,-5.56312 0.0604,-0.53471 0.15899,-1.38538 0.21905,-1.89039 0.31747,-2.66891 0.70613,-6.04704 0.87982,-7.64683 0.0663,-0.61132 0.0921,-1.14005 0.0572,-1.17495 -0.0349,-0.0349 -0.56363,-0.009 -1.17496,0.0572 -1.59979,0.17368 -4.97791,0.56235 -7.64683,0.8798 -0.505,0.0601 -1.35568,0.15865 -1.89038,0.21906 -2.39876,0.27102 -3.24084,0.36869 -5.56313,0.64525 -0.505,0.0601 -1.40428,0.1604 -1.9984,0.22279 -0.59412,0.0624 -1.42049,0.16089 -1.83637,0.21889 -1.7922,0.24992 -2.06312,0.24987 -2.46828,-4.1e-4 -0.4007,-0.24765 -0.82639,-0.9765 -0.82639,-1.41491 0,-0.14105 0.0581,-0.53766 0.12907,-0.88135 0.41761,-2.02187 -1.1554,-6.31337 -3.69931,-10.09253 -2.52704,-3.754095 -5.56375,-6.702591 -8.38865,-8.144964 -1.06916,-0.545906 -1.37039,-0.545906 -2.43955,0 -2.8249,1.442373 -5.861608,4.390869 -8.388649,8.144964 -2.54392,3.77916 -4.11692,8.07066 -3.699312,10.09254 0.07099,0.34369 0.129071,0.7403 0.129071,0.88134 0,0.43842 -0.425692,1.16727 -0.82639,1.41491 -0.405153,0.2504 -0.676069,0.25046 -2.468275,4.1e-4 -0.415886,-0.058 -1.242252,-0.15649 -1.836373,-0.21888 -0.594117,-0.0624 -1.4934,-0.16265 -1.998403,-0.22279 -2.322289,-0.27657 -3.164366,-0.37424 -5.563124,-0.64525 -0.534709,-0.0604 -1.38538,-0.15899 -1.890383,-0.21906 -2.668916,-0.31745 -6.04704,-0.70612 -7.646828,-0.8798 -0.611329,-0.0664 -1.140057,-0.0921 -1.174956,-0.0572 -0.03491,0.0349 -0.0091,0.56362 0.05722,1.17495 0.173679,1.59979 0.562349,4.97791 0.879805,7.64683 0.06007,0.505 0.158642,1.35567 0.219058,1.89038 0.271014,2.39876 0.368681,3.24084 0.645252,5.56313 0.06014,0.505 0.160398,1.40428 0.222786,1.9984 0.06239,0.59412 0.160888,1.42049 0.218883,1.83637 0.249931,1.79221 0.249874,2.06313 -4.09e-4,2.46828 -0.336844,0.54503 -1.063229,0.87451 -1.718766,0.77961 -1.231494,-0.17827 -1.736313,-0.18153 -2.600273,-0.0168 -4.465404,0.85144 -10.578948,4.72659 -14.153108,8.97114 -1.354918,1.60906 -2.491375,3.55734 -2.491375,4.2711 0,0.71377 1.136457,2.66205 2.491375,4.2711 3.57416,4.24456 9.687704,8.1197 14.153108,8.97114 0.86396,0.16473 1.368779,0.16147 2.600273,-0.0168 0.655537,-0.0949 1.381922,0.23459 1.718766,0.77961 0.250401,0.40516 0.250459,0.67608 4.09e-4,2.46828 -0.05799,0.41588 -0.156495,1.24225 -0.218883,1.83637 -0.06239,0.59412 -0.162643,1.4934 -0.222786,1.99841 -0.276571,2.32228 -0.374238,3.16437 -0.645252,5.56312 -0.06042,0.5347 -0.158989,1.38538 -0.219058,1.89038 -0.317456,2.66892 -0.706126,6.04704 -0.879805,7.64683 -0.06637,0.61133 -0.09212,1.14006 -0.05722,1.17495 0.03491,0.0349 0.563627,0.009 1.174956,-0.0572 1.599788,-0.17369 4.977912,-0.56235 7.646828,-0.87982 0.505003,-0.0601 1.355674,-0.15864 1.890383,-0.21905 2.398758,-0.27101 3.240835,-0.36869 5.563124,-0.64525 0.505003,-0.0601 1.404286,-0.1604 1.998403,-0.22279 0.594121,-0.0624 1.420487,-0.16089 1.836373,-0.21888 1.792206,-0.24993 2.063122,-0.24988 2.468275,0 0.400698,0.24764 0.82639,0.97649 0.82639,1.4149 0,0.14105 -0.05808,0.53766 -0.129071,0.88135 -0.345173,1.67117 0.709348,5.05692 2.588279,8.31017 2.103161,3.64149 5.257145,7.214 7.987382,9.04727 1.05616,0.70918 2.309,1.30983 2.73208,1.30983 0.22769,0 0.71286,-0.17095 1.21977,-0.42977 z m -2.20206,-9.43582 c -0.87598,-0.27914 -1.70566,-1.06868 -2.11653,-2.01407 -0.27026,-0.62185 -0.22208,-1.68612 0.10556,-2.33219 0.98439,-1.94113 3.61148,-2.39033 5.30144,-0.90651 1.46419,1.28557 1.22034,3.67583 -0.49267,4.82944 -0.81555,0.54922 -1.89179,0.71207 -2.7978,0.42333 z m 0.11911,-10.53217 c -0.43453,-0.23305 -0.86765,-0.9703 -0.85999,-1.46391 0.007,-0.47529 0.30879,-1.01942 0.77004,-1.39011 0.32446,-0.26076 0.49887,-0.31917 0.95313,-0.31917 0.45425,0 0.62866,0.0584 0.95313,0.31917 0.76657,0.61608 0.9532,1.38762 0.52948,2.1889 -0.29853,0.56453 -0.81415,0.86553 -1.48261,0.86553 -0.27046,0 -0.65669,-0.0897 -0.86318,-0.20041 z m -27.985673,-3.49384 c -0.620708,-0.18511 -1.615817,-0.95681 -2.05016,-1.58987 -0.760941,-1.10909 -0.829649,-2.34163 -0.213094,-3.82266 0.434928,-1.04474 1.045878,-1.69527 2.029947,-2.16143 0.670823,-0.31779 0.809104,-0.34361 1.806642,-0.3373 0.968771,0.006 1.152657,0.0407 1.782358,0.33458 0.884186,0.41275 1.244253,0.77281 1.656987,1.657 0.293943,0.6297 0.328462,0.81358 0.334586,1.78235 0.0063,0.99755 -0.01951,1.13582 -0.337289,1.80665 -0.465834,0.98335 -1.116112,1.59408 -2.166587,2.03482 -0.923147,0.3873 -2.11937,0.51177 -2.84339,0.29586 z m 55.314203,-0.12439 c -1.4391,-0.51111 -2.0782,-1.04914 -2.6302,-2.21423 -0.31359,-0.66189 -0.33986,-0.80357 -0.33358,-1.79871 0.006,-0.96877 0.0407,-1.15265 0.33459,-1.78235 0.41274,-0.88419 0.77281,-1.24425 1.65699,-1.657 0.6297,-0.29393 0.81359,-0.32846 1.78236,-0.33458 0.99754,-0.006 1.13582,0.0195 1.80664,0.3373 0.98407,0.46616 1.59502,1.11669 2.02995,2.16143 0.82163,1.97364 0.37792,3.70886 -1.2397,4.84809 -1.0563,0.74391 -2.15276,0.88552 -3.40705,0.44005 z m -36.619405,-0.81754 c -3.289632,-0.39438 -6.617543,-2.25562 -8.929674,-4.9942 -0.904559,-1.07139 -1.371972,-1.77193 -2.004618,-3.00447 l -0.469398,-0.91449 -0.914495,-0.4694 c -3.369236,-1.72939 -5.928834,-4.52097 -7.203992,-7.85694 -0.656717,-1.71804 -0.818242,-2.62423 -0.827709,-4.64367 -0.0088,-1.87218 0.04197,-2.25164 0.505632,-3.78077 0.421177,-1.38902 1.328875,-3.03174 2.372604,-4.29386 l 0.424317,-0.51311 -0.424317,-0.5131 c -1.043729,-1.26213 -1.951427,-2.90485 -2.372604,-4.29387 -0.463658,-1.52913 -0.514406,-1.90859 -0.505632,-3.78077 0.0072,-1.53003 0.04942,-1.99855 0.253238,-2.80856 0.779444,-3.09767 2.368538,-5.65655 4.773985,-7.68743 1.07139,-0.90455 1.771943,-1.37197 3.004478,-2.00461 l 0.914495,-0.4694 0.469398,-0.91449 c 1.729385,-3.36924 4.520971,-5.92884 7.856933,-7.204 1.718047,-0.65672 2.62423,-0.81824 4.643672,-0.8277 1.872178,-0.009 2.251638,0.042 3.780766,0.50563 1.389026,0.42117 3.031746,1.32887 4.293866,2.3726 l 0.51311,0.42431 0.5131,-0.42431 c 1.26213,-1.04373 2.90485,-1.95143 4.29387,-2.3726 1.52912,-0.46366 1.90858,-0.51441 3.78076,-0.50563 1.53004,0.007 1.99856,0.0494 2.80857,0.25323 3.09767,0.77944 5.65654,2.36854 7.68742,4.77398 0.90456,1.0714 1.37197,1.77195 2.00462,3.00449 l 0.4694,0.91449 0.91449,0.4694 c 3.36924,1.72939 5.92884,4.52097 7.20399,7.85693 0.65672,1.71805 0.81824,2.62423 0.82771,4.64367 0.009,1.87218 -0.042,2.25164 -0.50563,3.78077 -0.42118,1.38902 -1.32888,3.03174 -2.37261,4.29387 l -0.4243,0.5131 0.4243,0.51311 c 1.04373,1.26212 1.95143,2.90484 2.37261,4.29386 0.46366,1.52913 0.51441,1.90859 0.50563,3.78077 -0.007,1.53003 -0.0494,1.99855 -0.25324,2.80857 -0.77944,3.09766 -2.36853,5.65654 -4.77398,7.68741 -1.07139,0.90457 -1.77194,1.37198 -3.00448,2.00463 l -0.91449,0.4694 -0.4694,0.91449 c -1.72938,3.36923 -4.52097,5.92883 -7.85693,7.20398 -1.71805,0.65672 -2.62423,0.81825 -4.64368,0.82771 -1.87218,0.009 -2.25164,-0.042 -3.78076,-0.50563 -1.38902,-0.42118 -3.03174,-1.32887 -4.29387,-2.3726 l -0.5131,-0.42431 -0.51311,0.42431 c -1.09031,0.90166 -2.74386,1.85882 -3.91579,2.26667 -1.541479,0.53647 -4.002045,0.78512 -5.725155,0.57854 z m 3.942796,-3.4861 c 1.176308,-0.30522 2.531869,-1.01999 3.595729,-1.89599 0.67816,-0.5584 0.88652,-0.79334 0.8868,-0.99993 0.001,-0.41928 -2.3779,-7.45357 -2.52013,-7.45319 -0.0693,0 -0.685044,0.17367 -1.368278,0.38556 -0.683238,0.21188 -1.874183,0.57996 -2.646539,0.81796 -3.147957,0.97002 -4.228974,1.30359 -6.900029,2.12915 -1.537359,0.47515 -2.841076,0.90979 -2.897144,0.96586 -0.153984,0.15398 0.711711,1.53389 1.607692,2.56266 1.811411,2.07986 4.453854,3.50025 7.001244,3.76338 0.804605,0.0831 2.372266,-0.0501 3.240655,-0.27546 z m 16.883239,0.0621 c 2.10861,-0.4852 4.26536,-1.80961 5.78117,-3.55005 0.89597,-1.02877 1.76167,-2.40869 1.6077,-2.56266 -0.0896,-0.0896 -1.38129,-0.50144 -7.06963,-2.25417 -3.14052,-0.96767 -4.19407,-1.29287 -5.37409,-1.65881 -0.68324,-0.21188 -1.29896,-0.38538 -1.36828,-0.38555 -0.16215,0 -2.54701,7.14262 -2.50108,7.49116 0.0475,0.36082 1.52659,1.57142 2.60597,2.13297 1.92238,1.00014 4.17365,1.28059 6.31824,0.78711 z m -10.51359,-8.81825 c 0.024,-0.0743 0.97035,-2.94041 2.10304,-6.36922 1.13269,-3.42879 2.05944,-6.3102 2.05944,-6.40313 0,-0.22132 0.91662,-1.13546 1.13854,-1.13546 0.0946,0 2.97602,-0.92678 6.40313,-2.0595 3.42712,-1.13271 6.29187,-2.07907 6.36614,-2.10303 0.0743,-0.024 0.13503,-0.0952 0.13503,-0.15835 0,-0.0631 -0.0608,-0.1344 -0.13503,-0.15835 -0.0743,-0.024 -2.93902,-0.97031 -6.36614,-2.10303 -3.42711,-1.13272 -6.30852,-2.05949 -6.40313,-2.05949 -0.22192,0 -1.13854,-0.91414 -1.13854,-1.13547 0,-0.0929 -0.92675,-2.97433 -2.05944,-6.40314 -1.13269,-3.4288 -2.07906,-6.29494 -2.10304,-6.3692 -0.024,-0.0743 -0.0953,-0.13503 -0.15839,-0.13503 -0.0631,0 -0.13443,0.0608 -0.1584,0.13503 -0.024,0.0743 -0.97035,2.9404 -2.10304,6.3692 -1.13269,3.42881 -2.05944,6.31022 -2.05944,6.40314 0,0.22133 -0.916614,1.13547 -1.138535,1.13547 -0.09462,0 -2.97603,0.92677 -6.403138,2.05949 -3.427109,1.13272 -6.291873,2.07907 -6.366137,2.10303 -0.07427,0.024 -0.135028,0.0952 -0.135028,0.15835 0,0.0631 0.06076,0.1344 0.135028,0.15835 0.07426,0.024 2.939028,0.97032 6.366137,2.10303 3.427108,1.13272 6.308522,2.0595 6.403138,2.0595 0.221921,0 1.138535,0.91414 1.138535,1.13546 0,0.0929 0.92675,2.97434 2.05944,6.40313 1.13269,3.42881 2.07906,6.29495 2.10304,6.36922 0.024,0.0743 0.0953,0.13502 0.1584,0.13502 0.0631,0 0.13442,-0.0608 0.15839,-0.13502 z m -0.91525,-15.6226 c -1.25453,-0.41162 -1.88539,-1.28362 -1.88539,-2.60609 0,-1.14474 0.43661,-1.89661 1.39999,-2.41087 0.60925,-0.32522 1.87527,-0.32522 2.48451,0 0.96338,0.51426 1.39999,1.26613 1.39999,2.41087 0,1.1465 -0.44506,1.91142 -1.39682,2.40072 -0.46565,0.2394 -1.55733,0.35136 -2.00228,0.20537 z m -20.086516,15.29853 c 0.05953,-0.13368 0.475073,-1.43399 0.923429,-2.88958 2.015126,-6.5421 2.393986,-7.77041 2.898683,-9.3979 0.211881,-0.68324 0.385384,-1.29897 0.385567,-1.36828 4.09e-4,-0.16216 -7.142632,-2.54702 -7.49117,-2.50109 -0.374491,0.0493 -1.59005,1.55462 -2.164986,2.681 -0.712054,1.395 -0.963819,2.47252 -0.959136,4.10496 0.0041,1.39911 0.158083,2.29812 0.579345,3.38051 0.998339,2.56513 2.689546,4.49456 5.33989,6.09205 0.305232,0.18399 0.366889,0.17114 0.488378,-0.10167 z m 42.308886,0.014 c 2.33826,-1.31333 4.22915,-3.49415 5.20613,-6.00437 0.42126,-1.08239 0.57533,-1.9814 0.57934,-3.38051 0.005,-1.63244 -0.24708,-2.70996 -0.95914,-4.10496 -0.57493,-1.12638 -1.79049,-2.63165 -2.16498,-2.68099 -0.34853,-0.0459 -7.4916,2.33893 -7.49117,2.50108 0,0.0693 0.17368,0.68504 0.38557,1.36828 0.50469,1.62749 0.88355,2.85581 2.89868,9.3979 0.81199,2.63611 0.98391,3.13263 1.0847,3.13263 0.0292,0 0.23656,-0.10307 0.46087,-0.22906 z m -36.992439,-1.21995 c 0.66772,-0.20283 2.089007,-0.64254 3.158425,-0.97712 2.877604,-0.9003 4.510045,-1.40626 5.779169,-1.79118 0.623823,-0.18921 1.191553,-0.39928 1.261613,-0.46683 0.09727,-0.0938 -0.102477,-0.81239 -0.844837,-3.03941 -0.534725,-1.60413 -1.053842,-2.99821 -1.153595,-3.09796 -0.09975,-0.0998 -1.493833,-0.61887 -3.097957,-1.1536 -2.227019,-0.74236 -2.94563,-0.9421 -3.039414,-0.84484 -0.06755,0.0701 -0.277628,0.63779 -0.466834,1.26162 -0.384922,1.26912 -0.890877,2.90156 -1.791177,5.77917 -0.994431,3.17845 -1.34592,4.36296 -1.34592,4.5357 0,0.23238 0.17641,0.20884 1.540527,-0.20555 z m 32.594369,0.20555 c 0,-0.17274 -0.35148,-1.35725 -1.34591,-4.5357 -0.9003,-2.87761 -1.40626,-4.51005 -1.79118,-5.77917 -0.18921,-0.62383 -0.39928,-1.19156 -0.46684,-1.26162 -0.0938,-0.0973 -0.81238,0.10248 -3.03941,0.84484 -1.60412,0.53473 -2.99821,1.05384 -3.09796,1.1536 -0.0998,0.0998 -0.61886,1.49383 -1.15359,3.09796 -0.74236,2.22702 -0.94211,2.94562 -0.84484,3.03941 0.0701,0.0676 0.63779,0.27762 1.26162,0.46683 1.60338,0.4863 3.70851,1.14133 8.85779,2.7562 1.30338,0.40876 1.62032,0.45133 1.62032,0.21765 z m -37.294558,-19.8298 c 1.983236,-0.66107 3.591601,-1.25368 3.591421,-1.32327 -2.16e-4,-0.0693 -0.173686,-0.68505 -0.385567,-1.36829 -0.365934,-1.18001 -0.69113,-2.23356 -1.658807,-5.37408 -1.751465,-5.68424 -2.16448,-6.97995 -2.25319,-7.06866 -0.182726,-0.18272 -1.485728,0.64954 -2.696764,1.72249 -0.894135,0.79219 -2.002155,2.21292 -2.490203,3.193 -0.861522,1.73007 -1.125588,2.80681 -1.130761,4.61066 -0.0047,1.63355 0.247478,2.71172 0.960042,4.10484 0.620781,1.21367 1.831094,2.69719 2.20205,2.69913 0.148517,0.001 1.886316,-0.53735 3.861779,-1.19582 z m 45.317228,0.30464 c 0.88397,-1.07568 1.58466,-2.40732 1.9176,-3.64433 0.3103,-1.1528 0.33914,-3.2082 0.0611,-4.3527 -0.73237,-3.01452 -2.82817,-5.74195 -5.61501,-7.30722 -0.26017,-0.14613 -0.45791,-0.1973 -0.52052,-0.13469 -0.0887,0.0887 -0.48091,1.31892 -2.24508,7.04165 -0.22894,0.74265 -0.6114,1.9822 -0.84992,2.75456 -1.07039,3.46598 -1.23884,4.05089 -1.1828,4.10693 0.13568,0.13567 7.08142,2.4121 7.3794,2.41855 0.27797,0.006 0.42805,-0.11952 1.05525,-0.88275 z m -35.35219,-3.60674 c 1.515006,-0.50355 2.836173,-0.99751 2.935926,-1.09769 0.09975,-0.10018 0.61887,-1.49461 1.153595,-3.09874 0.74236,-2.22702 0.942107,-2.94563 0.844837,-3.03941 -0.07006,-0.0676 -0.63779,-0.27763 -1.261613,-0.46683 -1.269124,-0.38492 -2.901565,-0.89088 -5.779169,-1.79118 -3.178455,-0.99443 -4.362961,-1.34592 -4.5357,-1.34592 -0.28292,0 -0.264201,0.0744 1.182668,4.69895 0.85555,2.73457 1.391867,4.46344 1.792765,5.77917 0.382261,1.25458 0.487787,1.44636 0.740401,1.34565 0.09445,-0.0376 1.411284,-0.48046 2.92629,-0.984 z m 23.73779,0.90761 c 0.0591,-0.0743 0.26298,-0.64544 0.45305,-1.26926 0.40091,-1.31573 0.93721,-3.0446 1.79277,-5.77917 0.99443,-3.17846 1.34591,-4.36296 1.34591,-4.5357 0,-0.28292 -0.0744,-0.2642 -4.69894,1.18267 -2.87761,0.9003 -4.51004,1.40626 -5.77917,1.79118 -0.62383,0.1892 -1.19156,0.39928 -1.26162,0.46683 -0.0973,0.0938 0.10256,0.8124 0.84515,3.03941 0.53489,1.60413 1.04163,2.98951 1.1261,3.07863 0.11236,0.11855 5.51022,2.0496 6.00151,2.14699 0.0373,0.007 0.11614,-0.0473 0.17524,-0.12158 z m -16.4013,-14.90704 c 0.65848,-1.97546 1.19706,-3.71327 1.19686,-3.86178 0,-0.37224 -1.48034,-1.58033 -2.69579,-2.20076 -1.399183,-0.71423 -2.475468,-0.96602 -4.109208,-0.96134 -1.803858,0.005 -2.880592,0.26925 -4.610667,1.13076 -1.031621,0.51372 -2.452712,1.64042 -3.308763,2.62335 -0.895981,1.02876 -1.761676,2.40867 -1.607692,2.56265 0.08957,0.0896 1.381277,0.50144 7.069622,2.25417 3.393957,1.04576 4.204743,1.29732 5.320076,1.65061 0.653532,0.20702 1.269262,0.38037 1.368282,0.38524 0.14222,0.007 0.43163,-0.74592 1.37728,-3.5829 z m 8.54272,3.20585 c 1.18002,-0.36594 2.23357,-0.69113 5.37409,-1.6588 5.68834,-1.75273 6.98006,-2.1646 7.06963,-2.25417 0.15397,-0.15398 -0.71173,-1.53389 -1.6077,-2.56265 -0.85605,-0.98293 -2.27715,-2.10963 -3.30877,-2.62335 -1.73007,-0.86151 -2.8068,-1.12558 -4.61066,-1.13076 -1.63244,-0.005 -2.70995,0.24709 -4.10496,0.95914 -1.12637,0.57494 -2.63165,1.79049 -2.68099,2.16499 -0.0459,0.34853 2.33893,7.49159 2.50108,7.49117 0.0693,-2.2e-4 0.68504,-0.17369 1.36828,-0.38557 z m -48.501803,20.26552 c -1.559491,-0.33774 -2.700549,-1.70852 -2.700549,-3.24426 0,-1.31435 0.845771,-2.52747 2.160438,-3.09881 0.621851,-0.27026 1.686117,-0.22208 2.332194,0.10556 1.941111,0.98438 2.390324,3.61147 0.906506,5.30144 -0.641501,0.73063 -1.796775,1.13136 -2.698589,0.93607 z m 84.689123,0.004 c -0.97845,-0.20128 -1.77025,-0.88827 -2.24325,-1.94626 -0.69566,-1.55608 0.005,-3.52122 1.53138,-4.29531 0.64608,-0.32764 1.71035,-0.37582 2.3322,-0.10556 1.31466,0.57134 2.16043,1.78447 2.16043,3.09881 0,1.95598 -1.94402,3.62623 -3.78076,3.24834 z m -76.046015,-1.76573 c -0.564525,-0.29855 -0.865536,-0.81417 -0.865536,-1.48263 0,-0.66846 0.301011,-1.18408 0.865536,-1.48261 0.801286,-0.42373 1.572821,-0.2371 2.188899,0.52948 0.260763,0.32446 0.31917,0.49888 0.31917,0.95313 0,0.45425 -0.05841,0.62867 -0.31917,0.95313 -0.616078,0.76658 -1.387613,0.9532 -2.188899,0.52948 z m 66.981825,0.0515 c -0.20264,-0.1011 -0.51206,-0.36255 -0.6876,-0.58098 -0.26077,-0.32446 -0.31917,-0.49887 -0.31917,-0.95313 0,-0.45425 0.0584,-0.62866 0.31917,-0.95313 0.61608,-0.76658 1.38761,-0.9532 2.1889,-0.52948 0.56452,0.29853 0.86553,0.81415 0.86553,1.48261 0,0.66846 -0.30101,1.18409 -0.86553,1.48261 -0.54737,0.28946 -0.99378,0.30478 -1.5013,0.0515 z M 76.188717,124.93698 c -1.282671,-0.32499 -2.254671,-1.18052 -2.782934,-2.44947 -0.823859,-1.979 -0.378594,-3.70843 1.250075,-4.85536 1.145205,-0.80647 2.348529,-0.88637 3.861718,-0.25643 1.044742,0.43492 1.695265,1.04588 2.161438,2.02995 0.317782,0.67082 0.343597,0.8091 0.337289,1.80663 -0.0061,0.96878 -0.04066,1.15267 -0.334586,1.78237 -0.412473,0.88362 -0.77581,1.24739 -1.640905,1.64284 -0.7619,0.34828 -2.103492,0.48914 -2.852095,0.29947 z m 54.686503,0.0174 c -0.59453,-0.12824 -1.53638,-0.60142 -1.87987,-0.94443 -0.17244,-0.17222 -0.46103,-0.62908 -0.6413,-1.01526 -0.29394,-0.6297 -0.32846,-0.81359 -0.33459,-1.78236 -0.006,-0.99754 0.0195,-1.13582 0.3373,-1.80664 0.46617,-0.98407 1.1167,-1.59502 2.16143,-2.02995 1.51319,-0.62994 2.71651,-0.55003 3.86172,0.25643 1.62867,1.14693 2.07394,2.87637 1.25008,4.85537 -0.64612,1.55203 -1.89112,2.43495 -3.53962,2.51019 -0.46038,0.021 -1.00721,0.002 -1.21515,-0.0434 z m -26.70988,-8.21501 c -0.69062,-0.14795 -1.37581,-1.01177 -1.37581,-1.7345 0,-0.46288 0.4479,-1.19991 0.86518,-1.42371 0.20649,-0.11073 0.59272,-0.20041 0.86318,-0.20041 0.27045,0 0.65668,0.0897 0.86316,0.20041 0.43454,0.23305 0.86766,0.97032 0.86,1.46391 -0.0158,1.01575 -1.10249,1.90278 -2.07571,1.6943 z m -0.18756,-7.56338 c -0.58964,-0.12069 -1.32251,-0.483 -1.76778,-0.87396 -1.46449,-1.28583 -1.22081,-3.67597 0.49237,-4.8297 1.75618,-1.18268 4.02871,-0.44708 4.91433,1.59074 0.27026,0.62185 0.22208,1.68612 -0.10556,2.33219 -0.61918,1.22097 -2.25075,2.04324 -3.53336,1.78073 z m -24.412939,93.93105 c 0,-0.0219 0.08098,-0.47157 0.179942,-0.99921 0.23594,-1.25786 0.268516,-5.45862 0.051,-6.57648 -0.316202,-1.62501 -0.791308,-3.21376 -1.044567,-3.49301 -0.10582,-0.11669 -0.366428,0.18073 -1.359985,1.5521 -0.675992,0.93305 -1.695131,2.33951 -2.264752,3.12546 -0.569616,0.78595 -1.213697,1.66216 -1.431285,1.94713 -0.217593,0.28497 -0.395619,0.58121 -0.395619,0.65831 0,0.0771 0.765603,0.61438 1.70134,1.19395 0.935742,0.57957 2.260359,1.40631 2.943597,1.83722 1.053619,0.6645 1.620328,0.9284 1.620328,0.75453 z m 51.772069,-0.91532 c 0.84519,-0.52534 2.18079,-1.35447 2.968,-1.84252 0.78721,-0.48803 1.43129,-0.9505 1.43129,-1.02769 0,-0.0772 -0.17803,-0.37351 -0.39562,-0.65848 -0.21759,-0.28497 -0.86167,-1.16118 -1.43129,-1.94713 -0.56962,-0.78595 -1.58875,-2.19241 -2.26475,-3.12546 -0.99356,-1.37137 -1.25416,-1.66879 -1.35999,-1.5521 -0.25326,0.27925 -0.72836,1.868 -1.04456,3.49301 -0.21751,1.11786 -0.18494,5.31862 0.051,6.57648 0.099,0.52764 0.17994,0.97727 0.17994,0.99921 0,0.17263 0.54865,-0.0965 1.86598,-0.91532 z m -98.2675,-11.15617 c 0.0411,-0.0665 0.11471,-0.83212 0.16358,-1.70135 0.0489,-0.86924 0.1411,-2.47971 0.20495,-3.57884 0.24426,-4.2045 0.3059,-5.56167 0.25624,-5.64202 -0.0282,-0.0457 -0.20868,-0.0831 -0.40096,-0.0831 -0.55449,0 -2.40227,-0.41638 -3.58046,-0.80682 -1.28027,-0.42426 -2.05877,-0.77897 -3.27635,-1.4928 -0.49493,-0.29017 -0.91209,-0.51123 -0.92702,-0.49125 -0.0302,0.0405 -0.38111,0.96378 -0.71162,1.87269 -0.11883,0.32676 -0.31327,0.86147 -0.43209,1.18823 -0.11883,0.32677 -0.30997,0.84933 -0.42477,1.16124 -0.11479,0.31191 -0.45836,1.27195 -0.76347,2.13342 -0.30511,0.86148 -0.64868,1.82152 -0.76348,2.13344 -0.20116,0.54659 -0.38483,1.05041 -0.86634,2.37648 -0.12405,0.34162 -0.2722,0.7379 -0.32924,0.8806 -0.16748,0.41909 -0.18346,0.41386 2.33714,0.76673 0.35647,0.0499 1.0127,0.14713 1.45829,0.21604 0.44559,0.0689 1.10183,0.1661 1.4583,0.21595 0.71184,0.0995 3.05485,0.44725 5.07702,0.75344 0.71295,0.10796 1.32985,0.20136 1.37091,0.20757 0.041,0.006 0.10826,-0.0431 0.14937,-0.10962 z m 144.7413,-0.15779 c 0.65353,-0.0941 1.82016,-0.26483 2.59252,-0.37932 0.77236,-0.11448 1.74455,-0.25592 2.16043,-0.31432 0.41589,-0.0584 1.07212,-0.15556 1.4583,-0.21591 0.38618,-0.0603 1.04241,-0.15756 1.45829,-0.21601 1.82519,-0.25654 2.26913,-0.33557 2.3523,-0.41873 0.0487,-0.0487 0.0419,-0.20531 -0.0152,-0.34803 -0.057,-0.1427 -0.2052,-0.53898 -0.32924,-0.8806 -0.4815,-1.32607 -0.66517,-1.82989 -0.86634,-2.37648 -0.11481,-0.31192 -0.45837,-1.27196 -0.76348,-2.13344 -0.30511,-0.86147 -0.64867,-1.82151 -0.76348,-2.13342 -0.11479,-0.31192 -0.30594,-0.83447 -0.42476,-1.16124 -0.11882,-0.32676 -0.31326,-0.86147 -0.43209,-1.18824 -0.33051,-0.9089 -0.68137,-1.83223 -0.71161,-1.87269 -0.0149,-0.02 -0.4321,0.20109 -0.92702,0.49125 -1.2176,0.71383 -1.9961,1.06855 -3.27636,1.49281 -1.17818,0.39044 -3.02597,0.80682 -3.58046,0.80682 -0.19228,0 -0.37271,0.0374 -0.40097,0.0831 -0.0497,0.0804 0.012,1.43752 0.25624,5.64202 0.0639,1.09913 0.15608,2.7096 0.20496,3.57884 0.0489,0.86923 0.12151,1.63325 0.1614,1.6978 0.0399,0.0646 0.20433,0.0948 0.36541,0.0671 0.16107,-0.0276 0.82758,-0.12725 1.48111,-0.22139 z M 54.342704,179.31051 c 0.284969,-0.21758 1.161177,-0.86166 1.947129,-1.43128 0.785951,-0.56963 2.192405,-1.58876 3.125453,-2.26476 1.371368,-0.99355 1.668789,-1.25415 1.552109,-1.35999 -0.279249,-0.25325 -1.868005,-0.72835 -3.49302,-1.04455 -1.117851,-0.21752 -5.318618,-0.18495 -6.576479,0.051 -0.527633,0.099 -0.977275,0.17994 -0.999199,0.17994 -0.172634,0 0.09649,0.54864 0.915312,1.86598 0.525343,0.84519 1.354477,2.18079 1.842513,2.968 0.48804,0.78721 0.950501,1.43129 1.027697,1.43129 0.0772,0 0.373511,-0.17803 0.658485,-0.39562 z m 102.036546,-1.03567 c 0.48804,-0.7872 1.31717,-2.1228 1.84251,-2.968 0.81882,-1.31733 1.08795,-1.86598 0.91532,-1.86598 -0.0219,0 -0.47157,-0.081 -0.99921,-0.17994 -1.25786,-0.23594 -5.45862,-0.26851 -6.57647,-0.051 -1.62502,0.3162 -3.21377,0.79131 -3.49302,1.04456 -0.11669,0.10583 0.18073,0.36643 1.5521,1.35999 0.93305,0.676 2.33951,1.69513 3.12546,2.26475 0.78595,0.56962 1.66216,1.2137 1.94713,1.43129 0.28497,0.21759 0.58128,0.39562 0.65848,0.39562 0.0772,0 0.53967,-0.64408 1.0277,-1.43129 z M 37.7647,175.0535 c 1.758915,-0.47462 1.772339,-0.48628 5.518737,-4.79928 3.210594,-3.69616 7.829447,-8.99826 9.187509,-10.54658 0.3457,-0.39414 0.628542,-0.79241 0.628542,-0.88506 0,-0.0926 -0.104635,-0.24175 -0.232522,-0.33132 -0.600343,-0.4205 -2.609292,-2.39769 -3.522796,-3.46711 -1.746818,-2.04496 -2.672994,-3.58314 -3.20732,-5.32666 -0.341294,-1.11365 -0.341294,-1.30569 0,-2.41934 0.534326,-1.74352 1.460502,-3.2817 3.20732,-5.32666 0.913504,-1.06941 2.922453,-3.04661 3.522796,-3.46711 0.127887,-0.0896 0.232522,-0.23867 0.232522,-0.33132 0,-0.0927 -0.282842,-0.49092 -0.628542,-0.88505 -1.358062,-1.54833 -5.976915,-6.85043 -9.187509,-10.54659 -3.757666,-4.32597 -3.754506,-4.32324 -5.559462,-4.81026 -1.140466,-0.30774 -2.919445,-0.267 -3.894415,0.0892 -2.63541,0.96275 -4.27874,3.61147 -4.27881,6.89659 -4e-5,1.63275 0.5147,3.63196 1.31255,5.09782 0.70158,1.28899 0.66551,1.23877 6.423987,8.94286 1.559589,2.08652 2.935795,3.958 3.058236,4.15884 0.323927,0.53133 0.323927,2.25142 0,2.78275 -0.122441,0.20083 -1.498647,2.07231 -3.058236,4.15884 -4.400537,5.88734 -5.053687,6.76978 -5.539787,7.48456 -2.41223,3.54705 -2.8614,7.41356 -1.2322,10.60704 0.51975,1.01881 1.93406,2.3115 2.97823,2.72214 1.23624,0.48618 2.921918,0.56579 4.27117,0.20172 z m -1.70041,-6.3548 c -0.89536,-0.56255 -0.91137,-1.79301 -0.03295,-2.53214 0.65272,-0.54923 1.517525,-0.46517 2.173119,0.21124 0.900533,0.92911 0.183935,2.39185 -1.222749,2.4959 -0.438189,0.0324 -0.652303,-0.008 -0.917418,-0.175 z m 6.298898,-9.44812 c -0.600947,-0.36377 -0.928821,-0.95617 -0.929503,-1.67943 -0.0012,-1.1407 0.805042,-1.95389 1.936905,-1.95389 0.628787,0 1.010795,0.16393 1.425023,0.61148 0.414539,0.4479 0.526303,0.7189 0.526303,1.27611 0,1.51186 -1.693943,2.51133 -2.958728,1.74573 z m 0,-18.14767 c -1.25599,-0.76028 -1.245089,-2.68083 0.01927,-3.39143 1.294139,-0.72735 2.939477,0.25741 2.939477,1.75932 0,0.55721 -0.111764,0.8282 -0.526303,1.2761 -0.41662,0.45014 -0.796982,0.61155 -1.439728,0.61093 -0.409525,-4.1e-4 -0.692094,-0.073 -0.992696,-0.25492 z m -5.899009,-10.01994 c -1.260069,-0.50246 -1.452109,-2.26594 -0.311009,-2.85603 1.061768,-0.54906 2.564799,0.40868 2.439263,1.55431 -0.105178,0.95984 -1.241945,1.65514 -2.128254,1.30172 z m 138.742031,43.89319 c 3.66863,-1.34509 5.21519,-5.72625 3.66747,-10.38936 -0.14857,-0.44764 -0.46411,-1.1703 -0.70121,-1.60591 -0.70158,-1.28898 -0.66551,-1.23877 -6.42398,-8.94285 -1.55959,-2.08653 -2.9358,-3.95801 -3.05824,-4.15884 -0.32393,-0.53133 -0.32393,-2.25143 0,-2.78275 0.12244,-0.20084 1.49865,-2.07232 3.05824,-4.15884 5.75847,-7.70409 5.7224,-7.65388 6.42398,-8.94286 0.79785,-1.46586 1.31258,-3.46507 1.31255,-5.09782 -6e-5,-3.28512 -1.64339,-5.93384 -4.27881,-6.8966 -0.97497,-0.35617 -2.75395,-0.39691 -3.89441,-0.0892 -1.80496,0.48703 -1.8018,0.4843 -5.55947,4.81027 -3.21059,3.69616 -7.82944,8.99826 -9.1875,10.54659 -0.3457,0.39413 -0.62855,0.7924 -0.62855,0.88505 0,0.0926 0.10464,0.24175 0.23253,0.33132 0.12788,0.0896 0.74426,0.63874 1.36973,1.22037 1.98348,1.84446 3.91416,4.27649 4.74288,5.9745 0.4042,0.82819 0.89233,2.36456 0.89233,2.80857 0,0.44401 -0.48813,1.98038 -0.89233,2.80857 -0.82872,1.69801 -2.7594,4.13004 -4.74288,5.9745 -0.62547,0.58162 -1.24185,1.13079 -1.36973,1.22037 -0.45678,0.31994 -1.1864,-0.58939 7.66545,9.5535 2.10232,2.40893 4.16266,4.77911 4.57855,5.26707 0.83071,0.97467 1.40453,1.33005 2.81031,1.74051 1.04354,0.3047 3.04888,0.26634 3.98309,-0.0762 z m -3.77415,-6.22416 c -0.38802,-0.16901 -0.88551,-0.72778 -0.97875,-1.09933 -0.17093,-0.68098 0.31741,-1.45399 1.11733,-1.76868 0.93977,-0.36969 2.08188,0.49935 2.08082,1.5833 -0.001,1.08974 -1.14576,1.75236 -2.2194,1.28471 z m -6.77384,-9.56444 c -0.60857,-0.38595 -0.94437,-0.98429 -0.94437,-1.68271 0,-0.55721 0.11178,-0.82821 0.52631,-1.27611 0.41501,-0.44841 0.79643,-0.61148 1.43024,-0.61148 1.12161,0 1.93224,0.81573 1.93224,1.94439 0,1.57544 -1.61648,2.46805 -2.94442,1.62591 z m 0.18986,-17.95495 c -0.34412,-0.18985 -0.81635,-0.65931 -0.98184,-0.97609 -0.0838,-0.16043 -0.15239,-0.51479 -0.15239,-0.78746 0,-1.50016 1.64619,-2.48445 2.93948,-1.75758 1.26046,0.70841 1.27355,2.65445 0.0228,3.38744 -0.48508,0.28428 -1.42987,0.35337 -1.82804,0.13369 z m 6.58934,-10.18414 c -0.90891,-0.41897 -1.27735,-1.39629 -0.7927,-2.10267 0.37414,-0.54531 0.76749,-0.79019 1.36088,-0.8472 1.65124,-0.15867 2.26107,1.78462 0.88075,2.80665 -0.36006,0.26661 -1.03627,0.33345 -1.44893,0.14322 z M 28.29775,174.76413 c -1.40728,-2.11557 -1.98745,-4.06261 -1.98757,-6.67034 -10e-5,-2.18229 0.39909,-4.01812 1.29187,-5.9412 0.5719,-1.23192 1.08593,-2.04266 2.5132,-3.96389 1.80194,-2.42558 1.68477,-2.19507 1.22643,-2.41257 -0.21086,-0.10006 -1.72543,-1.35552 -3.36571,-2.78992 -1.64029,-1.4344 -3.06287,-2.62142 -3.16129,-2.63783 -0.12443,-0.0207 -0.33385,0.24254 -0.68743,0.86417 -3.03121,5.32941 -3.80617,11.20978 -2.12509,16.12508 0.30577,0.89407 1.18234,2.67514 1.70531,3.46498 0.92184,1.39227 2.43148,2.87228 3.88861,3.81226 0.81006,0.52255 0.97305,0.55723 0.70167,0.14926 z m 153.14195,-0.14926 c 4.06257,-2.62075 6.4716,-7.36464 6.46569,-12.73234 -0.004,-3.54998 -1.0348,-7.2203 -2.99687,-10.66998 -0.35357,-0.62163 -0.563,-0.88491 -0.68743,-0.86417 -0.0984,0.0164 -1.52099,1.20343 -3.16128,2.63783 -1.64029,1.4344 -3.15487,2.68986 -3.36572,2.78992 -0.45834,0.2175 -0.57551,-0.013 1.22642,2.41257 1.42728,1.92123 1.9413,2.73197 2.51321,3.96389 0.89278,1.92308 1.29197,3.75891 1.29187,5.9412 0,2.60773 -0.58028,4.55477 -1.98757,6.67034 -0.27138,0.40797 -0.10839,0.37329 0.70168,-0.14926 z M 65.965545,172.73749 c 0.03744,-0.29638 0.125425,-1.07358 0.195505,-1.72711 0.07008,-0.65354 0.170506,-1.52852 0.223169,-1.9444 0.209162,-1.65182 0.335493,-2.83393 0.357222,-3.34261 l 0.02282,-0.53402 -1.088346,-0.18418 c -2.68699,-0.4547 -4.986942,-1.35945 -8.119308,-3.19401 -0.845959,-0.49545 -1.582828,-0.90083 -1.637487,-0.90083 -0.05466,0 -1.039553,1.07878 -2.18865,2.3973 -1.149096,1.3185 -3.04729,3.49379 -4.218212,4.83398 -1.170919,1.34017 -2.089432,2.45052 -2.041142,2.46744 0.04829,0.0169 0.52022,-0.0654 1.048732,-0.18288 2.283491,-0.50771 3.13942,-0.59528 5.821903,-0.5956 3.175748,0 4.738591,0.23856 7.093979,1.08462 1.428521,0.51314 3.417706,1.62472 3.917602,2.1892 0.329434,0.37199 0.534378,0.24917 0.612219,-0.3669 z m 77.720525,0.3629 c 0.49622,-0.56054 2.49004,-1.67371 3.91398,-2.1852 2.35539,-0.84606 3.91823,-1.08502 7.09398,-1.08462 2.68249,0 3.53841,0.0879 5.8219,0.5956 0.52851,0.11751 1.00043,0.1998 1.04873,0.18288 0.0483,-0.0169 -0.87022,-1.12727 -2.04113,-2.46744 -1.17093,-1.34019 -3.06912,-3.51548 -4.21822,-4.83398 -1.1491,-1.31852 -2.13399,-2.3973 -2.18865,-2.3973 -0.0547,0 -0.79153,0.40538 -1.63749,0.90083 -3.13944,1.8387 -5.6785,2.82889 -8.23545,3.21166 -0.4753,0.0712 -0.90205,0.16316 -0.94834,0.20443 -0.0463,0.0413 -0.0342,0.5087 0.0268,1.03871 0.11107,0.96429 0.23217,1.9956 0.43662,3.71821 0.0599,0.505 0.15847,1.40428 0.21896,1.9984 0.0605,0.59412 0.13139,1.14098 0.15756,1.21525 0.0725,0.20561 0.32144,0.16157 0.55072,-0.0974 z M 17.88437,160.98448 c 0,-0.93335 0.23449,-2.74795 0.53865,-4.16826 0.48268,-2.25403 1.86498,-5.69246 3.03006,-7.53724 0.23545,-0.37281 0.4281,-0.72883 0.4281,-0.79116 0,-0.0623 -0.19265,-0.41834 -0.4281,-0.79116 -1.16508,-1.84478 -2.54738,-5.28321 -3.03006,-7.53724 -0.30416,-1.42031 -0.53865,-3.23491 -0.53865,-4.16826 0,-0.66935 -0.0278,-0.79003 -0.18235,-0.79003 -0.32492,0 -2.12787,1.96803 -2.98198,3.255 -1.57831,2.37821 -2.55629,4.5488 -3.27878,7.27713 -0.28849,1.08946 -0.28849,4.41966 0,5.50912 0.72249,2.72833 1.70047,4.89893 3.27878,7.27713 0.85411,1.28697 2.65706,3.255 2.98198,3.255 0.1545,0 0.18235,-0.12067 0.18235,-0.79003 z m 174.6241,-0.22352 c 1.88969,-1.93004 3.6179,-4.91421 4.63666,-8.00627 0.59519,-1.80648 0.64961,-2.16392 0.64961,-4.26687 0,-2.10295 -0.0544,-2.46039 -0.64961,-4.26686 -0.69586,-2.11204 -1.52116,-3.79356 -2.8294,-5.76483 -0.85411,-1.28697 -2.65706,-3.255 -2.98198,-3.255 -0.15514,0 -0.18286,0.12493 -0.18577,0.83717 -0.005,1.24883 -0.33626,3.48043 -0.74169,4.99804 -0.56398,2.11115 -1.81663,5.0659 -2.8236,6.66032 -0.23545,0.37282 -0.4281,0.72883 -0.4281,0.79116 0,0.0623 0.19265,0.41835 0.4281,0.79116 1.00697,1.59443 2.25962,4.54917 2.8236,6.66032 0.40543,1.51762 0.73659,3.74921 0.74169,4.99804 0.003,0.71224 0.0306,0.83717 0.18577,0.83717 0.1003,0 0.62892,-0.4561 1.17472,-1.01355 z m -157.15812,-9.5996 c 1.216877,-1.61659 1.809206,-2.4919 1.809206,-2.67354 0,-0.18165 -0.59268,-1.05741 -1.810416,-2.67515 l -1.81041,-2.40509 -1.4809,1.32903 c -0.81449,0.73096 -2.06421,1.83499 -2.77716,2.45338 -0.71294,0.61841 -1.29626,1.20332 -1.29626,1.29983 0,0.0965 0.73431,0.81291 1.63181,1.59203 0.89749,0.77911 2.13704,1.87854 2.75455,2.44318 0.61752,0.56463 1.13347,1.02958 1.14656,1.03321 0.0131,0.004 0.83795,-1.07496 1.83302,-2.39688 z m 144.40475,-1.37571 c 0.71294,-0.61841 1.29626,-1.20242 1.29626,-1.29783 0,-0.0954 -0.58332,-0.67942 -1.29626,-1.29783 -0.71295,-0.61839 -1.96267,-1.72242 -2.77716,-2.45338 l -1.4809,-1.32903 -1.81042,2.40509 c -1.21773,1.61774 -1.81041,2.4935 -1.81041,2.67515 0,0.18165 0.59268,1.05741 1.81041,2.67515 l 1.81042,2.4051 1.4809,-1.32904 c 0.81449,-0.73096 2.06421,-1.83499 2.77716,-2.45338 z M 27.97597,143.98944 c 1.64028,-1.43441 3.15485,-2.68987 3.36571,-2.78993 0.45834,-0.21749 0.57551,0.013 -1.22643,-2.41257 -1.42727,-1.92124 -1.9413,-2.73197 -2.5132,-3.96388 -0.89278,-1.92309 -1.29197,-3.75892 -1.29187,-5.9412 1.1e-4,-2.60774 0.58029,-4.55478 1.98757,-6.67035 0.27138,-0.40797 0.10839,-0.3733 -0.70167,0.14927 -4.06258,2.62074 -6.47161,7.36463 -6.46569,12.73233 0.004,3.54998 1.03479,7.2203 2.99686,10.66998 0.35358,0.62163 0.563,0.88491 0.68743,0.86417 0.0984,-0.0164 1.521,-1.20342 3.16129,-2.63782 z m 156.93255,1.77047 c 3.02777,-5.30448 3.80588,-11.20748 2.1251,-16.1219 -0.30578,-0.89406 -1.18235,-2.67514 -1.70532,-3.46499 -0.92184,-1.39226 -2.43147,-2.87226 -3.8886,-3.81224 -0.81007,-0.52257 -0.97306,-0.55724 -0.70168,-0.14927 1.40729,2.11557 1.98745,4.06261 1.98757,6.67035 10e-5,2.18228 -0.39909,4.01811 -1.29187,5.9412 -0.57191,1.23191 -1.08593,2.04264 -2.51321,3.96388 -1.80239,2.42618 -1.68504,2.19494 -1.22468,2.4134 0.21181,0.10051 1.73399,1.36605 3.38262,2.81231 1.64864,1.44626 3.07043,2.63149 3.15955,2.63383 0.092,0.002 0.38171,-0.38059 0.67052,-0.88657 z M 57.556597,135.16448 c 3.132627,-1.8347 5.433216,-2.73968 8.119308,-3.19387 l 1.088346,-0.18402 -0.02629,-0.5882 c -0.01445,-0.3235 -0.07695,-1.00137 -0.138857,-1.50637 -0.06191,-0.505 -0.160912,-1.33137 -0.220014,-1.83637 -0.0591,-0.505 -0.151938,-1.28276 -0.206307,-1.72835 -0.05437,-0.44559 -0.131109,-1.16614 -0.170527,-1.60122 -0.08525,-0.94096 -0.232148,-1.05858 -0.73041,-0.58483 -0.997812,0.94872 -3.296323,2.05482 -5.432869,2.61443 -1.872587,0.49048 -2.798248,0.58973 -5.497221,0.58939 -2.682483,-3.2e-4 -3.538412,-0.0879 -5.821908,-0.59559 -0.528507,-0.11751 -1.000432,-0.19981 -1.048727,-0.18289 -0.04829,0.0169 0.870223,1.12727 2.041142,2.46745 1.170922,1.34018 3.069116,3.51547 4.218212,4.83398 1.149093,1.31851 2.133986,2.39729 2.18865,2.39729 0.05466,0 0.791528,-0.40537 1.637487,-0.90083 z m 97.748713,-1.49646 c 1.1491,-1.31851 3.04729,-3.4938 4.21822,-4.83398 1.17091,-1.34018 2.08942,-2.45053 2.04113,-2.46745 -0.0483,-0.0169 -0.52022,0.0654 -1.04873,0.18289 -2.28349,0.5077 -3.13941,0.59526 -5.8219,0.59559 -2.69898,3.3e-4 -3.62464,-0.0989 -5.49722,-0.58939 -2.13655,-0.55961 -4.43506,-1.66571 -5.43287,-2.61443 -0.49826,-0.47375 -0.64516,-0.35613 -0.73042,0.58483 -0.0394,0.43508 -0.11615,1.15563 -0.17052,1.60122 -0.0544,0.44559 -0.15065,1.24765 -0.21398,1.78236 -0.0633,0.53471 -0.16231,1.36108 -0.22001,1.83637 -0.0577,0.4753 -0.11673,1.12886 -0.13119,1.45236 l -0.0263,0.5882 1.08834,0.18402 c 2.70487,0.45736 5.18539,1.4418 8.25555,3.27636 0.74265,0.44377 1.40661,0.80943 1.47546,0.81259 0.0688,0.003 1.06534,-1.07303 2.21445,-2.39154 z m -97.776925,-9.91441 c 1.790316,-0.372 3.183865,-0.78853 3.43901,-1.02793 0.117995,-0.11071 -0.165297,-0.35977 -1.552109,-1.36452 -0.933048,-0.67599 -2.339502,-1.69512 -3.125453,-2.26474 -0.785952,-0.56962 -1.66216,-1.2137 -1.947129,-1.43129 -0.284974,-0.21759 -0.581289,-0.39562 -0.658485,-0.39562 -0.0772,0 -0.539657,0.64408 -1.027697,1.43129 -0.488036,0.78721 -1.31717,2.12281 -1.842513,2.96799 -0.525348,0.84519 -0.955176,1.60693 -0.955176,1.69276 0,0.0858 0.133676,0.1815 0.297063,0.21259 0.530683,0.101 1.798583,0.28772 2.241451,0.33011 0.837251,0.0801 4.544197,-0.0287 5.131038,-0.15064 z m 100.298275,0.0121 c 0.29706,-0.0599 0.7224,-0.13852 0.94519,-0.17477 0.25577,-0.0416 0.40509,-0.12481 0.40509,-0.22567 0,-0.0879 -0.42983,-0.85126 -0.95518,-1.69645 -0.52534,-0.84519 -1.35447,-2.18079 -1.84251,-2.96799 -0.48803,-0.78721 -0.95051,-1.43129 -1.0277,-1.43129 -0.0772,0 -0.37351,0.17803 -0.65848,0.39562 -0.28497,0.21759 -1.16118,0.86167 -1.94713,1.43129 -0.78595,0.56962 -2.19241,1.58875 -3.12546,2.26474 -1.37137,0.99356 -1.66879,1.25417 -1.5521,1.35999 0.39993,0.36271 2.80077,0.97695 4.62725,1.18386 0.68465,0.0776 4.57968,-0.0282 5.13103,-0.13933 z M 46.684906,122.10591 c 0.09916,-0.19176 0.386796,-0.6657 0.63919,-1.05321 0.961704,-1.47655 3.504643,-5.61487 4.014252,-6.53271 0.598359,-1.07768 0.95469,-1.3553 1.739551,-1.3553 0.600527,0 0.599314,-8.2e-4 2.815837,1.60854 1.031828,0.74913 2.447342,1.77524 3.145577,2.28024 1.969028,1.42411 2.973098,2.15546 3.982182,2.90058 0.698304,0.51564 0.970078,0.66078 1.093727,0.58412 0.09049,-0.0561 0.371662,-0.48639 0.624823,-0.95618 l 0.460297,-0.85418 -0.05409,-1.08022 c -0.02976,-0.59412 -0.101815,-1.46909 -0.16014,-1.94439 -0.05833,-0.47529 -0.157364,-1.30166 -0.220083,-1.83637 -0.06272,-0.53471 -0.172678,-1.43399 -0.244355,-1.9984 -0.202731,-1.59643 -0.176553,-2.41204 0.08882,-2.7672 0.440672,-0.58978 0.760238,-0.74366 1.540327,-0.74173 0.396799,8.2e-4 1.183248,0.0604 1.747663,0.13212 0.564415,0.0717 1.463694,0.18163 1.998403,0.24435 0.53471,0.0627 1.361076,0.16176 1.836373,0.22008 0.475294,0.0583 1.350272,0.13039 1.944393,0.16014 l 1.080217,0.0541 0.854178,-0.46029 c 0.469794,-0.25316 0.900079,-0.53434 0.956184,-0.62483 0.07666,-0.12364 -0.06849,-0.39542 -0.584122,-1.09373 -0.74512,-1.00908 -1.476473,-2.01315 -2.900578,-3.98217 -0.505003,-0.69824 -1.531112,-2.11375 -2.280241,-3.145584 -1.609239,-2.216522 -1.608545,-2.21531 -1.608545,-2.815834 0,-0.784861 0.277621,-1.141192 1.355307,-1.739553 0.917831,-0.509608 5.056157,-3.052548 6.532703,-4.014253 0.387511,-0.252392 0.861457,-0.540027 1.053214,-0.639189 0.191761,-0.09916 0.348656,-0.258036 0.348656,-0.353052 0,-0.306808 -0.561921,-1.463977 -1.355935,-2.792296 -0.42617,-0.712944 -1.031147,-1.774618 -1.344393,-2.359276 -0.637243,-1.189375 -0.524123,-1.140639 -1.674559,-0.721436 -4.91256,1.790077 -9.277709,6.598396 -10.954798,12.066987 -0.698153,2.276511 -0.803013,3.062935 -0.811677,6.087336 -0.01127,3.92865 0.198555,3.71884 -3.730095,3.73009 -3.024402,0.009 -3.810823,0.11353 -6.087337,0.81168 -5.471896,1.6781 -10.275827,6.03927 -12.066987,10.9548 -0.419201,1.15043 -0.467937,1.03732 0.721436,1.67456 0.584657,0.31324 1.646334,0.91802 2.359279,1.34393 1.359932,0.81244 2.464608,1.35084 2.778785,1.35433 0.102448,0.001 0.267398,-0.15483 0.366563,-0.34659 z m 116.853414,0.0581 c 0.36389,-0.15979 1.24495,-0.63922 1.9579,-1.06539 0.71294,-0.42617 1.77461,-1.03114 2.35927,-1.34439 1.18937,-0.63724 1.14064,-0.52413 0.72143,-1.67456 -1.79115,-4.91553 -6.59508,-9.27669 -12.06698,-10.9548 -2.27652,-0.69815 -3.06294,-0.80301 -6.08733,-0.81168 -3.92866,-0.0113 -3.71885,0.19856 -3.7301,-3.73009 -0.009,-3.024398 -0.11352,-3.810822 -0.81168,-6.087333 -1.67708,-5.468592 -6.04223,-10.276911 -10.9548,-12.066988 -1.15043,-0.419203 -1.03731,-0.467939 -1.67455,0.721436 -0.31325,0.584658 -0.91823,1.646332 -1.3444,2.359276 -0.79401,1.328319 -1.35593,2.485488 -1.35593,2.792296 0,0.09502 0.15689,0.253889 0.34865,0.353052 0.19176,0.09916 0.66571,0.386797 1.05322,0.639189 1.47655,0.961705 5.61487,3.504645 6.5327,4.014253 1.07769,0.598361 1.35531,0.954692 1.35531,1.739553 0,0.600524 0.001,0.599312 -1.60855,2.815834 -0.74912,1.031832 -1.77524,2.447342 -2.28024,3.145582 -1.42411,1.96902 -2.15545,2.9731 -2.90058,3.98218 -0.51563,0.6983 -0.66078,0.97008 -0.58412,1.09372 0.0561,0.0905 0.48639,0.37167 0.95619,0.62483 l 0.85417,0.46029 1.08022,-0.0541 c 0.59412,-0.0298 1.4691,-0.10181 1.9444,-0.16014 0.47529,-0.0583 1.30166,-0.15736 1.83636,-0.22008 0.53471,-0.0627 1.434,-0.17268 1.99841,-0.24435 1.59642,-0.20273 2.41204,-0.17656 2.7672,0.0888 0.58977,0.44067 0.74365,0.76024 0.74172,1.54032 -0.001,0.39681 -0.0604,1.18326 -0.13211,1.74767 -0.0717,0.56441 -0.18163,1.4637 -0.24435,1.99841 -0.0627,0.5347 -0.16176,1.36107 -0.22008,1.83636 -0.0583,0.4753 -0.1304,1.35028 -0.16015,1.9444 l -0.0541,1.08022 0.4603,0.85417 c 0.25316,0.4698 0.53433,0.90008 0.62482,0.95619 0.12365,0.0767 0.39542,-0.0685 1.09373,-0.58412 1.00908,-0.74512 2.01315,-1.47648 3.98217,-2.90058 0.69824,-0.505 2.11375,-1.53111 3.14559,-2.28024 2.21652,-1.60924 2.21531,-1.60855 2.81583,-1.60855 0.78486,0 1.14119,0.27762 1.73956,1.35531 0.5096,0.91783 3.05254,5.05615 4.01425,6.5327 0.25239,0.38751 0.54002,0.86146 0.63919,1.05322 0.21901,0.42352 0.34165,0.42952 1.18745,0.0581 z M 26.45218,119.23576 c 1.20186,-0.70452 1.98458,-1.06064 3.26058,-1.4835 1.17819,-0.39043 3.02597,-0.80681 3.58046,-0.80681 0.19228,0 0.37271,-0.0374 0.40096,-0.0831 0.0497,-0.0803 -0.012,-1.43752 -0.25624,-5.64202 -0.0639,-1.09913 -0.15657,-2.71917 -0.20605,-3.6001 -0.0495,-0.88093 -0.13238,-1.64187 -0.18422,-1.69099 -0.089,-0.0844 -0.55118,-0.0272 -4.36112,0.53891 -0.86147,0.128 -1.85797,0.27353 -2.21444,0.32338 -0.35647,0.0499 -1.01271,0.14703 -1.4583,0.21595 -0.44559,0.0689 -1.10182,0.16613 -1.45829,0.21604 -1.73653,0.24311 -2.27056,0.33696 -2.34588,0.41229 -0.0451,0.0451 0.0434,0.42041 0.19654,0.83405 0.15319,0.41363 0.3184,0.87359 0.36712,1.02212 0.0487,0.14852 0.2417,0.68323 0.42883,1.18824 0.18713,0.505 0.48313,1.31921 0.65777,1.80936 0.17465,0.49015 0.46043,1.29221 0.63508,1.78236 0.17464,0.49015 0.47064,1.30437 0.65777,1.80937 0.18713,0.505 0.38017,1.03971 0.42897,1.18824 0.0488,0.14853 0.2437,0.68324 0.4331,1.18824 0.1894,0.505 0.36954,1.00325 0.40032,1.10722 0.0308,0.10397 0.0778,0.18904 0.10444,0.18904 0.0267,0 0.44634,-0.23321 0.9326,-0.51825 z m 157.16846,0.32922 c 0.0308,-0.10397 0.21091,-0.60222 0.40032,-1.10722 0.18939,-0.50501 0.38428,-1.03971 0.43309,-1.18824 0.0488,-0.14853 0.24184,-0.68324 0.42897,-1.18824 0.18713,-0.505 0.48313,-1.31922 0.65778,-1.80937 0.17464,-0.49015 0.46042,-1.29221 0.63506,-1.78236 0.17465,-0.49015 0.47065,-1.30436 0.65778,-1.80936 0.18714,-0.50501 0.38011,-1.03972 0.42882,-1.18825 0.0487,-0.14853 0.21394,-0.60848 0.36713,-1.02212 0.15319,-0.41363 0.24163,-0.78895 0.19654,-0.83405 -0.0753,-0.0753 -0.60935,-0.16918 -2.34588,-0.41228 -0.35647,-0.0499 -1.0127,-0.14713 -1.45829,-0.21605 -0.44559,-0.0689 -1.10182,-0.16609 -1.4583,-0.21594 -0.35647,-0.0498 -1.35297,-0.19538 -2.21444,-0.32339 -3.80993,-0.56614 -4.27209,-0.62325 -4.36112,-0.5389 -0.0518,0.0491 -0.13474,0.81006 -0.18422,1.69099 -0.0495,0.88093 -0.14221,2.50097 -0.20606,3.6001 -0.24426,4.20449 -0.30589,5.56167 -0.25623,5.64202 0.0283,0.0457 0.20868,0.0831 0.40096,0.0831 0.56212,0 2.4084,0.41842 3.62605,0.82176 1.15312,0.38197 2.55965,1.03849 3.51913,1.64263 0.63189,0.39786 0.65933,0.40367 0.73291,0.15514 z M 39.229623,113.35373 c 2.167289,-3.42037 5.342016,-6.21335 9.186424,-8.08181 1.236323,-0.60088 3.241141,-1.3326 4.386383,-1.60095 1.913365,-0.44833 2.521583,-0.53152 4.521289,-0.61837 l 1.685716,-0.0732 0.07322,-1.68572 c 0.08685,-1.999703 0.170041,-2.607921 0.618372,-4.521287 0.268349,-1.145241 1.000069,-3.150057 1.600951,-4.386385 1.813783,-3.731916 4.443913,-6.77673 7.729274,-8.947932 0.713748,-0.471696 1.313924,-0.90307 1.333729,-0.95861 0.07897,-0.221467 -4.128642,-0.03208 -5.977209,0.269037 -0.178235,0.02903 -0.664336,0.107392 -1.080217,0.174129 -5.458003,0.875857 -11.129339,2.758382 -14.907015,4.948185 -1.223708,0.709344 -3.790343,3.27598 -4.499687,4.499685 -2.189805,3.777676 -4.072329,9.449008 -4.948185,14.907008 -0.06674,0.41589 -0.145096,0.90199 -0.174128,1.08023 -0.29587,1.81636 -0.488281,5.99521 -0.276037,5.99521 0.05169,0 0.378893,-0.44965 0.72712,-0.9992 z M 50.179188,98.003299 c -0.669157,-0.216808 -1.175688,-0.588358 -1.500631,-1.10074 -0.888276,-1.400664 -0.343912,-3.292603 1.222479,-4.248741 0.592835,-0.361871 0.696756,-0.388516 1.52055,-0.389886 0.796726,-0.0014 0.936502,0.03084 1.41251,0.325001 0.64121,0.396259 1.059893,0.985213 1.243007,1.748529 0.353298,1.472712 -0.733142,3.181905 -2.314834,3.641717 -0.669349,0.194584 -1.039554,0.200225 -1.583081,0.02412 z M 170.62701,113.08367 c 0,-1.09571 -0.20519,-3.71559 -0.36978,-4.72595 -0.029,-0.17824 -0.10739,-0.66434 -0.17413,-1.08022 -0.87586,-5.45801 -2.75838,-11.129341 -4.94819,-14.907017 -0.70933,-1.223705 -3.27597,-3.790341 -4.49968,-4.499685 -3.77767,-2.189803 -9.449,-4.072328 -14.90701,-4.948185 -0.41589,-0.06674 -0.90198,-0.145096 -1.08022,-0.174129 -1.84857,-0.301118 -6.05618,-0.490504 -5.9772,-0.269037 0.0198,0.05554 0.61997,0.486914 1.33372,0.95861 3.28536,2.171202 5.91549,5.216016 7.72928,8.947932 0.5971,1.228585 1.33677,3.25222 1.59338,4.359379 0.2841,1.225726 0.3409,1.502479 0.44337,2.160437 0.0602,0.386178 0.14229,1.460715 0.18256,2.387855 l 0.0732,1.68572 1.68572,0.0732 c 1.9997,0.0869 2.60791,0.17004 4.52129,0.61837 1.14523,0.26835 3.15005,1.00007 4.38638,1.60095 3.8444,1.86846 7.01913,4.66144 9.18642,8.08181 0.34823,0.54956 0.67543,0.9992 0.72713,0.9992 0.0517,0 0.0939,-0.57117 0.0937,-1.26926 z m -13.4831,-15.144909 c -1.07972,-0.36773 -1.90301,-1.281749 -2.17473,-2.414386 -0.27418,-1.142933 0.21422,-2.306163 1.2325,-2.935442 0.47601,-0.294165 0.61578,-0.326326 1.4125,-0.325001 0.8238,0.0014 0.92772,0.02802 1.52055,0.389886 2.35293,1.436244 2.14474,4.64314 -0.3484,5.366782 -0.59009,0.171274 -0.95221,0.15323 -1.64242,-0.08184 z M 88.003626,109.64585 c 0.444567,-2.67197 1.349157,-4.97357 3.191123,-8.11931 0.495344,-0.84595 0.900627,-1.582883 0.900627,-1.637616 0,-0.05473 -1.830408,-1.695858 -4.067568,-3.646945 -2.237161,-1.951086 -4.412452,-3.848608 -4.833976,-4.216713 -0.421528,-0.368106 -0.780256,-0.630386 -0.797175,-0.582845 -0.0169,0.04754 0.06468,0.518853 0.18133,1.04736 0.529446,2.39871 0.594982,3.032043 0.596836,5.767893 0.002,2.758586 -0.09383,3.660476 -0.589071,5.551236 -0.559613,2.13655 -1.665719,4.43505 -2.61444,5.43287 -0.473746,0.49826 -0.356127,0.64516 0.584829,0.73041 0.435082,0.0394 1.155633,0.11615 1.601224,0.17052 1.049042,0.12801 2.39973,0.28732 3.618731,0.42681 0.534709,0.0612 1.093723,0.1298 1.242252,0.15248 0.778745,0.11891 0.788152,0.10863 0.985278,-1.07615 z m 35.256054,0.92714 c 0.41588,-0.052 1.24224,-0.14963 1.83637,-0.21687 0.59412,-0.0672 1.42048,-0.1653 1.83637,-0.21792 0.41588,-0.0526 1.11213,-0.12762 1.5472,-0.16667 0.94103,-0.0845 1.05873,-0.23134 0.58484,-0.72975 -0.94872,-0.99782 -2.05483,-3.29632 -2.61443,-5.43287 -0.49524,-1.89076 -0.59095,-2.79265 -0.58908,-5.551236 0.002,-2.73585 0.0674,-3.369183 0.59683,-5.767893 0.11665,-0.528507 0.19825,-0.999818 0.18134,-1.04736 -0.0169,-0.04754 -0.37565,0.214739 -0.79718,0.582845 -0.42153,0.368105 -2.59681,2.265627 -4.83398,4.216713 -2.23716,1.951087 -4.06756,3.592212 -4.06756,3.646945 0,0.05473 0.40527,0.791666 0.90062,1.637616 1.8288,3.12325 2.81991,5.65465 3.20328,8.18145 0.0676,0.44559 0.14391,0.87444 0.16956,0.95301 0.0481,0.14742 0.22493,0.13981 2.04582,-0.088 z M 79.056772,104.3069 c 0.220989,-0.61511 0.548663,-1.88436 0.739012,-2.86258 0.217515,-1.11785 0.184939,-5.318619 -0.051,-6.576478 -0.09896,-0.527637 -0.179942,-0.977278 -0.179942,-0.999202 0,-0.172633 -0.548643,0.09649 -1.865985,0.915312 -0.845187,0.525346 -2.180782,1.354477 -2.967995,1.842516 -0.787209,0.488038 -1.431285,0.950501 -1.431285,1.027697 0,0.07719 0.178026,0.373511 0.395619,0.658481 0.217588,0.284969 0.861669,1.161179 1.431285,1.947134 0.569621,0.78595 1.58876,2.1924 2.264752,3.12545 1.344838,1.85623 1.332272,1.84927 1.66554,0.92167 z m 52.594478,-0.93099 c 0.6723,-0.92792 1.68842,-2.33018 2.25804,-3.11613 0.56962,-0.785955 1.2137,-1.662165 1.43129,-1.947134 0.21759,-0.28497 0.39562,-0.581287 0.39562,-0.658481 0,-0.0772 -0.64408,-0.539659 -1.43129,-1.027697 -0.78721,-0.488039 -2.12281,-1.31717 -2.968,-1.842516 -1.31733,-0.818822 -1.86598,-1.087945 -1.86598,-0.915312 0,0.02192 -0.081,0.471565 -0.17994,0.999202 -0.23594,1.257859 -0.26851,5.458628 -0.051,6.576478 0.36268,1.86384 0.9229,3.61873 1.15523,3.61873 0.0185,0 0.58373,-0.75921 1.25603,-1.68714 z m -95.024027,-1.09442 c 0.184122,-0.78898 0.520885,-1.99056 1.006642,-3.591728 0.965656,-3.183036 2.423908,-6.372649 4.000289,-8.74977 0.334893,-0.505002 0.625799,-0.956585 0.646462,-1.00352 0.02066,-0.04693 -0.633936,-0.77608 -1.45466,-1.620327 -3.835066,-3.94496 -5.687816,-5.801856 -5.788906,-5.801856 -0.0692,0 -0.0857,0.210798 -0.0443,0.567115 0.0362,0.311912 0.11577,1.490701 0.17683,2.619529 0.0611,1.128828 0.15723,2.830172 0.21369,3.780764 0.0564,0.950593 0.15397,2.603327 0.21671,3.672743 0.0627,1.069416 0.16021,2.72215 0.216604,3.672743 0.05639,0.950592 0.151432,2.627631 0.211203,3.726753 0.142797,2.625874 0.228367,3.564724 0.324903,3.564724 0.04356,0 0.16711,-0.37673 0.274563,-0.83717 z m 136.203597,0.054 c 0.0377,-0.43074 0.11742,-1.68244 0.17719,-2.781565 0.0598,-1.099122 0.15482,-2.776161 0.2112,-3.726753 0.0564,-0.950593 0.15387,-2.603327 0.21661,-3.672743 0.0627,-1.069416 0.16026,-2.72215 0.21671,-3.672743 0.0564,-0.950592 0.15262,-2.651936 0.21368,-3.780764 0.0611,-1.128828 0.14065,-2.307617 0.17684,-2.619529 0.0413,-0.356317 0.0249,-0.567115 -0.0443,-0.567115 -0.1011,0 -1.95385,1.856896 -5.7889,5.801856 -0.82073,0.844247 -1.47533,1.573394 -1.45467,1.620327 0.0207,0.04693 0.31157,0.498518 0.64646,1.00352 1.57639,2.377121 3.03464,5.566734 4.0003,8.74977 0.48575,1.601169 0.82252,2.802749 1.00663,3.591729 0.10746,0.46044 0.23101,0.83717 0.27457,0.83717 0.0436,0 0.11003,-0.35243 0.14771,-0.78316 z M 94.51445,96.836901 c 0.08958,-0.127889 0.638741,-0.744267 1.22036,-1.369729 1.844469,-1.983491 4.27649,-3.914158 5.97451,-4.74288 0.82818,-0.404198 2.36455,-0.89233 2.80857,-0.89233 0.44401,0 1.98038,0.488132 2.80856,0.89233 1.69802,0.828722 4.13005,2.759389 5.97451,4.74288 0.58162,0.625462 1.13078,1.24184 1.22036,1.369729 0.0896,0.127888 0.23779,0.232525 0.32935,0.232525 0.0916,0 0.68429,-0.45207 1.31714,-1.0046 4.99469,-4.360683 8.39571,-7.324001 10.98065,-9.567471 3.3657,-2.921089 3.47363,-3.052456 3.94609,-4.803445 0.30774,-1.140463 0.26699,-2.919442 -0.0892,-3.894416 -0.96276,-2.635412 -3.61147,-4.278742 -6.89659,-4.278811 -1.63276,-3.4e-5 -3.63196,0.514709 -5.09782,1.312556 -1.28898,0.701577 -1.23877,0.665506 -8.94286,6.423986 -2.08653,1.559587 -3.958,2.935793 -4.15884,3.058236 -0.53132,0.323925 -2.25142,0.323925 -2.78275,0 -0.20083,-0.122443 -2.07232,-1.498649 -4.158838,-3.058236 -7.704088,-5.75848 -7.653875,-5.722409 -8.942861,-6.423986 -1.465863,-0.797847 -3.465062,-1.31259 -5.097818,-1.312556 -3.28512,6.9e-5 -5.933842,1.643399 -6.896596,4.278811 -0.356172,0.974974 -0.396909,2.753953 -0.08918,3.894416 0.464539,1.721597 0.621185,1.918065 3.568015,4.475014 3.719468,3.227365 10.686846,9.302233 11.6605,10.166812 0.448813,0.398533 0.898332,0.726649 0.998935,0.729147 0.100602,0.0025 0.256202,-0.100094 0.345781,-0.227982 z m -0.01413,-7.821362 c -1.742299,-1.044257 -1.067679,-3.612472 0.948925,-3.612472 1.12647,0 1.939175,0.812713 1.939175,1.939197 0,0.61821 -0.103451,0.881226 -0.526302,1.338108 -0.63485,0.685935 -1.557981,0.816938 -2.361798,0.335167 z m 18.28121,0.150549 c -0.34412,-0.189862 -0.81635,-0.659321 -0.98184,-0.976094 -0.0838,-0.160434 -0.15239,-0.545041 -0.15239,-0.854685 0,-1.121616 0.81573,-1.932242 1.9444,-1.932242 2.01802,0 2.68582,2.588541 0.93283,3.61586 -0.50548,0.296231 -1.34442,0.367062 -1.743,0.147161 z m -27.80567,-6.8051 c -0.545304,-0.374141 -0.790185,-0.767497 -0.847205,-1.360881 -0.0622,-0.64732 0.159108,-1.133156 0.65348,-1.434592 1.203205,-0.733637 2.810312,0.565151 2.33292,1.885354 -0.352199,0.973989 -1.397762,1.418824 -2.139195,0.910119 z m 37.85172,0.129865 c -0.30391,-0.126536 -0.75068,-0.642999 -0.91331,-1.055788 -0.37015,-0.939466 0.49901,-2.081883 1.58308,-2.080817 0.89148,8.58e-4 1.4996,0.710836 1.40976,1.645859 -0.10523,1.095171 -1.17967,1.865405 -2.07953,1.490746 z m -77.413187,3.471106 c 0.351506,-0.272621 1.200037,-0.807568 2.121971,-1.337779 1.198853,-0.68947 3.744234,-1.833508 5.347083,-2.403283 1.660392,-0.590231 4.005712,-1.2918 5.428097,-1.623737 0.460445,-0.107452 0.837169,-0.231006 0.837169,-0.274563 0,-0.09492 -0.921612,-0.180454 -3.4567,-0.320807 -2.724253,-0.150824 -5.918509,-0.336138 -11.180259,-0.648617 -0.950595,-0.05645 -2.651936,-0.152608 -3.780766,-0.21368 -1.12883,-0.06107 -2.307616,-0.140646 -2.619531,-0.176834 -0.356315,-0.04134 -0.567114,-0.02486 -0.567114,0.04433 0,0.152077 7.241104,7.26025 7.396027,7.26025 0.04422,0 0.257533,-0.137378 0.474023,-0.305282 z M 165.70018,84.78545 c 3.92625,-3.816553 5.79125,-5.677434 5.79125,-5.778459 0,-0.06919 -0.2108,-0.08567 -0.56712,-0.04433 -0.31191,0.03619 -1.4907,0.115763 -2.61953,0.176834 -1.12883,0.06107 -2.83017,0.157228 -3.78076,0.21368 -5.26176,0.31248 -8.45601,0.497793 -11.18026,0.648617 -2.53509,0.140353 -3.4567,0.225885 -3.4567,0.320807 0,0.04356 0.37672,0.167111 0.83717,0.274563 1.42238,0.331937 3.7677,1.033506 5.4281,1.623737 1.60957,0.572166 4.18351,1.729835 5.34707,2.404931 1.05202,0.610374 1.8769,1.13195 2.16044,1.366071 0.17824,0.147165 0.36724,0.269322 0.42001,0.271458 0.0528,0.0021 0.78192,-0.662921 1.62033,-1.477907 z m -58.50875,-5.47394 c 2.17397,-1.63379 2.6057,-2.010081 2.30621,-2.010081 -0.0976,0 -1.577,-1.628225 -3.68067,-4.050819 -0.6191,-0.712944 -1.20368,-1.296262 -1.29908,-1.296262 -0.0954,0 -0.67999,0.583318 -1.29909,1.296262 -2.10367,2.422594 -3.58311,4.050819 -3.680663,4.050819 -0.300716,0 0.138143,0.381382 2.360223,2.051115 1.68787,1.268319 2.52515,1.833889 2.67354,1.805936 0.11882,-0.02239 1.29761,-0.853521 2.61953,-1.84697 z M 72.952998,77.301429 c 0.06214,-0.745882 0.477359,-2.558282 0.829052,-3.618731 0.424725,-1.280682 0.779538,-2.059263 1.493082,-3.276352 0.290163,-0.494929 0.511225,-0.912089 0.491253,-0.927022 -0.04046,-0.03024 -0.963786,-0.38111 -1.872693,-0.71162 C 73.566928,68.648881 73.032219,68.454441 72.705455,68.335617 72.378686,68.216793 71.856132,68.025648 71.54422,67.910851 71.232305,67.796054 70.272263,67.45249 69.410789,67.147377 68.549312,66.842264 67.589269,66.4987 67.277358,66.383903 66.73076,66.182732 66.226941,65.999065 64.900875,65.517555 64.559258,65.39351 64.162981,65.245353 64.020266,65.188319 c -0.419087,-0.167486 -0.413848,-0.183456 -0.766722,2.337134 -0.04991,0.356472 -0.147124,1.012705 -0.216045,1.458295 -0.06892,0.44559 -0.166093,1.101823 -0.215943,1.458295 -0.04985,0.356472 -0.195374,1.352973 -0.323387,2.214447 -0.574565,3.866598 -0.62399,4.271305 -0.533293,4.366731 0.05221,0.05493 0.813155,0.137418 1.690995,0.183313 0.877841,0.0459 2.519664,0.138772 3.64849,0.206393 6.163827,0.369238 5.607671,0.380216 5.648637,-0.111498 z m 66.942042,0.215426 c 1.06941,-0.06125 2.79506,-0.160678 3.83478,-0.220946 1.0397,-0.06027 2.19867,-0.127053 2.57548,-0.148411 0.3768,-0.02136 0.72457,-0.08053 0.77281,-0.131489 0.0828,-0.08752 0.0251,-0.552967 -0.54051,-4.359519 -0.12801,-0.861474 -0.27353,-1.857975 -0.32338,-2.214447 -0.0499,-0.356472 -0.14703,-1.012705 -0.21595,-1.458295 -0.0689,-0.44559 -0.16613,-1.101823 -0.21604,-1.458295 -0.24575,-1.755399 -0.33757,-2.271157 -0.41877,-2.352361 -0.0487,-0.04866 -0.20524,-0.04181 -0.34796,0.01523 -0.14271,0.05703 -0.53898,0.205191 -0.88061,0.329237 -1.32606,0.481509 -1.82988,0.665177 -2.37647,0.866348 -0.31192,0.114797 -1.27196,0.458361 -2.13344,0.763474 -0.86147,0.305112 -1.82152,0.648676 -2.13343,0.763473 -0.31191,0.114798 -0.83447,0.305943 -1.16123,0.424767 -0.32677,0.118824 -0.86147,0.313263 -1.18824,0.432087 -0.90891,0.33051 -1.83224,0.681375 -1.87269,0.71162 -0.02,0.01493 0.20108,0.432092 0.49125,0.927022 0.71383,1.217581 1.06854,1.996083 1.49281,3.276351 0.38708,1.168053 0.80681,3.024691 0.80681,3.568834 0,0.185875 0.0321,0.370048 0.0713,0.40927 0.0392,0.03922 0.46456,0.04794 0.94519,0.01937 0.48063,-0.02857 1.74885,-0.102062 2.81827,-0.163315 z m -42.659538,-2.21773 c 0.09969,-0.210087 0.91499,-1.218741 1.81177,-2.241452 0.896781,-1.022713 1.735108,-1.981002 1.862938,-2.129532 0.12784,-0.14853 0.57758,-0.658933 0.99941,-1.134229 0.42183,-0.475296 0.76808,-0.941595 0.76943,-1.03622 0.005,-0.347095 -3.125513,-1.911844 -5.156966,-2.577673 -4.149328,-1.359984 -8.273969,-1.432332 -11.854008,-0.207926 -0.894062,0.305777 -2.675142,1.182344 -3.464984,1.70531 -1.392268,0.921839 -2.872264,2.431483 -3.812248,3.888611 -0.522567,0.810063 -0.557242,0.973059 -0.149272,0.701675 2.115573,-1.407288 4.062616,-1.987451 6.670348,-1.987572 2.182285,-1e-4 4.018115,0.399085 5.941204,1.291868 1.247555,0.579169 2.028309,1.078279 4.196288,2.682551 1.060306,0.784611 1.945153,1.426565 1.96633,1.426565 0.02119,0 0.120069,-0.171889 0.21976,-0.381976 z m 16.983268,-1.213933 c 1.92123,-1.427273 2.73196,-1.941302 3.96388,-2.513207 1.92309,-0.892783 3.75892,-1.291968 5.9412,-1.291868 2.60774,1.08e-4 4.55477,0.580284 6.67035,1.987572 0.40797,0.271384 0.37329,0.108388 -0.14927,-0.701675 -0.93998,-1.457128 -2.41999,-2.966772 -3.81225,-3.888611 -0.78984,-0.522966 -2.57092,-1.399533 -3.46498,-1.70531 -3.58004,-1.224406 -7.70468,-1.152058 -11.85402,0.207926 -2.03144,0.665829 -5.16193,2.230578 -5.15696,2.577673 0.001,0.09463 0.3476,0.560924 0.76943,1.03622 0.42183,0.475296 0.87156,0.985699 0.99941,1.134229 0.12783,0.14853 0.96616,1.106819 1.86294,2.129532 0.89678,1.022711 1.71356,2.03449 1.81506,2.248396 0.22056,0.464784 -0.0123,0.582491 2.41521,-1.220877 z m -8.90972,-8.662174 c 1.84477,-1.165083 5.28321,-2.547378 7.53723,-3.030066 1.42032,-0.304152 3.23491,-0.538645 4.16826,-0.538645 0.66936,0 0.79003,-0.02785 0.79003,-0.182353 0,-0.324917 -1.96802,-2.127869 -3.255,-2.981976 -1.97127,-1.308241 -3.65279,-2.133542 -5.76482,-2.829408 -1.80647,-0.595186 -2.16392,-0.649605 -4.26686,-0.649605 -2.10295,0 -2.46039,0.05442 -4.26687,0.649605 -2.112033,0.695866 -3.793549,1.521167 -5.764818,2.829408 -1.286974,0.854107 -3.255002,2.657059 -3.255002,2.981976 0,0.154501 0.120669,0.182353 0.790026,0.182353 1.756735,0 4.406217,0.496476 6.652764,1.246635 1.46057,0.487709 4.26709,1.790136 5.19577,2.411213 0.26735,0.178801 0.54804,0.328213 0.62377,0.332026 0.0757,0.0038 0.4427,-0.18571 0.81552,-0.421163 z M 49.259625,232.97567 c -0.726862,-0.24812 -1.243864,-0.57858 -1.706709,-1.0909 -0.992039,-1.09806 -1.137759,-2.40042 -0.429531,-3.83887 0.569462,-1.15661 1.51886,-1.77945 2.715243,-1.7813 1.290142,-0.002 2.267381,0.70988 2.964333,2.15938 0.294311,0.61211 0.338273,0.81987 0.342846,1.62032 0.0047,0.81994 -0.02891,0.98009 -0.313965,1.49671 -0.38727,0.70186 -0.894009,1.13761 -1.653794,1.42208 -0.687529,0.25742 -1.191532,0.26072 -1.918423,0.0126 z m 108.567035,-0.0181 c -0.73373,-0.28273 -1.24186,-0.72629 -1.62273,-1.41656 -0.28505,-0.51662 -0.31865,-0.67677 -0.31397,-1.49671 0.005,-0.80045 0.0485,-1.00821 0.34285,-1.62032 0.69695,-1.4495 1.67419,-2.16138 2.96434,-2.15938 1.19637,0.002 2.14578,0.62469 2.71523,1.7813 0.71038,1.44281 0.56297,2.7403 -0.43705,3.84721 -0.46271,0.51215 -1.09163,0.89902 -1.82142,1.12041 -0.69822,0.21181 -1.1698,0.19737 -1.82725,-0.0559 z m -135.2534,-26.722 c -1.23957,-0.30093 -2.16654,-1.24612 -2.58979,-2.6407 -0.20704,-0.68217 -0.19329,-1.09302 0.0591,-1.76724 0.28447,-0.75978 0.72021,-1.26652 1.42208,-1.65379 0.51662,-0.28505 0.67676,-0.31864 1.4967,-0.31397 0.80045,0.005 1.00823,0.0485 1.62033,0.34285 1.44951,0.69695 2.16138,1.67419 2.15938,2.96434 -0.002,1.54195 -1.10906,2.72778 -2.89384,3.1008 -0.65909,0.13776 -0.56357,0.14018 -1.274,-0.0323 z m 162.46332,0 c -1.71027,-0.41511 -2.73959,-1.56691 -2.74191,-3.06816 -0.002,-1.29015 0.70987,-2.26739 2.15938,-2.96434 0.6121,-0.29432 0.81987,-0.33828 1.62032,-0.34285 0.81994,-0.005 0.98009,0.0289 1.49671,0.31396 0.70187,0.38727 1.13761,0.89402 1.42208,1.6538 0.25495,0.68093 0.26628,1.08464 0.0504,1.79618 -0.2214,0.7298 -0.60827,1.35871 -1.12042,1.82143 -0.54445,0.49186 -0.89168,0.66883 -1.61107,0.8211 -0.65898,0.13948 -0.56302,0.14181 -1.27553,-0.0311 z M 22.13308,97.08038 c -0.53519,-0.137729 -1.29734,-0.627903 -1.60647,-1.033187 -0.35569,-0.466334 -0.6982,-1.358411 -0.69668,-1.814499 0.002,-0.771067 0.4353,-1.789345 1.04912,-2.468769 0.78451,-0.868361 1.92696,-1.273711 2.97352,-1.055029 1.77921,0.371771 2.88615,1.559629 2.88853,3.099669 0.002,1.276455 -0.71384,2.271517 -2.11605,2.941522 -0.71146,0.339952 -1.86191,0.492436 -2.49197,0.330293 z m 163.17138,0.0023 c -0.56535,-0.11972 -1.49118,-0.595908 -1.99186,-1.02447 -1.29158,-1.105548 -1.3596,-3.206122 -0.14104,-4.355388 0.46244,-0.436136 1.28338,-0.841763 2.01164,-0.993932 1.65612,-0.346054 3.2971,0.787138 3.8691,2.67185 0.20705,0.682171 0.19329,1.093027 -0.0591,1.76724 -0.44152,1.179226 -1.38724,1.892584 -2.61578,1.973089 -0.3746,0.02455 -0.8574,0.0073 -1.07292,-0.03836 z M 48.616581,70.45421 c -0.938808,-0.444578 -1.620164,-1.399573 -1.87762,-2.631703 -0.346055,-1.65613 0.787135,-3.297107 2.671847,-3.869109 0.682173,-0.207036 1.093029,-0.193285 1.76724,0.05915 0.759785,0.284469 1.266524,0.720208 1.653794,1.42208 0.285055,0.516615 0.318648,0.676762 0.313965,1.496702 -0.0046,0.800448 -0.04854,1.008221 -0.342846,1.620328 -0.185682,0.386178 -0.505787,0.898347 -0.711344,1.138155 -0.837573,0.977139 -2.331745,1.305811 -3.475036,0.7644 z M 157.93468,70.43656 c -0.69496,-0.347386 -1.26761,-0.979826 -1.69728,-1.874501 -0.29924,-0.623104 -0.34285,-0.827794 -0.34744,-1.630729 -0.005,-0.81994 0.0289,-0.980087 0.31397,-1.496702 0.38727,-0.701872 0.89401,-1.137611 1.65379,-1.42208 0.68094,-0.25495 1.08465,-0.266286 1.79619,-0.05043 0.72979,0.221388 1.35871,0.608256 1.82142,1.120415 0.49106,0.543555 0.66885,0.891717 0.81996,1.605752 0.20496,0.968482 -0.22535,2.332556 -0.99241,3.145862 -0.83073,0.880818 -2.28933,1.141696 -3.3682,0.602417 z"
       style="fill:#000000;stroke-width:0.10802183" />
  </g>
</svg>
