<?xml version="1.0" encoding="utf-8"?>
<!DOCTYPE svg PUBLIC "-//W3C//DTD SVG 1.1//EN" "http://www.w3.org/Graphics/SVG/1.1/DTD/svg11.dtd">
<!-- exported from Silhouette Studio Business Edition V4.2.279ssbe -->
<svg version="1.1" xmlns="http://www.w3.org/2000/svg" xmlns:xlink="http://www.w3.org/1999/xlink" width="304.8mm" height="304.8001mm" viewBox="0 0 304.8 304.8001">
<defs/>
<path d="M 142.5872 274.816 C 138.0441 269.1844 138.7264 270.151 138.3429 269.7906 C 136.7817 270.4187 125.6854 277.0136 110.2991 270.1987 C 100.0196 265.6457 98.7397 262.2149 93.9219 252.0569 C 92.89024 251.8847 93.90388 252.1356 76.92027 248.2072 C 62.52237 244.8768 61.35075 244.8022 60.64011 244.0878 C 59.75072 243.1938 60.22769 243.3224 55.60774 223.6817 C 55.57407 223.5386 53.98787 216.6629 53.95512 216.5196 C 52.49236 210.1163 52.99783 211.8279 52.5812 210.7087 C 20.99306 197.1542 34.41719 168.1794 34.94588 166.3444 C 34.70475 166.0994 35.15124 166.4057 33.09761 164.7276 C 32.62878 164.3445 27.91566 160.5443 27.20956 159.9732 C 20.94707 154.908 18.49294 153.6932 18.99042 151.9207 C 19.2003 151.1728 20.05814 150.666 21.80974 149.2498 L 31.88918 141.0969 C 33.00075 140.1999 34.81052 138.9098 34.91132 138.5261 C 35.68346 135.5869 27.54713 130.5109 33.41138 113.2459 C 38.81982 97.32276 51.62067 94.49807 52.63384 94.11005 C 57.72526 76.24527 59.21818 62.07757 60.73441 60.67715 C 61.74168 59.74682 86.81866 54.76231 94.07152 52.69616 C 103.9089 27.88907 127.3724 29.49604 138.3864 35.17113 C 150.9131 19.94061 151.0602 18.926 152.3461 18.90495 C 154.0623 18.87685 165.5408 35.01676 166.3925 35.12277 C 167.393 35.24731 176.3088 28.22473 191.5466 33.519 C 207.8711 39.19081 210.2511 51.63103 210.5999 52.65329 C 212.2945 53.2579 211.0116 52.77402 214.7679 53.64275 L 226.5993 56.38934 C 244.4021 60.53104 243.4806 60.18237 243.9983 60.67805 C 245.491 62.10704 249.1357 84.2543 252.1016 94.15157 C 274.4036 102.5318 276.5464 124.9078 269.589 138.4756 C 286.4237 152.3624 285.2771 150.7495 285.8719 152.3545 C 285.4686 153.9013 284.5128 154.2779 277.4034 160.0132 C 277.1451 160.2215 271.0824 165.1251 270.9545 165.2308 C 269.5167 166.4201 269.8839 166.2234 269.7275 166.4021 C 271.9363 172.2643 276.2322 181.4537 269.9803 194.8761 C 263.7088 208.3402 252.9153 210.3563 252.0458 210.7592 C 251.9372 211.1771 251.2856 214.1285 249.6306 221.2791 C 249.1814 223.2197 248.7793 225.0008 247.7689 229.3671 C 247.4923 230.5623 246.2457 235.9402 246.0405 236.8371 C 244.7487 242.4836 244.6508 243.4692 244.1517 244.0191 C 243.7573 244.4536 243.1791 244.6413 241.4094 245.0617 C 240.6927 245.232 236.2042 246.257 232.4371 247.132 L 231.101 247.4423 C 230.825 247.5058 224.4738 248.9492 224.1981 249.0138 C 223.5418 249.1675 222.7894 249.3537 222.5598 249.4077 C 220.736 249.8373 214.425 251.2766 214.2588 251.3138 C 210.5858 252.1374 211.7487 251.8294 210.5928 252.1683 C 204.6714 271.2956 183.9003 277.1157 166.2947 269.7884 C 160.977 275.1843 154.3524 285.5214 152.7019 285.8535 C 151.4671 286.1021 151.0831 285.3067 148.0653 281.5916 C 147.9554 281.4564 142.9154 275.2229 142.5872 274.816 Z M 164.3088 268.5933 C 157.819 267.9276 160.1076 267.8793 157.7321 267.5625 C 153.3033 270.9485 152.4971 272.9307 147.0114 267.5002 C 141.6295 268.8714 143.3438 268.0298 140.4955 268.6216 C 140.5636 268.7216 140.3224 268.5004 141.7054 270.2354 C 141.8149 270.3726 145.8964 275.425 147.2213 277.0627 C 151.7547 282.6658 151.5237 282.4534 152.3416 283.2201 C 152.3748 283.188 152.612 283.0871 153.8873 281.5072 L 163.3309 269.8127 C 163.3702 269.764 163.2515 269.9092 164.3088 268.5933 Z M 101.7873 261.6315 C 109.8372 270.4554 126.6517 274.0408 136.2878 268.2514 C 112.4627 259.0179 121.5235 260.3813 115.9478 257.0325 C 111.4632 259.968 109.1721 262.5713 101.7873 261.6315 Z M 168.3519 268.2428 C 178.4752 274.5276 196.0675 269.8463 202.7938 261.7658 C 199.5653 261.1147 198.2595 264.0262 188.6381 256.8947 C 180.165 266.7763 170.8814 267.0671 168.3519 268.2428 Z M 141.0484 242.3375 C 141.0484 257.2383 148.9736 269.2003 152.9093 268.4231 C 155.6702 267.8779 163.3114 257.6089 163.6613 242.4166 C 154.6189 242.6427 147.8273 242.5994 141.0484 242.3375 Z M 123.1213 249.9776 C 122.0916 250.8807 123.6691 249.4491 117.8183 255.4342 C 124.7832 264.8818 140.5851 267.7234 145.379 265.5063 C 144.7667 263.3724 144.709 265.2838 141.9145 258.3746 C 128.783 259.4275 125.4719 252.8416 123.1213 249.9776 Z M 181.5127 249.9761 C 176.9623 256.2801 171.261 259.8649 162.8149 258.2823 C 159.9209 264.9079 159.187 265.2035 159.2981 265.505 C 160.3103 268.2517 182.4164 264.3788 186.7849 255.4359 C 186.2436 254.7034 182.0894 250.4695 181.5127 249.9761 Z M 109.0299 242.2954 C 107.4123 241.1478 102.4033 243.7596 101.5084 243.5673 C 100.332 243.3144 96.90184 235.9311 94.99924 233.4478 C 94.38704 236.0035 93.51457 254.7578 101.4144 258.9325 C 110.9669 263.9804 124.9357 243.8617 125.2025 243.3595 C 122.5864 243.8196 113.765 247.8671 112.538 247.3589 C 110.9444 246.6989 110.1351 243.0795 109.0299 242.2954 Z M 196.0133 241.9921 C 195.1492 242.3529 193.2253 247.0435 192.0748 247.3978 C 191.0667 247.7083 182.3727 243.9099 179.5269 243.3479 C 181.5684 247.9346 194.4987 262.1286 202.3848 259.3312 C 210.024 256.6215 210.6905 240.2867 209.7242 233.3287 C 204.2249 242.3877 204.2122 243.2556 203.281 243.5027 C 202.42 243.731 196.9722 241.5917 196.0133 241.9921 Z M 128.116 243.4664 C 127.9655 243.6286 126.9272 244.6583 124.8064 247.8965 C 126.5623 253.7963 136.7718 258.0818 140.9949 256.0025 C 140.7992 255.0623 140.0806 252.0168 139.4497 250.2026 C 132.5142 248.5938 132.3517 249.5139 128.116 243.4664 Z M 165.1895 250.2028 C 164.9648 250.8873 163.8459 255.1895 163.6714 256.0117 C 169.5895 258.7324 178.1839 253.0496 179.8334 247.8783 C 179.2385 246.8229 177.5647 244.464 176.5375 243.4664 C 173.3524 248.0025 172.9784 248.7784 165.1895 250.2028 Z M 82.54403 238.7655 C 81.82256 240.0423 80.67389 245.7121 80.64821 246.6895 C 81.14047 246.8658 91.57173 249.5786 93.40172 249.5582 C 92.61922 242.1075 92.54037 241.0441 92.44244 240.9 C 92.32861 240.7325 87.78443 239.2789 82.54403 238.7655 Z M 222.2319 238.7604 C 221.8264 238.7982 218.4175 239.4181 212.2475 240.7488 C 211.9537 245.178 211.9036 245.18 211.2477 249.5701 C 214.1414 249.599 223.8347 246.7644 224.0748 246.6567 C 224.0244 245.3603 222.6867 239.9754 222.2319 238.7604 Z M 130.2619 242.0518 C 130.359 243.9512 133.4238 247.5561 139.1242 247.8059 C 138.6552 241.8981 138.8512 243.7175 138.6665 242.4377 C 137.4943 242.3217 131.4344 241.9395 130.2619 242.0518 Z M 165.6455 247.6997 C 170.5773 248.5507 175.0487 242.8962 174.4186 242.0656 C 174.1129 241.6627 174.2533 242.1915 165.9955 242.3466 C 165.5293 248.2291 165.6146 246.7346 165.6455 247.6997 Z M 70.54958 236.4666 C 63.48028 243.3934 64.75688 242.1611 64.29137 242.9311 C 67.16049 244.2242 77.68177 246.0778 78.25307 246.0457 C 78.6903 244.8688 79.94933 239.816 80.04862 238.407 C 78.97308 237.9634 72.86768 236.6684 70.54958 236.4666 Z M 234.0904 236.4546 C 232.9421 236.5784 225.8185 237.757 224.6817 238.4805 C 224.6958 239.5767 224.7007 239.28 226.3718 246.1263 C 230.1244 245.934 240.1963 243.0096 240.4547 242.8801 C 239.7888 242.0232 240.3148 242.5075 234.0904 236.4546 Z M 125.5474 240.7702 C 126.4351 240.4043 126.2582 240.3654 126.3182 240.3271 C 123.5518 237.4866 112.5502 229.2012 112.1974 229.1273 C 111.8762 229.0599 96.14851 230.1992 95.82268 230.239 C 96.47427 231.5565 101.8172 240.6813 102.0332 240.7968 C 103.3846 241.519 108.186 239.0502 109.6048 239.6288 C 110.7024 240.0764 110.9205 241.7673 113.4107 245.0028 C 113.7053 244.9294 113.0783 245.2031 117.0109 243.801 C 124.3488 241.1849 125.2124 240.9083 125.5474 240.7702 Z M 208.8171 230.2084 C 193.7458 229.0964 192.7463 229.055 192.4262 229.1289 C 192.0769 229.2096 182.5598 236.3288 178.3459 240.22 C 179.629 241.2438 190.9084 244.9055 191.1748 244.9679 C 193.1086 243.0289 193.8158 240.1993 195.022 239.7036 C 196.1615 239.2353 198.9473 240.5262 202.6151 240.9809 C 205.0732 236.9474 208.3205 231.348 208.8171 230.2084 Z M 58.63457 226.5908 C 58.80405 228.2845 61.55177 240.3102 61.81593 240.4136 C 62.32159 240.6117 67.70866 234.784 68.29948 234.0983 C 68.2691 233.5275 66.70952 224.9811 66.39749 224.7623 C 66.00571 224.4875 59.6589 226.1465 58.63457 226.5908 Z M 238.2818 224.7462 C 237.1375 227.617 236.3814 233.8786 236.5154 234.2409 C 236.7621 234.9077 242.1212 239.9497 242.797 240.5268 C 242.9256 240.2707 245.9754 228.2883 246.0389 226.5701 C 245.0131 226.1316 239.716 224.7703 238.2818 224.7462 Z M 132.2961 239.8248 C 134.4419 240.0733 146.2093 240.4803 147.7222 240.1768 C 145.0977 237.4875 148.2414 241.1165 140.5865 232.5587 C 137.2266 235.4145 133.1933 238.8527 132.2961 239.8248 Z M 164.1501 232.6688 C 163.9852 232.7975 158.0685 239.0088 156.9374 240.2419 C 159.4062 240.4411 171.7998 239.9311 172.4125 239.8412 C 170.0657 237.2429 165.5528 233.7161 164.1501 232.6688 Z M 136.701 218.5349 C 137.4295 225.9827 147.8747 240.1775 152.6804 239.9577 C 154.8013 239.8607 165.7507 230.3259 168.0785 218.3416 C 161.4213 226.3802 156.6796 222.4001 152.3326 219.8094 C 142.6829 225.0448 142.4743 223.8417 136.701 218.5349 Z M 74.9813 211.9135 C 72.58204 211.9299 71.90306 212.2474 66.41891 212.2503 C 66.47252 214.9099 70.60679 233.5701 70.7392 233.9932 C 71.45135 234.2892 69.94764 234.0137 83.3113 236.668 C 91.27439 238.2496 92.11063 238.5773 92.38583 238.3314 C 92.51341 238.2175 92.55582 235.5998 92.90775 229.7945 C 76.39181 227.2484 78.30766 228.2901 74.9813 211.9135 Z M 234.9873 229.4612 C 235.5731 226.5236 237.4115 217.1715 237.6303 216.1045 C 238.2256 213.2015 238.1961 213.8878 238.2208 212.2503 C 233.2223 212.2503 235.8069 212.214 229.6097 211.9004 C 226.866 236.9427 215.1953 226.0007 211.8566 229.7742 C 211.7428 229.9027 211.9373 235.4485 212.2825 238.346 C 213.6022 238.3383 233.5226 234.3035 233.845 234.0042 C 234.1883 233.6855 234.2545 233.1364 234.9873 229.4612 Z M 134.7998 220.3712 C 134.2068 221.3484 134.5498 220.3107 133.4522 225.3886 C 132.9372 227.7713 131.8646 232.6832 131.8325 232.8321 C 130.6463 238.3219 130.8816 237.538 130.8521 237.8429 C 132.1992 237.0446 138.5826 231.3862 139.3599 230.582 C 136.1201 224.9631 135.5007 222.962 134.7998 220.3712 Z M 165.4373 230.6418 C 166.5042 231.7718 172.5686 237.0108 173.8699 237.8603 C 173.6919 235.7274 170.4624 221.3986 169.9457 220.4615 C 165.6045 231.436 166.2229 228.5582 165.4373 230.6418 Z M 115.2011 228.4185 C 115.8585 229.1515 114.8006 228.2612 118.3493 231.0492 C 119.7951 232.1851 124.753 236.1551 124.8856 236.257 C 126.5305 237.5208 126.4256 237.2789 126.4589 237.2966 C 126.3474 236.7787 122.3487 224.8941 122.1069 224.7859 C 121.6795 224.5947 115.9421 227.8461 115.2011 228.4185 Z M 189.4694 228.4863 C 188.6579 227.7615 184.282 225.2262 182.6247 224.8059 C 182.2689 225.5123 178.5786 235.705 178.3212 237.2658 C 179.1399 236.7659 178.0619 237.5839 181.5112 234.8575 C 181.6489 234.7486 188.2804 229.5489 188.4177 229.4395 C 189.6385 228.4662 189.3505 228.6082 189.4694 228.4863 Z M 172.1879 218.9864 C 172.3444 222.9118 175.9478 236.0872 176.1025 236.4091 C 176.6147 235.1492 180.2904 224.6053 180.4893 223.5356 C 179.5724 222.8651 173.2379 219.4199 172.1879 218.9864 Z M 124.1873 223.5408 C 124.4353 224.8707 128.3658 235.8425 128.6062 236.3273 C 129.1484 235.4121 132.3541 221.151 132.4883 219.0277 C 131.0612 219.5265 124.6485 223.2111 124.1873 223.5408 Z M 90.93309 227.1193 C 92.77281 227.7956 97.62103 228.1587 97.89611 227.8412 C 98.39798 227.2622 97.59621 226.7917 97.08284 220.2216 C 97.01375 219.3374 96.39444 214.5585 96.2534 213.9409 C 95.53934 214.8257 91.50288 225.213 90.93309 227.1193 Z M 100.3447 227.9034 C 102.3299 228.3209 108.0001 227.8481 109.5413 227.2321 C 109.1589 226.6483 101.1087 216.5403 98.52539 213.7011 C 98.54291 213.9869 99.80903 226.2708 100.3447 227.9034 Z M 195.0989 227.2607 C 196.3315 227.6529 200.6367 228.3265 204.3128 227.946 C 204.5808 227.1319 206.1292 215.502 206.2313 213.7909 C 204.4863 214.9537 195.2981 226.9736 195.0989 227.2607 Z M 206.818 227.8943 C 207.9153 228.0215 212.237 227.6341 213.6848 227.1746 C 213.5412 226.0464 209.4265 215.3474 208.4234 213.9675 C 208.2879 214.5117 206.7461 226.775 206.818 227.8943 Z M 82.13339 225.1561 C 83.30042 225.7609 86.40866 226.8039 88.51093 226.7439 C 89.2415 225.4928 93.42986 214.6549 93.79056 213.2516 C 89.67606 216.6425 82.77225 224.3872 82.13339 225.1561 Z M 210.9456 213.4186 C 211.0175 213.6949 215.6723 226.4 216.1502 226.7127 C 216.369 226.8559 220.4739 226.3703 222.5076 225.1853 C 221.3772 223.5602 212.4666 214.6856 210.9456 213.4186 Z M 119.6915 209.4744 C 115.1676 210.9166 115.8176 212.7148 107.1967 209.3714 C 107.3189 210.0931 112.8182 225.2712 113.5811 226.5207 C 114.3156 226.2445 129.5661 218.1119 130.8458 217.2032 C 127.4013 216.4391 123.1099 218.0457 119.6915 209.4744 Z M 185.0404 209.3775 C 182.0646 216.5105 178.8974 216.8838 173.6617 217.1881 C 174.0027 217.3882 190.7645 226.6027 191.1289 226.4492 C 191.4655 226.3074 196.3916 214.3346 197.5698 209.3582 C 194.7156 210.3046 191.5662 213.1097 185.0404 209.3775 Z M 63.99468 212.3477 C 63.17823 211.6588 56.55734 211.3405 55.13725 211.4515 C 55.21878 213.0289 57.62855 223.0658 58.19424 224.2543 C 60.23019 223.8802 65.74572 222.5835 65.91599 222.3144 C 66.56717 221.285 64.14983 212.4787 63.99468 212.3477 Z M 249.5002 211.3249 C 239.8351 212.6613 242.4439 212.0897 240.6913 212.3647 C 240.3142 213.7312 238.829 221.0827 238.6835 222.2891 C 240.0313 222.8434 245.4226 224.0988 246.5519 224.1959 C 246.6021 224.085 246.6466 224.4322 247.1583 222.2591 C 247.2687 221.7905 248.7163 215.5379 248.9731 214.4445 C 249.6964 211.3644 249.5451 212.2096 249.5002 211.3249 Z M 99.7476 211.3619 C 99.84339 211.5221 99.57065 211.2999 100.6359 212.6382 C 100.9943 213.0885 100.7615 212.7834 106.6731 220.0923 C 108.8747 222.8142 109.2521 223.2859 109.8865 223.9246 C 109.8518 222.6592 106.0925 213.1771 105.5719 212.0231 C 104.3235 211.6999 101.0327 211.2542 99.7476 211.3619 Z M 201.8459 215.379 C 205.3482 211.0748 204.562 212.0223 205.0285 211.3454 C 202.3578 211.2187 199.0845 211.9837 198.9948 212.0658 C 198.8081 212.2369 194.9094 222.4843 194.7466 223.9952 C 195.3407 223.4611 194.5819 224.3303 197.0964 221.227 C 197.1912 221.1099 201.1802 216.1971 201.8459 215.379 Z M 77.94338 216.3243 C 78.08434 217.9901 78.87337 221.1472 79.47074 222.57 C 80.95978 221.8409 90.29106 212.2834 91.36718 211.0222 C 90.53616 211.2657 79.41484 215.4108 77.94338 216.3243 Z M 225.0841 222.6013 C 225.7679 221.4595 226.4748 219.0599 226.6693 216.1383 C 213.3351 210.9644 214.9868 211.4149 213.3215 210.9996 C 214.5984 212.5161 223.2455 221.198 225.0841 222.6013 Z M 150.217 218.4137 C 148.9926 217.8163 140.4026 214.2717 137.4983 213.5314 C 137.5081 219.2533 144.9314 223.9153 150.217 218.4137 Z M 167.1106 213.5182 C 166.0855 213.8335 155.5289 217.811 154.6139 218.3704 C 159.2013 224.3129 167.5699 219.1297 167.1106 213.5182 Z M 149.0072 193.8229 C 148.0849 197.2642 149.806 213.2847 152.2805 215.8479 C 155.1869 213.1245 156.4603 196.99 155.7029 193.9861 C 151.8196 193.8831 156.1101 195.1913 149.0072 193.8229 Z M 127.7573 207.1905 C 128.1675 207.4076 146.2171 215.0725 149.4439 215.4511 C 146.0029 204.9054 146.7055 198.1625 146.431 194.3325 C 126.8575 208.2769 149.359 194.7267 127.7573 207.1905 Z M 170.24 209.8766 C 175.6158 207.8052 176.1564 207.5876 176.9143 207.1723 C 160.2817 198.0421 163.879 197.3298 158.2423 194.4614 C 157.8899 196.8505 158.3652 200.7872 157.4487 206.5103 C 156.2048 214.2771 155.6659 213.2451 155.3998 215.4241 C 156.2342 215.3377 154.8013 215.8194 161.9754 213.053 C 163.1319 212.607 169.2486 210.2587 170.24 209.8766 Z M 134.6073 212.5834 C 133.446 211.5172 122.6873 207.7133 122.435 207.6399 C 119.3511 212.8372 131.8824 218.2705 134.6073 212.5834 Z M 182.3591 207.7304 C 180.7991 208.0047 170.1217 212.2233 170.042 212.475 C 168.6087 217.0054 185.5463 214.691 182.3591 207.7304 Z M 76.73655 206.7473 C 77.3368 212.1724 77.12004 212.3512 77.46902 213.7065 C 79.18748 213.6327 90.14827 209.0614 90.84692 208.5598 C 90.03737 208.2892 78.7153 206.9739 76.73655 206.7473 Z M 213.9035 208.5171 C 213.9171 208.529 213.8269 208.6808 214.6278 209.0542 C 214.7605 209.116 221.162 211.6375 221.4349 211.7436 C 227.66 214.1625 226.0807 213.6622 227.1713 213.7323 C 227.3711 212.9135 227.3264 213.7468 227.9016 206.747 C 212.495 208.6241 214.4494 208.3741 213.9035 208.5171 Z M 62.91267 196.171 C 60.23996 193.7792 58.00818 193.5661 57.48254 192.3462 C 56.63957 190.3897 60.24747 185.0997 61.4723 179.6433 C 55.36893 181.9266 44.1232 195.4786 45.17319 201.359 C 46.72649 210.0581 64.36007 210.9422 71.45422 209.8367 C 68.15478 207.4887 61.68211 204.4389 61.33747 203.5506 C 61.00997 202.7064 62.47076 199.4616 62.91267 196.171 Z M 247.2504 192.2735 C 246.8004 193.488 242.4058 195.073 241.9598 196.0083 C 241.3614 197.2633 243.7988 202.46 243.3414 203.6081 C 242.9936 204.4809 235.7353 207.887 233.3864 209.8378 C 235.0038 210.1349 257.4587 211.7243 259.4985 201.5112 C 261.1026 193.4796 246.6744 181.2599 243.2421 179.5783 C 243.7387 182.1942 247.8054 190.7755 247.2504 192.2735 Z M 95.22334 200.2894 C 95.2124 200.7866 95.73908 205.9109 96.24948 208.5134 C 105.3729 209.8482 103.7467 209.5267 104.5804 209.4399 C 104.3673 207.8433 104.5446 209.4518 102.2507 202.4989 C 95.51284 200.3513 96.69603 200.2469 95.22334 200.2894 Z M 209.4595 200.2556 C 208.4307 200.2884 209.9429 199.8529 202.4738 202.549 C 199.9841 209.5228 200.3118 208.3886 200.0336 209.5403 C 201.5629 209.5385 207.487 208.7446 208.4571 208.431 C 208.6766 207.4673 209.462 201.244 209.4595 200.2556 Z M 119.3426 206.3422 C 114.4765 202.3362 109.5626 199.6307 104.8822 202.329 C 105.3214 207.4124 115.8832 212.316 119.3426 206.3422 Z M 199.7558 202.3409 C 197.0356 200.4611 190.2081 201.1516 185.2941 206.4333 C 189.9621 212.3225 199.3414 207.1324 199.7558 202.3409 Z M 59.90928 191.3315 C 60.23779 192.2893 64.69236 194.1959 65.06743 194.9986 C 65.46397 195.8473 64.20579 199.7616 63.72949 202.6896 C 73.39365 208.389 73.6451 208.4729 74.5712 208.843 C 74.93586 206.9287 73.92613 200.2248 75.75198 192.6469 C 74.93273 191.4464 65.74744 179.6818 64.40495 178.4576 C 63.89882 179.424 59.73232 190.8155 59.90928 191.3315 Z M 239.6811 194.9828 C 240.233 193.8623 241.2345 194.1477 244.8207 191.4354 C 244.2041 186.5575 240.5728 178.6045 240.306 178.5457 C 239.8981 178.4558 238.0307 181.0007 235.7958 183.8483 C 230.2915 190.8616 229.2121 192.0895 229.0858 192.7461 C 228.8825 193.8022 229.9152 194.488 230.0481 201.6566 C 230.1496 207.1266 229.76 207.3325 230.2008 208.8536 C 230.9 208.5938 240.6348 203.175 240.8647 202.4654 C 241.1449 201.6006 239.0116 196.3419 239.6811 194.9828 Z M 80.11233 197.1923 C 77.49061 195.058 77.64433 195.2901 77.47868 195.1801 C 76.8154 197.3085 76.72035 202.7895 76.90432 204.4513 C 78.27214 204.8324 90.14781 206.3315 90.99255 206.221 C 90.55457 205.7387 91.30629 206.3093 88.78087 204.2516 L 80.11233 197.1923 Z M 227.192 195.1787 C 226.6124 195.5706 214.5473 205.1807 213.6648 206.2666 C 215.3848 206.2499 226.7864 204.7498 227.8754 204.3904 C 228.1224 202.7462 227.8098 197.1147 227.192 195.1787 Z M 80.84516 194.8207 C 81.37669 195.4175 80.54046 194.7316 83.58433 197.2065 C 83.72078 197.3174 90.2775 202.6349 90.41461 202.7451 C 93.13339 204.9287 90.47342 203.1987 93.45061 205.0143 C 93.45671 204.784 93.55169 203.8376 92.8083 199.2885 C 91.01207 198.3147 81.86137 194.9258 80.84516 194.8207 Z M 127.1266 190.9004 L 126.6966 190.2464 C 116.5408 191.8429 117.8199 191.0202 115.3225 191.2998 C 110.5058 202.5826 126.3066 209.9367 133.9031 201.4071 C 133.3552 200.2947 134.2616 201.7908 131.1427 197.0395 C 130.4986 196.0582 128.0939 192.3716 127.1266 190.9004 Z M 176.8786 191.9623 C 176.408 192.6724 173.1337 197.6562 172.9782 197.8938 C 171.4745 200.1909 171.3393 200.3159 170.8248 201.4529 C 178.8285 209.6341 193.2657 203.3906 189.4138 191.2711 C 178.2229 190.8747 178.8899 190.1863 178.2504 190.3925 C 177.8536 190.5204 177.6849 190.7459 176.8786 191.9623 Z M 222.5188 196.0735 C 224.0233 194.8318 223.7043 194.9002 223.7684 194.8152 C 218.042 195.995 212.0394 199.1468 211.8977 199.3578 C 211.5107 199.9338 211.2389 204.4138 211.275 205.1068 C 212.5397 204.2249 213.3944 203.4781 215.308 201.9213 C 220.4933 197.7029 222.0891 196.428 222.5188 196.0735 Z M 43.09728 202.8641 C 43.29845 199.5832 41.34277 197.2583 47.86657 188.7046 C 38.0938 180.1816 37.44119 170.6372 36.56734 168.4929 C 33.18568 172.0362 31.48369 193.8618 43.09728 202.8641 Z M 256.8434 188.7078 C 262.9373 197.2281 261.6006 198.0799 261.6842 202.8679 C 269.419 196.8389 274.4897 178.5548 268.1855 168.452 C 265.2656 175.2829 266.9272 179.785 256.8434 188.7078 Z M 98.42677 185.3737 C 93.12328 188.8263 96.54259 199.3219 102.5448 199.8674 C 105.5463 192.9574 99.59898 186.7503 98.42677 185.3737 Z M 202.2483 199.8927 C 202.9298 200.1814 207.5969 197.7445 208.6864 193.2488 C 209.4601 190.0565 207.6689 185.2697 206.3591 185.3737 C 206.2231 185.3844 202.9455 189.5103 202.3274 190.8783 C 201.1397 193.5071 201.2522 199.4708 202.2483 199.8927 Z M 105.2406 191.6607 C 105.1731 192.6134 105.6291 192.4735 105.1247 199.6194 C 107.3656 199.5053 108.237 198.9381 113.1373 199.759 C 112.7455 197.0104 112.3591 198.5336 112.6525 192.0621 C 107.1912 192.6499 107.3021 191.925 105.2406 191.6607 Z M 192.1291 192.2026 C 191.8937 195.6356 192.8242 193.5103 191.5293 199.659 C 200.282 199.4644 198.2146 199.6038 199.4879 199.5877 C 199.4982 199.4295 199.4525 198.7945 199.5423 191.6594 C 193.1094 192.8442 196.1386 192.0153 192.1291 192.2026 Z M 142.7801 190.3824 C 141.79 190.3574 138.2653 194.4777 136.7569 194.0939 C 135.6812 193.8202 134.7229 191.2826 132.5778 188.5571 C 130.9393 188.7656 129.4112 189.5198 129.0103 189.7253 C 129.9358 191.4016 134.3632 197.9588 135.6951 199.6519 C 137.6008 198.5171 136.4649 199.0351 145.5733 192.2857 C 143.4657 190.7017 143.118 190.3909 142.7801 190.3824 Z M 172.1203 188.5307 C 169.4962 191.835 172.336 188.4286 169.2717 192.816 C 168.5197 193.8928 168.1897 194.1468 167.8344 194.1923 C 166.5656 194.3546 163.9952 191.4813 161.88 190.3136 C 161.8242 190.3472 161.081 190.6674 159.2508 192.235 C 159.9758 192.8876 168.0803 199.1737 168.9329 199.6478 C 170.3683 198.042 175.1049 190.8024 175.6052 189.7155 C 175.5408 189.6798 174.8625 189.0832 172.1203 188.5307 Z M 87.57462 173.8951 C 86.21673 175.8224 78.41635 190.8425 78.31257 191.2215 C 78.70592 191.4942 77.94459 191.2228 81.4688 192.5358 C 81.61299 192.5895 88.53726 195.1592 88.68157 195.2126 C 96.07686 197.9474 94.87028 197.5183 95.436 197.6121 C 91.13161 185.8449 95.95704 186.4455 95.32152 185.0829 C 94.97641 184.3429 88.40157 185.2959 87.57462 173.8951 Z M 217.1239 173.9845 C 215.9093 179.5689 217.4003 181.9113 209.3047 185.1207 C 212.5935 191.3269 210.7692 193.6741 209.2614 197.663 C 209.6175 197.5799 224.5114 192.3823 226.3792 191.2305 C 225.7569 188.9657 218.6056 175.8069 217.1239 173.9845 Z M 146.6306 182.6164 C 146.4023 182.5045 142.0367 183.1773 140.398 183.8731 C 141.7338 186.802 147.4788 192.1834 152.4538 192.1658 C 156.7762 192.1505 164.9385 185.3967 164.2062 183.8305 C 164.0503 183.4971 158.932 182.6644 158.2004 182.5831 C 149.9475 191.6549 148.5007 183.533 146.6306 182.6164 Z M 134.7912 187.5988 C 134.7201 187.9677 136.8113 190.8956 137.3953 191.5067 C 140.2628 189.6172 140.6653 189.0468 141.0415 188.6362 C 140.4557 187.6477 138.573 185.2939 138.3991 185.0937 C 138.0243 185.3228 134.841 187.34 134.7912 187.5988 Z M 163.5948 188.6632 C 163.6631 188.7274 164.7947 189.883 167.2987 191.5329 C 167.9933 190.7404 169.4514 188.7711 169.8874 187.5028 C 168.2574 186.2311 169.7758 187.6554 166.3562 185.0368 C 164.7605 187.0291 165.0385 186.6697 163.5948 188.6632 Z M 103.4634 170.8544 C 96.47668 175.6394 99.08175 194.1208 113.5898 189.4458 C 113.6084 183.345 113.4154 184.1892 114.4913 178.184 C 112.846 176.8491 104.1507 171.2529 103.4634 170.8544 Z M 191.8338 176.9967 C 190.7417 177.7301 190.4251 177.9756 190.3024 178.3679 C 190.103 179.0056 190.7004 177.2289 191.183 189.4694 C 202.1555 193.9485 210.1541 179.5344 201.3965 170.9335 C 201.3515 170.9492 201.4982 170.6399 199.3052 172.0718 C 199.1553 172.1696 191.9824 176.897 191.8338 176.9967 Z M 67.58361 178.4227 C 68.96494 181.211 75.69872 188.9734 76.33596 189.5339 C 76.83067 188.9455 80.15281 183.184 79.97089 182.7602 C 79.76383 182.2777 68.36566 178.5151 67.58361 178.4227 Z M 224.6429 182.78 C 225.2415 184.3796 227.7842 188.8747 228.4007 189.5731 C 229.3815 188.5576 236.4459 179.69 237.0479 178.4129 C 235.23 178.7052 225.0935 182.5086 224.6429 182.78 Z M 126.718 169.7477 C 125.7967 169.2334 122.3056 167.536 121.8916 167.6179 C 119.2948 168.1319 113.9878 184.5284 116.092 188.9016 C 121.1753 190.2468 135.1293 186.1693 137.1253 182.768 C 136.7717 181.4442 135.6879 179.1083 134.8859 177.9974 C 130.8485 179.0772 125.8722 176.1935 126.718 169.7477 Z M 178.0003 169.6129 C 178.7398 179.7675 169.8678 177.9065 169.6551 178.0104 C 169.5623 178.0557 167.8541 181.7337 167.5118 182.708 C 170.368 187.1759 184.4422 189.9318 188.7313 188.8676 C 190.1735 184.2175 186.1544 169.448 182.6277 167.5959 C 180.1509 168.4651 181.1956 168.3588 178.0003 169.6129 Z M 46.32637 162.8053 C 39.80422 160.1663 39.84219 159.1862 39.27042 159.4396 C 37.13229 160.3871 39.2354 180.9849 49.32954 186.8875 C 50.13354 186.1936 54.19714 182.314 54.79743 181.6297 C 49.13595 177.4816 45.73027 173.5229 46.32637 162.8053 Z M 250.0075 181.4954 C 250.7538 182.8203 255.2256 186.8147 255.3412 186.9135 C 257.2431 185.7118 261.4738 181.8133 264.4097 173.6477 C 265.3761 170.9598 267.0454 160.0003 265.4391 159.4029 C 264.9888 159.2355 265.0157 160.0222 258.2252 162.8749 C 259.3651 172.5777 255.612 177.4362 250.0075 181.4954 Z M 152.19 184.6364 C 152.9415 184.678 154.5379 184.0215 155.6046 182.2236 C 154.4681 181.5635 151.2925 180.9168 149.0333 182.2605 C 150.2444 184.2059 151.7955 184.6146 152.19 184.6364 Z M 97.01714 182.2943 C 97.20437 181.906 96.89378 181.5733 94.5609 175.5429 C 93.33567 172.3757 92.6461 170.2377 92.3092 170.1382 C 91.6548 169.9448 88.26187 173.0243 90.6371 178.5022 C 92.70387 183.2688 96.63028 183.0965 97.01714 182.2943 Z M 212.4654 170.1367 C 211.9678 170.2348 209.8057 176.3546 209.2028 177.9338 C 207.538 182.2944 207.3849 182.2061 207.7154 182.5627 C 208.4157 183.3186 212.2112 182.594 213.9886 178.7125 C 216.5269 173.169 212.9781 170.0355 212.4654 170.1367 Z M 135.9031 174.344 C 136.1555 175.2619 138.8271 181.3175 139.2496 181.5368 C 139.7105 181.7762 146.2758 180.4262 147.7598 179.951 C 147.5417 179.8052 136.1515 174.4285 135.9031 174.344 Z M 156.9156 179.9815 C 157.5799 180.2128 163.8021 181.5231 165.5592 181.5941 C 169.2429 173.6923 168.5718 175.1111 168.7488 174.3385 C 167.2817 174.9063 157.3461 179.6821 156.9156 179.9815 Z M 68.37916 176.1243 C 69.60277 176.7 80.88779 180.6729 81.14419 180.5869 C 81.32393 180.5265 84.94585 174.6228 85.71327 172.2805 C 84.29848 172.4067 69.6907 175.5789 68.37916 176.1243 Z M 218.9165 172.2687 C 219.3637 173.3198 222.7832 179.7244 223.5088 180.6066 C 225.344 180.1484 235.288 176.6122 236.2606 176.1405 C 235.3193 175.6395 219.9821 172.3087 218.9165 172.2687 Z M 57.06658 179.9421 C 57.69067 179.8186 60.96422 176.9942 61.23827 176.6705 C 51.72968 168.6448 56.22144 166.945 54.54903 165.2479 C 54.4642 165.1618 48.82901 163.7158 48.71103 163.6895 C 45.86565 169.2131 53.83979 180.581 57.06658 179.9421 Z M 247.7946 179.8881 C 253.4271 178.5251 257.8478 168.464 255.9976 163.743 C 255.1619 163.8896 250.3785 165.0686 250.1556 165.3559 C 248.5441 167.4329 252.2221 169.9911 243.4015 176.6321 C 245.1915 178.2398 246.832 179.3691 247.7946 179.8881 Z M 141.8789 163.5431 C 140.1176 162.5943 141.6203 160.4322 141.7066 157.9884 C 125.2472 157.0009 134.3533 157.8959 126.9123 155.5742 C 131.983 175.0915 146.7653 177.4781 149.2681 177.7773 C 147.5533 174.2951 146.7141 174.989 146.8437 163.0464 C 143.2742 163.4529 142.7574 164.0164 141.8789 163.5431 Z M 162.851 163.5597 C 162.0504 163.9649 159.6806 163.154 157.8867 163.1045 C 157.3357 167.222 159.262 170.6822 155.4783 177.7441 C 158.2579 177.4642 168.851 172.4462 170.9535 169.658 C 173.2054 166.6715 177.4526 158.07 177.6478 155.5841 C 172.9064 158.0702 172.4785 157.8512 162.9612 157.9203 C 163.1583 159.4873 164.3608 162.7956 162.851 163.5597 Z M 89.29578 155.4568 C 89.38705 155.9105 96.51412 175.0195 97.65158 177.0345 C 104.0882 162.5897 101.8424 172.2152 110.3807 158.3706 C 102.7869 157.3449 112.3461 159.5665 89.29578 155.4568 Z M 152.3994 177.0786 C 155.0197 177.0282 156.5523 168.1423 155.5147 164.3506 C 151.497 165.6572 154.4115 165.8799 149.1136 164.384 C 148.2649 167.4146 149.5151 177.134 152.3994 177.0786 Z M 194.3252 158.3616 C 203.3384 172.0024 197.8042 159.958 207.12 177.1216 C 207.3201 176.7253 209.2547 171.7591 211.1523 166.7811 C 215.1202 156.3713 215.675 155.7056 215.2966 155.4033 C 214.794 155.0017 215.041 156.4265 204.8306 157.7371 C 200.4465 158.2999 197.2611 158.1092 194.3252 158.3616 Z M 133.8271 175.899 C 133.4361 171.8333 129.1381 170.6756 128.817 170.9503 C 128.282 171.4081 129.6719 176.6653 133.8271 175.899 Z M 170.74 175.8217 C 173.4351 176.6781 176.5531 173.3836 175.7397 170.8233 C 174.5805 171.1851 175.7139 170.7657 172.2642 172.347 C 170.5244 176.1407 171.0115 174.9525 170.74 175.8217 Z M 112.4738 159.339 C 112.1576 159.7127 105.5895 168.2533 105.0639 169.0794 C 106.2272 170.2614 114.6641 175.7419 114.895 175.6886 C 115.4765 175.5542 116.3047 172.4736 116.2006 172.1939 C 115.9087 171.4106 110.9912 169.3187 110.6658 167.964 C 110.4987 167.2686 110.6639 167.0869 114.5784 161.9777 C 112.5646 159.2691 113.3377 160.0944 112.4738 159.339 Z M 192.1592 159.3369 C 190.6623 161.083 190.4039 161.6364 190.1947 161.9706 C 191.2146 163.7011 193.7147 165.8711 194.0996 167.9886 C 192.8805 169.8889 192.5674 169.0043 188.4473 172.2108 C 188.9436 174.7455 189.6009 175.6387 189.6351 175.7041 C 190.9236 175.08 198.6823 169.9023 199.5918 169.1301 C 199.0083 168.0479 192.8215 160.064 192.1592 159.3369 Z M 56.96772 165.7061 C 57.20033 168.8478 59.09338 174.1416 62.64114 174.5426 C 62.90424 173.2215 62.73387 175.2137 62.42882 166.126 C 57.74061 165.6693 57.62439 165.7342 56.96772 165.7061 Z M 241.9817 174.4973 C 244.4791 174.2145 247.4031 170.9352 247.672 165.7061 C 244.3174 165.8469 243.431 165.9381 242.2856 166.2659 C 242.1314 167.2422 241.9287 174.0059 241.9817 174.4973 Z M 74.16156 165.4961 C 72.84228 166.7071 67.60172 172.8564 66.84541 173.9662 C 67.92696 173.8432 82.87135 170.6963 84.55124 170.0112 C 77.76355 168.2063 82.59998 169.3798 74.16156 165.4961 Z M 220.1231 170.0392 C 220.4604 170.1695 235.2537 173.6873 237.7676 173.9822 C 236.7587 172.2565 231.0596 165.9777 230.5735 165.5219 C 228.245 166.4448 227.09 167.9055 220.1231 170.0392 Z M 64.5511 156.9582 C 64.4677 158.1943 64.53966 170.6259 64.94186 172.4403 C 66.26258 171.2805 71.07888 165.5364 72.09193 164.1 C 69.4665 161.7384 69.14668 162.0443 64.5511 156.9582 Z M 232.5997 164.2372 C 232.9845 164.7693 238.3209 171.1721 239.7801 172.4953 C 239.8318 171.5668 240.429 160.0818 240.0985 156.9997 C 233.0577 164.3983 233.7917 162.7886 232.5997 164.2372 Z M 113.3271 167.4799 C 114.5698 168.5484 116.0867 169.4353 117.1568 169.9411 C 117.8359 169.2528 116.9471 170.332 119.7657 166.4041 C 115.8637 163.426 116.501 163.933 116.1041 163.7115 C 114.9843 164.8425 113.8415 166.3769 113.3271 167.4799 Z M 184.9572 166.4405 C 187.5226 169.9118 186.2374 168.5061 187.4772 169.9448 C 188.0848 169.6897 189.1535 169.2225 191.4549 167.4279 C 191.1626 166.9478 190.7123 166.099 188.6039 163.7119 C 188.2232 163.9618 188.7668 163.475 184.9572 166.4405 Z M 130.3887 168.7554 C 129.8293 167.3052 124.996 157.2614 124.8559 157.0435 C 124.5132 157.8473 123.6324 161.9721 123.0993 165.6031 C 130.1433 168.9134 129.4391 168.6749 130.3887 168.7554 Z M 179.8307 156.9925 C 179.713 157.226 174.3441 168.57 174.2385 168.8092 C 175.1819 168.6502 173.6012 169.3354 181.5488 165.6275 C 181.1302 161.9535 180.1119 157.6383 179.8307 156.9925 Z M 64.68847 152.3418 C 64.51176 155.5498 77.79644 167.3089 86.3265 168.1096 C 84.35107 166.0803 77.85653 162.7634 85.04131 152.4287 C 77.91573 142.3784 83.93234 139.1475 86.39068 136.6916 C 77.40042 138.0826 64.89449 148.6016 64.68847 152.3418 Z M 218.1707 168.1371 C 227.2504 167.2591 239.871 155.767 240.0083 152.5504 C 240.0997 150.4077 230.493 139.0264 218.381 136.7104 C 220.4528 139.4929 226.5707 141.0729 219.7385 152.4205 C 223.1216 158.8503 225.5101 163.2007 218.1707 168.1371 Z M 91.24767 167.2109 C 90.87317 165.9109 87.01055 155.7755 86.32182 154.6111 C 79.72439 160.2181 86.93904 167.6316 91.24767 167.2109 Z M 218.4344 154.5313 C 218.1053 154.9657 213.8418 165.3475 213.4679 167.2179 C 215.9173 167.3391 224.9693 163.5923 218.4344 154.5313 Z M 122.1941 146.6202 C 122.2948 146.3949 121.485 141.8335 120.9895 140.57 C 111.964 143.6032 108.6687 158.9894 120.8632 164.3736 C 121.37 163.3677 122.0411 159.7579 122.2382 158.2692 C 112.8656 150.9659 121.8138 147.4709 122.1941 146.6202 Z M 182.5037 158.2803 C 182.546 158.6517 182.3806 161.4656 183.814 164.3707 C 192.608 160.6793 195.9469 146.0811 183.8044 140.5271 C 183.1483 141.7422 182.3939 146.3447 182.565 146.6801 C 183.4084 148.3335 191.3693 150.4441 182.5037 158.2803 Z M 280.9407 150.5005 C 279.6309 149.4415 275.2134 145.8939 274.9755 145.701 C 268.1885 140.2008 269.5015 141.1534 268.4633 140.6501 C 268.1165 142.3091 268.796 141.3839 267.3907 147.0801 C 271.7756 151.5053 271.8223 153.0973 267.4382 157.8209 C 268.7726 163.7826 268.1184 161.9244 268.491 164.2342 C 270.5222 163.2321 282.9216 152.644 283.1473 152.3414 C 281.6505 150.913 283.3989 152.4878 280.9407 150.5005 Z M 36.19556 140.584 C 35.82143 140.8277 36.23364 140.4255 33.65205 142.5079 L 25.52234 149.0702 C 21.50246 152.3109 22.09534 151.9072 21.6212 152.4529 C 22.31963 153.3325 35.18868 163.6951 36.18286 164.2179 C 36.50684 162.5504 36.03793 162.1723 37.33722 157.7875 C 32.94522 153.3517 32.70631 151.8302 37.33624 147.0249 C 35.86504 141.8669 36.63183 143.2964 36.19556 140.584 Z M 62.36414 163.6708 C 62.4055 163.2248 62.62572 157.3991 62.4659 141.274 C 53.47021 139.7203 35.46819 147.7692 36.38018 152.8225 C 37.38036 158.3645 55.12387 164.7549 62.36414 163.6708 Z M 242.3619 163.6935 C 250.8746 164.6713 269.2074 156.9901 268.3828 151.9154 C 267.9292 149.1242 256.9431 141.1392 242.2385 141.1392 C 242.8407 151.9486 242.282 160.9881 242.3619 163.6935 Z M 149.7797 161.2734 C 149.8342 162.4115 152.9362 164.4571 154.9585 161.2014 C 152.133 155.14 153.1395 156.7822 152.3234 155.7225 C 151.6553 156.5951 149.7738 161.1514 149.7797 161.2734 Z M 144.1586 156.9458 C 144.1024 157.0155 143.4854 160.2097 143.4984 161.3736 C 145.7781 161.0619 144.916 161.0397 147.7128 160.7459 C 148.2094 159.8721 150.271 155.1263 150.6472 154.1943 C 149.8335 154.4247 144.247 156.836 144.1586 156.9458 Z M 156.7947 160.7252 C 161.4483 161.0874 157.7408 161.2083 161.2385 161.3551 C 161.247 159.2789 161.1768 161.8172 160.6399 156.8814 C 158.4972 156.1588 156.6215 155.1322 154.1171 154.1633 C 154.7203 156.4962 155.3602 156.5719 156.7947 160.7252 Z M 110.8746 155.9073 C 110.2312 149.9251 109.947 155.7038 110.8907 149.0702 C 107.0294 148.0603 88.82455 150.299 88.98618 152.5103 C 89.11534 154.2777 99.79945 155.9521 110.8746 155.9073 Z M 127.705 152.4233 C 127.7219 155.3003 137.775 156.7064 140.4054 155.5409 C 138.7053 150.6559 139.1799 153.6136 140.3794 149.2332 C 136.5948 148.2082 127.6896 149.8094 127.705 152.4233 Z M 176.9506 152.6338 C 177.2862 149.7724 168.0868 148.1337 164.3096 149.214 C 166.3975 155.9246 163.7308 154.6092 164.3095 155.603 C 164.7015 156.2763 176.5876 155.729 176.9506 152.6338 Z M 193.7591 149.0596 C 194.6267 154.5515 194.5673 150.6122 193.7669 155.8402 C 201.2621 156.6461 215.5514 154.2192 215.6781 152.45 C 215.8049 150.6801 198.4745 147.805 193.7591 149.0596 Z M 122.5495 149.1484 C 118.8301 151.5328 120.1283 154.415 122.564 155.6456 C 123.2942 154.2679 123.9648 152.0725 122.5495 149.1484 Z M 184.5295 152.3173 C 184.4974 151.2903 183.4892 149.7996 182.1185 149.1862 C 180.7454 151.8304 181.7116 154.8193 182.0441 155.6629 C 183.8866 154.8838 184.5504 152.9838 184.5295 152.3173 Z M 143.3247 149.9457 C 141.4236 150.3999 141.0262 154.3503 143.3217 154.8321 C 144.0496 154.9849 148.3749 152.9848 149.0294 152.4151 C 148.3208 151.9099 143.9293 149.8012 143.3247 149.9457 Z M 161.4006 154.8936 C 162.1634 154.6866 163.1676 153.2348 162.9712 151.9988 C 162.7637 150.6937 161.379 149.9454 161.141 149.7845 C 157.4146 151.6525 156.8835 151.4694 155.6103 152.4282 C 157.2207 153.6375 160.9147 155.0255 161.4006 154.8936 Z M 144.0362 147.8851 C 144.1161 148.0017 150.0059 150.4747 150.5483 150.6347 C 150.0437 149.0318 149.608 148.4474 147.8563 144.1714 C 143.0821 143.4891 144.8255 143.5855 143.5103 143.5936 C 143.5079 144.026 143.9873 147.8137 144.0362 147.8851 Z M 156.9891 144.1461 C 156.6895 144.6346 157.1505 143.4349 154.0567 150.6811 C 154.3275 150.591 154.7694 150.5294 160.617 147.8766 C 160.6485 147.7041 161.2527 143.8933 161.2827 143.5439 C 159.293 143.6812 161.7123 143.485 156.9891 144.1461 Z M 213.4922 137.6052 C 213.5285 137.8764 216.7977 147.5076 218.3916 150.378 C 224.3657 143.2473 217.8699 137.6018 213.4922 137.6052 Z M 86.33647 150.203 C 86.73332 149.4932 91.07761 138.8977 91.18507 137.5467 C 84.68793 137.8781 81.44299 145.9162 86.33647 150.203 Z M 97.65408 127.7808 C 92.8188 136.7712 89.44672 148.9916 89.35681 149.4469 C 102.7116 146.9257 87.12776 148.6671 110.3845 146.4827 C 98.72389 129.7912 103.613 140.9769 97.65408 127.7808 Z M 194.2552 146.5191 C 217.1993 147.9746 209.0321 148.4439 215.3492 149.3804 C 215.206 148.4663 209.3172 132.3499 207.0952 127.7717 C 198.9894 143.5334 201.6968 135.0954 194.2552 146.5191 Z M 141.2911 141.7764 C 142.1839 140.5646 144.4224 141.5628 146.6666 141.81 C 148.0181 136.8902 144.4622 138.6974 149.2114 127.0212 C 145.5366 127.5858 135.5158 133.1479 134.1124 134.6118 C 133.6594 135.0843 127.4651 145.4213 126.9224 149.3108 C 134.6576 146.0842 129.4313 147.5284 141.6849 146.8488 C 141.5418 144.5128 140.6273 142.6775 141.2911 141.7764 Z M 163.1607 141.5426 C 164.0845 142.4422 163.3003 144.3549 162.9612 146.9112 C 174.9034 146.9764 172.4826 147.0502 177.7009 149.2746 C 177.6618 148.9651 176.5641 141.9186 170.9849 135.2002 C 168.7213 132.4745 159.4221 127.9991 155.2964 126.9713 C 157.383 130.2454 158.1292 132.4434 157.7841 141.6952 C 159.9225 141.9328 162.0817 140.4919 163.1607 141.5426 Z M 149.9002 143.3575 C 149.6536 144.1946 151.8879 148.5002 152.348 149.0899 C 153.0676 148.0961 154.8815 143.8535 154.8467 143.4871 C 154.6409 141.3196 150.5434 141.1741 149.9002 143.3575 Z M 64.6631 136.7523 C 64.64657 137.4534 64.52443 143.3431 64.51731 143.7638 C 64.44807 147.8582 64.5228 147.3699 64.57655 147.8583 C 72.51679 139.9057 69.86256 142.8467 72.15966 140.7329 C 71.26565 139.4662 65.91246 133.2356 64.91719 132.3549 C 64.88537 132.5282 64.77735 131.9085 64.6631 136.7523 Z M 123.2127 139.2927 C 123.2338 140.6849 124.3872 146.7096 124.8357 147.8424 C 126.3254 145.3858 130.2279 136.5196 130.3869 136.022 C 129.1578 136.3065 124.298 138.6496 123.2127 139.2927 Z M 174.246 136.0081 C 174.3484 136.2494 179.7099 147.636 179.8358 147.866 C 180.378 146.7586 181.398 140.4509 181.5466 139.227 C 174.3168 135.8522 175.1817 136.2109 174.246 136.0081 Z M 232.4909 140.6772 C 237.6287 145.2624 231.9422 139.743 240.1025 147.8135 C 240.2254 146.5853 240.0353 134.2181 239.7562 132.3877 C 239.074 132.9464 238.1715 133.9325 232.4909 140.6772 Z M 189.7212 129.1007 C 189.685 129.1643 188.8599 130.3061 188.4779 132.5428 C 189.3689 133.4675 193.9393 136.0928 194.1007 136.9335 C 194.3325 138.1419 190.4904 141.8605 190.3905 142.6747 C 190.2561 143.7687 191.8331 145.2014 192.2226 145.5913 C 194.2956 142.8501 198.9578 136.8239 199.5759 135.7634 C 198.7692 134.8891 190.3531 129.4325 189.7212 129.1007 Z M 258.3357 141.9686 C 265.9857 145.6705 265.2231 145.5374 265.3731 145.4895 C 267.6121 144.7746 266.5291 126.4466 255.3263 117.8803 C 250.1371 123.0676 251.6772 121.3639 249.845 123.2068 C 261.0132 132.3216 257.6063 135.4191 258.3357 141.9686 Z M 49.35432 117.8546 C 37.62015 126.6919 37.60829 144.8262 39.25886 145.4451 C 39.70681 145.613 39.15308 145.2188 46.42837 141.9562 C 45.01513 128.3817 53.43174 124.5971 54.80299 123.0493 C 53.53837 121.9799 53.10406 121.5572 49.35432 117.8546 Z M 115.0672 129.1483 C 112.7584 130.4255 105.9624 134.9712 105.0663 135.7683 C 105.7178 136.8085 111.5158 144.454 112.5739 145.4786 C 113.3794 144.6305 112.4148 145.766 114.5664 142.9122 C 111.9041 139.2011 110.2287 137.849 110.7319 136.6223 C 111.0411 135.8687 114.1147 134.3434 116.2271 132.6377 C 115.8068 130.5468 115.2903 129.6122 115.0672 129.1483 Z M 48.75017 141.0913 C 49.35064 140.9958 54.46271 139.7013 54.62353 139.5189 C 56.00887 137.9471 52.22678 135.3996 61.23827 128.2179 C 60.77808 127.7583 61.50548 128.2255 56.98268 124.8614 C 48.2284 128.4551 47.58042 138.8279 48.75017 141.0913 Z M 113.3121 137.3891 C 114.2143 139.2454 115.7353 140.7392 116.1359 141.1346 C 116.5981 140.8373 119.0051 139.1262 119.742 138.3105 C 117.6752 136.0069 118.5203 136.4304 117.2059 134.84 C 114.325 136.3611 113.515 137.1973 113.3121 137.3891 Z M 184.8887 138.4575 C 188.717 141.4053 188.2817 141.16 188.4605 141.1515 C 188.9367 141.1288 190.4968 138.9686 191.4021 137.3992 C 189.6706 135.984 187.59 134.8861 187.5082 134.8414 C 186.2794 136.2581 187.4853 135.1599 184.8887 138.4575 Z M 247.664 124.9513 C 246.2062 125.8422 243.9251 127.6426 243.4272 128.2001 C 252.1488 135.0119 248.9577 138.1219 250.1467 139.532 C 250.2236 139.6232 255.7074 141.1628 255.9146 141.0446 C 257.7997 139.9693 254.7722 126.2945 247.664 124.9513 Z M 155.4832 140.4977 C 156.9022 139.8143 155.3988 127.5987 152.254 127.7765 C 150.8419 127.8564 149.7098 130.5222 149.2043 133.4359 C 148.9122 135.1202 148.6417 138.6459 149.2063 140.5587 C 154.9761 138.0862 154.4652 140.9879 155.4832 140.4977 Z M 67.00097 130.9551 C 68.07145 132.6507 73.22806 138.5385 74.19719 139.4594 C 83.04543 134.8237 73.13081 139.2214 84.28251 134.8255 C 83.0336 134.1566 68.75498 131.1995 67.00097 130.9551 Z M 220.3525 134.7964 C 221.5808 135.3217 225.9843 136.537 230.4691 139.4421 C 231.6229 138.3859 237.1863 131.9313 237.7475 130.9653 C 236.3241 131.0319 221.3279 134.3596 220.3525 134.7964 Z M 62.69301 130.2364 C 60.24712 130.879 56.83192 134.4794 57.01408 139.1121 C 58.07355 139.1497 60.94096 138.9529 62.30102 138.73 C 62.56835 137.2231 62.76264 131.0838 62.69301 130.2364 Z M 247.672 139.1094 C 247.4448 133.8797 244.4649 130.8057 242.002 130.3084 C 241.8887 131.1342 242.2458 138.3089 242.2958 138.6386 C 243.9721 139.0537 246.5927 139.1096 247.672 139.1094 Z M 135.1416 126.801 C 136.4733 123.386 136.4515 124.3549 137.122 122.1111 C 135.1577 118.6595 122.9261 114.9499 115.9369 115.9487 C 114.7668 121.1258 117.9718 134.4871 121.9992 137.2168 C 123.8665 136.6842 123.665 136.4306 126.7066 135.2293 C 126.2612 126.6555 132.0557 126.5029 135.1416 126.801 Z M 169.714 126.8116 C 176.8694 126.1067 178.8074 131.6541 177.9106 135.0155 C 178.4435 135.3465 182.1435 137.286 182.6595 137.2017 C 186.1358 136.6342 190.0679 119.7907 188.7616 116.0495 C 185.0422 114.6465 170.0854 117.951 167.5148 122.0738 C 167.9342 123.3655 169.1393 125.9392 169.714 126.8116 Z M 43.09529 102.0884 C 36.35244 105.7609 29.84952 127.4229 36.53742 136.3671 C 45.95963 112.7674 41.55736 124.2349 47.72689 116.157 C 43.02623 106.9159 44.33578 115.3608 43.09529 102.0884 Z M 268.1669 136.3798 C 273.9709 128.4395 270.9123 110.3935 261.562 101.88 C 262.425 108.4374 260.288 111.6213 256.7837 116.1321 C 266.7173 124.53 266.9564 133.8689 268.1669 136.3798 Z M 92.10562 134.6803 C 92.56686 134.1837 92.23154 135.3197 94.86843 128.4919 C 96.90075 123.2296 97.2008 122.7806 97.00652 122.4487 C 94.74358 118.582 85.18326 130.8609 92.10562 134.6803 Z M 207.5796 122.4756 C 207.6338 122.7343 210.5575 132.6266 212.5917 134.704 C 218.3887 132.1283 212.7297 119.7757 207.5796 122.4756 Z M 113.5349 115.3325 C 97.88596 111.3785 97.45944 129.1963 103.4075 134.0001 C 105.9221 132.5061 113.2955 127.6905 114.4355 126.5744 C 114.0437 121.8539 113.6214 125.7078 113.5349 115.3325 Z M 133.9583 128.9295 C 130.9926 128.3826 128.4383 131.1149 128.8344 133.9595 C 132.6683 133.3813 133.3088 130.9834 133.9583 128.9295 Z M 170.87 128.9054 C 170.3301 129.5538 172.3397 133.6428 175.8479 133.871 C 176.4299 129.5508 171.2299 128.4731 170.87 128.9054 Z M 191.2574 115.4011 C 190.2177 122.5616 190.09 126.2483 190.2695 126.6634 C 190.5844 127.3917 201.0483 133.8624 201.2815 133.9873 C 210.5761 125.3766 201.5349 110.461 191.2574 115.4011 Z M 68.37916 128.692 C 69.61717 129.3884 84.65641 132.5455 85.72087 132.5025 C 85.26511 131.2713 81.78616 125.0155 81.18791 124.2934 C 80.1159 124.4503 69.37892 128.2745 68.37916 128.692 Z M 223.4337 124.3121 C 222.5711 125.5428 219.2651 131.6755 218.9148 132.5471 C 223.1808 132.3658 235.9695 128.863 236.2848 128.6982 C 234.817 127.9907 224.5167 124.3976 223.4337 124.3121 Z M 209.297 107.2969 C 211.0931 112.1854 212.4051 113.4841 209.3035 119.6969 C 215.1002 122.2856 215.9363 122.5996 217.1145 131.0747 C 219.5127 126.9844 226.1649 114.3938 226.4128 113.6434 C 225.4723 113.0822 210.7355 107.5486 209.297 107.2969 Z M 78.3279 113.5813 C 78.16134 113.9375 87.11897 130.2921 87.5918 130.9204 C 88.86062 120.4257 92.85606 120.9344 95.30779 119.7785 C 93.26563 113.8361 92.37542 115.4563 95.44482 107.2123 C 95.08873 107.2936 78.48265 113.2505 78.3279 113.5813 Z M 135.9007 130.469 C 136.1525 130.3994 146.4013 125.7505 147.7178 124.8993 C 146.7625 124.5161 139.5971 123.155 139.2898 123.3077 C 138.7222 123.5897 136.0745 129.8595 135.9007 130.469 Z M 156.9516 124.963 C 159.4292 126.3903 168.4891 130.3662 168.7385 130.4391 C 168.5768 129.8351 169.2128 131.082 165.577 123.2914 C 163.8231 123.3986 158.2058 124.328 156.9516 124.963 Z M 76.32462 115.2898 C 75.07149 116.4602 68.16329 125.276 67.54707 126.5652 C 69.32107 126.0482 78.82564 122.7571 79.96289 122.0873 C 79.919 121.9395 78.37893 117.7929 76.32462 115.2898 Z M 237.2262 126.539 C 236.9433 126.0404 229.8295 116.6424 228.3412 115.2974 C 227.3566 116.5181 224.9418 121.3191 224.6403 122.2104 C 225.1402 122.3933 236.1765 126.3603 237.2262 126.539 Z M 72.10134 116.9378 C 74.09874 114.399 75.67579 112.4085 75.71835 112.1731 C 75.8928 111.2079 74.94691 111.5827 74.65768 104.0687 C 74.40958 97.62302 74.95808 97.59442 74.68166 96.00568 C 73.96247 96.2288 75.42578 95.28492 63.73121 102.1366 C 64.19809 105.0689 65.5024 108.8462 65.04382 109.8394 C 64.61296 110.7726 61.44813 111.9463 59.84515 113.6132 C 60.70318 117.0516 64.01423 125.7506 64.45261 126.441 C 65.02612 125.8711 64.28513 126.8253 67.66783 122.5426 C 67.84502 122.3183 71.83621 117.2748 72.10134 116.9378 Z M 239.6047 109.7821 C 239.1254 108.6693 240.6792 105.1848 240.8463 102.3121 C 239.3646 100.9704 230.7833 96.25032 230.1039 95.9338 C 230.0588 96.25937 228.9804 112.0166 229.0633 112.3347 C 229.1066 112.5007 228.9897 112.3923 234.3112 119.1207 C 234.4869 119.3428 238.6211 124.5581 238.7098 124.6685 C 240.0973 126.3948 239.9297 126.1069 240.2621 126.441 C 240.7766 125.4687 244.6018 114.8349 244.873 113.4869 C 243.8782 112.6686 239.9104 110.4919 239.6047 109.7821 Z M 62.83124 108.8504 C 62.72946 105.7723 60.91382 102.2852 61.34258 101.2962 C 61.71674 100.4332 69.60497 96.31479 71.31954 95.07391 C 67.04423 94.00564 46.39458 94.34309 45.13762 103.6227 C 44.54761 107.9785 47.47561 112.56 51.49879 116.8217 C 54.53421 120.0371 59.51788 124.4563 61.47371 125.1667 C 60.2749 120.7879 56.90501 113.6625 57.43829 112.4383 C 57.80047 111.6069 59.50367 111.3228 62.83124 108.8504 Z M 241.8962 108.6961 C 242.342 109.9503 246.7453 111.2391 247.2866 112.5995 C 247.7787 113.8365 243.6525 122.6587 243.2797 125.295 C 246.7761 123.5069 262.4308 110.514 259.1436 102.1614 C 256.1929 94.66383 241.3005 94.41793 233.263 94.98318 C 236.1067 97.12863 242.9801 100.3809 243.3434 101.2587 C 243.691 102.0988 241.5918 107.8394 241.8962 108.6961 Z M 152.2152 123.6276 C 155.5795 122.9335 155.5042 122.6313 155.5659 122.598 C 154.8764 121.1664 153.3296 120.2439 152.3763 120.2299 C 150.6671 120.2049 149.1302 122.4212 149.0342 122.5527 C 149.3839 122.7528 148.8274 122.7805 152.2152 123.6276 Z M 140.4271 120.9958 C 141.4841 121.3402 146.2244 122.4343 146.4543 122.3438 C 146.9007 122.1679 149.0841 117.3814 153.3171 118.2374 C 157.5602 119.0956 156.7619 121.7976 158.1944 122.3288 C 158.3113 122.3722 163.1392 121.4846 164.2828 120.9877 C 158.9802 110.3033 145.739 110.316 140.4271 120.9958 Z M 134.7477 117.2806 C 135.0179 117.5103 138.1829 119.6401 138.4128 119.774 C 140.5039 117.114 140.9768 116.2437 141.0247 116.1686 C 138.5762 113.8979 137.38 113.4503 137.2968 113.4092 C 137.234 113.4774 136.981 113.325 134.7477 117.2806 Z M 163.6559 116.1015 C 163.7019 116.1814 163.2753 115.8088 166.3192 119.8618 C 170.2589 117.0135 169.0324 118.022 169.888 117.255 C 169.4805 116.4258 168.5299 114.8239 167.394 113.3664 C 166.5207 113.8915 165.0286 114.8571 163.6559 116.1015 Z M 102.4531 105.0327 C 96.20105 105.7442 93.33243 116.1656 98.35031 119.4419 C 104.7632 113.1427 103.5133 106.8425 102.4531 105.0327 Z M 202.2873 104.9586 C 201.9366 105.4468 198.4895 110.6962 206.2932 119.4419 C 210.9386 116.6696 209.0874 106.1998 202.2873 104.9586 Z M 159.2508 112.5855 C 159.3004 112.6296 160.1528 113.5095 161.9357 114.5381 C 164.9743 112.5705 166.6632 110.5853 167.7669 110.7353 C 168.623 110.8516 168.9125 111.5132 172.1236 116.4676 C 176.0226 115.1196 175.1554 115.3435 175.6042 115.0709 C 174.9757 113.7883 169.9159 106.2655 169.007 105.1637 C 168.3737 105.5377 160.3545 111.6131 159.2508 112.5855 Z M 135.5943 105.2142 C 134.779 106.0796 129.2514 114.7038 129.01 115.1136 C 129.0743 115.1478 129.6766 115.6731 132.4348 116.3485 C 134.0893 114.7958 135.662 111.007 136.7626 110.732 C 138.0087 110.4206 139.6525 112.5705 142.7957 114.5425 C 143.0858 114.3683 143.7236 114.0849 145.5501 112.5765 C 135.625 105.1729 136.9725 105.7694 135.5943 105.2142 Z M 115.3348 113.5286 C 119.9896 114.4433 126.3846 114.5279 126.5927 114.4402 C 128.0531 113.8241 133.6778 103.916 133.8984 103.4359 C 125.8207 94.78922 110.2515 102.8435 115.3348 113.5286 Z M 170.8066 103.43 C 172.0715 106.0846 177.9969 114.4457 178.25 114.5319 C 179.5211 114.9649 178.4394 113.4317 189.4039 113.6326 C 193.3116 99.3076 177.0678 96.50838 170.8066 103.43 Z M 113.2092 105.0672 C 108.5921 105.8836 110.9286 105.6535 105.1263 105.1946 C 105.6987 114.0003 105.0883 110.8103 105.1234 113.2167 C 107.4868 112.8412 106.1557 112.4884 112.5838 112.6974 C 112.5717 106.2666 112.5701 107.5905 113.2092 105.0672 Z M 191.5494 105.2536 C 191.997 107.244 192.2561 107.1376 192.0225 112.5243 C 195.4893 113.0085 193.6213 112.0697 199.6012 113.2107 C 198.9761 105.2409 199.2808 111.287 199.5356 105.2167 C 190.9213 105.6497 193.3015 105.1228 191.5494 105.2536 Z M 148.9399 110.953 C 156.3271 110.3935 151.7705 110.7508 155.6745 110.885 C 156.7032 107.0565 154.8821 91.61169 152.4056 89.10486 C 150.6007 90.38388 147.478 104.0268 148.9399 110.953 Z M 127.6544 97.65207 C 144.7057 106.2179 129.134 98.70799 146.4004 110.483 C 148.9669 87.25273 148.1665 96.56896 149.3171 89.43723 C 149.293 89.44026 149.3875 89.24788 148.1334 89.7068 C 147.9973 89.75658 141.7755 92.14447 141.37 92.3009 C 139.447 93.04274 128.1856 97.39773 127.6544 97.65207 Z M 155.373 89.39236 C 159.304 112.4745 157.5156 104.9976 158.2498 110.483 C 169.4779 103.5481 157.2114 108.8142 177.0314 97.6385 C 176.6034 97.46078 156.7473 89.60426 155.373 89.39236 Z M 92.37008 105.8572 C 92.62195 105.698 92.55847 105.8298 92.68932 105.6836 C 93.00632 105.3292 93.4632 100.9805 93.47101 99.79189 C 92.70488 100.1925 93.64348 99.47205 90.80303 101.7764 C 90.00578 102.4232 85.22725 106.31 85.11382 106.403 C 80.37685 110.2861 81.63882 109.198 80.84908 109.9832 C 81.35664 109.9585 80.64985 110.2783 83.55886 109.1915 C 91.67804 106.1581 92.21082 105.9579 92.37008 105.8572 Z M 213.6058 101.5431 C 211.295 99.69044 211.2121 99.69598 211.1619 99.66003 C 211.729 105.4819 211.7852 104.9926 211.9749 105.6987 C 212.2068 105.8022 222.3927 109.9069 223.9115 110.0287 C 223.0516 109.2033 224.2885 110.2406 220.6486 107.2948 C 220.5072 107.1804 214.0314 101.8843 213.6058 101.5431 Z M 76.89812 100.3704 C 76.66103 102.4024 76.88039 107.4953 77.45027 109.6531 C 78.05146 109.2948 89.85307 99.91403 91.02267 98.6129 C 87.89453 98.75479 77.17715 100.314 76.89812 100.3704 Z M 216.098 100.7596 L 225.6589 108.5324 C 227.1127 109.7143 227.1419 109.6152 227.1736 109.6352 C 227.8388 107.7198 228.1324 102.2606 227.8305 100.4422 C 226.4653 99.97015 216.3789 98.88653 213.5077 98.56667 C 213.8631 98.88202 214.4653 99.43219 216.098 100.7596 Z M 104.5212 95.33915 C 104.2957 95.09402 97.05582 96.15065 96.26094 96.39909 C 96.1797 96.72474 95.05205 103.5907 95.31314 104.7361 C 97.29556 104.1981 95.42039 104.5955 102.2442 102.332 C 104.5211 95.49397 104.82 95.66384 104.5212 95.33915 Z M 200.1721 95.36432 C 200.3049 96.68938 202.4678 102.2614 202.5774 102.3608 C 202.683 102.4565 208.4798 104.5235 209.3255 104.6499 C 209.4961 103.4956 208.7045 97.49075 208.3846 96.36858 C 206.6166 95.93587 200.999 95.33558 200.1721 95.36432 Z M 119.3195 98.4883 C 115.3029 91.50463 103.3947 99.75344 104.9852 102.6245 C 105.419 103.4076 112.5755 105.2476 119.3195 98.4883 Z M 199.8484 102.4487 C 197.6593 94.91666 187.8628 94.39928 185.2941 98.48599 C 193.4132 105.2366 197.8576 103.8131 199.8484 102.4487 Z M 77.57454 91.08708 C 77.16352 92.27028 76.70889 97.82699 76.9147 98.01437 C 77.12112 98.2023 83.06363 97.65169 90.77737 96.39044 C 90.16771 95.79287 79.2746 91.24509 77.57454 91.08708 Z M 213.8731 96.2674 C 214.6717 96.52766 226.9234 98.04894 227.7623 98.00832 C 227.8816 96.75383 227.4765 92.25063 227.1456 91.0347 C 225.1981 91.47792 214.8443 95.66782 213.8731 96.2674 Z M 122.3626 97.06998 C 122.8005 97.35791 134.4383 92.84171 134.5813 92.33746 C 134.8442 91.4101 131.4234 88.73518 126.7634 90.49234 C 121.5798 92.44695 121.7013 96.63521 122.3626 97.06998 Z M 170.0149 92.35191 C 171.0588 93.15004 182.0219 97.24132 182.258 97.12589 C 186.9803 94.81743 173.1683 85.12541 170.0149 92.35191 Z M 173.9076 87.66492 C 185.1598 90.00188 182.0347 90.3325 185.1237 95.49926 C 190.7547 91.9202 195.0234 94.39779 197.4794 95.56279 C 197.4522 95.19877 192.388 80.25958 191.1799 78.43275 C 190.799 78.52422 178.7503 83.68678 173.9076 87.66492 Z M 113.4384 78.44582 C 112.4836 80.4024 107.3069 94.76871 107.2178 95.48895 C 109.2733 95.07047 108.7996 93.79182 113.5179 93.67844 C 117.8668 93.57392 119.2161 95.60506 119.6815 95.39193 C 121.1648 94.7125 117.9644 89.54513 130.8839 87.68724 C 130.2554 87.2092 114.9979 78.69598 113.4384 78.44582 Z M 77.9704 88.65799 C 83.34097 90.83768 90.63899 93.66318 91.46095 93.94649 C 90.88223 93.13174 82.50558 84.49042 79.61696 82.23589 C 78.54016 83.90813 78.05721 87.86716 77.9704 88.65799 Z M 225.0845 82.24001 C 224.7133 82.51997 224.8483 82.26073 221.6536 85.37746 C 220.941 86.07266 215.8653 91.08666 215.7479 91.20386 C 213.0736 93.87213 213.5846 93.47816 213.3281 93.82043 C 213.875 93.64412 226.4107 89.05724 226.692 88.55627 C 227.0749 87.87431 225.4953 83.05476 225.0845 82.24001 Z M 65.803 82.56339 C 65.45483 82.04369 58.98563 80.78058 58.2071 80.70784 C 57.41222 82.06891 55.16167 92.95474 55.14083 93.47972 C 55.31915 93.46747 62.42487 92.67468 64.02139 92.47752 C 64.93913 88.96931 66.02727 82.89812 65.803 82.56339 Z M 99.55592 93.58833 C 105.8467 93.02576 105.4616 92.84183 105.5787 92.80962 C 105.8002 92.35925 109.4073 83.75548 109.9492 81.04898 C 109.6953 81.25304 106.6504 84.25148 99.55592 93.58833 Z M 199.0115 92.7522 C 199.3722 93.08041 203.2278 93.4883 205.0557 93.5451 C 202.3816 89.84213 195.1941 81.36172 194.6859 80.95248 C 194.8498 81.68851 198.8256 92.58303 199.0115 92.7522 Z M 238.7128 82.51194 C 238.7764 83.73189 238.996 84.11615 240.6284 92.51013 C 250.0558 93.30785 246.8398 93.18499 249.5002 93.48868 C 249.4007 90.60484 246.6186 80.94797 246.4806 80.72485 C 244.7292 80.81121 239.7715 82.15944 238.7128 82.51194 Z M 92.46224 66.50145 C 92.02316 66.54637 73.72323 69.76866 70.82267 70.8329 C 69.96824 72.8749 66.4452 92.08121 66.39424 92.52098 C 75.55189 92.84737 70.70787 92.95959 75.03002 92.91518 C 77.00101 77.45053 77.83554 76.95674 92.81229 75.13741 C 92.74956 71.68076 92.54736 68.74702 92.46224 66.50145 Z M 233.8551 70.86861 C 233.5346 70.56403 214.8304 66.54236 212.1775 66.52847 C 212.1775 72.00424 211.7925 72.51244 211.8578 75.07838 C 233.2075 79.01491 224.872 79.084 229.7457 92.8904 C 230.7601 93.01012 237.7411 92.50217 238.2439 92.41269 C 238.1554 91.01062 238.3616 92.38979 236.0653 80.91003 C 234.2502 71.8362 234.3023 71.29356 233.8551 70.86861 Z M 82.13727 79.65892 C 82.36118 79.95555 82.02868 79.76138 85.27094 83.08854 C 85.38991 83.21062 90.53428 88.43118 91.25386 89.1579 C 93.99463 91.92581 93.50246 91.32098 93.8479 91.56845 C 93.42841 90.18236 89.15514 79.40802 88.58446 78.07703 C 86.46962 78.27715 84.05886 78.75334 82.13727 79.65892 Z M 216.0739 78.07692 C 211.4653 89.86465 211.1013 90.37904 210.9653 91.52156 C 216.3058 87.11912 222.2705 79.98547 222.4688 79.72221 C 220.2012 78.3679 216.7319 78.13188 216.0739 78.07692 Z M 137.5211 91.33138 C 138.0573 91.21407 149.1688 87.10611 150.299 86.32772 C 140.3769 79.44434 137.4299 89.96214 137.5211 91.33138 Z M 154.5704 86.36227 C 156.1841 87.34377 166.5866 91.20714 167.1107 91.33583 C 167.3877 86.48717 160.1906 80.53723 154.5704 86.36227 Z M 100.3532 77.06628 C 99.93987 77.45465 98.56759 89.99301 98.51144 91.12601 C 100.0683 89.71937 109.3603 77.85814 109.5415 77.55905 C 108.1449 77.09303 100.8897 76.56224 100.3532 77.06628 Z M 195.1102 77.54027 C 195.83 78.73741 205.3255 90.43947 206.184 91.03989 C 206.1814 90.756 204.7995 78.61324 204.4001 76.95728 C 202.9112 76.92365 198.5421 76.68373 195.1102 77.54027 Z M 90.97879 77.64954 C 91.23618 79.33802 95.70737 90.20285 96.2289 90.8791 C 96.43881 90.06905 97.97692 78.14252 97.88272 77.03076 C 96.91513 76.95657 92.41924 77.14896 90.97879 77.64954 Z M 213.6771 77.58655 C 212.723 77.33752 214.3875 77.55988 206.6733 76.8446 C 206.7055 77.12495 208.2243 90.02286 208.4298 90.84409 C 208.4871 90.77241 208.5633 91.15765 209.4961 88.81355 C 209.6552 88.41382 211.5322 83.60444 212.1098 82.13652 C 214.0481 77.21059 213.5726 78.54332 213.6771 77.58655 Z M 168.0457 86.47886 C 166.7045 79.09213 156.6415 64.73863 152.3515 64.73952 C 150.827 64.73984 146.1243 68.63049 142.8216 73.1402 C 139.2202 78.05772 137.1794 83.43349 136.6925 86.29485 C 137.9145 85.32654 142.916 77.27859 152.2373 85.0896 C 157.6257 82.38221 160.744 78.5331 168.0457 86.47886 Z M 124.1615 81.30856 C 126.0049 82.63928 131.7697 85.60056 132.4993 85.80546 C 132.4605 85.09671 129.2849 69.74506 128.6248 68.48823 C 128.4011 68.98297 124.8102 78.39334 124.1615 81.30856 Z M 176.0255 68.49381 C 175.445 69.78938 172.2569 84.76235 172.2191 85.82642 C 175.9484 84.50124 179.5858 81.98621 180.4827 81.29756 C 180.3384 80.49701 176.6998 69.66992 176.0255 68.49381 Z M 134.7531 84.50879 C 136.5305 79.46535 134.5321 83.41199 139.2888 74.33333 C 138.3504 73.08591 131.6249 67.50061 130.8752 67.01733 C 130.9178 67.73271 133.9988 82.88371 134.7531 84.50879 Z M 173.9142 66.96437 C 172.0534 68.19853 166.3137 73.2117 165.4214 74.21098 C 165.5098 74.4158 169.9062 84.18034 170.0029 84.38141 C 170.3433 83.60896 170.1557 84.41846 170.8439 81.24554 C 171.0634 80.23317 172.3956 74.16212 172.4272 74.01754 C 173.9652 66.97533 173.8238 67.53392 173.9142 66.96437 Z M 61.85358 64.34503 C 61.51778 65.13432 58.78923 76.56619 58.64069 78.27525 C 59.66562 78.72801 66.03699 80.37415 66.43285 80.10232 C 66.58986 79.99449 68.48825 71.64854 68.19321 70.74306 C 68.02578 70.22923 64.38067 66.37671 61.85358 64.34503 Z M 242.7913 64.29111 C 241.5426 65.30436 240.1986 66.75319 236.4705 70.60475 C 236.5384 72.93024 237.9108 79.23935 238.3114 80.12204 C 238.943 80.10669 237.5827 80.47511 246.0225 78.41736 C 246.0044 76.67852 243.0379 64.81569 242.7913 64.29111 Z M 115.2436 76.36113 C 116.135 77.22449 120.8585 79.89335 122.0952 79.99599 C 122.4483 79.2885 126.0867 69.09587 126.4392 67.55426 C 125.4596 68.13661 116.024 75.53075 115.2436 76.36113 Z M 178.324 67.62027 C 178.5771 69.17836 182.2396 79.35843 182.6027 80.05923 C 184.1119 79.70592 188.8548 76.92946 189.4567 76.44124 C 188.9103 75.78719 179.8255 68.42692 178.324 67.62027 Z M 113.4752 59.91459 C 112.1894 61.18377 110.6572 64.74107 109.7118 65.15588 C 109.0238 65.45775 103.6469 64.0708 102.3089 63.87451 C 101.2474 64.94426 97.24701 71.97195 95.82268 74.62817 C 110.856 75.73441 111.8506 75.80081 112.1703 75.7292 C 112.5232 75.65019 125.0759 65.79683 126.3466 64.51097 C 125.6413 64.09251 115.0848 60.22952 113.4752 59.91459 Z M 194.8363 65.06745 C 194.2828 64.76758 194.6878 65.0144 191.3396 59.83327 C 189.7459 60.2487 179.6268 63.83002 178.4384 64.51667 C 179.1916 65.4028 178.3169 64.66611 183.3904 68.66677 C 184.0732 69.20515 188.8469 72.98112 189.0747 73.16032 C 192.1349 75.56762 192.3147 75.61842 192.5294 75.76425 C 205.7418 73.65482 204.2746 75.21864 208.8083 74.65408 C 208.1887 73.29581 203.4975 65.05141 202.5341 63.91088 C 200.6688 64.01407 195.9314 65.6608 194.8363 65.06745 Z M 140.5726 72.17363 C 140.7802 72.164 139.8163 72.59745 147.7501 64.6539 C 145.9294 64.31575 132.6289 64.95256 132.322 64.9857 C 133.3531 66.11871 140.3539 72.18377 140.5726 72.17363 Z M 156.8896 64.65749 C 162.4416 69.76279 161.0327 68.81691 164.0884 72.26776 C 165.1373 71.46871 171.3665 66.19527 172.3167 64.98546 C 171.0893 64.85368 158.4026 64.35452 156.8896 64.65749 Z M 112.3972 57.54975 C 113.0365 57.29651 113.4021 57.40834 117.9303 59.04188 C 122.8331 60.81056 124.4239 61.38867 124.5628 61.41208 C 125.1651 61.51358 125.1111 61.493 125.1222 61.49503 C 123.6962 57.80996 109.8336 41.89253 101.6798 45.77692 C 95.9503 48.50638 93.36852 62.50251 94.95786 71.35166 C 97.69471 68.12511 99.9584 61.94421 101.2762 61.44189 C 102.265 61.06502 105.5245 62.70237 108.6929 62.89655 C 110.951 60.37828 111.3086 57.9809 112.3972 57.54975 Z M 195.9707 62.89989 C 199.0172 62.74594 202.5934 61.06274 203.4464 61.39405 C 204.76 61.90423 206.741 67.68355 209.6902 71.33943 C 210.6445 67.64575 210.6508 47.32912 201.6072 45.31595 C 191.9903 43.17513 179.7727 61.02079 179.5544 61.52273 C 183.7094 60.77549 190.3586 56.85561 192.105 57.45696 C 193.3674 57.89167 193.8859 60.46626 195.9707 62.89989 Z M 78.20878 58.7206 C 76.1964 58.84135 64.9733 61.63557 64.18427 61.98757 C 65.11943 63.14278 70.35039 68.29541 70.8959 68.40973 C 71.07811 68.44792 79.79684 66.8075 80.00616 66.49957 C 80.09592 66.36752 80.56385 64.3127 78.20878 58.7206 Z M 226.5216 58.75385 C 226.2472 58.91741 224.4108 66.13335 224.6841 66.52701 C 224.7913 66.68136 223.741 66.44904 233.8754 68.47345 C 235.2057 67.47575 239.51 63.12586 240.4559 61.9901 C 239.1695 61.36444 226.7674 58.60737 226.5216 58.75385 Z M 93.39265 55.24464 C 91.55192 55.26126 81.30252 57.92197 80.59889 58.27876 C 80.69336 59.38817 81.7682 64.05438 82.37802 66.03019 C 83.40434 66.02475 86.63245 65.32451 92.46224 64.12067 C 92.5891 59.66014 93.12857 58.08829 93.39265 55.24464 Z M 211.3752 55.27131 C 210.9793 55.63094 211.5347 54.36347 212.2312 64.14439 L 212.7039 64.23611 C 212.8358 64.28508 212.4301 64.17059 219.6004 65.6196 C 222.4616 66.19781 221.2099 66.01003 222.217 66.06194 C 222.5454 65.32224 224.2923 58.47781 224.1296 58.19789 C 223.9873 57.95299 223.1926 57.85511 217.2613 56.47559 C 214.3354 55.79507 211.642 55.02893 211.3752 55.27131 Z M 139.0182 57.07965 C 132.7402 57.4967 130.6801 60.94521 130.2125 62.77392 C 131.3752 62.88855 137.3911 62.58754 138.5519 62.45434 C 138.7221 61.82974 138.8865 61.93327 139.0182 57.07965 Z M 174.4879 62.74633 C 173.9428 60.28046 170.8781 57.30283 165.6216 57.07965 C 165.8289 61.97138 166.1001 62.28195 166.1478 62.49427 C 166.4792 62.534 173.6688 62.90554 174.4879 62.74633 Z M 152.5059 36.34931 C 147.9469 36.10823 139.9824 52.896 141.1526 62.52642 C 141.6004 62.53917 140.2568 62.43894 163.5524 62.5469 C 165.1146 55.90462 157.6164 36.61958 152.5059 36.34931 Z M 128.1235 61.34911 C 129.4734 59.73093 130.8406 55.37285 139.5094 54.72876 C 141.1994 48.18527 140.8268 49.73518 140.9873 48.76535 C 133.8749 46.27904 124.9629 54.17764 124.8924 56.68814 C 124.8765 57.25505 126.0121 58.97654 128.1235 61.34911 Z M 163.7182 48.70783 C 163.8392 49.77733 165.0692 54.28736 165.1401 54.51582 C 169.8996 56.21804 171.0301 53.85228 176.5529 61.34911 C 177.9199 60.07682 179.5259 57.52677 179.8334 56.94376 C 178.5871 52.40636 170.7671 47.05935 163.7182 48.70783 Z M 117.7871 49.42949 C 122.6532 54.29773 121.6945 53.52531 123.1229 54.90871 C 131.7191 43.40585 141.0853 46.82915 141.8071 46.43888 C 141.9463 46.3636 145.1344 39.96137 145.375 39.37583 C 141.8276 37.29867 125.4719 39.04391 117.7871 49.42949 Z M 162.7906 46.54295 C 175.0439 44.98723 178.7267 51.40884 181.5997 54.90991 C 184.5037 52.00428 186.7325 49.50276 186.8343 49.3897 C 180.6797 40.80581 164.4235 36.62951 159.2489 39.39655 C 160.2114 41.41176 159.8238 39.65762 162.7906 46.54295 Z M 115.9885 47.91079 C 131.6101 33.99169 129.7281 40.08836 136.2878 36.57938 C 123.7958 28.84846 105.5301 37.98356 101.9326 43.15058 C 104.3057 43.07168 107.4544 41.48149 115.9885 47.91079 Z M 188.6285 47.91079 C 201.5159 40.46035 196.4938 43.57868 202.7308 43.14414 C 198.6239 36.63911 178.8523 29.60549 168.3816 36.59384 C 173.136 38.4474 179.1773 37.69523 188.6285 47.91079 Z M 152.3323 21.59765 C 150.6867 23.15576 140.8981 35.67266 140.4884 36.30728 C 143.5573 36.83035 142.0259 35.97689 146.8826 37.39259 C 155.9046 30.38381 154.6389 36.64407 157.8674 37.30569 C 157.9931 37.33144 158.6162 37.10744 164.2059 36.31739 C 163.3993 35.03736 153.9126 23.22644 152.3323 21.59765 Z M 145.5894 246.1414 C 146.3941 244.2222 149.178 247.9887 152.3398 250.442 C 154.9655 248.6266 157.6085 244.7781 158.8329 245.8021 C 160.1364 246.8922 157.4994 248.0067 153.58 252.4798 C 153.58 257.7311 153.5803 260.2721 153.5792 260.9497 C 153.579 261.0534 154.0287 268.241 151.4539 265.6811 C 151.0522 265.2817 151.0745 263.7115 151.0992 260.9735 C 151.1051 260.3176 151.2099 252.9392 151.2122 252.7753 C 148.0707 248.3933 145.0513 247.4245 145.5894 246.1414 Z M 107.4119 248.8997 C 107.7097 249.1794 108.2338 249.9739 108.1032 250.8217 C 107.9224 251.9961 106.3975 253.1802 105.0769 252.9731 C 103.1744 252.6747 102.279 250.08 103.5467 248.8724 C 104.2744 248.1792 106.3975 247.9472 107.4119 248.8997 Z M 201.7418 249.9172 C 202.7491 254.2752 194.9838 253.473 196.7823 249.5957 C 197.6607 247.7022 201.2494 247.7867 201.7418 249.9172 Z M 136.821 253.1396 C 136.5946 256.5061 124.9272 249.7098 129.5686 248.8322 C 129.7343 248.8008 136.8776 252.298 136.821 253.1396 Z M 175.2778 248.858 C 179.2968 250.2727 167.5513 256.4146 167.8411 253.0184 C 167.8845 252.509 175.1171 248.8014 175.2778 248.858 Z M 111.841 233.0477 C 112.8846 233.3945 117.4932 239.9458 116.4453 240.9714 C 114.9922 242.3936 113.5202 237.9255 111.0114 235.3474 C 106.0117 236.5725 104.0012 238.1728 103.1416 237.0078 C 101.439 234.7005 111.4781 232.9271 111.841 233.0477 Z M 201.5977 236.8357 C 200.764 238.4196 198.4292 236.037 193.5893 235.4002 C 192.5408 236.5146 189.9978 241.9594 188.4124 241.0331 C 186.676 240.0186 192.4621 233.1328 192.8094 233.0184 C 192.9914 232.9584 202.7581 234.6313 201.5977 236.8357 Z M 153.3314 225.0454 C 154.2701 225.6293 158.6219 232.4318 157.2599 233.3774 C 155.78 234.4049 155.737 231.9101 152.3674 227.6844 C 150.2827 229.9992 149.1337 233.7169 147.8108 233.5368 C 145.2067 233.1824 151.3879 225.014 151.5558 224.9302 C 151.8424 224.7872 152.9083 224.7823 153.3314 225.0454 Z M 72.80741 223.8919 C 74.29395 223.8742 74.70182 228.2063 75.94078 229.2353 C 76.70878 229.8731 80.70695 230.406 80.83609 231.8422 C 81.05438 234.2697 75.35869 231.9462 74.13518 230.8771 C 73.92102 230.6899 70.2479 223.9224 72.80741 223.8919 Z M 230.5973 230.8953 C 229.9858 231.4458 223.8501 234.182 223.8282 231.988 C 223.814 230.5688 228.1501 229.9296 228.9833 229.0902 C 229.7489 228.3188 230.5439 223.5948 232.082 223.9083 C 234.1818 224.3363 230.8097 230.7042 230.5973 230.8953 Z M 116.3043 216.1763 C 117.6795 216.2231 118.3153 217.6293 118.3322 218.2023 C 118.3544 218.9591 117.7666 219.732 117.3182 220.0448 C 116.8792 220.3509 116.4592 220.4307 116.1674 220.4388 C 115.3641 220.4613 114.0611 219.8082 113.907 218.6706 C 113.7399 217.4364 115.1287 216.1363 116.3043 216.1763 Z M 190.5855 219.2771 C 190.2679 219.9324 189.7626 220.1942 188.4875 220.4982 C 184.939 219.1776 186.6269 216.5953 187.868 216.2405 C 189.6703 215.7253 191.2609 217.8836 190.5855 219.2771 Z M 143.9288 212.4232 C 143.212 212.4431 142.9071 212.381 142.2848 206.6777 C 141.8099 202.3257 141.5162 201.5209 142.2899 201.0651 C 144.8607 199.5508 145.5348 212.3788 143.9288 212.4232 Z M 137.1708 207.7129 C 135.6916 206.4231 137.9126 204.6396 138.969 205.6645 C 140.3776 207.031 138.3623 208.752 137.1708 207.7129 Z M 160.6332 212.4229 C 159.2457 212.2691 159.9764 200.1719 162.1884 200.8934 C 163.5157 201.3264 162.4833 212.6279 160.6332 212.4229 Z M 165.6808 207.6416 C 164.7347 206.6435 165.4258 205.1519 166.8826 205.3962 C 169.2437 205.7923 167.3979 209.453 165.6808 207.6416 Z M 55.77422 197.2162 C 57.15608 198.4892 56.50404 201.3914 54.86973 201.8253 C 51.83121 202.6321 50.37354 197.3191 53.87876 196.6802 C 54.77016 196.5178 55.51344 196.976 55.77422 197.2162 Z M 252.812 200.0156 C 252.5249 201.0023 251.2051 202.1165 249.8766 201.7811 C 247.5451 201.1925 247.7798 197.5038 249.5415 196.7826 C 251.0737 196.1555 253.48 197.7195 252.812 200.0156 Z M 63.58566 188.6735 C 64.13559 187.1103 70.98692 190.8159 71.77451 192.8803 C 71.84332 193.0606 70.03566 203.4503 67.76197 201.6577 C 66.62675 200.7627 68.75047 197.4306 69.3518 193.7855 C 67.71091 192.1571 63.12535 189.982 63.58566 188.6735 Z M 241.1231 188.6917 C 241.4736 189.8669 238.3311 191.3273 235.3286 193.7091 C 235.7511 197.1132 238.6821 201.4305 236.4258 201.8022 C 234.5534 202.1107 232.8628 193.1675 232.9187 192.9861 C 233.5185 191.0391 240.5938 186.9169 241.1231 188.6917 Z M 117.2797 195.6251 C 117.5564 194.3581 124.4605 193.8682 125.2887 194.3782 C 125.8473 194.7222 129.8779 200.646 128.8917 201.7441 C 127.9391 202.8049 127.4602 202.0747 124.1766 196.3976 C 120.8561 196.6647 116.8354 197.6591 117.2797 195.6251 Z M 179.4927 194.3068 C 180.3549 193.8847 188.021 193.6587 187.1642 196.5755 C 185.581 197.3008 186.225 196.6538 180.4668 196.5021 C 178.7052 199.5142 177.3665 202.4378 176.1844 202.0126 C 174.1327 201.2747 179.0408 194.528 179.4927 194.3068 Z M 84.82951 187.3151 C 85.74886 186.1251 87.74632 186.2566 88.38986 187.6946 C 88.77451 188.5541 88.41376 189.671 87.80333 190.2437 C 87.55104 190.4804 86.75674 190.9831 85.96768 190.813 C 84.86981 190.5763 84.46084 189.3941 84.40532 189.0712 C 84.2522 188.181 84.71906 187.4581 84.82951 187.3151 Z M 218.0882 186.4952 C 218.6737 186.4694 219.1786 186.6624 219.5499 186.9877 C 220.4276 187.7568 220.3713 189.1998 220.1366 189.7035 C 219.9523 190.0991 219.1951 190.8679 218.2788 190.8479 C 216.9774 190.8195 215.8011 189.205 216.1993 187.8899 C 216.3762 187.3056 217.0092 186.5428 218.0882 186.4952 Z M 110.525 179.6565 C 110.7379 180.0822 110.5398 187.1016 109.1605 187.4704 C 106.6741 188.1351 108.7645 181.7351 108.3107 180.751 C 107.5931 179.1946 100.6819 177.8822 103.0965 175.8714 C 104.2497 174.9111 110.3013 179.2091 110.525 179.6565 Z M 201.9538 176.4658 C 202.07 177.2903 201.4065 177.6625 196.34 180.5443 C 196.7117 185.8008 197.3494 187.2306 195.9832 187.4688 C 194.0479 187.8063 193.7189 180.3222 194.2177 179.476 C 195.2294 177.7597 201.6758 174.493 201.9538 176.4658 Z M 120.3712 186.5497 C 117.7123 187.0387 117.5988 182.7332 120.0741 183.0048 C 121.7007 183.1833 122.6103 186.1378 120.3712 186.5497 Z M 123.0323 170.7283 C 124.6337 171.2245 123.8618 176.3137 125.2272 179.7801 C 129.8375 180.8778 133.8951 180.2849 134.0876 181.914 C 134.4284 184.7983 123.8869 181.7325 123.7192 181.6103 C 122.8382 180.968 120.1161 169.8246 123.0323 170.7283 Z M 183.8481 186.3384 C 181.9239 185.3269 183.4697 182.783 185.1274 183.0739 C 187.9593 183.5707 185.8964 187.4153 183.8481 186.3384 Z M 182.4455 170.7618 C 183.3044 171.1745 183.013 172.1747 182.6652 174.4202 C 181.6492 180.9799 181.851 180.9196 181.1943 181.4837 C 180.0685 182.4508 170.2859 184.238 170.6027 181.9274 C 170.8526 180.1044 178.6923 180.415 179.5279 179.6933 C 180.6657 178.7107 179.7355 169.4595 182.4455 170.7618 Z M 55.81705 175.4943 C 54.14114 178.9438 49.20741 168.8843 51.30843 168.035 C 52.76299 167.4471 55.89322 175.3375 55.81705 175.4943 Z M 253.7288 168.2986 C 255.3845 169.9993 249.2836 179.5174 248.7293 175.1443 C 248.708 174.9761 252.0731 166.5979 253.7288 168.2986 Z M 137.3087 161.4544 C 138.6378 161.6347 138.9152 165.2612 139.1555 165.5261 C 139.6681 166.0909 143.9083 166.1588 143.2589 167.9513 C 142.7802 169.2724 137.9477 167.9131 137.4261 167.4424 C 136.8925 166.9609 135.1722 161.1646 137.3087 161.4544 Z M 165.449 165.612 C 166.042 164.0553 166.3363 161.5478 167.4412 161.4354 C 169.7108 161.2044 167.5049 167.1876 167.2435 167.4354 C 166.648 168.0001 161.3238 169.5776 161.3834 167.5854 C 161.4104 166.682 162.5635 166.3673 165.449 165.612 Z M 97.20358 167.7517 C 96.05119 166.7808 97.10581 164.7672 98.66714 165.4938 C 100.6676 166.4247 98.52058 168.8613 97.20358 167.7517 Z M 103.8402 161.7155 C 104.6877 164.5597 92.66734 161.8811 92.43595 161.2365 C 91.51041 158.6582 103.5142 160.6217 103.8402 161.7155 Z M 151.5498 171.2354 C 150.4179 170.1698 152.1685 169.1732 153.0115 169.7265 C 154.3111 170.5796 152.5899 172.2146 151.5498 171.2354 Z M 206.0167 167.9203 C 204.7861 167.3662 205.2027 165.5053 206.3867 165.3513 C 208.6515 165.0568 208.336 168.9645 206.0167 167.9203 Z M 201.0977 162.6498 C 198.6134 159.7307 211.7997 159.8648 212.102 160.1995 C 214.3688 162.7095 201.5361 163.1649 201.0977 162.6498 Z M 71.30853 147.7024 C 71.9848 145.7146 79.50641 150.7578 79.91496 151.8277 C 80.77708 154.0855 71.70196 159.3531 71.26077 156.9769 C 71.0183 155.6709 74.9531 154.2637 77.06028 152.4134 C 73.87989 149.7264 70.78169 149.2509 71.30853 147.7024 Z M 224.9769 151.414 C 225.0764 151.2589 232.7193 145.4785 233.4341 147.7643 C 234.0148 149.6214 232.2065 148.3949 227.5795 152.4264 C 230.0061 154.5844 233.6284 155.4263 233.4556 156.8923 C 233.1488 159.4938 225.0161 153.5399 224.8592 153.2001 C 224.7092 152.8751 224.6868 151.8658 224.9769 151.414 Z M 39.68764 153.7711 C 39.32293 153.3742 38.76997 152.9072 38.8064 152.3357 C 38.83541 151.8804 39.33968 151.4308 39.53288 151.2076 C 46.33919 151.2246 46.82536 151.2265 47.63564 151.2264 C 58.99516 151.2254 54.93851 143.7679 58.67146 145.6886 C 60.23665 146.4939 58.25887 147.7833 54.25701 152.3616 C 56.16826 154.9563 59.94342 157.6282 58.95898 158.9038 C 58.01832 160.1227 56.37462 157.6918 52.27718 153.5635 L 39.68764 153.7711 Z M 252.4998 151.2392 C 260.3991 151.2199 260.3991 151.2197 260.9033 151.2193 C 264.9836 151.2162 265.2761 151.1851 265.6299 151.6312 C 267.8333 154.4095 260.5998 153.6989 260.489 153.6973 C 259.6957 153.6859 256.5228 153.6319 252.5567 153.5647 C 246.437 158.8612 247.3986 159.8318 246.0058 159.152 C 244.131 158.2369 248.4296 155.368 250.3772 152.4232 C 246.7798 147.8555 245.1234 147.4138 245.5435 146.229 C 246.3455 143.9665 248.7959 148.1849 252.4998 151.2392 Z M 133.7511 153.3906 C 132.6414 152.708 133.5542 150.9897 134.6078 151.3955 C 135.8235 151.8637 135.1566 154.2551 133.7511 153.3906 Z M 169.841 153.3075 C 168.7054 152.4132 169.9765 150.7923 170.9714 151.4317 C 171.9663 152.0711 171.1143 154.3102 169.841 153.3075 Z M 92.34694 143.877 C 93.66388 142.0247 103.1051 141.6567 103.5786 142.1474 C 105.5114 144.1503 99.76239 144.3514 99.67316 144.3613 C 92.08437 145.2081 92.82248 145.4207 92.34694 143.877 Z M 97.16685 139.1331 C 95.92258 138.0343 97.30274 136.2598 98.69972 136.938 C 100.3376 137.7331 98.85265 140.6219 97.16685 139.1331 Z M 212.3344 143.9072 C 211.6214 146.0865 199.3401 144.8168 200.9789 142.3268 C 201.7352 141.1776 211.482 142.5472 212.3344 143.9072 Z M 205.7881 139.2113 C 204.2774 138.1286 205.8365 136.561 207.069 136.8855 C 208.8663 137.3587 207.6009 140.5106 205.7881 139.2113 Z M 143.1979 136.829 C 144.0043 138.4649 142.4651 137.9016 139.1257 139.3689 C 138.8741 140.2093 138.4925 143.1972 137.3681 143.3874 C 135.4161 143.7175 136.4209 138.6085 137.35 137.5647 C 137.8202 137.0363 142.5725 135.5602 143.1979 136.829 Z M 161.4419 136.8241 C 162.0378 135.5589 166.9011 137.0897 167.2395 137.4103 C 167.5001 137.6572 169.6325 143.2147 167.6052 143.3821 C 166.5941 143.4655 166.2985 142.1135 165.5294 139.2641 C 162.9711 138.5147 160.8334 138.1161 161.4419 136.8241 Z M 51.80014 136.8892 C 47.82195 137.2669 55.34492 124.8842 55.95379 129.6743 C 56.04581 130.3982 54.52718 131.2953 53.36656 134.1997 C 52.97388 135.1824 52.79164 136.7951 51.80014 136.8892 Z M 253.3289 136.8319 C 251.6936 137.4098 248.7167 129.6177 248.7725 129.4535 C 250.113 125.5127 255.9453 135.9072 253.3289 136.8319 Z M 151.5015 135.0039 C 150.8842 134.269 151.5517 133.1053 152.6768 133.3864 C 154.7717 133.91 152.5816 136.2899 151.5015 135.0039 Z M 134.0203 123.1766 C 133.5326 124.3634 127.741 124.497 125.0718 125.1565 C 123.5796 131.7228 124.3839 134.993 122.326 134.0968 C 120.7582 133.4139 123.1153 123.7797 123.4024 123.4629 C 123.545 123.3055 135.2316 120.2292 134.0203 123.1766 Z M 119.2376 121.7385 C 116.8177 120.6602 119.0598 117.1537 121.0635 118.659 C 121.2768 118.8192 121.7652 119.3128 121.7641 119.965 C 121.7631 120.5823 120.7038 122.3919 119.2376 121.7385 Z M 181.4349 123.5513 C 181.7034 123.8721 183.6147 133.1865 182.6137 133.9437 C 180.2545 135.7281 180.7015 129.5014 179.6184 125.1985 C 174.5823 123.8231 170.8676 124.4568 170.5596 122.9973 C 169.9298 120.014 181.2952 123.3843 181.4349 123.5513 Z M 184.8219 121.9509 C 182.5307 121.0125 182.7734 119.7901 183.1288 119.1677 C 183.9068 117.8048 185.631 118.3852 186.1445 119.0562 C 186.6086 119.6628 187.0894 120.9407 184.8219 121.9509 Z M 108.3516 123.9776 C 108.745 123.0083 107.048 118.1681 108.4381 117.4404 C 110.8449 116.1804 110.6162 125.003 110.5472 125.1471 C 109.9617 126.3704 103.7493 130.0633 102.8974 128.7976 C 101.7593 127.1069 107.8589 125.1916 108.3516 123.9776 Z M 194.1466 125.1506 C 193.7524 124.2908 194.1805 117.6851 195.5699 117.3982 C 197.5872 116.9816 196.5528 120.5288 196.2855 124.2268 C 201.6198 127.3248 202.0389 127.6096 201.9844 128.3084 C 201.7744 131.0043 194.4283 125.7651 194.1466 125.1506 Z M 216.1665 115.9277 L 216.2926 115.5116 C 216.7383 114.4178 217.9544 113.8998 218.6759 114.0185 C 219.1258 114.0925 220.0358 114.5535 220.2425 115.6744 C 220.4282 116.6816 219.8491 118.1419 218.5253 118.3752 C 218.0777 118.4541 216.8096 118.3414 216.2966 117.1877 C 216.0496 116.6321 216.1272 116.1265 216.1665 115.9277 Z M 84.72067 117.4073 C 84.22021 116.6374 84.36623 115.586 84.53198 115.2291 C 84.82387 114.6005 85.69163 114.012 86.29686 113.9737 C 86.3469 113.9706 87.7411 113.9744 88.35799 115.4011 L 88.48328 115.7831 L 88.53622 116.17 L 88.52142 116.5528 L 88.44351 116.9227 C 88.2385 117.6059 87.76372 118.0644 87.26685 118.2628 C 86.65781 118.506 85.93779 118.3992 85.35271 118.0253 C 85.17395 117.911 84.93266 117.7334 84.72067 117.4073 Z M 67.82977 103.1869 C 69.55182 101.939 72.59075 109.8715 71.73708 112.0288 C 71.46619 112.7133 64.78033 117.8412 63.63847 116.3979 C 62.57016 115.0475 67.38176 113.063 69.35133 111.0481 C 68.93276 108.0343 66.53307 104.1266 67.82977 103.1869 Z M 235.341 111.2654 C 238.5909 113.5252 240.7994 114.3893 241.1528 116.1817 C 239.9183 117.3132 233.4309 113.8286 232.9218 111.8463 C 232.8743 111.6616 234.5978 101.9129 236.765 103.1179 C 238.2107 103.9217 235.4944 109.1204 235.341 111.2654 Z M 55.73967 103.5449 C 57.05042 104.6524 56.76556 107.3044 55.10531 108.0159 C 51.73441 109.4604 51.13631 104.5165 53.05255 103.3542 C 53.92781 102.8233 55.12236 103.0234 55.73967 103.5449 Z M 248.9196 103.5459 C 250.089 102.545 251.7495 103.3639 252.1217 103.717 C 254.3228 105.8042 251.9435 108.4525 250.0129 108.1317 C 249.4933 108.0454 249.1615 107.8149 249.0082 107.6903 C 247.7214 106.6445 248.1008 104.2467 248.9196 103.5459 Z M 124.0263 108.3174 C 125.2958 107.6819 126.9343 101.6092 128.7296 103.0008 C 130.0609 104.0326 125.6242 110.4149 125.1679 110.6319 C 123.8747 111.2468 117.6443 110.2359 117.3187 109.3385 C 116.3006 106.5322 121.9635 109.3502 124.0263 108.3174 Z M 180.6325 108.4836 C 182.2464 108.3945 183.7533 108.1558 185.3643 108.024 C 186.4796 107.9328 185.4029 107.6864 186.5543 107.9889 C 186.8524 108.0672 187.0038 108.1447 187.1577 108.3444 C 188.9792 110.7076 180.6633 111.1086 179.657 110.6662 C 179.1881 110.4602 173.803 103.5558 176.2603 102.8363 C 177.7682 102.3948 179.3385 106.7759 180.6325 108.4836 Z M 143.0407 103.8992 C 140.1451 104.5923 142.7947 92.74125 143.6682 92.46504 C 146.0702 91.70547 144.3771 103.5793 143.0407 103.8992 Z M 137.618 99.43732 C 136.6346 98.98862 136.2971 97.24668 137.633 96.86377 C 140.0575 96.16885 139.7721 100.4202 137.618 99.43732 Z M 161.6006 103.8968 C 160.2686 103.5726 159.1873 92.97511 160.4831 92.52763 C 162.4268 91.85641 164.2645 104.5453 161.6006 103.8968 Z M 166.0318 99.43387 C 164.7629 98.88268 165.1624 96.33125 167.0795 96.87299 C 168.7303 97.33948 167.8083 100.2055 166.0318 99.43387 Z M 186.3823 86.43341 C 186.3888 86.35799 186.4183 86.04626 186.5727 85.70065 C 186.646 85.53658 186.9325 84.93056 187.6172 84.6274 C 188.5953 84.19431 190.3555 84.67793 190.7091 85.89799 C 190.8958 86.54248 190.6121 88.00955 189.1815 88.53792 C 187.7671 89.06033 186.8204 88.04031 186.5739 87.5392 C 186.3163 87.01553 186.3784 86.47813 186.3823 86.43341 Z M 114.2881 85.3652 L 114.5628 85.05155 L 114.8928 84.79018 L 115.2686 84.59268 C 115.4289 84.52708 115.722 84.42723 116.1203 84.43555 C 118.4494 84.48415 119.0861 87.48572 117.2391 88.44228 C 116.2034 88.97864 114.2418 88.33575 113.9315 86.91129 C 113.864 86.60123 113.8248 86.00914 114.2881 85.3652 Z M 72.7786 80.97452 C 70.4515 80.94133 73.75258 74.31725 73.84048 74.2123 C 73.93259 74.10229 80.42931 70.45317 80.85518 72.709 C 81.17397 74.39763 76.89083 74.5801 75.62037 75.91277 C 74.57895 77.00519 74.28773 80.99605 72.7786 80.97452 Z M 223.898 72.49254 C 224.3824 71.47659 225.2421 71.89453 230.7771 73.9633 C 232.579 78.73154 233.6491 80.46956 232.1545 80.90765 C 230.2592 81.46318 230.4362 77.08229 228.8773 75.67753 C 227.4721 74.41136 222.9822 74.41327 223.898 72.49254 Z M 152.3157 77.16714 C 155.4801 73.69627 155.2573 71.32273 156.7249 71.30055 C 159.3452 71.26096 154.0551 81.03804 151.646 80.00662 C 151.2963 79.85687 145.2105 71.63707 147.8505 71.28462 C 149.1681 71.10871 150.8941 75.66543 152.3157 77.16714 Z M 110.9896 69.46811 C 112.898 67.45731 114.7045 63.21193 116.0229 63.63989 C 118.4492 64.42749 112.2602 71.64644 111.9187 71.77356 C 110.8379 72.17583 101.5598 69.80793 103.1371 67.87003 C 104.0476 66.7513 106.4361 68.53645 110.9896 69.46811 Z M 201.6115 67.91537 C 203.0586 69.97409 193.8241 72.24077 192.7482 71.80336 C 192.4121 71.66672 185.7901 63.68128 188.8729 63.6027 C 190.0764 63.57203 192.0551 67.81965 193.6547 69.41235 C 196.0785 69.25389 200.6803 66.59062 201.6115 67.91537 Z M 107.7347 55.61235 C 106.9089 56.81388 104.3677 56.91087 103.4553 55.88593 C 102.4197 54.72253 103.0633 52.16317 105.1224 51.89349 C 107.2854 51.61021 108.8673 53.96438 107.7347 55.61235 Z M 196.9244 53.16535 L 197.0954 52.90073 L 197.2955 52.67302 C 198.1438 51.8251 199.6349 51.83083 200.0663 51.98151 C 200.6885 52.19887 201.807 53.35616 201.7861 54.43444 C 201.7735 55.08868 201.3316 55.8149 200.9068 56.14642 C 199.891 56.93906 197.6311 56.66722 196.9184 55.59377 C 196.4886 54.94636 196.5495 53.84601 196.9244 53.16535 Z M 153.1288 39.09889 C 153.9857 39.70444 153.5995 45.6529 153.4886 52.20997 C 157.4994 56.96854 159.9413 57.76629 158.9164 58.93684 C 157.7545 60.26389 155.1863 56.43482 152.3406 54.34998 C 150.2262 55.82065 146.7262 60.60256 145.6423 58.8125 C 144.8433 57.49302 147.2312 57.01317 151.1594 52.25502 L 151.08 42.38033 C 151.0757 41.83875 150.8541 37.49147 153.1288 39.09889 Z M 129.6688 56.08508 C 124.3925 55.67791 137.4668 47.68275 136.8198 51.93351 C 136.7048 52.68867 136.465 52.46821 133.7882 53.62631 C 130.9703 54.84545 130.2428 56.12937 129.6688 56.08508 Z M 175.2902 55.934 C 174.3409 56.30232 174.4391 55.50082 172.4905 54.42171 C 168.5654 52.24798 168.5653 53.20848 168.0657 52.37074 C 165.3426 47.80447 179.4958 54.30225 175.2902 55.934 Z" fill="#000000" fill-opacity="1" stroke="#000000" stroke-opacity="1" stroke-width="0.1" stroke-linecap="round" stroke-linejoin="round"/>
</svg>