<?xml version="1.0" encoding="utf-8"?>
<!DOCTYPE svg PUBLIC "-//W3C//DTD SVG 1.1//EN" "http://www.w3.org/Graphics/SVG/1.1/DTD/svg11.dtd">
<!-- exported from Silhouette Studio Business Edition V4.2.279ssbe -->
<svg version="1.1" xmlns="http://www.w3.org/2000/svg" xmlns:xlink="http://www.w3.org/1999/xlink" width="304.8mm" height="304.8mm" viewBox="0 0 304.8 304.8">
<defs/>
<path d="M 87.94267 270.0064 C 83.36578 270.1489 76.95418 271.7257 69.09853 267.0181 C 57.36953 259.9893 57.60283 248.3809 57.29664 247.5223 C 55.03596 246.8616 46.40538 246.907 39.80898 238.6113 C 37.87591 236.1803 33.31796 230.6253 34.94171 216.9667 C 24.28084 213.473 20.96898 206.2887 20.10278 204.5592 C 14.9209 194.2129 21.35876 186.0343 21.69313 185.3391 C 20.7247 184.4322 3.306649 174.6881 17.72027 152.4093 C 13.77744 146.7318 11.53072 140.5116 12.20363 134.0182 C 13.31075 123.3347 21.21023 120.0215 21.6936 119.525 C 21.36449 118.8313 14.98756 111.1908 20.01403 100.4032 C 24.10606 91.62112 32.647 88.69057 34.84531 87.93271 C 34.69016 82.0951 32.82333 73.10526 41.43282 64.50947 C 48.36395 57.58937 55.69115 57.80359 57.3629 57.28961 C 57.54425 56.51269 57.50432 46.77952 66.57414 39.59901 C 75.84142 32.26217 85.74861 34.79614 87.93723 34.83042 C 90.30549 27.95592 94.81948 21.79682 102.514 19.1828 C 107.0837 17.63036 111.1956 18.29322 112.1413 18.48693 C 117.8279 19.65185 118.801 21.89724 119.5634 21.63507 C 120.0361 21.47253 121.9324 16.03135 128.9463 13.38272 C 138.3194 9.843216 144.7902 13.71437 152.413 17.66965 C 160.5499 13.44921 162.573 11.71418 169.8934 12.14518 C 175.5219 12.47657 178.7697 14.74616 179.79 15.47345 C 183.8522 18.36921 184.495 20.86192 185.327 21.67606 C 185.7124 21.50106 195.2998 14.2676 206.4847 21.12976 C 214.1588 25.83791 216.4018 33.28257 216.945 34.92653 C 224.443 34.13741 231.7821 33.50003 239.7494 40.84716 C 247.2462 47.76043 247.4057 56.96993 247.5249 57.31408 C 248.8551 57.69425 260.4091 57.84885 267.1678 69.38835 C 272.4693 78.43986 269.6043 87.30046 270.0596 87.89554 C 270.2928 88.20038 280.1364 90.54703 284.7377 100.2594 C 289.7077 110.7496 284.0016 117.8137 283.1259 119.5388 C 284.053 120.3201 290.4084 123.0393 292.2587 131.6316 C 293.7025 138.3359 292.0853 144.9339 287.1105 152.4355 C 287.9769 153.7451 293.7365 161.1454 292.5798 171.2864 C 291.4272 181.3914 283.6572 184.9349 283.1259 185.3561 C 284.9445 188.661 288.5822 193.8823 285.6766 202.3117 C 284.834 204.7565 281.7552 213.0754 269.8778 216.9667 C 270.3723 220.6047 271.8949 228.5801 266.1774 237.0253 C 263.049 241.6462 258.8887 243.9876 257.9077 244.5198 C 252.013 247.7179 247.9721 247.0915 247.5285 247.5653 C 246.899 248.2378 247.925 254.499 241.8555 261.8317 C 232.8391 272.7244 220.065 270.2891 216.9461 269.907 C 212.7715 282.6779 203.1023 285.5166 201.3783 286.0037 C 191.6267 288.7588 185.9137 283.0042 185.2815 283.171 C 184.9702 283.2532 181.9863 290.8354 172.1394 292.4706 C 162.4598 294.078 154.8077 288.6929 152.4052 287.1378 C 148.5482 289.7022 141.9709 293.585 133.9169 292.6721 C 123.2783 291.4663 119.9784 283.6623 119.5034 283.1608 C 118.2068 283.7656 111.4357 289.2032 101.7661 285.4488 C 97.51556 283.7985 90.95346 279.4882 87.94267 270.0064 Z M 122.9402 280.5176 C 122.9557 281.4152 126.1253 288.3844 135.3922 288.8139 C 143.0842 289.1704 149.3989 284.6518 150.0064 283.9556 C 149.1591 283.7145 144.3959 283.9228 135.3813 282.6544 C 132.6312 282.2675 123.192 280.5368 122.9402 280.5176 Z M 154.8183 283.9286 C 155.2933 284.452 162.8326 290.2181 171.869 288.5591 C 178.1854 287.3994 181.7654 282.0707 181.8982 280.5351 C 181.129 280.6271 172.748 282.1906 169.1665 282.6846 C 156.0409 284.4951 157.3507 283.374 154.8183 283.9286 Z M 91.74857 269.0379 C 92.12437 271.3063 96.10416 280.2275 105.4203 282.463 C 112.1327 284.0737 117.8661 279.7326 117.7873 279.2274 C 117.6506 278.3509 117.6096 279.7269 103.7708 274.5224 C 96.8445 271.9175 93.06992 269.0504 91.74857 269.0379 Z M 186.9247 279.1811 C 192.4469 284.1948 198.8254 282.8552 201.6122 281.7899 C 206.4075 279.9568 213.0157 273.4777 213.0132 269.0285 C 211.9084 269.1727 213.4725 269.0348 206.679 271.9214 C 185.3721 280.9749 194.3538 276.2201 186.9247 279.1811 Z M 185.3087 275.8223 C 195.8211 272.8978 203.4482 269.7606 206.7024 268.136 C 206.9341 268.0203 210.0912 266.4221 210.5544 266.1905 C 215.5872 263.6744 221.2474 260.291 224.0266 258.2661 C 245.2084 242.8325 241.0528 243.4086 244.2273 241.5688 C 244.9333 240.0169 247.529 239.2612 257.6444 225.0107 C 274.621 201.0941 278.1241 175.8554 278.3227 174.7875 C 278.335 174.7213 278.9023 171.5414 278.9136 171.4751 C 280.9941 159.2062 280.5196 146.5854 280.0497 141.8682 C 280.009 141.4599 279.692 138.5363 279.6842 138.4684 C 278.6384 129.2857 274.2019 96.81373 248.7016 67.95851 C 248.6547 67.90538 246.3801 65.37344 246.3322 65.32118 C 230.4143 47.96279 212.5707 39.31573 210.1557 38.06967 C 194.3488 29.91391 174.9559 24.31417 152.427 24.55343 C 152.3506 24.55424 149.5983 24.59291 148.6044 24.60987 C 148.515 24.6114 144.2202 24.6945 144.1307 24.69655 C 133.9548 24.92982 113.096 28.64141 94.99612 37.95844 C 87.59729 41.76702 78.25565 46.901 66.41031 57.58175 C 63.2969 60.38906 52.62376 71.36521 48.88869 77.06229 C 42.0367 87.51361 30.12431 104.1589 25.70299 135.0875 C 21.95251 161.323 27.4269 182.3382 33.01645 197.7628 C 40.83739 219.345 53.61666 232.9918 54.47509 234.4596 C 56.11592 237.2652 69.30885 249.9264 70.92453 250.8424 C 71.30438 251.0578 81.8687 259.7373 88.92801 263.1929 C 90.111 263.772 99.67477 270.3619 119.3635 275.7598 C 119.4288 275.7777 122.1765 276.5124 122.6348 276.6335 C 142.0081 281.7539 166.7576 280.7492 181.5713 276.8295 C 182.7688 276.5126 185.2342 275.843 185.3087 275.8223 Z M 61.45349 247.515 C 61.28457 248.1598 61.72487 256.6152 69.11487 262.3145 C 76.96957 268.3721 85.90593 266.4267 86.44669 265.9689 C 86.20354 265.7979 83.89426 264.9569 74.04066 257.7869 C 63.53129 250.1397 63.04168 247.8573 61.45349 247.515 Z M 218.4238 265.9945 C 219.1566 266.5648 227.093 267.6637 233.7267 263.6788 C 241.7755 258.8438 243.7892 249.8152 243.4161 247.5929 C 242.17 247.8115 240.7918 250.3976 231.1609 257.5871 C 222.3555 264.1604 218.9105 265.6259 218.4238 265.9945 Z M 38.70252 218.5339 C 37.46559 219.1877 37.58865 229.2017 42.44078 235.6188 C 42.83562 236.1409 45.65246 240.073 51.15079 242.1904 C 53.65289 243.154 56.6885 243.7449 57.44336 243.2664 C 56.97428 242.3605 58.01639 244.554 46.5632 230.2017 C 39.36747 221.1846 39.4488 218.1394 38.70252 218.5339 Z M 247.4938 243.351 C 247.904 244.1439 254.6285 242.2938 258.084 239.8366 C 268.7692 232.2385 266.6138 219.3098 265.9875 218.6576 C 265.8416 218.7801 261.6792 225.8771 260.89 226.7039 C 259.9347 227.7047 257.9621 231.4673 253.8759 235.8545 C 253.813 235.922 254.1474 235.6012 250.8508 239.3425 C 247.1868 243.5008 247.3977 243.1653 247.4938 243.351 Z M 35.7922 212.9845 C 35.48791 211.2025 34.76796 212.3586 33.19217 207.5483 C 32.6882 206.0099 30.55157 202.3972 30.23757 200.8091 C 30.0518 199.8695 27.89588 194.8658 27.41194 193.3447 C 27.37293 193.2221 26.40396 188.4693 25.53843 187.191 C 22.14516 189.5322 21.49028 196.7086 22.72512 200.6419 C 25.52476 209.5596 34.35715 213.0763 35.7922 212.9845 Z M 269.1267 212.9748 C 271.001 213.1046 277.0085 209.5551 279.9834 205.087 C 285.8968 196.2056 280.9388 188.3007 279.4611 187.3114 C 278.6699 188.012 278.2206 191.3552 277.0724 194.4716 C 270.6674 211.8553 269.3743 211.7922 269.1267 212.9748 Z M 21.21021 157.6424 C 21.09312 154.5881 20.98347 154.984 20.91766 154.8274 C 19.50977 156.0519 15.77012 162.4534 16.06519 169.5999 C 16.44141 178.7118 23.8395 181.8659 24.13172 181.8999 C 24.58272 180.3699 21.74993 172.5155 21.36012 162.1546 C 21.33974 161.6133 21.22059 157.9131 21.21021 157.6424 Z M 283.7289 157.56 C 283.7255 157.6416 283.5732 161.5631 283.5699 161.6448 C 283.073 173.8912 280.3977 180.302 280.8058 181.8845 C 282.3803 181.5325 289.2107 177.5581 288.8264 167.8854 C 288.6066 162.352 285.6516 156.3777 283.9895 154.9134 C 283.9281 155.0607 283.8475 154.6903 283.7289 157.56 Z M 20.88028 150.0146 C 21.45113 148.6344 20.95343 143.2719 21.6951 137.5947 C 23.1495 126.4618 24.40987 124.139 24.05572 123.0114 C 23.16017 123.1374 16.23947 126.4342 16.0419 135.7771 C 15.95287 139.9866 18.00347 147.3671 20.88028 150.0146 Z M 282.8719 134.8726 C 282.939 135.3374 283.3233 138.129 283.331 138.1957 C 283.6254 140.7619 283.6332 149.0452 283.9775 149.9191 C 288.5371 146.0617 288.7857 135.2648 288.7703 134.9508 C 288.4173 127.7442 282.7305 123.428 280.7697 122.9413 C 280.6343 124.3888 281.6595 126.4792 282.8719 134.8726 Z M 25.45877 117.5353 C 25.87782 117.1071 25.32284 118.1213 28.61086 108.0609 C 31.44307 99.39517 35.24557 92.96182 35.51357 91.9446 C 33.72422 92.09901 27.24448 95.0377 23.91489 101.4035 C 19.4084 110.0194 24.29113 116.9719 25.45877 117.5353 Z M 279.5055 117.5627 C 282.0577 115.3302 283.8056 108.9702 281.9212 103.6421 C 279.0822 95.61471 271.1917 92.18544 269.4997 91.9929 C 269.6531 92.77382 273.5107 100.1071 274.8074 104.1487 C 275.3218 105.7522 277.1529 109.6684 277.4865 111.319 C 277.7204 112.4767 279.0752 117.0673 279.5055 117.5627 Z M 38.67553 86.24594 C 39.67703 84.99478 38.58096 85.90837 44.89487 76.6355 C 48.24625 71.71355 50.92927 68.92208 51.33505 68.17445 C 52.68731 65.68298 57.37047 61.97096 57.14693 61.48873 C 56.78291 60.70343 50.45266 62.48932 46.89924 64.95982 C 43.15202 67.56508 36.6404 74.55563 38.67553 86.24594 Z M 266.1346 85.95914 C 267.0701 83.75898 267.022 75.24374 262.4439 69.2855 C 256.5519 61.6173 248.0753 61.36298 247.7458 61.41417 C 248.0089 61.94327 247.9737 61.48032 254.1168 68.92426 C 263.6707 80.50123 265.1415 85.19855 266.1346 85.95914 Z M 61.43307 57.18147 C 61.73664 57.04953 66.79681 52.23096 67.64455 51.71382 C 67.86547 51.57905 69.23105 50.37915 77.94167 43.87835 C 80.37045 42.06572 85.51112 39.15748 85.89813 38.7414 C 83.55088 37.58352 74.20878 37.81303 67.84459 43.59683 C 61.61923 49.25446 61.2999 56.59555 61.43307 57.18147 Z M 243.4224 57.09635 C 243.495 56.04771 243.0026 51.49007 240.0547 47.13888 C 232.9209 36.60944 220.2085 38.17507 218.9603 38.72197 C 219.6662 39.40668 228.1204 44.00509 232.4985 47.9608 C 232.789 48.22332 235.8806 50.41723 237.6893 51.91695 C 239.5925 53.49508 242.5885 56.69099 243.4224 57.09635 Z M 91.9705 35.4136 C 93.08952 35.06393 90.98704 35.50071 102.6802 30.64415 C 113.6999 26.0673 116.7529 25.92377 117.433 25.2719 C 117.0608 24.78948 110.9202 19.61512 102.3053 23.48538 C 95.68286 26.46049 91.92857 33.52016 91.9705 35.4136 Z M 212.8792 35.24628 C 212.2168 31.5026 207.5995 25.65241 202.3592 23.40287 C 194.5967 20.07064 188.6126 23.94619 187.392 25.28291 C 188.8287 26.13791 193.3891 26.96155 198.7062 29.10245 C 213.3222 34.98751 211.6436 35.22481 212.8792 35.24628 Z M 132.315 22.21153 C 137.7347 21.25972 148.117 20.97406 149.4325 20.5715 C 149.2523 20.36077 143.8067 16.03978 136.3214 16.0712 C 131.6605 16.09076 124.5517 18.65074 122.9696 24.01542 C 123.938 24.10622 124.4506 23.70493 128.2698 22.9627 C 129.2391 22.77433 132.1529 22.24 132.315 22.21153 Z M 181.8416 24.0427 C 181.1207 20.78058 175.6682 16.46872 170.3894 16.12957 C 165.6515 15.82517 159.0335 17.30015 155.2167 20.62854 C 155.911 20.89506 154.4663 20.70061 167.5775 21.53907 C 171.9133 21.81634 181.552 24.04249 181.8416 24.0427 Z M 136.7246 271.062 L 136.1203 270.7736 C 136.0598 270.7446 133.1592 269.355 133.099 269.3257 C 131.8753 268.7304 128.878 267.7376 130.0819 265.5157 C 131.1328 263.5762 134.0552 265.441 135.8344 266.2954 C 136.2289 266.4848 138.9928 267.8065 139.1245 267.8692 C 142.5654 269.5092 139.6306 268.0959 142.2547 269.3556 L 148.204 272.2115 C 152.5977 274.3206 152.3133 274.0786 152.4052 274.0796 C 152.8063 274.0837 155.3577 272.8218 156.0816 272.4762 C 156.467 272.2922 158.3153 271.4052 159.9336 270.6313 C 164.7575 268.3246 164.4371 268.4808 165.2943 268.0699 L 170.8222 265.4197 C 171.0449 265.313 174.3217 263.5189 174.907 265.9175 C 175.3446 267.7111 174.1993 268.1254 171.9856 269.2019 C 171.9066 269.2402 168.1095 271.0662 168.0303 271.104 C 167.9837 271.1263 165.9284 272.1016 165.6952 272.2131 L 158.2851 275.756 C 151.9447 278.7882 154.0276 279.3611 146.169 275.5717 C 145.9804 275.4808 141.4471 273.3162 136.7246 271.062 Z M 150.8372 269.4664 C 143.3082 267.0746 149.1208 258.2385 154.5542 260.8277 C 160.4971 263.6597 156.7528 271.3456 150.8372 269.4664 Z M 77.8828 243.6836 C 77.68623 243.6431 77.91696 243.6393 76.46259 243.4893 C 76.24382 243.4667 73.25153 243.1831 72.81384 243.1395 C 71.45985 243.0045 69.7085 242.8215 68.83305 242.7278 C 62.40201 242.0393 62.78008 242.761 62.21363 237.0203 L 61.61412 230.9439 C 61.2667 227.423 61.35858 227.7244 61.1346 226.9522 C 60.83358 226.8314 53.49004 225.7222 49.28717 215.879 C 44.88882 205.578 49.36543 199.2385 49.44661 198.909 C 49.59647 198.3005 46.26718 192.8593 45.15942 183.8407 C 44.17793 175.8499 45.50449 169.7014 46.15501 167.0978 C 48.51566 157.6501 52.61382 153.6043 52.91077 152.3403 C 51.58438 149.8149 45.86083 143.2285 44.929 129.9493 C 43.86755 114.8231 49.89275 107.3114 49.44747 105.9132 C 47.61183 100.1489 46.09341 99.28764 48.37108 91.54994 C 51.64384 80.43163 59.07531 78.78062 61.13527 77.89256 C 61.37566 77.07802 61.27177 77.30954 61.6392 73.67617 L 62.48857 65.27851 C 62.71782 63.00844 63.34734 62.71994 65.45271 62.48317 C 65.73477 62.45145 68.20709 62.21534 68.98348 62.13502 C 76.94682 61.31122 77.69197 61.31914 77.83034 61.20731 C 78.07972 61.00574 78.74736 53.81812 88.74019 49.45911 C 97.02026 45.84722 103.2199 47.6752 106.1119 49.60097 C 111.9134 46.8802 119.3526 44.49368 128.4995 44.85526 C 143.1219 45.43328 151.4961 52.48659 152.4046 52.92602 C 154.9888 51.64629 161.1567 45.81823 175.0665 44.92982 C 181.2519 44.53477 185.9758 45.47942 187.4337 45.77486 C 194.6559 47.23843 198.2391 49.52979 198.7144 49.5182 C 199.0526 49.50996 205.9723 45.1111 215.6275 49.20671 C 216.689 49.65699 219.6965 50.92763 222.5606 53.65264 C 227.0249 57.90012 226.4446 60.50793 226.8572 61.05432 C 226.9911 61.23165 225.7323 61.12422 237.893 62.33757 C 243.3446 62.88152 242.1363 63.22933 242.861 70.37167 C 243.0085 71.82463 243.2882 74.64035 243.3165 74.9127 C 243.6345 77.96488 243.6448 77.77861 243.6707 77.9609 C 244.2701 78.11726 250.9564 78.98917 255.2187 88.27866 C 257.3144 92.84619 258.9499 98.81043 255.3211 106.2262 C 265.7785 128.9952 257.0259 143.6807 251.8822 152.4978 C 253.2123 154.6376 259.4204 162.2568 259.9835 176.3547 C 260.4758 188.68 256.1673 196.1057 255.3538 198.7234 C 256.0407 200.5342 259.4017 205.4608 255.9468 214.8518 C 252.2657 224.8579 245.326 226.3712 243.6962 226.9198 C 243.6051 227.2746 243.6291 226.8506 243.3116 229.9483 C 243.3024 230.0383 242.8847 234.2665 242.8666 234.4464 C 241.9938 243.1355 242.932 241.9902 236.1548 242.7149 C 235.6725 242.7665 232.6166 243.0812 232.1339 243.1291 C 231.298 243.212 228.9409 243.4306 228.3331 243.4916 C 226.9109 243.6342 226.9497 243.713 226.9221 243.7205 C 226.1959 245.611 224.9262 252.0269 215.1852 255.8471 C 211.5923 257.2561 208.5841 257.3823 207.2979 257.4086 C 200.9509 257.5385 199.4196 255.416 198.7147 255.3909 C 197.1734 255.3359 189.2489 261.4119 173.3929 259.8096 C 160.8838 258.5456 153.9882 252.7043 152.3769 251.9108 C 147.3869 254.4375 142.007 259.7412 128.2811 260.0196 C 114.1918 260.3054 106.9316 255.2921 106.0279 255.3918 C 105.6936 255.4287 99.46036 259.9418 89.21413 255.6762 C 79.46574 251.6177 78.77777 245.4496 77.8828 243.6836 Z M 128.2247 246.4805 C 127.0362 246.0386 122.7478 245.9137 118.1376 243.3327 C 114.7421 241.4317 112.2714 242.2008 102.265 235.5265 C 101.3555 234.9199 101.9799 235.7785 97.52665 232.801 C 92.21555 229.25 95.27657 230.1932 91.48865 228.473 C 91.24776 228.3636 88.49265 224.8226 86.48776 224.1443 C 86.54384 229.7114 91.81725 239.8297 99.1434 246.0589 C 102.8848 249.2401 111.9904 255.5102 124.5288 256.0569 C 128.5777 256.2335 133.3624 256.0356 138.9023 254.3536 C 142.9028 253.139 147.6775 250.6538 148.3274 249.8352 C 146.8657 249.1129 136.2481 249.4634 128.2247 246.4805 Z M 177.1017 246.4835 C 170.8887 249.041 158.832 249.2485 156.3533 249.7006 C 156.9251 250.4511 165.8445 256.2648 179.0529 256.113 C 188.7627 256.0015 198.8779 252.0163 205.7666 246.0103 C 216.698 236.4797 218.2802 225.3982 218.3456 224.4002 C 217.502 224.6718 214.2066 228.1757 213.5171 228.4946 C 209.3774 230.4091 211.6507 230.5456 209.0463 231.8036 C 206.5798 232.9949 207.0983 233.5443 205.6757 234.2249 C 205.146 234.4784 201.4558 236.5031 201.374 236.557 C 190.4254 243.7714 177.5866 246.2838 177.1017 246.4835 Z M 91.88741 244.6336 C 89.84859 245.2179 83.39975 243.976 82.25844 244.1649 C 82.04725 249.2914 97.30377 256.3344 101.7352 252.9791 C 100.9329 252.0759 100.2636 252.1111 96.93756 249.3089 C 93.14812 246.1163 92.97536 245.226 91.88741 244.6336 Z M 212.9397 244.6223 C 212.3639 244.7041 212.197 245.7595 207.606 249.5612 C 204.3591 252.2499 203.5903 252.276 203.0963 253.042 C 204.4005 253.7024 209.6982 254.2263 215.1921 251.5963 C 220.4589 249.075 223.0838 244.8487 222.5498 244.2078 C 222.399 244.0269 222.3087 244.1522 216.6807 244.6663 C 212.6569 245.0338 213.3101 244.5696 212.9397 244.6223 Z M 186.1171 235.8851 C 185.4763 236.0388 172.2657 242.1096 153.8176 242.383 C 143.4778 242.5363 134.8091 240.5399 134.0343 240.3596 C 118.1316 236.6601 119.5839 235.5145 118.6793 235.8371 C 118.3742 235.9459 116.9791 238.4439 117.0377 238.6292 C 117.4389 239.8981 130.7564 242.7623 132.8651 243.751 C 133.9718 244.2698 143.361 245.7633 153.1389 245.7354 C 167.5621 245.6941 173.19 243.3297 173.5916 243.2376 C 174.4659 243.037 187.4321 239.865 187.8491 238.7441 C 187.9423 238.4935 186.7461 236.4849 186.1171 235.8851 Z M 64.05469 215.9069 C 64.07163 216.1638 64.05023 216.0796 64.23182 218.0453 C 64.28827 218.6563 64.70854 223.0335 64.71866 223.1353 L 65.33217 229.3052 L 65.88905 234.6832 C 66.16312 237.3295 66.09744 238.0045 66.38095 238.3454 C 66.63929 238.6561 67.0985 238.6867 68.57333 238.8274 C 68.73434 238.8428 70.66639 239.0286 72.59811 239.2177 C 74.25066 239.3795 79.34541 239.8842 79.48305 239.8984 L 86.45084 240.6182 C 89.22385 240.9047 88.78247 240.783 88.98192 240.7466 C 88.56174 239.7659 86.36811 237.2259 84.24552 231.1867 C 81.85297 224.3795 82.81841 223.2046 82.14125 222.6427 C 81.69186 222.2698 78.53294 222.4634 72.7009 220.2759 C 67.80293 218.4388 65.3277 216.3747 64.05469 215.9069 Z M 238.485 238.4189 C 238.7357 238.138 238.9622 234.6849 239.0544 233.7484 C 239.0784 233.504 239.2861 231.4676 239.4653 229.6753 L 240.1329 222.9979 C 240.1381 222.9459 240.3566 220.7062 240.3877 220.3937 C 240.6548 217.7173 240.7399 216.975 240.765 216.6772 C 240.8341 215.8571 240.7349 215.974 240.726 215.93 C 239.6261 216.2484 237.7505 218.1584 232.2127 220.2408 C 227.0264 222.1911 224.1338 222.1979 222.6133 222.6387 C 222.4209 223.2699 221.7781 228.8476 219.8382 233.281 C 217.4608 238.7143 216.134 239.7978 215.916 240.7908 C 216.0894 240.7979 215.9201 240.8382 218.0789 240.628 C 218.6732 240.5701 225.6054 239.8778 227.9821 239.6404 C 237.4513 238.6943 238.2034 238.7345 238.485 238.4189 Z M 156.6824 238.6173 C 179.757 237.2985 196.99 226.8803 200.487 223.8574 C 200.9041 223.4969 209.648 218.8463 220.6361 205.0421 C 227.2835 196.691 233.0368 183.1343 233.3021 181.5554 C 233.6362 179.5669 236.0424 173.8831 237.3142 165.2389 C 238.6673 156.0426 238.3196 149.8631 237.829 145.0382 C 235.9072 126.141 230.2554 116.2373 222.9466 104.5147 C 215.6832 92.86492 203.8175 84.76303 200.8304 82.50552 C 197.8627 80.26265 173.5347 63.57981 140.4251 68.5406 C 138.8191 68.78123 121.1427 70.27362 102.7232 83.60059 C 86.84138 95.09151 65.615 119.6292 67.23409 157.1665 C 68.2445 180.5921 78.46036 201.2566 94.84183 216.1575 C 112.363 232.0952 135.663 239.8188 156.6824 238.6173 Z M 196.3694 234.7981 C 199.1778 233.7142 198.1021 234.0226 198.7277 233.4098 C 199.501 232.6523 203.0968 231.385 203.8913 230.3271 C 205.1426 228.6608 205.7196 229.6423 208.5975 226.957 C 208.6678 226.8914 212.3628 224.1219 212.4511 224.084 C 213.2249 222.5085 212.4116 224.749 217.0004 219.7712 C 219.2915 217.2858 222.2462 214.8372 222.3473 214.7306 C 222.4163 214.6577 224.518 211.193 225.2055 210.6075 C 227.3353 208.7938 228.2213 207.0258 228.4317 206.3026 C 229.4202 205.6929 231.5902 201.8448 231.7418 201.531 C 232.2165 201.2709 232.1363 201.3262 232.1763 201.2813 C 232.4613 200.961 236.9469 192.1385 237.0087 191.7142 C 236.5528 191.1549 234.8046 190.1491 233.9106 189.8648 C 233.0813 190.7993 232.9015 194.709 223.1098 207.6665 C 216.7413 216.094 209.4852 222.1894 208.381 222.8119 C 207.1594 223.5006 205.7821 225.246 198.7742 229.4653 C 198.1345 229.8504 193.9617 232.3328 193.4054 232.6116 C 190.4415 234.0974 190.113 233.8565 190.0163 234.0553 C 189.8559 234.3849 191.547 237.2659 191.8385 237.2352 C 192.0191 237.2162 191.9045 236.9332 192.4888 236.6018 C 192.5633 236.5595 196.2097 234.8598 196.3694 234.7981 Z M 71.05612 189.7735 C 69.99009 190.1599 68.03839 191.4139 67.98813 191.5464 C 67.83914 191.9392 73.0276 200.5302 73.07596 200.7346 C 73.51192 202.5771 78.68799 209.1783 79.05086 209.3912 C 79.46803 210.999 87.12899 218.9422 93.34432 224.4509 C 97.56408 228.1908 108.8086 235.5526 113.345 236.7775 C 113.7703 236.2914 114.8396 234.7379 114.9402 233.9693 C 112.8351 233.383 106.0233 229.6392 99.29836 224.6447 C 88.23033 216.4247 83.63097 209.6569 81.74464 207.3832 C 75.95731 200.4076 71.97731 191.14 71.05612 189.7735 Z M 51.8317 203.1099 C 51.04883 204.246 50.87414 209.698 52.97923 214.5496 C 54.30406 217.603 59.26491 223.6832 60.64663 222.5687 C 61.09978 222.2032 59.51494 214.8429 60.3317 212.8707 C 51.52435 204.477 54.12821 204.7934 51.8317 203.1099 Z M 244.6293 212.9242 C 244.5544 213.3194 245.0125 212.6191 244.6326 216.9466 C 244.2128 221.7282 244.0112 221.8615 244.1821 222.6431 C 245.8633 222.4723 249.8473 219.7145 252.2303 213.648 C 254.2399 208.5323 253.5979 203.9368 252.9487 203.1027 C 252.059 203.914 251.9522 204.7711 249.3208 207.9074 C 245.9656 211.9065 244.7318 212.3844 244.6293 212.9242 Z M 79.04996 215.9445 C 71.35029 207.3213 66.47983 197.7368 64.73839 193.9106 C 58.47676 180.1531 61.1979 182.7355 59.15178 179.1898 C 58.7374 178.4717 57.42031 172.7589 56.43542 165.6414 C 55.15256 156.3705 55.52844 156.8758 55.24736 156.1654 C 54.10641 157.2743 43.03442 174.8416 52.56535 195.8511 C 56.43831 204.3884 62.42263 210.0202 66.90108 212.9598 C 70.64543 215.4174 80.3535 219.4104 80.83606 218.3178 C 80.85573 218.2733 80.34521 217.6497 79.3042 216.426 C 79.10661 216.1937 79.18053 216.0907 79.04996 215.9445 Z M 248.4107 169.296 C 248.2569 169.5182 248.3137 169.187 248.0741 169.529 C 247.922 169.7461 246.0311 181.1131 245.1837 182.4582 C 244.8816 182.9378 241.946 190.9327 241.855 191.2995 C 241.2689 191.761 238.9563 197.2222 238.7927 198.1024 C 237.572 198.8235 238.1927 199.2378 234.8612 204.0016 C 234.6767 204.2654 233.389 207.2968 232.1381 208.6246 C 231.2346 209.5837 228.4282 213.1731 228.3572 213.2696 C 224.7493 218.1691 224.6012 217.2301 224.3757 218.3732 C 232.5547 217.3372 246.518 210.1543 252.9924 194.1783 C 256.7333 184.9471 256.2316 176.5781 255.7858 172.7061 C 254.7928 164.0806 250.5151 157.1294 249.7476 156.4248 C 248.8894 159.1393 249.4417 167.8063 248.4107 169.296 Z M 238.5761 117.1117 C 237.7012 117.3368 235.6692 118.7092 235.3103 118.9835 C 235.3351 121.7544 238.5216 123.0482 241.0731 141.3443 C 242.0762 148.5381 242.2202 158.5952 240.6958 167.2823 C 238.0131 182.5696 235.7222 184.4668 235.6566 186.0175 C 236.2478 186.6431 237.9674 187.6095 238.683 187.9418 C 240.3323 185.6537 244.9276 168.4489 245.5016 160.5719 C 246.7593 143.3112 243.0217 129.293 241.4814 126.1933 C 241.3965 126.0225 239.7089 118.4011 238.5761 117.1117 Z M 69.75117 119.2255 C 69.66251 118.9055 67.17947 117.4041 66.92548 117.4819 C 66.42762 117.6343 66.1042 119.3967 65.97132 119.6477 C 65.70457 120.1515 65.56988 119.3043 64.16039 124.0397 C 64.11988 124.1758 63.17762 127.3769 63.15803 127.4451 C 58.84792 142.4643 59.69316 155.8698 60.18186 161.2826 C 61.44769 175.3029 64.93385 185.5581 66.7802 187.5379 C 67.46364 187.2461 69.28246 186.2236 69.38705 185.867 C 69.83595 184.3369 66.88165 182.7339 64.30144 166.5941 C 62.62159 156.0862 63.13462 146.3239 64.43231 138.5911 C 66.82542 124.3309 70.18023 120.7737 69.75117 119.2255 Z M 62.15222 117.0379 C 62.39917 116.735 62.34766 117.0609 62.58504 116.7103 C 62.67294 116.5805 65.46553 109.5847 65.55682 109.4572 C 67.51517 106.7234 68.24963 103.1198 75.7005 93.7683 C 75.76619 93.68585 75.23682 93.6373 79.0453 89.69498 C 79.09902 89.63937 81.06827 87.0014 81.18008 86.47183 C 79.56528 86.429 67.39749 88.35387 57.97518 100.1238 C 49.63849 110.5376 48.76833 121.8973 48.76357 126.3438 C 48.74906 139.8865 54.31018 147.7505 55.2739 148.7674 C 56.35928 145.2994 56.17849 132.9402 59.42667 126.4388 C 59.51416 126.2636 61.78112 117.4931 62.15222 117.0379 Z M 228.4331 92.26131 C 229.3179 92.76079 228.9825 92.84036 231.7496 96.82887 C 233.9551 100.0078 236.8295 103.8945 237.8826 106.4144 C 238.4813 107.847 241.4437 113.0836 242.7096 116.3991 C 249.5029 134.1921 249.3516 147.2249 249.7813 148.4661 C 253.5146 144.4197 260.3335 127.2072 252.3767 109.2263 C 249.0632 101.7381 244.326 96.98144 241.1803 94.36082 C 240.167 93.51672 236.6757 90.63945 231.7887 88.65356 C 229.9824 87.91955 224.356 86.04121 223.9435 86.54347 C 223.4822 87.10529 227.7264 90.50825 228.4331 92.26131 Z M 113.4773 68.41911 C 108.4925 70.13438 110.7863 70.19414 105.154 72.81698 C 103.5677 73.55568 105.3983 72.06865 98.57716 77.29012 C 91.54891 82.67011 99.40997 75.55255 85.00227 88.65167 C 84.92518 88.72177 85.51868 88.56517 81.54823 92.55185 C 81.11727 92.98457 79.22276 95.63258 79.04639 96.12544 C 78.7523 96.27512 78.88984 96.14351 78.6985 96.32772 C 78.39686 96.61813 74.75669 101.5316 72.94643 105.0735 C 72.4233 106.0971 68.09818 112.7698 68.36739 113.4872 C 68.49557 113.8289 70.98752 115.2313 71.46187 115.4209 C 73.95284 112.635 75.42035 104.1378 89.51266 90.04289 C 94.83946 84.7151 99.34935 81.21362 101.4867 79.89513 C 115.3077 71.36923 114.4745 72.50024 115.537 71.7527 C 115.27 71.01587 114.0853 68.91372 113.4773 68.41911 Z M 234.9742 109.8819 C 234.4394 107.9315 230.9622 102.2268 228.4551 99.05276 C 228.2157 98.74973 219.0599 86.47621 215.7175 84.54237 C 215.5735 84.45905 209.7794 79.18047 209.477 79.04165 C 209.3171 78.96828 202.5831 74.47367 202.1871 74.12502 C 200.9023 72.99369 191.9141 68.37746 191.4294 68.31189 C 190.465 69.31048 189.2882 71.69273 189.2511 71.76548 C 191.8107 72.83517 204.6685 78.23112 217.5161 91.85356 C 223.725 98.43695 227.0696 103.6766 227.558 104.5142 C 231.2763 110.8919 228.9845 106.6376 230.9521 110.304 C 233.5269 115.1019 233.3458 115.2173 233.4434 115.2704 C 233.6428 115.3789 236.539 113.7839 236.6523 113.2665 C 236.7169 112.9713 235.7617 110.4689 234.9742 109.8819 Z M 60.63813 82.24712 C 54.69488 83.08018 49.20068 96.37215 51.80846 101.7773 C 52.73286 101.1451 52.23563 100.841 55.63662 96.87288 C 59.24002 92.66864 60.06687 92.39478 60.16481 91.86353 C 60.19973 91.67416 60.68448 82.43401 60.63813 82.24712 Z M 244.616 91.88031 C 245.3018 93.1157 245.6752 92.64191 249.4001 97.07875 C 251.6036 99.70341 252.2794 101.151 252.9972 101.7663 C 253.7404 100.4526 253.8985 96.29123 252.6266 92.34021 C 250.2134 84.84352 244.8217 81.80333 244.1951 82.28043 C 243.7364 82.62969 245.39 88.9044 244.616 91.88031 Z M 88.93913 64.05085 C 88.86434 64.04956 89.05844 63.98475 87.69514 64.13416 C 86.75536 64.23716 84.15115 64.50606 84.07878 64.51326 L 75.6649 65.35006 L 70.17378 65.89352 C 66.98869 66.20888 66.65759 66.23442 66.48322 66.37392 C 66.25164 66.55918 66.19323 66.92148 66.09941 67.80621 C 66.08437 67.94803 65.80387 70.92973 65.76196 71.35551 L 64.71431 81.97356 L 64.15607 87.47063 C 64.04022 88.61147 64.01987 88.40411 64.05746 88.97623 C 65.70562 88.23985 67.93797 86.34579 73.0222 84.4807 C 79.7023 82.03018 81.54433 82.73729 82.11565 82.25297 C 82.97186 81.52715 81.75418 80.38229 84.39499 73.18111 C 86.22089 68.20209 88.30424 65.55404 88.93913 64.05085 Z M 239.992 80.43663 C 239.9142 79.65326 239.3993 74.56223 239.333 73.90956 C 239.0112 70.74451 238.9386 70.03238 238.9307 69.95324 C 238.6173 66.82099 238.7244 67.21487 238.4824 66.48443 C 237.9735 66.30077 237.8574 66.24438 233.1212 65.7529 C 232.7932 65.71886 226.5587 65.08836 224.918 64.92311 C 220.1279 64.44065 220.1279 64.44082 220.0301 64.43081 C 219.9588 64.42351 216.5348 64.06743 216.4635 64.05973 C 215.847 63.9932 215.9673 64.0479 215.8998 64.05215 C 216.22 65.2636 218.4491 67.50352 220.5193 73.41695 C 222.3855 78.74774 222.1365 81.12169 222.7157 82.2579 C 223.4492 82.51427 226.8676 82.62811 232.1349 84.62448 C 237.5398 86.673 240.0085 88.70876 240.736 88.96315 C 240.7738 88.74995 240.8536 89.13564 240.6582 87.16043 L 239.992 80.43663 Z M 106.0936 67.5969 C 106.3384 67.1916 106.3016 67.20973 106.3893 67.14735 C 106.5479 67.03457 113.9773 63.62095 115.2244 63.07328 C 115.7648 62.83597 130.3422 57.11251 143.8698 55.97989 C 144.2842 55.94519 147.049 55.73629 147.3252 55.71259 C 149.0925 55.56093 149.0514 55.50657 149.0862 55.49971 C 146.8047 53.1684 137.4916 48.79004 126.7739 48.79004 C 96.65954 48.79004 85.71643 76.34734 86.44234 81.48848 C 86.57237 81.44054 91.49071 77.34482 91.87531 77.18683 C 92.28152 76.24139 103.228 68.74493 106.0936 67.5969 Z M 168.5196 56.84653 C 168.7933 56.89099 171.8694 57.41084 171.9371 57.42601 L 172.1328 57.46897 C 172.6033 57.64052 172.2782 57.62798 172.5982 57.81895 C 172.7863 57.93122 180.9551 59.69369 183.2059 60.55533 C 189.4163 62.93278 191.7684 63.52005 192.3363 64.05816 C 192.5889 64.29752 192.4792 64.3537 192.6158 64.46935 C 192.8314 64.65191 198.0972 66.63673 198.9638 67.56713 C 200.6994 67.87508 204.3452 70.77997 207.3493 72.62488 C 211.7111 75.30357 213.7103 77.50439 216.3057 79.2282 C 217.3292 79.90796 216.922 80.28188 218.3019 81.36665 C 218.4098 80.31827 217.3835 68.61693 205.2572 58.47433 C 193.6541 48.76946 180.5738 48.81951 180.0336 48.80923 C 175.5315 48.7235 171.7218 48.78293 166.0622 50.48517 C 161.8914 51.7396 156.895 54.36258 155.7494 55.48616 C 157.2165 55.95814 160.6602 55.57014 168.5196 56.84653 Z M 187.5191 66.84911 C 187.4273 66.09669 179.0697 63.4147 175.6394 62.55108 C 173.8182 62.09258 162.993 60.29931 160.1835 60.09395 C 152.6807 59.54554 141.2416 59.99251 139.2975 60.75887 C 138.1446 61.21339 127.2526 62.60494 124.1537 64.02375 C 119.6872 66.06878 117.501 66.51302 117.416 66.62984 C 117.1936 66.93541 118.6182 69.16498 119.1737 69.97554 C 121.9975 70.1508 132.7713 63.53304 153.9895 63.76325 C 164.9072 63.88171 172.9482 66.17048 173.3244 66.27309 C 184.9676 69.44894 185.148 70.13775 185.6258 69.9493 C 185.7609 69.89597 187.5367 66.99335 187.5191 66.84911 Z M 101.7166 51.84253 C 100.345 50.99232 95.31767 50.79166 90.24925 53.01049 C 85.38317 55.14075 81.5284 59.88556 82.28448 60.69366 C 82.68278 61.11936 89.02998 59.33555 91.99191 60.28103 C 100.2352 52.13675 100.8043 53.08949 101.7166 51.84253 Z M 212.9941 60.2108 C 213.1831 60.23385 222.3179 60.72346 222.5026 60.67733 C 222.7403 58.91857 219.3872 55.12334 214.5114 52.98467 C 208.6378 50.40836 203.1915 51.42178 203.1123 51.87302 C 203.0504 52.22649 204.3638 52.60462 207.8712 55.49609 C 210.1275 57.35611 212.4413 60.14338 212.9941 60.2108 Z M 30.61568 161.4775 C 29.54506 159.2339 29.21873 158.548 29.12905 158.3612 C 25.7026 151.2253 25.49997 154.096 29.97733 144.7395 C 30.00893 144.6734 31.51618 141.4972 31.54773 141.4311 C 31.70398 141.1036 32.25546 139.9597 33.50769 137.341 L 33.80783 136.7133 C 35.44791 133.2835 35.44337 133.2814 35.58762 132.9839 C 36.30816 131.4981 36.97244 129.2901 39.06078 129.9877 C 41.5114 130.8062 39.31155 134.2745 38.68062 135.5915 C 38.65057 135.6543 37.21127 138.667 37.18136 138.7298 C 35.91708 141.3846 36.95439 139.2199 35.89458 141.4403 C 35.15112 142.998 32.70076 148.0873 32.49838 148.5123 C 32.16844 149.2052 30.78018 152.07 30.77295 152.4111 C 30.76901 152.5965 30.91908 153.0049 31.64705 154.5584 C 31.98703 155.2839 31.99805 155.2787 35.96643 163.5946 C 36.87982 165.5086 37.6877 167.2019 37.72295 167.2754 C 38.56355 169.0296 39.65333 171.2807 39.73112 171.4488 C 40.7898 173.7368 39.89438 174.9874 38.29008 174.9863 C 37.11228 174.9855 36.77106 174.3561 35.40324 171.4953 L 30.61568 161.4775 Z M 267.9897 165.4443 L 270.2421 160.7331 C 270.5876 160.008 271.2341 158.6479 271.3211 158.467 L 273.7037 153.5079 C 274.3589 152.1431 273.9925 151.9954 272.6533 149.181 C 272.4223 148.6955 272.4775 148.818 269.7544 143.1178 C 269.0949 141.7373 269.23 142.0182 269.1445 141.8392 L 265.1959 133.5881 C 264.481 132.0942 264.5771 131.309 264.7136 130.9608 C 265.7126 128.4109 267.565 129.427 269.9193 134.3725 L 272.2479 139.2642 C 272.372 139.5249 273.2481 141.3465 274.3277 143.6043 C 275.8284 146.7427 275.8921 146.8763 275.9242 146.943 C 279.3764 154.122 279.2994 150.8229 274.855 160.1764 C 274.8152 160.2604 273.2919 163.4483 272.8492 164.3703 L 269.6511 171.0308 C 268.9796 172.4295 268.3962 174.3802 267.228 174.8978 C 266.5841 175.1831 263.2568 175.2765 265.3567 170.9141 L 267.9897 165.4443 Z M 38.0498 157.357 C 32.78036 154.7351 35.71348 145.1364 41.03195 147.6573 C 48.55117 151.2214 42.229 159.4364 38.0498 157.357 Z M 263.988 157.3001 C 255.677 153.8894 263.2773 143.855 267.8948 148.3509 C 271.9526 152.3018 268.1435 159.0054 263.988 157.3001 Z M 151.1413 44.39675 C 148.486 43.81564 146.9974 40.3013 147.2476 38.82738 C 147.4982 37.35139 150.3236 34.29844 153.9013 35.39786 C 161.0992 37.60979 156.4744 45.56387 151.1413 44.39675 Z M 135.5595 34.36634 C 137.4438 33.46652 137.4438 33.46656 137.5223 33.42903 C 139.0156 32.71504 140.9675 31.77953 143.2636 30.67854 C 154.299 25.38716 151.1993 25.6858 157.35 28.65692 C 157.5074 28.73293 159.8703 29.86806 161.2888 30.5477 L 167.2971 33.4257 C 173.8849 36.58054 175.4037 36.86353 174.9192 38.8659 C 174.3634 41.16264 172.6744 40.33305 167.1319 37.6819 L 157.6838 33.16096 C 157.6228 33.13176 154.6891 31.73635 154.6279 31.70749 C 152.8824 30.88472 152.686 30.8471 152.4109 30.75724 C 152.3622 30.77328 152.0924 30.79932 150.0592 31.77156 L 143.8644 34.734 C 143.7963 34.76659 140.6641 36.2706 140.4597 36.36844 C 140.3396 36.42595 134.5717 39.18194 134.4513 39.23888 C 133.0398 39.90659 131.0462 40.9714 130.1171 39.40443 C 129.0998 37.68888 130.381 36.8615 132.1732 35.98628 C 132.3081 35.92039 134.9498 34.65752 135.5595 34.36634 Z M 75.66505 230.687 C 75.87804 230.7151 78.79312 231.0637 79.2193 231.1182 C 84.04074 231.7341 83.2382 234.4756 81.43314 235.0366 C 80.64896 235.2803 80.8593 235.2669 74.61191 234.4874 C 73.83057 234.3899 71.35651 234.4747 70.73013 232.4705 C 69.43484 228.3262 68.9203 222.4081 71.38835 222.1533 C 74.56336 221.8255 73.70125 228.6726 74.43771 230.4788 C 74.51044 230.4959 74.43083 230.5245 75.66505 230.687 Z M 229.758 230.6054 C 230.1913 230.5341 230.3124 230.467 230.4206 230.3548 C 231.2685 229.4756 230.09 221.9178 233.3971 222.1534 C 235.6753 222.3158 235.1096 225.146 234.9953 226.0695 C 234.2082 232.4289 234.2382 232.3361 233.9077 232.9492 C 233.1761 234.3066 232.1756 234.2495 227.1677 234.8719 C 224.9144 235.152 222.6065 235.7525 222.1584 233.632 C 221.783 231.8557 223.3905 231.3965 225.9126 231.0815 C 229.5269 230.63 229.6051 230.6306 229.758 230.6054 Z M 150.9706 230.5005 C 147.011 229.2246 147.104 222.0974 153.299 222.8466 C 158.8587 223.5191 156.7577 232.3653 150.9706 230.5005 Z M 119.4738 209.8627 C 118.2871 207.5827 117.7667 205.858 119.7013 205.2785 C 121.3795 204.7757 121.8066 205.9077 123.7091 209.5257 C 123.827 209.7499 124.6033 211.2495 125.6568 213.2712 L 125.9467 213.8277 C 128.2079 218.1671 128.4377 218.6133 128.8437 219.3921 C 130.0693 221.7435 130.5325 222.6233 130.7615 223.0647 C 131.4138 224.3218 132.3055 226.0789 130.473 226.9883 C 128.8187 227.8092 128.0695 226.3866 126.8772 224.0925 L 119.4738 209.8627 Z M 180.8562 210.0436 C 182.3689 207.1279 183.2929 204.3385 185.5364 205.4334 C 186.7708 206.0358 186.9708 206.7366 184.9407 210.6827 C 184.7029 211.1451 183.0961 214.2167 180.9363 218.3683 C 179.8711 220.416 179.8247 220.505 179.7784 220.5941 C 179.5622 221.0105 178.0519 223.9276 177.9795 224.0663 C 177.4311 225.1161 175.5197 228.9896 173.6534 226.4414 C 172.6253 225.0375 174.4633 222.3657 177.0455 217.3886 L 180.8562 210.0436 Z M 112.6034 220.131 C 111.6253 219.7891 107.7138 217.2028 105.1337 212.9513 C 102.1991 208.1158 102.4742 203.927 102.4732 202.4041 C 98.11026 202.2296 94.70573 201.9993 90.21761 198.566 C 89.29086 197.8571 82.29227 192.0896 85.58383 190.0177 C 87.7179 188.6744 87.2964 190.9104 91.81942 194.8358 C 99.43056 201.4414 104.9601 196.3691 106.6297 198.5524 C 107.8012 200.0843 104.2757 205.4907 109.277 212.0712 C 113.3256 217.3982 114.701 216.1106 115.0081 217.8793 C 115.3237 219.697 113.6607 220.5006 112.6034 220.131 Z M 190.9237 220.0723 C 187.0598 218.3525 192.7863 215.603 195.3062 212.4285 C 200.2897 206.1505 197.8085 200.7846 197.8394 199.7507 C 197.949 196.0769 201.3137 199.2755 206.4459 198.166 C 213.7381 196.5896 216.5419 190.3862 217.5628 189.9625 C 220.8279 188.6075 221.0759 192.295 216.9267 196.4779 C 213.8303 199.5995 210.5432 202.0574 202.3851 202.404 C 202.2637 205.4009 202.4297 210.1372 197.9894 215.3095 C 195.5473 218.1543 192.4807 220.7653 190.9237 220.0723 Z M 138.1231 217.6059 C 136.071 217.3006 134.8972 214.1658 138.8795 213.8391 C 147.6757 213.1175 150.35 206.3213 151.7445 205.7123 C 154.4079 204.5493 153.844 209.0755 160.6383 212.4835 C 165.0474 214.6951 167.6667 212.945 168.4258 215.1182 C 169.4131 217.9442 165.3112 217.8652 163.1631 217.4515 C 157.0318 216.271 152.8366 211.3539 152.4438 211.0454 C 150.9407 212.1917 145.2901 218.6721 138.1231 217.6059 Z M 118.2286 152.5141 C 116.7278 151.2925 107.7453 147.9512 103.2397 140.2738 C 98.46581 132.1395 103.029 125.9971 110.9405 124.597 C 113.4357 124.1554 117.3811 124.3207 119.3872 124.6125 C 123.2157 125.1692 125.2899 126.1287 126.118 126.1697 C 126.1571 125.4773 122.7477 116.8544 125.0708 108.8625 C 126.7215 103.1835 131.8855 98.98958 139.3916 102.7695 C 147.7495 106.9783 151.3871 117.1533 152.5875 118.2521 C 156.1945 109.3871 165.2324 99.22765 173.3777 101.6828 C 180.1414 103.7215 180.4682 112.4756 180.4939 113.8883 C 180.6564 122.8207 178.7862 123.4371 178.6954 126.1654 C 181.204 125.8133 184.3962 123.9709 191.2267 124.3235 C 199.1069 124.7303 201.8519 128.3649 202.825 130.5228 C 205.0315 135.4155 201.9115 140.8777 198.11 144.6664 C 193.3971 149.3633 187.7712 151.6488 186.6165 152.4157 C 187.8265 153.3499 196.9469 156.8907 201.4846 164.4189 C 203.9962 168.5856 205.7413 176.7373 196.1427 179.7309 C 188.4535 182.129 180.0612 178.7902 178.6629 178.7068 C 178.8125 179.6997 185.2961 199.5111 173.3088 203.2324 C 169.6536 204.3671 164.8293 202.6206 160.5091 198.4365 C 155.3668 193.4563 153.4205 188.0194 152.4043 186.634 C 149.2717 191.442 143.2618 205.1889 132.4485 203.431 C 127.2613 202.5877 124.3485 197.1173 124.2674 190.3168 C 124.136 179.2952 127.2401 179.9816 126.1607 178.7447 C 125.2673 177.721 124.0786 181.126 112.6841 180.4738 C 110.149 180.3286 103.7849 179.1181 101.8314 173.8843 C 99.596 167.8955 104.7824 161.8632 107.8777 159.0912 C 112.9937 154.5096 117.4805 153.1488 118.2286 152.5141 Z M 136.2639 199.2527 C 140.3862 197.777 146.2548 192.4296 149.8602 182.0943 C 151.2689 178.0561 153.511 179.0747 154.2921 180.3794 C 154.9273 181.4406 155.8922 186.0119 159.6831 191.5102 C 165.5549 200.0263 173.3339 202.8455 175.9376 195.2722 C 177.1541 191.7336 177.1188 185.6442 174.3101 178.3419 C 173.2376 175.5534 171.9287 175.3783 172.7978 173.7666 C 173.2969 172.8408 174.5677 172.1516 175.7708 172.9116 C 185.0211 178.7553 203.4125 178.1943 199.075 168.1493 C 197.6844 164.929 193.1225 159.3091 184.0621 155.7245 C 181.7107 154.7942 179.5864 154.6187 179.3615 152.874 C 179.2589 152.0784 179.1838 150.8174 181.2829 150.1393 C 195.9207 145.4105 204.9821 133.3843 196.157 129.2573 C 194.5513 128.5064 188.3879 126.6352 178.4727 130.4843 C 175.5046 131.6366 175.7737 132.54 174.2634 132.2077 C 172.9261 131.9134 172.3493 130.4703 172.6775 129.53 C 173.2928 127.7669 174.742 128.1589 176.2311 119.7834 C 177.9078 110.3533 174.9815 104.0381 169.389 105.3608 C 164.3965 106.5415 158.4523 113.5518 155.4318 121.5508 C 151.5005 131.9615 149.7965 120.8652 146.3171 115.1665 C 140.2167 105.175 131.679 101.5856 128.9148 109.5327 C 128.4987 110.729 127.2448 114.8396 129.1498 122.1965 C 131.0927 129.6996 132.9166 129.2399 132.1543 130.9205 C 130.2852 135.0406 127.8568 128.2406 114.9807 128.1167 C 113.1615 128.0992 101.4619 128.8146 106.2546 137.746 C 110.5479 145.7469 121.0783 149.1198 123.8797 150.2657 C 126.5901 151.3742 125.325 153.6843 124.7637 154.1228 C 123.5429 155.0767 119.3234 155.5416 113.1781 159.8206 C 103.0421 166.8783 102.6006 174.8094 111.4679 176.4235 C 120.5614 178.0788 129.9544 172.5573 130.3383 172.5882 C 134.1994 172.8991 130.8649 177.438 130.8279 177.5302 C 125.6609 190.4161 128.2527 202.1205 136.2639 199.2527 Z M 111.9532 195.0099 C 106.8329 192.6953 110.9183 184.4622 115.5375 186.995 C 121.6963 190.372 116.2734 196.9629 111.9532 195.0099 Z M 189.514 194.9725 C 183.541 192.6173 187.8846 185.5251 191.7326 186.5845 C 197.5883 188.1967 195.487 197.3277 189.514 194.9725 Z M 91.59135 183.6132 C 90.76849 183.1854 88.37595 181.9383 87.8528 181.6651 C 87.79295 181.6338 84.92152 180.1307 84.86162 180.0995 C 84.78801 180.0612 81.25029 178.2328 81.17679 178.1943 C 79.31676 177.2206 77.07302 176.3423 77.82204 174.4884 C 78.26956 173.3807 79.38751 172.8826 81.27286 173.8262 C 81.33562 173.8576 83.82089 175.1622 84.38144 175.4531 L 96.31557 181.6496 C 97.45006 182.2381 100.3994 183.2127 99.50008 185.394 C 98.75404 187.2035 96.78365 186.2939 95.59695 185.6914 C 95.51648 185.6505 92.47217 184.0712 91.59135 183.6132 Z M 216.6107 177.4592 C 217.8346 176.8243 217.8103 176.8374 217.8348 176.8246 L 222.0751 174.6037 C 225.6721 172.7202 226.5215 173.2022 227.0254 174.4938 C 227.7272 176.2928 225.5103 177.2267 224.0433 177.9932 C 223.8354 178.1019 221.3352 179.3961 220.5718 179.7926 C 220.4922 179.8339 218.5022 180.8688 216.5931 181.8645 L 210.6438 184.9663 C 209.8854 185.3616 206.1508 187.8603 205.3109 185.3233 C 204.6517 183.3322 206.4836 182.7102 210.0905 180.838 C 211.1333 180.2967 211.2652 180.232 216.6107 177.4592 Z M 88.32961 168.3511 C 87.01594 167.7345 86.72249 164.6483 88.01132 161.1023 C 89.92856 155.8272 92.85941 153.5809 93.79444 152.4659 C 92.21773 150.4894 88.27425 147.0503 87.40834 141.5557 C 86.706 137.0991 88.29488 135.3733 90.16451 136.6355 C 92.09644 137.9398 89.43893 142.3838 95.45374 148.4562 C 97.65607 150.6796 99.14476 150.8796 99.26315 152.2775 C 99.40531 153.9562 97.83293 154.0186 95.44168 156.3925 C 88.52972 163.2542 92.86395 170.4792 88.32961 168.3511 Z M 214.9639 168.396 C 212.1931 167.2198 215.8642 162.4151 209.0879 156.0395 C 204.2542 151.4916 204.0009 153.5768 209.0396 148.8257 C 216.074 142.1927 212.202 137.3264 215.1006 136.4145 C 217.0973 135.7865 218.2906 137.8723 217.4461 141.7346 C 216.0584 148.0816 213.1459 149.6703 211.0251 152.4524 C 211.3625 152.8823 217.1111 157.8946 217.5889 164.4353 C 217.9282 169.0795 215.7512 168.7302 214.9639 168.396 Z M 76.6371 156.3658 C 72.95964 155.0116 73.4534 147.7666 78.47415 148.4108 C 84.79059 149.2213 82.15331 158.3972 76.6371 156.3658 Z M 225.8906 156.4172 C 220.3381 155.6683 222.6484 146.1713 228.2711 148.5292 C 231.6144 149.9312 231.7697 157.2102 225.8906 156.4172 Z M 93.05998 120.4949 C 96.54498 118.6807 98.01937 117.6158 99.23618 119.0765 C 100.1514 120.1751 99.95111 121.3024 97.1992 122.7559 C 96.96773 122.8782 95.80438 123.4781 93.32712 124.7666 C 91.11595 125.9167 84.48943 129.3803 83.28059 130.0023 C 81.51483 130.9109 78.573 132.8791 77.76962 130.2407 C 77.37296 128.938 77.47736 128.6088 82.91251 125.7785 L 93.05998 120.4949 Z M 218.9361 128.6308 L 212.7608 125.4111 C 212.2745 125.1576 208.8662 123.3897 208.7044 123.3046 C 206.4721 122.1308 204.6356 121.3665 205.3109 119.5727 C 206.2296 117.1324 209.2663 119.1999 209.6531 119.3979 C 211.0162 120.0955 214.3504 121.8301 215.8318 122.602 L 222.441 126.0456 C 225.878 127.8362 227.6087 128.4471 227.072 130.2439 C 226.4778 132.2329 224.7351 131.6281 222.5674 130.5148 C 222.4946 130.4774 220.895 129.6521 218.9361 128.6308 Z M 113.0213 118.2718 C 107.3061 116.5452 109.152 108.3934 114.631 109.6407 C 117.1706 110.2187 118.4181 112.6563 118.3607 113.9006 C 118.2525 116.2443 115.2672 118.9503 113.0213 118.2718 Z M 189.604 118.0392 C 184.6568 115.9624 186.2646 109.588 191.2837 109.5499 C 192.2679 109.5424 195.5353 110.1976 195.2544 114.2475 C 195.0849 116.6913 192.2392 119.1454 189.604 118.0392 Z M 113.9551 84.79131 C 117.6555 86.33067 112.0978 89.66792 110.3056 91.57971 C 104.2517 98.03767 107.0307 104.744 107.0431 105.0204 C 107.2157 108.8803 103.3456 105.3217 97.56747 106.8963 C 90.05457 108.9436 88.79562 115.2991 86.30497 115.0515 C 83.93471 114.816 83.7001 111.8201 89.27162 107.0787 C 95.20168 102.0321 100.7386 102.4671 102.4065 102.5155 C 103.083 88.14629 112.7832 84.30378 113.9551 84.79131 Z M 190.8617 84.7927 C 192.2141 84.22395 196.1366 86.63573 199.1968 91.14473 C 202.5148 96.03359 202.2964 99.91843 202.413 102.5155 C 214.4519 102.16 222.9391 113.4604 219.0562 114.934 C 215.7888 116.1741 215.9849 109.142 206.9561 106.833 C 200.2572 105.1198 196.9389 110.2657 198.2865 102.7019 C 200.2737 91.54741 188.5353 89.35449 189.8428 85.81133 C 189.9126 85.6221 190.543 84.92675 190.8617 84.7927 Z M 126.6524 81.22459 C 126.7512 81.03513 129.2686 75.29672 131.2874 78.56999 C 132.1338 79.94228 130.4869 82.32825 128.0874 86.93614 L 123.2403 96.23833 C 122.0148 98.59071 121.4078 100.1381 119.6301 99.56908 C 117.0024 98.72806 119.1598 95.62193 120.4919 93.05684 C 120.6149 92.82007 125.5425 83.35388 126.6524 81.22459 Z M 179.2988 91.80888 C 178.9637 91.16402 178.6714 90.61392 176.8962 87.20747 C 176.3228 86.1073 174.0885 81.81572 174.0318 81.70535 C 172.5403 78.80016 173.7962 78.06783 174.4582 77.84109 C 176.3002 77.21021 176.8222 78.59924 178.3741 81.57182 C 178.4529 81.72282 180.5766 85.80257 182.3041 89.12833 C 182.4313 89.37317 183.3215 91.08702 183.5758 91.57669 C 184.68 93.70242 185.2013 94.6969 185.3039 94.8967 C 185.6872 95.64363 187.7485 98.76486 185.1624 99.55878 C 183.4918 100.0716 182.8985 98.75977 181.5994 96.26196 C 181.3219 95.72834 179.5761 92.34261 179.2988 91.80888 Z M 151.4281 99.0295 C 150.6825 98.55051 147.2451 91.59003 138.991 91.06348 C 135.1511 90.81852 136.3914 88.29832 136.903 87.83155 C 138.4901 86.38377 143.2833 87.76715 144.5615 88.29002 C 146.4715 89.07138 147.8931 89.99878 148.8509 90.68677 C 151.6814 92.72006 151.8484 93.58409 152.2843 93.72658 C 152.2867 93.72737 152.3814 93.78219 152.3936 93.79134 C 152.9149 93.40565 160.8313 85.32396 167.3053 87.43217 C 168.8044 87.92032 168.9488 90.26317 167.4149 90.85765 C 166.1953 91.33032 162.1297 90.36859 157.2034 94.67007 C 153.933 97.52559 153.6197 100.4375 151.4281 99.0295 Z M 150.6194 81.82912 C 147.4687 80.77888 146.8983 73.89115 152.8967 74.25686 C 158.7372 74.61294 157.3707 84.07962 150.6194 81.82912 Z M 70.50489 73.44922 C 70.90452 70.77283 71.85231 70.74233 76.07034 70.203 C 82.31429 69.40461 82.21165 69.83747 82.58385 70.95752 C 82.74422 71.44012 83.157 73.23921 80.13179 73.63756 C 80.04465 73.64903 75.85635 74.15723 75.76923 74.16891 C 74.55952 74.33125 74.47598 74.47665 74.45085 74.48685 C 74.39516 74.61959 74.28525 74.67481 74.15855 75.6503 C 74.13789 75.80943 73.75538 79.15756 73.69659 79.63538 C 73.44231 81.70216 72.81558 83.11366 71.03807 82.63016 C 69.29398 82.15575 69.63497 80.57954 70.01764 77.41292 C 70.04638 77.17503 70.4931 73.52821 70.50489 73.44922 Z M 232.3158 82.46609 C 231.3876 81.92165 231.2803 80.59803 231.1599 79.70938 C 230.5808 75.43776 230.6266 74.74567 230.4236 74.50427 C 229.8183 73.78456 224.158 74.18272 222.7443 72.94231 C 221.5989 71.93738 222.1825 69.97084 223.6928 69.76855 C 225.8972 69.47327 232.869 70.58098 233.6516 71.50794 C 234.3638 72.35145 237.0769 85.25862 232.3158 82.46609 Z M 136.5875 183.2009 C 137.0465 182.2464 140.3532 175.414 140.4297 175.2549 C 143.2562 169.373 143.6418 168.0956 145.1873 168.1069 C 148.8079 168.1335 145.8118 173.1534 145.7672 173.2468 C 145.587 173.6237 144.679 175.5047 143.5054 177.9533 C 142.9592 179.0927 142.9595 179.0928 142.9482 179.116 L 138.3264 188.6764 C 137.5315 190.3207 136.4545 192.878 134.4024 191.4516 C 133.0847 190.5358 133.7273 189.146 134.4565 187.6314 L 136.5875 183.2009 Z M 165.0893 185.7383 C 164.8198 185.1807 162.9397 181.2743 162.8503 181.0882 C 161.6439 178.5775 161.3347 177.9337 161.3036 177.8694 C 161.1938 177.6417 159.6879 174.5324 159.4679 174.0772 C 157.5711 170.1517 157.1246 168.5813 159.2094 168.1913 C 161.0336 167.8501 161.1569 168.483 165.0937 176.6572 C 165.436 177.3679 166.4676 179.498 167.5433 181.7318 L 170.2916 187.4422 C 170.8143 188.5287 172.1528 191.0191 169.8471 191.7253 C 168.0909 192.2633 167.4519 190.5825 166.6763 189.0101 C 166.6441 188.9449 165.1843 185.9348 165.0893 185.7383 Z M 125.3163 162.1197 L 125.9728 161.803 C 126.6952 161.4537 129.9439 159.8779 130.4859 159.6163 C 133.9427 157.9478 135.3062 157.1437 136.3929 158.5778 C 137.676 160.2712 135.9628 161.3484 133.8053 162.4036 C 133.6087 162.4998 125.1301 166.5851 123.9483 167.1576 L 117.9549 170.061 C 115.9101 171.0516 114.0045 172.0553 113.2217 170.1252 C 112.4351 168.1855 114.2751 167.4539 115.7037 166.7541 C 116.087 166.5663 116.4739 166.3858 125.3163 162.1197 Z M 176.8439 165.2023 C 176.6939 165.1297 173.1653 163.4323 173.0903 163.396 C 172.9522 163.3294 169.7092 161.7595 169.641 161.7245 C 167.4792 160.6157 167.8675 158.7592 169.0153 158.0969 C 170.2263 157.3981 170.1012 157.5821 178.3794 161.5677 C 178.7797 161.7605 181.5174 163.0733 181.7174 163.1699 L 186.6021 165.5292 C 188.0987 166.2536 193.8 168.2614 191.2807 170.6388 C 189.9772 171.8689 189.1678 171.1667 183.4479 168.3987 L 176.8439 165.2023 Z M 151.1361 158.7696 C 149.3318 158.384 145.1426 155.8898 146.1464 151.0103 C 146.3574 149.9845 147.7719 145.9088 153.355 146.0893 C 155.2723 146.1512 159.0788 148.8488 158.8574 152.8538 C 158.6963 155.7675 155.3215 159.6642 151.1361 158.7696 Z M 127.2436 143.6834 L 121.9215 141.1198 L 115.9944 138.2408 C 115.1927 137.8513 112.3004 136.8354 113.1778 134.7872 C 114.13 132.5644 116.822 134.2744 117.8281 134.7575 C 117.9149 134.7992 121.2997 136.4304 122.1672 136.8493 C 126.1664 138.7802 128.8807 140.0894 129.3094 140.2957 C 134.7704 142.9246 136.7749 143.43 136.7437 145.2123 C 136.706 147.367 135.0714 147.4492 131.6474 145.8081 C 131.3828 145.6813 129.1818 144.617 127.2436 143.6834 Z M 174.7744 140.6667 L 183.1005 136.6481 L 187.5209 134.5099 C 187.7428 134.4026 190.6686 132.5449 191.6232 134.728 C 192.494 136.7196 190.5259 137.4291 188.3934 138.4662 C 184.8335 140.1974 188.3944 138.4683 181.5394 141.7789 L 176.2431 144.3368 C 175.9565 144.4752 172.7306 146.0275 172.6587 146.0617 C 169.8769 147.3836 168.6345 147.2565 168.1437 145.7015 C 167.5775 143.9073 169.8816 143.0279 171.1693 142.3981 C 171.313 142.3278 173.982 141.0491 174.7744 140.6667 Z M 139.4813 127.6686 L 136.6751 121.8492 C 136.3515 121.1778 134.7361 117.8197 134.6564 117.6513 C 133.6547 115.5355 132.993 114.2743 134.5422 113.3176 C 136.6093 112.0411 137.801 115.1183 137.9051 115.3291 C 137.9551 115.4305 138.1066 115.7338 140.3665 120.4149 C 141.6228 123.0171 141.4177 122.5911 141.509 122.7803 L 146.7466 133.6497 C 147.3869 134.9791 146.9034 136.5023 145.4473 136.7413 C 143.6912 137.0294 143.1157 135.1799 141.9758 132.8242 L 139.4813 127.6686 Z M 161.4078 126.7813 L 163.7583 121.9031 L 166.0879 117.0844 C 166.7265 115.7607 167.9729 111.9022 170.2938 113.3076 C 171.9066 114.2842 171.1022 115.7418 169.4717 119.1419 C 169.3421 119.4121 167.6018 123.009 167.2984 123.639 C 166.9136 124.4378 165.5722 127.2358 165.3797 127.6351 C 165.3374 127.7227 163.6823 131.139 163.2572 132.0146 C 161.8811 134.8486 161.7602 135.1013 161.7282 135.1635 C 160.33 137.8843 158.498 136.4681 158.1976 136.0562 C 157.2501 134.7573 158.4082 132.9716 159.6075 130.4901 C 159.6433 130.4159 161.3721 126.8556 161.4078 126.7813 Z" fill="#000000" fill-opacity="1" stroke="none" stroke-opacity="1" stroke-width="0.1" stroke-linecap="round" stroke-linejoin="round"/>
</svg>