<?xml version="1.0" encoding="utf-8"?>
<!DOCTYPE svg PUBLIC "-//W3C//DTD SVG 1.1//EN" "http://www.w3.org/Graphics/SVG/1.1/DTD/svg11.dtd">
<!-- exported from Silhouette Studio Business Edition V4.2.279ssbe -->
<svg version="1.1" xmlns="http://www.w3.org/2000/svg" xmlns:xlink="http://www.w3.org/1999/xlink" width="304.8mm" height="304.8mm" viewBox="0 0 304.8 304.8">
<defs/>
<path d="M 234.1756 251.9154 C 226.4175 250.7601 226.8841 248.0846 227.6371 247.016 C 229.2914 244.6682 231.404 247.1609 236.6077 247.3 C 237.204 247.3159 243.6788 247.7021 246.0822 244.2876 C 246.9084 243.1138 247.6089 241.2448 247.7767 237.9869 C 247.8429 236.7015 247.896 234.2911 247.267 232.1589 C 245.9956 227.8494 246.9576 226.251 249.332 226.9359 C 252.3254 227.7994 252.6266 235.8995 252.6354 236.0941 C 253.161 247.752 246.68 253.7776 234.1756 251.9154 Z M 86.54246 255.4548 C 82.46574 253.7895 83.26803 246.957 88.16145 248.0367 C 93.49974 249.2146 91.74377 257.5795 86.54246 255.4548 Z M 271.1326 129.2945 C 265.4357 128.1531 266.9258 120.5529 271.8433 121.6827 C 276.4627 122.7441 276.0799 130.2856 271.1326 129.2945 Z M 259.3288 167.1389 C 259.7756 168.0844 262.6602 172.8101 259.5079 173.673 C 256.9091 174.3844 256.2513 171.9782 254.0932 167.2245 C 251.0454 160.5107 249.6494 158.9838 251.2408 157.3891 C 253.493 155.1323 254.6456 157.2291 256.8748 161.9462 L 259.3288 167.1389 Z M 163.9691 257.0721 C 160.789 255.5946 155.5021 254.0418 157.6185 251.0291 C 159.1591 248.8359 162.585 251.2256 166.9374 253.2163 C 174.3573 256.61 174.3745 256.7467 174.2635 258.5564 C 174.2438 258.8763 174.0341 261.7913 168.9963 259.4486 C 168.3912 259.1673 164.1708 257.1658 163.9691 257.0721 Z M 239.8663 159.6442 C 237.1986 157.6811 240.337 153.623 242.8018 156.1024 C 244.7478 158.0599 241.867 161.1165 239.8663 159.6442 Z M 239.8918 148.2422 C 237.7551 147.0053 239.5544 142.1323 242.4817 144.4745 C 244.9807 146.474 242.345 149.6624 239.8918 148.2422 Z M 238.8163 117.271 C 234.9902 115.4232 237.7839 109.1029 241.6814 110.795 C 245.8387 112.5998 242.6424 119.1188 238.8163 117.271 Z M 69.47242 107.8956 C 67.50078 107.14 67.87788 103.3674 70.50516 103.6197 C 73.57032 103.914 72.42992 109.0291 69.47242 107.8956 Z M 233.9036 107.8584 C 232.2968 107.1874 231.985 103.4536 234.9398 103.6305 C 237.8946 103.8074 237.0367 109.167 233.9036 107.8584 Z M 40.36752 107.2393 C 37.11139 105.975 38.50519 100.5143 42.13773 100.4814 C 47.58653 100.4321 45.05632 109.06 40.36752 107.2393 Z M 262.3872 107.1788 C 257.3058 105.3617 260.4965 98.63413 264.3561 100.8991 C 268.4428 103.2973 266.3532 108.597 262.3872 107.1788 Z M 75.46317 100.6738 C 70.80857 98.94533 73.73009 91.73219 78.08629 93.37265 C 83.02332 95.23183 80.11774 102.4023 75.46317 100.6738 Z M 226.6596 100.6082 C 221.5821 98.27388 225.3888 91.02614 230.0339 93.85223 C 232.2119 95.17731 232.3449 97.94441 231.0264 99.56068 C 229.4368 101.5093 227.2308 100.8709 226.6596 100.6082 Z M 85.38856 95.13116 C 82.8314 94.13841 83.13065 90.76251 85.87361 90.73345 C 89.50139 90.69501 88.68813 96.41214 85.38856 95.13116 Z M 217.8747 95.01247 C 215.171 93.58574 217.3838 89.60719 220.2043 91.0091 C 222.9418 92.36978 220.3326 96.30949 217.8747 95.01247 Z M 65.11896 84.19357 C 65.78403 80.20999 65.81441 75.37191 69.17104 76.40475 C 71.37245 77.08214 70.62434 79.80382 69.92201 84.04552 L 68.87652 90.35976 C 68.30712 93.79862 67.81289 95.24788 65.5911 94.70361 C 63.13042 94.10083 63.94051 91.28956 64.59422 87.31934 C 64.63541 87.06915 64.8371 85.88173 65.11896 84.19357 Z M 234.9484 83.27545 C 234.3859 79.81333 233.5898 76.79264 236.0764 76.35172 C 238.9493 75.8423 239.0211 78.87105 239.7111 83.11507 C 239.793 83.61883 240.3655 87.23148 240.3785 87.31554 C 240.9038 90.70145 242.0912 93.90082 239.3747 94.69633 C 237.55 95.2307 236.654 93.76247 236.2263 91.13515 L 234.9484 83.27545 Z M 51.39117 90.88872 C 47.1721 89.63092 48.23987 83.44965 52.94604 83.45904 C 57.71667 83.46855 58.1317 90.04456 52.22705 91.11995 C 51.34102 90.87485 51.40779 90.89368 51.39117 90.88872 Z M 251.8103 90.90697 C 247.0696 89.4525 247.519 83.47981 252.0262 83.39673 C 256.3591 83.31686 258.6332 90.03886 252.5372 91.11847 C 251.8103 90.90696 251.8248 90.91141 251.8103 90.90697 Z M 92.87578 87.67929 C 89.99426 86.7143 91.29636 82.23807 94.07016 83.23265 C 96.93063 84.25832 95.8446 88.67352 92.87578 87.67929 Z M 210.7857 87.74121 C 207.3696 86.7766 210.3286 81.24707 212.9734 83.61461 C 214.783 85.2345 213.123 88.40121 210.7857 87.74121 Z M 96.30419 80.0021 C 94.21866 79.23894 93.52485 77.24237 93.73771 76.15257 C 94.25026 73.52837 96.65711 71.75745 99.21274 72.90419 C 103.9717 75.03959 100.3382 81.47826 96.30419 80.0021 Z M 206.2123 79.97659 C 204.2159 79.16326 202.7139 76.62708 204.0868 74.37824 C 205.3775 72.26431 208.1759 72.22721 209.614 73.3119 C 214.0346 76.64621 209.4 81.27519 206.2123 79.97659 Z M 55.01868 76.79929 C 52.50964 75.22253 51.22244 65.15688 54.03793 58.30438 C 56.58261 52.11098 65.43617 51.72045 68.62141 51.86386 C 73.25572 52.07251 79.33174 53.67799 77.33157 56.94682 C 75.27084 60.31459 71.67017 54.29342 62.15405 57.43861 C 55.60121 59.60441 57.25375 69.59195 57.41808 70.40366 C 58.09738 73.75859 59.20169 74.75938 58.06764 76.26955 C 57.02701 77.65532 55.3331 76.99688 55.01868 76.79929 Z M 247.289 76.6265 C 244.9264 74.48119 248.1609 73.43659 247.7774 66.00021 C 247.5778 62.12921 246.9368 58.65461 242.4426 57.30611 C 236.4803 55.51712 230.7498 57.8597 230.0101 57.96377 C 227.5688 58.30724 226.1987 55.4305 228.4279 53.85549 C 230.9243 52.09172 238.6961 50.81437 245.3984 53.25283 C 250.7663 55.20582 252.7104 60.69838 252.657 67.3624 C 252.5987 74.64291 249.8255 78.92979 247.289 76.6265 Z M 105.4919 71.71696 C 103.6548 71.17439 103.5165 68.26454 105.8534 67.74253 C 109.4367 66.94212 109.3194 72.84732 105.4919 71.71696 Z M 197.9982 71.71744 C 195.2494 70.80643 196.5439 66.67197 199.537 67.87746 C 202.1464 68.92841 200.6684 72.60241 197.9982 71.71744 Z M 65.00047 70.04986 C 58.90891 68.56052 61.53838 60.7541 66.51432 60.95291 C 73.3332 61.22536 70.37539 71.36398 65.00047 70.04986 Z M 87.73996 64.12662 C 92.54632 63.33395 94.29125 62.83105 95.09561 64.7347 C 96.39188 67.80257 92.28013 68.14781 89.64935 68.56966 L 83.26954 69.59366 C 79.24889 70.24011 77.36927 70.61846 76.80009 68.45903 C 75.97785 65.33951 80.82774 65.26659 82.5519 64.98224 L 87.73996 64.12662 Z M 214.4526 68.4388 C 211.8035 68.01395 209.6863 68.03046 209.7943 65.34969 C 209.845 64.09205 210.9027 63.08812 213.2355 63.44479 C 213.5615 63.49463 215.592 63.84959 217.3003 64.13129 L 222.4276 64.97677 C 225.9423 65.55634 228.4217 65.64768 228.2133 68.14576 C 228.0443 70.17101 226.8146 70.42144 222.4472 69.721 L 214.4526 68.4388 Z M 238.5632 70.08423 C 237.8128 69.96588 232.7985 67.48016 234.894 63.43235 C 236.0986 61.10544 238.1809 60.61448 239.8473 61.13823 C 245.7102 62.98085 243.7411 70.90083 238.5632 70.08423 Z M 113.4326 67.27945 C 108.3992 65.37938 112.2042 59.01689 116.0573 61.26612 C 120.1372 63.64766 117.2385 68.71609 113.4326 67.27945 Z M 188.9012 67.26753 C 184.2573 65.26608 188.6596 58.83292 192.4955 61.45564 C 195.993 63.84694 192.4155 68.78215 188.9012 67.26753 Z M 136.0456 259.4326 C 134.2962 260.259 132.8886 260.6502 132.1282 260.3823 C 130.3713 259.7631 129.8985 257.3221 132.3859 255.9545 C 134.201 254.9565 143.372 250.7168 144.0941 250.4306 C 145.6515 249.8136 147.835 249.9949 147.6841 252.587 C 147.6108 253.8471 148.1123 253.7256 140.1209 257.4946 C 139.223 257.9181 136.9433 259.0085 136.0456 259.4326 Z M 145.8189 65.40658 C 143.2017 64.25658 144.5619 60.70762 147.4857 61.10746 C 150.1353 61.46981 149.2805 66.92754 145.8189 65.40658 Z M 157.1057 65.37236 C 155.1801 64.42905 155.5122 60.63928 158.5098 61.13152 C 162.1245 61.72509 160.3151 66.94454 157.1057 65.37236 Z M 123.1141 145.0551 C 116.5726 142.9704 121.0344 134.2084 126.0452 137.6295 C 129.6055 140.0602 127.6778 146.5095 123.1141 145.0551 Z M 150.3423 279.2622 C 143.407 277.3719 135.8927 266.5212 139.8047 264.7052 C 142.6963 263.3629 143.3406 266.9732 144.6313 268.8712 C 148.4464 274.4815 152.2148 275.0409 154.0764 274.3971 C 158.8922 272.7318 161.8285 266.025 162.251 265.4322 C 163.3725 263.8586 166.6027 264.1226 166.3156 267.0951 C 165.8909 271.4921 157.3165 281.1631 150.3423 279.2622 Z M 125.5829 274.6353 C 120.6146 273.5005 121.4914 266.0327 126.1924 266.9379 C 131.6516 267.9891 130.5511 275.7701 125.5829 274.6353 Z M 179.8156 244.2884 C 177.3301 242.799 179.702 239.5736 181.9306 240.8646 C 184.2289 242.196 182.0939 245.6536 179.8156 244.2884 Z M 36.31241 165.5952 C 33.16368 164.4676 28.51599 160.8665 26.02705 156.1924 C 22.91435 150.3468 27.4705 145.2886 29.27843 143.3524 C 32.16515 140.2608 37.51451 136.5103 39.48946 138.9213 C 41.72266 141.6477 37.3719 143.0261 36.17465 143.7703 C 34.39006 144.8795 28.2542 149.7466 30.13893 153.7622 C 32.8692 159.5793 38.87619 161.0681 39.65691 162.3981 C 40.78116 164.3134 39.18729 166.6247 36.31241 165.5952 Z M 38.08434 156.1825 C 32.27707 155.163 34.63728 145.8733 40.29579 148.055 C 44.69685 149.7519 43.06198 157.0563 38.08434 156.1825 Z M 59.71783 137.9133 C 55.08203 136.3117 57.45738 129.8196 61.58918 131.1611 C 66.38737 132.7191 63.95628 139.3776 59.71783 137.9133 Z M 46.20714 113.9163 C 46.31682 113.8039 48.90234 111.1703 48.95749 111.1144 C 49.01276 111.0584 51.67195 108.3759 51.72752 108.3202 C 51.77664 108.2709 54.14116 105.9138 54.19058 105.8648 C 55.88713 104.1854 57.65974 101.8865 59.58098 103.3034 C 62.01233 105.0965 59.6147 107.0446 57.67783 109.0379 C 57.62892 109.0882 55.56697 111.1946 55.22189 111.5442 C 55.05455 111.7138 52.81573 113.9674 52.42267 114.3605 C 52.08633 114.6969 49.6682 117.0995 49.61179 117.1552 C 49.26428 117.4982 47.17088 119.5478 47.12086 119.5964 C 45.46916 121.2014 43.52945 123.7633 41.70103 121.5397 C 40.21851 119.7367 41.72133 118.5565 43.80312 116.3948 C 43.85104 116.3451 46.11069 114.0152 46.20714 113.9163 Z M 113.3725 242.9767 C 109.3335 241.4608 111.2137 236.0755 115.1041 236.4622 C 117.698 236.72 118.4466 239.3672 117.7082 240.9786 C 117.2309 242.0202 115.5179 243.7819 113.3725 242.9767 Z M 177.6897 274.6254 C 176.397 274.3211 174.747 272.9146 175.2021 270.5872 C 175.6234 268.4327 177.6982 266.7493 179.656 266.9077 C 181.6886 267.0722 183.305 269.1921 182.7774 271.2729 C 181.849 274.9347 178.2828 274.765 177.6897 274.6254 Z M 134.6112 63.67869 C 130.164 62.87921 130.6706 56.47512 135.186 56.64202 C 140.1247 56.82457 139.4753 64.55312 134.6112 63.67869 Z M 151.4854 269.7444 C 145.756 268.1064 148.3267 259.7322 154.0623 261.8796 C 155.4515 262.3997 157.1134 264.2317 156.6318 266.5124 C 156.0794 269.1286 153.2383 270.2455 151.4854 269.7444 Z M 189.4791 242.9911 C 185.0163 241.2873 187.1502 235.2672 191.4434 236.6538 C 196.1154 238.1627 193.4461 244.5056 189.4791 242.9911 Z M 145.5629 242.5026 C 142.4949 240.409 145.9669 237.7708 147.7166 238.5178 C 150.4661 239.6915 148.5561 244.545 145.5629 242.5026 Z M 114.2545 258.1238 C 114.0855 257.9576 111.5017 255.4003 111.4457 255.3446 C 110.8302 254.7323 108.711 252.61 108.6553 252.554 C 108.3127 252.2091 106.2643 250.1322 106.2157 250.0826 C 103.3117 247.1179 102.629 246.2905 103.9042 244.8024 C 105.8942 242.4803 107.8811 245.2733 109.2736 246.6032 C 109.5681 246.8845 111.4256 248.6744 111.7178 248.9581 C 111.8288 249.0658 114.3729 251.5533 114.4832 251.6618 C 114.5387 251.7164 116.9192 254.0703 117.2501 254.4 C 117.6433 254.792 119.6502 256.809 119.699 256.8583 C 121.351 258.5305 124.0027 260.6202 122.3396 262.4522 C 120.4357 264.5495 119.0376 262.7792 116.7496 260.5612 C 116.6996 260.5126 114.3043 258.1727 114.2545 258.1238 Z M 168.991 247.2256 C 164.7144 245.8531 166.1867 239.0807 170.7627 240.435 C 175.3388 241.7892 173.5349 248.6839 168.991 247.2256 Z M 190.0625 125.7415 C 186.0478 124.3903 188.0499 118.2413 191.968 118.6911 C 196.4666 119.2074 195.0462 127.419 190.0625 125.7415 Z M 188.8078 99.26286 C 185.8597 98.21712 184.534 94.16187 185.4787 92.18645 C 186.7156 89.60008 189.6842 88.12798 192.18 88.72037 C 194.0714 89.16931 196.7462 91.54375 195.9261 95.19113 C 195.6962 96.21365 194.9275 97.57949 193.5852 98.47272 C 193.1821 98.74097 191.0897 100.0723 188.8078 99.26286 Z M 92.77203 119.0599 C 89.34934 117.6062 88.68097 113.5155 89.39919 111.7132 C 90.48486 108.9889 93.38374 108.2632 95.23562 108.4943 C 99.01764 108.9663 100.7463 113.4349 99.61736 115.9665 C 98.33242 118.848 94.56969 119.8233 92.77203 119.0599 Z M 54.23207 47.58912 C 54.23207 50.92877 51.51926 53.64157 48.17963 53.64157 C 44.83995 53.64157 42.12715 50.92877 42.12715 47.58912 C 42.12715 44.24947 44.83995 41.53666 48.17963 41.53666 C 51.51926 41.53666 54.23207 44.24947 54.23207 47.58912 Z M 168.5604 44.73412 C 169.1927 44.43568 174.4566 41.73721 174.2633 45.92779 C 174.1705 47.93805 171.6173 48.54288 164.7424 51.78817 C 162.219 52.97933 158.7003 55.21679 157.4583 52.71803 C 155.9931 49.77029 160.3017 48.63318 163.905 46.93173 L 168.5604 44.73412 Z M 168.8836 63.67326 C 164.4979 62.73844 166.2597 55.96455 170.4058 56.60265 C 175.4097 57.37278 173.9767 64.75887 168.8836 63.67326 Z M 129.7173 102.6822 C 124.5359 100.3939 129.2063 94.34186 132.9424 96.76025 C 135.886 98.66565 133.5418 104.3712 129.7173 102.6822 Z M 112.9419 125.7956 C 108.3939 124.5713 110.2073 118.1926 113.7386 118.7039 C 115.5904 118.9721 117.2481 120.8388 117.1737 122.6044 C 117.0845 124.7226 114.9891 126.3467 112.9419 125.7956 Z M 121.7859 116.4321 C 117.6366 114.5938 118.8322 109.0745 123.4573 109.762 C 128.4905 110.5101 126.1868 118.3819 121.7859 116.4321 Z M 165.0711 90.80919 C 159.046 89.32574 159.0799 79.71111 166.886 80.62789 C 168.4677 80.81365 172.3051 83.34101 171.5435 87.0865 C 171.0079 89.72058 168.1162 91.55891 165.0711 90.80919 Z M 145.327 106.1686 C 140.8502 105.1898 141.6866 97.92122 146.9432 99.62611 C 151.8151 101.2063 149.1455 107.0035 145.327 106.1686 Z M 172.5073 102.5683 C 168.795 100.4062 171.0272 94.91945 175.1964 96.41792 C 177.8295 97.3643 177.6245 99.90048 177.2428 100.7866 C 176.6423 102.1806 174.431 103.6887 172.5073 102.5683 Z M 161.5461 127.0991 C 157.3209 125.4198 159.3878 118.6345 164.0387 119.3721 C 170.7745 120.4404 167.1294 129.3181 161.5461 127.0991 Z M 158.321 106.1694 C 153.2949 105.0712 155.493 98.37872 160.3658 99.52457 C 164.5618 100.5113 162.1246 107.0005 158.321 106.1694 Z M 146.8128 142.7947 C 145.4734 142.0283 143.1274 135.5893 143.0798 135.0771 C 142.8662 132.7797 144.9294 131.8493 146.4403 132.693 C 147.7002 133.3965 150.3251 139.7597 150.3052 140.8418 C 150.2685 142.8421 148.3409 143.6692 146.8128 142.7947 Z M 155.8792 142.9089 C 153.4532 141.6226 155.5683 138.021 155.9494 137.1888 C 157.5214 133.7565 158.0366 131.7684 160.5189 132.5536 C 163.0998 133.3701 161.3683 136.7696 160.8427 137.9579 C 159.4813 141.0353 158.4806 144.2883 155.8792 142.9089 Z M 216.1903 55.78559 C 211.8308 53.97569 212.9873 47.19134 217.8741 48.3608 C 223.2051 49.63657 221.2529 57.88741 216.1903 55.78559 Z M 140.5411 127.233 C 138.1983 126.5541 137.3088 124.374 137.3529 122.9961 C 137.4594 119.6682 141.4342 119.0641 142.6643 119.4201 C 147.6417 120.8605 146.1401 128.8553 140.5411 127.233 Z M 218.2284 143.7188 C 210.7008 141.7699 213.1807 131.7749 219.1123 132.9553 C 226.7386 134.4729 224.2924 145.2888 218.2284 143.7188 Z M 128.7892 123.571 C 126.5539 122.2558 127.738 117.1754 130.0393 113.6745 C 132.3069 110.2248 137.1297 106.9184 144.2525 109.7548 C 150.9798 112.4336 150.1939 114.908 149.782 115.5991 C 147.8853 118.7812 145.6155 114.8356 141.1444 113.8135 C 137.7623 113.0403 134.7606 114.0219 133.3199 117.5558 C 132.3534 119.9267 132.1642 125.5569 128.7892 123.571 Z M 173.982 123.5517 C 171.529 122.0998 173.399 116.4874 168.4795 114.0691 C 163.8264 111.7817 159.1274 116.953 157.0129 116.7854 C 155.1911 116.641 154.2187 114.4043 155.6207 112.8723 C 156.7404 111.6487 165.2638 105.8297 172.0497 110.5966 C 173.7157 111.7669 176.4758 114.5332 177.3772 120.574 C 177.857 123.7899 174.9924 124.1498 173.982 123.5517 Z M 53.93683 256.6203 C 53.93683 259.9599 51.22403 262.6727 47.88435 262.6727 C 44.54472 262.6727 41.83192 259.9599 41.83192 256.6203 C 41.83192 253.2807 44.54472 250.5678 47.88435 250.5678 C 51.22403 250.5678 53.93683 253.2807 53.93683 256.6203 Z M 179.9128 63.19026 C 177.7719 62.10135 179.0814 58.8426 181.3991 59.47325 C 183.7167 60.10389 182.9814 64.75102 179.9128 63.19026 Z M 129.7577 207.5595 C 124.8257 205.7995 128.8381 198.9881 132.6497 201.5008 C 136.1249 203.7917 133.8044 209.0036 129.7577 207.5595 Z M 111.9139 214.9403 C 108.9721 213.3893 108.198 209.97 109.6712 207.3466 C 110.3629 206.1148 113.2372 203.5368 116.2455 204.7643 C 118.9275 205.8588 120.4061 209.3404 119.5607 211.6285 C 118.5788 214.2862 114.5676 216.3394 111.9139 214.9403 Z M 193.2657 55.01546 C 193.21 54.96165 190.6586 52.47739 190.4927 52.31486 C 190.1591 51.98793 187.7756 49.63697 187.7204 49.58212 C 187.622 49.48447 185.3188 47.18128 185.2699 47.13208 C 184.1532 46.00629 181.1619 43.43541 182.503 41.69702 C 184.5655 39.02356 186.5923 41.84427 188.0995 43.30054 C 188.1483 43.34769 190.4323 45.57427 190.5293 45.66926 C 191.1367 46.26433 193.1189 48.21781 193.2838 48.38084 C 193.7251 48.81708 195.7073 50.78421 196.0368 51.11285 C 196.0855 51.16133 198.1724 53.25002 198.4622 53.54287 C 200.8448 55.95072 202.7487 57.49827 200.9872 59.28522 C 199.1766 61.12199 197.8302 59.37883 195.7179 57.36913 C 195.4224 57.08797 193.6078 55.34622 193.2657 55.01546 Z M 113.2509 99.33688 C 108.3683 97.79924 108.8406 93.41716 109.1077 92.49528 C 109.3288 91.73212 110.6593 88.21753 114.4782 88.62259 C 116.6057 88.84824 120.048 90.76319 119.7897 94.11517 C 119.7193 95.02922 119.0906 97.71777 116.7841 98.99326 C 115.7279 99.57735 114.4021 99.69943 113.2509 99.33688 Z M 181.0237 116.5713 C 176.2685 114.7938 179.1674 108.5757 183.3306 109.9087 C 188.5682 111.5858 184.3258 117.8057 181.0237 116.5713 Z M 136.8894 90.74113 C 130.308 88.71191 133.9363 79.22636 140.6711 80.66643 C 143.1736 81.20152 145.3335 84.08867 143.7851 87.51871 C 141.8435 91.81992 137.3258 90.87569 136.8894 90.74113 Z M 203.5009 133.4837 C 199.5736 131.5634 202.2865 125.9678 205.811 127.0556 C 210.1188 128.3851 208.1646 135.7641 203.5009 133.4837 Z M 139.6523 39.19859 C 135.8455 36.92909 144.0541 25.75067 150.9787 24.61318 C 158.538 23.37141 166.8701 34.14571 166.2895 37.7277 C 165.9403 39.88142 163.4598 39.77595 162.5736 38.89902 C 161.5325 37.86889 159.5687 32.15533 154.496 29.74959 C 151.4024 28.28242 147.6246 30.99609 144.9702 34.62228 C 143.4783 36.66029 142.5449 40.92304 139.6523 39.19859 Z M 137.6224 223.2477 C 134.3503 222.1231 132.5772 218.565 133.7045 216.0008 C 135.1047 212.8158 138.6412 212.7688 140.4414 213.3264 C 146.9439 215.3404 144.4503 225.5943 137.6224 223.2477 Z M 199.4724 44.47136 C 195.5364 42.8012 196.7495 36.74058 201.0473 38.18734 C 206.4504 40.00613 203.5277 46.19212 199.4724 44.47136 Z M 209.1066 119.0747 C 201.4385 116.7655 205.7052 107.2354 211.8315 108.6015 C 219.2252 110.2501 215.3239 120.9471 209.1066 119.0747 Z M 263.2633 257.2108 C 263.2633 260.5504 260.5505 263.2633 257.2108 263.2633 C 253.8712 263.2633 251.1584 260.5504 251.1584 257.2108 C 251.1584 253.8712 253.8712 251.1583 257.2108 251.1583 C 260.5505 251.1583 263.2633 253.8712 263.2633 257.2108 Z M 178.2024 36.89578 C 171.6132 34.44752 177.0419 25.59889 181.7247 30.64735 C 184.8465 34.013 181.1609 37.995 178.2024 36.89578 Z M 158.4524 12.45538 C 158.4524 15.79502 155.7397 18.50783 152.4 18.50783 C 149.0603 18.50783 146.3475 15.79502 146.3475 12.45538 C 146.3475 9.115726 149.0603 6.40292 152.4 6.40292 C 155.7397 6.40292 158.4524 9.115726 158.4524 12.45538 Z M 263.2633 46.99866 C 263.2633 50.33831 260.5505 53.05113 257.2108 53.05113 C 253.8712 53.05113 251.1584 50.33831 251.1584 46.99866 C 251.1584 43.65902 253.8712 40.94621 257.2108 40.94621 C 260.5505 40.94621 263.2633 43.65902 263.2633 46.99866 Z M 252.9299 139.2625 C 255.4801 133.8466 256.311 130.9621 258.0464 130.2988 C 259.2495 129.839 262.4973 130.0679 259.7597 135.8969 L 256.9205 141.9428 C 255.5935 144.769 254.6584 146.8037 253.8796 147.1202 C 253.2102 147.3923 249.0595 147.5992 251.3408 142.6261 C 251.3718 142.5585 252.5812 140.0029 252.9299 139.2625 Z M 144.3989 204.4456 C 141.6555 203.6018 141.7125 197.8587 145.9489 197.7899 C 151.6886 197.6968 149.7549 206.093 144.3989 204.4456 Z M 243.0257 172.6931 C 237.7083 170.1555 242.6501 162.8982 246.7465 166.9404 C 249.5749 169.7315 246.3646 174.2866 243.0257 172.6931 Z M 19.0983 151.8095 C 19.0983 155.1491 16.38548 157.8619 13.04582 157.8619 C 9.706192 157.8619 6.993378 155.1491 6.993378 151.8095 C 6.993378 148.4698 9.706192 145.757 13.04582 145.757 C 16.38548 145.757 19.0983 148.4698 19.0983 151.8095 Z M 98.66794 133.5721 C 94.75299 131.9145 97.35156 125.534 101.1262 127.1708 C 105.6559 129.1349 102.7092 135.2832 98.66794 133.5721 Z M 242.5007 125.5517 C 239.6632 124.6679 241.5902 120.4605 244.0388 121.8418 C 245.9976 122.9468 244.878 126.2922 242.5007 125.5517 Z M 84.7446 143.746 C 77.85246 141.7776 81.53389 131.3814 87.8299 132.9798 C 94.56013 134.6884 90.99059 145.5298 84.7446 143.746 Z M 158.4524 292.3446 C 158.4524 295.6842 155.7397 298.397 152.4 298.397 C 149.0603 298.397 146.3475 295.6842 146.3475 292.3446 C 146.3475 289.0049 149.0603 286.2921 152.4 286.2921 C 155.7397 286.2921 158.4524 289.0049 158.4524 292.3446 Z M 297.8066 151.8095 C 297.8066 155.1492 295.0938 157.862 291.7542 157.862 C 288.4145 157.862 285.7017 155.1492 285.7017 151.8095 C 285.7017 148.4699 288.4145 145.757 291.7542 145.757 C 295.0938 145.757 297.8066 148.4699 297.8066 151.8095 Z M 93.30419 195.4488 C 86.50234 194.0938 88.98962 184.7822 94.18953 184.6483 C 102.6394 184.4307 100.9563 196.9732 93.30419 195.4488 Z M 209.4335 195.4695 C 203.0461 194.0414 203.8575 184.4735 210.8366 184.6517 C 213.6719 184.724 216.0146 188.1514 215.9198 190.6707 C 215.75 195.1859 210.6933 195.7511 209.4335 195.4695 Z M 136.3598 194.949 C 127.8545 192.7049 126.7757 182.3509 128.3914 180.7414 C 129.3333 179.8032 131.5041 179.5977 132.2312 182.3275 C 132.7616 184.3189 133.3005 189.1513 137.2821 190.2163 C 142.3524 191.5725 145.8042 186.8279 148.2864 187.2013 C 149.728 187.4182 151.6958 189.9438 147.2051 192.7032 C 143.4306 195.0226 139.5725 195.7967 136.3598 194.949 Z M 163.468 195.0401 C 153.4187 192.9949 153.7786 187.1608 157.197 187.1812 C 159.2484 187.1934 161.0391 190.071 165.1318 190.3594 C 166.5804 190.4614 170.0217 190.727 171.8554 185.9 C 172.0058 185.5041 173.1112 177.4245 176.6232 180.6957 C 178.9019 182.8182 175.2928 197.4466 163.468 195.0401 Z M 121.531 194.0469 C 116.7551 192.3092 120.5223 186.5836 123.4125 187.2437 C 128.6424 188.438 126.1742 195.7363 121.531 194.0469 Z M 180.4964 193.88 C 176.1414 191.58 179.728 185.2553 183.7455 187.8605 C 189.0256 191.2845 183.5207 195.4773 180.4964 193.88 Z M 111.9826 184.9316 C 108.6644 183.1271 110.1146 177.4158 114.6976 178.1945 C 119.1374 178.9488 116.577 187.4301 111.9826 184.9316 Z M 190.2998 184.9731 C 185.3475 182.7755 188.6172 176.63 192.675 178.4457 C 196.7328 180.2615 194.2362 186.72 190.2998 184.9731 Z M 139.7468 184.2407 C 134.7589 182.047 138.2655 174.9071 143.5157 176.8951 C 147.9939 178.5909 145.1882 186.6337 139.7468 184.2407 Z M 161.9492 184.4351 C 158.2762 182.8763 158.111 176.3427 163.3725 176.5829 C 170.3878 176.9031 167.5322 186.8046 161.9492 184.4351 Z M 98.83669 176.7844 C 95.32695 175.2615 96.72338 168.5338 101.2739 170.4019 C 105.8244 172.27 102.4718 178.3617 98.83669 176.7844 Z M 203.7062 176.7349 C 199.2381 174.6587 202.4822 168.4998 206.5306 170.5019 C 209.9657 172.2007 207.6779 178.5805 203.7062 176.7349 Z M 119.339 176.5575 C 112.7155 175.1038 107.8507 170.048 109.4771 162.7681 C 110.3833 158.7119 112.8796 154.6627 114.848 154.4568 C 116.0681 154.3292 118.0103 155.5584 116.9628 157.9566 C 116.745 158.4551 109.4777 168.4262 118.7969 171.4324 C 121.2796 172.2332 124.629 171.9542 124.2977 174.9359 C 124.1479 176.284 123.1099 177.3851 119.339 176.5575 Z M 181.9465 176.6377 C 180.5567 175.9816 179.4869 173.0371 182.9175 172.2229 C 183.6474 172.0497 189.5197 171.5754 190.7375 167.0476 C 192.0584 162.1358 187.4117 158.6054 187.7068 156.4138 C 188.3848 151.3805 195.7151 156.283 195.7162 165.473 C 195.7174 175.7548 183.5495 177.3945 181.9465 176.6377 Z M 144.6112 171.5328 C 143.2334 171.1831 142.5082 169.9696 143.9478 166.4995 C 145.2382 163.389 146.0605 160.1438 148.7228 160.9505 C 151.7038 161.8538 149.5741 165.5845 148.8658 167.1786 C 147.9264 169.2926 147.0895 172.1619 144.6112 171.5328 Z M 155.3202 165.4062 C 153.5454 161.4378 156.2649 160.4471 157.7871 160.9942 C 159.9352 161.7663 162.3432 169.4464 161.5501 170.6632 C 160.9108 171.644 158.8834 173.201 156.7049 168.4629 C 156.5928 168.219 155.4846 165.7738 155.3202 165.4062 Z M 85.35112 170.9497 C 78.32048 168.8984 80.79443 158.772 86.64014 160.2568 C 94.5736 162.272 91.55463 172.7597 85.35112 170.9497 Z M 216.6903 170.8724 C 213.2432 169.6451 213.1057 165.3058 214.1453 163.336 C 215.7987 160.2032 219.7944 158.9912 222.3618 161.432 C 224.2147 163.1935 224.7049 166.4303 222.5592 168.9486 C 221.1973 170.547 218.9013 171.6596 216.6903 170.8724 Z M 122.7508 167.0243 C 117.2683 165.1549 120.3621 157.5755 125.1363 158.8469 C 127.0383 159.3534 127.9667 160.887 127.8516 162.9503 C 127.6552 166.47 124.3573 167.5721 122.7508 167.0243 Z M 180.5964 167.1098 C 175.5501 165.8945 176.3766 158.8045 180.5621 158.7379 C 183.5084 158.691 185.3675 161.1344 185.1816 163.1759 C 185.0172 164.9808 183.1808 167.7321 180.5964 167.1098 Z M 101.7887 161.7784 C 97.59644 160.2444 100.8684 153.7981 104.5253 155.1186 C 108.5887 156.5858 106.5219 163.5103 101.7887 161.7784 Z M 200.856 161.9075 C 196.9584 160.8591 197.754 154.8604 201.51 154.9794 C 206.657 155.1426 206.0976 163.3175 200.856 161.9075 Z M 137.8175 160.6385 C 132.8888 162.8316 130.811 158.5711 134.9923 156.6299 C 141.6886 153.5212 141.8797 153.942 142.7648 154.634 C 144.2148 155.7675 144.3719 157.6838 140.739 159.3277 C 140.6807 159.3541 137.9345 160.5865 137.8175 160.6385 Z M 169.0368 161.4066 C 165.8945 160.3878 162.0116 158.7931 161.4604 157.1441 C 161.1124 156.1029 161.5338 154.6751 162.9679 154.2887 C 164.5818 153.8539 170.7421 156.7688 171.5788 157.7638 C 173.1797 159.6677 170.8961 162.0094 169.0368 161.4066 Z M 150.9359 155.1095 C 148.2325 154.0643 147.9731 147.5774 153.6473 148.7635 C 157.5653 149.5824 156.3427 157.2001 150.9359 155.1095 Z M 140.739 144.6467 C 145.8794 146.9977 143.1799 149.7715 141.4017 149.8383 C 141.2052 149.8457 132.9097 147.608 132.9243 144.8546 C 132.9269 144.355 133.0955 141.2306 137.6597 143.2622 C 137.7214 143.2897 140.6776 144.6186 140.739 144.6467 Z M 162.8975 149.7096 C 161.1855 149.1317 160.6396 146.6651 162.502 145.4257 C 162.7816 145.2397 168.9887 142.131 170.417 142.6249 C 173.2565 143.6067 171.9752 146.0734 170.9323 146.7658 C 169.2213 147.9017 164.1947 150.1474 162.8975 149.7096 Z M 103.5856 265.6692 C 99.11976 263.6815 101.0835 258.3601 105.0639 259.4095 C 109.6663 260.6229 108.2865 267.7615 103.5856 265.6692 Z M 65.14535 242.8793 C 63.09772 242.312 60.56799 239.2752 61.71317 236.684 C 62.09496 235.8201 63.82421 233.1392 66.9998 234.0576 C 69.07736 234.6584 71.20036 237.4558 70.40257 239.8969 C 69.38869 242.9994 66.31031 243.2021 65.14535 242.8793 Z M 113.816 149.2017 C 111.6118 147.9548 108.2671 140.9904 109.5402 135.7978 C 110.1245 133.4142 112.2352 129.2366 118.6503 127.5769 C 124.948 125.9476 124.6953 129.3622 124.027 130.5353 C 122.813 132.6665 117.6754 131.1818 114.9733 135.276 C 112.1041 139.6234 116.6259 145.3642 116.7306 145.5444 C 118.4229 148.4554 115.7699 150.3069 113.816 149.2017 Z M 189.0341 149.3782 C 185.6389 147.8864 189.8757 143.5237 190.5547 141.088 C 192.1013 135.5408 188.4332 133.5033 186.955 132.8414 C 184.478 131.7324 179.4407 132.0885 180.8434 128.4281 C 181.657 126.3051 186.3946 126.8333 190.2859 129.1855 C 197.3344 133.446 195.69 140.3685 195.2918 141.9669 C 194.307 145.92 191.5206 150.4706 189.0341 149.3782 Z M 61.25558 125.5524 C 58.81445 124.7078 60.1548 120.4638 62.81165 121.8283 C 65.03767 122.9715 63.54414 126.3442 61.25558 125.5524 Z M 46.18585 137.9356 C 44.17903 133.6444 42.98747 131.2728 45.4099 130.3343 C 47.38991 129.5673 48.6219 131.1869 50.79439 136.4749 C 52.81464 141.3922 55.69009 144.9703 53.56606 146.7396 C 50.44473 149.3396 48.57889 143.0481 47.68454 141.1343 C 47.41534 140.5583 46.96397 139.5995 46.18585 137.9356 Z M 156.5555 242.3004 C 154.4995 240.1811 157.5468 236.7198 159.8715 239.0926 C 162.0671 241.3336 158.4188 244.221 156.5555 242.3004 Z M 59.0916 172.6461 C 55.40276 170.787 57.43932 165.2407 61.37294 165.8993 C 63.54066 166.2622 64.75455 168.4622 64.01078 170.4189 C 63.20492 172.5388 60.924 173.5696 59.0916 172.6461 Z M 187.5079 254.6144 C 187.9112 254.2116 190.3401 251.8037 190.3981 251.7465 C 190.7154 251.4328 192.9949 249.1895 193.048 249.1375 C 198.1983 244.0962 199.054 243.14 200.7556 244.4738 C 203.3456 246.504 198.6885 250.2123 197.629 251.2681 L 193.7069 255.1762 C 193.4115 255.4707 190.7982 258.0481 190.7387 258.1065 C 190.6887 258.1556 188.2823 260.5063 188.2319 260.5551 C 184.5833 264.0891 184.0797 263.8778 182.8548 262.6538 C 180.8101 260.6108 183.5571 258.6024 185.078 257.0576 C 185.1263 257.0085 187.4592 254.6631 187.5079 254.6144 Z M 64.32544 251.9166 C 63.89919 251.8523 49.96039 251.7762 52.55766 233.8571 C 53.7007 225.9713 56.24469 226.4669 57.26588 227.0214 C 59.81175 228.4037 57.70166 231.0102 57.27818 234.645 C 55.67119 248.4389 65.99396 248.6864 73.20199 246.4778 C 78.22325 244.9393 77.96476 248.3707 77.37937 249.3149 C 75.9766 251.5774 68.80034 252.5923 64.32544 251.9166 Z M 102.4196 148.8075 C 98.78792 147.4927 99.03535 141.3849 103.5453 142.0028 C 108.7386 142.7144 106.8296 150.4041 102.4196 148.8075 Z M 221.4393 234.424 C 222.5228 234.2536 227.508 232.5654 228.185 235.6453 C 228.6713 237.8577 227.1607 238.2172 222.4278 238.9983 L 216.7942 239.9282 C 213.2822 240.5127 209.9084 241.4684 209.7943 238.6225 C 209.7014 236.3056 210.7784 236.1006 215.3595 235.3802 L 221.4393 234.424 Z M 105.2936 236.0604 C 103.188 235.1259 104.0034 231.7233 106.6786 232.1868 C 107.9457 232.4063 108.8271 233.6205 108.4007 234.9016 C 107.8561 236.5377 105.8998 236.3294 105.2936 236.0604 Z M 197.8093 236.1806 C 195.2793 235.4253 196.56 231.2741 199.5428 232.2908 C 201.9613 233.1152 200.9106 237.1066 197.8093 236.1806 Z M 77.91009 151.9916 C 77.35839 151.2144 69.0358 143.8332 69.87198 129.5616 C 69.89864 129.1067 70.4954 117.3159 78.28227 108.3867 C 83.05295 102.9161 86.90592 100.8668 88.27919 100.1364 C 94.64543 96.75074 96.33172 97.68788 97.22866 96.98668 C 97.97117 96.40621 98.30923 86.071 109.8125 77.06651 C 117.0358 71.41231 125.4656 68.88503 134.1136 69.40308 C 143.7446 69.98003 148.9701 74.22591 152.5096 77.50374 C 154.6002 75.5256 168.0419 63.14533 188.1719 72.75443 C 192.9689 75.0443 198.1696 78.77502 201.9145 83.93858 C 207.504 91.64524 206.6991 96.27579 207.9114 97.05748 C 208.9515 97.72813 216.1626 97.15482 225.7752 107.3684 C 235.0626 117.2364 235.1452 130.1412 235.1585 130.6429 C 235.5069 143.8732 228.668 149.7504 227.088 151.9868 C 230.2664 156.4856 240.2841 166.8806 232.4502 185.9937 C 232.1561 186.7112 229.0101 195.0869 220.6256 201.3527 C 213.0661 207.0019 209.5443 205.8632 207.9114 206.9161 C 206.8655 207.5904 206.9593 216.1229 197.5406 224.8779 C 186.9796 234.6947 166.911 240.0959 152.5096 226.4698 C 140.0754 237.9848 126.0499 234.9228 119.1047 232.2085 C 114.1892 230.2874 108.0606 226.7218 102.9853 219.8718 C 97.52475 212.5016 98.27235 207.5037 96.99655 206.8506 C 96.57062 206.6326 86.10789 206.081 76.92741 193.8264 C 74.41389 190.4713 69.55965 182.3609 69.80985 171.6503 C 70.08791 159.7468 76.42419 154.0657 77.91009 151.9916 Z M 137.2607 229.3877 C 147.0197 227.4352 149.342 221.7016 151.5359 220.9401 C 154.0247 220.0762 154.9915 222.3827 157.7897 224.7404 C 160.6502 227.1506 163.3633 228.1686 164.9126 228.6633 C 174.0625 231.5845 187.9366 229.6101 197.4925 217.9269 C 203.5613 210.5071 201.8364 204.0445 204.1756 202.8114 C 205.7484 201.9822 212.7838 202.393 220.3128 195.3455 C 229.5053 186.741 233.3568 172.4854 227.8085 161.1825 C 223.5719 152.5518 217.5595 154.5081 224.1919 147.9323 C 228.2633 143.8957 232.0405 135.8666 229.5976 124.6633 C 227.3967 114.5698 220.2423 108.4435 218.6273 107.1548 C 208.8341 99.34003 203.6786 104.0175 202.8444 98.7131 C 201.0156 87.08318 193.0924 81.02798 188.8448 78.57433 C 179.6227 73.24709 170.8609 73.56628 165.971 74.99205 C 155.6474 78.00208 155.6648 83.99504 151.8526 83.12449 C 149.7348 82.64087 149.9433 80.93436 145.3687 77.85516 C 142.3268 75.80763 139.4569 75.06981 137.6675 74.6705 C 130.3527 73.03817 117.8068 74.43651 108.2561 85.16669 C 101.9699 92.22911 102.4851 99.26631 101.5077 100.6429 C 100.2339 102.4368 95.01356 100.5987 86.9932 106.6675 C 73.23766 117.076 73.70541 132.6878 75.74136 139.2805 C 78.29603 147.5529 83.24879 149.0974 83.60661 151.3783 C 84.17303 154.9888 79.14625 155.4263 76.21526 163.3345 C 71.63829 175.6838 77.34119 188.3895 84.49334 195.2023 C 88.41168 198.9347 92.56675 201.0155 97.02241 201.9715 C 106.2394 203.949 98.66971 204.0063 105.8534 215.616 C 111.6278 224.948 124.4822 231.9443 137.2607 229.3877 Z M 95.75497 230.9089 C 91.18147 228.0365 95.33869 221.3126 99.68429 224.5194 C 104.6334 228.1717 98.80397 232.8239 95.75497 230.9089 Z M 205.7503 231.0608 C 201.5541 229.0539 204.0042 223.9127 207.2997 223.7202 C 213.4411 223.3614 211.5709 233.8446 205.7503 231.0608 Z M 64.91768 218.6198 C 63.60082 210.7297 63.60158 210.8519 64.74545 209.7334 C 65.71803 208.7823 67.95071 208.0221 68.87659 213.6138 L 69.92207 219.928 C 70.95603 226.1725 70.82217 227.1157 69.03284 227.5955 C 66.68305 228.2256 66.20375 226.306 65.58296 222.5866 C 65.50349 222.1105 64.99714 219.0959 64.91768 218.6198 Z M 236.0745 213.7747 C 236.6534 210.2048 238.0476 207.5303 240.4478 209.9147 C 241.1971 210.6591 241.2952 211.2848 239.7856 220.4558 C 238.5937 227.6961 238.1492 227.7305 236.3954 227.6752 C 233.6665 227.5892 234.3627 224.3145 234.8423 221.3631 L 236.0745 213.7747 Z M 92.42288 220.6452 C 90.16743 219.4439 91.44831 215.5088 94.18803 216.2544 C 97.38436 217.1243 95.17955 222.1134 92.42288 220.6452 Z M 210.972 220.8208 C 208.1853 220.0494 209.0718 214.9895 212.3398 216.3621 C 214.8337 217.4095 213.7588 221.5922 210.972 220.8208 Z M 51.5652 220.3703 C 47.19862 218.8436 48.12169 212.1793 52.96956 213.0428 C 58.55197 214.0372 57.05861 222.291 51.5652 220.3703 Z M 250.9108 220.4456 C 246.4137 219.232 248.7569 212.4508 253.071 212.9889 C 258.4634 213.6615 256.3073 221.9019 250.9108 220.4456 Z M 85.0821 213.0842 C 82.79294 212.2975 83.32037 208.7943 86.09849 208.7184 C 89.59357 208.6228 88.64302 214.3079 85.0821 213.0842 Z M 218.7347 213.2272 C 215.4651 212.6646 216.3786 208.2266 219.2858 208.7779 C 222.4572 209.3794 221.7392 213.7442 218.7347 213.2272 Z M 75.82432 210.5375 C 70.62095 208.8342 73.78774 201.6317 78.04771 203.2655 C 83.01768 205.1717 80.44953 212.0515 75.82432 210.5375 Z M 226.7908 210.5972 C 222.1156 208.8991 224.5619 201.9791 229.071 203.1674 C 234.3318 204.5537 231.3199 212.2422 226.7908 210.5972 Z M 41.12984 203.343 C 37.28699 202.0134 37.84364 195.5387 42.04227 196.6274 C 45.24437 197.4577 45.41777 200.1086 45.15337 201.1791 C 44.5618 203.5741 41.90697 203.6119 41.12984 203.343 Z M 261.8868 203.3724 C 259.9208 202.7235 259.3359 200.2769 260.0924 198.7814 C 260.752 197.4775 262.8739 195.8846 264.9483 196.8693 C 268.4547 198.5338 265.436 204.544 261.8868 203.3724 Z M 51.51019 195.4484 C 51.45549 195.3933 49.21799 193.1315 48.78261 192.689 C 48.45819 192.3593 46.19318 190.0453 46.0856 189.9348 C 45.99132 189.838 43.78203 187.5559 43.73529 187.5071 C 41.76123 185.4466 40.1537 184.2626 41.70226 182.4101 C 43.34039 180.4504 44.9919 182.2951 47.15549 184.4 C 47.20561 184.4488 49.35277 186.5554 49.65109 186.8507 C 49.9897 187.1858 52.40582 189.5982 52.46185 189.6544 C 52.51794 189.7108 55.20178 192.423 55.25748 192.4797 C 55.3559 192.5799 57.65907 194.9444 57.70786 194.9949 C 58.43036 195.7434 61.88389 198.2073 59.9254 200.3322 C 58.35109 202.0403 57.2524 201.1616 53.95216 197.8916 C 53.90309 197.843 51.55891 195.4974 51.51019 195.4484 Z M 249.7773 192.4087 C 250.1104 192.0704 252.4517 189.7121 252.5635 189.6002 C 252.898 189.2651 255.0226 187.1495 255.3594 186.8167 C 255.7543 186.4264 257.7873 184.4351 257.837 184.3867 C 258.9986 183.2577 261.3453 180.2254 263.2662 182.3882 C 264.8527 184.1744 263.221 185.3939 261.275 187.4394 C 260.7546 187.9863 258.9463 189.8656 258.8986 189.9149 C 258.8442 189.9711 256.2235 192.6605 256.1688 192.7164 C 256.1137 192.7725 253.4626 195.4601 253.4072 195.5158 C 253.2594 195.6646 251.2331 197.6904 250.9352 197.9854 C 248.8948 200.0066 247.1344 202.2391 245.2047 200.4636 C 243.1058 198.5324 245.7572 196.5356 247.3286 194.914 C 247.3773 194.8637 249.7281 192.4586 249.7773 192.4087 Z M 68.98231 199.9131 C 67.07703 198.3221 68.8543 194.9518 71.17519 196.2379 C 73.72067 197.6485 71.47887 201.9979 68.98231 199.9131 Z M 233.3313 199.8665 C 231.4351 197.9043 233.9096 194.8517 235.9767 196.3493 C 238.2576 198.0018 235.4109 202.0184 233.3313 199.8665 Z M 63.58549 193.3046 C 59.27674 191.9977 61.87614 184.3586 66.43523 186.8723 C 69.51569 188.5707 67.49031 194.489 63.58549 193.3046 Z M 239.4913 193.3121 C 235.1856 192.0401 236.9585 184.5035 241.703 186.8792 C 244.1178 188.0883 243.6391 190.8402 243.2291 191.6416 C 242.3342 193.3912 240.3551 193.5673 239.4913 193.3121 Z M 33.04526 182.2685 C 28.79221 181.07 28.83107 175.0871 32.76906 174.6551 C 34.88773 174.4226 37.11949 176.2201 37.51566 178.1937 C 38.15849 181.3962 34.79187 182.7607 33.04526 182.2685 Z M 61.21933 182.2362 C 59.0287 181.442 59.86494 177.9679 62.24465 178.3518 C 64.94167 178.7868 63.93871 183.222 61.21933 182.2362 Z M 123.118 244.3199 C 120.5955 242.9279 123.1877 239.0429 125.4539 241.071 C 127.2429 242.6721 125.22 245.4799 123.118 244.3199 Z M 242.4948 182.3368 C 240.7457 181.7432 240.3659 178.6972 242.8289 178.3354 C 245.9276 177.8803 245.5366 183.369 242.4948 182.3368 Z M 124.2425 36.77411 C 120.0696 34.75685 122.4869 28.57524 127.2175 29.35727 C 132.5788 30.24357 128.7032 38.93049 124.2425 36.77411 Z M 164.3118 223.3249 C 158.8098 221.7115 159.5815 212.7335 167.217 213.1122 C 170.7062 213.2852 171.6428 216.6778 171.6306 217.8422 C 171.5962 221.1341 167.6463 224.3027 164.3118 223.3249 Z M 108.654 51.41943 C 108.7096 51.36345 111.2754 48.79649 111.4432 48.62955 C 111.5552 48.51811 114.1947 45.90649 114.251 45.8511 C 115.0467 45.06879 116.5951 43.56002 116.7453 43.41439 C 118.0375 42.16166 120.3645 38.94215 122.4927 41.69489 C 123.7619 43.3366 121.9266 44.86203 119.6962 47.1198 C 119.6474 47.16915 117.3462 49.47956 117.248 49.57752 C 117.1377 49.6874 115.1478 51.65983 114.482 52.31474 C 114.4269 52.36896 111.7731 54.96349 111.7176 55.01734 C 111.6689 55.06459 109.3723 57.27749 109.2741 57.37121 C 106.2843 60.22601 105.1197 60.98367 103.7652 58.98861 C 102.4943 57.11671 104.4739 55.66855 106.2153 53.89043 C 106.2639 53.84083 108.3604 51.715 108.654 51.41943 Z M 269.9887 182.2142 C 263.989 180.2886 269.9514 171.5301 274.1776 175.544 C 276.6904 177.9307 273.8885 183.4659 269.9887 182.2142 Z M 86.01024 55.83584 C 84.49915 55.2635 83.53492 53.0844 84.12321 51.15216 C 84.91315 48.55757 87.65448 47.78413 89.39513 48.51207 C 93.8612 50.3798 90.53729 57.5505 86.01024 55.83584 Z M 102.8515 44.48571 C 98.73481 42.81783 102.2422 36.65916 106.2608 38.18481 C 109.7436 39.50704 107.1011 46.20739 102.8515 44.48571 Z M 266.4578 165.8037 C 265.933 165.6508 263.0132 163.195 266.835 161.2643 C 271.9591 158.6756 275.1826 154.7324 275.1826 151.9868 C 275.1826 150.4912 273.7192 146.2639 266.8561 142.7136 C 263.5094 140.9823 265.369 138.9112 265.9857 138.4196 C 268.693 136.2614 279.7956 144.7036 279.9702 151.6259 C 280.0104 153.2194 279.9633 156.7126 274.6368 161.6853 C 270.4866 165.5597 267.5128 166.111 266.4578 165.8037 Z M 237.319 242.8159 C 231.3791 240.6924 235.686 232.1031 240.8299 234.2292 C 246.6596 236.6389 242.0361 244.5021 237.319 242.8159 Z M 198.3827 265.6288 C 194.6412 263.1395 199.3792 257.1158 202.8746 259.9403 C 206.1444 262.5825 201.4 267.6362 198.3827 265.6288 Z M 189.0341 215.0255 C 181.8228 212.2525 186.0894 203.3292 191.3163 204.5403 C 199.4702 206.4295 195.8448 217.6444 189.0341 215.0255 Z M 136.0456 44.54092 C 136.2115 44.61929 140.1057 46.47158 140.1887 46.51066 C 144.7276 48.6477 149.9094 50.40443 147.1929 53.14543 C 145.5398 54.81338 144.1989 53.74621 135.944 49.77959 C 133.3809 48.548 131.0494 47.71458 130.7799 46.38157 C 130.4115 44.55904 131.7775 43.71487 132.1282 43.59128 C 132.5084 43.45731 133.4943 43.3359 136.0456 44.54092 Z M 255.3432 117.1385 C 255.287 117.0829 252.6033 114.4067 252.5475 114.3508 C 251.9329 113.7343 249.8174 111.5969 249.7619 111.5405 C 249.2217 110.9917 247.364 109.0877 247.3153 109.0374 C 245.0914 106.7434 243.2889 105.2726 245.2047 103.51 C 247.1167 101.7508 249.041 104.1265 250.8871 105.9547 C 250.9366 106.0037 253.2565 108.3182 253.3549 108.417 C 253.4104 108.4727 256.0098 111.0999 256.1201 111.212 C 256.175 111.2678 258.8031 113.9534 258.8577 114.0095 C 258.9056 114.0587 260.9106 116.1323 261.2432 116.4794 C 262.9072 118.216 265.4566 120.2338 262.7776 121.9965 C 260.7494 123.331 258.6101 120.3441 257.8199 119.5736 C 257.7701 119.5252 255.3925 117.1874 255.3432 117.1385 Z M 172.6912 207.5284 C 170.652 206.7975 170.5759 204.947 170.6974 203.8707 C 170.8409 202.6003 172.5834 200.5565 174.7738 201.1208 C 177.1122 201.7232 177.9916 204.0765 177.1832 205.7846 C 176.3999 207.4397 174.5056 208.1787 172.6912 207.5284 Z M 265.2866 156.1364 C 259.294 154.6206 262.8449 145.0371 268.27 148.3342 C 272.553 150.937 269.4977 157.2015 265.2866 156.1364 Z M 150.9364 42.11109 C 146.1205 40.42271 148.484 32.9827 153.5804 34.31615 C 158.9953 35.73295 156.6845 44.12626 150.9364 42.11109 Z M 123.2203 63.19865 C 120.7219 61.91929 122.8941 58.04221 125.3044 59.77287 C 127.3239 61.22289 125.3618 64.29524 123.2203 63.19865 Z M 243.3726 138.0022 C 238.5754 136.5522 241.1085 130.5947 244.8105 130.9886 C 249.6516 131.5037 248.0328 139.4107 243.3726 138.0022 Z M 157.6035 204.1414 C 153.4601 202.0043 155.8361 196.8829 159.8457 197.87 C 164.5021 199.0162 162.5757 206.7061 157.6035 204.1414 Z M 133.8409 247.172 C 128.966 245.3269 132.3654 239.3963 136.3024 240.3638 C 140.5206 241.4004 138.3096 248.8634 133.8409 247.172 Z M 200.1718 148.7153 C 197.9603 147.7278 197.9849 144.8653 198.7946 143.6333 C 199.5442 142.4928 201.3391 141.3515 203.481 142.2928 C 206.7882 143.7462 204.394 150.6006 200.1718 148.7153 Z M 62.19619 147.8711 C 60.18279 145.8428 63.27925 142.6459 65.33534 144.4957 C 67.66557 146.5921 64.46938 150.1611 62.19619 147.8711 Z M 62.59238 159.5659 C 59.7658 157.421 63.0359 154.1941 65.05827 155.7432 C 67.65846 157.7349 64.91165 161.3259 62.59238 159.5659 Z M 47.68138 162.8391 C 49.27292 159.4359 51.1741 154.4156 53.85699 157.4942 C 55.45552 159.3286 53.16867 161.5466 50.90958 167.1943 C 47.98538 174.5049 46.6404 174.0268 45.67821 173.7361 C 42.45972 172.7636 44.86415 168.8638 45.19644 168.1531 L 47.68138 162.8391 Z M 32.38646 129.2844 C 27.76924 128.214 29.89867 120.9808 34.43062 121.654 C 40.05647 122.4897 37.15759 130.3904 32.38646 129.2844 Z M 215.5827 255.485 C 211.9156 253.9105 213.3612 247.0978 218.387 248.0122 C 220.5318 248.4024 221.4771 250.7447 220.9016 252.8473 C 220.3374 254.9088 217.5467 256.3283 215.5827 255.485 Z M 63.3221 117.1015 C 59.2231 115.0767 62.10301 109.3874 65.7284 110.8236 C 69.85384 112.4579 67.78276 119.305 63.3221 117.1015 Z M 82.55967 238.9965 C 79.77969 238.5396 76.10471 238.4165 76.80533 235.5494 C 77.40445 233.0977 80.06609 233.8581 82.67737 234.273 C 82.82324 234.2962 85.886 234.7871 86.3233 234.8586 C 86.46034 234.881 89.67917 235.4172 89.74761 235.4289 C 90.65218 235.5829 96.6809 235.819 95.0654 239.2599 C 94.12315 241.2669 92.80263 240.6799 87.69769 239.841 L 82.55967 238.9965 Z M 179.8359 145.1702 C 174.2691 143.5723 177.9537 134.5881 182.9158 137.2294 C 187.7276 139.7906 184.0929 146.3922 179.8359 145.1702 Z" fill="#000000" fill-opacity="1" stroke="none" stroke-opacity="1" stroke-width="0.1" stroke-linecap="round" stroke-linejoin="round"/>
</svg>