<?xml version="1.0" encoding="utf-8"?>
<!-- Generator: Adobe Illustrator 19.0.0, SVG Export Plug-In . SVG Version: 6.00 Build 0)  -->
<svg version="1.1" id="Layer_1" xmlns="http://www.w3.org/2000/svg" xmlns:xlink="http://www.w3.org/1999/xlink" x="0px" y="0px"
	 viewBox="0 0 595 841" style="enable-background:new 0 0 595.3 841.9;" xml:space="preserve">
<style type="text/css">
	.st0{fill:#BB2025;}
</style>
<g id="XMLID_40_">
	<path id="XMLID_1017_" class="st0" fill="#BB2025" d="M400.9,417.4c-0.2-0.3-0.1-0.8-0.4-1.3c-0.6-0.9-0.6-2.2-1.3-1.5c-0.2,0.2-0.8,1.5-1,1.9
		c-0.9-1.4-1-1.8,0.1-3.7c0.7-1.1,0.8-2.4,0.2-3.4c-0.2-0.4-0.8-0.2-0.9,0.2c-0.1,0.6-0.2,1.5-0.4,2.2c-0.1,0.3-0.5,0.3-0.5,0
		c-0.4-2.3-0.8-3.7-1.1-4.4c-0.2-0.4-0.7-0.2-0.6,0.2c0.2,1.1,0.3,2.3,0.5,3.5c-0.3-0.3-0.6-0.6-1-0.9c-0.3-0.2-0.7,0.1-0.6,0.5
		c0.9,2,1.9,4,2.8,6.2c0.1,0.3-0.2,0.5-0.4,0.4c-1.3-0.7-2.3-1.5-2.8-2.8c-0.6-1.4-1.4-2.8-2.2-4.2c-0.1-0.2-0.3-0.3-0.6-0.5
		c-0.3-0.2-0.7,0.1-0.5,0.5c0.4,1,0.9,2,1.4,3c0.2,0.4-0.2,0.8-0.6,0.6c-0.7-0.3-1.9-0.7-2.7-1c-0.4-0.1-0.8,0.4-0.4,0.7
		c0.6,0.6,1.5,0.9,2.3,1.4c0.6,0.4,1.2,0.7,1.8,1.1c0.4,0.2,0.2,0.8-0.3,0.7l-2.3-0.3c-0.4,0-0.6,0.6-0.2,0.7c0.9,0.4,2,0.4,3,0.6
		c1.4,0.3,2.8,0.5,4.6,0.8l-0.3,0.3c-0.2,0.2-0.5,0.4-0.8,0.6c-0.8,0.6-2.2,0.7-1.5,1.3c0.6,0.5,1.6,1,2.7,1c0,0,0,0,0.1,0
		c0,0,0,0,0,0c2.1,1.2,1.9,5-0.1,6.4c-0.8,0.5-1.6,1-2.4,1.3c-0.4,0.1-0.8,0.2-1.3,0.2c-1.5,0.2-3,0.4-4.5,0.6
		c-1.6,0-3.3-0.1-4.9-0.1c-1.6,0-3.2-0.1-5-0.1c-0.7,0-1.4-0.5-1.5-1.2c-0.1-0.6-0.3-1.2-0.4-1.8c-1,0.2-1.7,2.1-1.7,4
		c-5.5,0-11-0.4-16.4-1.2c0.1-0.7,0.3-1.9,0.3-2.1l0.2-1.7c0.2-1.4,0.3-2.9,0.3-4.3c0-1.2,0.3-1.7,1.3-1.9c1.1-0.2,2.3-0.6,3.3-1
		c0.5-0.2,0.9-0.9,0.9-1.4c0-0.3-0.8-0.9-1.3-0.9c-1.6,0.1-2.8-0.9-4.1-1.8c-0.6-0.4-1.6-0.4-2.2-0.7c-0.2-0.3-0.1-0.8-0.5-1.2
		c-0.7-0.8-0.8-2.1-1.4-1.4c-0.2,0.3-0.7,1.5-0.9,1.9c-1-1.4-1.2-1.7-0.1-3.7c0.6-1.2,0.6-2.4,0-3.4c-0.2-0.4-0.8-0.2-0.8,0.3
		c0,0.6-0.1,1.6-0.3,2.2c-0.1,0.3-0.5,0.3-0.5,0c-0.6-2.3-1.1-3.6-1.4-4.3c-0.2-0.3-0.7-0.2-0.6,0.2c0.3,1.1,0.5,2.3,0.8,3.5
		c-0.3-0.3-0.7-0.6-1.1-0.8c-0.3-0.2-0.7,0.2-0.5,0.5c1.1,1.9,2.1,3.9,3.3,6c0.1,0.2-0.1,0.5-0.4,0.4c-1.3-0.6-2.4-1.4-3-2.6
		c-0.7-1.4-1.6-2.7-2.5-4c-0.1-0.2-0.3-0.3-0.6-0.4c-0.3-0.2-0.7,0.2-0.5,0.5c0.5,0.9,1,1.9,1.6,2.9c0.2,0.4-0.2,0.8-0.5,0.6
		c-0.8-0.3-2-0.6-2.8-0.8c-0.4-0.1-0.7,0.5-0.4,0.7c0.7,0.6,1.6,0.8,2.4,1.2c0.6,0.3,1.3,0.6,1.9,0.9c0.4,0.2,0.2,0.8-0.2,0.8
		L346,414c-0.4,0-0.6,0.6-0.1,0.8c1,0.4,2,0.2,3,0.4c1.4,0.2,2.9,0.3,4.6,0.5l-0.3,0.3c-0.2,0.2-0.5,0.4-0.7,0.6
		c-0.8,0.7-2.1,0.9-1.4,1.4c0.6,0.5,1.7,0.9,2.7,0.8c0,0,0,0,0.1,0c0,0,0,0,0,0c2.2,1.1,2.2,4.9,0.3,6.4c-1.8,1.4-3.8,2.3-5.9,2.5
		c-2.3,0.3-4.7,0.3-7.1,0.4c-1.6,0.1-3.2,0.2-5,0.2c-0.7,0-1.4-0.4-1.6-1.1c-0.2-0.6-0.3-1.2-0.5-1.8c-0.8,0.2-1.4,1.7-1.5,3.4
		c-4.7-0.9-9.3-2.1-13.9-3.4c0.3-1.4,0.4-2.7,0.5-4.1c0-1.2,0.4-1.7,1.4-1.9c1.1-0.2,2.3-0.4,3.3-0.9c0.5-0.2,0.9-0.9,1-1.4
		c0-0.3-0.8-1-1.2-1c-1.6,0-2.8-1.1-4-2c-0.6-0.5-1.5-0.4-2.2-0.9c-0.2-0.3-0.1-0.8-0.4-1.3c-0.6-0.8-0.7-2.2-1.3-1.5
		c-0.2,0.3-0.8,1.5-1,1.9c-0.9-1.4-1.1-1.8,0.1-3.7c0.7-1.2,0.8-2.4,0.2-3.4c-0.2-0.4-0.8-0.2-0.9,0.2c0,0.6-0.2,1.5-0.4,2.2
		c-0.1,0.3-0.5,0.3-0.5,0c-0.5-2.3-0.9-3.7-1.2-4.4c-0.2-0.4-0.7-0.2-0.6,0.2c0.2,1.1,0.4,2.3,0.6,3.5c-0.3-0.3-0.6-0.6-1-0.9
		c-0.3-0.2-0.7,0.1-0.5,0.5c1,2,1.9,4,3,6.1c0.1,0.3-0.1,0.5-0.4,0.4c-1.3-0.7-2.3-1.5-2.9-2.8c-0.7-1.4-1.5-2.8-2.3-4.1
		c-0.1-0.2-0.3-0.3-0.6-0.5c-0.3-0.2-0.7,0.2-0.5,0.5c0.5,1,0.9,1.9,1.4,3c0.2,0.4-0.2,0.8-0.6,0.6c-0.8-0.3-1.9-0.7-2.8-0.9
		c-0.4-0.1-0.7,0.4-0.4,0.7c0.7,0.6,1.6,0.9,2.3,1.3c0.6,0.4,1.2,0.7,1.9,1c0.4,0.2,0.2,0.8-0.2,0.8l-2.3-0.2
		c-0.4,0-0.6,0.6-0.2,0.8c0.9,0.4,2,0.3,3,0.5c1.4,0.3,2.9,0.4,4.6,0.7l-0.3,0.3c-0.2,0.2-0.5,0.4-0.8,0.6c-0.8,0.7-2.1,0.8-1.4,1.4
		c0.6,0.5,1.7,1,2.7,1c0,0,0,0,0.1,0c0,0,0,0,0,0c2.2,1.2,2,5,0,6.4c-1.8,1.3-3.9,2.1-6.1,2.2c-2.3,0.2-4.7,0-7.1,0
		c-1.6,0-3.2,0-5,0c-0.7,0-1.4-0.5-1.5-1.2c-0.1-0.6-0.3-1.2-0.4-1.8c-1.1,0.3-1.8,2.5-1.7,4.6c-6.2,1.3-12.6,1.5-18.8,0.4
		c0-1.1,0-2.1-0.1-3.2c-0.1-1.2,0.2-1.7,1.2-2c1.1-0.3,2.2-0.7,3.2-1.3c0.4-0.2,0.8-1,0.8-1.5c0-0.3-0.9-0.9-1.3-0.8
		c-1.6,0.2-2.9-0.7-4.2-1.5c-0.7-0.4-1.6-0.2-2.3-0.6c-0.2-0.2-0.2-0.8-0.6-1.2c-0.7-0.8-1-2.1-1.5-1.3c-0.2,0.3-0.6,1.6-0.7,2
		c-1.1-1.3-1.3-1.6-0.4-3.6c0.5-1.2,0.4-2.5-0.3-3.4c-0.3-0.4-0.8-0.1-0.8,0.3c0,0.6,0,1.6-0.1,2.2c0,0.3-0.4,0.3-0.5,0
		c-0.8-2.2-1.4-3.5-1.8-4.2c-0.2-0.3-0.7-0.1-0.6,0.3c0.3,1.1,0.7,2.2,1.1,3.4c-0.3-0.2-0.7-0.5-1.1-0.7c-0.3-0.2-0.7,0.2-0.5,0.5
		c1.2,1.8,2.5,3.7,3.8,5.7c0.2,0.2-0.1,0.5-0.3,0.4c-1.4-0.5-2.5-1.2-3.2-2.4c-0.9-1.3-1.8-2.6-2.8-3.8c-0.1-0.1-0.4-0.3-0.6-0.4
		c-0.3-0.1-0.7,0.2-0.5,0.6c0.6,0.9,1.2,1.8,1.8,2.8c0.2,0.3-0.1,0.8-0.5,0.7c-0.8-0.2-2-0.4-2.9-0.6c-0.4-0.1-0.7,0.5-0.3,0.8
		c0.7,0.5,1.7,0.7,2.5,1c0.6,0.3,1.3,0.5,2,0.8c0.4,0.2,0.3,0.8-0.1,0.8l-2.3,0.1c-0.4,0-0.5,0.6-0.1,0.8c1,0.3,2,0.1,3,0.1
		c1.4,0.1,2.9,0.1,4.7,0.1l-0.2,0.4c-0.2,0.2-0.4,0.4-0.7,0.7c-0.7,0.8-2,1-1.2,1.6c0.7,0.4,1.8,0.8,2.8,0.6c0,0,0,0,0.1,0
		c0,0,0,0,0,0c2.3,0.9,2.6,4.7,0.9,6.4c-1.6,1.6-3.6,2.6-5.7,3c-2.3,0.5-4.7,0.7-7,1c-1.6,0.2-3.2,0.4-4.9,0.7
		c-0.7,0.1-1.4-0.3-1.7-1c-0.2-0.6-0.4-1.1-0.7-1.7c-1,0.4-1.4,2.4-1.1,4.4c-7.6,1.8-17.5,2.7-24.4,2.1c0-0.2,0-0.4-0.1-0.5
		c-0.6-0.8-1.9,1.9-1.9,1.9s0-0.8-0.2-0.9c-0.2-0.2-0.3,0.9-1.1,1.8c-0.8,0.9-3.6,2-3.6,2s-0.2-0.3-0.4-1.4
		c-0.2-1.1-1.2-1.5-1.2-1.5s0,0-0.1-0.7c-0.1-0.7-0.7-0.9-0.7-0.9s0.8-0.4,0.7-1.1c-0.1-0.7-1.1-0.6-1.1-0.6s-0.6-0.8-2.4-1.4
		c-1.8-0.6-3.3,0.7-3.8,1.5c-0.5,0.8-1.1,4.3-1.1,5.4c0,0.5-0.1,0.9-0.1,1.3c0,0-0.1,0-0.1,0c-0.6,0-1.2,0.5-1.2,1.2
		s0.5,1.2,1.2,1.2s1.2-0.5,1.2-1.2c0-0.5-0.3-0.9-0.8-1.1c0.4-0.7,1-1.7,1.2-2.8c0.3-1.6,0.6-0.4,0.6-0.4l0.7,1.4l0.1,0.7
		c0,0-0.1,0.7-0.3,1c-0.1,0.3-0.7,1.6-0.7,1.6l-0.5,2.5c0-0.1-0.3-0.2-2.1-0.9c-2.4-0.9-8.8-1.2-8.6,4.2s6.5,4,6.3,2.6
		c-0.3-1.4-1.5-0.9-1.5-0.9s-2.3,0.4-2.1-1.1c0.2-1.5,2.2-1.8,4.3-0.9c2.1,0.9,4.3,8.3,5.4,9c0.2,0.1,0.8-0.3,1.1,0.1
		c0.7,0.7-0.4,1.9-0.7,2.8c-1.2,0.2-2.4,0.4-3.4,0.1c-0.8-0.2-1.8-0.8-1.7-1.9c0-0.4,0.3-0.7,0.4-0.8c0.3-0.1,0.5-0.1,0.7,0
		c0.1,0,0.3,0.3,0.3,0.4c-0.1,0.5,0.2,1.1,0.7,1.3c0.6,0.2,1.2-0.1,1.3-0.7c0.2-0.8-0.2-1.6-0.3-1.9c-0.3-0.6-0.8-0.9-1.3-1.1
		c-0.6-0.1-1.1-0.2-1.7-0.1c-1,0.2-1.8,1.2-2.2,1.7c-0.3,0.5-0.3,1-0.2,1.6c0.3,1.8,2,3,3.5,3.4c0.5,0.1,1.1,0.2,1.6,0.2
		c0.9,0,1.8-0.1,2.7-0.3l9.6-1.6c5.1-0.8,10.3-1.7,15.2-3.5c0.6-0.2,1.1-0.4,1.6-0.8c0.6-0.4,0.9-1,1.3-1.5c0.8-1.3,1.8-3.2,1.9-5.2
		c0-1.1-0.4-2.4-1.1-3.4c2.9-1.2,5.8-2.3,8.6-3.2c0,0.1-0.1,0.3-0.1,0.4c-0.1,0.4-0.4,0.9-0.7,1.2c-0.4,0.3-0.7,0.5-0.8,0.7
		l-1.1-0.1c0,0,0,1.5,0.3,2.1c0.3,0.6,0.5,1.1,0.5,1.1s0.8-0.5,1-1c0,0,0-0.1,0-0.1c0.8-0.7,1.5-1.3,2-2.2c0.5-0.8,0.7-1.9,0.9-2.9
		c0.3-0.1,0.6-0.2,0.9-0.3c-0.1,1.3-0.3,3-0.4,4c0,0.4-0.1,0.8-0.4,1.1c-0.3,0.4-0.6,0.8-0.7,1.1l-1.1,0.2c0,0,0.3,1.5,0.7,1.9
		c0.4,0.5,0.7,0.9,0.7,0.9s0.7-0.7,0.7-1.1c0,0,0-0.1,0-0.1c1.1-1.4,1.9-2.9,1.5-4.9c-0.3-1.5,0.4-2.5,1.8-3
		c0.4-0.2,0.8-0.3,1.1-0.6c2-1.8,4.9-1,7.4-1.2c2.7-0.2,4.9-1.9,7.5-2.6c1.8-0.5,3.4-0.3,4.7,0.7c1.2,0.9,2.3,2,3.2,3.2
		c0.1,0.2,0.3,0.3,0.4,0.4l-0.5,1c0,0,1.4,0.5,2,0.4c0.6-0.1,1.2-0.1,1.2-0.1s-0.2-0.8-0.5-1.1c0,0,0,0,0,0
		c-1.4-3.4-4.5-4.7-7.3-6.3v0c0-0.2,0.2-0.4,0.4-0.5c0.3-0.1,0.7-0.3,1-0.2c2.6,0.5,5.1,1,7.2,2.9c0.1,0.1,0.2,0.1,0.3,0.2
		c0,0,0,0,0,0l-0.3,1.1c0,0,1.5,0.3,2.1,0.1c0.6-0.2,1.1-0.3,1.1-0.3s-0.3-0.8-0.6-1c0,0,0,0,0,0c-1.9-2.8-4.8-3.3-7.7-4.1
		c5.3-1,10.9-1,16.1-1c-0.5,0.8-0.8,1.7-1.1,2.5c-0.2,0.4-0.5,0.9-0.9,1.1c-0.4,0.2-0.7,0.4-0.9,0.6l-1-0.2c0,0-0.2,1.5,0,2.1
		c0.2,0.6,0.4,1.1,0.4,1.1s0.9-0.4,1.1-0.8c0,0,0-0.1,0-0.1c0.8-0.6,1.7-1.1,2.3-1.9c0.7-0.9,1-2.2,1.5-3.3c0.4-0.6,0.7-0.9,0.9-0.9
		c-0.2,1.4-0.9,3.8-1.1,5.2c-0.1,0.4-0.2,0.8-0.5,1c-0.4,0.4-0.7,0.7-0.8,1l-1.1,0c0,0,0.1,1.5,0.5,2c0.4,0.5,0.6,1,0.6,1
		s0.8-0.6,0.9-1c0,0,0-0.1,0-0.1c1.2-1.3,2.3-2.6,2.2-4.6c-0.1-1.5,0.8-2.4,2.2-2.8c0.4-0.1,0.8-0.2,1.2-0.5
		c2.2-1.5,4.9-0.3,7.5-0.2c2.7,0.1,5.1-1.2,7.8-1.6c1.9-0.3,3.4,0.1,4.6,1.3c0.1,0.1,0.3,0.3,0.4,0.4c-0.8,0.1-1.7,0.1-1.7,0.1
		c-0.1,0-0.2,0.1-0.2,0.2c0,0,0,0,0,0l-0.9-0.6c0,0-0.8,1.1-0.8,1.6c0,0.6-0.1,1-0.1,1s0.8,0,1.2-0.2c0,0,0,0,0,0c0,0,0.6,0.1,3.6-1
		c0.5,0.6,0.9,1.3,1.3,2c0.1,0.2,0.2,0.4,0.4,0.5l-0.6,0.9c0,0,1.3,0.7,2,0.7c0.6,0,1.2,0,1.2,0s-0.1-0.8-0.3-1.2c0,0,0,0,0,0
		c-0.4-1.6-1.2-2.8-2.2-3.8c1.4-1,0.1-2-0.3-3.1c-0.5-1.4-2.1-2.6-2.1-2.6c0,0,0,0,0-0.1c2.8,0.4,5.6,0.8,8.3,1.1
		c2.3,0.3,4.7,0.5,7.1,0.8c0.2,0.4,0.5,0.8,0.8,1.1c0,0.5-0.1,0.9-0.3,1c-1.9,0.9-2.2,2.6-2.7,4.3c-0.1,0.4-0.5,0.9-0.8,1.1
		c-0.4,0.2-0.7,0.4-0.9,0.6l-1.1-0.2c0,0-0.1,1.5,0.1,2.1c0.3,0.6,0.4,1.1,0.4,1.1s0.9-0.5,1-0.9c0,0,0-0.1,0-0.1
		c0.8-0.6,1.6-1.2,2.2-2c0.7-1,0.9-2.2,1.3-3.3c0.3-0.6,0.7-1,0.9-0.9c-0.1,1.4-0.7,3.8-0.9,5.3c0,0.4-0.2,0.8-0.4,1.1
		c-0.4,0.4-0.6,0.7-0.8,1l-1.1,0.1c0,0,0.2,1.5,0.6,2c0.4,0.5,0.6,1,0.6,1s0.8-0.6,0.8-1.1c0,0,0-0.1,0-0.1c1.2-1.3,2.2-2.7,1.9-4.7
		c-0.2-1.5,0.6-2.4,2.1-2.9c0.4-0.1,0.8-0.3,1.1-0.5c2.2-1.6,4.9-0.6,7.5-0.6c2.7,0,5.1-1.5,7.7-2c1.8-0.4,3.4-0.1,4.7,1.1
		c1.1,1,2.1,2.2,2.9,3.5c0.1,0.2,0.3,0.4,0.4,0.5l-0.5,1c0,0,1.3,0.6,2,0.6c0.6,0,1.2,0,1.2,0s-0.1-0.8-0.4-1.2c0,0,0,0,0,0
		c-1-3.1-3.5-4.7-5.9-6.3c1.8,0.2,3.5,0.4,5.2,0.6l0.1,0c0.8,0.4,1.5,0.9,2.2,1.6c0.1,0.1,0.2,0.1,0.2,0.2c0,0,0,0,0,0l-0.4,1.1
		c0,0,1.4,0.4,2.1,0.3s1.1-0.2,1.1-0.2s-0.2-0.8-0.5-1.1c0,0,0,0,0,0c-0.3-0.6-0.7-1-1.1-1.4l9.2,1.2c0,0,0,0,0,0
		c-2,0.7-2.4,2.5-3.1,4.1c-0.2,0.4-0.5,0.9-0.9,1.1c-0.4,0.2-0.7,0.4-0.9,0.6l-1-0.2c0,0-0.2,1.5,0,2.1c0.2,0.6,0.3,1.1,0.3,1.1
		s0.9-0.4,1.1-0.8c0,0,0-0.1,0-0.1c0.9-0.6,1.7-1.1,2.3-1.8c0.7-0.9,1.1-2.1,1.6-3.2c0.4-0.6,0.7-0.9,0.9-0.9
		c-0.2,1.4-1,3.8-1.3,5.2c-0.1,0.4-0.3,0.8-0.5,1c-0.4,0.4-0.7,0.7-0.8,1l-1.1,0c0,0,0.1,1.5,0.4,2c0.3,0.5,0.6,1,0.6,1
		s0.8-0.6,0.9-1c0,0,0-0.1,0-0.1c1.3-1.3,2.4-2.6,2.3-4.6c-0.1-1.5,0.8-2.4,2.3-2.7c0.4-0.1,0.8-0.2,1.2-0.4
		c2.3-1.5,4.9-0.2,7.5-0.1c2.7,0.2,5.2-1.1,7.8-1.4c1.9-0.2,3.4,0.2,4.6,1.4c0.1,0.1,0.3,0.3,0.4,0.4c-0.8,0.1-1.7,0.1-1.7,0.1
		c-0.1,0-0.2,0.1-0.2,0.2c0,0,0,0,0,0l-0.9-0.6c0,0-0.8,1.1-0.8,1.6c0,0.6-0.1,1-0.1,1s0.8,0,1.2-0.2c0,0,0,0,0,0
		c0,0,0.6,0.1,3.6-0.9c0.5,0.7,0.9,1.3,1.3,2c0.1,0.2,0.2,0.4,0.4,0.5l-0.6,0.9c0,0,1.3,0.7,1.9,0.8c0.6,0,1.2,0.1,1.2,0.1
		s0-0.8-0.3-1.2c0,0,0,0,0,0c-0.4-1.6-1.2-2.8-2.1-3.9c1.4-1,0.2-2-0.2-3.1c-0.5-1.4-2.1-2.6-2.1-2.6c0-0.2,0-0.4,0.1-0.5
		c0.1-0.3,0.6-2.3,0.6-2.5l0.3-1.7c0.3-1.4,0.5-2.9,0.6-4.3c0-1.2,0.4-1.7,1.5-1.8c1.1-0.2,2.3-0.4,3.4-0.8c0.5-0.2,1-0.9,1-1.3
		c0-0.3-0.8-1-1.2-1c-1.6,0-2.7-1.1-3.9-2.1C402.5,417.9,401.6,417.9,400.9,417.4z M218.8,460l-7,1.1c0.2-0.9,0.5-1.7,0.7-2.6
		c0-0.1,0-0.2,0.1-0.3c3.2-0.8,8.1-2.2,13.5-3.2c0.8-0.2,1.5-0.3,2.2-0.5c0.5,1.1,1.3,2.1,2.2,3C226.6,458.7,222.6,459.4,218.8,460z
		 M235.4,455.1c-0.2,0.4-0.5,0.7-0.8,1c-0.3,0.2-0.6,0.3-1,0.5c0,0,0,0-0.1,0c-0.1-0.1-0.2-0.3-0.3-0.4c-0.9-0.7-1.5-1.6-2-2.6
		c3.1-1.4,2.6-3,2.1-3.9c0.9-0.4,1.8-0.8,2.6-1.1c0.7,0.6,1,1.6,1,2.5C236.9,452.5,236.1,454,235.4,455.1z M248.8,440.4
		c-1,0.6-1.5,1.4-1.8,2.4c-3.4,1.1-6.8,2.4-10.2,3.9c-0.3-0.2-0.6-0.4-1-0.5c-0.6-0.2-1.2,0.2-1.3,0.7c-0.1,0.3,0,0.5,0.1,0.8
		c-0.7,0.3-1.4,0.6-2.1,0.9c-0.5-0.8-0.9-1.9-0.4-3.8c0.8-3-1.5-4.7-2.5-5c-1-0.3-3.2,0-3.2,1c0,0.6,1.1,1,1.7,0.3
		c0.6-0.7,1.6-0.5,2.3,0.8c0.6,1.3-1.6,3.3-2.3,5.1c-0.8,1.8-3.3,5.4-5.3,2.1c-1.6-2.6-4.4-2.5-5.4-2.3c3.7-0.8,9-4.3,8.3-4.9
		c-0.8-0.6-2.5,0.9-2.5,0.9s0.3-0.3,0-0.8c-0.3-0.6-1.1,0.8-1.1,0.8c-1.8,1.1-3.1,0.9-3.1,0.9c1.6-0.9,3-2.7,3.6-4.2
		c1.6,0.2,3.4,0.2,5.3,0.2c6.4,0,13.9-0.9,19.9-2.3c0.3,0.9,0.7,1.6,1.4,2.2C249.1,439.9,249,440.3,248.8,440.4z M293.1,432.9
		c-0.1,0-0.2,0.1-0.3,0.2c-6.3-0.1-13.1-0.1-19.7,1.4c0,0,0,0,0-0.1c0.1-0.3,0.2-2.3,0.2-2.6l0-1.5c2.8,0.5,5.6,0.8,8.4,0.8
		c3.6,0,7.2-0.4,10.7-1.1c0.2,0.8,0.5,1.4,1,2C293.4,432.4,293.3,432.8,293.1,432.9z M318.1,433c0.4,0.8,0.7,1.4,0.9,1.9
		c-0.9-0.7-1.8-1.4-2.7-2.1l0,0c0-0.2,0.2-0.4,0.4-0.5c0,0,0,0,0,0C317.2,432.2,317.8,432.5,318.1,433z M326.4,430.2
		c-2.7-0.3-5.5-0.6-8.2-1c0.1-0.7,0.3-1.5,0.3-1.6l0.1-0.5c4.6,1.3,9.4,2.5,14.1,3.4c0,0.2,0.1,0.3,0.1,0.5
		C330.7,430.6,328.6,430.4,326.4,430.2z M364.3,433.3c-1.3-0.7-2.7-1.1-4.1-1.6c5,0.7,10,1,15,1c0.1,0.8,0.3,1.5,0.7,2L364.3,433.3z
		 M400.8,436.9c0.4,0.8,0.7,1.5,0.8,1.9c-0.9-0.7-1.8-1.4-2.6-2.2l0,0c0-0.2,0.2-0.4,0.4-0.5c0,0,0,0,0,0
		C400,436.1,400.6,436.4,400.8,436.9z"/>
	<path id="XMLID_1025_" class="st0" fill="#BB2025" d="M231.4,387.2c1.6,0,3-0.4,3.9-1.1c1-0.7,1.7-1.6,2.1-2.7c0.4-1.1,0.5-2.2,0.3-3.3
		c-0.2-1.1-0.6-2-1.4-2.8c-0.7-0.8-1.7-1.2-3-1.2c-0.7,0-1.3,0.2-1.5,0.8c-0.3,0.6-0.3,1.1-0.1,1.7s0.7,0.9,1.5,0.9
		c0.6,0,1,0.2,1.2,0.6c0.3,0.4,0.4,0.9,0.3,1.4c-0.1,0.5-0.3,1-0.8,1.5c-0.5,0.4-1.1,0.7-2,0.7c-1.2,0.1-2.1-0.3-2.7-1.1
		c-0.7-0.8-1-1.8-1.1-2.9c0-1.3,0.3-2.4,1-3.3c0.7-0.9,1.5-1.5,2.6-2c1.1-0.4,2.3-0.7,3.6-0.9c1.3-0.1,2.6-0.2,3.9-0.2
		c0.1,3.2,0.1,6.4,0.1,9.7c0,3.2-0.1,6.4-0.3,9.7c-0.1,1.8-0.2,3.7-0.4,5.7c-3.3,1-5.8,2.9-7.5,5.9c-1.1,2-1.7,4.1-1.7,6.3
		c0,2.2,0.6,4.3,1.7,6.2c0.5,0.8,1.2,1.7,2.3,2.7c1,1,2.5,1.9,4.3,2.6c1.8,0.7,4.1,1.1,6.9,1.1c0.3,0,0.5,0,0.7,0
		c5.1-0.1,9.2-1.4,12.4-3.7c0-0.2-0.1-0.3,0-0.5c0.1-0.5,0.4-1,0.9-1.2c-0.1,0-0.2-0.1-0.3-0.1c-0.6-0.2-1.3-0.4-1.8-0.8
		c-0.2-0.2-0.4-0.4-0.5-0.7c-0.3,0.2-0.5,0.4-0.8,0.6c-1.4,0.9-3,1.6-4.7,2c-1.7,0.4-3.4,0.7-5.2,0.7c-2.6,0.1-4.9-0.3-6.8-1.1
		c-1.9-0.8-3.3-2-4.3-3.6c-0.8-1.3-1.2-2.8-1.2-4.3c0-1.6,0.4-3.1,1.2-4.5c0.9-1.6,2.2-2.9,3.9-3.7c-0.4,4.1-0.8,8.3-1.4,12.5
		c0.8,0,1.5,0,2.3,0c0.7,0,1.5,0,2.3,0c0.7,0,1.5,0,2.3,0c0.8,0,1.5,0,2.3,0c-0.6-4.5-1-8.9-1.5-13.4c2.6,0.4,4.4,1.6,5.5,3.6
		c0.7,1.3,1,2.6,0.9,3.9c-0.1,1.3-0.3,2.1-0.6,2.6c-0.3,0.4-0.4,0.9-0.3,1.3c0.1,0.5,0.3,0.9,0.8,1.2c0.4,0.3,0.9,0.4,1.4,0.3
		c0.5-0.1,0.9-0.3,1.2-0.8c0.5-0.7,0.8-1.6,1.1-2.8c0.2-1.1,0.3-2.4,0.1-3.7c-0.1-1.3-0.5-2.6-1.2-3.8c-0.3-0.6-0.9-1.4-1.6-2.2
		c-0.7-0.8-1.7-1.6-2.9-2.2c-1.2-0.7-2.7-1.1-4.6-1.3c-0.1-0.9-0.1-1.7-0.2-2.6c-0.1-0.9-0.1-1.7-0.1-2.6c-0.1-3.1-0.2-6.1-0.3-9.2
		c0-3.1,0-6.1,0.1-9.2c0.1,0,0.3,0,0.4-0.1c2.8-1,5.3-1.3,7.6-1c2.3,0.3,4.2,1.3,5.6,2.8c1.3,1.4,2.2,3.2,2.5,5.2
		c0.4,2.1,0.1,4-0.6,5.8c-0.2,0.5-0.6,1-1.1,1.7c-0.5,0.6-1.2,1.2-2,1.7c-0.9,0.5-2,0.7-3.3,0.7c-2.2,0-3.6-0.7-4.4-2
		c-0.5-1-0.5-2.1,0.2-3.1c0.8-1.2,2.1-1.7,4-1.6c0.5,0,1-0.1,1.3-0.4c0.4-0.3,0.6-0.8,0.6-1.3c0-0.5-0.1-0.9-0.4-1.3
		c-0.3-0.4-0.7-0.6-1.2-0.6c-1.6-0.1-3.1,0.1-4.3,0.7c-1.3,0.6-2.3,1.4-3.1,2.6c-0.6,1-1,2.1-1,3.4c-0.1,1.2,0.2,2.4,0.8,3.4
		c1,1.9,2.7,3.1,5.2,3.6h0.1c2.4,0.5,4.3,1.5,5.8,2.9c1.5,1.5,2.6,3.2,3.3,5.1c0.7,1.9,0.9,3.8,0.8,5.6c-0.1,1.1-0.3,2.1-0.6,3
		c0.4,0.2,0.7,0.4,0.9,0.6c0.5,0.6,0.9,1.1,1.4,1.7l-0.3-0.5c-0.3-0.5-0.3-1.2,0.1-1.7c0.2-0.2,0.4-0.4,0.7-0.4l-0.4-1.4
		c-0.2-0.7,0.1-1.3,0.7-1.6c0.4-0.2,0.9-0.1,1.2,0.1c0.1-1.6,0-3.2-0.4-4.8c-0.4-1.8-1.1-3.5-2.2-5.2c-1-1.6-2.3-3.1-3.9-4.3
		c2.3-1,3.9-2.8,5-5.3c0.7-1.6,1.1-3.4,1.1-5.2c0-1.8-0.3-3.6-0.9-5.3c-0.6-1.7-1.5-3.2-2.7-4.5c-0.6-0.6-1.3-1.2-2.2-1.9
		c-0.9-0.7-2-1.2-3.4-1.6c-1.3-0.4-2.9-0.6-4.6-0.6c-1.8,0-3.8,0.3-6,1h-0.2c-3.7-0.8-6.9-1-9.6-0.7c-2.7,0.3-4.9,1-6.6,2.1
		c-1.7,1-3,2.3-3.8,3.7c-0.8,1.4-1.2,2.9-1.2,4.3c0,2,0.8,3.7,2.3,5.2C226.5,386.5,228.7,387.2,231.4,387.2z"/>
	<path id="XMLID_1028_" class="st0" fill="#BB2025" d="M266.8,399.1c0.3,1.8,0.9,3.5,1.8,5.1c1,1.5,2.2,2.8,3.9,3.8c1.6,1,3.7,1.6,6,1.7
		c2.4,0.1,5.2-0.3,8.3-1.3c0.7-0.3,1.2-0.7,1.3-1.4c0.1-0.7-0.1-1.2-0.5-1.7c-0.4-0.5-1-0.6-1.8-0.4c-2.3,0.6-4.3,0.8-6,0.5
		c-1.7-0.3-3-0.9-4-1.9c-1-1-1.8-2.1-2.3-3.5c1.5,0.2,2.9,0.1,4.3-0.3c1.4-0.4,2.7-1,3.9-1.8c1.2-0.8,2.1-1.9,2.8-3.1
		c0.7-1.2,1-2.6,1-4.2c0-1.2-0.3-2.3-0.8-3.4c-0.5-1.1-1.3-1.9-2.4-2.6c-1-0.7-2.3-1-3.9-1c-2.2,0-4.1,0.4-5.7,1.3
		c-1.6,0.9-2.9,2.1-3.9,3.6c-1,1.5-1.7,3.2-2.1,5C266.6,395.4,266.5,397.2,266.8,399.1z M273.4,391.9c0.4-1.4,1.1-2.5,2-3.3
		c0.9-0.9,1.9-1.3,3.2-1.3c1.2,0,2,0.3,2.6,1c0.6,0.7,0.8,1.5,0.8,2.4c0,1-0.4,2-1.1,3c-0.7,1-1.7,1.8-3.1,2.3c-1.4,0.5-3,0.6-5,0.1
		C272.8,394.7,273,393.3,273.4,391.9z"/>
	<path id="XMLID_1029_" class="st0" fill="#BB2025" d="M290.5,400.8c-0.3,2.3-0.8,5-1.3,8.1c0.7,0,1.5,0,2.3,0c0.8,0,1.5,0,2.3,0c0.8,0,1.6,0,2.3,0
		c0.8,0,1.5,0,2.3,0c-0.6-3.1-1-5.7-1.3-8.1c-0.3-2.3-0.6-4.4-0.6-6.4c-0.1-1.9-0.1-3.9,0-5.8c0.1-1.9,0.3-4.1,0.6-6.4
		c0.3-2.3,0.8-5,1.3-8.1c-0.7,0-1.5,0-2.3,0c-0.8,0-1.5,0-2.3,0c-0.7,0-1.5,0-2.3,0c-0.8,0-1.5,0-2.3,0c0.6,3.1,1,5.8,1.3,8.1
		c0.3,2.3,0.6,4.4,0.6,6.4c0.1,1.9,0.1,3.9,0,5.8C291.1,396.3,290.8,398.4,290.5,400.8z"/>
	<path id="XMLID_1030_" class="st0" fill="#BB2025" d="M308,389.6c0.3-1.7,0.8-3.6,1.3-5.8c-0.8,0-1.5,0-2.3,0c-0.7,0-1.5,0-2.3,0
		c-0.7,0-1.5,0-2.3,0c-0.8,0-1.5,0-2.3,0c0.6,2.2,1,4.1,1.3,5.8c0.3,1.7,0.5,3.2,0.6,4.6c0.1,1.4,0.1,2.8,0,4.2
		c-0.1,1.4-0.3,2.9-0.6,4.6c-0.3,1.7-0.8,3.6-1.3,5.8c0.7,0,1.5,0,2.3,0c0.4,0,0.8,0,1.2,0c0.3-0.5,1-0.7,1.5-0.6
		c0.5,0.1,1,0.3,1.6,0.5L306,407c-0.3-0.5-0.1-1.2,0.3-1.6c0.4-0.4,1.1-0.5,1.6-0.2c0.3,0.2,0.5,0.3,0.7,0.5c-0.2-1-0.4-1.9-0.6-2.7
		c-0.3-1.7-0.6-3.2-0.7-4.6c-0.1-1.4-0.1-2.8,0-4.2C307.5,392.8,307.7,391.3,308,389.6z"/>
	<path id="XMLID_1031_" class="st0" fill="#BB2025" d="M301.3,375.4c-0.8,0.8-1.3,1.7-1.3,2.8c0,1.1,0.4,2,1.3,2.8c0.8,0.8,1.9,1.1,3.1,1.1
		c1.2,0,2.2-0.4,3-1.1c0.8-0.8,1.3-1.7,1.3-2.8c0-1.1-0.4-2-1.3-2.8c-0.8-0.8-1.8-1.1-3-1.1C303.2,374.3,302.2,374.7,301.3,375.4z"
		/>
	<path id="XMLID_1034_" class="st0" fill="#BB2025" d="M311.4,393.6c-0.4,1.8-0.4,3.6-0.2,5.5c0.2,1.2,0.5,2.4,1,3.5c0.4,0.1,0.7,0.3,0.8,0.7
		c0.2,0.4,0.4,1,0.6,1.7c0.2-0.2,0.5-0.4,0.8-0.5c0.6-0.1,1.3,0.1,1.6,0.7c0.5,0.8,0.6,1.7,0.5,2.6c0.1,0.1,0.3,0.2,0.4,0.3
		c1.6,1,3.7,1.6,6,1.7c2.4,0.1,5.2-0.3,8.3-1.3c0.7-0.3,1.2-0.7,1.3-1.4c0.1-0.7-0.1-1.2-0.5-1.7c-0.4-0.5-1-0.6-1.8-0.4
		c-2.3,0.6-4.3,0.8-6,0.5c-1.7-0.3-3-0.9-4-1.9c-1-1-1.8-2.1-2.3-3.5c1.5,0.2,2.9,0.1,4.3-0.3c1.4-0.4,2.7-1,3.9-1.8
		c1.2-0.8,2.1-1.9,2.8-3.1c0.7-1.2,1-2.6,1-4.2c0-1.2-0.3-2.3-0.8-3.4c-0.5-1.1-1.3-1.9-2.4-2.6c-1-0.7-2.3-1-3.9-1
		c-2.2,0-4.1,0.4-5.7,1.3c-1.6,0.9-2.9,2.1-3.9,3.6C312.5,390.1,311.8,391.8,311.4,393.6z M317.9,391.9c0.4-1.4,1.1-2.5,2-3.3
		c0.9-0.9,1.9-1.3,3.2-1.3c1.2,0,2,0.3,2.6,1c0.6,0.7,0.8,1.5,0.8,2.4c0,1-0.4,2-1.1,3c-0.7,1-1.7,1.8-3.1,2.3c-1.4,0.5-3,0.6-5,0.1
		C317.3,394.7,317.5,393.3,317.9,391.9z"/>
	<path id="XMLID_1035_" class="st0" fill="#BB2025" d="M335.5,394.2c0.4,1.4,0.7,2.8,0.9,4.2c0.2,1.4,0.3,2.9,0.4,4.6c0,1.7,0,3.6-0.1,5.8
		c0.7,0,1.5,0,2.3,0c0.8,0,1.5,0,2.3,0c0.1,0,0.2,0,0.3,0c0.1,0,0.2,0,0.3,0c0.7,0,1.5,0,2.3,0c0.6,0,1.2,0,1.8,0l-0.4-0.7
		c-0.3-0.5-0.2-1.2,0.2-1.6c0.4-0.4,1.1-0.5,1.6-0.3c0.5,0.2,0.8,0.5,1,0.8c0.4,0.6,0.8,1.1,1.2,1.7c0,0,0,0,0,0l-0.2-0.4
		c-0.3-0.6-0.2-1.2,0.3-1.7c0.1-0.1,0.1-0.1,0.2-0.1c0.1-0.2,0.1-0.4,0.2-0.6c0.1-0.2,0.1-0.3,0.2-0.5l-0.1-0.5
		c-0.1-0.7,0.2-1.3,0.8-1.5c0.2-0.6,0.5-1.2,0.7-1.9c0.7-1.7,1.3-3.4,1.9-5.2c0.6-1.8,1.1-3.6,1.5-5.3c0.4-1.7,0.4-3.2,0.2-4.6
		c-0.2-1.2-0.7-2.3-1.6-3.2c-0.9-1-2.2-1.4-4.1-1.4c-1.6,0-2.9,0.3-3.9,1c-1,0.7-1.8,1.6-2.4,2.7c-0.5,1.1-0.8,2.3-0.8,3.5
		c0,1.3,0.3,2.5,0.8,3.7c0.6,1.2,1.4,2.2,2.5,3c0.5,0.3,1,0.4,1.4,0.3c0.5-0.1,0.8-0.4,1.1-0.8c0.3-0.4,0.4-0.8,0.4-1.3
		c0-0.5-0.3-0.9-0.8-1.2c-0.7-0.5-1.2-1.2-1.5-2c-0.3-0.8-0.4-1.7-0.4-2.5c0.1-0.9,0.4-1.6,1-2.2c0.6-0.6,1.4-0.9,2.4-0.9
		c1.2,0,1.9,0.4,2.1,1.3c0.2,0.8,0.2,1.8,0.1,2.9c-0.3,1.9-0.8,3.8-1.7,5.7c-0.9,1.9-1.8,3.8-2.9,5.5c-1.1,1.8-2,3.3-2.9,4.7
		c-0.9-2.1-1.6-3.9-2.2-5.4c-0.5-1.6-0.9-3.1-1.2-4.6c-0.2-1.5-0.4-3.1-0.4-4.9c-0.1-1.8,0-3.9,0-6.3c-0.7,0-1.5,0-2.3,0
		c-0.8,0-1.5,0-2.3,0c-0.8,0-1.6,0-2.3,0c-0.8,0-1.5,0-2.3,0c1,2.2,1.9,4.1,2.6,5.8C334.5,391.3,335.1,392.8,335.5,394.2z"/>
	<path id="XMLID_1038_" class="st0" fill="#BB2025" d="M359.1,404.1c1,1.5,2.2,2.8,3.9,3.8c1.6,1,3.7,1.6,6,1.7c2.4,0.1,5.2-0.3,8.3-1.3
		c0.7-0.3,1.2-0.7,1.3-1.4c0.1-0.7-0.1-1.2-0.5-1.7c-0.4-0.5-1-0.6-1.8-0.4c-2.3,0.6-4.3,0.8-6,0.5c-1.7-0.3-3-0.9-4-1.9
		c-1-1-1.8-2.1-2.3-3.5c1.5,0.2,2.9,0.1,4.3-0.3c1.4-0.4,2.7-1,3.9-1.8c1.2-0.8,2.1-1.9,2.8-3.1c0.7-1.2,1-2.6,1-4.2
		c0-1.2-0.3-2.3-0.8-3.4c-0.5-1.1-1.3-1.9-2.4-2.6c-1-0.7-2.3-1-3.9-1c-2.2,0-4.1,0.4-5.7,1.3c-1.6,0.9-2.9,2.1-3.9,3.6
		c-1,1.5-1.7,3.2-2.1,5c-0.4,1.8-0.4,3.6-0.2,5.5C357.5,400.9,358.1,402.6,359.1,404.1z M363.9,391.9c0.4-1.4,1.1-2.5,2-3.3
		c0.9-0.9,1.9-1.3,3.2-1.3c1.2,0,2,0.3,2.6,1c0.6,0.7,0.8,1.5,0.8,2.4c0,1-0.4,2-1.1,3c-0.7,1-1.7,1.8-3.1,2.3c-1.4,0.5-3,0.6-5,0.1
		C363.2,394.7,363.5,393.3,363.9,391.9z"/>
	<path id="XMLID_1039_" class="st0" fill="#BB2025" d="M290.4,523.9c0.1,0,0.1,0,0.2,0c1.1-0.2,2.1-0.3,3.2-0.5c0.4-0.1,0.4-0.3,0.2-0.6
		c-0.5-0.7-1-1.4-1.6-2c-0.2-0.3-0.5-0.7-1-0.6c-0.9,0.2-1.9,0.3-2.8,0.5c-0.6,0.1-0.7,0.4-0.3,0.8c0.6,0.8,1.3,1.5,1.9,2.3
		C290.3,523.8,290.4,523.8,290.4,523.9z"/>
	<path id="XMLID_1040_" class="st0" fill="#BB2025" d="M299.7,522.3c1-0.2,2-0.3,3-0.5c0.2,0,0.5-0.2,0.5-0.4c0.4-1,0.7-2,1.1-3
		c0.1-0.4,0-0.5-0.4-0.4c-1.1,0.2-2.1,0.4-3.2,0.6c-0.2,0-0.5,0.3-0.5,0.5c-0.4,0.9-0.6,1.8-1,2.7
		C299.1,522.3,299.2,522.4,299.7,522.3z"/>
	<path id="XMLID_1043_" class="st0" fill="#BB2025" d="M399.7,372.9c-12.7-8.8-19.9-9.3-34.3-11.8v-26.7c-2.6-0.8-5.8-1.8-7.2-2.4
		c-28.1-12.1-45.1-31.5-51.9-59.4c-0.3-1.3-0.7-3.6-1-5.7H290c-0.3,2.1-0.7,4.4-1,5.7c-6.8,27.9-23.8,47.3-51.9,59.4
		c-1.3,0.6-4.6,1.6-7.2,2.4v26.7c-14.4,2.5-21.5,2.9-34.3,11.8c-15.5,10.6-24.9,28.6-25.1,48.1c0.3,19.4,9.7,37.4,25.2,48
		c12.8,8.8,20,9.4,34.3,11.8v2.1v1.1v4.5v2.6v0.5v3.8v0.6v0.6v2v8.7c2.6,0.8,5.8,1.8,7.2,2.4c13.4,5.8,24.3,13.2,32.8,22.4
		c0.1,0.1,0.1,0.1,0.2,0.2c1,1.1,2,2.2,2.9,3.4c0.1,0.1,0.1,0.2,0.2,0.3c3.5,4.4,6.5,9.1,9.1,14.2c0.2,0.4,0.4,0.8,0.6,1.2
		c0.2,0.4,0.4,0.9,0.6,1.3c2.3,5.1,4.2,10.5,5.6,16.3c0.3,1.3,0.7,3.6,1,5.7h15.2c0.3-2.1,0.7-4.4,1-5.7c1.9-7.9,4.7-15.1,8.2-21.6
		c0.2-0.1,0.3-0.3,0.3-0.5c1.9-3.4,4-6.7,6.4-9.8c8.9-11.6,21.2-20.7,37-27.5c0.9-0.4,2.8-1,4.7-1.6c0.9-0.3,1.7-0.5,2.5-0.8V505
		v-1.1v-23.1c14.4-2.5,21.6-2.9,34.3-11.8c15.5-10.6,24.9-28.6,25.2-48.1C424.5,401.5,415.1,383.5,399.7,372.9z M258.4,484.4
		c-0.3,0.2-0.5,0.4-0.8,0.5c-0.4,0.1-0.7,0.2-1.1,0.3c-0.6-0.4-1.2-0.7-1.8-1.1c-0.2-0.1-0.4-0.4-0.5-0.5c0.6-0.2,1.1-0.3,1.6-0.4
		c-0.2,0.2-0.5,0.3-0.7,0.5c-0.1,0.1-0.3,0.4-0.2,0.4c0.1,0.2,0.2,0.3,0.4,0.4c0.1,0,0.3,0,0.4-0.1c0.3-0.1,0.6-0.3,1-0.4
		c0.1,0,0.3,0,0.4,0.1c0.2,0.6,0.6,0.3,0.9,0.2c0.1-0.1,0.2-0.2,0.4-0.2c0.1,0,0.2,0,0.4,0C258.6,484.2,258.5,484.4,258.4,484.4z
		 M321.1,521.1c-1,0.3-2.1,0.4-3.1,0.7c-0.4,0.1-0.7,0.1-1.1,0.3c-0.4,0.1-0.4,0.4-0.1,0.7c0.8,0.7,1.7,1.4,2.5,2.2
		c0.4,0.3,0.7,0.7,0.7,1.2c-0.1,0.9-0.9,1.3-1.8,0.9c-0.6-0.3-1.1-0.6-1.7-1c-1.3-0.9-2.7-1.7-4-2.6c-0.5-0.4-1.1-0.5-1.8-0.4
		c-0.9,0.2-1.7,0.3-2.6,0.4c-0.2,0-0.4,0.1-0.7,0.1c-0.8,0.2-0.8,0.4-0.2,1c0.3,0.3,0.6,0.6,0.9,0.9c0.3,0.4,0.7,0.4,1.1,0.2
		c0.4-0.2,0.9-0.4,1.4-0.3c1,0.1,1.4,1.1,1,2.1c0,0.1-0.1,0.2-0.2,0.4c0.4,0.2,0.7,0.3,1,0.4c0.8,0.4,1.1,1.2,0.7,1.9
		c-0.2,0.3-0.5,0.5-0.9,0.5c-0.4-0.1-0.8-0.1-1.2-0.2c-0.3-0.1-0.5,0-0.6,0.4c-0.1,0.5-0.4,1-1,1.1c-0.6,0.1-1.1-0.2-1.4-0.6
		c-0.1-0.1-0.2-0.3-0.3-0.4c-0.3-0.7-0.8-0.8-1.5-0.7c-0.4,0.1-0.8,0.1-1.3,0.2c-0.5,0.1-0.6,0.4-0.3,0.8c0.9,1,1.7,2,2.6,3
		c0.2,0.2,0.5,0.4,0.8,0.4c2.2,0.3,4.4,0.6,6.5,0.8c0.9,0.1,1.5,0.6,1.7,1.4c0.2,0.7-0.1,1.2-0.8,1.3c-0.7,0.1-1.4,0.1-2.1,0.1
		c-0.6,0-1.2,0-1.7,0c-0.2,0-0.5,0.1-0.6,0.3c-0.1,0.1,0.1,0.4,0.2,0.5c0.7,0.9,1.5,1.7,2.2,2.6c0.4,0.5,0.7,0.9,0.6,1.6
		c-0.2,0.7-0.9,1.1-1.6,0.6c-0.6-0.4-1.1-0.9-1.6-1.4c-0.5-0.6-1-1.2-1.6-1.8c-0.1-0.2-0.4-0.2-0.6-0.4c-0.1,0.2-0.3,0.4-0.3,0.6
		c-0.2,1-0.4,2-0.6,3.1c-0.2,0.8-0.8,1.3-1.4,1.1c-0.7-0.2-1.3-1-1.3-1.7c0.1-1.7,0.2-3.5,0.3-5.2c0-0.5,0.1-1.1,0.1-1.6
		c0-0.3-0.1-0.5-0.3-0.7c-0.8-1-1.6-1.9-2.5-2.9c-0.4-0.5-0.7-0.4-0.9,0.2c-0.1,0.5-0.2,1-0.4,1.5c-0.1,0.4,0,0.7,0.3,0.9
		c0.3,0.3,0.7,0.6,0.9,0.9c0.5,0.7,0.2,1.6-0.7,1.8c0,0,0,0,0,0c-0.9,0.2-0.9,0.2-0.8,1.2c0.1,0.5-0.2,1.1-0.6,1.3
		c-0.5,0.3-1,0.1-1.3-0.2c-0.3-0.3-0.5-0.6-0.6-1c-0.2-0.7-0.2-0.7-0.9-0.7c-0.4,0-0.7-0.1-1-0.2c-0.6-0.3-0.9-1.1-0.4-1.7
		c0.7-0.9,0.7-1.6-0.1-2.4c-0.2-0.2-0.3-0.4-0.4-0.5c-0.3-0.3-0.6-0.3-0.7,0.1c-0.4,1.2-0.9,2.5-1.3,3.8c-0.1,0.2,0,0.6,0.1,0.8
		c0.9,2,1.8,3.9,2.7,5.8c0.1,0.2,0.1,0.4,0.2,0.6c0.1,0.5-0.1,0.8-0.4,1.1c-0.4,0.3-0.7,0.2-1.1,0c-0.7-0.3-1-0.9-1.4-1.5
		c-0.4-0.6-0.7-1.2-1.1-1.8c-0.1-0.1-0.3-0.3-0.4-0.3c-0.1,0-0.3,0.2-0.3,0.4c-0.3,0.7-0.5,1.4-0.7,2.1c-0.2,0.5-0.5,1.1-0.7,1.6
		c-0.2,0.4-0.5,0.5-1,0.5c-0.9-0.1-1.4-0.9-1.2-1.8c0.3-1.1,0.7-2.2,1.1-3.3c0.1-0.2,0.1-0.4,0-0.5c-0.1-0.1-0.4-0.1-0.5,0
		c-0.9,0.2-1.8,0.5-2.8,0.8c-0.6,0.2-1.2,0-1.6-0.4c-0.5-0.5-0.3-1.5,0.4-1.8c1.8-0.9,3.7-1.7,5.5-2.6c0.6-0.3,0.9-0.6,1.1-1.2
		c0.3-1,0.7-2,1-3c0.2-0.6,0.1-0.8-0.5-0.7c-0.5,0.1-0.9,0.2-1.4,0.3c-0.4,0.1-0.6,0.3-0.6,0.7c0,0.2,0,0.4-0.1,0.6
		c-0.1,0.4-0.3,0.9-0.8,1c-0.5,0.1-1,0-1.3-0.4c-0.3-0.4-0.6-0.7-1.1-0.2c-0.1,0.1-0.4,0.2-0.6,0.3c-0.5,0.2-1.2,0-1.5-0.5
		c-0.3-0.4-0.3-1,0.1-1.4c0.2-0.2,0.4-0.4,0.6-0.6c0.3-0.2,0.3-0.4,0-0.7c-0.1-0.1-0.3-0.3-0.4-0.4c-0.3-0.3-0.4-0.7-0.2-1.1
		c0.2-0.4,0.5-0.7,1-0.7c0.4,0,0.7,0,1.1,0c0.4,0,0.6-0.1,0.7-0.5c0.2-0.5,0.4-1,0.6-1.4c0.2-0.4,0.1-0.6-0.4-0.5
		c-1.3,0.2-2.5,0.4-3.8,0.7c-0.2,0-0.4,0.3-0.6,0.4c-1.2,1.7-2.4,3.3-3.6,5c-0.5,0.7-1,0.8-1.7,0.4c-0.7-0.4-0.8-1-0.5-1.7
		c0.4-0.9,0.9-1.7,1.3-2.6c0.3-0.5,0.2-0.6-0.4-0.6c-1,0.1-2,0.3-3,0.4c-0.3,0-0.6,0-0.9-0.1c-0.6-0.2-0.9-0.7-0.8-1.2
		c0-0.5,0.5-0.9,1-1.1c1-0.2,2-0.4,3.1-0.6c0.1,0,0.2,0,0.3-0.1c0.5-0.1,0.6-0.4,0.2-0.8c-0.6-0.6-1.3-1.2-1.9-1.8
		c-0.2-0.2-0.4-0.4-0.6-0.7c-0.3-0.4-0.3-1.1,0-1.4c0.3-0.4,1-0.5,1.5-0.2c1,0.7,2,1.4,3,2.1c0.8,0.5,1.5,1.1,2.4,1.6
		c0.3,0.2,0.6,0.2,0.9,0.2c1.1-0.2,2.2-0.4,3.3-0.6c0.1,0,0.2-0.1,0.4-0.1c0.4-0.1,0.5-0.4,0.2-0.7c-0.4-0.4-0.7-0.8-1.1-1.1
		c-0.2-0.2-0.5-0.2-0.8-0.2c-0.4,0-0.7,0.2-1.1,0.2c-0.5,0.1-1-0.1-1.3-0.5c-0.3-0.4-0.3-0.8,0-1.2c0.3-0.6,0.3-0.6-0.3-0.9
		c-0.3-0.1-0.5-0.3-0.7-0.4c-0.5-0.3-0.6-0.9-0.4-1.4c0.2-0.5,0.8-0.7,1.3-0.6c0.3,0.1,0.6,0.2,0.9,0.3c0.2,0.1,0.4,0,0.4-0.3
		c0,0,0-0.1,0-0.1c0.1-0.7,0.3-1,0.8-1.2c0.5-0.1,1,0.1,1.3,0.7c0.9,1.4,0.4,1.3,2.2,1.1c0.4,0,0.7-0.2,1.1-0.3
		c-0.2-0.3-0.3-0.7-0.6-1c-0.6-0.8-1.2-1.5-1.9-2.2c-0.2-0.2-0.6-0.4-0.9-0.5c-1.5-0.2-2.9-0.3-4.4-0.4c-0.7-0.1-1.4-0.2-2.1-0.4
		c-0.6-0.1-1-0.7-0.9-1.2c0.1-0.6,0.5-1,1.1-1.1c0.9-0.1,1.8-0.1,2.7-0.1c0.1,0,0.3,0,0.4,0c0.2-0.1,0.5-0.1,0.6-0.3
		c0.1-0.1-0.1-0.4-0.2-0.6c-0.7-0.9-1.4-1.7-2.1-2.5c-0.3-0.3-0.5-0.7-0.4-1.2c0.1-0.4,0.4-0.8,0.8-0.8c0.5-0.1,0.9,0.1,1.2,0.5
		c0.7,0.8,1.5,1.7,2.2,2.6c0.1,0.2,0.4,0.3,0.6,0.3c0.2,0,0.3-0.4,0.3-0.6c0.2-0.9,0.3-1.9,0.5-2.8c0.2-0.9,0.6-1.3,1.3-1.3
		c0.6,0.1,1.2,0.7,1.1,1.5c-0.1,1.7-0.2,3.3-0.2,5c0,0.2,0,0.5,0,0.7c-0.2,0.8,0.1,1.5,0.7,2.1c0.6,0.7,1.2,1.4,1.8,2.1
		c0.4,0.5,0.7,0.4,0.9-0.2c0.1-0.4,0.2-0.9,0.4-1.4c0.2-0.5,0-0.8-0.4-1.1c-0.3-0.2-0.5-0.4-0.7-0.7c-0.4-0.4-0.5-0.9-0.3-1.3
		c0.2-0.4,0.6-0.6,1.2-0.6c0.6,0,0.6,0,0.5-0.6c0-0.2-0.1-0.4-0.1-0.6c-0.1-0.6,0.2-1.1,0.7-1.3c0.5-0.2,1-0.1,1.3,0.5
		c0.2,0.3,0.3,0.7,0.4,1.1c0.1,0.5,0.2,0.5,0.7,0.3c0.6-0.3,1-0.2,1.4,0.1c0.4,0.4,0.5,0.9,0.3,1.5c-0.1,0.3-0.2,0.6-0.4,0.9
		c-0.3,0.4-0.2,0.8,0.1,1.2c0.3,0.3,0.5,0.7,0.8,1c0.4,0.4,0.8,0.4,1-0.2c0.4-1.1,0.7-2.2,1.1-3.3c0.2-0.5,0.1-0.9-0.1-1.3
		c-0.8-1.6-1.6-3.1-2.3-4.7c-0.2-0.4-0.3-0.8-0.5-1.2c-0.2-0.6,0-1.2,0.5-1.5c0.5-0.3,1.1-0.2,1.5,0.4c0.5,0.7,1,1.5,1.5,2.3
		c0.1,0.2,0.3,0.4,0.4,0.6c0.4,0.4,0.7,0.4,0.9-0.2c0.3-0.8,0.6-1.6,0.8-2.4c0.1-0.3,0.2-0.6,0.3-0.9c0.3-0.8,0.9-1.1,1.5-0.9
		c0.6,0.2,1,1.1,0.8,1.7c-0.3,0.9-0.6,1.8-0.9,2.6c-0.1,0.3-0.2,0.6-0.3,1c-0.1,0.3,0.1,0.5,0.4,0.4c0.2,0,0.3-0.1,0.5-0.1
		c1-0.4,2-0.7,3-1.1c0.5-0.2,1-0.1,1.3,0.4c0.5,0.6,0.5,1.3-0.2,1.7c-0.8,0.5-1.7,0.9-2.5,1.4c-1.1,0.6-2.3,1.2-3.4,1.7
		c-0.5,0.2-0.8,0.6-0.9,1.1c-0.3,1.1-0.7,2.2-1.1,3.3c-0.2,0.6,0,0.7,0.6,0.5c0.5-0.1,1.1-0.3,1.6-0.4c0.4-0.1,0.5-0.3,0.5-0.7
		c0-0.3,0.1-0.7,0.1-1c0.1-0.5,0.4-0.9,0.9-1c0.5-0.1,0.9,0.1,1.2,0.5c0.1,0.1,0.1,0.2,0.2,0.3c0.3,0.6,0.4,0.6,0.9,0.1
		c0.4-0.4,0.8-0.7,1.3-0.6c0.8,0.1,1.4,1.1,0.9,1.8c-0.2,0.4-0.5,0.7-0.8,1c-0.2,0.3-0.3,0.4,0,0.6c0.5,0.3,0.7,0.9,0.6,1.3
		c-0.1,0.5-0.6,0.8-1.2,0.9c-0.2,0-0.4,0.1-0.6,0.1c-0.8-0.1-1.2,0.4-1.4,1.1c-0.1,0.3-0.3,0.7-0.4,1c-0.1,0.5,0,0.6,0.4,0.5
		c1.3-0.2,2.6-0.4,3.9-0.7c0.3-0.1,0.6-0.3,0.8-0.5c0.2-0.2,0.3-0.4,0.5-0.7c1-1.3,1.9-2.7,2.9-4c0.2-0.3,0.4-0.6,0.6-0.8
		c0.5-0.6,1.1-0.7,1.7-0.4c0.5,0.3,0.8,1.1,0.5,1.7c-0.4,0.8-0.8,1.6-1.2,2.4c-0.1,0.3-0.3,0.5-0.4,0.8c-0.2,0.5,0,0.7,0.5,0.6
		c0.6-0.1,1.3-0.2,1.9-0.3c0.7-0.1,1.3-0.3,2-0.3c0.3,0,0.8,0.1,1.1,0.3C322.3,519.7,322.2,520.8,321.1,521.1z M277.3,492.2
		c0.4-0.3,1,0.7,1.1-0.5c0.5,0.1,1,0.2,1.5,0.2c0.3,0,0.7,0,1,0c0.1,0,0.2-0.2,0.3-0.3c0.2,0.1,0.3,0.2,0.5,0.2
		c0.5,0,0.9-0.1,1.4-0.1c0.2,0.6,0.3,0.6,0.8,0.5c0.6-0.2,1.1-0.4,1.7-0.6c0.2-0.1,0.3-0.1,0.5-0.1c0,0,0.1,0.1,0.1,0.1
		c-0.3,0.3-0.5,0.7-0.8,1c-1.2,1.3-2.7,2.1-4.3,2.8c-0.2,0.1-0.3,0.3-0.5,0.5c0.2,0.2,0.4,0.3,0.6,0.4c0.2,0.1,0.4,0.1,0.7,0.1
		c0,0.2,0,0.4,0,0.5c-2.1-0.6-4.1-1.5-5.8-3c-0.5-0.4-0.8-0.9-1.3-1.3c0-0.1,0.1-0.1,0.1-0.2c0.8,0.5,1.7,0.7,2.6,0.3
		C277.4,492.5,277.3,492.4,277.3,492.2z M396.1,463.8c-8.1,5.6-14.2,8-24.3,9.5l-12.8,2.2v10.4c0,0,0,0,0,0
		c-0.2-0.2-0.5-0.3-0.8-0.4c-1.1-0.5-2.1-1.3-3-2.2c-0.1-0.1-0.2-0.3-0.4-0.6c0.6,0,1,0,1.4,0c0.4,0,0.4-0.3,0.3-0.6
		c0.4,0,0.8,0,1.2,0.1c0-0.1,0-0.2,0.1-0.2c-0.2-0.2-0.5-0.4-0.7-0.5c-0.7-0.4-1.3-0.8-2-1.2c-0.2-0.1-0.4-0.4-0.5-0.5
		c0.6-0.2,1.2-0.3,1.8-0.5c0-0.1,0-0.1,0-0.2c-1.1-0.9-2.5-1.6-3.3-3.2c0.3,0,0.6,0,1,0c-0.4-0.4-0.7-0.7-1-1
		c0.6-0.1,1.1-0.3,1.8-0.5c-0.7-0.7-1.6-0.7-2-1.6c0.1-0.1,0.2-0.1,0.4-0.2c-0.4-0.7-1-1.2-1.2-2c0.5-0.3,0.6-0.4,0.3-1
		c-0.1-0.3-0.3-0.6-0.4-0.9c-0.1-0.9-0.2-1.7-0.3-2.6c-0.1-0.4-0.1-0.8-0.2-1.2c-0.1,0-0.1,0-0.2,0c-0.1,0.2-0.2,0.4-0.2,0.6
		c-0.1,0.6-0.1,1.3-0.2,1.9c-0.2,1.2-0.5,2.3-0.8,3.5c-0.1,0.4-0.3,0.7,0.3,0.8c-0.6,1.3-1.6,2.1-2.7,2.8c0.7,0.5,1.4,0.2,2.1,0.2
		c-0.1,0.2-0.2,0.5-0.3,0.6c-0.6,0.5-1.3,1.1-1.9,1.6c-0.4,0.3-0.8,0.5-1.2,0.8c-0.1,0.1-0.1,0.3-0.2,0.5c0.1,0.1,0.3,0.2,0.4,0.2
		c0.2,0,0.5,0,0.6,0.1c0.4,0.5,0.9,0.4,1.3,0.2c0.2-0.1,0.5-0.1,0.8-0.2c0,0,0,0.1,0,0.1c-0.1,0.2-0.3,0.4-0.4,0.6
		c-0.7,0.8-1.5,1.4-2.4,1.9c-0.2,0.1-0.5,0.2-0.7,0.4c-0.1,0.1-0.2,0.3-0.1,0.4c0,0.1,0.2,0.2,0.3,0.2c0.7,0,1.3-0.1,2.1-0.1
		c-0.2,0.2-0.3,0.4-0.5,0.5c-1.3,0.8-2.6,1.6-3.8,2.4c-0.2,0.1-0.4,0.4-0.5,0.6c0.2,0.1,0.4,0.3,0.7,0.3c0.5,0,0.9-0.1,1.4-0.1
		c0.2,0.6,0.3,0.6,0.8,0.5c0.6-0.2,1.1-0.4,1.7-0.6c0.2-0.1,0.3-0.1,0.5-0.1c0,0,0.1,0.1,0.1,0.1c-0.3,0.3-0.5,0.7-0.8,1
		c-1.2,1.3-2.7,2.1-4.3,2.8c-0.2,0.1-0.3,0.3-0.5,0.5c0.2,0.2,0.4,0.3,0.6,0.4c0.2,0.1,0.4,0.1,0.7,0.1c-0.1,1,0,1.1,0.8,0.8
		c0.1,0,0.3-0.1,0.3,0c0.5,0.6,1,0.3,1.4,0.1c0.3-0.1,0.6-0.3,0.9-0.4c0,0.1,0.1,0.1,0.1,0.2c-0.2,0.3-0.5,0.6-0.7,0.9
		c-1.1,1.1-2.3,2.1-3.6,3.1c-0.6-0.3-1.2-0.6-1.7-0.9c-0.2-0.1-0.3-0.3-0.5-0.4c0.4-0.2,0.8-0.3,1.1-0.5c0-0.1,0-0.1,0-0.2
		c-1.9-0.8-3.8-1.7-5-3.7c0.5,0.1,0.9,0.2,1.3,0.2c0.6,0.1,0.8-0.1,0.9-0.7c0.4,0,0.9,0,1.3-0.1c0.2,0,0.3-0.2,0.4-0.3
		c-0.1-0.1-0.2-0.3-0.3-0.4c-0.2-0.2-0.5-0.3-0.7-0.5c0,0,0-0.1,0-0.1c0.3,0,0.6,0.1,0.9,0.1c0.6,0.1,1.1,0.2,1.7,0.1
		c0.3,0,0.5-0.3,0.7-0.5c-0.2-0.2-0.4-0.4-0.6-0.6c-0.1-0.1-0.3-0.1-0.5-0.2c-1.2-0.6-2.4-1.2-3.5-1.8c-0.2-0.1-0.3-0.3-0.6-0.5
		c0.2-0.1,0.3-0.1,0.4-0.2c0.1-0.1,0.2-0.1,0.3-0.2c-0.1-0.1-0.1-0.3-0.2-0.4c-0.1-0.1-0.1-0.1-0.2-0.2c-1.1-0.9-2.3-1.9-3.1-3.2
		c-0.2-0.2-0.3-0.5-0.4-0.9c0.4,0.1,0.6,0.2,0.9,0.3c0.5,0.1,1,0.1,1.5,0.1c0.1,0,0.3-0.2,0.4-0.3c0.1-0.3,0.2-0.3,0.4-0.3
		c0.2,0,0.5,0.1,0.7,0c0.1,0,0.3-0.2,0.4-0.3c-0.1-0.2-0.1-0.4-0.2-0.5c-0.2-0.2-0.5-0.3-0.8-0.4c-1.1-0.5-2.1-1.3-3-2.2
		c-0.1-0.1-0.2-0.3-0.4-0.6c0.6,0,1,0,1.4,0c0.4,0,0.4-0.3,0.3-0.6c0.4,0,0.8,0,1.2,0.1c0-0.1,0-0.2,0.1-0.2
		c-0.2-0.2-0.5-0.4-0.7-0.5c-0.7-0.4-1.3-0.8-2-1.2c-0.2-0.1-0.4-0.4-0.5-0.5c0.6-0.2,1.2-0.3,1.8-0.5c0-0.1,0-0.1,0-0.2
		c-1.1-0.9-2.5-1.6-3.3-3.2c0.3,0,0.6,0,1,0c-0.4-0.4-0.7-0.7-1-1c0.6-0.1,1.1-0.3,1.8-0.5c-0.7-0.7-1.6-0.7-2-1.6
		c0.1-0.1,0.2-0.1,0.4-0.2c-0.4-0.7-1-1.2-1.2-2c0.5-0.3,0.6-0.4,0.3-1c-0.1-0.3-0.3-0.6-0.4-0.9c-0.1-0.9-0.2-1.7-0.3-2.6
		c-0.1-0.4-0.1-0.8-0.2-1.2c-0.1,0-0.1,0-0.2,0c-0.1,0.2-0.2,0.4-0.2,0.6c-0.1,0.6-0.1,1.3-0.2,1.9c-0.2,1.2-0.5,2.3-0.8,3.5
		c-0.1,0.4-0.3,0.7,0.3,0.8c-0.6,1.3-1.6,2.1-2.7,2.8c0.7,0.5,1.4,0.2,2.1,0.2c-0.1,0.2-0.2,0.5-0.3,0.6c-0.6,0.5-1.3,1.1-1.9,1.6
		c-0.4,0.3-0.8,0.5-1.2,0.8c-0.1,0.1-0.1,0.3-0.2,0.5c0.1,0.1,0.3,0.2,0.4,0.2c0.2,0,0.5,0,0.6,0.1c0.4,0.5,0.9,0.4,1.3,0.2
		c0.2-0.1,0.5-0.1,0.8-0.2c0,0,0,0.1,0,0.1c-0.1,0.2-0.3,0.4-0.4,0.6c-0.7,0.8-1.5,1.4-2.4,1.9c-0.2,0.1-0.5,0.2-0.7,0.4
		c-0.1,0.1-0.2,0.3-0.1,0.4c0,0.1,0.2,0.2,0.3,0.2c0.7,0,1.3-0.1,2.1-0.1c-0.2,0.2-0.3,0.4-0.5,0.5c-1.3,0.8-2.6,1.6-3.8,2.4
		c-0.2,0.1-0.4,0.4-0.5,0.6c0.2,0.1,0.4,0.3,0.7,0.3c0.5,0,0.9-0.1,1.4-0.1c0.2,0.6,0.3,0.6,0.8,0.5c0.6-0.2,1.1-0.4,1.7-0.6
		c0.2-0.1,0.3-0.1,0.5-0.1c0,0,0.1,0.1,0.1,0.1c-0.3,0.3-0.5,0.7-0.8,1c-1.2,1.3-2.7,2.1-4.3,2.8c-0.2,0.1-0.3,0.3-0.5,0.5
		c0.2,0.2,0.4,0.3,0.6,0.4c0.2,0.1,0.4,0.1,0.7,0.1c-0.1,1,0,1.1,0.8,0.8c0.1,0,0.3-0.1,0.3,0c0.5,0.6,1,0.3,1.4,0.1
		c0.3-0.1,0.6-0.3,0.9-0.4c0,0.1,0.1,0.1,0.1,0.2c-0.2,0.3-0.5,0.6-0.7,0.9c-1.6,1.6-3.3,2.9-5.1,4.1c-0.5,0.3-1,0.6-1.4,1
		c-0.1,0.1-0.3,0.4-0.2,0.4c0.1,0.2,0.2,0.3,0.4,0.4c0.1,0,0.3,0,0.4-0.1c0.3-0.1,0.6-0.3,1-0.4c0.1,0,0.3,0,0.4,0.1
		c0.2,0.6,0.6,0.3,0.9,0.2c0.1-0.1,0.2-0.2,0.4-0.2c0.1,0,0.2,0,0.4,0c-0.1,0.1-0.1,0.4-0.2,0.4c-0.3,0.2-0.5,0.4-0.8,0.5
		c-1.4,0.4-2.7,0.8-4.1,1.3c-0.1,0-0.2,0.1-0.2,0.1c-1-0.6-2-1.4-2.7-2.6c0.5,0.1,0.9,0.2,1.3,0.2c0.6,0.1,0.8-0.1,0.9-0.7
		c0.4,0,0.9,0,1.3-0.1c0.2,0,0.3-0.2,0.4-0.3c-0.1-0.1-0.2-0.3-0.3-0.4c-0.2-0.2-0.5-0.3-0.7-0.5c0,0,0-0.1,0-0.1
		c0.3,0,0.6,0.1,0.9,0.1c0.6,0.1,1.1,0.2,1.7,0.1c0.3,0,0.5-0.3,0.7-0.5c-0.2-0.2-0.4-0.4-0.6-0.6c-0.1-0.1-0.3-0.1-0.5-0.2
		c-1.2-0.6-2.4-1.2-3.5-1.8c-0.2-0.1-0.3-0.3-0.6-0.5c0.2-0.1,0.3-0.1,0.4-0.2c0.1-0.1,0.2-0.1,0.3-0.2c-0.1-0.1-0.1-0.3-0.2-0.4
		c-0.1-0.1-0.1-0.1-0.2-0.2c-1.1-0.9-2.3-1.9-3.1-3.2c-0.2-0.2-0.3-0.5-0.4-0.9c0.4,0.1,0.6,0.2,0.9,0.3c0.5,0.1,1,0.1,1.5,0.1
		c0.1,0,0.3-0.2,0.4-0.3c0.1-0.3,0.2-0.3,0.4-0.3c0.2,0,0.5,0.1,0.7,0c0.1,0,0.3-0.2,0.4-0.3c-0.1-0.2-0.1-0.4-0.2-0.5
		c-0.2-0.2-0.5-0.3-0.8-0.4c-1.1-0.5-2.1-1.3-3-2.2c-0.1-0.1-0.2-0.3-0.4-0.6c0.6,0,1,0,1.4,0c0.4,0,0.4-0.3,0.3-0.6
		c0.4,0,0.8,0,1.2,0.1c0-0.1,0-0.2,0.1-0.2c-0.2-0.2-0.5-0.4-0.7-0.5c-0.7-0.4-1.3-0.8-2-1.2c-0.2-0.1-0.4-0.4-0.5-0.5
		c0.6-0.2,1.2-0.3,1.8-0.5c0-0.1,0-0.1,0-0.2c-1.1-0.9-2.5-1.6-3.3-3.2c0.3,0,0.6,0,1,0c-0.4-0.4-0.7-0.7-1-1
		c0.6-0.1,1.1-0.3,1.8-0.5c-0.7-0.7-1.6-0.7-2-1.6c0.1-0.1,0.2-0.1,0.4-0.2c-0.4-0.7-1-1.2-1.2-2c0.5-0.3,0.6-0.4,0.3-1
		c-0.1-0.3-0.3-0.6-0.4-0.9c-0.1-0.9-0.2-1.7-0.3-2.6c-0.1-0.4-0.1-0.8-0.2-1.2c-0.1,0-0.1,0-0.2,0c-0.1,0.2-0.2,0.4-0.2,0.6
		c-0.1,0.6-0.1,1.3-0.2,1.9c-0.2,1.2-0.5,2.3-0.8,3.5c-0.1,0.4-0.3,0.7,0.3,0.8c-0.6,1.3-1.6,2.1-2.7,2.8c0.7,0.5,1.4,0.2,2.1,0.2
		c-0.1,0.2-0.2,0.5-0.3,0.6c-0.6,0.5-1.3,1.1-1.9,1.6c-0.4,0.3-0.8,0.5-1.2,0.8c-0.1,0.1-0.1,0.3-0.2,0.5c0.1,0.1,0.3,0.2,0.4,0.2
		c0.2,0,0.5,0,0.6,0.1c0.4,0.5,0.9,0.4,1.3,0.2c0.2-0.1,0.5-0.1,0.8-0.2c0,0,0,0.1,0,0.1c-0.1,0.2-0.3,0.4-0.4,0.6
		c-0.7,0.8-1.5,1.4-2.4,1.9c-0.2,0.1-0.5,0.2-0.7,0.4c-0.1,0.1-0.2,0.3-0.1,0.4c0,0.1,0.2,0.2,0.3,0.2c0.7,0,1.3-0.1,2.1-0.1
		c-0.2,0.2-0.3,0.4-0.5,0.5c-1.3,0.8-2.6,1.6-3.8,2.4c-0.2,0.1-0.4,0.4-0.5,0.6c0.2,0.1,0.4,0.3,0.7,0.3c0.5,0,0.9-0.1,1.4-0.1
		c0.2,0.6,0.3,0.6,0.8,0.5c0.6-0.2,1.1-0.4,1.7-0.6c0.2-0.1,0.3-0.1,0.5-0.1c0,0,0.1,0.1,0.1,0.1c-0.3,0.3-0.5,0.7-0.8,1
		c-1.2,1.3-2.7,2.1-4.3,2.8c-0.2,0.1-0.3,0.3-0.5,0.5c0.2,0.2,0.4,0.3,0.6,0.4c0.2,0.1,0.4,0.1,0.7,0.1c-0.1,1,0,1.1,0.8,0.8
		c0.1,0,0.3-0.1,0.3,0c0.5,0.6,1,0.3,1.4,0.1c0.3-0.1,0.6-0.3,0.9-0.4c0,0.1,0.1,0.1,0.1,0.2c-0.2,0.3-0.5,0.6-0.7,0.9
		c-1.6,1.6-3.3,2.9-5.1,4.1c-0.5,0.3-1,0.6-1.4,1c-0.1,0.1-0.3,0.4-0.2,0.4c0.1,0.2,0.2,0.3,0.4,0.4c0.1,0,0.3,0,0.4-0.1
		c0.3-0.1,0.6-0.3,1-0.4c0.1,0,0.3,0,0.4,0.1c0.2,0.6,0.6,0.3,0.9,0.2c0.1-0.1,0.2-0.2,0.4-0.2c0.1,0,0.2,0,0.4,0
		c-0.1,0.1-0.1,0.4-0.2,0.4c-0.3,0.2-0.5,0.4-0.8,0.5c-1.4,0.4-2.7,0.8-4.1,1.3c-0.2,0.1-0.4,0.3-0.6,0.4c0.2,0.2,0.4,0.4,0.6,0.6
		c0.1,0.1,0.3,0,0.4,0c0.3-0.1,0.6-0.1,1-0.2c0.2,0,0.3,0,0.5,0c-0.2,0.3-0.3,0.6-0.5,0.9c0.4,0.1,0.7,0.2,1.1,0.3
		c0.1,0.1,0.3,0.3,0.4,0.4c0.9,0.1,1.9,0,2.7-0.6c0.2-0.1,0.4-0.2,0.6-0.3c0,0,0,0.1,0.1,0.1c-0.4,0.3-0.8,0.6-1.1,0.9
		c-0.2,0.2-0.4,0.5-0.6,0.8c0.3,0.1,0.7,0.3,1,0.3c0.3,0,0.6-0.1,1.1-0.1c-0.1,0.2-0.2,0.3-0.3,0.4c-1,1.4-2.3,2.4-3.8,3.2
		c-0.3,0.1-0.8,0.2-0.6,0.7c0,0.1,0.6,0.2,0.9,0.2c0.5,0,1-0.1,1.4-0.2c0,0.1,0.1,0.1,0.1,0.2c-0.4,0.4-0.8,0.9-1.2,1.2
		c-0.1,0.1-0.3,0.1-0.4,0.2c-0.9-0.5-1.9-0.9-2.8-1.4c-0.2-0.1-0.3-0.3-0.6-0.5c0.2-0.1,0.3-0.1,0.4-0.2c0.1-0.1,0.2-0.1,0.3-0.2
		c-0.1-0.1-0.1-0.3-0.2-0.4c-0.1-0.1-0.1-0.1-0.2-0.2c-1.1-0.9-2.3-1.9-3.1-3.2c-0.2-0.2-0.3-0.5-0.4-0.9c0.4,0.1,0.6,0.2,0.9,0.3
		c0.5,0.1,1,0.1,1.5,0.1c0.1,0,0.3-0.2,0.4-0.3c0.1-0.3,0.2-0.3,0.4-0.3c0.2,0,0.5,0.1,0.7,0c0.1,0,0.3-0.2,0.4-0.3
		c-0.1-0.2-0.1-0.4-0.2-0.5c-0.2-0.2-0.5-0.3-0.8-0.4c-1.1-0.5-2.1-1.3-3-2.2c-0.1-0.1-0.2-0.3-0.4-0.6c0.6,0,1,0,1.4,0
		c0.4,0,0.4-0.3,0.3-0.6c0.4,0,0.8,0,1.2,0.1c0-0.1,0-0.2,0.1-0.2c-0.2-0.2-0.5-0.4-0.7-0.5c-0.7-0.4-1.3-0.8-2-1.2
		c-0.2-0.1-0.4-0.4-0.5-0.5c0.6-0.2,1.2-0.3,1.8-0.5c0-0.1,0-0.1,0-0.2c-1.1-0.9-2.5-1.6-3.3-3.2c0.3,0,0.6,0,1,0
		c-0.4-0.4-0.7-0.7-1-1c0.6-0.1,1.1-0.3,1.8-0.5c-0.7-0.7-1.6-0.7-2-1.6c0.1-0.1,0.2-0.1,0.4-0.2c-0.4-0.7-1-1.2-1.2-2
		c0.5-0.3,0.6-0.4,0.3-1c-0.1-0.3-0.3-0.6-0.4-0.9c-0.1-0.9-0.2-1.7-0.3-2.6c-0.1-0.4-0.1-0.8-0.2-1.2c-0.1,0-0.1,0-0.2,0
		c-0.1,0.2-0.2,0.4-0.2,0.6c-0.1,0.6-0.1,1.3-0.2,1.9c-0.2,1.2-0.5,2.3-0.8,3.5c-0.1,0.4-0.3,0.7,0.3,0.8c-0.6,1.3-1.6,2.1-2.7,2.8
		c0.7,0.5,1.4,0.2,2.1,0.2c-0.1,0.2-0.2,0.5-0.3,0.6c-0.6,0.5-1.3,1.1-1.9,1.6c-0.4,0.3-0.8,0.5-1.2,0.8c-0.1,0.1-0.1,0.3-0.2,0.5
		c0.1,0.1,0.3,0.2,0.4,0.2c0.2,0,0.5,0,0.6,0.1c0.4,0.5,0.9,0.4,1.3,0.2c0.2-0.1,0.5-0.1,0.8-0.2c0,0,0,0.1,0,0.1
		c-0.1,0.2-0.3,0.4-0.4,0.6c-0.7,0.8-1.5,1.4-2.4,1.9c-0.2,0.1-0.5,0.2-0.7,0.4c-0.1,0.1-0.2,0.3-0.1,0.4c0,0.1,0.2,0.2,0.3,0.2
		c0.7,0,1.3-0.1,2.1-0.1c-0.2,0.2-0.3,0.4-0.5,0.5c-1.3,0.8-2.6,1.6-3.8,2.4c-0.2,0.1-0.3,0.3-0.4,0.4c-0.1-0.1-0.1-0.1-0.2-0.2
		c-0.2-0.1-0.5-0.2-0.8-0.4c-1.2-0.6-2.5-1.2-3.7-1.8c-0.2-0.1-0.3-0.3-0.5-0.4c0.4-0.2,0.8-0.3,1.1-0.5c0-0.1,0-0.1,0-0.2
		c-1.9-0.8-3.8-1.7-5-3.7c0.5,0.1,0.9,0.2,1.3,0.2c0.6,0.1,0.8-0.1,0.9-0.7c0.4,0,0.9,0,1.3-0.1c0.2,0,0.3-0.2,0.4-0.3
		c-0.1-0.1-0.2-0.3-0.3-0.4c-0.2-0.2-0.5-0.3-0.7-0.5c0,0,0-0.1,0-0.1c0.3,0,0.6,0.1,0.9,0.1c0.6,0.1,1.1,0.2,1.7,0.1
		c0.3,0,0.5-0.3,0.7-0.5c-0.2-0.2-0.4-0.4-0.6-0.6c-0.1-0.1-0.3-0.1-0.5-0.2c-1.2-0.6-2.4-1.2-3.5-1.8c-0.2-0.1-0.3-0.3-0.6-0.5
		c0.2-0.1,0.3-0.1,0.4-0.2c0.1-0.1,0.2-0.1,0.3-0.2c-0.1-0.1-0.1-0.3-0.2-0.4c-0.1-0.1-0.1-0.1-0.2-0.2c-1.1-0.9-2.3-1.9-3.1-3.2
		c-0.2-0.2-0.3-0.5-0.4-0.9c0.4,0.1,0.6,0.2,0.9,0.3c0.5,0.1,1,0.1,1.5,0.1c0.1,0,0.3-0.2,0.4-0.3c0.1-0.3,0.2-0.3,0.4-0.3
		c0.2,0,0.5,0.1,0.7,0c0.1,0,0.3-0.2,0.4-0.3c-0.1-0.2-0.1-0.4-0.2-0.5c-0.2-0.2-0.5-0.3-0.8-0.4c-1.1-0.5-2.1-1.3-3-2.2
		c-0.1-0.1-0.2-0.3-0.4-0.6c0.6,0,1,0,1.4,0c0.4,0,0.4-0.3,0.3-0.6c0.4,0,0.8,0,1.2,0.1c0-0.1,0-0.2,0.1-0.2
		c-0.2-0.2-0.5-0.4-0.7-0.5c-0.7-0.4-1.3-0.8-2-1.2c-0.2-0.1-0.4-0.4-0.5-0.5c0.6-0.2,1.2-0.3,1.8-0.5c0-0.1,0-0.1,0-0.2
		c-1.1-0.9-2.5-1.6-3.3-3.2c0.3,0,0.6,0,1,0c-0.4-0.4-0.7-0.7-1-1c0.6-0.1,1.1-0.3,1.8-0.5c-0.7-0.7-1.6-0.7-2-1.6
		c0.1-0.1,0.2-0.1,0.4-0.2c-0.4-0.7-1-1.2-1.2-2c0.5-0.3,0.6-0.4,0.3-1c-0.1-0.3-0.3-0.6-0.4-0.9c-0.1-0.9-0.2-1.7-0.3-2.6
		c-0.1-0.4-0.1-0.8-0.2-1.2c-0.1,0-0.1,0-0.2,0c-0.1,0.2-0.2,0.4-0.2,0.6c-0.1,0.6-0.1,1.3-0.2,1.9c-0.2,1.2-0.5,2.3-0.8,3.5
		c-0.1,0.4-0.3,0.7,0.3,0.8c-0.6,1.3-1.6,2.1-2.7,2.8c0.7,0.5,1.4,0.2,2.1,0.2c-0.1,0.2-0.2,0.5-0.3,0.6c-0.6,0.5-1.3,1.1-1.9,1.6
		c-0.4,0.3-0.8,0.5-1.2,0.8c-0.1,0.1-0.1,0.3-0.2,0.5c0.1,0.1,0.3,0.2,0.4,0.2c0.2,0,0.5,0,0.6,0.1c0.4,0.5,0.9,0.4,1.3,0.2
		c0.2-0.1,0.5-0.1,0.8-0.2c0,0,0,0.1,0,0.1c-0.1,0.2-0.3,0.4-0.4,0.6c-0.7,0.8-1.5,1.4-2.4,1.9c-0.2,0.1-0.5,0.2-0.7,0.4
		c-0.1,0.1-0.2,0.3-0.1,0.4c0,0.1,0.2,0.2,0.3,0.2c0.7,0,1.3-0.1,2.1-0.1c-0.2,0.2-0.3,0.4-0.5,0.5c-1.3,0.8-2.6,1.6-3.8,2.4
		c-0.2,0.1-0.4,0.4-0.5,0.6c0.2,0.1,0.4,0.3,0.7,0.3c0.5,0,0.9-0.1,1.4-0.1c0.2,0.6,0.3,0.6,0.8,0.5c0.6-0.2,1.1-0.4,1.7-0.6
		c0.2-0.1,0.3-0.1,0.5-0.1c0,0,0.1,0.1,0.1,0.1c-0.3,0.3-0.5,0.7-0.8,1c-1.2,1.3-2.7,2.1-4.3,2.8c-0.2,0.1-0.3,0.3-0.5,0.5
		c0.2,0.2,0.4,0.3,0.6,0.4c0.2,0.1,0.4,0.1,0.7,0.1c-0.1,1,0,1.1,0.8,0.8c0.1,0,0.3-0.1,0.3,0c0.5,0.6,1,0.3,1.4,0.1
		c0.3-0.1,0.6-0.3,0.9-0.4c0,0.1,0.1,0.1,0.1,0.2c-0.2,0.3-0.5,0.6-0.7,0.9c-1.6,1.6-3.3,2.9-5.1,4.1c-0.2,0.1-0.4,0.2-0.5,0.3
		c0,0,0-0.1,0-0.1c-1.1-0.9-2.5-1.6-3.3-3.2c0.3,0,0.6,0,1,0c-0.4-0.4-0.7-0.7-1-1c0.6-0.1,1.1-0.3,1.8-0.5c-0.7-0.7-1.6-0.7-2-1.6
		c0.1-0.1,0.2-0.1,0.4-0.2c-0.4-0.7-1-1.2-1.2-2c0.5-0.3,0.6-0.4,0.3-1c-0.1-0.3-0.3-0.6-0.4-0.9c-0.1-0.9-0.2-1.7-0.3-2.6
		c-0.1-0.4-0.1-0.8-0.2-1.2c-0.1,0-0.1,0-0.2,0c-0.1,0.2-0.2,0.4-0.2,0.6c-0.1,0.6-0.1,1.3-0.2,1.9c-0.2,1.2-0.5,2.3-0.8,3.5
		c-0.1,0.4-0.3,0.7,0.3,0.8c-0.6,1.3-1.6,2.1-2.7,2.8c0.7,0.5,1.4,0.2,2.1,0.2c-0.1,0.2-0.2,0.5-0.3,0.6c-0.6,0.5-1.3,1.1-1.9,1.6
		c-0.4,0.3-0.8,0.5-1.2,0.8c-0.1,0.1-0.1,0.3-0.2,0.5c0.1,0.1,0.3,0.2,0.4,0.2c0.2,0,0.5,0,0.6,0.1c0.4,0.5,0.9,0.4,1.3,0.2
		c0.2-0.1,0.5-0.1,0.8-0.2c0,0,0,0.1,0,0.1c-0.1,0.2-0.3,0.4-0.4,0.6c-0.7,0.8-1.5,1.4-2.4,1.9c-0.2,0.1-0.4,0.2-0.6,0.4l0,0
		c-0.1-0.1-0.1-0.1-0.2-0.2c-1.1-0.9-2.3-1.9-3.1-3.2c-0.2-0.2-0.3-0.5-0.4-0.9c0.4,0.1,0.6,0.2,0.9,0.3c0.5,0.1,1,0.1,1.5,0.1
		c0.1,0,0.3-0.2,0.4-0.3c0.1-0.3,0.2-0.3,0.4-0.3c0.2,0,0.5,0.1,0.7,0c0.1,0,0.3-0.2,0.4-0.3c-0.1-0.2-0.1-0.4-0.2-0.5
		c-0.2-0.2-0.5-0.3-0.8-0.4c-1.1-0.5-2.1-1.3-3-2.2c-0.1-0.1-0.2-0.3-0.4-0.6c0.6,0,1,0,1.4,0c0.4,0,0.4-0.3,0.3-0.6
		c0.4,0,0.8,0,1.2,0.1c0-0.1,0-0.2,0.1-0.2c-0.2-0.2-0.5-0.4-0.7-0.5c-0.7-0.4-1.3-0.8-2-1.2c-0.2-0.1-0.4-0.4-0.5-0.5
		c0.6-0.2,1.2-0.3,1.8-0.5c0-0.1,0-0.1,0-0.2c-1.1-0.9-2.5-1.6-3.3-3.2c0.3,0,0.6,0,1,0c-0.4-0.4-0.7-0.7-1-1
		c0.6-0.1,1.1-0.3,1.8-0.5c-0.7-0.7-1.6-0.7-2-1.6c0.1-0.1,0.2-0.1,0.4-0.2c-0.4-0.7-1-1.2-1.2-2c0.5-0.3,0.6-0.4,0.3-1
		c-0.1-0.3-0.3-0.6-0.4-0.9c-0.1-0.9-0.2-1.7-0.3-2.6c-0.1-0.4-0.1-0.8-0.2-1.2c-0.1,0-0.1,0-0.2,0c-0.1,0.2-0.2,0.4-0.2,0.6
		c-0.1,0.6-0.1,1.3-0.2,1.9c-0.2,1.2-0.5,2.3-0.8,3.5c-0.1,0.4-0.3,0.7,0.3,0.8c-0.6,1.3-1.6,2.1-2.7,2.8c0.7,0.5,1.4,0.2,2.1,0.2
		c-0.1,0.2-0.2,0.5-0.3,0.6c-0.6,0.5-1.3,1.1-1.9,1.6c-0.4,0.3-0.8,0.5-1.2,0.8c-0.1,0.1-0.1,0.3-0.2,0.5c0.1,0.1,0.3,0.2,0.4,0.2
		c0.2,0,0.5,0,0.6,0.1c0.4,0.5,0.9,0.4,1.3,0.2c0.2-0.1,0.5-0.1,0.8-0.2c0,0,0,0.1,0,0.1c-0.1,0.2-0.3,0.4-0.4,0.6
		c-0.7,0.8-1.5,1.4-2.4,1.9c-0.1,0-0.1,0.1-0.2,0.1l-9.2-1.6c-10-1.5-16.2-3.9-24.3-9.5c-13.8-9.5-22.1-25.4-22.4-42.8
		c0.3-17.4,8.6-33.4,22.4-42.8c8.1-5.6,14.2-8,24.3-9.5l12.8-2.2v-27.4c2.3-0.7,3-1.1,3.4-1.2c30.1-12.9,48.3-33.8,55.6-63.7
		c0.1-0.3,0.1-0.5,0.2-0.9h4.5c0.1,0.3,0.1,0.6,0.2,0.9c7.3,29.9,25.5,50.8,55.6,63.7c0.3,0.1,1.1,0.5,3.3,1.2v27.4l12.8,2.2
		c10,1.5,16.2,3.9,24.3,9.5c13.8,9.4,22.1,25.4,22.4,42.8C418.2,438.3,409.8,454.3,396.1,463.8z"/>
	<path id="XMLID_1051_" class="st0" fill="#BB2025" d="M296.7,520.8c0.3-0.8,0.4-1.6,0.8-2.3c0.4-0.7,0.1-1.1-0.3-1.6c-0.5-0.6-1-1.2-1.5-1.8
		c-0.4-0.5-0.7-0.5-0.9,0.1c-0.4,1-0.7,2-1.1,3c0.1,0.2,0.1,0.4,0.2,0.6c0.6,0.7,1.2,1.5,1.9,2.2
		C296.2,521.4,296.5,521.3,296.7,520.8z"/>
	<path id="XMLID_1052_" class="st0" fill="#BB2025" d="M304.2,524.9c-0.2-0.2-0.5-0.3-0.7-0.5c-1.1,0.2-2.2,0.4-3.2,0.6c-0.6,0.1-0.7,0.4-0.3,0.9
		c0.6,0.7,1.2,1.4,1.8,2.1c0.3,0.3,0.5,0.4,0.9,0.3c1-0.2,2-0.3,3-0.5c0.5-0.1,0.6-0.3,0.3-0.7C305.4,526.3,304.8,525.6,304.2,524.9
		z"/>
	<path id="XMLID_1053_" class="st0" fill="#BB2025" d="M298.1,527.4c-0.4-0.4-0.7-0.4-0.9,0.1c-0.3,1-0.7,2-1,3c0,0.2,0,0.4,0.1,0.5
		c0.7,0.8,1.3,1.6,2,2.4c0.3,0.3,0.5,0.3,0.7-0.1c0.4-1,0.7-2.1,1.1-3.2c0-0.1-0.1-0.4-0.2-0.5C299.4,528.9,298.8,528.2,298.1,527.4
		z"/>
	<path id="XMLID_1054_" class="st0" fill="#BB2025" d="M294.4,526c-0.7,0.1-1.3,0.2-2,0.3c-1.6,0.2-1.3,0-1.9,1.6c-0.3,0.8-0.5,1.5-0.7,2.3
		c0.1,0,0.2,0.1,0.2,0.1c1.1-0.2,2.2-0.3,3.3-0.5c0.2,0,0.4-0.2,0.4-0.4c0.4-1,0.7-2,1-3C294.8,526.1,294.7,526,294.4,526z"/>
	<circle id="XMLID_1055_" class="st0" fill="#BB2025" cx="202.7" cy="405.8" r="2.3"/>
	<circle id="XMLID_1056_" class="st0" fill="#BB2025" cx="224.3" cy="396.7" r="1.9"/>
	<circle id="XMLID_1057_" class="st0" fill="#BB2025" cx="264.3" cy="357.7" r="1.9"/>
	<circle id="XMLID_1058_" class="st0" fill="#BB2025" cx="335.5" cy="357.5" r="2.8"/>
	<circle id="XMLID_1059_" class="st0" fill="#BB2025" cx="323.3" cy="364.2" r="1.9"/>
	<circle id="XMLID_1060_" class="st0" fill="#BB2025" cx="318.1" cy="373.4" r="1.4"/>
	<circle id="XMLID_1061_" class="st0" fill="#BB2025" cx="350" cy="374.8" r="1.5"/>
	<circle id="XMLID_1062_" class="st0" fill="#BB2025" cx="382.1" cy="383.2" r="2.6"/>
	<circle id="XMLID_1063_" class="st0" fill="#BB2025" cx="401.7" cy="391.5" r="2.8"/>
	<circle id="XMLID_1064_" class="st0" fill="#BB2025" cx="265.2" cy="339.8" r="2.3"/>
	<circle id="XMLID_1065_" class="st0" fill="#BB2025" cx="278.3" cy="370.7" r="2.6"/>
	<circle id="XMLID_1066_" class="st0" fill="#BB2025" cx="245.5" cy="349.5" r="2.3"/>
	<circle id="XMLID_1067_" class="st0" fill="#BB2025" cx="334.2" cy="338" r="2.5"/>
	<circle id="XMLID_1068_" class="st0" fill="#BB2025" cx="304.1" cy="344.6" r="2.5"/>
	<circle id="XMLID_1069_" class="st0" fill="#BB2025" cx="298.8" cy="305.9" r="2.5"/>
	<circle id="XMLID_1070_" class="st0" fill="#BB2025" cx="197.1" cy="421.4" r="1.9"/>
	<circle id="XMLID_1071_" class="st0" fill="#BB2025" cx="208.8" cy="386.7" r="2.9"/>
	<circle id="XMLID_1072_" class="st0" fill="#BB2025" cx="288.8" cy="415.9" r="1.9"/>
	<circle id="XMLID_1073_" class="st0" fill="#BB2025" cx="220.6" cy="423.9" r="2.9"/>
	<circle id="XMLID_1074_" class="st0" fill="#BB2025" cx="392.7" cy="400.5" r="2.3"/>
	<circle id="XMLID_1075_" class="st0" fill="#BB2025" cx="299.2" cy="362.3" r="2.5"/>
	<circle id="XMLID_1076_" class="st0" fill="#BB2025" cx="311.7" cy="323.8" r="2.8"/>
	<circle id="XMLID_1077_" class="st0" fill="#BB2025" cx="299.6" cy="330.4" r="1.9"/>
	<circle id="XMLID_1078_" class="st0" fill="#BB2025" cx="275.5" cy="328.6" r="2.5"/>
</g>
</svg>
