<?xml version="1.0" encoding="utf-8"?>
<!-- Generator: Adobe Illustrator 19.0.0, SVG Export Plug-In . SVG Version: 6.00 Build 0)  -->
<svg version="1.1" id="Layer_1" xmlns="http://www.w3.org/2000/svg" xmlns:xlink="http://www.w3.org/1999/xlink" x="0px" y="0px"
	 viewBox="0 0 595.3 841.9" style="enable-background:new 0 0 595.3 841.9;" xml:space="preserve">
<style type="text/css">
	.st0{fill:#BB2025;}
</style>
<g id="XMLID_2_">
	<path id="XMLID_3_" class="st0" fill="#BB2025" d="M285.8,413.9c-1.9,0.3-2-0.2-6.2-2.7c-4.2-2.4-7.1,0.6-8.8,3.1s-4.2,6.5-4.2,6.5
		c-2.3,1.1,1-4.9,3.8-10.9c2.8-6-2.5-13.2-5.7-19.1s-1-10.2-1-10.2c-6.2,2.6-3.8,6.6-3.8,6.6c-2.6-0.1-3.9-3.9-3.9-3.9
		c-1.6,2.4-1,5.9-1,5.9c-1.6-0.4-2.7-1.8-2.7-1.8c-1.6,4.2,1.4,6.8,1.4,6.8c-3.2,0.1-4.6-3.1-4.6-3.1c-2.7,4.5,1.5,7.2,1.5,7.2
		c-1.2,0.4-3.4-0.4-3.4-0.4c0.1,5.1,3,7.4,4.2,8.1c-4.2-2.3-16.5-7.8-20.2-9.7c-3.8-2-6.7-11-6.7-11c-8.8,7.9,1.3,15.2,1.3,15.2
		c-4.6,0.8-6.6-2.9-6.6-2.9c-1,8.7,6.7,8.5,6.7,8.5c-3.1,4-7.3,0.3-7.3,0.3c1,9,7.9,7.5,7.9,7.5c-1.6,3.3-6.2,1.4-6.2,1.4
		c2.7,6.2,8.2,4.7,8.2,4.7c-0.4,1.9-5.9,1.7-5.9,1.7c1.3,5.6,8,3,8,3c-0.4,1.8-5.2,3-5.2,3c4.5,4.2,8.4,0.7,8.4,0.7
		c0.1,3.1-4.6,3.9-4.6,3.9c5.5,4.1,8.6,0.8,8.6,0.8c1.2,2.1-2.4,3.4-2.4,3.4c5.4,1.6,7.7-1,7.7-1c-0.1,1.8-1.3,3.3-1.3,3.3
		c2,0,4.9-0.2,4.9-0.2c-5.9,8.3-20.8,4.2-25.2,3.5s-3.8,2.1-2.7,2.4c1,0.4,2.3,1.7,1,2.7c-1.3,1-2.4,1.5-2.8,2.9s3.5,3,2.6,3.6
		c-0.9,0.6-1.5,3.3,0,3.8c1.5,0.5,3.9,0.4,2.4,1.8c-1.5,1.3-0.4,3.9,1,3.8c1.5-0.1,3.7-2.2,3.3,0.2c-0.4,2.4,1.8,3,2.4,2.5
		s2.7-1.7,2.3,1.3c-0.4,3,5.8,3,7.9,0c2.2-3,0-14.7,20.5-20.8c20.5-6.1,18.2-20.3,19.4-25.1s9.8-5.7,9.8-6.3
		S287.7,413.6,285.8,413.9z"/>
	<path id="XMLID_21_" class="st0" fill="#BB2025" d="M355.6,415.3c-1.3-1-0.1-2.3,1-2.7s1.7-3.1-2.7-2.4c-4.5,0.7-19.4,4.8-25.2-3.5
		c0,0,2.9,0.2,4.9,0.2c0,0-1.2-1.5-1.3-3.3c0,0,2.3,2.6,7.7,1c0,0-3.6-1.3-2.4-3.4c0,0,3.1,3.3,8.6-0.8c0,0-4.7-0.7-4.6-3.9
		c0,0,3.9,3.5,8.4-0.7c0,0-4.7-1.3-5.2-3c0,0,6.7,2.5,8-3c0,0-5.5,0.2-5.9-1.7c0,0,5.5,1.6,8.2-4.7c0,0-4.7,1.9-6.2-1.4
		c0,0,7,1.5,7.9-7.5c0,0-4.2,3.7-7.3-0.3c0,0,7.7,0.2,6.7-8.5c0,0-2,3.7-6.6,2.9c0,0,10.1-7.3,1.3-15.2c0,0-2.9,9-6.7,11
		c-3.7,1.9-16,7.4-20.2,9.7c1.1-0.7,4-3,4.2-8.1c0,0-2.2,0.9-3.4,0.4c0,0,4.2-2.7,1.5-7.2c0,0-1.4,3.2-4.6,3.1c0,0,3-2.7,1.4-6.8
		c0,0-1,1.4-2.7,1.8c0,0,0.7-3.4-1-5.9c0,0-1.3,3.8-3.9,3.9c0,0,2.4-4-3.8-6.6c0,0,2.2,4.3-1,10.2S302.1,372,305,378
		c2.8,6,6.1,12,3.8,10.9c0,0-2.4-3.9-4.2-6.5s-4.6-5.6-8.8-3.1s-4.3,3-6.2,2.7c-1.9-0.3-2.8,0.4-2.8,1c0,0.6,8.7,1.5,9.8,6.3
		c1.1,4.8-1.2,19,19.4,25.1c20.5,6.1,18.4,17.7,20.5,20.8c2.2,3,8.4,3,7.9,0c-0.4-3,1.6-1.8,2.3-1.3c0.7,0.4,2.9-0.1,2.4-2.5
		c-0.4-2.4,1.8-0.4,3.3-0.2c1.5,0.1,2.5-2.4,1-3.8c-1.5-1.3,1-1.3,2.4-1.8c1.5-0.5,0.9-3.2,0-3.8c-0.9-0.6,3-2.2,2.6-3.6
		C358,416.8,357,416.3,355.6,415.3z"/>
	<path id="XMLID_24_" class="st0" fill="#BB2025" d="M399.7,372.9c-12.7-8.8-19.9-9.3-34.3-11.8v-26.7c-2.6-0.8-5.8-1.8-7.2-2.4
		c-6.2-2.7-11.8-5.7-17-9.1c-1-0.7-2-1.4-3-2.1c-1.1-0.8-2.2-1.6-3.2-2.4c-1-0.8-1.9-1.5-2.8-2.3c-13-11.2-21.6-25.6-25.9-43.5
		c-0.3-1.3-0.7-3.6-1-5.7H290c-0.3,2.1-0.7,4.4-1,5.7c-4.4,17.9-12.9,32.3-25.9,43.5c-0.9,0.8-1.8,1.6-2.8,2.3
		c-1,0.8-2.1,1.6-3.2,2.4c-1,0.7-2,1.4-3,2.1c-5.1,3.4-10.8,6.4-16.9,9.1c-1.3,0.6-4.6,1.6-7.2,2.4v26.7
		c-14.4,2.5-21.5,2.9-34.3,11.8c-15.5,10.6-24.9,28.6-25.1,48.1c0.3,19.4,9.7,37.4,25.2,48c12.8,8.8,20,9.4,34.3,11.8v26.6
		c2.6,0.8,5.8,1.8,7.2,2.4c28.1,12.1,45.1,31.5,51.9,59.4c0.3,1.3,0.7,3.6,1,5.7h15.2c0.3-2.1,0.7-4.4,1-5.7
		c6.8-27.8,23.8-47.3,51.9-59.4c1.3-0.6,4.6-1.6,7.2-2.4v-26.6c14.4-2.5,21.6-2.9,34.3-11.8c15.5-10.6,24.9-28.6,25.2-48.1
		C424.5,401.5,415.1,383.5,399.7,372.9z M264.9,323c0.8-0.6,1.6-1.3,2.4-2c14-12.1,23.2-27.6,27.9-46.8c0.1-0.3,0.1-0.5,0.2-0.9h4.5
		c0.1,0.3,0.1,0.6,0.2,0.9C304.8,293.5,314,309,328,321c0.8,0.7,1.6,1.3,2.4,2c1.7,1.4,3.4,2.7,5.2,3.9c-0.1,0.1-0.3,0.2-0.4,0.3
		c-1.3,0.9-2.8,1.8-4.6,2.7c-0.6,0.3-1.1,0.6-1.7,0.8c-0.7-1.4-1.7-2.6-3.1-3.5c-1.5-1.1-3.2-1.9-5.2-2.3c-0.4-1.6-1.1-3-2.1-4.2
		c-1.9-2.5-4.6-3.7-7.9-3.7c-0.8,0-1.6,0.1-2.4,0.2c-0.5-2-1.4-3.8-2.8-5.4c-2.2-2.4-4.8-3.6-7.8-3.6c-3.1,0-5.7,1.2-7.8,3.6
		c-1.4,1.5-2.3,3.3-2.8,5.4c-0.8-0.1-1.6-0.2-2.4-0.2c-3.3,0-6,1.3-7.9,3.7c-0.9,1.2-1.6,2.6-2.1,4.2c-2,0.4-3.7,1.2-5.2,2.3
		c-1.3,1-2.4,2.2-3.1,3.5c-0.5-0.3-1.1-0.6-1.6-0.8c-1.8-0.9-3.3-1.8-4.6-2.7c-0.1-0.1-0.3-0.2-0.4-0.3
		C261.5,325.6,263.2,324.3,264.9,323z M327.1,335.5c0,0.8-0.2,1.5-0.5,1.9c-0.2,0.3-0.4,0.3-0.5,0.3c-0.2,0-0.3,0-0.3,0
		c0,0,0-0.1,0-0.3c0-0.7,0.4-1.4,1.3-2.1C327.1,335.4,327.1,335.4,327.1,335.5z M318.2,328.9c0,0.9-0.1,1.9-0.3,2.9
		c-0.2,1-0.5,1.9-0.8,2.8c-0.4,0.9-0.8,1.7-1.4,2.4c-0.6,0.7-1.2,1.2-2,1.6c-0.7,0.4-1.6,0.6-2.6,0.6c-0.8,0-1.4-0.2-1.9-0.5
		c-0.5-0.4-0.9-0.8-1.2-1.4c-0.3-0.6-0.4-1.4-0.4-2.1c0-1.9,0.7-3.6,2.2-5c1.7-1.7,4.2-2.6,7.2-2.6c0.4,0,0.8,0,1.1,0
		C318.2,328,318.2,328.4,318.2,328.9z M305.6,321.3c-0.1,1.5-0.4,2.9-1.1,4c-0.5,0.9-1.1,1.5-1.6,1.6c0-0.1,0-0.1-0.1-0.2
		c0-0.2-0.1-0.4-0.1-0.6c0-2,0.8-3.5,2.6-4.7C305.4,321.4,305.5,321.3,305.6,321.3z M289.9,321.4c1.7,1.2,2.6,2.7,2.6,4.7
		c0,0.2,0,0.4-0.1,0.6c0,0.1,0,0.1-0.1,0.2c-0.5-0.1-1-0.7-1.6-1.6c-0.6-1.1-1-2.5-1.1-4C289.8,321.3,289.8,321.4,289.9,321.4z
		 M278.2,327.4c3,0,5.5,0.9,7.2,2.6c1.5,1.5,2.2,3.2,2.2,5c0,0.8-0.1,1.5-0.4,2.1c-0.3,0.6-0.7,1.1-1.2,1.4
		c-0.5,0.3-1.1,0.5-1.9,0.5c-1,0-1.8-0.2-2.6-0.6c-0.8-0.4-1.4-0.9-2-1.6c-0.6-0.7-1.1-1.5-1.4-2.4c-0.4-0.9-0.7-1.9-0.8-2.8
		c-0.2-1-0.3-1.9-0.3-2.9c0-0.5,0-1,0.1-1.5C277.5,327.5,277.9,327.4,278.2,327.4z M269.5,337.4c0,0.3,0,0.3,0,0.3c0,0-0.1,0-0.3,0
		c-0.1,0-0.2,0-0.5-0.3c-0.4-0.5-0.5-1.1-0.5-1.9c0-0.1,0-0.1,0-0.2C269.1,336,269.5,336.7,269.5,337.4z M347.4,507.5
		c-0.8,0.7-1.9,1.1-3.2,1.1c-0.5,0-1-0.1-1.4-0.3c-1.2-0.5-2.1-1.3-2.8-2.4c-0.8-1.2-1.2-2.5-1.5-3.8c-0.1-0.9-0.9-1.5-1.8-1.5
		c-0.9,0-1.6,0.6-1.8,1.5c-0.3,1.7,1.9,5.8,2.6,6.8c0.9,1.2,2.1,2.1,3.4,2.7c-21.4,13-34.9,31.5-40.9,56.2c-0.1,0.3-0.1,0.5-0.2,0.9
		h-4.5c-0.1-0.3-0.1-0.6-0.2-0.9c-6-24.7-19.5-43.2-40.9-56.2c1.4-0.6,2.5-1.5,3.5-2.7c0.8-1,2.9-5,2.6-6.8
		c-0.2-0.9-0.8-1.5-1.8-1.5c-1,0-1.7,0.6-1.8,1.5c-0.2,1.3-0.7,2.6-1.5,3.8c-0.7,1.1-1.6,1.9-2.8,2.4c-0.5,0.2-1,0.3-1.4,0.3
		c-1.3,0-2.4-0.4-3.2-1.1c-0.8-0.7-1.2-1.8-1.2-3.1c0-2.7,1.3-4.9,3.8-6.8c1.6-1.1,3.5-2.2,5.8-3.3c0.7-0.4,1.4-0.7,2.1-1
		c0.9,1.7,2.2,3.2,3.9,4.4c1.9,1.4,4.1,2.3,6.5,2.9c0.6,2,1.4,3.7,2.6,5.3c2.4,3.1,5.7,4.7,9.9,4.7c1,0,2-0.1,3-0.3
		c0.6,2.5,1.8,4.8,3.5,6.7c2.7,3,6,4.6,9.8,4.6c3.8,0,7.1-1.5,9.8-4.6c1.7-1.9,2.9-4.2,3.5-6.7c1,0.2,2,0.3,3,0.3
		c4.2,0,7.5-1.6,9.9-4.7c1.2-1.5,2.1-3.3,2.6-5.3c2.5-0.6,4.7-1.5,6.5-2.9c1.7-1.2,3-2.7,3.9-4.4c0.6,0.3,1.3,0.7,2.1,1
		c2.3,1.1,4.2,2.2,5.8,3.3c2.5,1.8,3.8,4.1,3.8,6.8C348.6,505.7,348.2,506.7,347.4,507.5z M260.7,487.2c0-1,0.2-1.8,0.7-2.4
		c0.3-0.4,0.5-0.4,0.6-0.4c0.3,0,0.4,0,0.4,0c0,0,0.1,0.1,0.1,0.4c0,0.8-0.6,1.7-1.7,2.6C260.7,487.4,260.7,487.3,260.7,487.2z
		 M271.8,495.4c0-1.1,0.1-2.3,0.3-3.6c0.2-1.2,0.6-2.4,1.1-3.6c0.5-1.1,1.1-2.1,1.8-3c0.7-0.8,1.5-1.5,2.5-2c0.9-0.5,2-0.7,3.2-0.7
		c1,0,1.8,0.2,2.4,0.6c0.7,0.4,1.2,1.1,1.5,1.8c0.4,0.8,0.6,1.7,0.6,2.7c0,2.4-0.9,4.5-2.8,6.3c-2.2,2.2-5.2,3.3-9,3.3
		c-0.5,0-0.9,0-1.4-0.1C271.8,496.7,271.8,496.1,271.8,495.4z M287.7,505c0.1-1.9,0.6-3.6,1.4-5c0.7-1.2,1.4-1.9,1.9-2
		c0,0.1,0.1,0.2,0.1,0.3c0,0.3,0.1,0.5,0.1,0.7c0,2.5-1,4.4-3.2,5.9C287.9,504.9,287.8,505,287.7,505z M307.3,504.9
		c-2.2-1.5-3.2-3.4-3.2-5.9c0-0.2,0-0.4,0.1-0.7c0-0.1,0-0.2,0.1-0.3c0.6,0.1,1.3,0.9,1.9,2c0.8,1.4,1.3,3.1,1.4,5
		C307.5,505,307.4,505,307.3,504.9z M322,497.3c-3.8,0-6.9-1.1-9-3.3c-1.8-1.8-2.8-4-2.8-6.3c0-1,0.2-1.9,0.6-2.7
		c0.3-0.8,0.9-1.4,1.5-1.8c0.6-0.4,1.4-0.6,2.4-0.6c1.2,0,2.3,0.2,3.2,0.7c0.9,0.5,1.8,1.2,2.5,2c0.7,0.9,1.3,1.9,1.8,3
		c0.5,1.2,0.8,2.4,1.1,3.6c0.2,1.2,0.3,2.4,0.3,3.6c0,0.6,0,1.2-0.1,1.8C322.9,497.3,322.4,497.3,322,497.3z M332.9,484.8
		c0-0.3,0.1-0.4,0.1-0.4c0,0,0.1,0,0.4,0c0.1,0,0.3,0,0.6,0.4c0.4,0.6,0.7,1.4,0.7,2.4c0,0.1,0,0.2,0,0.2
		C333.4,486.6,332.9,485.7,332.9,484.8z M396.1,463.8c-8.1,5.6-14.2,8-24.3,9.5l-12.8,2.2v27.3c-2.3,0.7-3,1.1-3.4,1.2
		c-1.2,0.5-2.3,1-3.4,1.5c0.1-0.4,0.1-0.8,0.1-1.3c0-3.8-1.8-7-5.4-9.6c-1.8-1.3-3.9-2.5-6.1-3.5c-1-0.5-1.9-0.9-2.7-1.4
		c0.1-0.8,0.2-1.6,0.2-2.5c0-1.9-0.5-3.4-1.4-4.7c-0.9-1.3-2.2-1.9-3.6-1.9c-1.2,0-2.3,0.4-3,1.2c-0.8,0.8-1.2,1.8-1.2,3
		c0,2.3,1.5,4.5,4.6,6.5c-0.6,1.3-1.6,2.5-3,3.4c-1,0.7-2.2,1.3-3.5,1.8c0-0.3,0-0.7,0-1c0-1.4-0.2-2.9-0.5-4.5
		c-0.3-1.5-0.8-3-1.4-4.4c-0.6-1.4-1.4-2.7-2.4-3.9c-1-1.2-2.2-2.1-3.6-2.8c-1.4-0.7-3-1.1-4.8-1.1c-1.7,0-3.2,0.4-4.4,1.3
		c-1.2,0.8-2.2,1.9-2.8,3.3c-0.6,1.3-1,2.8-1,4.4c0,3.4,1.3,6.4,3.9,9c3,3,7.1,4.5,12.1,4.4c-0.4,0.9-0.8,1.6-1.4,2.4
		c-1.7,2.2-4,3.3-7,3.3c-0.9,0-1.7-0.1-2.5-0.2c0-0.2,0-0.4,0-0.6c0-3.2-0.7-6-2.1-8.2c-1.5-2.4-3.3-3.6-5.3-3.6c-1,0-1.9,0.3-2.5,1
		c-0.5,0.5-0.9,1.2-1.1,2c-0.2,0.7-0.3,1.3-0.3,2c0,4.1,1.9,7.2,5.6,9.4c0.5,0.3,0.9,0.5,1.4,0.7c-0.5,2.1-1.4,3.9-2.8,5.4
		c-2,2.1-4.3,3.2-6.8,3.2c-2.5,0-4.8-1.1-6.8-3.2c-1.4-1.5-2.3-3.3-2.8-5.4c0.5-0.2,1-0.5,1.5-0.7c3.7-2.2,5.6-5.3,5.6-9.4
		c0-0.7-0.1-1.3-0.3-2c-0.2-0.8-0.6-1.4-1.1-2c-0.6-0.6-1.5-1-2.5-1c-2,0-3.8,1.2-5.3,3.6c-1.4,2.2-2.1,5-2.1,8.2c0,0.2,0,0.4,0,0.6
		c-0.8,0.1-1.7,0.2-2.5,0.2c-3,0-5.4-1.1-7-3.3c-0.5-0.7-1-1.5-1.4-2.4c5,0.1,9.2-1.4,12.1-4.4c2.6-2.6,3.9-5.6,3.9-9
		c0-1.6-0.3-3-1-4.4c-0.6-1.4-1.6-2.5-2.8-3.3c-1.2-0.8-2.7-1.3-4.4-1.3c-1.8,0-3.4,0.4-4.8,1.1c-1.4,0.7-2.6,1.7-3.6,2.8
		c-1,1.1-1.8,2.5-2.4,3.9c-0.6,1.4-1.1,2.9-1.4,4.4c-0.3,1.5-0.5,3-0.5,4.5c0,0.3,0,0.7,0,1c-1.3-0.4-2.5-1-3.5-1.8
		c-1.3-0.9-2.3-2.1-3-3.4c3-2,4.6-4.2,4.6-6.5c0-1.2-0.4-2.2-1.2-3s-1.8-1.2-3-1.2c-1.4,0-2.6,0.6-3.6,1.9c-0.9,1.2-1.4,2.8-1.4,4.7
		c0,0.9,0.1,1.7,0.2,2.5c-0.8,0.4-1.7,0.9-2.7,1.4c-2.2,1-4.2,2.2-6.1,3.5c-3.6,2.6-5.4,5.8-5.4,9.6c0,0.5,0,0.9,0.1,1.3
		c-1.1-0.5-2.3-1-3.4-1.5c-0.3-0.1-1.1-0.5-3.3-1.2v-27.3l-12.8-2.2c-10-1.5-16.2-3.9-24.3-9.5c-13.8-9.5-22.1-25.4-22.4-42.8
		c0.3-17.4,8.6-33.4,22.4-42.8c8.1-5.6,14.2-8,24.3-9.5l12.8-2.2v-27.4c2.3-0.7,3-1.1,3.4-1.2c6.4-2.7,12.2-5.8,17.5-9.3
		c0.4,0.3,0.8,0.7,1.2,1c1.4,1,3.1,2,4.8,2.8c0.8,0.4,1.5,0.7,2.2,1.1c-0.1,0.6-0.2,1.3-0.2,2c0,1.5,0.4,2.7,1.1,3.7
		c0.8,1,1.7,1.5,2.9,1.5c1,0,1.8-0.3,2.4-0.9c0.6-0.6,0.9-1.4,0.9-2.4c0-1.8-1.2-3.6-3.6-5.2c0.5-1.1,1.3-2,2.4-2.7
		c0.8-0.6,1.8-1.1,2.8-1.4c0,0.3,0,0.6,0,0.8c0,1.2,0.1,2.4,0.4,3.6c0.2,1.2,0.6,2.4,1.1,3.5c0.5,1.1,1.1,2.2,1.9,3.1
		c0.8,0.9,1.8,1.7,2.9,2.3c1.1,0.6,2.4,0.9,3.8,0.9c1.4,0,2.5-0.3,3.5-1c1-0.7,1.7-1.5,2.2-2.6c0.5-1.1,0.8-2.2,0.8-3.5
		c0-2.7-1-5.1-3.1-7.2c-2.3-2.3-5.5-3.5-9.3-3.5c-0.1,0-0.2,0-0.4,0c0.3-0.7,0.7-1.3,1.1-1.9c1.3-1.8,3.2-2.7,5.6-2.7
		c0.7,0,1.4,0.1,2,0.2c0,0.2,0,0.3,0,0.5c0,2.6,0.6,4.8,1.7,6.5c1.2,1.9,2.6,2.9,4.3,2.9c0.8,0,1.5-0.3,2-0.8c0.4-0.4,0.7-1,0.9-1.6
		c0.1-0.5,0.2-1.1,0.2-1.6c0-3.3-1.5-5.8-4.5-7.5c-0.4-0.2-0.7-0.4-1.1-0.6c0.4-1.7,1.1-3.1,2.2-4.3c1.6-1.7,3.5-2.6,5.4-2.6
		c2,0,3.8,0.9,5.5,2.6c1.1,1.2,1.9,2.6,2.2,4.3c-0.4,0.2-0.8,0.4-1.2,0.6c-3,1.7-4.5,4.3-4.5,7.5c0,0.5,0.1,1.1,0.2,1.6
		c0.2,0.6,0.5,1.1,0.9,1.6c0.5,0.5,1.2,0.8,2,0.8c1.6,0,3-1,4.3-2.9c1.1-1.8,1.7-4,1.7-6.5c0-0.2,0-0.3,0-0.5c0.6-0.1,1.3-0.2,2-0.2
		c2.4,0,4.3,0.9,5.6,2.7c0.4,0.6,0.8,1.2,1.1,1.9c-4-0.1-7.3,1.1-9.7,3.5c-2,2.1-3.1,4.5-3.1,7.2c0,1.3,0.3,2.4,0.8,3.5
		c0.5,1.1,1.3,2,2.2,2.6c1,0.7,2.2,1,3.5,1c1.4,0,2.7-0.3,3.8-0.9c1.1-0.6,2.1-1.3,2.9-2.3c0.8-0.9,1.4-2,1.9-3.1
		c0.5-1.1,0.9-2.3,1.1-3.5c0.2-1.2,0.4-2.4,0.4-3.6c0-0.3,0-0.6,0-0.8c1,0.3,2,0.8,2.8,1.4c1.1,0.8,1.9,1.7,2.4,2.7
		c-2.4,1.6-3.6,3.4-3.6,5.2c0,1,0.3,1.8,0.9,2.4c0.6,0.6,1.4,0.9,2.4,0.9c1.1,0,2.1-0.5,2.9-1.5c0.8-1,1.1-2.2,1.1-3.7
		c0-0.7-0.1-1.4-0.2-2c0.7-0.4,1.4-0.7,2.2-1.1c1.8-0.8,3.4-1.8,4.8-2.8c0.4-0.3,0.8-0.6,1.2-1c5.3,3.5,11.2,6.6,17.5,9.3
		c0.3,0.1,1.1,0.5,3.3,1.2v27.4l12.8,2.2c10,1.5,16.2,3.9,24.3,9.5c13.8,9.4,22.1,25.4,22.4,42.8
		C418.2,438.3,409.8,454.3,396.1,463.8z"/>
	<circle id="XMLID_56_" class="st0" fill="#BB2025" cx="250.8" cy="356.3" r="4.1"/>
	<circle id="XMLID_57_" class="st0" fill="#BB2025" cx="387.1" cy="412" r="4.8"/>
	<circle id="XMLID_58_" class="st0" fill="#BB2025" cx="374.1" cy="454.5" r="5.3"/>
	<circle id="XMLID_59_" class="st0" fill="#BB2025" cx="319.7" cy="462.6" r="2.9"/>
	<circle id="XMLID_60_" class="st0" fill="#BB2025" cx="301.7" cy="437.3" r="4.1"/>
	<circle id="XMLID_61_" class="st0" fill="#BB2025" cx="196.5" cy="406.9" r="4.6"/>
	<circle id="XMLID_62_" class="st0" fill="#BB2025" cx="202.6" cy="447.7" r="1.5"/>
	<circle id="XMLID_63_" class="st0" fill="#BB2025" cx="274.4" cy="457.1" r="2.6"/>
	<circle id="XMLID_64_" class="st0" fill="#BB2025" cx="335.9" cy="349.7" r="3"/>
	<circle id="XMLID_65_" class="st0" fill="#BB2025" cx="286.4" cy="361.6" r="1.3"/>
	<circle id="XMLID_66_" class="st0" fill="#BB2025" cx="273.3" cy="378.5" r="3.8"/>
	<circle id="XMLID_67_" class="st0" fill="#BB2025" cx="389.5" cy="433.1" r="2.4"/>
	<circle id="XMLID_68_" class="st0" fill="#BB2025" cx="368.8" cy="390.2" r="3"/>
	<circle id="XMLID_69_" class="st0" fill="#BB2025" cx="403.5" cy="409.4" r="2.1"/>
</g>
</svg>
