<?xml version="1.0" encoding="utf-8"?>
<!-- Generator: Adobe Illustrator 19.0.0, SVG Export Plug-In . SVG Version: 6.00 Build 0)  -->
<svg version="1.1" id="Layer_1" xmlns="http://www.w3.org/2000/svg" xmlns:xlink="http://www.w3.org/1999/xlink" x="0px" y="0px"
	 viewBox="0 0 595.3 841.9" style="enable-background:new 0 0 595.3 841.9;" xml:space="preserve">
<style type="text/css">
	.st0{fill:#BB2025;}
</style>
<g id="XMLID_4_">
	<path id="XMLID_21_" class="st0" fill="#BB2025" d="M399.7,372.9c-12.8-8.8-20-9.4-34.3-11.8v-26.6c-2.6-0.8-5.8-1.8-7.2-2.4
		c-28.1-12.1-45.1-31.5-51.9-59.4c-0.3-1.3-0.7-3.6-1-5.7H290c-0.3,2.1-0.7,4.4-1,5.7c-6.8,27.8-23.8,47.3-51.9,59.4
		c-1.3,0.6-4.6,1.6-7.2,2.4v26.6c-14.4,2.5-21.6,2.9-34.3,11.8c-15.5,10.6-24.9,28.6-25.2,48.1c0.3,18.5,8.8,35.6,22.9,46.4
		c0.7,0.6,1.5,1.1,2.3,1.7c9.3,6.4,15.6,8.4,24,10c2.7,0.5,5.5,1,8.8,1.5c0.5,0.1,1,0.2,1.5,0.3v2.3v4.4v9.3v1.7v4.4v1.8v2.7
		c2,0.6,4.4,1.3,6,1.9c0.5,0.2,0.9,0.3,1.2,0.5c4.4,1.9,8.5,3.9,12.3,6.2c6.9,4,13,8.7,18.2,13.9c0.1,0.1,0.3,0.3,0.4,0.4
		c3,3.1,5.7,6.3,8.1,9.8c5.4,7.7,9.5,16.5,12.1,26.4c0.2,0.9,0.5,1.8,0.7,2.7c0.3,1.3,0.7,3.6,1,5.7h15.2c0.3-2.1,0.7-4.4,1-5.7
		c2.8-11.4,7.2-21.3,13.5-30c2.3-3.2,4.9-6.3,7.8-9.2c0.9-0.9,1.9-1.9,2.9-2.8c2.3-2.1,4.8-4.1,7.4-6c1.5-1.1,3.1-2.2,4.7-3.2
		c4.8-3.1,10-5.8,15.7-8.3c1.1-0.5,3.4-1.2,5.6-1.9c0.6-0.2,1.1-0.3,1.6-0.5v-2.9v-15v-4.3v-4.6c1.4-0.2,2.6-0.4,3.9-0.7
		c1-0.2,1.9-0.3,2.8-0.5c1.8-0.3,3.4-0.6,5-0.9c5.1-1,9.6-2.3,14.6-4.9c2.5-1.3,5.1-2.8,8-4.9c15.5-10.6,24.9-28.6,25.1-48.1
		C424.5,401.5,415.1,383.5,399.7,372.9z M418.5,420.9c-0.1,5.3-0.9,10.5-2.4,15.4c-2.4-3.3-7.2-9.2-7.8-10.4c1.1-0.2,2-0.3,2.8-0.4
		c0.3-2.3,0.5-4.6,0.8-7c-0.6-1-1.2-2.1-1.8-3.2c-3.8-7.5-6.4-15.8-6.1-25.8c0-1.7-0.3-3.5-0.6-5.2
		C412.7,393.7,418.3,406.9,418.5,420.9z M199.2,378.1c8.1-5.6,14.2-8,24.3-9.5l12.8-2.2v-27.3c2.3-0.7,3-1.1,3.4-1.2
		c30.1-13,48.3-33.8,55.6-63.8c0.1-0.3,0.1-0.5,0.2-0.9h4.5c0.1,0.3,0.1,0.6,0.2,0.9c7.3,29.9,25.5,50.8,55.6,63.7
		c0.3,0.1,1.1,0.5,3.3,1.2v27.3l12.8,2.2c10,1.5,16.2,3.9,24.3,9.5c2.3,1.6,4.5,3.4,6.5,5.3c-0.4,0-0.7,0-1.1,0
		c-0.6,3.1-1.3,6.2-1.8,9.4c-0.9,5.6-2.2,10.8-4.4,15.1c-0.8,1.6-1.7,3-2.8,4.3c-0.8,0.9-1.6,1.8-2.6,2.6c-1.4,1.2-2.2,1-2.5-1.5
		c-0.2-1.7-0.3-3.5-0.5-5.2c-0.2-2.6-0.4-5.2-0.7-7.7c0-0.3-0.1-0.5-0.1-0.8c-0.1-0.9-0.3-1.8-0.7-2.3c-0.5-0.5-1.2-0.9-1.8-0.9
		c-0.2,0-0.4,0-0.6,0.1c-0.4,0.2-0.7,2.1-0.8,3.2c-0.1,2-0.1,4-0.1,6c-0.1,5.3-0.3,10.6-2.1,15.5c0,0,0,0.1,0,0.1
		c-0.4,1.1-0.8,2.3-1.2,3.3c-0.1,0.2-0.1,0.3-0.2,0.5c-1.8,4.1-2.9,4-4.5-0.6c1-1.3,1.5-1.9,1.7-2.7c0.2-0.9-0.1-1.9-0.6-4.1
		c0,0,0-0.1,0-0.1c-0.2-0.7-0.3-1.5-0.5-2.2c-0.8-3.3-1.5-6.7-2.2-10.1c-0.7-3.2-1.4-6.3-2.1-9.6c-0.3-1.6-0.7-3.2-1-4.8
		c-0.1-0.3-0.1-0.7-0.2-1c-0.9-0.4-1.4,0-1.7,2.5c-0.1,0.5-0.1,1.1-0.2,1.6c-0.4,4.2-0.5,8.6-2.7,12c0,0,0,0.1,0,0.1
		c-0.3,0.5-0.5,1.2-0.7,1.9c-0.2,0.9-0.4,1.9-0.6,2.8c-0.8,3.2-1.8,6.1-3.6,8.2c-0.3,0.4-0.4,2.3-0.1,2.9c0.6,1.3,1.6,2.1,2.5,3.3
		c-0.1,0.2-0.2,0.3-0.3,0.5c-0.4,0.8-0.8,1.6-1.1,2.2c0.1,0.1,0.2,0.2,0.3,0.3c-0.5,0.1-1,0.3-1.6,0.7c-1.3,0.8-2.5,2-3.6,3.4
		c-0.3,0.3-0.2,2,0.1,2.7c0.4,0.9,1.2,1.4,2,2.2c-1.5,1.9-3.2,1.4-4.8,1.8c-0.7,0.2-1.5,0.5-1.9,1.2c-0.7,1.2-0.7,2.6,0.1,4.1
		c1.9,3.6,4.3,5.7,7,7.4c0.4,0.3,0.8,0.5,1.3,0.7c0,0.3,0.1,0.6,0.1,0.9c-1.4,0.8-2.8,1.9-4.2,2.4c-5.2,1.6-5.1,1.5-6.2-6.5
		c-0.7-4.9-1.5-9.8-2.5-14.7c-0.2-0.9-1.4-2.2-1.7-1.9c-0.7,0.5-1.4,1.8-1.6,2.9c-0.8,5.7-1.3,11.4-2.1,17.1
		c-0.4,2.6-1.4,4.9-2.2,7.6c-0.5-1.3-0.9-2.4-1.3-3.6c-2.6-8.1-4.3-16.7-4.9-25.8c-0.1-2-0.3-4.5-1.8-4.7c-1.6-0.2-1.6,2.6-1.8,4.3
		c-1.1,8-2.4,15.9-5,23.1c-0.5,1.3-1,2.6-1.7,4.4c-0.7-1.7-1.2-3.1-1.9-4.7c2-1,1.4-2.6,0.6-4.3c-2.3-4.6-2.9-10-3.1-15.6
		c-0.2-3.5-0.3-7.1-0.7-10.6c-0.1-0.9-0.8-1.6-1.3-2.4c-0.5,0.8-1.3,1.5-1.5,2.5c-1.4,6.7-2.6,13.5-4,20.3c-0.3,1.7-1.1,3.2-1.6,4.9
		c-0.3,1-0.4,2.1-0.5,3.2c0.6,0.2,1.3,0.4,2.2,0.7c-0.8,2.4-1.4,5-2.4,7.1c-1.4,2.9-3,5.6-4.6,8.3c0,0,0,0-0.1,0
		c-0.8-0.5-1.4-1.6-2.4-2.7c1.7-0.4,2.9-0.6,4-0.9c0.4-0.1,0.8-0.6,1-1.1c0.1-0.2-0.3-1.1-0.5-1.5c-2-3.6-4.1-7-6-10.7
		c-1-2.1-1.6-4.7-2.4-7.1c0.9-0.3,1.5-0.5,2.2-0.7c-0.2-1.1-0.2-2.2-0.5-3.2c-0.5-1.7-1.2-3.2-1.6-4.9c-0.8-3.7-1.5-7.4-2.2-11.2
		c-0.6-3-1.2-6.1-1.8-9.1c-0.2-1-1-1.7-1.5-2.5c-0.4,0.8-1.2,1.5-1.3,2.4c0,0.3-0.1,0.7-0.1,1c-0.3,3.2-0.4,6.4-0.6,9.5
		c-0.2,5.6-0.9,11-3.1,15.6c-0.8,1.7-1.3,3.4,0.6,4.3c-0.6,1.6-1.2,2.9-1.9,4.7c-0.7-1.8-1.2-3-1.7-4.4c-2.6-7.2-3.9-15.1-5-23.1
		c-0.2-1.7-0.2-4.5-1.8-4.3c-1.5,0.2-1.7,2.7-1.8,4.7c-0.6,9.1-2.2,17.6-4.9,25.8c-0.4,1.2-0.8,2.3-1.3,3.6
		c-0.8-2.7-1.8-5.1-2.2-7.6c-0.9-5.6-1.3-11.4-2.1-17.1c-0.2-1.2-0.9-2.5-1.6-2.9c-0.3-0.2-1.6,1-1.7,1.9c-1,4.8-1.8,9.7-2.5,14.7
		c-1.1,8.1-1,8.2-6.2,6.5c-1.4-0.5-2.8-1.6-4.2-2.4c0-0.3,0.1-0.6,0.1-0.9c0.4-0.2,0.9-0.4,1.3-0.7c2.7-1.7,5.1-3.9,7-7.4
		c0.8-1.5,0.8-2.9,0.1-4.1c-0.4-0.7-1.3-1.1-1.9-1.2c-1.6-0.4-3.3,0.1-4.8-1.8c0.8-0.9,1.6-1.3,2-2.2c0.3-0.6,0.4-2.3,0.1-2.7
		c-0.1-0.1-0.2-0.2-0.3-0.4c0.5-0.5,0.6-1.7,0-2.3c-2.6-2.2-4.3-6.4-6.1-9.9c-1.2-2.3-2.4-4.6-3.6-6.8c-0.9-1.6-1.8-3.3-2.7-4.9
		c-0.2-0.3-0.3-0.6-0.5-0.9c-0.2-0.3-0.3-0.6-0.5-1c-0.5-0.9-1.1-2-1.8-2.6c-0.7-0.7-1.5-0.7-2.2,0.9c-0.8,1.9-1.3,4.4-1.8,6.5
		c-1.3,2.2-2.4,4.7-3.3,7.5c-0.1,0.3-0.2,0.6-0.3,0.9c-0.8,1.3-1.6,2.6-2.3,4c-0.2,0.4-0.5,0.8-0.7,1.2c-1.2,1.9-2.5,3.6-3,6.2
		c-0.1,0.7,0.2,1.5,0.6,1.7c0.9,0.4,1.8,0.5,2.6,0.3c0,0,0,0,0,0c0.2,0.2,0.5,0.2,0.7,0.2c0.3-0.1,0.6-0.2,0.9-0.3
		c-0.1,0.2-0.2,0.5-0.3,0.7c-1.7,3.9-3.4,7.9-5.1,11.8c-0.1-0.7-0.1-1.4-0.4-2c-0.2-0.6-0.8-1.5-1-1.4c-0.4,0.2-1,1-1.1,1.7
		c-0.3,2.1-0.4,4.3-0.5,6.5c-0.5,5.8-1.4,11.4-3.6,16.3c-1.1,2.4-2.5,4.3-4.2,7c-0.6-4.6-1.1-8.5-1.5-12.5c-0.2-1.5-0.1-3.2-1.3-3.3
		c-1.2-0.1-1.6,1.4-1.7,3.2c-0.2,3.8-0.5,7.6-0.7,11.4c-0.1,1.8-0.8,2.5-1.9,2.1c-2.3-0.8-4.6-1.6-7.2-2.5c-0.1-0.1-0.2-0.1-0.3-0.2
		c2.2-1.5,3.9-2.3,5.4-3.7c1.8-1.6,1.8-2.9,0.5-5.4c-0.3-0.6-0.7-1.2-1.2-2.1c1-1,2.1-1.8,3-2.9c1.3-1.5,1.4-2.8,0.1-4.3
		c-1.1-1.2-2.4-2-3.7-3c-1.3-0.9-2.6-1.8-3.9-2.7c0-0.3,0.1-0.5,0.1-0.8c0.7-0.1,1.4,0,2-0.4c0.7-0.5,1.4-1.4,1.7-2.4
		c0.2-0.5-0.2-1.9-0.6-2.4c-0.7-0.9-1.4-1.7-2.2-2.5c-0.7-0.7-1.4-1.5-2-2.2c-0.1-0.2-0.3-0.3-0.4-0.5c-0.6-0.6-1.1-1.2-1.6-1.7
		c1.2-0.4,2.4-0.8,3.6-1.2c2.2-0.8,0.4-3.4,1.3-5.1c-1.7,0-2.9-0.3-2.9-2.9c0-0.3-0.2-0.6-0.5-0.9c-0.1-0.1-0.3-0.3-0.4-0.4
		c0,0-0.1-0.1-0.1-0.1c-1.6-1.7-2.9-3.6-4.1-5.8c-0.9-1.8-1.7-3.7-2.3-5.7c-0.2-0.7-0.4-1.5-0.6-2.2c-0.8-3.3-0.8-7.1-1.1-10.7
		c0-0.4,0-0.8-0.1-1.2C190.8,385.1,194.7,381.2,199.2,378.1z M351.2,503.1c-1,0.3-2.1-0.3-3.1-0.5c0-0.4,0-0.7,0-1.1
		c1.9-0.8,3.8-1.8,5.8-2.3c1.8-0.5,3.5-1.1,5.2-2v2.6C356.4,501,353.8,502.2,351.2,503.1z M359,487.1c-0.1-0.2-0.1-0.5-0.2-0.7
		c-0.6,0.3-1.3,0.5-1.9,0.9c-2.3,1.8-4.7,2.4-7.2,2.5c-0.1-0.3-0.1-0.6-0.2-0.8c3.1-1.6,6.3-3.2,9.4-4.9V487.1z M358.6,490.7
		c-1.3,1.1-2.7,2.1-4.1,3.1c-0.1-0.4-0.3-0.7-0.4-1.1c1.6-1.8,3.3-3.6,4.9-5.5v3.1C358.9,490.5,358.7,490.6,358.6,490.7z M359,483.2
		c-0.5-0.1-1-0.3-1.5-0.2c-2.6,0.2-5.1,0.5-7.7,0.7c-0.5,0-1.1-0.5-1.7-0.8c0-0.3,0.1-0.6,0.1-1c0.5-0.1,1-0.4,1.4-0.4
		c3.2,0,6.2-0.9,9.2-2.2V483.2z M297.5,536.9c-0.1,0.1-0.2,0.2-0.3,0.3c-1.2-0.9-2.4-1.9-3.7-2.6c-1.2-0.6-2.5-0.9-3.7-0.9
		c-0.9,0-1.6,0.9-0.8,2.6c0.7,1.7,1.1,4.1,2.1,5.2c0.1,0.1,0.1,0.2,0.2,0.2c0.1,0.4,0.3,0.8,0.5,1.1c0.4,0.6,0.8,1.2,1.2,1.9
		c-0.2-0.1-0.4-0.1-0.6-0.2c0.1,0.6,0.2,1,0.4,1.7c-0.7-0.4-1.1-0.6-1.6-0.8c0.2,0.5,0.5,0.9,0.7,1.4c-0.6,0.2-1.1,0.3-1.7,0.4
		c-1.1,0.2-1.7,0.4-1.9,1.2c-3.1-6.6-7-12.5-11.6-18c1.1-2.4,2.2-4.8,3.3-7.1c0.6-1.3,1.4-2.6,0.4-4c-0.9-1.3-1.9-1.4-3-0.2
		c-1.1,1.1-2.3,2-3.6,2.8c-2.3,1.4-3.7,0-4.1-3.9c-0.8,0.1-1.5,0.2-2.8,0.3c0.6-1.2,0.8-1.9,1.2-2.4c0.8-1.1,1.7-2.2,2.6-3.3
		c3.4-4.4,3.4-5.1-0.4-8.4c-2-1.8-2.1-2.1-0.8-5.1c1.3-3.1,1.2-3.8-1.1-5c-0.3-0.1-0.5-0.3-0.7-0.5c0.1-1.2,0.2-2.2,0.3-3.3
		c0.1-0.1,0.3,0,0.4-0.1c0.9-1.4,2.3-2.6,2.4-4.2c0.2-1.9-1.3-1.9-2.4-2.1c-0.8-0.2-1.6-0.6-2.3-0.8c0.1-2.7,0.5-4.3,2-5.6
		c1.5-1.2,2.7-3.4,3.9-5.4c0.4-0.7,0.7-2.1,0.5-2.8c-0.2-0.6-1.1-0.9-1.7-1.1c-0.6-0.2-1.2-0.1-2.3-0.2c1-1.3,1.5-2.3,2.1-2.8
		c1.6-1.4,2.6-3.4,3.1-6c0.2-0.9,0-2,0-3c-0.8,0-1.5-0.2-2.2,0.1c-0.8,0.3-1.4,1.2-2.2,1.8c1.6-3.3,3.4-6,4.7-9.3
		c1.3-3.3,1.9-7.2,3-11.3c0.3,1,0.5,1.5,0.6,2c0.6,2.8,0.6,5.9,2.4,7.9c0.4,0.4,0.2,1.9,0.4,3c-1.8-0.5-2.6,0.6-2.5,2.9
		c0.1,0.8,0.2,1.7,0.6,2.2c2,3,4.1,6,6.1,8.9c0.2,0.3,0.4,0.7,0.5,1.1c-0.1,0.2-0.2,0.4-0.3,0.6c-1.3-0.7-2.6-1.5-3.9-2.1
		c-0.4-0.2-0.9,0-1.4,0c0.1,0.7,0.2,1.4,0.4,1.9c0.6,1.7,1.4,3.3,2,5.1c0.8,2.3,2.1,3.6,3.8,4c0.7,0.2,1.4,0.4,2,0.6
		c-0.3,2.3-1.2,2.5-2.4,2c-1.2-0.5-2.4-0.9-3.6-1.2c-1.1-0.3-1.9,0.3-1.4,2.2c0.9,3.6,1.7,7.5,4.7,8.4c1.1,0.3,2.2,0.9,3.3,1.6
		c0.5,0.3,0.9,0.9,1.4,1.4c-0.1,0.2-0.1,0.5-0.2,0.7c-0.9,0.2-1.8,0.4-2.7,0.6c0,0.3,0,0.6,0,1c1.8,0.3,3.6,0.5,5.9,0.9
		c-0.7,1-1.2,2.2-1.7,2.3c-1.2,0.2-2.4-0.2-3.6-0.4c-0.9-0.1-1.8-0.3-3.1-0.6c0,0,0,0,0,0c0.2,0.4,0,0.2,0,0c0,0,0,0,0,0
		c0,0,0,0,0,0c0,0,0,0,0,0c-0.1-1.5-0.6-2.5-1.6-1.9c-1,0.6-0.6,1.8-0.4,3.2c0.6,4.1,1.9,7,4.5,8.4c0.1,0,0.1,0.3,0.3,0.8
		c-0.6,0.5-1.2,0.9-1.9,1.5c2,4.2,5.6,3.2,8.4,6.1c-2,0.8-3.5,1.1-5.1-0.2c-1.3-1.1-2.3-0.1-3.2,1c-0.4,0.5-0.9,1.8-0.8,2.4
		c0.3,1.6,0.8,3,2.2,3.5c1.5,0.6,2.8,1.8,4.3,2.8c-0.1,0.2-0.1,0.4-0.2,0.7c-0.3-0.1-0.5-0.3-0.8-0.3c-0.6-0.1-1.3-0.1-1.9-0.2
		c0.4,0.8,0.7,1.8,1.2,2.5c1.8,2.7,4.1,3.6,6.4,4.2c-0.9,0.1-1.6,0.2-2.4,0.2c0.2,1.9,0.9,3,1.7,3.9c0.8,1.2,1.7,2.5,2.6,3.7
		C297.6,536.6,297.6,536.7,297.5,536.9z M184.2,394.3c-0.3,2.9-0.7,5.7-1.1,8.6c-0.8,5.7-2.1,10.9-5.2,14.8
		c-0.6,0.7-1.1,2.6-0.9,3.4c0.3,1,1.4,1.8,2.2,2.1c0.9,0.4,1.8,0.1,3.2,0.1c-0.9,1.5-1.5,2.8-2.4,4.2c-1.3-1.9-2.6-3.4-3.2-5.8
		c0-0.3,0-0.6,0-0.9C177,411.4,179.6,402.2,184.2,394.3z M181.9,443.2c0.3-0.9,0.5-1.8,0.7-2.8c0.5-2.5-0.3-3.9-1.9-3.5
		c-0.4,0.1-0.8,0.1-1.2,0c-0.1-0.3-0.2-0.6-0.3-0.9c1.2-1.3,2.4-2.7,3.6-4.1c2.4-3,3.7-7.2,4.7-11.6c0.2-0.9,0.3-2.6-0.1-3.1
		c-0.6-0.8-1.5-0.9-2.3-1.1c-0.1,0-0.2,0-0.2,0c-0.3,0.1-0.7,0.4-1.4,0.7c1.3-2.8,2.2-5,3.1-7c0.6,0.8,1.1,1.5,1.7,2.3
		c1.9,2.6,3.9,5.2,5.7,7.8c0.2,0.3,0.1,1,0.2,1.9c-0.8-0.4-1.5-1.1-2.1-1c-1.1,0.1-2.2,0.7-3.2,1.3c-0.1,0,0,1.6,0.2,2.1
		c1.2,2.2,2.6,4.4,4.1,7c-0.9,0.2-1.3,0.1-1.6,0.4c-0.8,0.5-2,0.9-2.1,1.8c-0.1,0.4-0.1,0.9,0,1.4c0.1,0.6,0.2,1.3,0.4,1.8
		c0.1,0.3,0.2,0.5,0.3,0.7c2.2,2.8,4.5,5.2,6.8,7.7c0.5,0.5,1,0.9,1.6,1.5c-2,1.3-3.4,0-4.8-1.2c-0.5-0.4-1.2-0.4-1.9-0.5
		c0.2,0.9,0.3,1.9,0.6,2.5c1.6,2.9,3.4,5.7,5.1,8.6c-0.3,0-1,0.3-1.6,0c-1.5-0.9-3-2.1-4.5-2.8c-0.8-0.3-1.9-0.2-2.5,0.6
		c-0.1,0.2-0.2,0.4-0.2,0.8C186,450.7,183.7,447.1,181.9,443.2z M219.1,472.4c0.9-1.9,1.7-3.7,2.4-5.4c1.4-3.1,1.1-4.4-1.4-5.3
		c1-2.7,1.9-5.3,3-8.4c1.5,3,2.8,5.6,4,8.1c-0.2,0.4-0.2,0.6-0.3,0.7c-3.1,1.5-3.3,2-1.3,6.1c0.9,1.9,2,3.6,2.9,5.3
		c-0.1,0.2-0.2,0.4-0.3,0.5l-4.7-0.8C221.9,473,220.5,472.7,219.1,472.4z M254,511.3c-1.1-1.1-2.2-2.3-3.3-3.4
		c-0.3-0.3-0.9-0.4-1.2-0.2c-0.1,0.1-0.2,0.5-0.2,0.9c-3.1-1.6-6.3-3.2-9.6-4.6c-0.2-0.1-0.6-0.3-1.6-0.6c0.6-0.5,1.2-0.9,1.8-1.5
		c1.7-1.6,1.7-4-0.1-5.4c-1-0.9-2.3-1.2-3.4-1.7v-3.1c1-1.1,1.6-2.7,1.5-5.5c-0.5-0.6-0.9-1.2-1.5-1.8v-9l-1-0.2
		c-0.2-0.9-0.5-1.9-1-2.5c-1.3-1.7-2.7-3.1-4.1-4.7c-0.2-0.2-0.4-0.7-0.6-1.1c0.2-0.2,0.3-0.5,0.4-0.5c2.8-0.8,3.1-2.4,1-6.3
		c-1.5-2.8-3.3-5.3-4.3-8.5c-1.1-3.5-2-7.2-2.8-11c2.3-4.6,4.2-9.5,5.8-14.8c0.6-1.2,1.1-2.4,1.7-3.5c0.4-0.8,0.2-2-0.4-2.3
		c-0.1-0.1-0.3-0.1-0.5,0c-0.4,0.2-0.9,0.3-1.3,0.5c-0.1-0.3-0.2-0.5-0.4-0.6c-0.2-0.1-0.3-0.1-0.5,0c0-0.1,0-0.1,0-0.2
		c0.1-0.1,0.1-0.3,0.2-0.4c0.2-0.3,0.3-0.7,0.4-1c0.6-1.2,1.2-2.3,1.5-2.8c0.9-1.8,1.9-3.5,2.8-5.3c1.5-2.8,2.7-5.8,3.5-9.1
		c0.2-0.2,0.3-0.3,0.5-0.5c0.1,0.2,0.1,0.4,0.2,0.6c0.3,0.3,0.5,1.2,0.7,2c0.1,0.4,0.2,0.8,0.3,1c0,0.1,0,0.1,0.1,0.2
		c0.2,0.9,0.5,1.8,0.8,2.7c0.4,1.2,0.9,2.3,1.4,3.4c1.4,3.5,3,6.9,4.7,10c-0.3,0.4-0.5,0.9-0.8,1.6c-0.2,0.4-0.4,0.6-0.3,0.5
		c-1.4-0.7-2.6-1.3-4-2.1c1.8,8.5,5.3,13,10.8,14.6c-3.1,3.1-5.8,2.7-8.5,1.1c-0.6-0.3-1.7-0.6-1.9-0.2c-0.3,0.8-0.4,2.3-0.2,3.2
		c1.2,4.6,3,8.2,6.1,9.9c2.3,1.3,4.6,2.6,7.1,3.9c-2.1,2.2-4.5-1.6-6.4,0.6c0,0.4-0.1,0.7-0.1,1.1c3,1.3,6.1,2.6,9.1,4
		c0,0.4,0,0.8,0,1.1c-1.1,0.6-2.2,1.5-3.3,1.8c-3.6,0.9-6.9-0.9-10-3.6c-0.5-0.4-1-0.5-1.6-0.7c-0.1,0.9-0.5,2-0.3,2.8
		c0.7,3.5,1.1,6.5,4.1,8.3c4.4,2.6,8.7,4.4,13.4,4.4c0.5,0,1,0.2,1.4,0.4c0,0.3,0.1,0.6,0.1,1c-0.6,0.3-1.1,0.9-1.7,0.8
		c-2.6-0.1-5.1-0.5-7.7-0.7c-0.6,0-1.2,0.2-1.8,0.3c0,0.2,0,0.5,0,0.7c3.2,1.7,6.5,3.3,9.7,5c-0.1,0.3-0.1,0.6-0.2,0.8
		c-2.5-0.1-4.9-0.7-7.2-2.5c-0.6-0.5-1.2-0.6-1.9-0.9c-0.1,0.3-0.2,0.6-0.2,0.9c1.6,1.8,3.3,3.7,4.9,5.5c-0.1,0.4-0.3,0.7-0.4,1.1
		c-1.4-1-2.7-2-4.1-3.1c-2.1-1.7-4.2-3.5-6.3-5.2c-0.3-0.3-0.9-0.3-1.2,0c-0.2,0.2-0.4,1.4-0.3,1.7c1.2,2.5,2.2,5.4,3.8,7.2
		c2.6,2.8,5.7,4.1,8.8,4.9c2,0.5,3.9,1.5,5.8,2.3c0,0.4,0,0.7,0,1.1c-1,0.2-2.1,0.8-3.1,0.5c-3.2-1.1-6.4-2.7-9.6-4
		c-0.6-0.2-1.2-0.3-1.8-0.5c-0.1,0.3-0.1,0.6-0.2,0.9c2.6,2.5,4.8,5.8,8,6.7c2.6,0.7,5.2,1.2,7.8,1.8c0.8,0.2,1.6,0.6,2.4,0.9
		c0,0.4,0,0.8-0.1,1.2c-2,0-4,0-6,0c0,0.4,0,0.7-0.1,1.1c3.2,1.8,7.3,0.3,9.5,6.5c-0.9,0.3-1.7,0.8-2.3,0.6c-2.9-0.6-5.7-1.4-8.6-2
		c-0.6-0.1-1.2-0.1-1.8-0.1c0,0.2-0.1,0.5-0.1,0.7c1,1.7,2.1,3.4,3.1,5.1c0,0,0,0,0,0.1C256.2,512.7,255.1,512,254,511.3z
		 M323.6,525c0.1-0.2,0.1-0.5,0.2-0.8c0.1-0.7-0.3-1.9-0.8-2.4c-0.9-1.1-1.9-2.1-3.2-1c-1.5,1.3-3,1-5,0.2c0,0,0-0.1,0-0.1
		c2.8-2.8,6.3-1.9,8.3-6c-0.7-0.6-1.3-1-1.9-1.5c0.1-0.5,0.2-0.8,0.3-0.8c2.6-1.3,3.9-4.3,4.5-8.4c0.2-1.4,0.6-2.6-0.4-3.2
		c-1-0.6-1.5,0.4-1.6,1.9c0,0,0,0,0,0c0,0,0,0,0,0c0,0,0,0,0,0c0,0.2-0.2,0.4,0,0c0,0,0,0,0,0c-1.3,0.2-2.2,0.4-3.1,0.6
		c-1.2,0.2-2.4,0.5-3.6,0.4c-0.5-0.1-1-1.3-1.7-2.3c2.3-0.3,4.1-0.6,5.9-0.9c0-0.3,0-0.6,0-1c-0.9-0.2-1.8-0.4-2.7-0.6
		c-0.1-0.2-0.1-0.5-0.2-0.7c0.5-0.5,0.9-1.1,1.4-1.4c1.1-0.6,2.2-1.2,3.3-1.6c3-0.9,3.7-4.8,4.7-8.4c0.5-1.9-0.3-2.5-1.4-2.2
		c-1.2,0.3-2.4,0.7-3.6,1.2c-1.2,0.5-2.1,0.3-2.4-2c0.7-0.2,1.4-0.4,2-0.6c1.7-0.4,2.9-1.7,3.8-4c0.6-1.7,1.4-3.3,2-5.1
		c0.2-0.6,0.3-1.3,0.4-1.9c-0.5,0-1-0.2-1.4,0c-1.3,0.6-2.6,1.4-3.9,2.1c-0.1-0.2-0.2-0.4-0.3-0.6c0.2-0.4,0.3-0.8,0.5-1.1
		c2-3,4.1-5.9,6.1-8.9c0.3-0.5,0.5-1.5,0.6-2.2c0.2-2.3-0.7-3.4-2.5-2.9c0.1-1.1,0-2.6,0.4-3c1.8-2,1.8-5.1,2.4-7.9
		c0.1-0.5,0.3-0.9,0.6-2c1.1,4.1,1.7,8,3,11.3c1.3,3.3,3.1,6,4.7,9.3c-0.7-0.6-1.4-1.4-2.2-1.8c-0.7-0.3-1.5-0.1-2.2-0.1
		c0,1-0.1,2.1,0,3c0.5,2.6,1.5,4.7,3.1,6c0.6,0.5,1.1,1.5,2.1,2.8c-1.1,0.1-1.7,0-2.3,0.2c-0.6,0.2-1.5,0.5-1.7,1.1
		c-0.2,0.7,0.1,2.1,0.5,2.8c1.2,1.9,2.4,4.1,3.9,5.4c1.5,1.3,1.9,2.9,2,5.6c-0.7,0.3-1.5,0.7-2.3,0.8c-1.1,0.2-2.6,0.2-2.4,2.1
		c0.2,1.6,1.6,2.8,2.4,4.2c0.1,0.1,0.2,0.1,0.4,0.1c0.1,1,0.2,2,0.3,3.3c-0.2,0.1-0.4,0.3-0.7,0.5c-2.3,1.1-2.4,1.9-1.1,5
		c1.3,3,1.2,3.3-0.8,5.1c-0.8,0.7-1.4,1.3-1.9,1.8C331.6,517.8,327.4,521.2,323.6,525z M371.8,473.2l-6.1,1c0.8-1.6,1.1-3.5,1.5-5.5
		c0.2-0.8-0.2-1.8-0.3-2.8c-0.5,0.2-1.1,0.3-1.6,0.7c-3.1,2.6-6.4,4.5-10,3.6c-1.1-0.3-2.2-1.2-3.3-1.8c0-0.4,0-0.8,0-1.1
		c3-1.3,6.1-2.6,9.1-4c0-0.4-0.1-0.7-0.1-1.1c-2-2.2-4.3,1.6-6.4-0.6c2.4-1.4,4.8-2.6,7.1-3.9c3.1-1.8,4.9-5.4,6.1-9.9
		c0.2-0.9,0.1-2.4-0.2-3.2c-0.2-0.4-1.3-0.2-1.9,0.2c-2.7,1.6-5.4,2-8.5-1.1c4.9-1.4,8.2-5.2,10.2-12c0.2-0.8,0.5-1.7,0.7-2.6
		c-0.9,0.4-1.6,0.8-2.4,1.2c-0.5,0.3-1,0.5-1.6,0.8c0.1,0.1-0.2-0.1-0.3-0.5c0-0.1-0.1-0.2-0.1-0.2c0.1,0.1,0.2,0.2,0.2,0.2
		c0.2-0.4,0.5-0.9,0.8-1.4c0.8-1.3,1.6-2.8,2.3-4.5c0.4-1,0.4-1.8,0.2-2.6c-0.2-0.4-0.4-0.8-0.8-1.2c-0.4-0.4-0.8-0.8-1.4-1.2
		c0.1-0.3,0.2-0.6,0.3-0.9c0.3-1.1,0.6-2.2,0.9-3.3c0.4-1.3,0.7-2.6,1.1-3.9c0.3-1.1,0.6-2.2,0.9-3.4c0.1-0.4,0.2-0.7,0.3-1.1
		c0.2,0.7,0.3,1.3,0.5,2c0.4,1.7,0.8,3.4,1.2,5.1c0.2,1,0.5,2.1,0.7,3.1c0,0.1,0.1,0.3,0.1,0.4c0.1,0.6-0.3,1.6-0.7,2.2
		c-1.1,1.7-1.6,3.1-0.3,5.2c1.3,2,2.3,4.4,3.6,6.9c0.1,0.2,0.2,0.5,0.3,0.7c-0.5,0.1-0.9,0.1-1.3,0.2c-0.5,0.1-0.9,0.4-1.2,0.7
		c-0.9,1-1,2.7-0.1,4.4c0.9,1.6,2,2.8,2.9,4.3c0.4,0.7,0.8,1.5,1.2,2.3c-2.5,2.3-2.7,2.7-1.2,6.3c1.3,3.2,3.1,5.8,4.7,8.7
		c0.4,0.8,1.1,1.3,1.9,2.4c-0.9,0.6-1.4,1.2-1.9,1.3c-2,0.5-4,0.7-5.9,1.4c-0.8,0.2-1.5,1.1-2,2c-0.2,0.3,0.4,1.9,0.9,2.6
		c0.8,1.1,1.6,2.2,2.5,3.2C373.5,472.9,372.7,473,371.8,473.2z M396.1,463.7c-4.4,3.1-8.3,5.2-12.5,6.7c3.7-2,7.2-3.8,10.3-6.9
		c-0.1-0.3-0.1-0.5-0.2-0.8c-1-0.1-2-0.3-3.6-0.5c1-1.1,1.7-1.8,2.3-2.5c1.4-1.5,3-2.8,4.3-4.5c0.6-0.7,0.9-2,1.2-3.4
		c-4.3,1.8-8.4,2.7-12.8-1.5c1.7-0.9,3-1.7,4.4-2.1c2.9-0.9,5-3.9,7.2-6.5c0.3-0.4,0.7-0.8,0.8-1.4c0.4-1.3,0.6-2.7,0.9-4.1
		c-0.9-0.1-1.9-0.7-2.6-0.3c-2.6,1.2-4.9-0.2-7.8-1.5c0.6-0.5,1-0.9,1.4-1.3c0.2-0.2,0.4-0.3,0.5-0.5c0.3-0.3,0.6-0.5,0.9-0.8
		c1.4-1.2,2.9-2.3,4-4c1.7-2.4,2.9-5.5,4.3-8.4c0.2-0.3,0.2-1.2,0-1.4c-0.2-0.3-0.6-0.4-0.9-0.3c-1.3,0.3-2.5,0.6-3.7,0.9
		c0.7-1.2,1.4-2.5,2.2-3.7c0.5-0.9,1.1-1.8,1.6-2.8c1.3-2.2,2.5-4.3,3.8-6.5c1.6,4.4,3.2,8.9,5.1,14.1c-1.2-0.6-2-1.2-2.9-1.4
		c-0.7-0.2-1.9-0.4-2.2,0.2c-0.4,0.9-0.4,2.8,0,3.6c2.4,4.9,4.9,9.7,7.4,14.5c0.2-1.5,3.6,0.7,5.9,1.6
		C411.7,448.6,405,457.5,396.1,463.7z"/>
	<path id="XMLID_20_" class="st0" fill="#BB2025" d="M277.3,396.8c5.3,0,10.3-1.5,14.6-4.1c-12.3-0.5-22.1-10.6-22.1-23c0-12.7,10.3-23,23-23
		c0.9,0,1.9,0.1,2.8,0.2c-4.9-4.2-11.3-6.7-18.2-6.7c-15.5,0-28.1,12.7-28.1,28.3C249.1,384.1,261.7,396.8,277.3,396.8z"/>
	<polygon id="XMLID_19_" class="st0" fill="#BB2025" points="341.6,389.1 339.5,393.4 334.6,394.1 338.1,397.5 337.3,402.3 341.6,400.1 
		345.9,402.3 345.1,397.5 348.6,394.1 343.8,393.4 	"/>
	<polygon id="XMLID_15_" class="st0" fill="#BB2025" points="333.7,369.8 334.6,369.3 335.6,369.8 335.4,368.7 336.2,368 335.1,367.8 334.6,366.8 
		334.2,367.8 333.1,368 333.9,368.7 	"/>
	<polygon id="XMLID_14_" class="st0" fill="#BB2025" points="204,396.3 208.1,394.1 212.3,396.3 211.5,391.7 214.8,388.4 210.2,387.8 208.1,383.6 
		206,387.8 201.4,388.4 204.8,391.7 	"/>
	<polygon id="XMLID_13_" class="st0" fill="#BB2025" points="293.6,327.8 298.8,325.1 303.9,327.8 303,322.1 307.1,318 301.4,317.1 298.8,311.9 
		296.2,317.1 290.4,318 294.6,322.1 	"/>
	<polygon id="XMLID_12_" class="st0" fill="#BB2025" points="340,346.9 341.6,346 343.2,346.9 342.9,345.1 344.2,343.8 342.4,343.5 341.6,341.9 
		340.8,343.5 339,343.8 340.3,345.1 	"/>
	<polygon id="XMLID_11_" class="st0" fill="#BB2025" points="315.4,355 317.4,354 319.4,355 319,352.8 320.6,351.3 318.4,351 317.4,349 316.4,351 
		314.2,351.3 315.8,352.8 	"/>
	<polygon id="XMLID_10_" class="st0" fill="#BB2025" points="293.5,359 291.8,362.3 288.1,362.8 290.8,365.4 290.2,369.1 293.5,367.4 296.7,369.1 
		296.1,365.4 298.8,362.8 295.1,362.3 	"/>
	<polygon id="XMLID_9_" class="st0" fill="#BB2025" points="302.9,384 302.1,382.3 301.3,384 299.4,384.2 300.8,385.5 300.5,387.4 302.1,386.5 
		303.8,387.4 303.5,385.5 304.8,384.2 	"/>
	<polygon id="XMLID_8_" class="st0" fill="#BB2025" points="308.5,407.7 310.6,406.6 312.8,407.7 312.4,405.4 314.1,403.7 311.7,403.3 310.6,401.2 
		309.6,403.3 307.2,403.7 308.9,405.4 	"/>
	<polygon id="XMLID_7_" class="st0" fill="#BB2025" points="381.3,386.1 383.6,384.9 386,386.1 385.5,383.5 387.4,381.7 384.8,381.3 383.6,378.9 
		382.4,381.3 379.8,381.7 381.7,383.5 	"/>
	<polygon id="XMLID_6_" class="st0" fill="#BB2025" points="261.1,400.4 259.9,402.8 257.2,403.2 259.2,405.1 258.7,407.8 261.1,406.5 263.5,407.8 
		263.1,405.1 265,403.2 262.3,402.8 	"/>
	<polygon id="XMLID_5_" class="st0" fill="#BB2025" points="351.7,378.6 354.6,377.1 357.5,378.6 357,375.4 359.3,373.1 356.1,372.6 354.6,369.6 
		353.2,372.6 349.9,373.1 352.3,375.4 	"/>
</g>
</svg>
