<?xml version="1.0" encoding="utf-8"?>
<!-- Generator: Adobe Illustrator 19.0.0, SVG Export Plug-In . SVG Version: 6.00 Build 0)  -->
<svg version="1.1" id="Layer_1" xmlns="http://www.w3.org/2000/svg" xmlns:xlink="http://www.w3.org/1999/xlink" x="0px" y="0px"
	 viewBox="0 0 595.3 841.9" style="enable-background:new 0 0 595.3 841.9;" xml:space="preserve">
<style type="text/css">
	.st0{fill:#BB2025;}
</style>
<g id="XMLID_243_">
	<g id="XMLID_248_">
		<path id="XMLID_416_" class="st0" fill="#BB2025" d="M263.4,355.9c0-0.9,0.3-1.9,0.8-2.8c0.5-0.9,1.3-1.7,2.4-2.4s2.5-1.1,4.2-1.3
			c1.7-0.2,3.8-0.1,6.2,0.4c0.5,0,0.7,0.2,0.9,0.6c0.1,0.3,0.1,0.7-0.1,1c-0.2,0.3-0.4,0.5-0.8,0.5c0,2-0.1,4.1-0.1,6.1
			c0,2,0.1,4.1,0.2,6.1c0.1,2.1,0.2,4.2,0.5,6.3c0.2,2.1,0.4,4.2,0.7,6.3c0.7,0.2,1.4,0.4,2.3,0.6c0.9,0.2,1.7,0.3,2.6,0.4
			c0.9,0.1,1.7,0,2.4-0.2c0.7-0.2,1.4-0.5,1.8-1.1c0.5-0.5,0.8-1.3,0.9-2.3c0-0.7-0.1-1.3-0.5-1.9c-0.4-0.6-0.9-0.9-1.7-0.9
			c-0.6,0-1,0.1-1.3,0.3c-0.3,0.2-0.5,0.5-0.6,0.9c-0.1,0.3,0,0.7,0.1,0.9c0.1,0.3,0.4,0.4,0.8,0.5c0.5,0,0.7,0.3,0.9,0.6
			c0.1,0.4,0.1,0.7-0.1,1.1c-0.2,0.3-0.5,0.5-1,0.4c-0.8-0.1-1.4-0.4-1.8-1c-0.4-0.5-0.7-1.2-0.7-1.9c0-0.7,0.1-1.4,0.4-2.1
			c0.3-0.7,0.8-1.2,1.5-1.6c0.7-0.4,1.6-0.6,2.6-0.5c1.8,0.2,3.1,0.8,4,1.8c0.9,1,1.3,2.2,1.2,3.4c-0.1,0.9-0.4,1.7-1,2.6
			c-0.5,0.8-1.3,1.5-2.4,2.1c-1,0.6-2.3,0.9-3.9,1.1c-1.5,0.1-3.3,0-5.4-0.5c0,0-0.1,0-0.1,0c-1-0.2-2-0.4-2.9-0.5
			c-0.9-0.1-1.7-0.2-2.5-0.3c-0.8-0.1-1.6-0.1-2.3-0.1c-0.7,0-1.4,0-2,0c-0.3,0-0.6-0.1-0.9-0.3c-0.2-0.2-0.4-0.5-0.4-0.8
			c-0.1-0.8,0-1.5,0.3-1.9c0.3-0.4,0.7-0.7,1.2-0.8s1-0.2,1.4-0.2c0.2,0,0.5,0.1,0.9,0.2c0.3,0.1,0.7,0.2,1.1,0.3
			c0.2-1.8,0.4-3.6,0.6-5.5c0.2-1.8,0.3-3.6,0.4-5.5c0.1-2.1,0.1-4.1,0.2-6.2c0-2.1,0-4.1-0.1-6.2c-0.8,0-1.6,0-2.5,0.1
			c-0.8,0.1-1.6,0.3-2.3,0.6s-1.3,0.7-1.7,1.3c-0.4,0.6-0.6,1.3-0.6,2.1c0,0.7,0.3,1.3,0.7,1.8s1,0.8,1.8,0.7c0.6,0,1-0.2,1.3-0.4
			c0.3-0.3,0.5-0.6,0.5-0.9c0-0.3,0-0.7-0.2-0.9s-0.4-0.4-0.8-0.4c-0.5,0-0.8-0.2-0.9-0.6c-0.1-0.4-0.1-0.7,0-1.1
			c0.2-0.4,0.5-0.5,1-0.5c0.8,0,1.5,0.3,1.9,0.8c0.5,0.5,0.8,1.1,0.9,1.8c0.1,0.7,0.1,1.4-0.2,2.1c-0.3,0.7-0.7,1.3-1.3,1.8
			c-0.6,0.5-1.5,0.7-2.5,0.7c-1.8,0-3.2-0.5-4.1-1.4S263.4,357.2,263.4,355.9z"/>
		<path id="XMLID_413_" class="st0" fill="#BB2025" d="M303.6,359.2c1,0.6,1.8,1.4,2.5,2.3c0.6,1,1.1,2,1.3,3.2s0.3,2.3,0.1,3.5
			c-0.2,1.2-0.6,2.2-1.2,3.2c-0.6,1-1.4,1.8-2.5,2.5s-2.3,1-3.8,1.1c-1.6,0-2.9-0.3-4-0.9c-1.1-0.6-2-1.4-2.6-2.4
			c-0.6-1-1.1-2.1-1.3-3.3s-0.2-2.4,0-3.6c0.2-1.2,0.6-2.3,1.3-3.3c0.6-1,1.5-1.8,2.5-2.4c1-0.6,2.3-0.9,3.7-0.9c0.1,0,0.2,0,0.3,0
			C301.4,358.4,302.6,358.7,303.6,359.2z M299.8,372.3c0.8,0,1.5-0.2,2-0.7s0.9-1.1,1.2-1.8c0.3-0.7,0.5-1.5,0.6-2.2s0.1-1.4,0-2
			c-0.4,0.7-0.9,1.2-1.5,1.7c-0.3,0.2-0.6,0.3-0.9,0.2c-0.3-0.1-0.5-0.3-0.7-0.5s-0.3-0.5-0.2-0.8s0.2-0.6,0.5-0.8
			c0.4-0.3,0.8-0.7,1-1.2c0.2-0.5,0.3-1,0.2-1.5c-0.1-0.5-0.3-1-0.6-1.3c-0.3-0.4-0.9-0.5-1.6-0.5c-0.9,0-1.6,0.3-2.1,0.8
			c-0.6,0.6-0.9,1.3-1.2,2.2c-0.2,0.9-0.3,1.8-0.3,2.8c0,1,0.2,1.9,0.5,2.8c0.3,0.9,0.7,1.6,1.3,2.2S299.1,372.3,299.8,372.3z"/>
		<path id="XMLID_408_" class="st0" fill="#BB2025" d="M322.5,360.1c0.1,0.9,0.1,1.8-0.1,3c-0.2,1.1-0.6,2.2-1,3.4c-0.4,1.2-0.8,2.3-1.2,3.3
			c-0.4,1.1-0.8,2-1,2.8c-0.3,0.8-0.3,1.5-0.3,1.9c-0.5,0-0.8,0-1,0c-0.2,0-0.5,0-1,0c-0.5,0-1,0-1.5,0s-1,0-1.5,0
			c-0.1,0-0.1,0-0.2,0s-0.1,0-0.2,0c-0.5,0-1,0-1.5,0c-0.5,0-1,0-1.5,0c0-1.4,0.1-2.7,0-3.7c0-1.1-0.1-2.1-0.2-3
			c-0.1-0.9-0.3-1.8-0.6-2.7c-0.3-0.9-0.6-1.9-1.1-3c-0.4-1.1-1-2.3-1.7-3.7c0.5,0,1,0,1.5,0s1,0,1.5,0c0.5,0,1,0,1.5,0
			c0.5,0,1,0,1.5,0c0,1.6-0.1,2.9,0,4.1c0,1.1,0.1,2.2,0.3,3.1c0.2,1,0.4,1.9,0.8,3c0.3,1,0.8,2.2,1.4,3.5c0.6-0.9,1.2-1.9,1.9-3
			c0.7-1.1,1.3-2.3,1.9-3.5c0.6-1.2,0.9-2.5,1.1-3.7c0.1-0.7,0.1-1.3,0-1.9c-0.1-0.5-0.6-0.8-1.4-0.8c-0.7,0-1.2,0.2-1.5,0.6
			c-0.4,0.4-0.6,0.8-0.6,1.4s0,1.1,0.2,1.6c0.2,0.5,0.5,1,1,1.3c0.3,0.2,0.5,0.5,0.5,0.8s-0.1,0.6-0.3,0.8c-0.2,0.3-0.4,0.4-0.7,0.5
			c-0.3,0.1-0.6,0-0.9-0.2c-0.7-0.5-1.3-1.2-1.6-1.9c-0.4-0.8-0.5-1.5-0.5-2.4s0.2-1.6,0.5-2.3c0.3-0.7,0.8-1.3,1.5-1.7
			c0.7-0.4,1.5-0.7,2.5-0.7c1.2,0,2,0.3,2.6,0.9C322,358.7,322.4,359.4,322.5,360.1z"/>
		<path id="XMLID_394_" class="st0" fill="#BB2025" d="M336.1,372c0.5-0.1,0.9-0.1,1.2,0.3c0.3,0.3,0.4,0.7,0.3,1.1c-0.1,0.4-0.3,0.7-0.8,0.9
			c-2,0.7-3.8,1-5.3,0.9c-1.5-0.1-2.8-0.5-3.9-1.1c-1.1-0.6-1.9-1.5-2.5-2.5c-0.6-1-1-2.1-1.2-3.3c-0.2-1.2-0.1-2.4,0.1-3.5
			c0.2-1.2,0.7-2.2,1.3-3.2c0.6-1,1.5-1.8,2.5-2.3c1-0.6,2.2-0.9,3.7-0.8c1,0,1.8,0.2,2.5,0.6c0.7,0.4,1.2,1,1.5,1.7
			c0.3,0.7,0.5,1.4,0.5,2.2c0,1-0.2,1.9-0.6,2.7s-1.1,1.5-1.8,2s-1.6,0.9-2.5,1.2c-0.9,0.2-1.9,0.3-2.8,0.2c0.3,0.9,0.8,1.6,1.5,2.2
			c0.7,0.6,1.5,1,2.6,1.2C333.4,372.5,334.6,372.4,336.1,372z M331.5,360.7c-0.8,0-1.5,0.3-2,0.8c-0.6,0.6-1,1.3-1.3,2.1
			c-0.3,0.9-0.4,1.8-0.4,2.7c1.2,0.3,2.3,0.3,3.2-0.1c0.9-0.3,1.5-0.8,2-1.5s0.7-1.3,0.7-1.9c0-0.6-0.1-1.1-0.5-1.5
			C332.8,360.9,332.2,360.7,331.5,360.7z"/>
		<path id="XMLID_392_" class="st0" fill="#BB2025" d="M278.6,381.5c-0.4,2-0.6,3.7-0.9,5.2s-0.4,2.8-0.4,4.1c-0.1,1.2-0.1,2.5,0,3.7
			c0.1,1.2,0.2,2.6,0.4,4.1c0.2,1.5,0.5,3.2,0.9,5.2c-0.5,0-1,0-1.5,0c-0.5,0-1,0-1.5,0c-0.5,0-1,0-1.5,0c-0.5,0-1,0-1.5,0
			c0.4-2,0.6-3.7,0.9-5.2c0.2-1.5,0.4-2.8,0.4-4.1c0.1-1.2,0.1-2.5,0-3.7c-0.1-1.2-0.2-2.6-0.4-4.1c-0.2-1.5-0.5-3.2-0.9-5.2
			c0.5,0,1,0,1.5,0c0.5,0,1,0,1.5,0c0.5,0,1,0,1.5,0C277.6,381.5,278.1,381.5,278.6,381.5z"/>
		<path id="XMLID_389_" class="st0" fill="#BB2025" d="M282.5,386.6c-0.8,0-1.4-0.2-2-0.7c-0.5-0.5-0.8-1.1-0.8-1.8c0-0.7,0.3-1.3,0.8-1.8
			c0.5-0.5,1.2-0.7,2-0.7c0.7,0,1.4,0.2,1.9,0.7c0.5,0.5,0.8,1.1,0.8,1.8c0,0.7-0.3,1.3-0.8,1.8
			C283.9,386.3,283.2,386.6,282.5,386.6z M285.7,387.7c-0.4,1.4-0.6,2.7-0.9,3.7c-0.2,1.1-0.4,2.1-0.4,3c-0.1,0.9-0.1,1.8,0,2.7
			c0.1,0.9,0.2,1.9,0.4,3c0.2,1.1,0.5,2.3,0.9,3.7c-0.5,0-1,0-1.5,0c-0.5,0-1,0-1.5,0c-0.5,0-1,0-1.5,0c-0.5,0-1,0-1.5,0
			c0.4-1.4,0.6-2.7,0.8-3.7c0.2-1.1,0.3-2.1,0.4-3c0.1-0.9,0.1-1.8,0-2.7s-0.2-1.9-0.4-3c-0.2-1.1-0.5-2.3-0.8-3.7c0.5,0,1,0,1.5,0
			c0.5,0,1,0,1.5,0c0.5,0,1,0,1.5,0C284.7,387.7,285.2,387.7,285.7,387.7z"/>
		<path id="XMLID_387_" class="st0" fill="#BB2025" d="M301.6,389.3c0.1,0.9,0.1,1.8-0.1,3c-0.2,1.1-0.6,2.2-1,3.4c-0.4,1.2-0.8,2.3-1.2,3.3
			c-0.4,1.1-0.8,2-1,2.8c-0.3,0.8-0.3,1.5-0.3,1.9c-0.5,0-0.8,0-1,0c-0.2,0-0.5,0-1,0c-0.5,0-1,0-1.5,0s-1,0-1.5,0
			c-0.1,0-0.1,0-0.2,0s-0.1,0-0.2,0c-0.5,0-1,0-1.5,0c-0.5,0-1,0-1.5,0c0-1.4,0.1-2.7,0-3.7c0-1.1-0.1-2.1-0.2-3
			c-0.1-0.9-0.3-1.8-0.6-2.7c-0.3-0.9-0.6-1.9-1.1-3c-0.4-1.1-1-2.3-1.7-3.7c0.5,0,1,0,1.5,0s1,0,1.5,0c0.5,0,1,0,1.5,0
			c0.5,0,1,0,1.5,0c0,1.6-0.1,2.9,0,4.1c0,1.1,0.1,2.2,0.3,3.1c0.2,1,0.4,1.9,0.8,3c0.3,1,0.8,2.2,1.4,3.5c0.6-0.9,1.2-1.9,1.9-3
			c0.7-1.1,1.3-2.3,1.9-3.5c0.6-1.2,0.9-2.5,1.1-3.7c0.1-0.7,0.1-1.3,0-1.9c-0.1-0.5-0.6-0.8-1.4-0.8c-0.7,0-1.2,0.2-1.5,0.6
			c-0.4,0.4-0.6,0.8-0.6,1.4s0,1.1,0.2,1.6c0.2,0.5,0.5,1,1,1.3c0.3,0.2,0.5,0.5,0.5,0.8s-0.1,0.6-0.3,0.8c-0.2,0.3-0.4,0.4-0.7,0.5
			c-0.3,0.1-0.6,0-0.9-0.2c-0.7-0.5-1.3-1.2-1.6-1.9c-0.4-0.8-0.5-1.5-0.5-2.4s0.2-1.6,0.5-2.3c0.3-0.7,0.8-1.3,1.5-1.7
			c0.7-0.4,1.5-0.7,2.5-0.7c1.2,0,2,0.3,2.6,0.9C301.2,387.9,301.5,388.6,301.6,389.3z"/>
		<path id="XMLID_384_" class="st0" fill="#BB2025" d="M315.3,401.2c0.5-0.1,0.9-0.1,1.2,0.3c0.3,0.3,0.4,0.7,0.3,1.1c-0.1,0.4-0.3,0.7-0.8,0.9
			c-2,0.7-3.8,1-5.3,0.9c-1.5-0.1-2.8-0.5-3.9-1.1c-1.1-0.6-1.9-1.5-2.5-2.5c-0.6-1-1-2.1-1.2-3.3c-0.2-1.2-0.1-2.4,0.1-3.5
			c0.2-1.2,0.7-2.2,1.3-3.2c0.6-1,1.5-1.8,2.5-2.3c1-0.6,2.2-0.9,3.7-0.8c1,0,1.8,0.2,2.5,0.6c0.7,0.4,1.2,1,1.5,1.7
			c0.3,0.7,0.5,1.4,0.5,2.2c0,1-0.2,1.9-0.6,2.7s-1.1,1.5-1.8,2s-1.6,0.9-2.5,1.2c-0.9,0.2-1.9,0.3-2.8,0.2c0.3,0.9,0.8,1.6,1.5,2.2
			c0.7,0.6,1.5,1,2.6,1.2C312.5,401.7,313.8,401.6,315.3,401.2z M310.6,389.9c-0.8,0-1.5,0.3-2,0.8c-0.6,0.6-1,1.3-1.3,2.1
			c-0.3,0.9-0.4,1.8-0.4,2.7c1.2,0.3,2.3,0.3,3.2-0.1c0.9-0.3,1.5-0.8,2-1.5s0.7-1.3,0.7-1.9c0-0.6-0.1-1.1-0.5-1.5
			C311.9,390.1,311.4,389.9,310.6,389.9z"/>
		<path id="XMLID_382_" class="st0" fill="#BB2025" d="M321.3,390.6c-0.1,0.3,0.1,0.7,0.6,1.1c0.5,0.4,1.1,0.9,1.9,1.5c0.8,0.6,1.5,1.2,2.2,1.9
			c0.7,0.7,1.3,1.5,1.8,2.4c0.4,0.9,0.6,1.8,0.4,2.8c-0.1,0.9-0.6,1.6-1.3,2.1c-0.8,0.5-1.7,0.9-2.7,1.1c-1.1,0.2-2.1,0.3-3.2,0.3
			c-1.1,0-2-0.1-2.7-0.3l-0.9-4.8c0.2,0,0.6,0.2,1.2,0.4c0.6,0.2,1.2,0.5,1.9,0.8c0.7,0.3,1.4,0.5,2.1,0.7c0.7,0.2,1.3,0.3,1.7,0.2
			c0.5,0,0.7-0.3,0.7-0.7c0-0.4-0.2-0.9-0.7-1.3c-0.5-0.5-1.1-1-1.8-1.6c-0.7-0.6-1.4-1.2-2.1-1.8c-0.7-0.7-1.3-1.4-1.7-2.1
			c-0.5-0.7-0.6-1.5-0.6-2.4c0.1-0.6,0.3-1.2,0.8-1.7c0.4-0.5,1.1-0.9,1.9-1.3c0.5-0.2,1.3-0.4,2.6-0.5s2.7,0,4.3,0.3l0.3,3.8
			c-0.1-0.1-0.4-0.2-0.9-0.4c-0.5-0.2-1-0.4-1.6-0.6c-0.6-0.2-1.2-0.4-1.8-0.5s-1.1-0.2-1.6-0.1
			C321.6,390.1,321.4,390.3,321.3,390.6z"/>
		<path id="XMLID_380_" class="st0" fill="#BB2025" d="M280,411.8c1.4,0,2.4,0.2,3.2,0.7c0.8,0.5,1.3,1.2,1.6,2c0.3,0.9,0.5,1.8,0.6,2.9
			c0,1.1,0,2.3,0,3.5c0,1.2-0.1,2.4-0.1,3.6c0,1.2,0.1,2.3,0.4,3.4c-0.5,0-1,0-1.5,0c-0.5,0-1,0-1.5,0c-0.5,0-1,0-1.5,0
			c-0.5,0-1,0-1.5,0c0.1-0.5,0.3-1.1,0.6-2c0.3-0.9,0.6-1.8,0.8-2.8s0.5-2.1,0.7-3.2c0.2-1.1,0.3-2,0.3-2.9c0-0.9-0.2-1.6-0.6-2.1
			s-0.9-0.8-1.7-0.8c-0.7,0-1.2,0.2-1.6,0.5c-0.3,0.4-0.6,0.8-0.6,1.3c-0.1,0.5,0,1,0.2,1.5c0.2,0.5,0.5,0.9,1,1.2
			c0.3,0.2,0.5,0.5,0.5,0.8c0,0.3-0.1,0.6-0.3,0.8s-0.4,0.4-0.7,0.5c-0.3,0.1-0.6,0-0.9-0.2c-0.1-0.1-0.3-0.3-0.5-0.4
			c0.1,1.1,0.2,2.2,0.4,3.5s0.4,2.7,0.7,4.2c-0.5,0-1,0-1.5,0c-0.5,0-1,0-1.5,0c-0.5,0-1,0-1.5,0c-0.5,0-1,0-1.5,0
			c0.4-2,0.6-3.7,0.9-5.2c0.2-1.5,0.4-2.8,0.4-4.1c0.1-1.2,0.1-2.5,0-3.7c-0.1-1.2-0.2-2.6-0.4-4.1c-0.2-1.5-0.5-3.2-0.9-5.2
			c0.5,0,1,0,1.5,0c0.5,0,1,0,1.5,0c0.5,0,1,0,1.5,0c0.5,0,1,0,1.5,0c-0.2,1.4-0.5,2.6-0.6,3.8c-0.2,1.1-0.3,2.2-0.5,3.1
			c0.4-0.3,0.8-0.5,1.2-0.6C278.9,411.8,279.4,411.8,280,411.8z"/>
		<path id="XMLID_377_" class="st0" fill="#BB2025" d="M299.7,425.4c0.5-0.1,0.9-0.1,1.2,0.3c0.3,0.3,0.4,0.7,0.3,1.1c-0.1,0.4-0.3,0.7-0.8,0.9
			c-2,0.7-3.8,1-5.3,0.9c-1.5-0.1-2.8-0.5-3.9-1.1c-1.1-0.6-1.9-1.5-2.5-2.5s-1-2.1-1.2-3.3c-0.2-1.2-0.1-2.4,0.1-3.5
			s0.7-2.2,1.3-3.2c0.6-1,1.5-1.8,2.5-2.3s2.2-0.9,3.7-0.8c1,0,1.8,0.2,2.5,0.6c0.7,0.4,1.2,1,1.5,1.7s0.5,1.4,0.5,2.2
			c0,1-0.2,1.9-0.6,2.7s-1.1,1.5-1.8,2s-1.6,0.9-2.5,1.2c-0.9,0.2-1.9,0.3-2.8,0.2c0.3,0.9,0.8,1.6,1.5,2.2s1.5,1,2.6,1.2
			C296.9,425.9,298.2,425.8,299.7,425.4z M295.1,414.1c-0.8,0-1.5,0.3-2,0.8c-0.6,0.6-1,1.3-1.3,2.1c-0.3,0.9-0.4,1.8-0.4,2.7
			c1.2,0.3,2.3,0.3,3.2-0.1c0.9-0.3,1.5-0.8,2-1.5c0.5-0.6,0.7-1.3,0.7-1.9c0-0.6-0.1-1.1-0.5-1.5
			C296.4,414.3,295.8,414.1,295.1,414.1z"/>
		<path id="XMLID_375_" class="st0" fill="#BB2025" d="M314.1,420.7c-0.8,0-1.7,0-2.5,0c-0.9,0-1.7,0-2.5,0c0.1-0.4,0.3-0.9,0.6-1.4
			c0.3-0.6,0.6-1.2,0.8-1.8c0.3-0.6,0.5-1.2,0.6-1.7s0.1-1-0.1-1.3c-0.2-0.3-0.5-0.5-1.1-0.5c-0.2,0-0.6,0.1-1.1,0.3
			c-0.5,0.2-1.1,0.5-1.8,1.1c-0.2,1.2-0.4,2.2-0.5,3.1c-0.1,0.9-0.1,1.8,0,2.8c0.1,0.9,0.2,1.9,0.4,3c0.2,1.1,0.5,2.4,0.9,3.8
			c-0.5,0-1,0-1.5,0s-1,0-1.5,0c-0.5,0-1,0-1.5,0c-0.5,0-1,0-1.5,0c0.4-1.4,0.6-2.7,0.9-3.7c0.2-1.1,0.4-2.1,0.4-3
			c0.1-0.9,0.1-1.8,0-2.7s-0.2-1.9-0.4-3c-0.2-1.1-0.5-2.3-0.9-3.7c0.5,0,1,0,1.5,0c0.5,0,1,0,1.5,0c0.5,0,1,0,1.5,0s1,0,1.5,0
			c0,0,0,0.1,0,0.1c0,0,0,0.1-0.1,0.1c0.4-0.2,0.8-0.3,1.1-0.4s0.6-0.1,0.8-0.1c1.1,0,1.9,0.3,2.5,0.8c0.6,0.6,1,1.3,1.3,2.2
			c0.3,0.9,0.4,1.9,0.5,2.9C314,418.7,314.1,419.7,314.1,420.7z"/>
		<path id="XMLID_240_" class="st0" fill="#BB2025" d="M327.7,425.4c0.5-0.1,0.9-0.1,1.2,0.3c0.3,0.3,0.4,0.7,0.3,1.1c-0.1,0.4-0.3,0.7-0.8,0.9
			c-2,0.7-3.8,1-5.3,0.9c-1.5-0.1-2.8-0.5-3.9-1.1c-1.1-0.6-1.9-1.5-2.5-2.5s-1-2.1-1.2-3.3c-0.2-1.2-0.1-2.4,0.1-3.5
			s0.7-2.2,1.3-3.2c0.6-1,1.5-1.8,2.5-2.3s2.2-0.9,3.7-0.8c1,0,1.8,0.2,2.5,0.6c0.7,0.4,1.2,1,1.5,1.7s0.5,1.4,0.5,2.2
			c0,1-0.2,1.9-0.6,2.7s-1.1,1.5-1.8,2s-1.6,0.9-2.5,1.2c-0.9,0.2-1.9,0.3-2.8,0.2c0.3,0.9,0.8,1.6,1.5,2.2s1.5,1,2.6,1.2
			C324.9,425.9,326.2,425.8,327.7,425.4z M323,414.1c-0.8,0-1.5,0.3-2,0.8c-0.6,0.6-1,1.3-1.3,2.1c-0.3,0.9-0.4,1.8-0.4,2.7
			c1.2,0.3,2.3,0.3,3.2-0.1c0.9-0.3,1.5-0.8,2-1.5c0.5-0.6,0.7-1.3,0.7-1.9c0-0.6-0.1-1.1-0.5-1.5
			C324.3,414.3,323.8,414.1,323,414.1z"/>
	</g>
	<path id="XMLID_239_" class="st0" fill="#BB2025" d="M296.6,326.1c0-4.6,3.7-8.3,8.3-8.3c0.6,0,1.2,0.1,1.8,0.2c-2.1-2.1-5-3.4-8.2-3.4
		c-6.4,0-11.5,5.1-11.5,11.5c0,6.4,5.1,11.5,11.5,11.5c3.2,0,6.1-1.3,8.2-3.4c-0.6,0.1-1.2,0.2-1.8,0.2
		C300.3,334.4,296.6,330.7,296.6,326.1z"/>
	<g id="XMLID_187_">
		<path id="XMLID_191_" class="st0" fill="#BB2025" d="M399.7,372.9c-12.7-8.8-19.9-9.3-34.3-11.8v-26.7c-2.6-0.8-5.8-1.8-7.2-2.4
			c-28.1-12.1-45.1-31.5-51.9-59.4c-0.3-1.3-0.7-3.6-1-5.7H290c-0.3,2.1-0.7,4.4-1,5.7c-6.8,27.9-23.8,47.3-51.9,59.4
			c-1.3,0.6-4.6,1.6-7.2,2.4v26.7c-14.4,2.5-21.5,2.9-34.3,11.8c-15.5,10.6-24.9,28.6-25.1,48.1c0.3,19.4,9.7,37.4,25.2,48
			c12.8,8.8,20,9.4,34.3,11.8v26.6c2.6,0.8,5.8,1.8,7.2,2.4c28.1,12.1,45.1,31.5,51.9,59.4c0.3,1.3,0.7,3.6,1,5.7h15.2
			c0.3-2.1,0.7-4.4,1-5.7c6.8-27.8,23.8-47.3,51.9-59.4c1.3-0.6,4.6-1.6,7.2-2.4v-26.6c14.4-2.5,21.6-2.9,34.3-11.8
			c15.5-10.6,24.9-28.6,25.2-48.1C424.5,401.5,415.1,383.5,399.7,372.9z M272.5,458.5H270v-2.8h2.5V458.5z M272.5,454.7H270V452h2.5
			V454.7z M275.8,458.5h-2.5v-2.8h2.5V458.5z M275.8,454.7h-2.5V452h2.5V454.7z M276.3,518.5c-0.9-9.2,8.9-5.3,8.9-5.3
			s-10-13.8,1.8-13.8s15.8,30.8,15.8,30.8S277.2,527.7,276.3,518.5z M284,455.7v2.8h-2.5v-2.8H284z M281.5,454.7V452h2.5v2.8H281.5z
			 M287.4,455.7v2.8h-2.5v-2.8H287.4z M284.9,454.7V452h2.5v2.8H284.9z M292.8,458.2v-5.7h2.5v5.7H292.8z M298.4,476.5
			c5.2-3.1,5.6,3.8,5.6,3.8s5.4-9.8,8.6-2.7c3.2,7-13.9,17.9-13.9,17.9S293.2,479.6,298.4,476.5z M297.9,466.1v-16.4h5.9V466
			C301.8,466,299.8,466,297.9,466.1z M306.2,458.2v-5.7h2.5v5.7H306.2z M305.1,518.7c0,0-2.9-11.2,0.8-13c3.7-1.8,3.6,2.9,3.6,2.9
			s4.3-6.4,6.1-1.4C317.5,512.2,305.1,518.7,305.1,518.7z M316.7,458.5h-2.5v-2.8h2.5V458.5z M316.7,454.7h-2.5V452h2.5V454.7z
			 M320.1,458.5h-2.5v-2.8h2.5V458.5z M320.1,454.7h-2.5V452h2.5V454.7z M334.3,468c-4.2-0.5-8.3-0.9-12.4-1.2v-15.9h12.4V468z
			 M396.1,463.8c-8.1,5.6-14.2,8-24.3,9.5l-6.3,1.1c-9.6-2.7-19.4-4.7-29-6V445h-24.4v21.2l0.1,0c-0.2,0-0.5,0-0.7,0v-21.5h-21.1
			v21.5c-0.3,0-0.6,0-0.9,0l0.1,0l0-21.2h-24.4v23.1c-15.6,1.8-28.2,4.3-35.7,6.1l-5.9-1c-10-1.5-16.2-3.9-24.3-9.5
			c-13.8-9.5-22.1-25.4-22.4-42.8c0.3-17.4,8.6-33.4,22.4-42.8c8.1-5.6,14.2-8,24.3-9.5l12.8-2.2v-27.4c2.3-0.7,3-1.1,3.4-1.2
			c30.1-12.9,48.3-33.8,55.6-63.7c0.1-0.3,0.1-0.5,0.2-0.9h4.5c0.1,0.3,0.1,0.6,0.2,0.9c7.3,29.9,25.5,50.8,55.6,63.7
			c0.3,0.1,1.1,0.5,3.3,1.2v27.4l12.8,2.2c10,1.5,16.2,3.9,24.3,9.5c13.8,9.4,22.1,25.4,22.4,42.8
			C418.2,438.3,409.8,454.3,396.1,463.8z"/>
		<polygon id="XMLID_190_" class="st0" fill="#BB2025" points="289.5,444.2 312.1,444.2 300.8,429.8 		"/>
		<polygon id="XMLID_189_" class="st0" fill="#BB2025" points="303.3,431.8 313.1,444.2 336.9,444.2 329.5,432.5 		"/>
		<polygon id="XMLID_188_" class="st0" fill="#BB2025" points="272.1,432.5 264.7,444.2 288.5,444.2 298.3,431.8 		"/>
	</g>
	<polygon id="XMLID_186_" class="st0" fill="#BB2025" points="225,371.1 227.1,375.2 231.6,375.9 228.3,379.1 229.1,383.6 225,381.5 220.9,383.6 
		221.7,379.1 218.4,375.9 223,375.2 	"/>
	<polygon id="XMLID_185_" class="st0" fill="#BB2025" points="275.8,343.7 271.7,339.1 265.6,339.9 268.7,334.5 266.1,328.9 272.1,330.2 276.7,326 
		277.3,332.2 282.7,335.2 277,337.7 	"/>
	<polygon id="XMLID_184_" class="st0" fill="#BB2025" points="248.9,403.9 244.8,399.3 238.6,400 241.7,394.7 239.1,389.1 245.2,390.4 249.7,386.2 
		250.3,392.4 255.7,395.4 250,397.8 	"/>
	<polygon id="XMLID_183_" class="st0" fill="#BB2025" points="359.4,416.8 355.3,412.2 349.2,412.9 352.3,407.6 349.7,402 355.7,403.3 360.3,399.1 
		360.9,405.3 366.3,408.3 360.6,410.7 	"/>
	<polygon id="XMLID_182_" class="st0" fill="#BB2025" points="368,459.8 363.9,455.2 357.7,455.9 360.9,450.6 358.2,445 364.3,446.3 368.8,442.1 
		369.4,448.2 374.9,451.2 369.2,453.7 	"/>
	<polygon id="XMLID_181_" class="st0" fill="#BB2025" points="324.5,340.6 325.4,342.5 327.5,342.8 326,344.2 326.4,346.3 324.5,345.3 322.7,346.3 
		323,344.2 321.5,342.8 323.6,342.5 	"/>
	<polygon id="XMLID_180_" class="st0" fill="#BB2025" points="338.8,336.1 341,340.5 345.8,341.2 342.3,344.6 343.1,349.4 338.8,347.1 334.5,349.4 
		335.4,344.6 331.9,341.2 336.7,340.5 	"/>
	<polygon id="XMLID_179_" class="st0" fill="#BB2025" points="314.2,318.6 315.1,320.5 317.2,320.8 315.7,322.2 316.1,324.2 314.2,323.3 
		312.4,324.2 312.8,322.2 311.3,320.8 313.3,320.5 	"/>
	<polygon id="XMLID_178_" class="st0" fill="#BB2025" points="295.6,295.3 296.9,298 299.8,298.4 297.7,300.4 298.2,303.3 295.6,302 293,303.3 
		293.5,300.4 291.4,298.4 294.3,298 	"/>
	<polygon id="XMLID_177_" class="st0" fill="#BB2025" points="362.3,377.2 363.5,379.7 366.3,380.1 364.3,382.1 364.8,384.8 362.3,383.5 
		359.8,384.8 360.3,382.1 358.2,380.1 361,379.7 	"/>
	<polygon id="XMLID_168_" class="st0" fill="#BB2025" points="385.8,379.8 387.9,384.2 392.8,384.9 389.3,388.3 390.1,393.1 385.8,390.8 
		381.4,393.1 382.3,388.3 378.8,384.9 383.6,384.2 	"/>
	<polygon id="XMLID_167_" class="st0" fill="#BB2025" points="243.9,450.5 246,454.8 250.9,455.6 247.4,459 248.2,463.8 243.9,461.5 239.5,463.8 
		240.4,459 236.9,455.6 241.7,454.8 	"/>
	<polygon id="XMLID_164_" class="st0" fill="#BB2025" points="199.7,388.4 201.9,392.8 206.8,393.5 203.2,396.9 204.1,401.7 199.7,399.4 
		195.4,401.7 196.2,396.9 192.7,393.5 197.6,392.8 	"/>
	<polygon id="XMLID_163_" class="st0" fill="#BB2025" points="211.9,445.3 216.4,447.3 220.5,444.8 220,449.6 223.7,452.8 219,453.8 217.1,458.4 
		214.6,454.1 209.8,453.7 213,450.1 	"/>
	<polygon id="XMLID_160_" class="st0" fill="#BB2025" points="391,434.4 392,436.4 394.2,436.7 392.6,438.3 392.9,440.5 391,439.5 389,440.5 
		389.4,438.3 387.7,436.7 390,436.4 	"/>
	<polygon id="XMLID_157_" class="st0" fill="#BB2025" points="389.5,442.9 391.4,446.8 395.7,447.4 392.6,450.4 393.4,454.7 389.5,452.7 
		385.7,454.7 386.4,450.4 383.3,447.4 387.6,446.8 	"/>
	<polygon id="XMLID_156_" class="st0" fill="#BB2025" points="347,427.8 347.8,429.4 349.6,429.7 348.3,431 348.6,432.8 347,431.9 345.3,432.8 
		345.6,431 344.3,429.7 346.2,429.4 	"/>
	<polygon id="XMLID_155_" class="st0" fill="#BB2025" points="261.3,423.9 263,427.4 266.8,427.9 264,430.6 264.7,434.4 261.3,432.6 257.8,434.4 
		258.5,430.6 255.7,427.9 259.6,427.4 	"/>
	<polygon id="XMLID_154_" class="st0" fill="#BB2025" points="226.1,396.4 227.8,399.9 231.6,400.5 228.8,403.2 229.5,407 226.1,405.2 222.6,407 
		223.3,403.2 220.5,400.5 224.4,399.9 	"/>
	<polygon id="XMLID_153_" class="st0" fill="#BB2025" points="376.3,415.7 378,419.1 381.9,419.7 379.1,422.4 379.7,426.2 376.3,424.4 372.9,426.2 
		373.6,422.4 370.8,419.7 374.6,419.1 	"/>
	<polygon id="XMLID_152_" class="st0" fill="#BB2025" points="342.9,379.6 344.6,383 348.4,383.6 345.6,386.3 346.3,390.1 342.9,388.3 339.4,390.1 
		340.1,386.3 337.3,383.6 341.1,383 	"/>
	<polygon id="XMLID_151_" class="st0" fill="#BB2025" points="210.6,426.8 211.3,428.2 212.9,428.4 211.7,429.5 212,431.1 210.6,430.3 209.2,431.1 
		209.5,429.5 208.4,428.4 209.9,428.2 	"/>
	<polygon id="XMLID_150_" class="st0" fill="#BB2025" points="225,421.5 226.9,425.3 231,425.9 228,428.8 228.7,432.9 225,430.9 221.3,432.9 
		222,428.8 219.1,425.9 223.2,425.3 	"/>
	<polygon id="XMLID_149_" class="st0" fill="#BB2025" points="188,421.8 189.5,424.8 192.7,425.3 190.4,427.6 190.9,430.8 188,429.3 185.1,430.8 
		185.7,427.6 183.3,425.3 186.6,424.8 	"/>
	<polygon id="XMLID_148_" class="st0" fill="#BB2025" points="194,434.2 195.1,436.3 197.4,436.7 195.7,438.3 196.1,440.6 194,439.5 191.9,440.6 
		192.3,438.3 190.6,436.7 193,436.3 	"/>
	<polygon id="XMLID_147_" class="st0" fill="#BB2025" points="208.4,403.7 209.4,405.7 211.7,406.1 210,407.7 210.4,410 208.4,408.9 206.3,410 
		206.7,407.7 205,406.1 207.3,405.7 	"/>
	<polygon id="XMLID_247_" class="st0" fill="#BB2025" points="209.1,377.2 210.3,379.5 212.8,379.8 211,381.6 211.4,384.1 209.1,382.9 206.9,384.1 
		207.3,381.6 205.5,379.8 208,379.5 	"/>
	<polygon id="XMLID_246_" class="st0" fill="#BB2025" points="248,362.7 249.3,365.2 252.2,365.7 250.1,367.7 250.6,370.5 248,369.2 245.5,370.5 
		245.9,367.7 243.9,365.7 246.7,365.2 	"/>
	<polygon id="XMLID_245_" class="st0" fill="#BB2025" points="250.2,336.4 252.2,340.6 256.9,341.3 253.5,344.5 254.3,349.1 250.2,347 246,349.1 
		246.8,344.5 243.5,341.3 248.1,340.6 	"/>
	<polygon id="XMLID_244_" class="st0" fill="#BB2025" points="296.8,344.6 297.9,346.9 300.4,347.2 298.6,349 299,351.5 296.8,350.3 294.6,351.5 
		295,349 293.2,347.2 295.7,346.9 	"/>
	<polygon id="XMLID_128_" class="st0" fill="#BB2025" points="327.5,330 328,331 329.2,331.2 328.4,332 328.6,333.2 327.5,332.6 326.5,333.2 
		326.7,332 325.9,331.2 327,331 	"/>
	<polygon id="XMLID_80_" class="st0" fill="#BB2025" points="402.5,429.5 404,432.4 407.2,432.9 404.8,435.2 405.4,438.4 402.5,436.9 399.6,438.4 
		400.2,435.2 397.9,432.9 401.1,432.4 	"/>
</g>
</svg>
