<?xml version="1.0" encoding="utf-8"?>
<!-- Generator: Adobe Illustrator 19.0.0, SVG Export Plug-In . SVG Version: 6.00 Build 0)  -->
<svg version="1.1" id="Layer_1" xmlns="http://www.w3.org/2000/svg" xmlns:xlink="http://www.w3.org/1999/xlink" x="0px" y="0px"
	 viewBox="0 0 595.3 841.9" style="enable-background:new 0 0 595.3 841.9;" xml:space="preserve">
<style type="text/css">
	.st0{fill:#BB2025;}
</style>
<g id="XMLID_1_">
	<polygon id="XMLID_16_" class="st0" fill="#BB2025" points="231.1,376.4 234.1,381.9 239.6,384.9 234.1,387.9 231.1,393.5 228,387.9 222.5,384.9 
		228,381.9 	"/>
	<polygon id="XMLID_17_" class="st0" fill="#BB2025" points="205.4,391.5 206.5,393.6 208.6,394.8 206.5,395.9 205.4,398 204.2,395.9 202.1,394.8 
		204.2,393.6 	"/>
	<polygon id="XMLID_18_" class="st0" fill="#BB2025" points="252.8,356 249.8,354.5 246.4,354.9 247.9,351.9 247.4,348.5 250.5,350 253.9,349.6 
		252.4,352.6 	"/>
	<polygon id="XMLID_79_" class="st0" fill="#BB2025" points="344.2,355 339.8,355.1 336.1,357.5 336,353.1 333.6,349.5 338,349.4 341.6,347 
		341.7,351.4 	"/>
	<polygon id="XMLID_82_" class="st0" fill="#BB2025" points="394.6,413.3 395.9,415.5 398.1,416.8 395.9,418 394.6,420.2 393.4,418 391.2,416.8 
		393.4,415.5 	"/>
	<polygon id="XMLID_83_" class="st0" fill="#BB2025" points="386.1,443.7 383.9,441.2 380.6,440.3 383.2,438 384.1,434.8 386.4,437.3 389.6,438.3 
		387.1,440.5 	"/>
	<polygon id="XMLID_84_" class="st0" fill="#BB2025" points="410.4,439.3 405,435.9 398.7,436 402,430.7 401.9,424.3 407.3,427.7 413.6,427.5 
		410.3,432.9 	"/>
	<polygon id="XMLID_85_" class="st0" fill="#BB2025" points="381.9,384 385.1,390 391.1,393.2 385.1,396.5 381.9,402.4 378.6,396.5 372.7,393.2 
		378.6,390 	"/>
	<polygon id="XMLID_86_" class="st0" fill="#BB2025" points="212.4,433.5 217.8,443.4 227.6,448.7 217.8,454.1 212.4,464 207,454.1 197.2,448.7 
		207,443.4 	"/>
	<polygon id="XMLID_87_" class="st0" fill="#BB2025" points="311.5,325 313.5,328.7 317.2,330.7 313.5,332.8 311.5,336.5 309.5,332.8 305.7,330.7 
		309.5,328.7 	"/>
	<polygon id="XMLID_88_" class="st0" fill="#BB2025" points="286.6,336.5 284.6,332.8 280.9,330.7 284.6,328.7 286.6,325 288.7,328.7 292.4,330.7 
		288.7,332.8 	"/>
	<polygon id="XMLID_89_" class="st0" fill="#BB2025" points="294.6,306.1 297.5,311.4 302.8,314.2 297.5,317.1 294.6,322.4 291.7,317.1 
		286.5,314.2 291.7,311.4 	"/>
	<polygon id="XMLID_90_" class="st0" fill="#BB2025" points="205.4,403.7 207.4,407.5 211.2,409.5 207.4,411.5 205.4,415.3 203.3,411.5 
		199.6,409.5 203.3,407.5 	"/>
	<polygon id="XMLID_91_" class="st0" fill="#BB2025" points="376.9,447.4 379.8,452.8 385.1,455.7 379.8,458.6 376.9,464 373.9,458.6 368.6,455.7 
		373.9,452.8 	"/>
	<g id="XMLID_44_">
		<polygon id="XMLID_45_" class="st0" fill="#BB2025" points="289.2,417.5 284.6,426.1 293.9,421.7 297.8,448 301.7,422 310.5,426.3 306,417.5 
			331.6,413.7 305.8,409.9 310.1,400.9 301.6,405.4 297.8,380 294,405.6 284.9,401.1 289.4,409.9 263.5,413.7 		"/>
		<path id="XMLID_54_" class="st0" fill="#BB2025" d="M399.7,372.9c-12.7-8.8-19.9-9.3-34.3-11.8v-26.7c-2.6-0.8-5.8-1.8-7.2-2.4
			c-28.1-12.1-45.1-31.5-51.9-59.4c-0.3-1.3-0.7-3.6-1-5.7H290c-0.3,2.1-0.7,4.4-1,5.7c-6.8,27.9-23.8,47.3-51.9,59.4
			c-1.3,0.6-4.6,1.6-7.2,2.4v26.7c-14.4,2.5-21.5,2.9-34.3,11.8c-15.5,10.6-24.9,28.6-25.1,48.1c0.3,19.4,9.7,37.4,25.2,48
			c12.8,8.8,20,9.4,34.3,11.8v26.6c2.6,0.8,5.8,1.8,7.2,2.4c28.1,12.1,45.1,31.5,51.9,59.4c0.3,1.3,0.7,3.6,1,5.7h15.2
			c0.3-2.1,0.7-4.4,1-5.7c6.8-27.8,23.8-47.3,51.9-59.4c1.3-0.6,4.6-1.6,7.2-2.4v-26.6c14.4-2.5,21.6-2.9,34.3-11.8
			c15.5-10.6,24.9-28.6,25.2-48.1C424.5,401.5,415.1,383.5,399.7,372.9z M282.2,398.5l10.9,5.4l4.7-31.9l4.7,31.6l10.3-5.4
			l-5.2,10.8l9.8,1.5c7.2,0,14.4,0,21.6,0c0.4,0,0.9,0.2,1.3,0.4c4.5,3.8,9,7.7,13.6,11.5c0.5,0.4,0.6,0.8,0.6,1.4
			c0,19.4,0,38.9,0,58.3c0,3.4,0,6.8,0,10.2c0,0.3,0,0.7,0,1.1h0l0,1.3c-0.7-0.1-2.5-5.1-2.9-7.4c-0.3-0.1-1.5-7.8-2.2-11.2
			c0.1-0.1-4.4-21.8-4.3-25.4c1.3-0.8,2.5-1.5,3.8-2.3c-3.5-2-4-7.2-5-10.8l0.1,0c0.1-0.6-0.5-0.8-0.8-1.2c-0.3-0.4-0.6-0.9-1-1.2
			c-0.4-0.4-0.8-0.6-1.3-0.9c-0.4-0.2-0.9-0.3-1.3-0.4c-0.1,0-0.1,0.1-0.2,0.1c-0.7-0.6-0.5-1.6-1.4-2.1c0.3-0.9-0.5-1.4-0.8-2.1
			c-0.6-1.3-1.4-2.4-2-3.6c-0.7-1.6-1.9-2.7-3.4-3.5c-0.6-0.4-1.4-0.5-2-0.8c-0.3-0.2-0.7,0-1,0c-1.4,0-3.4,0.9-4,1.6
			c-1.2,1.2-2.3,2.5-2.5,4.4c0,0.1,0,0.1,0,0.2c0.2,0,0.5,0.1,0.7,0.1c0.1,1.2,0.8,2.1,1.3,3.1c0.1,0,0.3,0,0.4,0.1c0,0,0,0,0.1,0.1
			c0.1,0.8,0.1,1.6,0.2,2.4c0.3,0,0.6,0.1,1,0.2c0.1,0.4,0.2,0.7,0.3,1.1c0.2,0.8,0.2,1.6,0.5,2.4c0.2,0.6,0.6,1,1.3,1.1
			c0.4,0.1,0.7,0.1,1.2,0.2c0.4-0.2,0.9-0.5,1.3-0.8c0,0-0.1-0.1-0.1-0.1c0.2-0.2,0.3-0.4,0.5-0.7c0.1,0.1,0.2,0.3,0.2,0.4
			c0,0,0.1,0.1,0.1,0.1c-0.6,1.5-1.4,1.8-1.4,1.8c-0.6,0.4-1.1,0.7-1.7,1.1c-2.1-2-5-2.4-7.3-4.5c0.2-0.2,0.3-0.3,0.4-0.4
			c-0.1-0.2-0.3-0.3-0.4-0.5c0.1-0.2-0.8-6.5,0.1-7.3l-1.1-1.9c-1,0.1-1.9-0.1-2.7,0.2c0.4,2,1.7,7.2,0.6,9.1
			c0.9,1.9,0.9,5.4,1.2,7.5c-1.4,1.4,0.3,7.3,0.9,9c-0.3,0.1-0.7,4.5,0.2,6.4c-0.2,0.2,2,25.6,2.9,33.6c-1.5-0.1-3-0.1-4.5-0.2
			c0-0.2,0.1-0.5,0.1-0.7c0.2-0.7,0.3-1.3,0.5-2c0.2-0.7,0.4-1.4,0.5-2c0.6,0.2,1.2,0.1,1.9,0.1c0.1-0.9-0.6-1.4-0.9-2
			c0.5-0.1,1-0.2,1.5-0.3c-0.5-0.4-1.2-0.3-1.6-0.9c0.4,0,0.7,0,1,0c0.3-0.2,0.4-0.2,0.7-0.4c-1-0.7-2-0.9-3-1.2
			c0.3-0.1,0.5-0.3,0.8-0.4c0-0.5-0.5-0.6-0.7-0.6c-0.7-0.2-1.4-0.4-2.1-0.4c-0.4,0-0.4,0-1.1-0.3c0.2-0.2,0.4-0.3,0.6-0.4
			c0.4,0,0.9,0,1.4,0c0-0.1,0-0.2,0-0.3c-0.8-0.3-1.6-0.5-2.4-0.8c0,0,0-0.1,0-0.1c-0.3,0-0.5,0-0.8,0c-0.2,0-0.5,0.1-0.7,0.2
			c-0.2-0.1-0.4-0.1-0.7-0.2c-0.3-1.1-1-2.1-2.1-2.8c-1-0.6-2.1-1-3.3-0.9c-0.7,0.1-1.5,0.2-2.1,0.6c-0.6,0.4-1.3,0.8-1.7,1.4
			c-0.4,0.6-0.9,1.2-1,2c-0.7-0.1-1.3,0-2-0.2c-0.5-0.2-1.1,0-1.6,0c-0.5,0-1,0.1-1.6-0.2c-0.1-0.1-0.4,0.1-0.7,0.2
			c-0.5,0-1,0-1.5,0c-1.4,0.1-2.8,0.3-4.2,0.7c-0.8,0.2-1.7,0.5-2.6,0.1c-0.1-0.1-0.3-0.1-0.4,0c-0.6,0.4-1.4,0.1-2,0.2
			c-0.1,0.1-0.2,0.2-0.3,0.3c0.5,0.2,0.9,0.5,1.4,0.7c-0.6,0.2-1.2,0-1.8,0.2c-0.6,0.2-1.2,0.2-1.7,0.5c-0.5,0.2-1,0.5-1.6,0.7
			c-0.1,0-0.2,0.1-0.3,0.2c-0.1-0.1-0.2-0.2-0.4-0.2c0-0.2,0-0.3,0.1-0.5c0.3,0.3,0.5,0.6,0.8,0.4c0-1-1.3-2.2-2.8-2.5
			c-0.5-0.6-1.3-1.1-1.6-1.9c0.1-0.2,0.2-0.3,0.2-0.4c0-0.4,0-0.8,0-1.2c0-0.9-0.2-1.7-0.6-2.5c-0.2-0.4-0.4-0.8-0.6-1.2
			c-0.3-0.5-0.4-1-0.6-1.6c-0.2-0.6-0.5-1.2-0.7-1.8c-0.4-1.1-0.5-2.2-0.8-3.3c-0.2-1-0.4-2-0.6-3c-0.1-0.2-0.1-0.5-0.1-0.5
			c0.2-0.3,0.4-0.5,0.6-0.8c0.7,0.4,1.3,0.6,2.1,0.4c0.6-0.7,1.2-1.5,1.9-2.3c0.2,0,0.4,0,0.6,0c0-0.6,0-1.2,0-1.8
			c0.2-0.1,0.4-0.3,0.6-0.4c-0.1-0.2-0.2-0.3-0.3-0.4c0.9-1,1.1-2.2,1-3.5c-0.3-0.4-0.5-0.8-0.8-1.2c-0.4-0.1-0.8-0.2-1.1-0.3
			c-0.5-0.8-1.1-1.4-1.8-1.9c-0.6-0.4-1.3-0.3-1.9-0.5c-0.4-0.1-0.8,0.1-1.2,0.2c-1.3,0.4-2.6,0.9-3.7,1.7c-1.4,0.9-2.5,2.1-3.2,3.6
			c-0.5,0.9-1.1,1.7-1.8,2.5c-0.5,0.6-1,1.2-1.5,1.9c-0.6,0.8-1.2,1.6-1.7,2.4c-0.6,0.9-1.2,1.8-1.8,2.8c-0.9,1.4-1.7,2.8-2.5,4.2
			c-0.1,0.2-0.2,0.5-0.3,0.7c-0.9,1.3-1.4,2.8-2.2,4.1c0,0.6-0.4,1-0.6,1.5c-0.2,0.5-0.5,1-0.7,1.5c-0.2,0.4-0.5,0.9-0.6,1.3
			c0.1,0.3,0.2,0.5,0.2,0.8c0.4,0.5,1.2,1,1.4,1.6c-0.1,0.5-0.1,0.9-0.2,1.1c0.4,0.7,0.8,1.1,1.7,1.4c0.1,0,0.5,0,0.9,0
			c-0.1,0.2-0.2,0.4-0.2,0.6c0,0.6-0.1,1.2-0.2,1.8c-0.1,0.6-0.3,1.2-0.2,1.8c0,0.1-0.1,0.2-0.1,0.3c-0.1,0.7-0.7,1.2-0.9,1.8
			c-0.1,0.3-0.4,0.6-0.5,0.8c-2.3,0.2-3.9,1.4-5.1,3.2c0.1,0.1,0.2,0.2,0.3,0.3c0.5,0,0.9,0,1.4,0.2c0.4,0.1,0.9,0,1.4,0
			c0.5,0,0.9-0.1,1.4-0.2c0.4-0.1,0.9-0.1,1.5-0.2c0,0,0,0.1,0.1,0.2c0,0,0.1,0.1,0.1,0.1c-6.1,0.6-11.7,1.3-16.6,1.9l-0.4-14
			c0-7.8,0-18.1,0-24.5c0-11,0-21.9,0.1-32.9c0-0.5,0.2-1.1,0.6-1.4c4.4-3.8,8.8-7.6,13.2-11.4c0.3-0.3,0.9-0.5,1.3-0.5
			c7.6,0,15.2,0,22.8,0l10-1.5L282.2,398.5z M326,490c-1.3-0.6-1.7-13.1-1.4-13.5c-0.2-0.2-0.8-5.6-0.9-7.7
			c-0.3-5.3-1.4-15.1-1.4-16c1.9,1.6,3.3,0.2,5.3,0.2c0.2,0.2,0.8,0.7,1.3,1.1c-0.6,1-1.9,22.2-2.2,22.2
			C327.5,478,326,488.4,326,490z M281.1,485.3c0.4-0.3,0.9-0.1,1.5-0.2c-0.2,0.4-0.4,0.7-0.5,1c-0.1,0.3-0.1,0.7-0.1,1.2
			c0.7-0.4,1.2-0.7,1.8-1.1c0.3,0.5,0.4,1.1,0.5,1.7c0.1,0.6,0.2,1.1,0.4,1.6c0.2,0.6,0.3,1.2,0.4,1.8c-1.6,0.1-3.1,0.1-4.7,0.2
			c0-0.5-0.2-1.1-0.5-1.5c-0.1-0.1,0-0.2-0.1-0.4c-0.6-1.4-0.8-2.9-1.6-4.2c0-0.1-0.1-0.1-0.1-0.2c-0.3-1.1-0.9-2.1-1.4-3
			c-0.4-0.8-0.9-1.6-1.5-2.4c-0.4-0.6-0.7-1.2-1.2-1.7c-0.3-0.3-0.6-0.8-0.8-1.2c-0.1-0.1,0-0.3-0.1-0.7c1.4,1.7,2.7,3.2,3.8,5
			c0.3-0.4,0.6-0.8,0.9-1.2c0.8,0.8,1.7,1.7,2.5,2.5c0.3,0.3,0.6,0.4,1,0.6c0.4,0.2,0.8,0,1.1,0.3c0.1,0,0.2,0,0.3,0
			c-0.7,0.5-1.3,0.9-2,1.4C280.9,485.1,281,485.2,281.1,485.3z M396.1,463.8c-8.1,5.6-14.2,8-24.3,9.5l-9.9,1.7
			c-0.2-14.8-0.7-29.6-0.7-44.4c0.4,0.3,0.8,0.5,1.1,0.7c0.4,0.3,1,0.7,1.1,1.1c0.3,1.9,1.4,3.4,2.1,5c0.2,0.4,0.4,0.8,0.7,1.4
			c-0.1-1-0.1-1.8-0.2-2.5c0.1,0,0.1,0,0.2-0.1c0.5,0.8,0.9,1.6,1.5,2.6c0.1-0.6,0.1-0.9,0.1-1.4c0.6,0.5,1.1,1,1.8,1.6
			c-0.1-1.3-0.2-2.4-0.3-3.6c0.5,0.3,0.9,0.6,1.1,0.7c0.9-0.5,1.7-1,2.4-1.4c-0.1-0.3-0.2-0.6-0.4-1c-0.1-0.4-0.2-0.9-0.4-1.3
			c-1.4-2.7-2.7-5.4-4.2-8.3c0.4,0.1,0.6,0.2,1,0.3c-1-1.4-1.8-2.7-2.7-3.9c0.1-0.1,0.1-0.1,0.2-0.2c0.9,0.7,1.8,1.5,2.7,2.2
			c-0.5-2.6-3.1-3.4-4.9-5.2c0.6,0,1.1-0.1,1.8-0.1c-1.3-0.6-2.4-1.1-3.7-1.7c0.6-0.1,1-0.1,1.4-0.2c-1.5-0.7-2.9-1.3-4.4-2
			c0-0.1,0.1-0.2,0.1-0.3c0.2,0,0.5-0.1,0.8-0.1c-1.5-0.9-2.8-1.7-4.2-2.6c0.3-0.2,0.5-0.3,0.7-0.5c-1.2-0.6-2.4-1.1-3.5-1.7
			c-0.3-0.1-0.8-0.3-0.8-0.6c-0.1-0.7-0.7-0.9-1.2-1.1c-0.7-0.3-1.4-0.6-2.1-1c-0.3-0.2-0.6-0.5-0.6-0.8c-0.1-0.6-0.5-0.8-1-1
			c-0.5-0.2-1.2-0.5-1.4-0.9c-0.5-1.1-1.3-1.9-2.4-2.3c-0.2-0.1-0.3-0.2-0.4-0.3c0.9-0.2,1.8-0.3,2.7-0.5c-2.1,0-3.8-0.9-5.7-1.9
			c0.4-0.1,0.6-0.1,1-0.2c-1.3-0.9-2.4-1.8-3.7-2.8c0.6,0.1,1,0.2,1.7,0.2c-1.9-1.2-3.6-2.2-5.3-3.3c0.3-0.2,0.4-0.3,0.7-0.5
			c-1.3-0.6-2.5-1.2-3.9-1.8c0.6,0,1-0.1,1.4-0.1c0-0.1,0-0.1,0-0.2c-1.1-0.3-2.1-0.6-3.2-0.9c0.9-0.2,1.8-0.4,2.9-0.6
			c-2.3-0.5-4.4-0.9-6.5-1.3c0-0.1,0-0.2,0-0.2c0.8,0.1,1.5,0.2,2.3,0.3c0-0.1,0.1-0.2,0.1-0.2c-3.5-0.8-6.2-2.9-9.4-4.6
			c0.5,0,0.7,0,1.2,0c-0.3-0.2-0.5-0.4-0.7-0.6c-1.2-0.7-2.4-1.4-3.6-2.1c-0.7-0.4-1.7-0.6-1.5-1.8c0-0.1-0.3-0.3-0.4-0.4
			c-2.2-1.3-4.4-2.7-6.6-4c-0.2-0.1-0.3-0.3-0.5-0.5c-0.3-0.2-0.5-0.6-0.9-0.7c-1.9-0.7-3.8-1.2-5.7-1.9c-1.6-0.6-3.3-0.9-5-0.3
			c-2.4,0.7-4.7,1.6-7,2.4c-0.2,0.1-0.3,0.2-0.4,0.3c-0.4,0.4-0.7,0.9-1.1,1.2c-1.9,1.3-3.9,2.5-5.8,3.8c-0.2,0.1-0.5,0.4-0.5,0.6
			c0.3,0.9-0.4,1.1-0.9,1.5c-1.6,1-3.1,2.1-4.7,3.1c0,0,0,0.1,0.1,0.1c0.4-0.1,0.7-0.1,1.1-0.2c0,0,0,0.1,0.1,0.1
			c-1,0.6-2.1,1.2-3.2,1.9c0.3,0.1,0.5,0.1,0.9,0.2c-2.4,1-4.6,2-6.8,2.9c0,0,0,0.1,0,0.1c0.6-0.1,1.2-0.1,1.8-0.2
			c0,0.1,0,0.2,0.1,0.3c-2,0.5-3.9,0.9-6.2,1.4c1.1,0.2,2,0.4,3,0.5c-1.1,0.4-2.1,0.7-3.1,1c0,0,0,0.1,0,0.1c0.4,0,0.8,0,1.1,0.1
			c0,0,0,0.1,0,0.1c-1.2,0.6-2.4,1.2-3.7,1.8c0.3,0.2,0.5,0.3,0.7,0.5c-1.7,1.1-3.4,2.2-5.2,3.5c0.6-0.1,0.9-0.1,1.3-0.2
			c0,0.1,0,0.1,0.1,0.2c-1.1,0.9-2.1,1.7-3.3,2.7c0.5,0.1,0.7,0.1,1,0.1c0,0.1,0,0.2,0.1,0.3c-1.8,0.7-3.7,1.3-5.3,1.9
			c0.6,0.1,1.5,0.2,2.5,0.3c-0.4,0.3-0.9,0.5-1.3,0.8c-0.5,0.4-1,0.8-1.2,1.3c-0.4,0.9-0.9,1.4-1.8,1.7c-0.3,0.1-0.8,0.4-0.8,0.7
			c-0.1,0.7-0.5,1.1-1.1,1.3c-0.7,0.3-1.5,0.7-2.2,1.1c-0.2,0.1-0.4,0.4-0.6,0.6c-0.3,0.3-0.5,0.7-0.8,0.9c-1.1,0.7-2.3,1.2-3.5,1.9
			c0.3,0.2,0.5,0.3,0.8,0.5c-1.4,0.9-2.7,1.8-4.1,2.7c0.3,0.1,0.5,0.1,0.7,0.2c0,0.1,0.1,0.2,0.1,0.3c-1.6,0.7-3.1,1.5-4.6,2.1
			c0.4,0,1,0,1.8,0c-1.3,0.7-2.4,1.2-3.6,1.8c0.8,0,1.2,0.1,2,0.1c-1.1,0.9-2,1.7-2.9,2.4c-1,0.7-1.4,1.8-1.9,3
			c0.9-0.8,1.8-1.6,2.7-2.3c0.1,0.1,0.1,0.1,0.2,0.2c-0.8,1.3-1.6,2.5-2.5,4c0.4-0.2,0.7-0.3,1.1-0.5c-0.8,1.7-1.4,3.2-2.1,4.8
			c0.3,0,0.4,0,0.6,0c-0.4,2.6-1.1,4.9-3.7,6.2c0.1,0.1,0.2,0.2,0.3,0.3c1-0.5,1.9-1,2.9-1.5c-0.2,1-0.4,1.9-0.6,3
			c0.3-0.3,0.5-0.4,1-0.8c0.1,1.2,0.2,2.1,0.4,3.1c0.5-0.5,1-0.9,1.6-1.5c0.1,0.6,0.1,0.9,0.1,1.2c0.4-0.4,0.8-0.9,1.2-1.3
			c0.1,0.1,0.2,0.1,0.2,0.2c0,0.4,0,0.7,0,1.1c0.3-0.4,0.5-0.7,0.6-1.1c0.3-1.5,1.6-2.7,1.7-4.3c0.1-1.2,0.5-2.4,0.8-3.6
			c0,0,0.1,0,0.1,0c0,14.3,0,28.5,0,42.9l-9.3-1.6c-10-1.5-16.2-3.9-24.3-9.5c-13.8-9.5-22.1-25.4-22.4-42.8
			c0.3-17.4,8.6-33.4,22.4-42.8c8.1-5.6,14.2-8,24.3-9.5l12.8-2.2v-27.4c2.3-0.7,3-1.1,3.4-1.2c30.1-12.9,48.3-33.8,55.6-63.7
			c0.1-0.3,0.1-0.5,0.2-0.9h4.5c0.1,0.3,0.1,0.6,0.2,0.9c7.3,29.9,25.5,50.8,55.6,63.7c0.3,0.1,1.1,0.5,3.3,1.2v27.4l12.8,2.2
			c10,1.5,16.2,3.9,24.3,9.5c13.8,9.4,22.1,25.4,22.4,42.8C418.2,438.3,409.8,454.3,396.1,463.8z"/>
	</g>
</g>
</svg>
