<?xml version="1.0" encoding="utf-8"?>
<!-- Generator: Adobe Illustrator 19.0.0, SVG Export Plug-In . SVG Version: 6.00 Build 0)  -->
<svg version="1.1" id="Layer_1" xmlns="http://www.w3.org/2000/svg" xmlns:xlink="http://www.w3.org/1999/xlink" x="0px" y="0px"
	 viewBox="0 0 595.3 841.9" style="enable-background:new 0 0 595.3 841.9;" xml:space="preserve">
<style type="text/css">
	.st0{fill:#BB2025;}
</style>
<g id="XMLID_11_">
	<path id="XMLID_2_" class="st0" fill="#BB2025" d="M355.5,438.4c0,0,0.1,0,0.1,0c-2.6-4.9-6.3-8.2-10.3-10.8c3.7-4.3-1.2-6.6-3.5-10
		c-2.8-4.2-9.1-6.7-9.1-6.7c-0.1-0.7-0.2-1.3-0.3-1.8c0.2-1-0.2-8-0.3-8.8l-0.6-5.9c-0.1-4.9-0.7-9.9-1.8-14.7
		c-0.9-3.8-0.1-5.9,3.2-7.3c3.6-1.5,7.2-3.3,10.4-5.6c1.4-1,2.4-3.6,2.2-5.3c-0.2-1-3.3-2.6-4.8-2.2c-5.3,1.3-10-1.4-14.7-3.6
		c-2.3-1.1-5.5-0.2-7.9-1.1c-0.8-0.7-1-2.7-2.4-3.8c-2.8-2.3-4-6.6-5.5-3.8c-0.6,1-1.5,5.5-1.8,7c-4.2-3.9-5-5-2.7-12.1
		c1.4-4.4,0.6-8.5-2.1-11.2c-1.1-1.1-2.9-0.1-2.7,1.4c0.3,2,0.6,5.3,0.5,7.6c0,1-1.4,1.3-1.8,0.4c-3.4-7.3-5.9-11.4-7.5-13.5
		c-0.8-1.1-2.5-0.1-1.9,1.1c1.6,3.6,3.2,7.3,4.8,11.1c-1.1-0.7-2.6-1.5-4-2c-1.2-0.5-2.3,1-1.4,2c4.8,5.8,9.6,11.6,14.7,17.8
		c0.6,0.7-0.1,1.8-1,1.6c-4.9-1.2-8.8-3-11.8-6.8c-3.4-4.2-7.1-8-10.9-11.8c-0.5-0.5-1.3-0.8-2.2-1.1c-1.2-0.4-2.2,1.1-1.4,2.1
		c2.3,2.8,4.6,5.7,7.1,8.7c0.9,1.1,0,2.7-1.4,2.5c-2.7-0.4-6.9-0.7-9.9-0.9c-1.5-0.1-2.1,2-0.8,2.7c2.6,1.5,5.9,1.7,8.7,2.6
		c2.3,0.7,4.6,1.3,7,2c1.4,0.4,1.3,2.5-0.2,2.7l-7.7,1.1c-1.5,0.2-1.5,2.4,0,2.6c3.4,0.6,6.9-0.4,10.3-0.6c4.9-0.3,9.8-0.8,15.8-1.3
		l-0.6,1.3c-0.6,0.7-1.3,1.6-2.1,2.6c-2.2,2.8-6.4,4.2-3.6,5.7c2.4,1.2,6.3,2,9.7,1c0.1,0,0.2,0.1,0.2,0.1c0,0,0.1,0,0.1,0
		c8.1,2.2,10.5,14.9,5.1,21.3c-5,5.9-11.1,10-18.2,12.2c-7.6,2.4-15.5,3.9-23.3,5.8c-5.3,1.3-10.6,2.6-16.4,4
		c-2.4,0.6-4.9-0.6-6-2.8c-0.9-1.8-1.9-3.7-2.9-5.7c-5.3,2.7-3.7,21.3,4.9,26.8c0.3,1.6,0.4,3.1-0.2,3.6c-5.8,4.1-5.6,10.2-6.5,16
		c-0.2,1.5-0.9,3.3-2,4.3c-1.2,1-2,1.9-2.6,2.7l-3.6,0.1c0,0,0.5,5,1.7,6.8s2.1,3.4,2.1,3.4s2.7-2.1,2.9-3.6c0-0.1,0-0.2,0-0.3
		c2.3-2.6,4.7-5,6.1-8c1.6-3.6,1.7-7.9,2.4-11.9c0.7-2.2,1.6-3.7,2.3-3.6c0.5,4.8,0,13.3,0.4,18.1c0.1,1.3-0.2,2.8-0.8,3.9
		c-1,1.6-1.7,2.8-1.9,3.8l-3.7,0.9c0,0,1.5,4.8,3.1,6.3c1.6,1.5,2.7,2.8,2.7,2.8s2.2-2.6,2-4.1c0-0.1,0-0.2-0.1-0.4
		c3.1-5.2,5.5-10.5,3.5-17c-1.5-4.9,0.6-8.5,5.1-10.9c1.2-0.7,2.5-1.4,3.5-2.4c6.2-6.9,16.1-5,24.7-6.7c8.9-1.7,16-8.1,24.4-11.5
		c5.9-2.4,11.3-2.3,16.3,0.6c0.6,0.3,1.2,0.7,1.8,1.1c-2.6,1.1-5.6,1.8-5.6,1.8c-0.3,0.2-0.5,0.5-0.6,0.7c0-0.1,0-0.1,0-0.1
		l-3.5-1.2c0,0-1.7,4.2-1.3,6.1c0.4,1.9,0.5,3.4,0.5,3.4s2.7-0.6,3.8-1.6c0,0,0,0,0,0c0,0,1.9-0.1,11-6.1c2.1,1.7,4.1,3.6,5.9,5.6
		c0.6,0.6,1.1,1,1.7,1.3l-1.2,3.5c0,0,4.9,1.3,7,0.8c2.1-0.5,3.9-0.8,3.9-0.8S356.7,439.5,355.5,438.4z M328.8,419.5L328.8,419.5
		c-0.1-0.8,0.4-1.5,1.1-1.9c0,0,0,0,0,0c1.7-0.8,3.8-0.4,5.1,1.1c2,2.4,3.6,4.2,4.4,5.6C335.9,422.6,332.3,421.2,328.8,419.5z"/>
	<path id="XMLID_41_" class="st0" fill="#BB2025" d="M195.6,469c12.8,8.8,20,9.4,34.3,11.8v26.6c2.6,0.8,5.8,1.8,7.2,2.4
		c28.1,12.1,45.1,31.5,51.9,59.4c0.3,1.3,0.7,3.6,1,5.7h15.2c0.3-2.1,0.7-4.4,1-5.7c6.8-27.8,23.8-47.3,51.9-59.4
		c1.3-0.6,4.6-1.6,7.2-2.4v-26.6c14.4-2.5,21.6-2.9,34.3-11.8c15.5-10.6,24.9-28.6,25.2-48.1c-0.3-19.5-9.7-37.5-25.2-48.1
		c-12.7-8.8-19.9-9.3-34.3-11.8v-26.7c-2.6-0.8-5.8-1.8-7.2-2.4c-28.1-12.1-45.1-31.5-51.9-59.4c-0.3-1.3-0.7-3.6-1-5.7H290
		c-0.3,2.1-0.7,4.4-1,5.7c-6.8,27.9-23.8,47.3-51.9,59.4c-1.3,0.6-4.6,1.6-7.2,2.4v26.7c-14.4,2.5-21.5,2.9-34.3,11.8
		c-15.5,10.6-24.9,28.6-25.1,48.1C170.7,440.4,180.1,458.4,195.6,469z M199.2,378.2c8.1-5.6,14.2-8,24.3-9.5l12.8-2.2v-27.4
		c2.3-0.7,3-1.1,3.4-1.2c30.1-12.9,48.3-33.8,55.6-63.7c0.1-0.3,0.1-0.5,0.2-0.9h4.5c0.1,0.3,0.1,0.6,0.2,0.9
		c7.3,29.9,25.5,50.8,55.6,63.7c0.3,0.1,1.1,0.5,3.3,1.2v27.4l12.8,2.2c10,1.5,16.2,3.9,24.3,9.5c13.8,9.4,22.1,25.4,22.4,42.8
		c-0.3,17.3-8.6,33.3-22.4,42.8c-8.1,5.6-14.2,8-24.3,9.5l-12.8,2.2v27.3c-2.3,0.7-3,1.1-3.4,1.2c-30.1,13-48.3,33.8-55.6,63.8
		c-0.1,0.3-0.1,0.5-0.2,0.9h-4.5c-0.1-0.3-0.1-0.6-0.2-0.9c-7.3-29.9-25.5-50.8-55.6-63.7c-0.3-0.1-1.1-0.5-3.3-1.2v-27.3l-12.8-2.2
		c-10-1.5-16.2-3.9-24.3-9.5c-13.8-9.5-22.1-25.4-22.4-42.8C177.1,403.6,185.4,387.7,199.2,378.2z"/>
	<polygon id="XMLID_64_" class="st0" fill="#BB2025" points="254.9,357.2 252.6,354.7 249.1,355.2 250.8,352.1 249.3,349 252.7,349.7 255.2,347.3 
		255.6,350.7 258.7,352.3 255.5,353.8 	"/>
	<polygon id="XMLID_71_" class="st0" fill="#BB2025" points="297.6,314.7 295.1,309.6 289.6,308.8 293.6,304.9 292.6,299.3 297.6,302 302.6,299.3 
		301.7,304.9 305.7,308.8 300.1,309.6 	"/>
	<polygon id="XMLID_72_" class="st0" fill="#BB2025" points="341.9,338.3 343.4,341.5 347,342 344.4,344.5 345,348 341.9,346.4 338.7,348 
		339.3,344.5 336.8,342 340.3,341.5 	"/>
	<polygon id="XMLID_73_" class="st0" fill="#BB2025" points="313.4,315.9 314.5,318.2 317,318.5 315.2,320.3 315.6,322.8 313.4,321.6 311.1,322.8 
		311.6,320.3 309.7,318.5 312.2,318.2 	"/>
	<polygon id="XMLID_74_" class="st0" fill="#BB2025" points="264.9,376.7 261.5,373.5 257,374.5 259,370.4 256.7,366.4 261.2,367 264.3,363.5 
		265.2,368 269.4,369.9 265.3,372.1 	"/>
	<polygon id="XMLID_75_" class="st0" fill="#BB2025" points="372.4,389.7 367.9,387.9 363.8,390.6 364.1,385.7 360.3,382.6 365,381.5 366.7,376.9 
		369.3,381 374.2,381.2 371.1,385 	"/>
	<polygon id="XMLID_76_" class="st0" fill="#BB2025" points="289.6,383.7 289.6,383.7 289.6,383.7 289.6,383.7 289.6,383.7 289.6,383.7 
		289.6,383.7 289.6,383.7 289.6,383.7 289.6,383.7 	"/>
	<polygon id="XMLID_77_" class="st0" fill="#BB2025" points="232.1,374.8 234.7,380.1 240.6,381 236.3,385.1 237.3,390.9 232.1,388.2 226.8,390.9 
		227.8,385.1 223.6,381 229.5,380.1 	"/>
	<polygon id="XMLID_78_" class="st0" fill="#BB2025" points="206.9,389.8 207.9,391.8 210.1,392.2 208.5,393.7 208.9,396 206.9,394.9 204.9,396 
		205.2,393.7 203.6,392.2 205.9,391.8 	"/>
	<polygon id="XMLID_81_" class="st0" fill="#BB2025" points="219.4,413.7 221.5,418 226.2,418.7 222.8,422.1 223.6,426.8 219.4,424.5 215.2,426.8 
		216,422.1 212.5,418.7 217.3,418 	"/>
	<polygon id="XMLID_104_" class="st0" fill="#BB2025" points="187.9,415.9 189.1,418.5 192,418.9 189.9,420.9 190.4,423.8 187.9,422.4 185.3,423.8 
		185.8,420.9 183.7,418.9 186.6,418.5 	"/>
	<polygon id="XMLID_137_" class="st0" fill="#BB2025" points="293.4,377.2 295.3,381.1 299.6,381.7 296.5,384.7 297.2,389 293.4,387 289.5,389 
		290.2,384.7 287.1,381.7 291.4,381.1 	"/>
	<polygon id="XMLID_138_" class="st0" fill="#BB2025" points="341.9,390.4 343.5,393.7 347.2,394.2 344.5,396.8 345.1,400.5 341.9,398.7 
		338.6,400.5 339.2,396.8 336.6,394.2 340.2,393.7 	"/>
	<polygon id="XMLID_139_" class="st0" fill="#BB2025" points="391.9,392.3 395,398.7 402.1,399.7 397,404.7 398.2,411.7 391.9,408.4 385.5,411.7 
		386.8,404.7 381.6,399.7 388.7,398.7 	"/>
	<polygon id="XMLID_140_" class="st0" fill="#BB2025" points="370.9,409.9 372,412.2 374.5,412.6 372.7,414.3 373.1,416.8 370.9,415.6 368.6,416.8 
		369.1,414.3 367.3,412.6 369.8,412.2 	"/>
	<polygon id="XMLID_1_" class="st0" fill="#BB2025" points="340.5,486 341.4,490.2 345.4,492 341.6,494.1 341.2,498.4 338,495.5 333.7,496.4 
		335.5,492.5 333.3,488.7 337.6,489.2 	"/>
	<polygon id="XMLID_4_" class="st0" fill="#BB2025" points="319.6,458.3 321.5,462.2 325.9,462.9 322.7,465.9 323.5,470.2 319.6,468.2 315.8,470.2 
		316.5,465.9 313.4,462.9 317.7,462.2 	"/>
	<polygon id="XMLID_5_" class="st0" fill="#BB2025" points="296.8,524.6 298.4,526.5 300.9,526.3 299.6,528.4 300.7,530.7 298.2,530.2 296.3,531.9 
		296.1,529.3 293.9,528.1 296.3,527.1 	"/>
	<polygon id="XMLID_6_" class="st0" fill="#BB2025" points="254.9,495 256.1,497.3 258.6,497.6 256.7,499.4 257.2,501.9 254.9,500.7 252.7,501.9 
		253.1,499.4 251.3,497.6 253.8,497.3 	"/>
	<polygon id="XMLID_7_" class="st0" fill="#BB2025" points="286.5,504.4 282.5,502 278.3,503.9 279.4,499.4 276.3,496 280.9,495.6 283.2,491.6 
		285,495.9 289.5,496.9 286,499.8 	"/>
	<polygon id="XMLID_8_" class="st0" fill="#BB2025" points="311,489 311.2,491.5 313.4,492.8 311.1,493.8 310.6,496.2 308.9,494.3 306.4,494.6 
		307.7,492.4 306.7,490.1 309.1,490.7 	"/>
	<polygon id="XMLID_9_" class="st0" fill="#BB2025" points="210.1,446.9 213.5,449.7 217.7,448.5 216.1,452.6 218.5,456.2 214.1,455.9 211.5,459.4 
		210.4,455.1 206.3,453.6 210,451.3 	"/>
	<polygon id="XMLID_10_" class="st0" fill="#BB2025" points="383.5,435.3 384.1,439.7 388,441.6 384.1,443.5 383.5,447.8 380.4,444.7 376.1,445.5 
		378.2,441.6 376.1,437.7 380.4,438.5 	"/>
</g>
</svg>
