<?xml version="1.0" encoding="utf-8"?>
<!-- Generator: Adobe Illustrator 19.0.0, SVG Export Plug-In . SVG Version: 6.00 Build 0)  -->
<svg version="1.1" id="Layer_1" xmlns="http://www.w3.org/2000/svg" xmlns:xlink="http://www.w3.org/1999/xlink" x="0px" y="0px"
	 viewBox="0 0 595.3 841.9" style="enable-background:new 0 0 595.3 841.9;" xml:space="preserve">
<style type="text/css">
	.st0{fill:#BB2025;}
</style>
<g id="XMLID_47_">
	<path id="XMLID_170_" class="st0" fill="#BB2025" d="M397,422.7c-1.6-1.4-3.3-2.8-4.9-4.2c-0.6-0.5-0.5-1.1,0.2-1.3c0.7-0.2,1.4-0.4,2.1-0.5
		c2-0.4,4.1-0.7,6.1-1.3c2.1-0.6,2.4-2.7,0.7-4c-0.5-0.4-1.4-0.6-2-0.6c-1.3,0.1-2.6,0.4-3.9,0.6c-1.3,0.2-2.5,0.5-3.8,0.6
		c-1,0.2-1.3-0.2-0.9-1.1c0.2-0.5,0.5-1,0.7-1.5c0.8-1.5,1.6-3,2.3-4.6c0.5-1.2,0.1-2.7-1-3.3c-1.2-0.7-2.4-0.5-3.3,0.7
		c-0.4,0.5-0.8,1.1-1.2,1.6c-1.9,2.6-3.7,5.2-5.6,7.8c-0.3,0.4-0.6,0.9-0.9,1.3c-0.5,0.4-1,0.9-1.6,1c-2.5,0.5-5.1,0.9-7.6,1.3
		c-0.9,0.1-1.1-0.1-0.8-0.9c0.2-0.7,0.5-1.3,0.7-2c0.5-1.3,1.2-2.3,2.8-2.1c0.4,0,0.8-0.1,1.1-0.1c1.2-0.1,2-0.7,2.3-1.8
		c0.2-0.8-0.3-2-1.2-2.6c-0.7-0.4-0.6-0.7-0.1-1.2c0.5-0.6,1.1-1.2,1.5-1.9c0.8-1.4-0.2-3.3-1.8-3.6c-1.1-0.1-1.9,0.5-2.6,1.2
		c-1,0.9-1.1,0.9-1.8-0.2c-0.1-0.2-0.2-0.3-0.4-0.5c-0.6-0.8-1.4-1.1-2.3-0.9c-1,0.2-1.6,0.9-1.7,1.9c-0.1,0.6-0.2,1.3-0.3,1.9
		c0,0.7-0.4,1.2-1.1,1.3c-1.1,0.3-2.1,0.5-3.2,0.8c-1.2,0.3-1.5,0.1-1.1-1.1c0.6-2.1,1.4-4.2,2.1-6.3c0.3-1,0.9-1.7,1.8-2.2
		c2.2-1.1,4.4-2.2,6.7-3.4c1.7-0.9,3.3-1.7,4.9-2.7c1.3-0.8,1.4-2.1,0.4-3.4c-0.7-0.9-1.6-1.1-2.6-0.8c-1.9,0.7-3.8,1.4-5.8,2.1
		c-0.3,0.1-0.6,0.2-0.9,0.3c-0.6,0.1-0.9-0.1-0.8-0.8c0.2-0.6,0.3-1.3,0.5-1.9c0.6-1.7,1.2-3.4,1.7-5.1c0.4-1.3-0.4-3-1.6-3.4
		c-1.3-0.4-2.5,0.3-3,1.8c-0.2,0.6-0.4,1.2-0.6,1.8c-0.5,1.6-1.1,3.1-1.6,4.7c-0.4,1-1.1,1.1-1.8,0.3c-0.3-0.4-0.6-0.8-0.8-1.2
		c-1-1.5-1.9-2.9-2.9-4.4c-0.7-1-1.9-1.3-2.9-0.7c-1,0.5-1.4,1.7-1,2.8c0.3,0.8,0.6,1.6,1,2.4c1.5,3.1,3,6.1,4.5,9.1
		c0.4,0.8,0.5,1.6,0.1,2.6c-0.8,2.1-1.5,4.3-2.2,6.5c-0.4,1-1.2,1.2-1.9,0.3c-0.5-0.6-1-1.3-1.5-1.9c-0.6-0.7-0.8-1.5-0.2-2.3
		c0.3-0.5,0.5-1.2,0.8-1.8c0.5-1.1,0.3-2-0.6-2.8c-0.7-0.7-1.6-0.8-2.7-0.3c-0.9,0.4-1,0.3-1.3-0.6c-0.2-0.7-0.4-1.4-0.7-2.1
		c-0.7-1.1-1.6-1.4-2.6-1c-1,0.4-1.6,1.4-1.4,2.6c0.1,0.4,0.2,0.8,0.2,1.2c0.2,1.1,0.1,1.2-1.1,1.1c-1-0.1-1.9,0.4-2.3,1.2
		c-0.4,0.9-0.3,1.8,0.5,2.6c0.5,0.5,0.9,0.9,1.5,1.3c0.7,0.6,1,1.3,0.7,2.2c-0.3,0.9-0.5,1.8-0.8,2.6c-0.4,1.1-1,1.2-1.8,0.3
		c-1.2-1.4-2.3-2.8-3.6-4.1c-1.1-1.2-1.8-2.4-1.4-4.1c0.1-0.5,0-0.9,0.1-1.4c0.2-3.3,0.4-6.5,0.5-9.8c0.1-1.5-1-2.8-2.2-2.9
		c-1.3-0.1-2.2,0.8-2.5,2.5c-0.3,1.8-0.6,3.6-0.9,5.4c-0.1,0.4-0.3,1-0.6,1.1c-0.3,0.1-0.9-0.3-1.2-0.6c-1.5-1.6-2.9-3.3-4.3-5
		c-0.6-0.7-1.4-1.1-2.4-0.9c-0.9,0.2-1.4,0.8-1.6,1.6c-0.3,0.9,0.2,1.7,0.8,2.3c1.4,1.7,2.8,3.3,4.2,5c0.3,0.3,0.5,0.9,0.4,1.1
		c-0.1,0.3-0.7,0.4-1.1,0.5c-0.2,0.1-0.5,0-0.7,0c-1.7,0.1-3.5,0.1-5.2,0.2c-1.3,0.1-2.1,0.9-2.2,2.1c-0.1,0.9,0.7,2,1.8,2.2
		c1.4,0.3,2.7,0.6,4.1,0.8c2.8,0.3,5.7,0.5,8.5,0.8c0.6,0.1,1.4,0.4,1.8,0.9c1.3,1.4,2.5,2.8,3.7,4.3c0.5,0.6,0.8,1.3,1.1,1.9
		c-0.7,0.2-1.4,0.6-2.1,0.7c-3.4,0.4-2.6,0.7-4.3-2.1c-0.7-1.1-1.6-1.5-2.6-1.3c-1,0.2-1.5,0.9-1.7,2.3c0,0.1,0,0.2,0,0.3
		c0,0.6-0.3,0.7-0.8,0.6c-0.6-0.1-1.1-0.4-1.7-0.6c-1.1-0.3-2.2,0.1-2.6,1.1c-0.5,1-0.2,2,0.8,2.7c0.5,0.3,0.9,0.6,1.4,0.9
		c1.1,0.6,1.1,0.5,0.6,1.7c-0.4,0.8-0.5,1.7,0.1,2.4c0.6,0.8,1.5,1.2,2.5,1c0.7-0.2,1.4-0.4,2.2-0.5c0.5,0,1.1,0.1,1.5,0.4
		c0.8,0.7,1.5,1.5,2.2,2.2c0.5,0.6,0.4,1-0.4,1.3c-0.2,0.1-0.5,0.1-0.7,0.2c-2.2,0.4-4.3,0.8-6.5,1.1c-0.6,0.1-1.3-0.1-1.8-0.4
		c-1.6-1-3.1-2-4.6-3.1c-2-1.3-3.9-2.7-5.8-4c-0.9-0.6-2.2-0.4-2.8,0.3c-0.6,0.7-0.7,2,0,2.8c0.4,0.5,0.7,0.9,1.2,1.3
		c1.2,1.2,2.5,2.3,3.7,3.5c0.8,0.8,0.6,1.2-0.4,1.5c-0.2,0-0.3,0.1-0.5,0.1c-2,0.4-4,0.7-5.9,1.1c-1.2,0.2-1.9,1-2,2.1
		c-0.1,1,0.6,2,1.6,2.4c0.6,0.2,1.2,0.3,1.8,0.2c2-0.2,3.9-0.5,5.9-0.8c1.2-0.1,1.3,0.1,0.8,1.1c-0.8,1.7-1.7,3.4-2.6,5.1
		c-0.7,1.4-0.4,2.5,0.9,3.3c1.3,0.8,2.4,0.5,3.3-0.8c2.3-3.3,4.7-6.5,7-9.7c0.3-0.4,0.7-0.8,1.1-0.9c2.4-0.5,4.9-0.9,7.3-1.3
		c0.9-0.1,1.1,0.2,0.8,1.1c-0.4,0.9-0.8,1.9-1.1,2.8c-0.3,0.7-0.7,1-1.4,0.9c-0.7,0-1.4-0.1-2.1,0c-0.9,0.1-1.6,0.6-1.9,1.4
		c-0.3,0.8-0.2,1.6,0.4,2.2c0.2,0.3,0.5,0.5,0.8,0.8c0.6,0.5,0.5,0.9,0,1.3c-0.4,0.3-0.8,0.7-1.2,1.1c-0.7,0.8-0.8,2-0.2,2.7
		c0.7,1,2,1.3,3,0.9c0.4-0.2,0.8-0.3,1.1-0.5c0.9-1,1.4-0.3,2.1,0.4c0.6,0.8,1.6,1.1,2.6,0.8c1-0.3,1.3-1.1,1.6-2
		c0.1-0.4,0.2-0.8,0.2-1.2c0.1-0.8,0.5-1.3,1.2-1.4c0.9-0.2,1.8-0.4,2.7-0.6c1.2-0.2,1.5,0.1,1.1,1.3c-0.6,1.9-1.3,3.9-1.9,5.8
		c-0.3,1.2-1,1.9-2.1,2.4c-3.6,1.6-7.1,3.3-10.7,5c-1.3,0.6-1.7,2.5-0.7,3.5c0.8,0.9,1.9,1.2,3.1,0.8c1.8-0.5,3.6-1,5.4-1.5
		c0.3-0.1,0.9-0.1,1.1,0.1c0.2,0.2,0.1,0.7,0,1c-0.7,2.2-1.4,4.3-2.1,6.5c-0.5,1.7,0.4,3.2,2.3,3.4c0.8,0.1,1.5-0.1,1.9-0.9
		c0.5-1,1-2,1.4-3.1c0.5-1.3,0.9-2.7,1.4-4c0.1-0.3,0.4-0.7,0.7-0.7c0.2,0,0.6,0.3,0.8,0.5c0.7,1.1,1.4,2.3,2.1,3.5
		c0.7,1.1,1.3,2.3,2.6,2.9c0.7,0.3,1.5,0.5,2.2-0.1c0.7-0.6,1-1.3,0.9-2.2c-0.1-0.4-0.2-0.8-0.3-1.1c-1.7-3.8-3.5-7.6-5.3-11.4
		c-0.2-0.5-0.3-1.1-0.2-1.6c0.8-2.5,1.6-4.9,2.5-7.3c0.3-0.9,0.8-0.9,1.4-0.3c0.3,0.3,0.5,0.7,0.8,1c1.5,1.5,1.6,2.9,0.2,4.6
		c-0.9,1.1-0.4,2.6,0.8,3.3c0.6,0.3,1.3,0.4,2,0.5c1.5,0,1.4,0,1.8,1.4c0.2,0.7,0.7,1.5,1.3,2c0.7,0.6,1.6,0.9,2.5,0.4
		c0.8-0.4,1.2-1.6,1.1-2.5c-0.3-1.9-0.3-1.9,1.5-2.3c0,0,0.1,0,0.1,0c1.7-0.4,2.3-2.1,1.3-3.4c-0.5-0.7-1.1-1.2-1.8-1.7
		c-0.6-0.5-0.9-1-0.6-1.8c0.3-0.9,0.5-1.9,0.8-2.8c0.4-1.2,0.9-1.4,1.8-0.4c1.6,1.9,3.2,3.7,4.8,5.6c0.3,0.4,0.5,1,0.5,1.4
		c0,1.1-0.1,2.1-0.1,3.2c-0.2,3.4-0.4,6.8-0.5,10.2c-0.1,1.4,1.2,3,2.5,3.3c1.3,0.3,2.4-0.5,2.8-2.1c0.4-2,0.7-4,1.1-5.9
		c0.1-0.4,0.4-0.8,0.7-1.2c0.4,0.2,0.8,0.4,1.1,0.7c1,1.1,2,2.4,3,3.5c1,1,1.9,2,3.1,2.8c1.2,0.9,2.7,0.2,3.1-1.2
		c0.4-1.3-0.3-2.2-1.1-3.1c-1.4-1.7-2.9-3.4-4.3-5.1c-0.2-0.3-0.5-0.9-0.4-1.1c0.2-0.3,0.7-0.5,1.1-0.6c1.1-0.1,2.3,0,3.4-0.1
		c1.4,0,2.7,0,4.1-0.2c1.3-0.2,1.9-1.3,1.5-2.6c-0.4-1.6-1.5-2.5-3.3-2.7c-4.2-0.5-8.5-1-12.7-1.6c-0.6-0.1-1.3-0.3-1.6-0.8
		c-1.7-1.9-3.4-3.9-5.1-5.8c-0.6-0.7-0.4-1.3,0.6-1.5c0.8-0.2,1.6-0.2,2.5-0.4c1.3-0.2,2.3,0,2.8,1.4c0.1,0.3,0.3,0.6,0.5,0.8
		c0.7,0.8,1.6,1.5,2.8,1.3c1.2-0.2,1.6-1.2,1.9-2.1c0.2-0.8,0.6-0.9,1.2-0.7c0.8,0.2,1.5,0.3,2.3,0.4c0.8,0.1,1.4-0.3,1.8-0.9
		c0.9-1.3,0.2-3-1.3-3.7c-0.6-0.3-1.2-0.5-2-0.8c0.2-0.4,0.3-0.6,0.4-0.9c0.8-2.1,0-4-2-4.2c-0.9-0.1-1.8,0.3-2.7,0.7
		c-0.9,0.4-1.6,0.3-2.2-0.4c-0.5-0.6-1.1-1.1-1.7-1.7c-1.1-1.1-1-1.5,0.5-2c0.4-0.1,0.9-0.2,1.3-0.3c1.7-0.3,3.4-0.5,5.1-0.9
		c1.3-0.3,2.4,0,3.4,0.7c2.6,1.7,5.2,3.4,7.8,5.1c1.1,0.7,2.2,1.3,3.3,1.9c1.7,0.9,3.3,0,3.5-1.8C398.5,424,397.8,423.4,397,422.7z
		 M357.8,416.9c0.6-1.8,1.2-3.6,1.9-5.3c0.2-0.4,0.6-0.9,1.1-0.9c2-0.4,4.1-0.8,6.2-1.1c0.7-0.1,1,0.2,0.8,0.9
		c-0.7,1.9-1.3,3.9-2.1,5.8c-0.1,0.3-0.6,0.6-1,0.7c-1.9,0.4-3.9,0.7-5.8,1C357.8,418,357.7,417.8,357.8,416.9z M336.5,416
		c-0.7-0.9-0.5-1.4,0.6-1.6c1.8-0.4,3.7-0.6,5.5-1c1-0.2,1.5,0.6,2,1.1c1.1,1.2,2,2.6,3.1,4c0.5,0.6,0.4,1.1-0.3,1.2
		c-2.1,0.4-4.1,0.7-6.2,1c-0.1,0-0.1,0-0.3,0c-0.1-0.1-0.4-0.2-0.5-0.4C339,419,337.7,417.5,336.5,416z M349.1,425.8
		c-0.7,1.9-1.3,3.9-2,5.8c-0.1,0.3-0.5,0.7-0.8,0.7c-2.1,0.4-4.3,0.7-6.4,1c-0.1,0-0.2-0.1-0.4-0.1c0.5-1.5,0.9-3,1.4-4.4
		c1.1-3.2,0.5-2.7,3.7-3.1c1.3-0.2,2.6-0.4,3.9-0.6C349.1,424.9,349.3,425.2,349.1,425.8z M351.4,415.3c-1.3-1.4-2.5-2.8-3.7-4.2
		c-0.3-0.3-0.3-0.8-0.4-1.2c0.7-2,1.3-3.9,2.1-5.8c0.4-1.1,1-1.1,1.8-0.2c1,1.1,1.9,2.3,2.9,3.4c0.8,0.9,1.3,1.8,0.6,3.1
		c-0.7,1.4-1.1,3-1.6,4.5C352.7,415.9,352.1,416.1,351.4,415.3z M357.6,439.3c-0.3,0.7-0.8,0.8-1.3,0.2c-1.3-1.5-2.7-3.1-4-4.7
		c-0.2-0.2-0.3-0.7-0.2-1.1c0.6-2,1.2-3.9,1.9-5.8c0.4-1,0.9-1.1,1.7-0.2c1.2,1.4,2.5,2.9,3.7,4.3c0.2,0.3,0.3,0.7,0.4,1
		C359,435.2,358.4,437.3,357.6,439.3z M370.5,428.3c-1.9,0.3-3.9,0.7-5.9,1c-0.7,0.1-1.3-0.1-1.8-0.7c-1.1-1.4-2.3-2.7-3.5-4
		c-0.8-1-0.7-1.4,0.5-1.7c2-0.4,4.1-0.8,6.3-1.1c0.5,0.4,1.1,0.6,1.4,1c1.2,1.4,2.3,2.8,3.4,4.2
		C371.6,427.8,371.4,428.2,370.5,428.3z"/>
	<path id="XMLID_224_" class="st0" fill="#BB2025" d="M301.2,517.8C301.2,517.8,301.2,517.8,301.2,517.8C301.2,517.8,301.2,517.8,301.2,517.8
		C301.2,517.8,301.2,517.8,301.2,517.8z"/>
	<path id="XMLID_225_" class="st0" fill="#BB2025" d="M299.8,510.6C299.8,510.6,299.8,510.6,299.8,510.6c-0.2-0.2-0.3-0.4-0.3-0.4
		C299.5,510.2,299.7,510.4,299.8,510.6z"/>
	<path id="XMLID_226_" class="st0" fill="#BB2025" d="M307,299.2C306.9,299.3,306.9,299.2,307,299.2L307,299.2z"/>
	<path id="XMLID_229_" class="st0" fill="#BB2025" d="M420,398.1c-4.3-10.1-11.3-19-20.4-25.2c-12.7-8.8-19.9-9.3-34.3-11.8v-26.7
		c-3-0.9-6-1.9-8.9-3.2c-3.4-1.5-6.8-3.2-10-5.1c-6.4-3.7-12.5-8.1-17.8-13.3c-3-2.9-5.7-6-8.2-9.3l0,0c-5.1-6.9-9.1-14.6-11.8-22.7
		c0,0,0,0,0,0c-1.6-4.6-2.7-9.2-3.4-13.9H290c-0.3,2.1-0.6,4.2-1.1,6.3c-0.5,2.1-1.4,4.1-1.8,6.2c-1.7,5.3-4,10.2-6.5,15.1
		c-0.4,0.7-0.8,1.4-1.2,2.1c0,0,0,0,0,0c-0.5,0.8-1,1.6-1.5,2.4v0c-8.8,13.7-21.9,24-36.5,31c-3.8,1.8-7.5,3.1-11.5,4.4v26.7
		c-5.7,1-11.6,1.7-17.2,3.3c-5.6,1.6-10.8,4.2-15.7,7.5c-4,2.7-7.7,5.8-10.9,9.3c-1.1,1.2-2.1,2.3-3.1,3.6c-1.9,2.5-3.7,5.1-5.2,7.9
		c-1.2,2.3-2.4,4.6-3.3,7c-0.1,0.2-0.2,0.4-0.2,0.5c0,0.1-0.1,0.2-0.1,0.3c-1.1,2.8-1.9,5.7-2.5,8.6c-0.8,3.8-1.2,7.6-1.2,11.4
		c0,2.1,0.1,4.3,0.3,6.4c0.4,3.4,1,6.8,2,10.2c0.5,1.7,1.1,3.4,1.7,5c1,2.5,2.1,4.8,3.3,7.1c1.1,2,2.3,3.9,3.6,5.7
		c3.2,4.5,7,8.6,11.4,12c0,0,0.1,0,0.1,0.1c1.8,1.4,3.7,2.7,5.6,4c2.2,1.4,4.6,2.7,7,3.8c1.2,0.5,2.3,1,3.5,1.5
		c0.7,0.3,1.4,0.5,2.1,0.7c4.5,1.4,9.3,2.2,14,3c0.8,0.1,1.6,0.3,2.3,0.4c0.8,0.1,1.6,0.3,2.4,0.4v26.6c2.4,0.7,4.9,1.4,7.2,2.4
		c3.1,1.3,6.1,2.8,9,4.3c5.7,3,11.1,6.6,16,10.7c9.8,8.2,17.5,18.7,22.4,30.5c2.6,6.3,4.6,12.8,5.5,19.6h15.2
		c2-14.1,8-27.8,16.9-38.9c0,0,0,0,0,0c0.5-0.6,1.1-1.3,1.6-1.9c2.1-2.6,4.6-5,7.1-7.3c0,0,0,0,0,0c5.1-4.6,10.7-8.5,16.6-11.8
		c3.1-1.8,6.3-3.3,9.6-4.8c2.7-1.2,5.5-2,8.3-2.9v-26.6c9-1.6,18.1-2.7,26.3-6.9c8.9-4.5,16.8-11.1,22.5-19.3
		c5.6-8,9.1-17.4,10.2-27.1C425.5,417.5,423.9,407.3,420,398.1z M314.7,309.9c-0.1,0-0.2,0.1-0.3,0.1
		C314.5,310,314.6,309.9,314.7,309.9C314.8,309.9,314.8,309.9,314.7,309.9c0.7-0.2,1.4-0.3,2.1-0.4c1,1.3,2.1,2.6,3.2,3.8
		c0,0,0,0,0,0c-0.9,0.2-1.8,0.8-2.7,0.8c-1,0.1-1.5-0.7-2.1-1.3c-0.5-0.5-1.5-1.1-1.7-1.8C313.4,310.3,314.2,310.1,314.7,309.9z
		 M312.5,303.4c0.3,0.5,0.6,0.9,0.9,1.4c-0.9,0.1-1.4,0.1-1.1-0.9C312.4,303.8,312.4,303.6,312.5,303.4z M309.4,313.6
		c0.8,1,1.6,2,2.4,3c0.7,0.8,0.2,1.2-0.7,1.4c-1.2,0.2-2.3,0.4-3.5,0.6c-0.9,0.2-2.2,0.6-3.1,0.3c-0.9-0.3-1.6-1.5-2.2-2.2
		c-0.7-0.8-1.5-1.7-2.2-2.6c-0.4-0.6-0.7-1.1,0.1-1.4c0.9-0.4,2.1-0.5,3.1-0.6c1.2-0.2,2.5-0.4,3.7-0.7
		C307.9,312.1,308.6,312.7,309.4,313.6z M300.6,322.7c-0.5,1.4-0.9,2.7-1.4,4.1c-0.2,0.7-0.6,3-1.7,2.7c-0.5-0.2-1-1-1.3-1.3
		c-0.5-0.5-0.9-1.1-1.4-1.6c-0.7-0.8-2-1.9-1.9-3c0.2-1.3,0.8-2.7,1.2-3.9c0.2-0.7,0.6-2.9,1.5-2.8c0.5,0,0.9,0.7,1.2,1
		c0.5,0.5,0.9,1,1.4,1.6C299.2,320.4,300.1,321.4,300.6,322.7z M303.2,293.3c0.5-1.6,1-3.1,1.5-4.6c0.7,1.7,1.4,3.4,2.2,5
		c-1,0.3-2.3,0.9-3.3,0.8C302.9,294.4,303,293.8,303.2,293.3z M304,299.7c1.2-0.2,2.5-0.4,3.7-0.6c0,0,0,0,0,0c0,0,0,0,0,0
		c1.7-0.3,0.3,2.3,0,3c-0.3,0.7-0.5,1.4-0.8,2.2c-0.3,0.7-0.4,1.6-1.1,2c-0.6,0.4-1.5,0.4-2.2,0.5c-0.8,0.2-1.7,0.3-2.5,0.4
		c-1,0.2-2.7,0.9-2.5-0.7c0.4-1.1,0.7-2.1,1.1-3.2c0.3-0.9,0.5-2.2,1.3-2.8C301.7,299.9,303.1,299.9,304,299.7z M293.9,278.8
		c0.5-1.8,1-3.6,1.4-5.5h0.7c1.5,3,3.1,6,4.5,9.1c0.7,1.6,0,2.8-0.5,4.4c-0.5,1.5-0.9,3.2-1.6,4.7c-0.7,1.7-1.8,0.5-2.5-0.5
		c-0.9-1.2-1.8-1.9-1.1-3.4c0.5-1.1,1.4-2.4,0.9-3.7c-0.5-1.2-1.8-1.8-3-1.4C293.2,281.3,293.6,280,293.9,278.8z M290,294.1
		C289.9,294.3,289.8,294.4,290,294.1L290,294.1z M290.2,293.7c0,0.1-0.1,0.1-0.1,0.2C290.1,293.8,290.1,293.8,290.2,293.7
		C290.2,293.7,290.2,293.6,290.2,293.7C290.2,293.6,290.2,293.7,290.2,293.7c0.3-0.8,0.9-1.1,1.6-0.4c0.9,0.8,1.6,1.9,2.4,2.8
		c0.6,0.7,1.5,1.4,1.6,2.4c0.2,1-0.6,2-0.9,3c-0.4,1-0.9,5.1-2.6,3.5c-0.9-0.8-1.7-1.9-2.5-2.8c-0.4-0.4-0.7-0.8-1.1-1.3
		c-0.3-0.4-0.4-0.8-0.6-1.3C288.8,297.5,289.4,295.6,290.2,293.7z M289.9,315.4c-0.4,1.2-0.8,2.4-1.2,3.6c-0.3,0.9-0.5,2.5-1.6,2.9
		c-1.1,0.4-2.4,0.4-3.6,0.6c-1,0.2-2.3,0.6-3.2,0.3c0.6-1.8,1.1-3.6,1.7-5.4c0.2-0.6,0.3-1.4,0.9-1.7c0.8-0.4,2-0.4,2.8-0.5
		c1.1-0.1,2.1-0.3,3.2-0.5C289.5,314.6,290.2,314.5,289.9,315.4C289.9,315.3,289.9,315.2,289.9,315.4z M279.4,308.2
		C279.4,308.2,279.4,308.2,279.4,308.2c1.2-1.6,2.4-3.3,3.5-4.9l0,0c1.4-0.3,1.9,0.3,2.8,1.3c1,1.2,2,2.4,2.8,3.7
		c1,1.5-1.3,1.4-2.3,1.6c-1.5,0.2-3.1,0.7-4.6,0.7C280.7,309.9,280.1,309,279.4,308.2C279.4,308.2,279.4,308.2,279.4,308.2z
		 M182.3,410.1c1,0.1,2.1,0.7,2.7,1.4c2,2,3.8,4.2,5.6,6.4c0.7,0.8,1.1,1.9,1.7,2.9c-1.1,0.4-2.1,0.9-3.2,1c-5.1,0.6-3.9,1-6.4-3.1
		c-1-1.6-2.3-2.3-3.8-2c-0.8,0.2-1.5,0.6-1.9,1.3c0.2-2.8,0.5-5.6,1.2-8.4C179.5,409.8,180.9,409.9,182.3,410.1z M234.3,423.2
		c-1,2.9-2,5.8-3.1,8.6c-0.2,0.5-0.9,1-1.5,1.1c-2.9,0.6-5.8,1-8.8,1.5c-1.3,0.2-1.6-0.1-1.5-1.4c0.9-2.7,1.8-5.4,2.8-8
		c0.2-0.6,1-1.3,1.6-1.4c3.1-0.7,6.2-1.1,9.3-1.7C234.3,421.7,234.7,422.1,234.3,423.2z M239.4,448.1c0.9,1.1,0.6,1.8-0.8,2
		c-2.9,0.5-5.9,1-8.8,1.5c-1.1,0.2-1.9-0.1-2.7-1c-1.7-2.1-3.5-4-5.2-6.1c-1.2-1.5-1.1-2.1,0.8-2.5c3.1-0.6,6.2-1.1,9.4-1.7
		c0.8,0.6,1.6,0.9,2.1,1.6C236,443.9,237.7,446,239.4,448.1z M221.9,455.7c0.4,0.4,0.4,1.1,0.6,1.5c-1.1,3.3-2.1,6.4-3.2,9.4
		c-0.4,1-1.2,1.1-2,0.3c-2-2.3-4-4.6-5.9-7c-0.3-0.4-0.4-1.1-0.3-1.6c0.9-2.9,1.8-5.8,2.8-8.7c0.6-1.6,1.4-1.6,2.5-0.4
		C218.3,451.3,220.1,453.5,221.9,455.7z M214.8,423.2c-1.1,2.1-1.7,4.4-2.4,6.7c-0.5,1.5-1.4,1.8-2.4,0.7c-1.9-2.1-3.7-4.2-5.5-6.3
		c-0.4-0.5-0.5-1.2-0.7-1.8c1.1-3,2-5.9,3.1-8.7c0.7-1.6,1.5-1.6,2.6-0.3c1.5,1.7,2.9,3.5,4.4,5.1
		C215.2,420,215.8,421.2,214.8,423.2z M206.5,446.2c-1,2.9-2,5.8-3,8.7c-0.2,0.5-0.8,1-1.2,1.1c-3.2,0.6-6.4,1-9.6,1.5
		c-0.1,0-0.2-0.1-0.6-0.2c0.7-2.2,1.3-4.5,2.1-6.7c1.7-4.7,0.7-4,5.5-4.7c2-0.3,3.9-0.6,5.9-0.9C206.5,445,206.8,445.4,206.5,446.2z
		 M204.3,435.5c0.7,1,0.6,1.6-0.5,1.8c-3.1,0.6-6.2,1.1-9.3,1.6c-0.1,0-0.2,0-0.5,0c-0.2-0.1-0.6-0.3-0.8-0.6
		c-1.9-2.2-3.8-4.4-5.6-6.6c-1.1-1.3-0.8-2,0.9-2.4c2.7-0.5,5.5-0.9,8.3-1.5c1.5-0.3,2.3,0.9,3,1.7
		C201.4,431.4,202.8,433.5,204.3,435.5z M179.6,437.6c-0.3-1-0.6-2-0.9-3c0.4-0.1,0.8-0.2,1.2-0.2c0.8,0,1.7,0.1,2.3,0.6
		c1.2,1,2.2,2.2,3.2,3.3c0.8,0.9,0.6,1.5-0.6,2c-0.3,0.1-0.7,0.2-1,0.3c-1,0.2-1.9,0.4-2.9,0.5C180.5,440,180,438.8,179.6,437.6z
		 M184.6,448.2c0.5-0.1,1.1-0.2,1.6-0.3c1.3-0.2,1.6,0.3,1.1,1.6c-0.2,0.6-0.5,1.2-0.7,1.8C185.9,450.3,185.2,449.3,184.6,448.2z
		 M199.1,463.7c1.2-0.1,1.7,0.1,1.5,1C200.1,464.4,199.6,464.1,199.1,463.7z M208.9,469.3c-0.4-0.2-0.9-0.4-1.3-0.6
		c0.1-0.1,0.1-0.3,0.2-0.4c0.5-1.3,1.2-1.4,2.2-0.4c0.5,0.5,0.8,1.1,1.3,1.5c0.4,0.4,0.7,0.8,1,1.2
		C211.1,470.2,210,469.8,208.9,469.3z M270.6,523.2c-0.1,0.2-0.2,0.3-0.3,0.5c-0.5-0.5-1.1-1-1.6-1.5
		C269.9,522.1,271.4,521.6,270.6,523.2z M285.3,542.6c-3.1-5.3-6.7-10.3-10.9-14.8c0.9-1.3,1.8-2.6,2.8-3.8c0.5-0.6,0.9-1.3,1.4-1.9
		c0.4-0.6,0.9-1.4,1.5-1.7c0.6-0.3,1.5-0.3,2.2-0.5c0.8-0.1,1.5-0.3,2.3-0.4s1.5-0.3,2.3-0.4c0.4-0.1,1.3-0.4,1.6,0.1
		c0.5,0.6-0.8,2.7-1,3.3c-0.6,1.5-1.5,1.2-3,1.2c-1.2,0-2.1,0.3-2.6,1.4c-0.2,0.6-0.2,1.2,0,1.7c0.3,0.6,1.3,1.1,1.5,1.7
		c0.2,0.8-1.5,1.7-1.9,2.4c-0.6,1.1-0.1,2.4,1,3c1,0.5,2.1,0.3,3.1-0.2c0.4-0.3,0.7-0.7,1.2-0.6c0.5,0.1,0.8,0.7,1.2,1.1
		c0.8,0.7,2,0.9,2.9,0.4c1.1-0.7,1-2.1,1.3-3.2c0.3-1.2,1.5-1.3,2.5-1.5c0.6-0.1,2.4-0.8,2.6,0.2c0.1,0.5-0.3,1.2-0.4,1.6
		c-0.3,0.8-0.6,1.7-0.9,2.5c-0.4,1.3-0.7,3.1-1.7,4.1c-1,1.1-2.8,1.6-4.1,2.2C288.6,541,286.9,541.8,285.3,542.6
		C285.3,542.6,285.3,542.6,285.3,542.6z M301.2,517.8c-0.4,1.2-0.8,2.4-1.2,3.6c-0.3,0.9-0.5,2.5-1.6,2.9c-1.1,0.4-2.4,0.4-3.6,0.6
		c-1,0.2-2.3,0.6-3.2,0.3c0.6-1.8,1.1-3.6,1.7-5.4c0.2-0.6,0.3-1.4,0.9-1.7c0.8-0.4,2-0.4,2.8-0.5c1.1-0.1,2.1-0.3,3.2-0.5
		C300.8,517,301.5,516.9,301.2,517.8C301.3,517.7,301.3,517.6,301.2,517.8z M300,503.3C300.3,503.6,300.6,503.9,300,503.3L300,503.3
		z M299.8,503.1C299.8,503.1,299.8,503.1,299.8,503.1c-0.3-0.3-0.3-0.8-0.5-1.2c0.5-1.3,0.9-2.7,1.4-4c0.2-0.6,0.6-2.7,1.5-2.7
		c0.8,0,1.9,1.8,2.4,2.4c0.8,0.9,2,1.8,2.3,3c0.3,1.1-0.5,2.2-0.9,3.2c-0.4,1.1-0.5,2.7-1.2,3.6c-0.7,1-1.6-0.3-2.1-0.9
		C301.8,505.4,300.8,504.2,299.8,503.1z M299.8,510.6C299.8,510.6,299.8,510.6,299.8,510.6C299.8,510.6,299.8,510.6,299.8,510.6
		c1.1,1.4-1.4,1.4-2.3,1.6c-1.5,0.2-3.1,0.7-4.6,0.7c-1.6-1.1-2.8-3-4-4.5c-0.4-0.4-1-1.1-0.4-1.6c0.5-0.5,1.9-0.5,2.6-0.6
		c1-0.2,2-0.3,2.9-0.5c0.9-0.2,1.5-0.3,2.2,0.4C297.6,507.3,298.6,509.1,299.8,510.6z M291.2,548C291.2,548,291.2,548,291.2,548
		c0,0.1,0,0.1,0,0.1C291.2,548.1,291.2,548,291.2,548c-0.4,1.3-0.9,2.6-1.3,3.9c-0.6-1.5-1.3-3-2-4.4
		C288.8,547.2,291.9,545.9,291.2,548C291.2,548,291.2,548,291.2,548z M303.5,556.5c-1.4,3.9-2.8,8-3.6,12.1h-4.5
		c-0.7-3.6-1.9-7.2-3.1-10.7c0.8-0.3,1.1-1.1,1.5-1.8c0.4-0.9,0.8-1.8,1.2-2.8c0.3-0.8,1-4.6,2.3-3.8c0.7,0.4,1.2,1.6,1.5,2.3
		c0.4,0.7,0.8,1.4,1.3,2.1C300.7,555,301.8,556.5,303.5,556.5C303.5,556.5,303.5,556.5,303.5,556.5z M308.2,545.7
		c-1.2,2.3-2.3,4.6-3.3,7c-1.3-2.9-2.7-5.8-4.1-8.7c-0.5-1.2-1.6-2.6-1.3-3.9c0.3-1.5,1-3.1,1.5-4.5c0.2-0.7,0.5-1.5,0.8-2.2
		c0.2-0.4,0.3-1.3,0.9-1.4c0.5-0.1,1,0.6,1.3,1c0.4,0.5,1,1,1.3,1.6c0.6,1.1,0.3,2.3-0.4,3.3c-0.7,1-1,2-0.1,3
		c0.9,1.1,2.3,0.9,3.5,1.1c0.9,0.1,0.9,1,1.2,1.8C309,544.2,308.6,544.9,308.2,545.7z M309.7,531.3
		C309.7,531.3,309.7,531.3,309.7,531.3c-0.4,1.2-1.4,0.2-1.8-0.4c-0.8-0.9-1.5-1.7-2.2-2.6c-0.5-0.6-1.5-1.4-1.4-2.3
		c0.1-1.1,0.7-2.3,1-3.3c0.3-1,0.5-2.3,1.1-3.1c0.5-0.8,1.1-0.3,1.6,0.3c1.4,1.5,3.2,3.2,3.9,5.2
		C311.1,527.3,310.5,529.3,309.7,531.3z M309.9,508.9c0.5-1.4,0.9-2.7,1.4-4.1c0.5-1.4,0.8-2,2.3-2.3c1.4-0.3,2.8-0.5,4.3-0.8
		c1-0.2,2.3-0.6,1.9,0.8c-0.4,1.3-0.9,2.7-1.4,4c-0.2,0.5-0.4,1.3-0.7,1.8c-0.4,0.5-1.1,0.6-1.7,0.7c-1.4,0.3-2.9,0.5-4.3,0.7
		c-0.9,0.2-1.8,0.4-1.8-0.6C309.9,509.1,309.9,509,309.9,508.9z M317.9,531.1c-1,1.2-2,2.5-3,3.8l0,0c-0.6-0.7-0.3-1.4-0.1-2.1
		c0.2-0.8,0.3-1.7,0.6-2.4C316.2,528.8,317.2,530.3,317.9,531.1L317.9,531.1z M323.3,525.2c-0.7,0.7-1.5,1.5-2.2,2.2
		c-0.4-0.5-1.1-1.1-0.5-1.7C321.2,525.2,322.6,525.3,323.3,525.2C323.3,525.2,323.3,525.2,323.3,525.2z M322.6,520.4
		c-1,0.2-2.1,0.4-3.1,0.5c-1,0.2-2.1,0.5-3.1,0.5c-0.8,0-1.3-0.5-1.8-1.1c-0.7-0.8-1.4-1.6-2.1-2.4c-0.8-0.9-2.5-2.4-0.5-2.8
		c2.1-0.5,4.2-0.8,6.3-1.1c1.4,1,2.4,2.2,3.5,3.6C322.4,518.1,324.6,520,322.6,520.4z M335.9,514.8c-0.7,0.5-1.5,1-2.2,1.5
		c-0.8-0.7-1.8-0.8-2.8-0.5c-0.9,0.3-1.9,1-2.9,0.6c-0.9-0.4-1.7-1.5-2.4-2.2c-0.5-0.5-1.1-1.1-0.4-1.6c0.8-0.6,2.1-0.6,3-0.8
		c1.2-0.2,2.4-0.4,3.6-0.6c1.1-0.2,2-0.3,3,0.1c1.1,0.5,2.1,1.3,3.1,2C337.3,513.8,336.6,514.3,335.9,514.8z M413.5,442.9
		c-3.8,8.3-9.9,15.7-17.4,20.9c-8.1,5.6-14.2,8-24.3,9.5l-12.8,2.2v27.3c-1.6,0.5-3.2,1.1-4.7,1.8c-1.2-3.1-6-1.3-8.4-0.9
		c-0.6,0.1-3,0.9-3.3,0c-0.2-0.4,0.3-1.2,0.5-1.6c0.4-0.8,0.7-1.5,1.1-2.2c0.6-1.2,1.7-2.7,1.8-4c0.1-1.2-0.7-2.3-1.9-2.7
		c-1.4-0.4-2.3,0.7-3.1,1.7c-1,1.3-1.9,2.7-2.9,4c-1,1.4-2,2.8-3,4.2c-0.9,1.2-1.6,2.4-3.1,2.8c-1.7,0.4-3.4,0.6-5.1,0.9
		c-0.6,0.1-3,0.9-3.2,0c-0.1-0.5,0.3-1.2,0.5-1.6c0.2-0.6,0.4-1.3,0.8-1.9c0.7-1.1,1.5-1.1,2.7-1.2c1.1-0.1,2.4-0.3,3-1.4
		c0.5-1,0.1-2.2-0.8-2.9c-0.4-0.4-0.8-0.5-0.6-1.1c0.3-0.6,1-1.1,1.3-1.6c0.7-1,0.9-2.1,0.2-3.1c-0.7-1-2-1.3-3.1-0.7
		c-0.7,0.4-1.7,1.9-2.4,1.5c-0.4-0.3-0.7-1-1-1.3c-0.4-0.5-0.9-0.8-1.6-0.9c-1.2-0.1-2.1,0.7-2.4,1.9c-0.3,1.1,0.1,2.9-1.2,3.4
		c-0.7,0.3-1.5,0.4-2.2,0.6c-0.5,0.1-1.3,0.5-1.8,0.4c-1-0.1-0.1-1.9,0-2.4c0.5-1.6,1.1-3.2,1.6-4.7c0.4-1.3,1-2.1,2.3-2.7
		c1.5-0.8,3-1.5,4.6-2.3c1.5-0.8,2.9-1.5,4.4-2.3c1.1-0.6,2.9-1.3,3.3-2.6c0.3-1.1-0.6-2.5-1.7-2.9c-1.3-0.4-2.9,0.5-4.1,0.9
		c-0.8,0.3-1.6,0.6-2.3,0.9c-0.6,0.2-1.4,0.7-2.1,0.6c-1.3-0.1,0.1-2.9,0.3-3.6c0.7-2.1,2.9-5.9,0.2-7.4c-2.9-1.6-3.9,3.4-4.5,5.1
		c-0.3,0.8-0.5,1.6-0.8,2.4c-0.2,0.5-0.3,1.4-0.9,1.5c-1.1,0.3-2.2-2.1-2.6-2.8c-0.8-1.2-1.6-3.1-2.8-3.9c-1-0.7-2.4-0.4-3.1,0.6
		c-0.8,1.2,0,2.7,0.5,3.8c0.7,1.5,1.5,3,2.2,4.5c0.8,1.5,1.5,3,2.3,4.6c0.3,0.7,0.7,1.3,0.7,2.1c0,0.8-0.3,1.5-0.6,2.2
		c-0.5,1.6-1.1,3.1-1.6,4.7c-0.2,0.5-0.3,1.4-1,1.6c-0.6,0.2-1.1-0.4-1.4-0.8c-0.8-1-2.2-2.2-1.7-3.5c0.4-1.2,1.5-2.4,1.2-3.7
		c-0.2-1.2-1.5-2.1-2.7-1.9c-0.4,0.1-1,0.6-1.4,0.5c-0.5-0.1-0.5-0.6-0.6-1c-0.3-1.1-0.7-2.7-2-3c-1.1-0.3-2.3,0.4-2.7,1.5
		c-0.2,0.6-0.1,1.2,0,1.8c0.1,0.4,0.3,1.1,0.2,1.4c-0.1,0.3-0.3,0.3-0.7,0.3c-0.7,0.1-1.2-0.1-1.9,0.3c-1.2,0.6-1.4,2.2-0.6,3.3
		c0.7,1,2.4,1.6,2.5,2.9c0.1,0.6-0.2,1.3-0.4,1.8c-0.2,0.7-0.3,1.6-0.7,2.2c-0.8,1.2-2-0.7-2.5-1.3c-1-1.2-2.1-2.3-3-3.5
		c-0.9-1.1-1.2-2.2-1-3.6c0.2-1.7,0.2-3.4,0.3-5.1c0.1-1.7,0.2-3.4,0.2-5.1c0.1-1.3,0-2.7-1.2-3.5c-0.9-0.6-2-0.5-2.7,0.3
		c-0.9,1-1,2.7-1.2,4c-0.1,0.8-0.3,1.7-0.4,2.5c-0.1,0.5-0.1,1.4-0.6,1.7c-0.9,0.7-2.3-1.4-2.8-2c-1-1.2-2-2.7-3.2-3.7
		c-1-0.8-2.6-0.9-3.3,0.3c-0.8,1.3-0.2,2.4,0.7,3.4c1.1,1.3,2.1,2.5,3.2,3.8c0.4,0.4,1,1,1.1,1.6c0.1,0.7-0.5,0.9-1.1,0.9
		c-1.5,0.2-3.2,0.1-4.8,0.1c-1.2,0.1-2.4,0.1-3,1.2c-1.7,3.1,3.6,3.7,5.5,3.9c1.7,0.2,3.3,0.3,5,0.5c1.5,0.1,3.3,0,4.6,0.7
		c1.3,0.6,2.2,2.1,3.1,3.1c1,1.2,1.8,2.3,2.6,3.7c-1.3,0.4-2.4,0.7-3.8,0.9c-0.6,0.1-1,0.1-1.4-0.3c-0.6-0.7-0.9-1.7-1.5-2.4
		c-0.7-0.9-2-1.2-3-0.5c-0.4,0.3-0.7,0.8-0.8,1.3c-0.1,0.5,0,1.3-0.5,1.5c-0.6,0.2-1.6-0.4-2.1-0.6c-0.6-0.2-1.2-0.2-1.8,0.2
		c-1.2,0.7-1.4,2.4-0.5,3.3c0.5,0.5,1.2,0.8,1.8,1.2c0.4,0.2,0.9,0.3,0.9,0.8c0,0.5-0.5,1-0.6,1.5c-0.2,0.8,0,1.5,0.6,2.1
		c1.3,1.2,2.7,0.3,4.2,0.2c1.6-0.1,2.5,1.1,3.5,2.2c0.3,0.3,0.9,0.8,0.6,1.3c-0.3,0.6-1.7,0.6-2.3,0.7c-1.8,0.3-3.5,0.7-5.3,0.9
		c-1.6,0.2-2.8-0.8-4-1.7c-1.5-1-2.9-2-4.4-3c-0.8-0.5-1.5-1.1-2.3-1.6c-0.7-0.5-1.4-1.1-2.1-1.4c-1.4-0.6-2.9,0.3-3,1.9
		c0,1.7,1.9,3.1,3,4.1c0.6,0.6,3.6,2.6,2.4,3.5c-0.6,0.4-1.7,0.4-2.4,0.5c-1.1,0.2-2.2,0.4-3.3,0.6c-4.6-3.5-9.5-6.7-14.6-9.4
		c-4.2-2.2-8.4-4.3-12.9-5.8v-27.3l-6.6-1.1c-0.6-0.7-1.3-1.3-2-1.8c-0.9-0.7-1.3-1.5-1-2.6c0.4-1.4,0.7-2.8,1.1-4.2
		c0.5-1.9,1.4-2.1,2.6-0.7c2.4,2.8,4.8,5.6,7.1,8.4c0.5,0.6,0.8,1.4,0.8,2.2c0.1,1.6-0.1,3.2-0.2,4.8c-0.3,5.1-0.5,10.2-0.7,15.3
		c-0.1,2,1.8,4.4,3.8,5c1.9,0.5,3.6-0.7,4.1-3.1c0.6-2.9,1.1-5.9,1.7-8.9c0.1-0.6,0.7-1.2,1-1.8c0.5,0.3,1.2,0.6,1.6,1
		c1.6,1.7,3,3.6,4.5,5.2c1.4,1.5,2.9,3,4.6,4.2c1.8,1.3,4,0.3,4.6-1.8c0.5-2-0.5-3.3-1.6-4.7c-2.2-2.5-4.3-5-6.5-7.6
		c-0.3-0.4-0.7-1.3-0.5-1.6c0.3-0.5,1-0.8,1.6-0.8c1.7-0.1,3.4,0,5.1-0.1c2-0.1,4.1,0,6.1-0.3c2-0.3,2.8-1.9,2.3-3.9
		c-0.6-2.3-2.3-3.7-5-4.1c-6.3-0.8-12.7-1.5-19-2.4c-0.9-0.1-1.9-0.5-2.4-1.1c-2.6-2.8-5.1-5.8-7.6-8.7c-0.9-1.1-0.6-2,0.8-2.3
		c1.2-0.3,2.5-0.3,3.7-0.5c2-0.3,3.5,0.1,4.3,2.1c0.2,0.4,0.5,0.8,0.8,1.2c1.1,1.3,2.4,2.2,4.1,1.9c1.8-0.3,2.4-1.7,2.8-3.2
		c0.3-1.1,0.9-1.3,1.8-1.1c1.1,0.2,2.3,0.4,3.4,0.6c1.2,0.2,2-0.4,2.7-1.4c1.3-2,0.4-4.6-2-5.6c-0.9-0.4-1.9-0.8-2.9-1.2
		c0.3-0.6,0.5-0.9,0.6-1.3c1.2-3.1,0-6-2.9-6.2c-1.3-0.1-2.8,0.5-4,1c-1.3,0.5-2.4,0.5-3.3-0.6c-0.8-0.9-1.7-1.7-2.5-2.5
		c-1.7-1.6-1.5-2.3,0.7-2.9c0.6-0.2,1.3-0.3,1.9-0.4c2.5-0.4,5.1-0.7,7.6-1.3c1.9-0.4,3.6,0,5.2,1.1c3.9,2.6,7.8,5.2,11.7,7.7
		c1.6,1,3.2,2,4.9,2.9c2.5,1.3,4.9,0.1,5.3-2.6c0.2-1.6-0.9-2.6-2-3.6c-2.5-2.1-4.9-4.2-7.4-6.3c-0.9-0.8-0.8-1.6,0.4-2
		c1-0.4,2.1-0.6,3.1-0.8c3-0.6,6.1-1.1,9.1-1.9c3.1-0.9,3.6-4.1,1-6c-0.8-0.6-2-0.9-3.1-0.8c-1.9,0.1-3.9,0.6-5.8,0.9
		c-1.9,0.3-3.8,0.7-5.6,1c-1.5,0.2-1.9-0.3-1.4-1.7c0.3-0.8,0.7-1.5,1.1-2.3c1.2-2.3,2.4-4.6,3.5-6.9c0.8-1.7,0.1-4-1.5-4.9
		c-1.8-1.1-3.5-0.7-4.9,1.1c-0.6,0.8-1.2,1.6-1.8,2.5c-2.8,3.9-5.6,7.8-8.4,11.7c-0.5,0.6-0.8,1.4-1.4,1.9c-0.7,0.6-1.5,1.3-2.4,1.5
		c-3.8,0.8-7.6,1.4-11.4,2c-1.4,0.2-1.7-0.1-1.3-1.4c0.3-1,0.7-2,1.1-3c0.7-2,1.8-3.5,4.2-3.2c0.6,0.1,1.1-0.1,1.7-0.2
		c1.8-0.2,3.1-1.1,3.5-2.6c0.3-1.3-0.4-3-1.8-3.9c-1-0.6-0.9-1.1-0.1-1.9c0.8-0.9,1.6-1.8,2.2-2.8c1.3-2.1-0.3-5-2.7-5.3
		c-1.7-0.2-2.8,0.8-3.9,1.9c-1.5,1.4-1.7,1.4-2.7-0.3c-0.2-0.3-0.4-0.5-0.6-0.7c-0.9-1.2-2.1-1.7-3.5-1.4c-1.5,0.3-2.3,1.4-2.6,2.9
		c-0.2,1-0.4,1.9-0.4,2.9c0,1.1-0.6,1.7-1.6,2c-1.6,0.4-3.2,0.8-4.8,1.2c-1.8,0.5-2.2,0.2-1.7-1.6c0.9-3.2,2.1-6.3,3.1-9.5
		c0.5-1.5,1.4-2.5,2.7-3.2c3.3-1.7,6.7-3.3,10-5.1c2.5-1.3,5-2.6,7.3-4.1c2-1.3,2.1-3.2,0.6-5c-1-1.3-2.4-1.7-3.9-1.2
		c-2.9,1-5.8,2.1-8.6,3.1c-0.5,0.2-0.9,0.3-1.4,0.4c-0.9,0.2-1.4-0.2-1.1-1.2c0.2-0.9,0.5-1.9,0.8-2.8c0.9-2.6,1.8-5.1,2.6-7.7
		c0.6-1.9-0.6-4.4-2.4-5.1c-1.9-0.6-3.7,0.4-4.4,2.7c-0.3,0.9-0.6,1.8-1,2.8c-0.8,2.4-1.6,4.7-2.4,7.1c-0.5,1.5-1.6,1.7-2.7,0.4
		c-0.4-0.5-0.8-1.1-1.2-1.7c-1.4-2.2-2.8-4.4-4.3-6.6c-1.1-1.5-2.8-1.9-4.4-1.1c-1.5,0.8-2.1,2.5-1.5,4.2c0.4,1.2,0.9,2.4,1.4,3.6
		c2.2,4.6,4.5,9.1,6.8,13.7c0.6,1.3,0.7,2.5,0.2,3.8c-1.2,3.2-2.2,6.5-3.3,9.7c-0.5,1.6-1.8,1.8-2.8,0.5c-0.8-0.9-1.4-1.9-2.2-2.8
		c-1-1.1-1.1-2.2-0.3-3.5c0.5-0.8,0.8-1.8,1.2-2.7c0.7-1.6,0.4-3.1-0.8-4.3c-1.1-1.1-2.4-1.2-4-0.4c-1.3,0.6-1.5,0.5-1.9-0.9
		c-0.3-1.1-0.6-2.2-1.1-3.1c-1-1.7-2.3-2.1-3.9-1.5c-1.5,0.6-2.4,2.1-2.1,3.9c0.1,0.6,0.2,1.2,0.4,1.8c0.3,1.7,0.2,1.8-1.6,1.7
		c-1.5-0.1-2.9,0.6-3.4,1.8c-0.6,1.4-0.4,2.8,0.8,3.9c0.7,0.7,1.4,1.3,2.2,1.9c1.1,0.9,1.5,1.9,1.1,3.3c-0.4,1.3-0.7,2.7-1.1,4
		c-0.5,1.7-1.5,1.8-2.7,0.5c-1.8-2-3.5-4.2-5.3-6.1c-1.7-1.7-2.6-3.6-2.1-6.1c0.1-0.7,0.1-1.4,0.1-2.1c0.2-4.7,0.5-9.3,0.7-14
		c1.1-1.2,2.2-2.4,3.5-3.5c4.1-3.7,8.8-6.9,13.8-9.3c5.1-2.5,10.5-3.8,16.1-4.6l12.8-2.2v-27.4c7.3-2.4,14.3-6.3,20.7-10.4l0,0
		c1.3,1.3,2.9,1.1,3.9-0.3c1.3-1.7,2.5-3.5,3.8-5.2c2.3-1.8,4.5-3.8,6.5-5.8c1.1-0.2,2.2-0.4,3.3-0.6c0.6-0.1,2.2-0.7,2.6-0.2
		c0.5,0.5-0.4,1.9-0.6,2.3c-0.3,0.8-0.5,2-1.4,2.3c-1.6,0.5-3.6-0.8-4.6,1.3c-0.4,0.9-0.2,1.6,0.3,2.4c0.3,0.3,1,0.8,1.1,1.2
		c0.1,0.5-0.3,0.8-0.7,1c-1.3,1.1-2.3,2.9-0.5,4.2c0.7,0.5,1.5,0.6,2.2,0.3c0.3-0.1,0.8-0.2,1.1-0.4c0.3-0.2,0.6-0.6,1.1-0.6
		c0.7,0,1.1,0.9,1.6,1.3c0.7,0.5,1.6,0.7,2.4,0.3c0.7-0.3,1.1-1.1,1.3-1.9c0.2-0.7,0.1-1.7,0.6-2.2c0.6-0.6,1.7-0.6,2.5-0.8
		c0.4-0.1,1.7-0.5,2.1-0.1c0.4,0.4-0.1,1.5-0.3,1.9c-0.4,1.1-0.8,2.3-1.2,3.4c-0.6,1.9-0.9,3.2-2.8,4.1c-2.2,1-4.4,2-6.6,3.1
		c-1,0.5-2,1-3,1.4c-0.8,0.4-1.6,0.7-2,1.6c-0.6,1.5,0.5,3.1,2,3.3c0.9,0.2,1.8-0.2,2.7-0.4c1.1-0.3,2.3-0.6,3.4-0.9
		c0.6-0.2,1.7-0.6,1.9,0.2c0.2,0.8-0.6,2.1-0.8,2.9c-0.4,1.1-0.7,2.2-1.1,3.2c-0.3,0.8-0.6,1.7-0.4,2.6c0.3,1.4,2.3,2.5,3.6,1.7
		c0.7-0.5,1-1.6,1.4-2.3c0.5-1.1,0.9-2.2,1.3-3.4c0.2-0.6,0.5-2.3,1.2-2.6c0.9-0.4,1.6,1.5,2,2c0.9,1.5,1.8,3.5,3.3,4.5
		c1.7,1.1,3.9,0.2,3.6-2c-0.1-1-0.7-1.8-1.1-2.7c-0.5-1.1-1-2.2-1.6-3.4c-1-2.1-2.1-4.2-2.9-6.4c-0.4-1-0.1-1.7,0.2-2.7
		c0.4-1.1,0.7-2.2,1.1-3.3c0.3-1,0.6-2.3,1.1-3.2c0.5-0.8,1.2-0.2,1.7,0.4c1.2,1.5,2.4,2.7,1.3,4.6c-0.4,0.7-1,1.2-0.9,2.1
		c0.1,0.9,0.7,1.6,1.5,2c0.7,0.3,1.5,0.3,2.2,0.3c0.5,0,0.8,0.1,1.1,0.6c0.4,0.7,0.5,1.5,1,2.1c0.6,0.8,1.5,1.4,2.5,1.2
		c0.8-0.2,1.4-0.8,1.6-1.6c0.3-0.8,0-1.5,0-2.3c0-1.2,1.4-1,2.3-1.4c1.7-0.8,1.5-2.6,0.4-3.8c-0.6-0.6-1.6-1.1-1.9-2
		c-0.3-0.9,0.3-2.1,0.5-2.9c0.1-0.5,0.3-1.8,0.9-1.9c0.7-0.2,1.6,1.2,1.9,1.6c0.7,0.8,1.4,1.7,2.1,2.5c0.7,0.8,1.7,1.7,2.1,2.8
		c0.3,0.9,0.2,2,0.1,2.9c-0.1,1.3-0.1,2.5-0.2,3.8c-0.1,2.4-0.3,4.7-0.3,7.1c-0.1,1.6,1,3.5,2.8,3.8c2,0.3,2.5-1.8,2.8-3.3
		c0.2-1.1,0.4-2.2,0.6-3.3c0.2-1.1,0.4-1.7,1-2.7c2.9,1.8,4.3,5.3,7.3,7c1.1,0.7,2.4,0.1,2.9-1c0.6-1.5-0.5-2.7-1.4-3.8
		c-1.2-1.4-2.5-2.9-3.7-4.3c-0.3-0.4-0.9-1-0.5-1.5c0.5-0.6,1.8-0.4,2.4-0.4c1.8,0,3.6,0.1,5.4-0.1c1.4-0.1,2.4-0.9,2.1-2.4
		c-0.5-3.3-4.4-3.1-6.9-3.4c-1.9-0.2-3.9-0.5-5.8-0.7c-1.5-0.2-3.8-0.1-5-1.1c-1.4-1.2-2.5-2.8-3.7-4.2c-0.6-0.7-2.9-2.6-1.2-3.2
		c0.7-0.3,1.6-0.3,2.4-0.4c0.6-0.1,1.3-0.2,1.9,0c1.3,0.4,1.5,2,2.5,2.8c1.2,1,3,0.8,3.7-0.7c0.2-0.5,0.2-1.3,0.8-1.6
		c0.7-0.3,1.9,0.2,2.6,0.3c1.5,0.2,2.8-0.9,2.5-2.5c-0.3-1.8-2.2-2.3-3.7-2.9c0.3-0.6,0.5-1.2,0.6-1.8c5.3,5.3,11.2,9.8,17.5,13.7
		c5.8,3.5,11.9,6.8,18.4,8.9v27.4l12.8,2.2c4.1,0.6,8.3,1.5,12.2,3c3.8,1.4,7.3,3.4,10.7,5.6c6.9,4.5,12.6,10.5,16.7,17.7
		c4.1,7.2,6.5,15.3,7,23.6C418.9,426.8,417,435.4,413.5,442.9z"/>
	<path id="XMLID_296_" class="st0" fill="#BB2025" d="M399.6,372.9C415.1,383.5,386.9,364.2,399.6,372.9L399.6,372.9z"/>
	<path id="XMLID_297_" class="st0" fill="#BB2025" d="M293.9,278.8C293.9,278.8,293.9,278.8,293.9,278.8C293.9,278.8,293.9,278.8,293.9,278.8
		C293.9,278.8,293.9,278.8,293.9,278.8z"/>
	<path id="XMLID_298_" class="st0" fill="#BB2025" d="M293.9,278.9C293.7,279.7,293.8,279.1,293.9,278.9L293.9,278.9z"/>
	<path id="XMLID_299_" class="st0" fill="#BB2025" d="M293.9,278.8C293.9,278.8,293.9,278.8,293.9,278.8C293.9,278.8,293.9,278.8,293.9,278.8z"/>
	<path id="XMLID_300_" class="st0" fill="#BB2025" d="M301,518.3c0,0.1-0.1,0.2-0.1,0.2C301,518.5,301,518.4,301,518.3z"/>
	<path id="XMLID_301_" class="st0" fill="#BB2025" d="M335.9,514.7C336,514.6,336.4,514.4,335.9,514.7L335.9,514.7z"/>
	<path id="XMLID_304_" class="st0" fill="#BB2025" d="M300.6,322.7C300.5,322.4,299.8,324.9,300.6,322.7L300.6,322.7z"/>
	<path id="XMLID_305_" class="st0" fill="#BB2025" d="M303.2,557.1C303.1,557.3,303.2,557.3,303.2,557.1L303.2,557.1z"/>
	<path id="XMLID_306_" class="st0" fill="#BB2025" d="M309.9,508.9c0,0.1,0,0.1,0,0.2C310,509.2,310.4,507.4,309.9,508.9z"/>
	<polygon id="XMLID_308_" class="st0" fill="#BB2025" points="314.7,309.9 314.7,309.9 314.7,309.9 	"/>
	<polygon id="XMLID_310_" class="st0" fill="#BB2025" points="291.2,548 291.2,548 291.2,548 	"/>
	<path id="XMLID_320_" class="st0" fill="#BB2025" d="M303.5,556.5c0,0,0,0.1-0.1,0.2C303.4,556.6,303.4,556.5,303.5,556.5z"/>
	<path id="XMLID_321_" class="st0" fill="#BB2025" d="M285.3,542.6c0.5-0.2,0.8-0.4,1-0.5C285.9,542.3,285.3,542.6,285.3,542.6z"/>
	<path id="XMLID_322_" class="st0" fill="#BB2025" d="M289.7,315.9C289.6,316.2,289.6,316.1,289.7,315.9L289.7,315.9z"/>
	<polygon id="XMLID_325_" class="st0" fill="#BB2025" points="290.2,293.7 290.2,293.7 290.2,293.7 	"/>
	<path id="XMLID_326_" class="st0" fill="#BB2025" d="M289.9,315.4C289.9,315.4,289.9,315.4,289.9,315.4C289.9,315.4,289.9,315.4,289.9,315.4
		C289.9,315.4,289.9,315.4,289.9,315.4z"/>
	<path id="XMLID_327_" class="st0" fill="#BB2025" d="M279.5,308.1C279.5,308,279.5,308,279.5,308.1C279.5,308,279.5,308,279.5,308.1z"/>
	<path id="XMLID_346_" class="st0" fill="#BB2025" d="M279.6,307.8C279.7,307.8,279.7,307.8,279.6,307.8L279.6,307.8z"/>
	<path id="XMLID_347_" class="st0" fill="#BB2025" d="M279.5,308.1C279.4,308.1,279.4,308.1,279.5,308.1C279.4,308.2,279.4,308.2,279.5,308.1
		C279.4,308.2,279.4,308.1,279.5,308.1z"/>
	<path id="XMLID_348_" class="st0" fill="#BB2025" d="M279.6,307.9C279.6,307.9,279.6,307.9,279.6,307.9C279.6,307.9,279.6,307.9,279.6,307.9z"/>
	<path id="XMLID_349_" class="st0" fill="#BB2025" d="M279.5,308C279.5,308,279.6,307.9,279.5,308C279.6,307.9,279.5,308,279.5,308z"/>
	<path id="XMLID_350_" class="st0" fill="#BB2025" d="M286.3,542.1C286.5,542,286.5,542,286.3,542.1L286.3,542.1z"/>
	<circle id="XMLID_351_" class="st0" fill="#BB2025" cx="345.6" cy="476.9" r="3.6"/>
	<circle id="XMLID_352_" class="st0" fill="#BB2025" cx="305.3" cy="447.2" r="5.9"/>
	<circle id="XMLID_353_" class="st0" fill="#BB2025" cx="252.7" cy="369.1" r="3"/>
	<circle id="XMLID_354_" class="st0" fill="#BB2025" cx="341.6" cy="358.4" r="3.5"/>
	<circle id="XMLID_355_" class="st0" fill="#BB2025" cx="325.2" cy="374" r="1.9"/>
	<circle id="XMLID_356_" class="st0" fill="#BB2025" cx="308" cy="360.6" r="4.5"/>
	<circle id="XMLID_357_" class="st0" fill="#BB2025" cx="258.9" cy="346.6" r="3.3"/>
	<circle id="XMLID_358_" class="st0" fill="#BB2025" cx="263" cy="400" r="2.4"/>
	<circle id="XMLID_359_" class="st0" fill="#BB2025" cx="267.6" cy="502.3" r="2.2"/>
	<circle id="XMLID_360_" class="st0" fill="#BB2025" cx="274.4" cy="462.4" r="3.5"/>
	<circle id="XMLID_361_" class="st0" fill="#BB2025" cx="207.4" cy="386" r="3.6"/>
	<circle id="XMLID_362_" class="st0" fill="#BB2025" cx="397.3" cy="391" r="2.9"/>
	<circle id="XMLID_363_" class="st0" fill="#BB2025" cx="403.3" cy="442" r="3.1"/>
	<circle id="XMLID_364_" class="st0" fill="#BB2025" cx="284.4" cy="378.2" r="4.2"/>
	<circle id="XMLID_371_" class="st0" fill="#BB2025" cx="303.7" cy="409.1" r="4.3"/>
	<circle id="XMLID_372_" class="st0" fill="#BB2025" cx="310" cy="382.9" r="4.7"/>
	<circle id="XMLID_373_" class="st0" fill="#BB2025" cx="282.7" cy="407.3" r="2.4"/>
	<circle id="XMLID_374_" class="st0" fill="#BB2025" cx="270.8" cy="367.1" r="2"/>
</g>
</svg>
