<?xml version="1.0" encoding="utf-8"?>
<!-- Generator: Adobe Illustrator 19.0.0, SVG Export Plug-In . SVG Version: 6.00 Build 0)  -->
<svg version="1.1" id="Layer_1" xmlns="http://www.w3.org/2000/svg" xmlns:xlink="http://www.w3.org/1999/xlink" x="0px" y="0px"
	 viewBox="0 0 595.3 841.9" style="enable-background:new 0 0 595.3 841.9;" xml:space="preserve">
<style type="text/css">
	.st0{fill:#BB2025;}
</style>
<g id="XMLID_1_">
	<polygon id="XMLID_127_" class="st0" fill="#BB2025" points="301.9,310.3 296.5,307 290.2,307.1 293.5,301.7 293.4,295.4 298.8,298.7 305.1,298.6 
		301.8,304 	"/>
	<polygon id="XMLID_126_" class="st0" fill="#BB2025" points="253.4,378.2 250.4,376.7 247,377.1 248.5,374.1 248.1,370.7 251.1,372.2 254.5,371.8 
		253,374.8 	"/>
	<polygon id="XMLID_125_" class="st0" fill="#BB2025" points="344.8,377.2 340.4,377.3 336.7,379.7 336.7,375.3 334.2,371.7 338.6,371.6 
		342.2,369.2 342.3,373.5 	"/>
	<polygon id="XMLID_124_" class="st0" fill="#BB2025" points="325.9,336.4 328,340.2 331.7,342.2 328,344.2 325.9,348 323.9,344.2 320.2,342.2 
		323.9,340.2 	"/>
	<polygon id="XMLID_123_" class="st0" fill="#BB2025" points="268.1,348 266.1,344.2 262.4,342.2 266.1,340.2 268.1,336.4 270.1,340.2 273.9,342.2 
		270.1,344.2 	"/>
	<polygon id="XMLID_119_" class="st0" fill="#BB2025" points="295.2,328.3 298.1,333.5 303.4,336.4 298.1,339.3 295.2,344.6 292.4,339.3 
		287.1,336.4 292.4,333.5 	"/>
	<path id="XMLID_131_" class="st0" fill="#BB2025" d="M399.7,372.9c-12.7-8.8-19.9-9.3-34.3-11.8v-26.7c-2.6-0.8-5.8-1.8-7.2-2.4
		c-28.1-12.1-45.1-31.5-51.9-59.4c-0.3-1.3-0.7-3.6-1-5.7H290c-0.3,2.1-0.7,4.4-1,5.7c-6.8,27.9-23.8,47.3-51.9,59.4
		c-1.3,0.6-4.6,1.6-7.2,2.4v26.7c-14.4,2.5-21.5,2.9-34.3,11.8c-15.5,10.6-24.9,28.6-25.1,48.1c0.3,19.4,9.7,37.4,25.2,48
		c12.8,8.8,20,9.4,34.3,11.8v26.6c2.6,0.8,5.8,1.8,7.2,2.4c28.1,12.1,45.1,31.5,51.9,59.4c0.3,1.3,0.7,3.6,1,5.7h15.2
		c0.3-2.1,0.7-4.4,1-5.7c6.8-27.8,23.8-47.3,51.9-59.4c1.3-0.6,4.6-1.6,7.2-2.4v-26.6c14.4-2.5,21.6-2.9,34.3-11.8
		c15.5-10.6,24.9-28.6,25.2-48.1C424.5,401.5,415.1,383.5,399.7,372.9z M212.2,452c0.4-2.1,0.5-4.2,1.8-6c0.4-0.5,0.7-1.3,0.8-1.9
		c0.7-2.7,2.1-5.1,3.3-7.5c0.2-0.4,0.5-0.8,0.9-1.4c1.1,2.2,2.1,4.1,3.1,6c0.5,1,0.7,2,0.6,3.2c0,0.7,0.1,1.5,0.4,2.1
		c0.3,0.6,0.6,1.1,0.8,1.7c0,0,0.1,1,0.2,2.5c0.1,1.5-0.5,3-1.2,3.4c-0.7,0.4-0.5,0.9-0.8,1.7c0,0.2,0,0.3,0,0.4
		c-2.7,0.2-5.5,0.4-8.4,0.8c0.5-0.4,0.9-0.7,1-0.9c0.1-0.3-0.5-1.1-0.5-1.1c-0.2-0.6-0.6-0.5-0.6-0.5c0,0,0,0,0,0l-0.7-0.3
		C212.4,453.9,212.1,452.1,212.2,452z M216.5,408.2c-1,1.8-2,3.6-3.2,5.2c-1.6,2-3.8,1.8-5.3-0.3c-1.1-1.4-1.7-3.1-1.9-5
		c-0.1-0.7,0-1.4,0-2.1c2.7-0.6,5.1-1.1,7.6-1.6c0.9-0.2,1.7-0.2,2.6-0.3c0,0.1,0.8-0.5,1.3-0.9c0.2,0.8,0.3,1.4,0.4,1.9
		C217.4,406.1,217.1,407.2,216.5,408.2z M249,442.7c-0.1-0.6-0.3-1.2-0.5-1.7c-1-2.6-1.2-5.3-0.6-8.1c1.1,0.5,1.8,1.3,2.4,2.4
		c1.3,2.5,2.5,5.1,3.1,8c0.7,3.1,1.1,7.8,0.9,11c0,0.5-0.4,1-0.8,1.5c-2.8,0.1-5.5,0.4-8.3,0.6c-0.1-0.4-0.1-1.2-0.1-1.2
		c0.7-2.4,1.5-6.5,3.1-8.4C249.2,445.5,249.2,444.2,249,442.7z M244.6,448.7c-0.2,2.4-0.5,5.3-2,7.2c0,0-0.5,0.4-0.9,0.8
		c-3.3,0.2-6.8,0.2-10.7-0.3c-1.2-0.2-2.7-0.3-4.3-0.3c0.3-0.1,0.5-0.3,0.6-0.5c0.3-0.6,0.3-1.2,0.2-1.5c-0.2-0.3-0.3-3-0.5-4.4
		s-0.2-3.2-0.2-3.2l0,0c0-0.9-0.2-1.7-0.4-2.6c-0.7-2.6-1.5-5.2-2.1-7.9c-0.2-1-0.6-2.2,0.3-3.5c0.6-0.2,1.4-0.7,2.2-0.9
		c2.8-0.7,5.6-1.6,8.2-3c0.7-0.4,1.4-0.9,2.2-1.1c0.6-0.2,1.4-0.4,2-0.2c0.7,0.2,1.3,0.6,1.8,0.9c0.6,0.3,1,0.9,1.1,1.5
		c0.9,3.6,1.8,6.9,2.6,10.2c0.2,0.7,0.3,1.4,0.2,2.2C245,444.3,244.8,446.5,244.6,448.7z M303.4,523.4c-14.5,0.3-21.5-4.3-24.3-4.3
		c0,0,0-1.5,14.8,0s25.3-0.8,28-2S317.9,523.1,303.4,523.4z M314.2,507.4c-15.5,0-12.8,1-25,1s-38.4-7.3-38.4-7.3s22.2-0.8,33.8,1.8
		s13.4-2.5,27.4-1.8s42-3.8,42-3.8S329.7,507.4,314.2,507.4z M307.9,490.6c-10.5,0-22,3.8-38.3,3.8s-27.3-6.8-27.3-6.8
		s18,2.8,28.6,2.8c10.6,0,11.4,0,21.4-2.8s15.8-1,30.5-2.5s32.8,2.5,32.8,2.5C341.5,484.4,318.4,490.6,307.9,490.6z M242.4,477.4
		c0,0,31.3,1.7,37.5,2.4c6.3,0.6,14,0,14,0S277.9,487.1,242.4,477.4z M353.7,477.4c-6.3,1.5-6.5,1.5-16.3,2.3s-35.3-2.3-49.3-6
		s-15.1-1.8-20.1-3.3c-4.9-1.5-44.2-0.3-54.7-5c0,0,56.7-1.8,81.8,4.8c25.2,6.5,56.2,5,64.2,3C359.4,473.1,359.9,475.9,353.7,477.4z
		 M285.8,436.1c1.4,2.4,2.6,4.4,3.7,6.5c0.3,0.6,0.4,1.4,0.4,2.2c0,0.9,0.1,1.8,0.6,2.6c1.3,1.9,1.8,5.7,2.2,8.1
		c0,0-0.1,0.7-0.2,0.8c-0.1,0.1-0.1,0.9-0.4,1.1c-0.4,0.2-0.7,0.7-0.7,0.8c0,0.2,0.8,1.2,1.6,1c0.9-0.2,2.3-0.4,3-0.6
		c0.7-0.1,1.4-0.4,1.4-0.4l-1.3-3.3c-0.1-0.2-0.1-0.4-0.2-0.5c-0.1-0.3-0.2-2.1-0.3-2.2c-0.2-0.3-0.4-2.3-0.6-2.7
		c-0.2-0.4-0.2-3.1-0.3-3.2c-0.1-0.3-0.1-0.6-0.2-0.8c-0.6-1.6-1.3-3.2-1.8-4.8c-0.6-2-1.3-4.1-1.1-6.2c0.6-1,1.5-1.2,2.5-1.5
		c3-0.8,6.1-1.4,9-2.7c1-0.5,1.9-0.9,2.9-1.3c1.2-0.5,2.6-0.5,3.8,0.1l2.1,1c1.2,3.9,2.3,7.6,3.3,11.2c0.1,0.4,0.2,0.7,0.2,1.1
		c-0.3,3.2-0.5,6.4-1,9.5c-0.2,1-0.5,3.6-1,4.4c-0.1,0.2-1.1,1.6-1.4,2c-0.4,0.4-0.6,1.1-0.3,1.3s0.2-0.1,2,0.3c1.7,0.4,2-0.8,2-0.8
		l-0.2-2.5l0.2-0.8l0-0.1l0,0c0.1-0.2,0.1-0.4,0.2-0.6c0.5-1.6,1.2-4.6,2.2-6c0.3-0.4,0.6-0.8,0.9-1.2c0.9-1.3,1.2-3,0.7-4.6
		c-0.2-0.7-0.5-1.4-0.7-2.1c-0.8-2.3-0.7-4.7-0.4-7.4c0.9,0.7,1.8,1.1,2.2,1.7c1.3,2.2,2.6,4.4,3.5,6.8c0.8,2,1.1,4.2,1.5,6.3
		c0.3,2.2,0.5,6-0.1,8.1l0,0l0,0.3l0,1c-0.3,0.4-0.6,0.9-0.6,1.2c0,0.1,0,0.2-0.1,0.4c-3.7,0.5-8.4,1-15.2,1.2
		c-18.7,0.5-18.4-2.6-23-2.5c-1.9,0-4.8-0.1-8.4-0.4l-0.2-3.6c0.3-2.1,0.9-5.7,2.3-7.6c0.4-0.5,0.6-1.2,0.8-1.9
		C282.1,441.7,284,439.2,285.8,436.1z M282.8,409.8c-1.1,1.6-2.1,3.4-3.4,4.8c-1.8,1.9-4.2,1.8-5.9,0c-1.8-1.9-2.5-4.3-2.4-6.9
		c0-0.1,0.1-0.2,0.2-0.4c2.9-0.6,5.8-1.1,8.8-1.7c0.7-0.1,1.4-0.3,2-0.1c0.4,0.1,0.8,0,1.1-0.4c0.2-0.4,0.6-0.5,1.2-0.4
		c0.1,0.6,0.2,1.1,0.2,1.6C283.9,407.6,283.5,408.8,282.8,409.8z M383.2,457.6c-0.2,0.2-1.9,1.1-1.9,1.1s-0.8,0.3-1.1,0.9
		c-3.3,0.3-6.3,0.6-8.5,1.1c-6.7,1.4-14.5,0.1-21.8-1.2c0.3-0.2,0.5-0.4,0.5-0.4s-0.7-0.7-0.7-0.9l-0.3-0.9l0,0c0-0.1,0-0.3,0-0.4
		c0-0.3,0-2.2,0.1-2.4c0.3-1.9,0.6-3.9,1.9-5.5c0.5-0.7,0.9-1.5,1.2-2.3c0.9-2.7,2.6-5,4.2-7.5c1.7,2.1,3,4.2,4,6.5
		c0.1,0.3,0.2,0.7,0.1,1.1c-0.2,1,0.1,1.9,0.5,2.7c0.1,0.2,0.2,0.4,0.4,0.6c0.3,0.4,0.6,1,1,1.5c0,0,0,0,0,0
		c0.2,0.7,0.4,1.5,0.5,2.4c0,0,0.3,2.1,0.4,2.8c0.1,0.7,0.3,0.7,0,1.4s-0.9,1.8-0.1,1.9c0.8,0.1,0,0.1,2-0.1c2-0.1,1.8,0.1,2-0.1
		c0.2-0.3-0.7-4.8-1.2-5.3c-0.1-0.4-0.2-0.6-0.2-0.7c-0.1-0.2-0.6-4-0.6-4c0.1-1.2-0.3-2.3-0.8-3.4c-1.2-2.6-1.9-5.3-2.3-8.1
		c-0.1-1,0.3-1.6,1.2-1.9c0.7-0.3,1.5-0.5,2.3-0.7c2.4-0.5,4.9-1.1,7.1-2.1c1.2-0.6,2.4-1.1,3.6-1.6c0.5-0.2,1.2-0.4,1.7-0.2
		c1.3,0.4,2.6,0.8,3.4,1.5c1,3.3,2,6.3,2.9,9.3c0.3,0.9,0.5,1.8,0.4,2.7c-0.1,2.4-0.3,4.7-0.7,7.1
		C384.3,453.6,383.9,456.5,383.2,457.6z M353.4,415.8c-0.8,1.2-1.7,2.4-2.7,3.4c-1.4,1.3-3.5,1.5-4.8,0.5c-2.3-1.8-3.1-4.3-3-7.1
		c0.7-0.2,1.2-0.3,1.7-0.4c2.4-0.5,4.8-0.9,7.2-1.3c0.7-0.1,1.4,0,2.2,0c0.3-0.2,0.6-0.4,0.9-0.6c0.3-0.2,0.7,0,0.7,0.3
		c0,0.5,0.1,0.9,0.1,1.2C354.9,413.2,354.3,414.5,353.4,415.8z M394.3,458.8c-3.1,0.1-6.4,0.3-9.6,0.5c0.8-0.7,0.6-2.1,0.6-2.1
		c0.5-1.7,1.2-4.9,2.2-6.3c0.5-0.8,1.2-1.5,1.6-2.3c0.3-0.5,0.5-1.1,0.4-1.6c-0.1-1-0.4-1.9-0.8-2.8c-1-2.4-1.3-4.7-0.6-7.4
		c1.2,0.7,2,1.4,2.7,2.4c2.1,3.2,3.4,6.7,4,10.4c0.1,0.4,0.1,0.8,0.1,1.2C395,452.6,395.6,456.6,394.3,458.8z M402.4,458.6
		c-1.4,0-2.9,0.1-4.6,0.1l-0.1-0.3h0c0-1.6-0.5-4.7-0.8-6.2c-0.1-0.4-0.1-0.8-0.1-1.2c0.1-2.1,0.3-4.3,0.2-6.4
		c0-0.9-0.5-1.8-0.9-2.6c-1.2-2.1-2.2-4.3-2.7-6.7c-0.5-2.2-0.1-4.3,1.1-6.3c0.9,2.3-0.3,4.7,0.4,7.4c0.2-0.5,0.3-0.7,0.4-0.9
		c0.1-0.2,0.2-0.5,0.2-0.7c0.2-3,0.5-6,0.7-9c0.1-1-0.3-2-1-2.7c-1.6-1.5-3.3-3.1-4.9-4.6c-0.2-0.2-0.4-0.3-0.5-0.5
		c-0.9-0.8-1.3-2-1.1-3.2l0-0.2c-0.4-0.9-0.7-1.7-1.1-2.6c-0.2-0.4-0.5-0.8-0.9-1.1c-0.8-0.6-1.3-1.8-2-2.7c-0.5-0.7-0.9-1.6-1.9-2
		c-0.2,0-0.3-0.2-0.4-0.4c-0.2-0.4-0.6-0.7-1.1-0.8c-0.8-0.2-1.6-0.4-2.6-0.6c-0.1-0.5-0.3-1.3-0.4-2.1l1.1-0.7
		c-0.4-3.6-2.9-5.9-4.9-8.6c0.2-1.3,0.5-2.6,0.7-3.9c0,0-0.1,0-0.1-0.1c0.2-0.3,0.4-0.5,0.5-0.8c0.1-0.6,0.4-1.4,0.2-1.8
		c-0.7-1-1.5-2-2.5-2.8c-0.6-0.5-1.6-0.6-2.4-0.7c-1-0.1-1.9,0.2-2.6,0.9c-0.4,0.4-0.9,0.6-1.5,0.9c-0.1,0.3-0.2,0.6-0.4,1
		c-0.1,0.3-0.1,0.6,0.1,0.9c0.5,0.6,0.8,1.2,0.6,2.1l-0.6,0.8c-0.1,0.2-0.2,0.5-0.1,0.7c0.2,0.6-0.3,0.7-0.4,1.7
		c-0.2,1.6,1.5,0.7,2.3,1.3c-0.9,2.7-2.1,9.2-5.1,11.2c-0.8,0.6-1.5,1.3-2.4,2.1c-2.2,0.4-4.9,0-7.1,1.6c-0.2,0.4-0.4,0.8-0.7,1.4
		c-3.1,0.6-6.3,1.2-9.7,1.8c0.2-0.6,0.6-2.4,0.8-2.8c0.1-0.4,0-0.9-0.3-1.2c-0.4-0.4-0.8-0.9-1.2-1.3v-2.6c-0.9-0.7-1.4,0.2-2.1,0.4
		c-0.6-0.3-1.3-0.6-2.1-1c-0.6,0.2-1.3,0.3-2,0.5c-1.7,0.6-3.4,0.5-5.2,0c-1.9-0.5-3.2-0.1-4.6,1.3c-0.2,0.2-0.3,0.6-0.1,0.8
		l0.6,0.9l-0.3,0.3c-0.3,0.4-0.1,1,0.4,1c0.7,0.1,1.4-0.1,2.1,0.2c1.4,2.2,3.4,4.4,6.1,4.5c0.2,1.3,0.4,2.6,0.7,3.8
		c0.6,2.9,1.9,5.4,3.3,8c0.1,0.3,0.4,0.6,0.7,0.8c2.1,1.8,4.3,3.4,7.1,4c4.3,1,3.5,0.6,5.8,4.1c0.1,0.2,0.2,0.5,0.3,0.5
		c-0.2,3.5-1.7,6.4-2.9,9.4c-0.3,0.6-0.9,1.1-1.2,1.7c-0.4,0.8-0.8,1.6-0.8,2.4c0.1,2.7-0.4,6.8-1.5,9.2c0,0,0,0.1-0.1,0.1
		c0,0,0,0,0,0c-0.1,0-0.2,0.2-0.3,0.4c0,0-0.5,0.2-1.2,1.4c-1.5-0.2-3-0.4-4.4-0.6c-4.8-0.5-8,0-12.4,0.7c0.1-1.3,0-2.9,0-2.9
		l-0.1,0c-0.1-1.1-0.4-3.7-0.6-4.8c-0.2-1.1-0.1-2.2-0.2-3.3c0-0.3,0-0.6,0.1-0.9c0.5-3.5-0.2-6.6-2-9.7c-1-1.8-1.6-3.8-2-5.9
		c-0.4-2,0.1-4,1-5.9c0.1-0.1,0.2-0.2,0.6-0.5c0,1.5,0,2.8,0,4.1c0,1.3,0,2.5,0,3.8c0.1,0,0.3,0,0.4,0.1c0.1-0.8,0.4-1.5,0.4-2.3
		c0.2-2.9,0.4-5.8,0.7-8.8c0.1-1.2-0.2-2.2-1-3.1c-1.4-1.5-2.9-2.9-4.3-4.3c-0.5-0.4-1-0.8-1.3-1.4c-1-1.4-2-2.9-3.1-4.5
		c-0.3-1.5-0.7-3.2-1.1-4.9c-1.2-0.3-2.2-0.6-3.4-1c-0.9-1.9-1.4-4.1-1.6-6.3c-0.2-1.6-0.4-3.2-1.3-4.6c0.2-0.6,0.3-1.1,0.6-1.9
		c-0.4-0.5-0.9-1.1-1.4-1.5c-1-0.9-2.2-1.8-3.2-2.6c-0.8-0.6-1.1-1.4-0.9-2.4c0.1-1.1,0-2.3,0-3.9l0.5-0.7c0.5-0.8,0.4-1.9-0.4-2.4
		c-0.1-0.1-0.3-0.2-0.3-0.3c-2-2.6-4.7-2.5-7.3-0.4c-0.5,0-0.8,0.5-0.7,1c0.3,0.8,0.5,1.5,0.8,2.4c-0.1,0.5-0.2,1.1-0.4,1.8
		c-0.3,0.4-0.7,0.9-1.1,1.3c0.2,0.6,0.9,0.5,1,0.9c0.5,1.4,0,1.8,0.8,1.9c-0.6,2.3-2.3,9.4-3,11.5c-0.2,0.7-1,1.4-1.6,1.9
		c-1.1,1-2.2,1.9-3.5,2.9c-1.6,0.2-3.4,0.3-4.8,0.5c-1.1,0.6-1.9,1-2.8,1.5c-0.1,0.3-0.3,0.7-0.5,1.4c-3.3,0.6-6.6,1.3-10.2,2
		c0.2-0.6,0.3-1,0.4-1.3c0,0,0.3-1.3,0.3-1.4c0.2-0.6,0.1-1.2-0.3-1.7c-0.5-0.5-0.9-1-1.1-1.6c-0.3-0.8-0.1-1.8-0.1-2.7
		c-0.9-0.7-1.5,0.2-2.4,0.3c-0.6-0.3-1.4-0.6-2.2-0.9c-0.3,0.1-0.5,0.1-0.8,0.2c-2.5,0.9-5,1-7.5,0.1c-0.8-0.3-1.6,0-2.3,0.4
		c-0.4,0.3-0.9,0.5-1.3,0.8c-0.5,0.3-0.6,0.9-0.4,1.4c0.2,0.3,0.3,0.6,0.5,0.9c-0.2,0.2-0.5,0.5-0.8,0.9c0.1,0.2,0.2,0.4,0.3,0.4
		c0.9,0.1,1.8,0.2,2.7,0.3c2.7,2.8,2.6,4.3,6.6,4.9c0.2,1.2,0.4,2.5,0.6,3.7c0.6,3.4,2.1,6.4,3.6,9.4c0.1,0.2,0.3,0.4,0.4,0.6
		c2.3,2,4.7,3.8,7.7,4.5c0.9,0.2,1.9,0.4,2.8,0.8c0.6,0.3,1.2,0.7,1.6,1.2c0.8,1,1.4,2,2,3c-0.1,3.8-1.8,7.1-3.1,10.5
		c-0.1,0.1-0.1,0.3-0.2,0.4c-1.6,1.4-1.7,3.2-1.7,5.2c0,1.8-0.3,5.3-0.9,7l-0.9,1.3c0,0-0.8,0.2-1.4,1c-0.3,0.4-0.3,0.9-0.2,1.3
		c-4.2-0.4-8.7-0.8-13.1-1.4c-1.3-0.2-2.5-0.2-3.7-0.3c0.1-1.4-0.2-3.2-0.4-4.1c-0.4-1.7-0.6-3.3-0.3-5.1c0.2-1.5,0.2-3,0.1-4.6
		c-0.1-1-0.5-2.5-0.9-3.4c-1.3-2.7-2.4-5.5-2.7-8.6c-0.2-2,0.2-4.3,1.4-5.9c0,1.5,0.2,2.8,0,4c-0.1,0.7-0.3,0.6-0.1,2.8
		c0,0.3,0.4,0.3,0.5,0c0.5-2.2,0.8-6.7,0.8-10c0-1.3-0.4-2.6-1.2-3.7c-1.1-1.5-2.4-2.8-3.8-4.1c-0.5-0.5-1-0.9-1.3-1.8
		c-0.2-0.7-1-1.2-1.6-1.8c-0.1-1.1-0.3-2.3-0.4-3.6c-0.2-2.2-1.1-2.9-3-2.7c-0.3,0-0.6,0-1.1,0c-1.1-3.2-1.1-6.9-3-9.9
		c0.4-0.9,0.1-1.7-0.4-2.5c-0.9-1.5-1.8-3-2.8-4.5c-0.6-0.9-0.9-1.9-0.8-3c0.7-0.4,1.4-0.9,1.9-1.2c0.8-2.9-0.4-4.6-1.9-6.1
		c-1-1-2.2-1.7-3.3-2.6c-1.6-0.7-3.4,0.4-3.4,0.4c-0.6,0.8-0.6,1.7-0.4,2.6c0.4,1.7,0,2.7-0.8,4.2c-0.1,0.2-0.1,0.5,0,0.7
		c0.2,0.4,0.5,0.9,0.5,1.4c0,0.3,0,0.7,0,1.1c0,0.4,0.2,0.8,0.6,1c0.4,0.1,0.8,0.3,1.2,0.4v1.4c-0.4,0.8-0.9,1.5-1.2,2.4
		c-0.5,1.3-0.9,2.7-1.3,4.1c-0.4,1.4-1,2.5-2,3.5c-1,1.1-2,2.2-2.9,3.4c-1.6,0.2-3.2,0.4-4.6,0.5c-0.8,0.5-1.4,1-2.3,1.5
		c-0.1,0.2-0.3,0.7-0.6,1.4c-2.8,0.6-5.7,1.3-8.9,1.9l0.4-1.6c0.1-0.5,0.3-1.7,0-2.1c-0.3-0.4-0.7-0.8-1.1-1.4v-2.9
		c-0.9-0.7-1.3,0.2-2.1,0.3c-1.3-1.3-2.9-0.8-4.5-0.2c-1.4,0.5-2.8,0.2-4.1-0.3c-1.6-0.6-2.7,0.1-3.8,1.2c-0.4,0.4-0.5,1-0.2,1.4
		l0.4,0.8l-0.2,0.3c-0.3,0.5,0,1.1,0.5,1.1l1.6,0.2c2.4,2.9,2.5,3.8,5.9,4.4c0.3,1.7,0.4,3.5,0.9,5.1c0.8,2.6,1.7,5.1,2.6,7.6
		c0.2,0.5,0.5,0.9,0.9,1.3c2,1.9,4.1,3.7,6.8,4.3c1.1,0.2,2.1,0.7,3.1,1.1c0.6,1.1,1.2,2.1,1.8,3.2c0.3,0.5,0.4,1.1,0.3,1.7
		c-0.4,2.5-0.9,4.9-1.9,7.2c-0.6,1.4-1,2.9-1.9,4.2c-0.4,0.5-0.6,1.5-0.5,2.2c0.2,4-1,9.2-2.3,12.7l0.1,0c-0.1,0.2-0.1,0.5-0.1,0.7
		c-5.8,0.8-11.1,1.8-14.5,2.4c-10.9-9.6-17.4-23.8-17.6-39c0.3-17.4,8.6-33.4,22.4-42.8c8.1-5.6,14.2-8,24.3-9.5l12.8-2.2v-27.4
		c2.3-0.7,3-1.1,3.4-1.2c30.1-12.9,48.3-33.8,55.6-63.7c0.1-0.3,0.1-0.5,0.2-0.9h4.5c0.1,0.3,0.1,0.6,0.2,0.9
		c7.3,29.9,25.5,50.8,55.6,63.7c0.3,0.1,1.1,0.5,3.3,1.2v27.4l12.8,2.2c10,1.5,16.2,3.9,24.3,9.5c13.8,9.4,22.1,25.4,22.4,42.8
		C418.3,435.5,412.3,449,402.4,458.6z"/>
</g>
</svg>
