<?xml version="1.0" encoding="utf-8"?>
<!-- Generator: Adobe Illustrator 19.0.0, SVG Export Plug-In . SVG Version: 6.00 Build 0)  -->
<svg version="1.1" id="Layer_1" xmlns="http://www.w3.org/2000/svg" xmlns:xlink="http://www.w3.org/1999/xlink" x="0px" y="0px"
	 viewBox="0 0 595.3 841.9" style="enable-background:new 0 0 595.3 841.9;" xml:space="preserve">
<style type="text/css">
	.st0{fill:#BB2025;}
</style>
<g id="XMLID_92_">
	<path id="XMLID_626_" class="st0" fill="#BB2025" d="M424.3,413.7c-0.5-3.6-1.2-7.1-2.3-10.4c-0.7-2.2-1.5-4.4-2.5-6.6c-3.8-8.5-9.6-16-17-21.8
		c-0.9-0.7-1.9-1.4-2.8-2.1c-4.8-3.3-8.8-5.4-12.6-6.9c-2.6-1-5.1-1.7-7.8-2.4c-4-0.9-8.4-1.6-13.9-2.5v-26.7
		c-0.6-0.2-1.3-0.4-2-0.6c-0.3-0.1-0.7-0.2-1-0.3s-0.7-0.2-1-0.3s-0.6-0.2-0.9-0.3c-0.9-0.3-1.7-0.6-2.2-0.8c-2.3-1-4.4-2-6.6-3.1
		c-1.1-0.6-2.2-1.1-3.3-1.7c-1.6-0.9-3.2-1.8-4.7-2.7c-0.8-0.5-1.5-1-2.3-1.4c-0.7-0.5-1.5-1-2.2-1.5c-1.2-0.8-2.3-1.7-3.4-2.5
		c-2.1-1.6-4.1-3.3-5.9-5c-0.9-0.9-1.9-1.8-2.8-2.7c-0.9-1-1.9-2-2.7-3c-8.7-9.9-14.6-21.7-18-35.7c-0.2-0.8-0.4-2-0.6-3.3
		c-0.1-0.5-0.2-1.1-0.2-1.6c0-0.1,0-0.3-0.1-0.4c0-0.1,0-0.3-0.1-0.4h0H290h0c-0.1,0.7-0.2,1.5-0.3,2.3c0,0.3-0.1,0.6-0.1,0.9
		c0,0.3-0.1,0.5-0.1,0.7s-0.1,0.5-0.1,0.7c-0.1,0.3-0.1,0.6-0.2,0.9c0,0.1,0,0.2-0.1,0.3c-0.7,2.8-1.5,5.5-2.3,8.1
		c-0.3,0.9-0.6,1.7-0.9,2.6c-0.6,1.7-1.3,3.4-2,5c-1.1,2.4-2.3,4.8-3.6,7.1c-3,5.3-6.6,10.2-10.8,14.7c-0.6,0.6-1.1,1.2-1.7,1.8
		c-1.2,1.2-2.4,2.3-3.6,3.4c-0.6,0.6-1.3,1.1-1.9,1.6c-1,0.8-2,1.6-3,2.4s-2,1.5-3.1,2.3c-5.7,4-12,7.4-19,10.5
		c-0.4,0.2-0.9,0.4-1.5,0.6c-0.2,0.1-0.4,0.1-0.7,0.2c-0.3,0.1-0.6,0.2-0.9,0.3c-0.7,0.2-1.3,0.4-2,0.7s-1.4,0.4-2,0.6v26.7
		c-14.4,2.5-21.5,2.9-34.3,11.8c-4.8,3.3-9.1,7.4-12.6,11.9c-2.4,3.1-4.5,6.4-6.2,9.9c-0.3,0.6-0.6,1.2-0.8,1.8
		c-0.5,1.2-1,2.4-1.5,3.6c-0.7,1.9-1.3,3.7-1.8,5.7c-0.5,1.9-0.9,3.9-1.3,5.9c-0.1,0.7-0.2,1.3-0.3,2c-0.3,2.4-0.5,4.8-0.5,7.2
		c0.1,3.6,0.4,7.2,1.1,10.7c0.2,1.2,0.5,2.3,0.8,3.5s0.6,2.3,1,3.4c0.4,1.1,0.7,2.2,1.2,3.3c0.6,1.6,1.3,3.2,2.1,4.8
		c0.5,1.1,1.1,2.1,1.7,3.2c1.6,2.8,3.3,5.4,5.3,7.9c0.5,0.7,1.1,1.3,1.7,2c1.9,2.2,4.1,4.3,6.4,6.2c1.3,1.1,2.6,2.1,4.1,3.1
		c0.4,0.3,0.8,0.5,1.2,0.8c0.4,0.3,0.8,0.5,1.2,0.8c1.5,1,2.9,1.8,4.3,2.6c0.7,0.4,1.4,0.7,2.1,1.1c0.7,0.3,1.3,0.6,2,0.9
		c2,0.9,3.9,1.6,5.8,2.1c0.2,0.1,0.5,0.1,0.7,0.2c1.1,0.3,2.1,0.6,3.2,0.8c2.7,0.6,5.5,1.1,8.7,1.6c1.6,0.3,3.3,0.5,5.1,0.9v26.6
		c2.6,0.8,5.8,1.8,7.2,2.4c28.1,12.1,45.1,31.5,51.9,59.4c0.3,1.3,0.7,3.6,1,5.7h0h15.2c0.1-0.5,0.1-1.1,0.2-1.6
		c0.1-0.8,0.2-1.6,0.4-2.3c0.1-0.7,0.2-1.3,0.4-1.8c6.8-27.8,23.8-47.3,51.9-59.4c0.2-0.1,0.4-0.2,0.6-0.2c0.9-0.3,2.2-0.8,3.6-1.2
		c1-0.3,2.1-0.7,3-0.9v-26.6c10.6-1.8,17.3-2.6,25.1-6.3v0c0,0,0,0,0,0c0.7-0.3,1.4-0.7,2.1-1.1c0,0,0,0,0,0
		c0.7-0.4,1.4-0.8,2.1-1.2c0.1,0,0.1-0.1,0.2-0.1c0.7-0.4,1.3-0.8,2-1.2c0.1-0.1,0.2-0.1,0.3-0.2c0.8-0.5,1.6-1,2.4-1.6
		c0,0,0,0,0.1,0c2.9-2,5.6-4.2,8-6.7c0.8-0.8,1.6-1.7,2.4-2.5c2.3-2.6,4.4-5.4,6.1-8.4c1.2-2,2.3-4.1,3.2-6.2
		c1.4-3.2,2.6-6.5,3.5-10c0.6-2.3,1-4.6,1.3-7c0.3-2.4,0.5-4.8,0.5-7.2C424.8,418.5,424.6,416.1,424.3,413.7z M185.3,424.4l1.2-7
		l-5.1-5l7.1-1l3.2-6.4l3.2,6.4l7.1,1l-5.1,5l1.2,7l-6.3-3.3L185.3,424.4z M199.9,441.3l-3.3-1.7l-3.3,1.7l0.6-3.7l-2.7-2.6l3.7-0.5
		l1.6-3.3l1.6,3.3l3.7,0.5l-2.7,2.6L199.9,441.3z M317.5,323.6l2.7-5.4l2.7,5.4l6,0.9l-4.3,4.2l1,6l-5.4-2.8l-5.4,2.8l1-6l-4.3-4.2
		L317.5,323.6z M318.8,375.9l-4.4-2.3l-4.4,2.3l0.8-4.9l-3.6-3.5l4.9-0.7l2.2-4.5l2.2,4.5l4.9,0.7l-3.6,3.5L318.8,375.9z
		 M312.4,347.5l2,4.1l4.5,0.6l-3.2,3.2l0.8,4.5l-4-2.1l-4,2.1l0.8-4.5l-3.2-3.2l4.5-0.6L312.4,347.5z M291.5,314.2l3.7-7.5l3.7,7.5
		l8.2,1.2l-6,5.8l1.4,8.2l-7.4-3.9l-7.4,3.9l1.4-8.2l-6-5.8L291.5,314.2z M274,362.3l1.8-3.7l1.8,3.7l4.1,0.6l-2.9,2.9l0.7,4.1
		l-3.6-1.9l-3.6,1.9l0.7-4.1l-2.9-2.9L274,362.3z M219.4,429.3l1.4-2.8l1.4,2.8l3.1,0.5l-2.2,2.2l0.5,3.1l-2.8-1.5L218,435l0.5-3.1
		l-2.2-2.2L219.4,429.3z M210.3,389.8l0.7-1.5l0.7,1.5l1.6,0.2l-1.2,1.2l0.3,1.6l-1.5-0.8l-1.5,0.8l0.3-1.6l-1.2-1.2L210.3,389.8z
		 M368.4,474.2c-1.3,0.2-2.7,0.4-4.1,0.7l-5,0.9v5.1V503c-1.1,0.4-2,0.7-2.7,1c-0.3,0.1-0.6,0.2-0.8,0.3c-5.7,2.5-11,5.2-15.9,8.3
		c-3.9-2.3-7.5-4.8-10.9-7.5v0c-1-0.9-2-1.9-2.8-3l-1.3-1.5l1.8-0.8c0.1,0,0.2-0.1,0.3-0.2l0.5-0.4l1,0.1c1.3,0.1,2.7,0.3,4,0.3
		c0.6,0,1.1-0.2,1.6-0.4c0.2-0.1,0.3-0.1,0.5-0.2l0.7-0.2l0-1.9l0.7-0.4c0.2-0.1,0.4-0.2,0.5-0.3c0.1-0.1,0.2-0.2,0.3-0.2l1-0.6
		l-1.9-2.2l2.9-0.2c0.9-0.1,1.9-0.2,3.1-0.3c0.6-0.1,1-0.5,1.4-0.9c0.1-0.1,0.2-0.2,0.2-0.2l0,0l-10.1-0.6c-0.5,0-1.1-0.1-1.6-0.1
		l-0.8,0l-0.5,1.9l3,2.4l-4.2,0.3l2.6,1.9l-4.3,0.1c-0.4,0-0.8,0.1-1.2,0.4l-0.4,0.3l-0.5,0c-0.1,0-0.2,0-0.4,0
		c-0.4,0-0.7,0.1-1.1,0.1l-1.4,0.2l0.1,1c0,0.1,0,0.3,0,0.4c0,0.6,0,1.3,0.5,1.8c0.3,0.4,0.6,0.7,0.9,1.1c1.2,1.5,2.4,3,3.9,4.2
		c3.2,2.6,6.6,5,10.3,7.2c-19.5,12.8-31.9,30.6-37.6,54c-0.1,0.3-0.2,0.7-0.3,1.1h-5c-0.1-0.4-0.2-0.8-0.2-1.1
		c-5-20.6-15.2-36.9-31-49.2c5.1-3,9.8-7.3,14.7-13.2c0.7-0.9,1.3-1.8,1.7-2.7l1-2.4l-3.4,1.5c-0.8,0.4-1.5,0.7-2.3,1l-0.4,0.2
		c-0.8,0.3-1.6,0.7-2.4,0.9l-0.3,0.1l-0.3-0.1c-0.1,0-0.2-0.1-0.4-0.1l-0.2,0l-2.9-0.7l2.6-2.1c1-0.9,1.9-1.6,2.7-2.6
		c0.4-0.5,0.7-1.1,0.9-1.7c0.1-0.3,0.2-0.5,0.3-0.6l0.3-0.7l-1.3-1.1l-0.7,0.3c-0.2,0.1-0.5,0.2-0.7,0.3c-0.8,0.5-1.7,0.9-2.5,1.4
		l-0.2,0.1c-1,0.6-2,1.1-3,1.7l-1.4,0.7L264,495l4.1-4.5l-0.5-1.1c2.9-1.6,5.4-3.1,7.8-4.5c0.9-0.5,1.6-1.4,2.3-2.1l0.1-0.1
		c0.3-0.3,0.5-0.6,0.8-0.9l0.5-0.5l-1.8-3.3l1-0.8c2-1.5,3.8-3.3,5.3-5.4c0.1-0.2,0.3-0.4,0.4-0.6l1.5-2.3l-6.4,1l4.8-3.9l-0.8-2
		l-1,0.5c-0.1,0.1-0.2,0.1-0.4,0.2c-0.4,0.2-0.8,0.3-1.2,0.6c-1.7,1.2-3.5,1.4-5,1.4l-0.6,0l-0.4-0.5c0-0.1-0.1-0.1-0.1-0.1
		l-0.2-0.2l-1.6-0.5l2.5-4.8l0.6-0.2c0.8-0.2,1.6-0.5,2.4-0.8c0.4-0.1,0.9-0.4,1.4-0.7c0.3-0.2,0.6-0.4,0.9-0.7
		c0.4-0.3,0.6-0.8,0.7-1.2l0-0.1l0.6-1.6l-1.8,0.1c-0.3,0-0.6,0-1,0.2c-0.1,0-0.2,0.1-0.4,0.2l-0.8,0.6l-2.6-1.8l1.8-1.3
		c2.9-2,7.3-5.2,11.3-9.4c0.1-0.1,0.2-0.2,0.3-0.4l0.1-0.1c0.3-0.3,0.6-0.7,0.8-1c0.2-0.2,0.3-0.4,0.5-0.7l0.4-0.5l-1.1-1.7
		l-0.8,0.4c-0.2,0.1-0.5,0.2-0.7,0.3l-0.1,0c-0.5,0.2-0.9,0.4-1.4,0.6c-0.2,0.1-0.3,0.1-0.5,0.2l-1.2,0.5l-0.7-0.7
		c-0.1-0.1-0.4-0.4-1.1-0.4l-1.6,0l0.2-3.6l0.8-0.4c3.2-1.6,5.5-3.3,7.4-5.4c0.5-0.6,0.9-1.1,1.3-1.8c0.2-0.3,0.4-0.5,0.6-0.8
		l0.4-0.5l-0.9-1.5l-0.7,0.1c-0.1,0-0.2,0-0.3,0c-0.3,0.1-0.7,0.1-1,0.2c-0.6,0.2-1.2,0.4-1.8,0.6c-0.5,0.2-0.9,0.3-1.3,0.5
		l-1.5,0.5l-1-3.4l1.6-1c1.5-0.9,2.9-1.8,4.4-2.7c0.5-0.3,0.8-0.7,1.1-1.1c0.1-0.2,0.2-0.3,0.3-0.4l1.7-1.8l-5.7,0.3l3.6-2.9
		c0.9-0.7,1.7-1.5,2.6-2.5c0.3-0.3,0.6-0.7,0.8-1.1c0.1-0.2,0.2-0.3,0.3-0.5l0.3-0.4l-0.6-1.7l-0.9,0.2c-0.2,0-0.3,0.1-0.5,0.1
		c-0.3,0.1-0.5,0.1-0.8,0.2l-5.4,1.4c0.1,0,0.1,0,0.2,0c0.2,0,0.3,0.1,0.5,0.1l0.5,0l0.4,0.3c0.1,0.1,0.3,0.2,0.4,0.3l1.9,1.2
		l-1.8,1.3c-0.8,0.6-1.6,1-2.4,1.4c-0.7,0.3-1.4,0.7-1.9,1.2c-0.5,0.4-0.8,1.4-0.6,2c0.1,0.3,0.3,0.6,0.6,0.9l1.6,1.3l-1.8,1.1
		c-1.2,0.7-2.3,1.4-3.5,2.1l-0.5,0.3c-0.2,0.2-0.5,0.3-0.7,0.5c-0.3,0.2-0.5,0.4-0.8,0.7c-0.2,0.2-0.3,0.4-0.5,0.6
		c-0.1,0.2-0.2,0.3-0.3,0.4l-0.9,1l1.2,0.5c0.1,0.1,0.2,0.1,0.4,0.2c0.5,0.3,1,0.6,1.6,0.6c0.6,0,1.3,0,1.8-0.1l0.8-0.1l0.5,0.6
		c0.2,0.2,0.3,0.3,0.5,0.4c0.1,0,0.2,0.1,0.3,0.1l3,1l-2.7,1.7c-2,1.3-4.2,2.3-6.1,3.2c-0.1,0.1-0.2,0.1-0.4,0.2
		c-0.3,0.2-0.6,0.5-0.8,0.8l-0.3,0.3l-0.8,0.8l0.9,0.7c0.1,0.1,0.2,0.2,0.3,0.3c0.4,0.4,0.8,0.7,1.3,0.9l0.9,0.3l0.2,0.8
		c0.1,0.5,0.3,0.8,0.6,1.1c0.5,0.4,1,0.4,2,0.3l0.7-0.1l0.5,0.4c0.1,0.1,0.2,0.1,0.2,0.2l1.8,1l-1.5,1.4c-2.5,2.3-5.4,4.5-9.2,7
		c-0.4,0.3-0.8,0.5-1.2,0.8l-0.1,0.1c-0.7,0.5-1.5,0.9-2.2,1.5c-0.5,0.4-1.2,1.4-0.9,2.3c0.1,0.2,0.2,0.4,0.4,0.6l1.5,1.7l-2.2,0.7
		c-0.8,0.2-1.5,0.5-2.3,0.7c-0.5,0.2-0.9,0.5-1.3,0.8c-0.2,0.1-0.3,0.2-0.4,0.3l-1,0.7l0.8,0.8c0.1,0.1,0.3,0.3,0.4,0.4
		c0.4,0.4,0.7,0.8,1.2,1.1c0.2,0.2,0.5,0.2,0.8,0.3l2.2,0.2l-0.6,1.2l3.5,1.1l0.3,0.3c0.4,0.4,0.8,0.7,1.2,0.7l3.4,0.1l-1.2,1.5
		l1.4,0.5c0.2,0.1,0.4,0.2,0.7,0.2l2.4,0.9l-1.6,1.6c-1.9,1.8-3.9,3.3-6.4,4.5c-0.1,0-0.2,0.1-0.3,0.1c-1.6,0.6-2.1,1.5-1.9,2.8
		c0.1,0.3,0.2,0.7,0.9,1l2.8,1.1l-2.7,1.5c-4,2.3-8.1,4.6-12,6.7c-1.4,0.8-2.8,1.5-4.2,2.2c-1,0.5-2.1,1-3.1,1.5
		c-0.5,0.3-1.2,1.1-1.1,1.9c0.1,0.9,1,1.5,1.2,1.6c0.5,0.3,1.1,0.4,1.7,0.3l1.3-0.3l2.7,1.2c0.3,0.2,0.8,0.4,1.3,0.4
		c0.2,0,0.4-0.1,0.6-0.1l0.7-0.1l0.8,0.7c0.8,0.7,1.7,1,2.7,0.8l2.5-0.4l-0.8,2.3c0,0.2-0.1,0.3-0.1,0.4l-0.4,0.9l0.9,0.4
		c0.1,0.1,0.3,0.1,0.4,0.2c0.3,0.2,0.7,0.3,1.2,0.4c0.3,0.1,0.5,0,0.9-0.1l0.3-0.1l0.3,0c0.2,0,0.5,0.1,0.7,0.1l0.4,0.1
		c0.1,0,0.3,0.1,0.5,0.1c0.4,0.1,0.7,0.2,1,0.2l3.1,0.3l-2.1,2.2c-3.6,3.7-7.3,6.7-11.1,8.9c-6.6-5-14.2-9.3-22.7-12.9
		c-0.3-0.1-1.1-0.5-3.6-1.3v-22.2v-5.1l-5-0.9c-1.3-0.2-2.6-0.4-3.8-0.6l-1.3-0.2c-1.7-0.3-3.4-0.6-5.1-0.9
		c4.4-3.1,8.2-6.9,11.8-11.2c0.6-0.7,1.1-1.5,1.6-2.5c-1.1,0.5-2.2,1-3.4,1.5c-1,0.4-2,0.9-3.1,1.1c-0.6,0.1-1.3-0.2-1.9-0.3
		c-0.5-0.1-1.1-0.2-1.6-0.2c-0.3,0-0.6,0.2-0.9,0.2c-0.5-0.1-0.9-0.4-1.4-0.6c0.2-0.5,0.3-1.1,0.6-1.4c1-0.9,2.1-1.6,3.1-2.4
		c0.9-0.8,1.8-1.5,2.6-2.5c0.5-0.6,0.7-1.4,1-2.1c-0.1-0.1-0.2-0.2-0.3-0.2c-0.2,0.1-0.5,0.1-0.7,0.3c-2.5,1.4-5,2.8-7.6,4.2
		c-1,0.5-2,1-3.2,0c0.6-0.7,1.1-1.3,1.7-1.9c0-0.1-0.1-0.2-0.1-0.3c-0.8,0.3-1.6,0.7-2.4,1c-0.6,0.2-1.3,0.4-2,0.5
		c-0.3,0-0.7-0.3-1-0.4c0.2-0.3,0.3-0.8,0.6-1c0.8-0.6,1.7-1.1,2.5-2c-0.9,0.3-1.7,0.7-2.6,0.9c-1.7,0.4-3.3,0.8-5,1.2
		c-0.3,0.1-0.7,0-1-0.1c-0.3-0.2-0.7-0.5-0.7-0.9c0-0.3,0.3-0.8,0.6-0.9c2.4-1.3,4.9-2.4,7.3-3.7c4.8-2.6,9.5-5.2,14.2-8
		c1.1-0.7,2-1.9,3-2.9c-0.1-0.1-0.1-0.3-0.2-0.4c-1.2,0.1-2.3,0.4-3.5,0.4c-0.7,0-2-0.1-2.1-0.5c-0.3-1.2,0.9-1.4,1.6-1.8
		c3.6-1.7,6.7-4.2,9.2-7.7c0.2-0.3,0.3-0.5,0.7-1c-1,0.2-1.8,0.4-2.6,0.4c-0.8-0.1-1.6-0.5-2.5-0.8c0.5-0.6,0.9-1.3,1.5-1.9
		c0.9-0.8,1.8-1.5,2.7-2.2c0-0.1-0.1-0.2-0.1-0.3c-0.5,0.2-1,0.4-1.4,0.7c-2,1.5-4.2,1.6-6.5,1.5c-0.3,0-0.6-0.6-1-0.9
		c-0.8-0.2-1.7-0.5-2.6-0.8c0.4-0.7,0.7-1.4,1.2-2.2c-0.3,0-0.7-0.1-1.1-0.1c-0.8,0.1-1.5,0.3-2.3,0.4c-0.3,0.1-0.7,0.1-1,0
		c-0.5-0.4-1-0.9-1.4-1.4c0.5-0.3,0.9-0.8,1.4-1c3.3-1.1,6.6-2,9.9-3.1c0.7-0.2,1.4-0.7,2-1.2c0.2-0.2,0.3-0.7,0.4-1
		c-0.3,0-0.6,0-0.9,0.1c-0.3,0.1-0.6,0.4-0.9,0.6c-0.8,0.4-1.6,1.1-2.1-0.5c-0.1-0.2-0.6-0.3-0.9-0.2c-0.8,0.2-1.6,0.6-2.3,0.9
		c-0.4,0.1-0.8,0.3-1.1,0.2c-0.4-0.1-0.8-0.5-1-0.9c-0.1-0.2,0.3-0.9,0.6-1.1c1.1-0.8,2.3-1.5,3.5-2.3c4.4-2.9,8.6-6.1,12.4-10.1
		c0.6-0.6,1.2-1.4,1.7-2.1c-0.1-0.1-0.1-0.3-0.2-0.4c-0.7,0.3-1.5,0.7-2.2,1c-1.2,0.5-2.4,1.3-3.5-0.2c-0.1-0.2-0.6-0.1-0.8,0
		c-1.9,0.5-2.1,0.3-2-2c-0.5-0.1-1.1,0-1.6-0.2c-0.5-0.2-0.9-0.7-1.4-1.1c0.4-0.4,0.7-0.9,1.1-1.1c3.7-1.7,7.4-3.5,10.4-6.7
		c0.7-0.7,1.2-1.7,1.8-2.5c-0.1-0.1-0.1-0.2-0.2-0.3c-0.4,0.1-0.8,0.1-1.1,0.2c-1.4,0.5-2.7,1-4.1,1.4c-1.3,0.4-1.6,0.2-2-1.1
		c-1.1,0.1-2.2,0.3-3.3,0.3c-0.5,0-1.1-0.4-1.6-0.7c0.4-0.5,0.8-1.1,1.3-1.4c3.1-2,6.2-3.8,9.3-5.7c0.5-0.3,0.8-0.9,1.3-1.3
		c-1.7,0.1-3.4,0.2-5,0.2c-0.3,0-0.7-0.3-0.8-0.6c-0.1-0.3,0.1-0.8,0.3-1c0.5-0.4,1.1-0.8,1.7-1c2.2-1,4.1-2.6,5.9-4.5
		c0.4-0.4,0.7-1,1.1-1.5c0-0.1-0.1-0.2-0.1-0.4c-0.6,0.2-1.2,0.2-1.8,0.5c-1.1,0.5-2.2,0.8-3.2-0.4c-0.3-0.3-0.9-0.1-1.4-0.2
		c-0.3-0.1-0.6-0.3-0.9-0.5c0.2-0.4,0.2-1,0.5-1.2c1-0.7,2.1-1.2,3-2c1.6-1.2,3.1-2.5,4.6-3.8c0.3-0.3,0.5-0.9,0.8-1.4
		c-1.7-0.1-3.4,0.7-5.1-0.6c2.8-1.6,5.1-3.6,6.6-6.8c-1.4-0.2-0.9-0.9-0.6-1.9c0.7-2.8,1.3-5.6,1.8-8.4c0.3-1.5,0.3-3,0.5-4.5
		c0.1-0.5,0.3-1,0.4-1.5c0.2,0,0.3,0,0.5,0c0.2,1,0.4,1.9,0.5,2.9c0.3,2.1,0.5,4.2,0.8,6.3c0.1,0.8,0.5,1.5,0.9,2.2
		c0.7,1.4,0.7,1.7-0.6,2.5c0.3,2.1,1.9,3.2,2.8,4.9c-0.3,0.2-0.6,0.3-0.9,0.4c1,2.2,3.2,2.2,4.9,3.9c-1.7,0.4-3,0.8-4.4,1.1
		c0.7,0.7,1.4,1.4,2.4,2.4c-0.9,0-1.5,0-2.3,0c1.9,3.8,5.1,5.5,7.9,7.7c0,0.2,0,0.3-0.1,0.5c-1.4,0.4-2.9,0.8-4.4,1.2
		c0.4,0.4,0.8,1,1.3,1.3c1.6,1,3.2,1.9,4.8,2.9c0.6,0.4,1.2,0.9,1.8,1.3c0,0.2-0.1,0.4-0.1,0.6c-1-0.1-1.9-0.1-3-0.2
		c0.3,0.8,0.2,1.4-0.6,1.5c-1.1,0-2.1,0-3.5,0c0.5,0.7,0.7,1.1,1,1.4c2.2,2.2,4.5,4.2,7.3,5.3c0.7,0.3,1.3,0.6,1.9,1.1
		c0.3,0.2,0.4,0.7,0.6,1.1c-0.3,0.2-0.7,0.6-1,0.6c-0.5,0.1-1.1,0-1.7,0c-0.5,0-0.9,0-1,0.8c-0.1,0.3-0.6,0.8-0.9,0.8
		c-1.2,0-2.5-0.1-3.7-0.3c-0.6-0.1-1.2-0.4-2.1-0.7c0.4,0.9,0.7,1.6,1.1,2.2c2.1,3.2,4.9,5.5,7.6,7.8c0.2,0.2,0.4,0.3,0.5,0.5
		c0.2,0.3,0.4,0.7,0.6,1.1c-0.3,0.2-0.6,0.3-0.8,0.5c-0.2,0.1-0.5,0.2-0.9,0.5c0.6,0.5,0.9,0.9,1.4,1.1c2.8,1.4,5.7,2.8,8.6,4.3
		c0.4,0.2,0.8,0.2,1.2,0.5c0.4,0.3,0.7,0.6,1,1c0.2-0.7,0.6-1.8,1.8-2.7c0.6-0.4,1.2-0.8,1.7-1.1c0.4-0.2,0.7-0.4,1.1-0.7l-4.2-3.2
		l5.2-3c1.7-1,2.9-1.9,3.8-3c-0.3-1.3,0.1-2.4,0.3-3c0-0.1,0.1-0.2,0.1-0.2c0.6-2.4,1.2-5.1,1.8-8.1c0.1-0.7,0.2-1.5,0.2-2.3
		c0-0.7,0.1-1.3,0.2-2c0.1-0.8,0.3-1.4,0.5-1.9c0.1-0.1,0.1-0.2,0.1-0.3l0.9-2.9l6.8,0.2l0.7,4.1c0.1,0.7,0.3,1.5,0.4,2.2
		c0.1,0.8,0.2,1.6,0.3,2.4c0.2,1.3,0.3,2.5,0.5,3.7c0,0.1,0.2,0.5,0.5,1c0.4,0.8,1.5,2.9,0.6,5c0,0,0.1,0.1,0.1,0.1
		c0.5,0.6,1.1,1.4,1.6,2.3l0.8,1.5c0.8,0.5,1.7,1,2.5,1.9l4.8,5l-4.3,1.1l4.2,4.2l-2.4,0c0.3,0.2,0.6,0.5,0.9,0.7l1.7,1.4l-0.6,4.1
		c0,0,0,0,0,0c0.6,0.4,1.1,0.8,1.6,1.1c0.2,0.1,0.3,0.3,0.5,0.4l0.9,0.7c1-0.7,2-1.3,3.1-2c3.9-2.6,7.6-5.4,10.9-8.9
		c0.5-0.6,1-1.2,1.5-1.9c-0.1-0.1-0.1-0.2-0.2-0.3c-0.7,0.3-1.3,0.6-2,0.9c-1,0.4-2.1,1.1-3.1-0.2c-0.1-0.1-0.5-0.1-0.7,0
		c-1.7,0.5-1.9,0.3-1.8-1.8c-0.5-0.1-1,0-1.4-0.2c-0.4-0.2-0.8-0.6-1.2-0.9c0.3-0.3,0.6-0.8,1-1c3.3-1.5,6.6-3.1,9.2-6
		c0.6-0.7,1.1-1.5,1.6-2.2c-0.1-0.1-0.1-0.2-0.2-0.3c-0.3,0.1-0.7,0.1-1,0.2c-1.2,0.4-2.4,0.9-3.6,1.3c-1.1,0.4-1.4,0.2-1.8-1
		c-1,0.1-2,0.3-2.9,0.2c-0.5,0-0.9-0.4-1.4-0.6c0.4-0.4,0.7-1,1.1-1.3c2.7-1.7,5.5-3.4,8.2-5.1c0.4-0.3,0.7-0.8,1.1-1.2
		c-1.5,0.1-3,0.2-4.4,0.2c-0.2,0-0.6-0.3-0.7-0.5c-0.1-0.2,0.1-0.7,0.3-0.9c0.5-0.4,1-0.7,1.5-0.9c2-0.9,3.7-2.3,5.2-4
		c0.3-0.4,0.6-0.9,0.9-1.3c0-0.1-0.1-0.2-0.1-0.3c-0.5,0.1-1.1,0.2-1.6,0.4c-1,0.4-1.9,0.7-2.8-0.4c-0.2-0.3-0.8-0.1-1.2-0.2
		c-0.3-0.1-0.6-0.3-0.8-0.4c0.1-0.4,0.2-0.9,0.5-1c0.9-0.6,1.8-1.1,2.7-1.7c1.4-1.1,2.8-2.2,4.1-3.4c0.3-0.3,0.5-0.8,0.8-1.2
		c-1.5-0.1-3,0.6-4.5-0.5c2.5-1.4,4.5-3.1,5.8-6c-1.2-0.2-0.8-0.8-0.6-1.6c0.6-2.4,1.2-4.9,1.6-7.4c0.2-1.3,0.2-2.7,0.4-4
		c0.1-0.5,0.3-0.9,0.4-1.3c0.1,0,0.3,0,0.4,0c0.1,0.9,0.3,1.7,0.4,2.6c0.2,1.9,0.4,3.7,0.7,5.6c0.1,0.7,0.4,1.4,0.8,2
		c0.7,1.3,0.6,1.5-0.5,2.2c0.3,1.9,1.7,2.8,2.5,4.4c-0.3,0.1-0.5,0.2-0.8,0.4c0.9,1.9,2.9,1.9,4.3,3.4c-1.5,0.4-2.6,0.7-3.9,1
		c0.6,0.6,1.2,1.2,2.1,2.1c-0.8,0-1.3,0-2.1,0c1.7,3.4,4.5,4.8,7,6.8c0,0.2,0,0.3-0.1,0.5c-1.3,0.3-2.5,0.7-3.9,1.1
		c0.3,0.3,0.7,0.9,1.2,1.2c1.4,0.9,2.8,1.7,4.2,2.5c0.6,0.3,1.1,0.8,1.6,1.2c0,0.2-0.1,0.3-0.1,0.5c-0.8,0-1.7-0.1-2.6-0.1
		c0.3,0.7,0.2,1.3-0.6,1.3c-0.9,0-1.9,0-3.1,0c0.4,0.6,0.6,1,0.9,1.3c1.9,2,4,3.7,6.4,4.7c0.6,0.2,1.2,0.6,1.7,0.9
		c0.3,0.2,0.4,0.6,0.5,1c-0.3,0.2-0.6,0.5-0.9,0.6c-0.5,0.1-1,0-1.5,0c-0.5,0-0.8,0-0.9,0.7c-0.1,0.3-0.5,0.7-0.8,0.7
		c-1.1,0-2.2-0.1-3.3-0.3c-0.5-0.1-1.1-0.3-1.9-0.6c0.4,0.8,0.6,1.4,0.9,2c1.8,2.9,4.3,4.9,6.8,6.9c0.2,0.1,0.4,0.2,0.5,0.4
		c0.2,0.3,0.3,0.6,0.5,0.9c-0.2,0.1-0.5,0.3-0.7,0.4c-0.2,0.1-0.4,0.2-0.8,0.4c0.5,0.4,0.8,0.8,1.2,1c2.5,1.3,5,2.5,7.6,3.8
		c0.3,0.2,0.7,0.2,1,0.4c0.5,0.4,0.8,0.9,1.3,1.3c-0.5,0.4-1.1,1-1.6,1c-1.2,0.1-2.4-0.1-3.6-0.3c-0.6-0.1-1.2-0.1-1.8-0.2
		c0,0.1-0.1,0.2-0.1,0.3c0.5,0.3,1,0.6,1.5,1c0.3,0.2,0.5,0.6,0.7,0.8c-0.3,0.3-0.6,0.7-0.9,0.7c-0.9,0.2-1.9,0.2-2.8,0.2
		c-0.2,1.2-0.7,1.6-2,1.5c-0.9-0.1-1.8-0.3-2.8-0.4c2.7,4.4,6.7,6.4,10.8,8c0,0.2,0,0.3,0,0.5c-0.7,0.3-1.5,0.6-2.4,1
		c0.4,0.4,0.7,0.7,1.1,0.9c2.7,1.3,5.3,2.6,8,3.9c0.5,0.3,1.1,0.4,1.7,0.8c0.3,0.2,0.6,0.6,0.6,0.8c-0.1,0.3-0.4,0.7-0.7,0.8
		c-0.7,0.1-1.4,0.1-2.2,0.1c-1-0.1-2.1-0.3-3.1-0.4c-0.1,2.5-1.6,0.4-2.3,1.1c0,0.3,0.1,0.7,0.1,1.2c-1.9,0.8-3.8,0.4-5.5-0.7
		c-0.1,0.1-0.1,0.2-0.2,0.3c0.9,1,1.7,2.1,2.7,2.9c3.9,3.2,8.4,5.2,13,6.5c1.4,0.4,2.8,0.9,4.2,1.5c0.3,0.1,0.6,0.7,0.9,1
		c-0.3,0.3-0.6,0.7-1,0.8c-1.4,0.2-2.9,0.4-4.3,0.4c-1.5,0-3-0.1-4.5-0.2c0,0.1-0.1,0.3-0.1,0.4c0.3,0.2,0.6,0.5,0.9,0.7
		c0.8,0.3,1.6,0.5,2.4,0.9c0.3,0.2,0.6,0.7,0.9,1c-0.3,0.2-0.7,0.6-1,0.6c-0.8,0.1-1.6,0.1-2.7,0.2c0.8,0.6,1.4,1,2,1.5
		c0,0.1,0,0.2,0,0.4c-0.5,0.2-1,0.5-1.5,0.5c-1.2,0-2.4-0.1-3.7-0.3c-0.6-0.1-1.2-0.4-1.7,0.4c-0.2,0.3-0.9,0-1.3,0.1
		c-0.4,0-0.9,0.1-1.3,0.2c0.1,0.5,0,1.2,0.2,1.5c1.3,1.6,2.5,3.3,4,4.5c4.7,3.9,9.8,7,15.1,9.7C378.6,472.5,374.3,473.2,368.4,474.2
		z M402.1,442.3l-6-3.2l-6,3.2l1.1-6.7l-4.9-4.7l6.7-1l3-6.1l3,6.1l6.7,1l-4.9,4.7L402.1,442.3z M399,401.9l1.9,10.9l-9.8-5.2
		l-9.8,5.2l1.9-10.9l-7.9-7.7l11-1.6l4.9-9.9l4.9,9.9l11,1.6L399,401.9z"/>
	<path id="XMLID_682_" class="st0" fill="#BB2025" d="M343.3,489.7c-0.3-0.4-0.6-0.9-1.2-1.1c-1.6-0.6-3.2-1.2-4.8-1.7c-4.9-1.4-8.8-3.2-12.2-5.5
		l-2.5-1.7l2.8-1c0.2-0.1,0.4-0.1,0.5-0.2l0.7-0.3l0-0.4l1.2-0.3c0.1,0,0.3-0.1,0.4-0.2c0.1-0.1,0.3-0.2,0.4-0.3l0.5-0.7l0.9,0.1
		c0.5,0.1,1.1,0.2,1.6,0.2c1,0.1,1.9,0.1,2.7-0.1c0.8-0.1,1.4-1,1.6-1.6c0.2-0.9-0.6-1.7-1.1-2c-0.4-0.3-0.9-0.4-1.3-0.6
		c-0.3-0.1-0.5-0.2-0.7-0.3c-2.1-1-4.2-2.1-6.3-3.1l-0.9-0.5l0.3-3.4l-0.7-0.3c-1.5-0.6-2.8-1.2-3.9-1.8c-0.9-0.5-1.8-1-2.5-1.5
		c-0.5-0.3-1-0.7-1.5-1.1l-1.9-1.5l2.2-1c0.4-0.2,0.7-0.4,1-0.8l0.4-0.6l0.8,0c0.5,0,1.1-0.1,1.8-0.2c0.6-0.1,1-0.5,1.3-0.8
		c0.1-0.1,0.1-0.2,0.2-0.2l2-1.7l0.5,0c0.2,0,0.4,0,0.5,0c0.8-0.1,1.4-0.6,1.8-1c0.2-0.2,0.3-0.3,0.5-0.4l1-0.7l-0.8-0.9
		c-0.1-0.1-0.2-0.3-0.4-0.4c-0.4-0.4-0.7-0.8-1.2-1.2c-0.3-0.3-0.7-0.4-1-0.5l-0.3-0.1l-0.8-0.4c-1.7-0.9-3.5-1.7-5.2-2.6l-2.6-1.3
		l1.4-0.7l-0.6-1.1c-0.1-0.3-0.3-0.6-0.5-0.9c-0.2-0.3-0.4-0.5-0.6-0.6l-0.3-0.2c-1.8-1.5-3.5-2.9-5.1-4.6l-2.4-2.7l3.6,0.1
		c0.2,0,0.4,0,0.6,0c0.5,0,1.1-0.4,1.5-0.9l0.5-0.7l0.8,0c0.3,0,0.7,0,1-0.1c0.5-0.1,0.9-0.4,1.2-0.6c0.1-0.1,0.2-0.1,0.2-0.2
		l0.8-0.5l-0.4-0.8c0-0.1-0.1-0.2-0.1-0.3c-0.2-0.4-0.3-0.9-0.8-1.2c-0.6-0.4-1.3-0.8-2.1-1.2c-1.4-0.6-2.9-1.5-4.3-2.7l-1.6-1.4
		l1.8-1.1c0.2-0.1,0.4-0.3,0.5-0.4l0.5-0.7l2.4,0.1l0.5-2l-0.5-0.4c-0.2-0.1-0.4-0.3-0.5-0.4c-0.4-0.3-0.9-0.7-1.3-1
		c-0.6-0.3-1.1-0.7-1.7-1l-3.1-1.8l3.4-0.9l0.3-1.7l-0.4-0.4c-0.7-0.6-1.4-1.1-2-1.6c-0.8-0.6-1.6-1.2-2.3-1.8l-3.1-2.6l3.6,0
		l-2.8-2.8l4.4-1.1l-1.2-1.2c-0.7-0.7-1.5-1.2-2.2-1.6l-0.4-0.2l-1.2-2.3c-0.4-0.7-0.8-1.3-1.3-1.9c-0.3-0.4-0.6-0.7-0.8-1l-0.6-0.9
		l0.6-0.8c0.4-0.6,0.6-1.2-0.2-2.8c-0.3-0.6-0.7-1.3-0.8-1.9c-0.2-1.3-0.3-2.5-0.5-3.8c-0.1-0.8-0.2-1.6-0.3-2.4
		c-0.1-0.7-0.2-1.4-0.3-2.1l-0.3-1.7l-2,0l-0.2,0.7c0,0.1-0.1,0.2-0.1,0.3c-0.2,0.4-0.3,0.9-0.4,1.3c-0.1,0.6-0.1,1.2-0.2,1.9
		c-0.1,0.9-0.1,1.8-0.3,2.6c-0.6,3.1-1.2,5.9-1.8,8.4c0,0.1-0.1,0.2-0.1,0.3c-0.2,0.5-0.4,1.1-0.1,1.7l0.3,0.8l-0.5,0.7
		c-1.2,1.7-2.8,3.1-5.2,4.5l-1.3,0.8l1.2,0.9c0.3,0.2,0.5,0.4,0.8,0.5l2.2,1l-1.9,1.5c-0.5,0.4-1,0.8-1.5,1.2c-0.5,0.4-1,0.7-1.5,1
		c-0.5,0.3-1,0.6-1.5,1c-0.5,0.3-0.6,0.8-0.7,1.3c0,0.1-0.1,0.2-0.1,0.3l-0.4,0.9l0.8,0.4c0.1,0,0.2,0.1,0.2,0.1l4.8-3.7
		c1.3-1,2.6-2.1,4.3-3.5c0.2-0.2,0.3-0.4,0.5-0.6l-0.1,0l0.6-1c0,0,0,0,0-0.1l0.8-1.4l0,0l-3.5-0.2l2-2.3c0.9-1.1,1.7-2.3,2.3-3.6
		l1.4-3.2l1.5,2.7c0.2,0.3,0.4,0.6,0.6,0.9l1.1,1.5l-0.7,0.4l0.4,0.9c0.2,0.5,0.5,1,0.9,1.4l1.8,1.9l-3.3,0.8l1.9,1.9l-1.5,0
		l0.7,1.4c1.2,2.5,3,4.1,4.6,5.4l2.4,1.8l-4.6,1.2l1.2,1.2c0.1,0.1,0.2,0.2,0.3,0.3c0.3,0.4,0.7,0.8,1.2,1.1
		c0.5,0.3,0.9,0.6,1.4,0.8l0.4,0.2l1.3,3.1l-5.1,0l1.1,1.6c0.2,0.2,0.3,0.4,0.4,0.6c0.2,0.4,0.4,0.7,0.7,1c1.4,1.5,3.4,3.3,5.8,4.7
		l1.6,0.9l-1.2,1.4c-0.1,0.1-0.1,0.2-0.2,0.3l-0.5,0.8l-0.9-0.1c-0.7-0.1-1.5-0.1-2.4-0.3c-0.3,0-0.6-0.2-1.1-0.3
		c-0.3-0.1-0.5-0.2-0.9-0.3l-2.2-0.7l1,2.1c0.1,0.3,0.3,0.6,0.4,0.8c0.3,0.6,0.5,1.1,0.8,1.5c1.9,2.9,4.3,5.1,6.5,6.9l1.8,1.5
		l-2.2,1.1l1.3,1.1c0.1,0.1,0.3,0.2,0.4,0.3c0.3,0.3,0.7,0.6,1.1,0.8c1.4,0.7,2.8,1.4,4.1,2.1l7.7,3.8l-8.9-1l-1.2,3.6l-0.8,0.1
		l-0.3,1.7l-1.4-0.2c-0.1,0-0.2,0-0.4-0.1l-0.2,0c-0.4-0.1-0.8-0.1-1.2-0.2c-0.3-0.1-0.7-0.1-1-0.2l-2.2-0.3l1.1,1.9
		c1.8,2.9,4.1,5.1,7.4,7l0.2,0.1c0.2,0.1,0.4,0.2,0.5,0.3l2.8,1.5l-2.5,1l1.3,1.1c0.1,0.1,0.3,0.2,0.4,0.3c0.3,0.3,0.7,0.6,1.1,0.8
		c1.2,0.6,2.3,1.2,3.5,1.8l0.9,0.4l-0.2,3.6l-1.3,0.1c-0.3,0-0.6,0.1-0.9,0.4l-0.4,0.3l0.1,1.4l-1.8-0.2c-0.9-0.1-1.9-0.4-2.9-1.1
		l-0.9-0.5l-1.1,1.9l0.5,0.5c0.3,0.3,0.6,0.7,0.9,1c0.7,0.8,1.4,1.6,2.3,2.3c3.4,2.8,7.4,5,12.3,6.7l9.5,3.3l0.6-0.5l-0.6-0.8
		C343.4,489.9,343.3,489.8,343.3,489.7z"/>
</g>
</svg>
